<svg id="Layer_1" data-name="Layer 1" xmlns="http://www.w3.org/2000/svg" viewBox="0 0 324.32 355.33"><defs><clipPath id="clip-path"><path class="cls-1" d="M177.35 85.93c0-8.94-6-23.22-11.39-30.38-2.64-3.52-5-3.52-7.59 0-4.55 6.06-11.4 22.8-11.4 30.38z"/></clipPath><clipPath id="clip-path-2"><path class="cls-1" d="M158.37 342.61h7.59v7.59h-7.59z"/></clipPath><clipPath id="clip-path-3"><path class="cls-1" d="M158.37 302.36h7.59v32.65h-7.59z"/></clipPath><clipPath id="clip-path-4"><path class="cls-1" d="M177.35 294.77h7.59v44.05h-7.59z"/></clipPath><clipPath id="clip-path-5"><path class="cls-1" d="M200.13 323.62h7.59v7.59h-7.59z"/></clipPath><clipPath id="clip-path-6"><path class="cls-1" d="M200.13 287.17h7.59v28.86h-7.59z"/></clipPath><clipPath id="clip-path-7"><path class="cls-1" d="M116.6 323.62h7.59v7.59h-7.59z"/></clipPath><clipPath id="clip-path-8"><path class="cls-1" d="M116.6 287.17h7.59v28.86h-7.59z"/></clipPath><clipPath id="clip-path-9"><path class="cls-1" d="M139.38 294.77h7.59v44.05h-7.59z"/></clipPath><clipPath id="clip-path-10"><path class="cls-1" d="M227.52 278.54l-4.72-18.87-7.37 1.84 2.86 11.42a167.39 167.39 0 01-26.54 2.79l-4.84-46a24.89 24.89 0 00-49.5 0l-4.84 46a166.21 166.21 0 01-26.57-2.79l2.85-11.42-7.37-1.84-4.68 18.87 3.69.92c11.5 2.88 24.86 3.64 31.28 3.84l-.28 2.71 2.89 1a98.7 98.7 0 0055.56 0l2.9-1-.29-2.71c6.42-.2 19.78-1 31.29-3.84zm-65.36 4.83a94.16 94.16 0 01-22.47-2.78l5.31-50.08a17.29 17.29 0 0134.39 0l5.27 50.08a93.11 93.11 0 01-22.5 2.78z"/></clipPath><clipPath id="clip-path-11"><path class="cls-1" d="M222.91 196.91v-84.4c0-18-19.89-30-26.62-33.51a97.13 97.13 0 00-19.24-55.5 18.6 18.6 0 00-29.77 0c-10.17 13.57-18.51 37.88-19.22 55.5-6.72 3.53-26.65 15.52-26.65 33.52v84.4l-38 31.52v31.62l3.22.5c.5.07 50.17 7.64 95.5 7.64s95-7.57 95.5-7.64l3.22-.5v-31.63zm-7.59-84.4v78.1l-6.16-5.12a34 34 0 01-12.82-26.68v-71c7.17 4.35 18.98 13.29 18.98 24.7zm-106.32 0c0-11.41 11.81-20.35 19-24.73v71a34.08 34.08 0 01-12.88 26.73l-6.12 5.1zm144.29 141c-11.29 1.6-50.29 6.73-87.29 7.06v-49.34h-7.59v49.34c-37.05-.33-76.06-5.46-87.34-7.06V232l48.88-40.58a41.57 41.57 0 0015.67-32.61V81.37c0-16.05 8.14-40.47 17.77-53.31a11 11 0 0117.62 0 89.4 89.4 0 0117.77 53.31v77.44a41.53 41.53 0 0015.63 32.57L253.29 232z"/></clipPath><clipPath id="clip-path-12"><path class="cls-1" d="M169 53.28c-.78-1-3.12-4.17-6.84-4.17-3.71 0-6.06 3.14-6.83 4.16-4.69 6.25-12.15 23.73-12.15 32.66v45.56h7.59V89.73h22.78v41.76h7.6V85.93c0-9.85-6.29-24.83-12.15-32.65zm-17.76 28.85c1.55-7.57 6.64-19.61 10.16-24.3a7.49 7.49 0 01.76-.88 7.49 7.49 0 01.76.88 64.39 64.39 0 0110.29 24.3z"/></clipPath><style>.cls-1{fill:#84d9bc}</style></defs><path class="cls-1" d="M177.35 85.93c0-8.94-6-23.22-11.39-30.38-2.64-3.52-5-3.52-7.59 0-4.55 6.06-11.4 22.8-11.4 30.38z"/><g clip-path="url(#clip-path)"><path class="cls-1" d="M146.97 52.03h.45v33.9h-.45zm.46 0h.45v33.9h-.45zm.45 0h.45v33.9h-.45zm.45 0h.45v33.9h-.45zm.46 0h.45v33.9h-.45zm.45 0h.45v33.9h-.45zm.45 0h.45v33.9h-.45zm.46 0h.45v33.9h-.45zm.45 0h.45v33.9h-.45zm.45 0h.45v33.9h-.45zm.46 0h.45v33.9h-.45zm.45 0h.45v33.9h-.45zm.46 0h.45v33.9h-.45zm.45 0h.45v33.9h-.45zm.45 0h.45v33.9h-.45zm.46 0h.45v33.9h-.45zm.45 0h.45v33.9h-.45zm.45 0h.45v33.9h-.45zm.46 0h.45v33.9h-.45zm.45 0h.45v33.9h-.45zm.45 0h.45v33.9h-.45zm.46 0h.45v33.9h-.45zm.45 0h.45v33.9h-.45zm.45 0h.45v33.9h-.45zm.46 0h.45v33.9h-.45zm.45 0h.45v33.9h-.45zm.45 0h.45v33.9h-.45zm.46 0h.45v33.9h-.45zm.45 0h.45v33.9h-.45zm.45 0h.45v33.9h-.45zm.46 0h.45v33.9h-.45zm.45 0h.45v33.9h-.45zm.45 0h.45v33.9h-.45zm.46 0h.45v33.9h-.45zm.45 0h.45v33.9h-.45zm.45 0h.45v33.9h-.45zm.46 0h.45v33.9h-.45zm.45 0h.45v33.9h-.45zm.45 0h.45v33.9h-.45zm.46 0h.45v33.9h-.45zm.45 0h.45v33.9h-.45zm.45 0h.45v33.9h-.45zm.46 0h.45v33.9h-.45zm.45 0h.45v33.9h-.45zm.45 0h.45v33.9h-.45zm.46 0h.45v33.9h-.45zm.45 0h.45v33.9h-.45zm.45 0h.45v33.9h-.45zm.46 0h.45v33.9h-.45zm.45 0h.45v33.9h-.45zm.45 0h.45v33.9h-.45zm.46 0h.45v33.9h-.45zm.45 0h.45v33.9h-.45zm.45 0h.45v33.9H171zm.46 0h.45v33.9h-.45zm.45 0h.45v33.9h-.45zm.45 0h.45v33.9h-.45zm.46 0h.45v33.9h-.45zm.45 0h.45v33.9h-.45zm.45 0h.45v33.9h-.45zm.46 0h.45v33.9h-.45zm.45 0h.45v33.9h-.45zm.45 0h.45v33.9h-.45zm.46 0h.45v33.9h-.45zm.45 0h.45v33.9h-.45zm.45 0h.45v33.9h-.45zm.46 0h.45v33.9h-.45z"/></g><path class="cls-1" d="M158.37 342.61h7.59v7.59h-7.59z"/><g clip-path="url(#clip-path-2)"><path class="cls-1" d="M158.37 342.61h.11v7.59h-.11z"/><path class="cls-1" d="M158.48 342.61h.11v7.59h-.11zm.11 0h.11v7.59h-.11zm.12 0h.11v7.59h-.11z"/><path class="cls-1" d="M158.82 342.61h.11v7.59h-.11zm.11 0h.11v7.59h-.11zm.12 0h.11v7.59h-.11z"/><path class="cls-1" d="M159.16 342.61h.11v7.59h-.11zm.11 0h.11v7.59h-.11zm.12 0h.11v7.59h-.11zm.11 0h.11v7.59h-.11zm.11 0h.11v7.59h-.11zm.12 0h.11v7.59h-.11zm.11 0h.11v7.59h-.11z"/><path class="cls-1" d="M159.95 342.61h.11v7.59h-.11zm.12 0h.11v7.59h-.11zm.11 0h.11v7.59h-.11z"/><path class="cls-1" d="M160.29 342.61h.11v7.59h-.11zm.12 0h.11v7.59h-.11zm.11 0h.11v7.59h-.11z"/><path class="cls-1" d="M160.63 342.61h.11v7.59h-.11zm.12 0h.11v7.59h-.11zm.11 0h.11v7.59h-.11z"/><path class="cls-1" d="M160.97 342.61h.11v7.59h-.11zm.12 0h.11v7.59h-.11z"/><path class="cls-1" d="M161.2 342.61h.11v7.59h-.11zm.11 0h.11v7.59h-.11zm.12 0h.11v7.59h-.11z"/><path class="cls-1" d="M161.54 342.61h.11v7.59h-.11zm.11 0h.11v7.59h-.11zm.12 0h.11v7.59h-.11z"/><path class="cls-1" d="M161.88 342.61h.11v7.59h-.11zm.11 0h.11v7.59h-.11zm.12 0h.11v7.59h-.11z"/><path class="cls-1" d="M162.22 342.61h.11v7.59h-.11zm.11 0h.11v7.59h-.11zm.12 0h.11v7.59h-.11zm.11 0h.11v7.59h-.11z"/><path class="cls-1" d="M162.67 342.61h.11v7.59h-.11zm.12 0h.11v7.59h-.11zm.11 0h.11v7.59h-.11z"/><path class="cls-1" d="M163.01 342.61h.11v7.59h-.11zm.12 0h.11v7.59h-.11zm.11 0h.11v7.59h-.11z"/><path class="cls-1" d="M163.35 342.61h.11v7.59h-.11zm.12 0h.11v7.59h-.11zm.11 0h.11v7.59h-.11z"/><path class="cls-1" d="M163.69 342.61h.11v7.59h-.11zm.12 0h.11v7.59h-.11z"/><path class="cls-1" d="M163.92 342.61h.11v7.59h-.11zm.11 0h.11v7.59h-.11zm.12 0h.11v7.59h-.11z"/><path class="cls-1" d="M164.26 342.61h.11v7.59h-.11zm.11 0h.11v7.59h-.11zm.12 0h.11v7.59h-.11z"/><path class="cls-1" d="M164.6 342.61h.11v7.59h-.11zm.11 0h.11v7.59h-.11zm.12 0h.11v7.59h-.11z"/><path class="cls-1" d="M164.94 342.61h.11v7.59h-.11zm.11 0h.11v7.59h-.11zm.12 0h.11v7.59h-.11zm.11 0h.11v7.59h-.11z"/><path class="cls-1" d="M165.39 342.61h.11v7.59h-.11zm.12 0h.11v7.59h-.11zm.11 0h.11v7.59h-.11z"/><path class="cls-1" d="M165.73 342.61h.11v7.59h-.11zm.12 0h.11v7.59h-.11z"/></g><path class="cls-1" d="M158.37 302.36h7.59v32.65h-7.59z"/><g clip-path="url(#clip-path-3)"><path class="cls-1" d="M158.37 302.36h.11v32.65h-.11z"/><path class="cls-1" d="M158.48 302.36h.11v32.65h-.11zm.11 0h.11v32.65h-.11zm.12 0h.11v32.65h-.11z"/><path class="cls-1" d="M158.82 302.36h.11v32.65h-.11zm.11 0h.11v32.65h-.11zm.12 0h.11v32.65h-.11z"/><path class="cls-1" d="M159.16 302.36h.11v32.65h-.11zm.11 0h.11v32.65h-.11zm.12 0h.11v32.65h-.11zm.11 0h.11v32.65h-.11zm.11 0h.11v32.65h-.11zm.12 0h.11v32.65h-.11zm.11 0h.11v32.65h-.11z"/><path class="cls-1" d="M159.95 302.36h.11v32.65h-.11zm.12 0h.11v32.65h-.11zm.11 0h.11v32.65h-.11z"/><path class="cls-1" d="M160.29 302.36h.11v32.65h-.11zm.12 0h.11v32.65h-.11zm.11 0h.11v32.65h-.11z"/><path class="cls-1" d="M160.63 302.36h.11v32.65h-.11zm.12 0h.11v32.65h-.11zm.11 0h.11v32.65h-.11z"/><path class="cls-1" d="M160.97 302.36h.11v32.65h-.11zm.12 0h.11v32.65h-.11z"/><path class="cls-1" d="M161.2 302.36h.11v32.65h-.11zm.11 0h.11v32.65h-.11zm.12 0h.11v32.65h-.11z"/><path class="cls-1" d="M161.54 302.36h.11v32.65h-.11zm.11 0h.11v32.65h-.11zm.12 0h.11v32.65h-.11z"/><path class="cls-1" d="M161.88 302.36h.11v32.65h-.11zm.11 0h.11v32.65h-.11zm.12 0h.11v32.65h-.11z"/><path class="cls-1" d="M162.22 302.36h.11v32.65h-.11zm.11 0h.11v32.65h-.11zm.12 0h.11v32.65h-.11zm.11 0h.11v32.65h-.11z"/><path class="cls-1" d="M162.67 302.36h.11v32.65h-.11zm.12 0h.11v32.65h-.11zm.11 0h.11v32.65h-.11z"/><path class="cls-1" d="M163.01 302.36h.11v32.65h-.11zm.12 0h.11v32.65h-.11zm.11 0h.11v32.65h-.11z"/><path class="cls-1" d="M163.35 302.36h.11v32.65h-.11zm.12 0h.11v32.65h-.11zm.11 0h.11v32.65h-.11z"/><path class="cls-1" d="M163.69 302.36h.11v32.65h-.11zm.12 0h.11v32.65h-.11z"/><path class="cls-1" d="M163.92 302.36h.11v32.65h-.11zm.11 0h.11v32.65h-.11zm.12 0h.11v32.65h-.11z"/><path class="cls-1" d="M164.26 302.36h.11v32.65h-.11zm.11 0h.11v32.65h-.11zm.12 0h.11v32.65h-.11z"/><path class="cls-1" d="M164.6 302.36h.11v32.65h-.11zm.11 0h.11v32.65h-.11zm.12 0h.11v32.65h-.11z"/><path class="cls-1" d="M164.94 302.36h.11v32.65h-.11zm.11 0h.11v32.65h-.11zm.12 0h.11v32.65h-.11zm.11 0h.11v32.65h-.11z"/><path class="cls-1" d="M165.39 302.36h.11v32.65h-.11zm.12 0h.11v32.65h-.11zm.11 0h.11v32.65h-.11z"/><path class="cls-1" d="M165.73 302.36h.11v32.65h-.11zm.12 0h.11v32.65h-.11z"/></g><path class="cls-1" d="M177.35 294.77h7.59v44.05h-7.59z"/><g clip-path="url(#clip-path-4)"><path class="cls-1" d="M177.35 294.77h.11v44.05h-.11zm.11 0h.11v44.05h-.11zm.12 0h.11v44.05h-.11z"/><path class="cls-1" d="M177.69 294.77h.11v44.05h-.11zm.11 0h.11v44.05h-.11zm.12 0h.11v44.05h-.11zm.11 0h.11v44.05h-.11z"/><path class="cls-1" d="M178.14 294.77h.11v44.05h-.11zm.12 0h.11v44.05h-.11zm.11 0h.11v44.05h-.11z"/><path class="cls-1" d="M178.48 294.77h.11v44.05h-.11zm.12 0h.11v44.05h-.11zm.11 0h.11v44.05h-.11z"/><path class="cls-1" d="M178.82 294.77h.11v44.05h-.11zm.12 0h.11v44.05h-.11zm.11 0h.11v44.05h-.11z"/><path class="cls-1" d="M179.16 294.77h.11v44.05h-.11zm.12 0h.11v44.05h-.11z"/><path class="cls-1" d="M179.39 294.77h.11v44.05h-.11zm.11 0h.11v44.05h-.11zm.12 0h.11v44.05h-.11z"/><path class="cls-1" d="M179.73 294.77h.11v44.05h-.11zm.11 0h.11v44.05h-.11zm.12 0h.11v44.05h-.11z"/><path class="cls-1" d="M180.07 294.77h.11v44.05h-.11zm.11 0h.11v44.05h-.11zm.12 0h.11v44.05h-.11z"/><path class="cls-1" d="M180.41 294.77h.11v44.05h-.11zm.11 0h.11v44.05h-.11zm.12 0h.11v44.05h-.11zm.11 0h.11v44.05h-.11zm.11 0h.11v44.05h-.11zm.12 0h.11v44.05h-.11zm.11 0h.11v44.05h-.11z"/><path class="cls-1" d="M181.2 294.77h.11v44.05h-.11zm.12 0h.11v44.05h-.11zm.11 0h.11v44.05h-.11z"/><path class="cls-1" d="M181.54 294.77h.11v44.05h-.11zm.12 0h.11v44.05h-.11zm.11 0h.11v44.05h-.11z"/><path class="cls-1" d="M181.88 294.77h.11v44.05h-.11zm.12 0h.11v44.05H182zm.11 0h.11v44.05h-.11z"/><path class="cls-1" d="M182.22 294.77h.11v44.05h-.11zm.12 0h.11v44.05h-.11z"/><path class="cls-1" d="M182.45 294.77h.11v44.05h-.11zm.11 0h.11v44.05h-.11zm.12 0h.11v44.05h-.11z"/><path class="cls-1" d="M182.79 294.77h.11v44.05h-.11zm.11 0h.11v44.05h-.11zm.12 0h.11v44.05h-.11z"/><path class="cls-1" d="M183.13 294.77h.11v44.05h-.11zm.11 0h.11v44.05h-.11zm.12 0h.11v44.05h-.11z"/><path class="cls-1" d="M183.47 294.77h.11v44.05h-.11zm.11 0h.11v44.05h-.11zm.12 0h.11v44.05h-.11zm.11 0h.11v44.05h-.11z"/><path class="cls-1" d="M183.92 294.77h.11v44.05h-.11zm.12 0h.11v44.05h-.11zm.11 0h.11v44.05h-.11z"/><path class="cls-1" d="M184.26 294.77h.11v44.05h-.11zm.12 0h.11v44.05h-.11zm.11 0h.11v44.05h-.11z"/><path class="cls-1" d="M184.6 294.77h.11v44.05h-.11zm.12 0h.11v44.05h-.11zm.11 0h.11v44.05h-.11z"/></g><path class="cls-1" d="M200.13 323.62h7.59v7.59h-7.59z"/><g clip-path="url(#clip-path-5)"><path class="cls-1" d="M200.13 323.62h.11v7.59h-.11zm.12 0h.11v7.59h-.11zm.11 0h.11v7.59h-.11z"/><path class="cls-1" d="M200.47 323.62h.11v7.59h-.11zm.12 0h.11v7.59h-.11z"/><path class="cls-1" d="M200.7 323.62h.11v7.59h-.11zm.11 0h.11v7.59h-.11zm.12 0h.11v7.59h-.11z"/><path class="cls-1" d="M201.04 323.62h.11v7.59h-.11zm.11 0h.11v7.59h-.11zm.12 0h.11v7.59h-.11z"/><path class="cls-1" d="M201.38 323.62h.11v7.59h-.11zm.11 0h.11v7.59h-.11zm.12 0h.11v7.59h-.11z"/><path class="cls-1" d="M201.72 323.62h.11v7.59h-.11zm.11 0h.11v7.59h-.11zm.12 0h.11v7.59h-.11zm.11 0h.11v7.59h-.11z"/><path class="cls-1" d="M202.17 323.62h.11v7.59h-.11zm.12 0h.11v7.59h-.11zm.11 0h.11v7.59h-.11z"/><path class="cls-1" d="M202.51 323.62h.11v7.59h-.11zm.12 0h.11v7.59h-.11zm.11 0h.11v7.59h-.11z"/><path class="cls-1" d="M202.85 323.62h.11v7.59h-.11zm.12 0h.11v7.59h-.11zm.11 0h.11v7.59h-.11z"/><path class="cls-1" d="M203.19 323.62h.11v7.59h-.11zm.12 0h.11v7.59h-.11z"/><path class="cls-1" d="M203.42 323.62h.11v7.59h-.11zm.11 0h.11v7.59h-.11zm.12 0h.11v7.59h-.11z"/><path class="cls-1" d="M203.76 323.62h.11v7.59h-.11zm.11 0h.11v7.59h-.11zm.12 0h.11v7.59h-.11z"/><path class="cls-1" d="M204.1 323.62h.11v7.59h-.11zm.11 0h.11v7.59h-.11zm.12 0h.11v7.59h-.11z"/><path class="cls-1" d="M204.44 323.62h.11v7.59h-.11zm.11 0h.11v7.59h-.11zm.12 0h.11v7.59h-.11zm.11 0h.11v7.59h-.11z"/><path class="cls-1" d="M204.89 323.62h.11v7.59h-.11zm.12 0h.11v7.59h-.11zm.11 0h.11v7.59h-.11z"/><path class="cls-1" d="M205.23 323.62h.11v7.59h-.11zm.12 0h.11v7.59h-.11zm.11 0h.11v7.59h-.11z"/><path class="cls-1" d="M205.57 323.62h.11v7.59h-.11zm.12 0h.11v7.59h-.11zm.11 0h.11v7.59h-.11z"/><path class="cls-1" d="M205.91 323.62h.11v7.59h-.11zm.12 0h.11v7.59h-.11z"/><path class="cls-1" d="M206.14 323.62h.11v7.59h-.11zm.11 0h.11v7.59h-.11zm.12 0h.11v7.59h-.11z"/><path class="cls-1" d="M206.48 323.62h.11v7.59h-.11zm.11 0h.11v7.59h-.11zm.12 0h.11v7.59h-.11z"/><path class="cls-1" d="M206.82 323.62h.11v7.59h-.11zm.11 0h.11v7.59h-.11zm.12 0h.11v7.59h-.11z"/><path class="cls-1" d="M207.16 323.62h.11v7.59h-.11zm.11 0h.11v7.59h-.11zm.12 0h.11v7.59h-.11zm.11 0h.11v7.59h-.11zm.11 0h.11v7.59h-.11z"/></g><path class="cls-1" d="M200.13 287.17h7.59v28.86h-7.59z"/><g clip-path="url(#clip-path-6)"><path class="cls-1" d="M200.13 287.17h.11v28.86h-.11zm.12 0h.11v28.86h-.11zm.11 0h.11v28.86h-.11z"/><path class="cls-1" d="M200.47 287.17h.11v28.86h-.11zm.12 0h.11v28.86h-.11z"/><path class="cls-1" d="M200.7 287.17h.11v28.86h-.11zm.11 0h.11v28.86h-.11zm.12 0h.11v28.86h-.11z"/><path class="cls-1" d="M201.04 287.17h.11v28.86h-.11zm.11 0h.11v28.86h-.11zm.12 0h.11v28.86h-.11z"/><path class="cls-1" d="M201.38 287.17h.11v28.86h-.11zm.11 0h.11v28.86h-.11zm.12 0h.11v28.86h-.11z"/><path class="cls-1" d="M201.72 287.17h.11v28.86h-.11zm.11 0h.11v28.86h-.11zm.12 0h.11v28.86h-.11zm.11 0h.11v28.86h-.11z"/><path class="cls-1" d="M202.17 287.17h.11v28.86h-.11zm.12 0h.11v28.86h-.11zm.11 0h.11v28.86h-.11z"/><path class="cls-1" d="M202.51 287.17h.11v28.86h-.11zm.12 0h.11v28.86h-.11zm.11 0h.11v28.86h-.11z"/><path class="cls-1" d="M202.85 287.17h.11v28.86h-.11zm.12 0h.11v28.86h-.11zm.11 0h.11v28.86h-.11z"/><path class="cls-1" d="M203.19 287.17h.11v28.86h-.11zm.12 0h.11v28.86h-.11z"/><path class="cls-1" d="M203.42 287.17h.11v28.86h-.11zm.11 0h.11v28.86h-.11zm.12 0h.11v28.86h-.11z"/><path class="cls-1" d="M203.76 287.17h.11v28.86h-.11zm.11 0h.11v28.86h-.11zm.12 0h.11v28.86h-.11z"/><path class="cls-1" d="M204.1 287.17h.11v28.86h-.11zm.11 0h.11v28.86h-.11zm.12 0h.11v28.86h-.11z"/><path class="cls-1" d="M204.44 287.17h.11v28.86h-.11zm.11 0h.11v28.86h-.11zm.12 0h.11v28.86h-.11zm.11 0h.11v28.86h-.11z"/><path class="cls-1" d="M204.89 287.17h.11v28.86h-.11zm.12 0h.11v28.86h-.11zm.11 0h.11v28.86h-.11z"/><path class="cls-1" d="M205.23 287.17h.11v28.86h-.11zm.12 0h.11v28.86h-.11zm.11 0h.11v28.86h-.11z"/><path class="cls-1" d="M205.57 287.17h.11v28.86h-.11zm.12 0h.11v28.86h-.11zm.11 0h.11v28.86h-.11z"/><path class="cls-1" d="M205.91 287.17h.11v28.86h-.11zm.12 0h.11v28.86h-.11z"/><path class="cls-1" d="M206.14 287.17h.11v28.86h-.11zm.11 0h.11v28.86h-.11zm.12 0h.11v28.86h-.11z"/><path class="cls-1" d="M206.48 287.17h.11v28.86h-.11zm.11 0h.11v28.86h-.11zm.12 0h.11v28.86h-.11z"/><path class="cls-1" d="M206.82 287.17h.11v28.86h-.11zm.11 0h.11v28.86h-.11zm.12 0h.11v28.86h-.11z"/><path class="cls-1" d="M207.16 287.17h.11v28.86h-.11zm.11 0h.11v28.86h-.11zm.12 0h.11v28.86h-.11zm.11 0h.11v28.86h-.11zm.11 0h.11v28.86h-.11z"/></g><path class="cls-1" d="M116.6 323.62h7.59v7.59h-7.59z"/><g clip-path="url(#clip-path-7)"><path class="cls-1" d="M116.6 323.62h.11v7.59h-.11zm.11 0h.11v7.59h-.11zm.11 0h.11v7.59h-.11zm.12 0h.11v7.59h-.11zm.11 0h.11v7.59h-.11zm.11 0h.11v7.59h-.11zm.12 0h.11v7.59h-.11zm.11 0h.11v7.59h-.11zm.11 0h.11v7.59h-.11zm.12 0h.11v7.59h-.11zm.11 0h.11v7.59h-.11zm.11 0h.11v7.59h-.11zm.12 0h.11v7.59h-.11zm.11 0h.11v7.59h-.11zm.11 0h.11v7.59h-.11zm.12 0h.11v7.59h-.11zm.11 0h.11v7.59h-.11zm.11 0h.11v7.59h-.11zm.12 0h.11v7.59h-.11zm.11 0h.11v7.59h-.11zm.11 0h.11v7.59h-.11zm.12 0h.11v7.59h-.11zm.11 0h.11v7.59h-.11zm.11 0h.11v7.59h-.11zm.12 0h.11v7.59h-.11zm.11 0h.11v7.59h-.11zm.11 0h.11v7.59h-.11zm.12 0h.11v7.59h-.11zm.11 0h.11v7.59h-.11zm.11 0h.11v7.59h-.11zm.12 0h.11v7.59H120zm.11 0h.11v7.59h-.11zm.11 0h.11v7.59h-.11zm.12 0h.11v7.59h-.11zm.11 0h.11v7.59h-.11zm.11 0h.11v7.59h-.11zm.12 0h.11v7.59h-.11zm.11 0h.11v7.59h-.11zm.11 0h.11v7.59h-.11zm.12 0h.11v7.59h-.11zm.11 0h.11v7.59h-.11zm.11 0h.11v7.59h-.11zm.12 0h.11v7.59h-.11zm.11 0h.11v7.59h-.11zm.11 0h.11v7.59h-.11zm.12 0h.11v7.59h-.11zm.11 0h.11v7.59h-.11zm.12 0h.11v7.59h-.11zm.11 0h.11v7.59h-.11zm.11 0h.11v7.59h-.11zm.12 0h.11v7.59h-.11zm.11 0h.11v7.59h-.11zm.11 0h.11v7.59h-.11zm.12 0h.11v7.59h-.11zm.11 0h.11v7.59h-.11zm.11 0h.11v7.59h-.11zm.12 0h.11v7.59h-.11zm.11 0h.11v7.59h-.11zm.11 0h.11v7.59h-.11zm.12 0h.11v7.59h-.11zm.11 0h.11v7.59h-.11zm.11 0h.11v7.59h-.11zm.12 0h.11v7.59h-.11zm.11 0h.11v7.59h-.11zm.11 0h.11v7.59h-.11zm.12 0h.11v7.59h-.11zm.11 0h.11v7.59h-.11z"/></g><path class="cls-1" d="M116.6 287.17h7.59v28.86h-7.59z"/><g clip-path="url(#clip-path-8)"><path class="cls-1" d="M116.6 287.17h.11v28.86h-.11zm.11 0h.11v28.86h-.11zm.11 0h.11v28.86h-.11zm.12 0h.11v28.86h-.11zm.11 0h.11v28.86h-.11zm.11 0h.11v28.86h-.11zm.12 0h.11v28.86h-.11zm.11 0h.11v28.86h-.11zm.11 0h.11v28.86h-.11zm.12 0h.11v28.86h-.11zm.11 0h.11v28.86h-.11zm.11 0h.11v28.86h-.11zm.12 0h.11v28.86h-.11zm.11 0h.11v28.86h-.11zm.11 0h.11v28.86h-.11zm.12 0h.11v28.86h-.11zm.11 0h.11v28.86h-.11zm.11 0h.11v28.86h-.11zm.12 0h.11v28.86h-.11zm.11 0h.11v28.86h-.11zm.11 0h.11v28.86h-.11zm.12 0h.11v28.86h-.11zm.11 0h.11v28.86h-.11zm.11 0h.11v28.86h-.11zm.12 0h.11v28.86h-.11zm.11 0h.11v28.86h-.11zm.11 0h.11v28.86h-.11zm.12 0h.11v28.86h-.11zm.11 0h.11v28.86h-.11zm.11 0h.11v28.86h-.11zm.12 0h.11v28.86H120zm.11 0h.11v28.86h-.11zm.11 0h.11v28.86h-.11zm.12 0h.11v28.86h-.11zm.11 0h.11v28.86h-.11zm.11 0h.11v28.86h-.11zm.12 0h.11v28.86h-.11zm.11 0h.11v28.86h-.11zm.11 0h.11v28.86h-.11zm.12 0h.11v28.86h-.11zm.11 0h.11v28.86h-.11zm.11 0h.11v28.86h-.11zm.12 0h.11v28.86h-.11zm.11 0h.11v28.86h-.11zm.11 0h.11v28.86h-.11zm.12 0h.11v28.86h-.11zm.11 0h.11v28.86h-.11zm.12 0h.11v28.86h-.11zm.11 0h.11v28.86h-.11zm.11 0h.11v28.86h-.11zm.12 0h.11v28.86h-.11zm.11 0h.11v28.86h-.11zm.11 0h.11v28.86h-.11zm.12 0h.11v28.86h-.11zm.11 0h.11v28.86h-.11zm.11 0h.11v28.86h-.11zm.12 0h.11v28.86h-.11zm.11 0h.11v28.86h-.11zm.11 0h.11v28.86h-.11zm.12 0h.11v28.86h-.11zm.11 0h.11v28.86h-.11zm.11 0h.11v28.86h-.11zm.12 0h.11v28.86h-.11zm.11 0h.11v28.86h-.11zm.11 0h.11v28.86h-.11zm.12 0h.11v28.86h-.11zm.11 0h.11v28.86h-.11z"/></g><path class="cls-1" d="M139.38 294.77h7.59v44.05h-7.59z"/><g clip-path="url(#clip-path-9)"><path class="cls-1" d="M139.38 294.77h.11v44.05h-.11zm.11 0h.11v44.05h-.11zm.12 0h.11v44.05h-.11z"/><path class="cls-1" d="M139.72 294.77h.11v44.05h-.11zm.11 0h.11v44.05h-.11zm.12 0h.11v44.05h-.11zm.11 0h.11v44.05h-.11z"/><path class="cls-1" d="M140.17 294.77h.11v44.05h-.11zm.12 0h.11v44.05h-.11zm.11 0h.11v44.05h-.11z"/><path class="cls-1" d="M140.51 294.77h.11v44.05h-.11zm.12 0h.11v44.05h-.11zm.11 0h.11v44.05h-.11z"/><path class="cls-1" d="M140.85 294.77h.11v44.05h-.11zm.12 0h.11v44.05h-.11zm.11 0h.11v44.05h-.11z"/><path class="cls-1" d="M141.19 294.77h.11v44.05h-.11zm.12 0h.11v44.05h-.11z"/><path class="cls-1" d="M141.42 294.77h.11v44.05h-.11zm.11 0h.11v44.05h-.11zm.12 0h.11v44.05h-.11z"/><path class="cls-1" d="M141.76 294.77h.11v44.05h-.11zm.11 0h.11v44.05h-.11zm.12 0h.11v44.05h-.11z"/><path class="cls-1" d="M142.1 294.77h.11v44.05h-.11zm.11 0h.11v44.05h-.11zm.12 0h.11v44.05h-.11z"/><path class="cls-1" d="M142.44 294.77h.11v44.05h-.11zm.11 0h.11v44.05h-.11zm.12 0h.11v44.05h-.11zm.11 0h.11v44.05h-.11z"/><path class="cls-1" d="M142.89 294.77h.11v44.05h-.11zm.12 0h.11v44.05h-.11zm.11 0h.11v44.05h-.11z"/><path class="cls-1" d="M143.23 294.77h.11v44.05h-.11zm.12 0h.11v44.05h-.11zm.11 0h.11v44.05h-.11z"/><path class="cls-1" d="M143.57 294.77h.11v44.05h-.11zm.12 0h.11v44.05h-.11zm.11 0h.11v44.05h-.11z"/><path class="cls-1" d="M143.91 294.77h.11v44.05h-.11zm.12 0h.11v44.05h-.11z"/><path class="cls-1" d="M144.14 294.77h.11v44.05h-.11zm.11 0h.11v44.05h-.11zm.12 0h.11v44.05h-.11z"/><path class="cls-1" d="M144.48 294.77h.11v44.05h-.11zm.11 0h.11v44.05h-.11zm.12 0h.11v44.05h-.11z"/><path class="cls-1" d="M144.82 294.77h.11v44.05h-.11zm.11 0h.11v44.05h-.11zm.12 0h.11v44.05h-.11z"/><path class="cls-1" d="M145.16 294.77h.11v44.05h-.11zm.11 0h.11v44.05h-.11zm.12 0h.11v44.05h-.11zm.11 0h.11v44.05h-.11zm.11 0h.11v44.05h-.11zm.12 0h.11v44.05h-.11zm.11 0h.11v44.05h-.11z"/><path class="cls-1" d="M145.95 294.77h.11v44.05h-.11zm.12 0h.11v44.05h-.11zm.11 0h.11v44.05h-.11z"/><path class="cls-1" d="M146.29 294.77h.11v44.05h-.11zm.12 0h.11v44.05h-.11zm.11 0h.11v44.05h-.11z"/><path class="cls-1" d="M146.63 294.77h.11v44.05h-.11zm.12 0h.11v44.05h-.11zm.11 0h.11v44.05h-.11z"/></g><path class="cls-1" d="M227.52 278.54l-4.72-18.87-7.37 1.84 2.86 11.42a167.39 167.39 0 01-26.54 2.79l-4.84-46a24.89 24.89 0 00-49.5 0l-4.84 46a166.21 166.21 0 01-26.57-2.79l2.85-11.42-7.37-1.84-4.68 18.87 3.69.92c11.5 2.88 24.86 3.64 31.28 3.84l-.28 2.71 2.89 1a98.7 98.7 0 0055.56 0l2.9-1-.29-2.71c6.42-.2 19.78-1 31.29-3.84zm-65.36 4.83a94.16 94.16 0 01-22.47-2.78l5.31-50.08a17.29 17.29 0 0134.39 0l5.27 50.08a93.11 93.11 0 01-22.5 2.78z"/><g clip-path="url(#clip-path-10)"><path class="cls-1" d="M139.69 215.03h.03v68.35h-.03zm.04 0h1.95v68.35h-1.95zm1.95 0h1.95v68.35h-1.95zm1.95 0h1.95v68.35h-1.95zm1.95 0h1.95v68.35h-1.95zm1.95 0h1.95v68.35h-1.95zm1.95 0h1.95v68.35h-1.95zm1.95 0h1.95v68.35h-1.95zm1.95 0h1.95v68.35h-1.95zm1.95 0h1.95v68.35h-1.95zm1.95 0h1.95v68.35h-1.95zm1.96 0h1.95v68.35h-1.95zm1.95 0h1.95v68.35h-1.95zm1.95 0h1.95v68.35h-1.95zm1.95 0h1.95v68.35h-1.95zm1.95 0h1.95v68.35h-1.95zm1.95 0h1.95v68.35h-1.95zm1.95 0h1.95v68.35h-1.95zm1.95 0h1.95v68.35h-1.95zm1.95 0h1.95v68.35h-1.95zm1.95 0h1.95v68.35h-1.95zm1.96 0h1.95v68.35h-1.95zm1.95 0h1.95v68.35h-1.95zm1.95 0h1.95v68.35h-1.95zm1.95 0h.03v68.35h-.03zm-87.8-7.6h1.95v83.53H96.8zm1.96 0h1.95v83.53h-1.95zm1.95 0h1.95v83.53h-1.95zm1.95 0h1.95v83.53h-1.95zm1.95 0h1.95v83.53h-1.95zm1.95 0h1.95v83.53h-1.95zm1.95 0h1.95v83.53h-1.95zm1.95 0h1.95v83.53h-1.95zm1.95 0h1.95v83.53h-1.95zm1.95 0h1.95v83.53h-1.95zm1.95 0h1.95v83.53h-1.95zm1.96 0h1.95v83.53h-1.95zm1.95 0h1.95v83.53h-1.95zm1.95 0h1.95v83.53h-1.95zm1.95 0h1.95v83.53h-1.95z"/><path class="cls-1" d="M126.07 207.43h1.95v83.53h-1.95zm1.95 0h1.95v83.53h-1.95zm1.95 0h1.95v83.53h-1.95zm1.95 0h1.95v83.53h-1.95zm1.95 0h1.95v83.53h-1.95zm1.95 0h1.95v83.53h-1.95zm1.95 0h1.95v83.53h-1.95zm1.96 0h1.95v83.53h-1.95zm1.95 0h1.95v83.53h-1.95zm1.95 0h1.95v83.53h-1.95zm1.95 0h1.95v83.53h-1.95zm1.95 0h1.95v83.53h-1.95zm1.95 0h1.95v83.53h-1.95zm1.95 0h1.95v83.53h-1.95zm1.95 0h1.95v83.53h-1.95zm1.95 0h1.95v83.53h-1.95zm1.95 0h1.95v83.53h-1.95zm1.96 0h1.95v83.53h-1.95zm1.95 0h1.95v83.53h-1.95zm1.95 0h1.95v83.53h-1.95zm1.95 0h1.95v83.53h-1.95zm1.95 0h1.95v83.53h-1.95zm1.95 0h1.95v83.53h-1.95zm1.95 0h1.95v83.53h-1.95zm1.95 0h1.95v83.53h-1.95zm1.95 0h1.95v83.53h-1.95zm1.95 0h1.95v83.53h-1.95zm1.96 0h1.95v83.53h-1.95zm1.95 0h1.95v83.53h-1.95zm1.95 0h1.95v83.53h-1.95zm1.95 0h1.95v83.53h-1.95zm1.95 0h1.95v83.53h-1.95zm1.95 0h1.95v83.53h-1.95zm1.95 0h1.95v83.53h-1.95zm1.95 0h1.95v83.53h-1.95zm1.95 0h1.95v83.53h-1.95zm1.95 0h1.95v83.53h-1.95zm1.96 0h1.95v83.53h-1.95zm1.95 0h1.95v83.53h-1.95zm1.95 0h1.95v83.53h-1.95zm1.95 0h1.95v83.53h-1.95zm1.95 0h1.95v83.53h-1.95zm1.95 0h1.95v83.53h-1.95zm1.95 0h1.95v83.53h-1.95zm1.95 0h1.95v83.53h-1.95zm1.95 0h1.95v83.53h-1.95zm1.95 0h1.95v83.53h-1.95zm1.96 0h1.95v83.53h-1.95zm1.95 0h1.95v83.53h-1.95zm1.95 0h1.95v83.53h-1.95zm1.95 0h1.95v83.53h-1.95zm1.95 0h1.95v83.53h-1.95z"/></g><path class="cls-1" d="M222.91 196.91v-84.4c0-18-19.89-30-26.62-33.51a97.13 97.13 0 00-19.24-55.5 18.6 18.6 0 00-29.77 0c-10.17 13.57-18.51 37.88-19.22 55.5-6.72 3.53-26.65 15.52-26.65 33.52v84.4l-38 31.52v31.62l3.22.5c.5.07 50.17 7.64 95.5 7.64s95-7.57 95.5-7.64l3.22-.5v-31.63zm-7.59-84.4v78.1l-6.16-5.12a34 34 0 01-12.82-26.68v-71c7.17 4.35 18.98 13.29 18.98 24.7zm-106.32 0c0-11.41 11.81-20.35 19-24.73v71a34.08 34.08 0 01-12.88 26.73l-6.12 5.1zm144.29 141c-11.29 1.6-50.29 6.73-87.29 7.06v-49.34h-7.59v49.34c-37.05-.33-76.06-5.46-87.34-7.06V232l48.88-40.58a41.57 41.57 0 0015.67-32.61V81.37c0-16.05 8.14-40.47 17.77-53.31a11 11 0 0117.62 0 89.4 89.4 0 0117.77 53.31v77.44a41.53 41.53 0 0015.63 32.57L253.29 232z"/><g clip-path="url(#clip-path-11)"><path class="cls-1" d="M71.03 23.66h1.25v236.92h-1.25zm1.25 0h2.95v236.92h-2.95zm2.95 0h2.95v236.92h-2.95z"/><path class="cls-1" d="M78.17 23.66h2.95v236.92h-2.95zm2.95 0h2.95v236.92h-2.95z"/><path class="cls-1" d="M84.07 23.66h2.95v236.92h-2.95zm2.95 0h2.95v236.92h-2.95z"/><path class="cls-1" d="M89.96 23.66h2.95v236.92h-2.95zm2.95 0h2.95v236.92h-2.95zm2.95 0h2.95v236.92h-2.95z"/><path class="cls-1" d="M98.8 23.66h2.95v236.92H98.8zm2.95 0h2.95v236.92h-2.95zm2.95 0h2.95v236.92h-2.95z"/><path class="cls-1" d="M107.64 23.66h2.95v236.92h-2.95zm2.95 0h2.95v236.92h-2.95zm2.95 0h2.95v236.92h-2.95z"/><path class="cls-1" d="M116.48 23.66h2.95v236.92h-2.95zm2.95 0h2.95v236.92h-2.95z"/><path class="cls-1" d="M122.38 23.66h2.95v236.92h-2.95zm2.95 0h2.95v236.92h-2.95z"/><path class="cls-1" d="M128.27 23.66h2.95v236.92h-2.95zm2.95 0h2.95v236.92h-2.95zm2.95 0h2.95v236.92h-2.95z"/><path class="cls-1" d="M137.11 23.66h2.95v236.92h-2.95zm2.95 0h2.95v236.92h-2.95zm2.95 0h2.95v236.92h-2.95z"/><path class="cls-1" d="M145.95 23.66h2.95v236.92h-2.95zm2.95 0h2.95v236.92h-2.95zm2.95 0h2.95v236.92h-2.95z"/><path class="cls-1" d="M154.79 23.66h2.95v236.92h-2.95zm2.95 0h2.95v236.92h-2.95zm2.95 0h2.95v236.92h-2.95zm2.95 0h2.95v236.92h-2.95z"/><path class="cls-1" d="M166.58 23.66h2.95v236.92h-2.95zm2.95 0h2.95v236.92h-2.95zm2.95 0h2.95v236.92h-2.95z"/><path class="cls-1" d="M175.42 23.66h2.95v236.92h-2.95zm2.95 0h2.95v236.92h-2.95zm2.95 0h2.95v236.92h-2.95z"/><path class="cls-1" d="M184.26 23.66h2.95v236.92h-2.95zm2.95 0h2.95v236.92h-2.95zm2.95 0h2.95v236.92h-2.95zm2.95 0h2.95v236.92h-2.95z"/><path class="cls-1" d="M196.05 23.66H199v236.92h-2.95zm2.95 0h2.95v236.92H199zm2.95 0h2.95v236.92h-2.95z"/><path class="cls-1" d="M204.89 23.66h2.95v236.92h-2.95zm2.95 0h2.95v236.92h-2.95zm2.95 0h2.95v236.92h-2.95z"/><path class="cls-1" d="M213.73 23.66h2.95v236.92h-2.95zm2.95 0h2.95v236.92h-2.95zm2.95 0h2.95v236.92h-2.95z"/><path class="cls-1" d="M222.57 23.66h2.95v236.92h-2.95zm2.95 0h2.95v236.92h-2.95zm2.95 0h2.95v236.92h-2.95zm2.95 0h2.95v236.92h-2.95z"/><path class="cls-1" d="M234.36 23.66h2.95v236.92h-2.95zm2.95 0h2.95v236.92h-2.95zm2.95 0h2.95v236.92h-2.95z"/><path class="cls-1" d="M243.2 23.66h2.95v236.92h-2.95zm2.95 0h2.95v236.92h-2.95zm2.95 0h2.95v236.92h-2.95z"/><path class="cls-1" d="M252.04 23.66h1.25v236.92h-1.25zM109 87.78h1.59v102.83H109zm1.59 0h2.95v102.83h-2.95zm2.95 0h2.95v102.83h-2.95z"/><path class="cls-1" d="M116.48 87.78h2.95v102.83h-2.95zm2.95 0h2.95v102.83h-2.95z"/><path class="cls-1" d="M122.38 87.78h2.95v102.83h-2.95zm2.95 0h2.66v102.83h-2.66zm71.01 0H199v102.83h-2.66zm2.66 0h2.95v102.83H199zm2.95 0h2.95v102.83h-2.95z"/><path class="cls-1" d="M204.89 87.78h2.95v102.83h-2.95zm2.95 0h2.95v102.83h-2.95zm2.95 0h2.95v102.83h-2.95z"/><path class="cls-1" d="M213.73 87.78h1.59v102.83h-1.59zM63.44 16.06h2.95v252.12h-2.95zm2.95 0h2.95v252.12h-2.95z"/><path class="cls-1" d="M69.33 16.06h2.95v252.12h-2.95zm2.95 0h2.95v252.12h-2.95zm2.95 0h2.95v252.12h-2.95z"/><path class="cls-1" d="M78.17 16.06h2.95v252.12h-2.95zm2.95 0h2.95v252.12h-2.95z"/><path class="cls-1" d="M84.07 16.06h2.95v252.12h-2.95zm2.95 0h2.95v252.12h-2.95z"/><path class="cls-1" d="M89.96 16.06h2.95v252.12h-2.95zm2.95 0h2.95v252.12h-2.95zm2.95 0h2.95v252.12h-2.95z"/><path class="cls-1" d="M98.8 16.06h2.95v252.12H98.8zm2.95 0h2.95v252.12h-2.95zm2.95 0h2.95v252.12h-2.95z"/><path class="cls-1" d="M107.64 16.06h2.95v252.12h-2.95zm2.95 0h2.95v252.12h-2.95zm2.95 0h2.95v252.12h-2.95z"/><path class="cls-1" d="M116.48 16.06h2.95v252.12h-2.95zm2.95 0h2.95v252.12h-2.95z"/><path class="cls-1" d="M122.38 16.06h2.95v252.12h-2.95zm2.95 0h2.95v252.12h-2.95z"/><path class="cls-1" d="M128.27 16.06h2.95v252.12h-2.95zm2.95 0h2.95v252.12h-2.95zm2.95 0h2.95v252.12h-2.95z"/><path class="cls-1" d="M137.11 16.06h2.95v252.12h-2.95zm2.95 0h2.95v252.12h-2.95zm2.95 0h2.95v252.12h-2.95z"/><path class="cls-1" d="M145.95 16.06h2.95v252.12h-2.95zm2.95 0h2.95v252.12h-2.95zm2.95 0h2.95v252.12h-2.95z"/><path class="cls-1" d="M154.79 16.06h2.95v252.12h-2.95zm2.95 0h2.95v252.12h-2.95zm2.95 0h2.95v252.12h-2.95zm2.95 0h2.95v252.12h-2.95z"/><path class="cls-1" d="M166.58 16.06h2.95v252.12h-2.95zm2.95 0h2.95v252.12h-2.95zm2.95 0h2.95v252.12h-2.95z"/><path class="cls-1" d="M175.42 16.06h2.95v252.12h-2.95zm2.95 0h2.95v252.12h-2.95zm2.95 0h2.95v252.12h-2.95z"/><path class="cls-1" d="M184.26 16.06h2.95v252.12h-2.95zm2.95 0h2.95v252.12h-2.95zm2.95 0h2.95v252.12h-2.95zm2.95 0h2.95v252.12h-2.95z"/><path class="cls-1" d="M196.05 16.06H199v252.12h-2.95zm2.95 0h2.95v252.12H199zm2.95 0h2.95v252.12h-2.95z"/><path class="cls-1" d="M204.89 16.06h2.95v252.12h-2.95zm2.95 0h2.95v252.12h-2.95zm2.95 0h2.95v252.12h-2.95z"/><path class="cls-1" d="M213.73 16.06h2.95v252.12h-2.95zm2.95 0h2.95v252.12h-2.95zm2.95 0h2.95v252.12h-2.95z"/><path class="cls-1" d="M222.57 16.06h2.95v252.12h-2.95zm2.95 0h2.95v252.12h-2.95zm2.95 0h2.95v252.12h-2.95zm2.95 0h2.95v252.12h-2.95z"/><path class="cls-1" d="M234.36 16.06h2.95v252.12h-2.95zm2.95 0h2.95v252.12h-2.95zm2.95 0h2.95v252.12h-2.95z"/><path class="cls-1" d="M243.2 16.06h2.95v252.12h-2.95zm2.95 0h2.95v252.12h-2.95zm2.95 0h2.95v252.12h-2.95z"/><path class="cls-1" d="M252.04 16.06h2.95v252.12h-2.95zm2.95 0h2.95v252.12h-2.95zm2.95 0h2.95v252.12h-2.95z"/></g><path class="cls-1" d="M169 53.28c-.78-1-3.12-4.17-6.84-4.17-3.71 0-6.06 3.14-6.83 4.16-4.69 6.25-12.15 23.73-12.15 32.66v45.56h7.59V89.73h22.78v41.76h7.6V85.93c0-9.85-6.29-24.83-12.15-32.65zm-17.76 28.85c1.55-7.57 6.64-19.61 10.16-24.3a7.49 7.49 0 01.76-.88 7.49 7.49 0 01.76.88 64.39 64.39 0 0110.29 24.3z"/><g clip-path="url(#clip-path-12)"><path class="cls-1" d="M151.24 56.95h.44v25.19h-.44zm.44 0h.57v25.19h-.57z"/><path class="cls-1" d="M152.24 56.95h.57v25.19h-.57zm.57 0h.57v25.19h-.57zm.57 0h.57v25.19h-.57z"/><path class="cls-1" d="M153.94 56.95h.57v25.19h-.57zm.57 0h.57v25.19h-.57zm.57 0h.57v25.19h-.57z"/><path class="cls-1" d="M155.64 56.95h.57v25.19h-.57zm.57 0h.57v25.19h-.57zm.57 0h.57v25.19h-.57zm.57 0h.57v25.19h-.57z"/><path class="cls-1" d="M157.91 56.95h.57v25.19h-.57zm.57 0h.57v25.19h-.57zm.57 0h.57v25.19h-.57z"/><path class="cls-1" d="M159.61 56.95h.57v25.19h-.57zm.57 0h.57v25.19h-.57zm.57 0h.57v25.19h-.57z"/><path class="cls-1" d="M161.31 56.95h.57v25.19h-.57zm.57 0h.57v25.19h-.57zm.57 0h.57v25.19h-.57z"/><path class="cls-1" d="M163.01 56.95h.57v25.19h-.57zm.57 0h.57v25.19h-.57zm.57 0h.57v25.19h-.57z"/><path class="cls-1" d="M164.71 56.95h.57v25.19h-.57zm.57 0h.57v25.19h-.57zm.57 0h.57v25.19h-.57z"/><path class="cls-1" d="M166.41 56.95h.57v25.19h-.57zm.57 0h.57v25.19h-.57zm.57 0h.57v25.19h-.57z"/><path class="cls-1" d="M168.11 56.95h.57v25.19h-.57zm.57 0h.57v25.19h-.57zm.57 0h.57v25.19h-.57z"/><path class="cls-1" d="M169.81 56.95h.57v25.19h-.57zm.57 0h.57v25.19h-.57zm.57 0h.57v25.19h-.57z"/><path class="cls-1" d="M171.51 56.95h.57v25.19h-.57zm.57 0h.57v25.19h-.57zm.57 0h.57v25.19h-.57z"/><rect class="cls-1" x="173.21" y="56.95" height="25.19"/><path class="cls-1" d="M143.18 49.11h.57v82.38h-.57z"/><path class="cls-1" d="M143.74 49.11h.57v82.38h-.57zm.57 0h.57v82.38h-.57zm.57 0h.57v82.38h-.57z"/><path class="cls-1" d="M145.44 49.11h.57v82.38h-.57zm.57 0h.57v82.38h-.57zm.57 0h.57v82.38h-.57z"/><path class="cls-1" d="M147.14 49.11h.57v82.38h-.57zm.57 0h.57v82.38h-.57zm.57 0h.57v82.38h-.57z"/><path class="cls-1" d="M148.84 49.11h.57v82.38h-.57zm.57 0h.57v82.38h-.57zm.57 0h.57v82.38h-.57z"/><path class="cls-1" d="M150.54 49.11h.57v82.38h-.57zm.57 0h.57v82.38h-.57zm.57 0h.57v82.38h-.57z"/><path class="cls-1" d="M152.24 49.11h.57v82.38h-.57zm.57 0h.57v82.38h-.57zm.57 0h.57v82.38h-.57z"/><path class="cls-1" d="M153.94 49.11h.57v82.38h-.57zm.57 0h.57v82.38h-.57zm.57 0h.57v82.38h-.57z"/><path class="cls-1" d="M155.64 49.11h.57v82.38h-.57zm.57 0h.57v82.38h-.57zm.57 0h.57v82.38h-.57zm.57 0h.57v82.38h-.57z"/><path class="cls-1" d="M157.91 49.11h.57v82.38h-.57zm.57 0h.57v82.38h-.57zm.57 0h.57v82.38h-.57z"/><path class="cls-1" d="M159.61 49.11h.57v82.38h-.57zm.57 0h.57v82.38h-.57zm.57 0h.57v82.38h-.57z"/><path class="cls-1" d="M161.31 49.11h.57v82.38h-.57zm.57 0h.57v82.38h-.57zm.57 0h.57v82.38h-.57z"/><path class="cls-1" d="M163.01 49.11h.57v82.38h-.57zm.57 0h.57v82.38h-.57zm.57 0h.57v82.38h-.57z"/><path class="cls-1" d="M164.71 49.11h.57v82.38h-.57zm.57 0h.57v82.38h-.57zm.57 0h.57v82.38h-.57z"/><path class="cls-1" d="M166.41 49.11h.57v82.38h-.57zm.57 0h.57v82.38h-.57zm.57 0h.57v82.38h-.57z"/><path class="cls-1" d="M168.11 49.11h.57v82.38h-.57zm.57 0h.57v82.38h-.57zm.57 0h.57v82.38h-.57z"/><path class="cls-1" d="M169.81 49.11h.57v82.38h-.57zm.57 0h.57v82.38h-.57zm.57 0h.57v82.38h-.57z"/><path class="cls-1" d="M171.51 49.11h.57v82.38h-.57zm.57 0h.57v82.38h-.57zm.57 0h.57v82.38h-.57z"/><path class="cls-1" d="M173.21 49.11h.57v82.38h-.57zm.57 0h.57v82.38h-.57zm.57 0h.57v82.38h-.57z"/><path class="cls-1" d="M174.91 49.11h.57v82.38h-.57zm.57 0h.57v82.38h-.57zm.57 0h.57v82.38h-.57z"/><path class="cls-1" d="M176.61 49.11h.57v82.38h-.57zm.57 0h.57v82.38h-.57zm.57 0h.57v82.38h-.57z"/><path class="cls-1" d="M178.31 49.11h.57v82.38h-.57zm.57 0h.57v82.38h-.57zm.57 0h.57v82.38h-.57z"/><path class="cls-1" d="M180.01 49.11h.57v82.38h-.57zm.57 0h.57v82.38h-.57z"/></g></svg>