<svg id="Layer_1" data-name="Layer 1" xmlns="http://www.w3.org/2000/svg" viewBox="0 0 324.32 355.33"><defs><clipPath id="clip-path"><path class="cls-1" d="M306.19 15.26a4.87 4.87 0 00-2.44-4.08 5 5 0 00-4.75 0L13.3 175a4.75 4.75 0 00-2.3 4.68 4.84 4.84 0 003.26 4.08l95.92 31.11 40.51 74.54c.09.19.19.34.29.53a6.34 6.34 0 00.62.91 3.14 3.14 0 00.86.72 1.7 1.7 0 00.58.33 2.22 2.22 0 00.86.34 4.12 4.12 0 001.29.19 5.16 5.16 0 00.87-.1 3.31 3.31 0 00.81-.19c.29-.14.53-.24.77-.38a2.69 2.69 0 00.72-.53L210 245.12l94.44 29.19a5.09 5.09 0 001.44.19 4.76 4.76 0 002.87-1 4.94 4.94 0 001.92-3.88zm-28.81 19.41L112.1 205.38 27.49 178zm-124.06 254.6a.53.53 0 01-.19-.34.71.71 0 00.29.38s-.05 0-.1-.04zm2.35.72a2.55 2.55 0 01-.53 0 1.84 1.84 0 00.72-.14.32.32 0 01-.19.15zm-2.25-69.08c-.19.29-.38.53-.53.81a11 11 0 00-.38 1.15 3.2 3.2 0 00-.1.67v.34l-1.48 46-31.59-58.19L261.85 64.44zm6.85 55.75l1.54-46.4 37.48 11.6zm52.16-40.8l-3.84-1.15-43.71-13.51 132-190.41 4.07 232.4z"/></clipPath><clipPath id="clip-path-2"><path class="cls-1" d="M155.86 289.89a.32.32 0 01-.19.1 2.55 2.55 0 01-.53 0 1.84 1.84 0 00.72-.1z"/></clipPath><clipPath id="clip-path-3"><path class="cls-1" d="M153.13 288.93a.53.53 0 00.19.34h.1a.71.71 0 01-.29-.34zm2 1.1a2.55 2.55 0 00.53 0 .32.32 0 00.19-.1 1.84 1.84 0 01-.71.07zm.87 2.3h.24a2.12 2.12 0 00.57-.19 3.31 3.31 0 01-.81.19z"/></clipPath><clipPath id="clip-path-4"><path class="cls-1" d="M153.42 289.31h-.1a.53.53 0 01-.19-.34.71.71 0 00.29.34z"/></clipPath><clipPath id="clip-path-5"><path class="cls-1" d="M153.13 288.93a.53.53 0 00.19.34h.1a.71.71 0 01-.29-.34zm2 1.1a2.55 2.55 0 00.53 0 .32.32 0 00.19-.1 1.84 1.84 0 01-.71.07z"/></clipPath><clipPath id="clip-path-6"><path class="cls-1" d="M80.31 222.25l-41.6 52.35-7.48-5.99 41.56-52.3 7.52 5.94z"/></clipPath><clipPath id="clip-path-7"><path class="cls-1" d="M92.35 277.28l-53.74 64.38-7.38-6.14 53.74-64.37 7.38 6.13z"/></clipPath><clipPath id="clip-path-8"><path class="cls-1" transform="rotate(-52.28 133.75 317.988)" d="M107.67 313.22h52.18v9.57h-52.18z"/></clipPath><clipPath id="clip-path-9"><path class="cls-1" d="M232.85 288.79l-42.18 52.82-7.53-5.99 42.18-52.82 7.53 5.99z"/></clipPath><style>.cls-1{fill:#84d9bc}</style></defs><path class="cls-1" d="M306.19 15.26a4.87 4.87 0 00-2.44-4.08 5 5 0 00-4.75 0L13.3 175a4.75 4.75 0 00-2.3 4.68 4.84 4.84 0 003.26 4.08l95.92 31.11 40.51 74.54c.09.19.19.34.29.53a6.34 6.34 0 00.62.91 3.14 3.14 0 00.86.72 1.7 1.7 0 00.58.33 2.22 2.22 0 00.86.34 4.12 4.12 0 001.29.19 5.16 5.16 0 00.87-.1 3.31 3.31 0 00.81-.19c.29-.14.53-.24.77-.38a2.69 2.69 0 00.72-.53L210 245.12l94.44 29.19a5.09 5.09 0 001.44.19 4.76 4.76 0 002.87-1 4.94 4.94 0 001.92-3.88zm-28.81 19.41L112.1 205.38 27.49 178zm-124.06 254.6a.53.53 0 01-.19-.34.71.71 0 00.29.38s-.05 0-.1-.04zm2.35.72a2.55 2.55 0 01-.53 0 1.84 1.84 0 00.72-.14.32.32 0 01-.19.15zm-2.25-69.08c-.19.29-.38.53-.53.81a11 11 0 00-.38 1.15 3.2 3.2 0 00-.1.67v.34l-1.48 46-31.59-58.19L261.85 64.44zm6.85 55.75l1.54-46.4 37.48 11.6zm52.16-40.8l-3.84-1.15-43.71-13.51 132-190.41 4.07 232.4z"/><g clip-path="url(#clip-path)"><path class="cls-1" d="M164.88 30.79h2.62v232.4h-2.62zm2.62 0h4.47v232.4h-4.47zm4.47 0h4.47v232.4h-4.47zm4.48 0h4.47v232.4h-4.47zm4.47 0h4.47v232.4h-4.47zm4.47 0h4.47v232.4h-4.47zm4.48 0h4.47v232.4h-4.47zm4.47 0h4.47v232.4h-4.47zm4.47 0h4.47v232.4h-4.47zm4.48 0h4.47v232.4h-4.47zm4.47 0h4.47v232.4h-4.47zm4.47 0h4.47v232.4h-4.47zm4.48 0h4.47v232.4h-4.47zm4.47 0h4.47v232.4h-4.47zm4.47 0h4.47v232.4h-4.47zm4.48 0h4.47v232.4h-4.47zm4.47 0h4.47v232.4h-4.47zm4.48 0h4.47v232.4h-4.47zm4.47 0h4.47v232.4h-4.47zm4.47 0h4.47v232.4h-4.47zm4.48 0h4.47v232.4h-4.47zm4.47 0h4.47v232.4h-4.47zm4.47 0h4.47v232.4h-4.47zm4.48 0h4.47v232.4h-4.47zm4.47 0h4.47v232.4h-4.47zm4.47 0h4.47v232.4h-4.47zm4.48 0h4.47v232.4h-4.47zm4.47 0h4.47v232.4h-4.47z"/><path class="cls-1" d="M288.28 30.79h4.47v232.4h-4.47zm4.48 0h4.47v232.4h-4.47zm4.47 0h3.69v232.4h-3.69zM160.27 230.26h2.75v46.4h-2.75zm2.76 0h4.47v46.4h-4.47zm4.47 0h4.47v46.4h-4.47zm4.47 0h4.47v46.4h-4.47zm4.48 0h4.47v46.4h-4.47zm4.47 0h4.47v46.4h-4.47zm4.47 0h4.47v46.4h-4.47zm4.48 0h4.47v46.4h-4.47zm4.47 0h4.47v46.4h-4.47zm4.47 0h.48v46.4h-.48zM119.34 64.44h3.43v205.41h-3.43z"/><path class="cls-1" d="M122.76 64.44h4.47v205.41h-4.47zm4.48 0h4.47v205.41h-4.47zm4.47 0h4.47v205.41h-4.47zm4.47 0h4.47v205.41h-4.47zm4.48 0h4.47v205.41h-4.47zm4.47 0h4.47v205.41h-4.47zm4.47 0h4.47v205.41h-4.47zm4.48 0h4.47v205.41h-4.47zm4.47 0h4.47v205.41h-4.47zm4.48 0h4.47v205.41h-4.47zm4.47 0h4.47v205.41h-4.47zm4.47 0h4.47v205.41h-4.47zm4.48 0h4.47v205.41h-4.47zm4.47 0h4.47v205.41h-4.47zm4.47 0h4.47v205.41h-4.47zm4.48 0h4.47v205.41h-4.47zm4.47 0h4.47v205.41h-4.47zm4.47 0h4.47v205.41h-4.47zm4.48 0h4.47v205.41h-4.47zm4.47 0h4.47v205.41h-4.47zm4.47 0h4.47v205.41h-4.47zm4.48 0h4.47v205.41h-4.47zm4.47 0h4.47v205.41h-4.47zm4.47 0h4.47v205.41h-4.47zm4.48 0h4.47v205.41h-4.47zm4.47 0h4.47v205.41h-4.47zm4.48 0h4.47v205.41h-4.47zm4.47 0h4.47v205.41h-4.47zm4.47 0h4.47v205.41h-4.47zm4.48 0h4.47v205.41h-4.47zm4.47 0h4.47v205.41h-4.47z"/><path class="cls-1" d="M261.44 64.44h.41v205.41h-.41zm-106.3 225.45h.72v.14h-.72zm-2.01-.96h.29v.38h-.29zM27.49 34.67h1.33v170.7h-1.33zm1.33 0h4.47v170.7h-4.47zm4.47 0h4.47v170.7h-4.47zm4.48 0h4.47v170.7h-4.47zm4.47 0h4.47v170.7h-4.47zm4.47 0h4.47v170.7h-4.47zm4.48 0h4.47v170.7h-4.47zm4.47 0h4.47v170.7h-4.47zm4.47 0h4.47v170.7h-4.47zm4.48 0h4.47v170.7h-4.47zm4.47 0h4.47v170.7h-4.47zm4.47 0h4.47v170.7h-4.47zm4.48 0h4.47v170.7h-4.47zm4.47 0h4.47v170.7H82.5zm4.48 0h4.47v170.7h-4.47zm4.47 0h4.47v170.7h-4.47zm4.47 0h4.47v170.7h-4.47zm4.48 0h4.47v170.7h-4.47zm4.47 0h4.47v170.7h-4.47zm4.47 0h4.47v170.7h-4.47zm4.48 0h4.47v170.7h-4.47zm4.47 0h4.47v170.7h-4.47zm4.47 0h4.47v170.7h-4.47zm4.48 0h4.47v170.7h-4.47zm4.47 0h4.47v170.7h-4.47zm4.47 0h4.47v170.7h-4.47zm4.48 0h4.47v170.7h-4.47zm4.47 0h4.47v170.7h-4.47zm4.47 0h4.47v170.7h-4.47zm4.48 0h4.47v170.7h-4.47zm4.47 0h4.47v170.7h-4.47zm4.48 0h4.47v170.7h-4.47zm4.47 0h4.47v170.7h-4.47zm4.47 0h4.47v170.7h-4.47zm4.48 0h4.47v170.7h-4.47zm4.47 0h4.47v170.7h-4.47zm4.47 0h4.47v170.7h-4.47zm4.48 0h4.47v170.7h-4.47zm4.47 0h4.47v170.7h-4.47zm4.47 0h4.47v170.7h-4.47zm4.48 0h4.47v170.7h-4.47zm4.47 0h4.47v170.7h-4.47zm4.47 0h4.47v170.7h-4.47zm4.48 0h4.47v170.7h-4.47zm4.47 0h4.47v170.7h-4.47zm4.47 0h4.47v170.7h-4.47zm4.48 0h4.47v170.7h-4.47zm4.47 0h4.47v170.7h-4.47zm4.48 0h4.47v170.7h-4.47zm4.47 0h4.47v170.7h-4.47zm4.47 0h4.47v170.7h-4.47zm4.48 0h4.47v170.7h-4.47z"/><path class="cls-1" d="M256.97 34.67h4.47v170.7h-4.47z"/><path class="cls-1" d="M261.44 34.67h4.47v170.7h-4.47zm4.48 0h4.47v170.7h-4.47z"/><path class="cls-1" d="M270.39 34.67h4.47v170.7h-4.47zm4.47 0h2.52v170.7h-2.52zm-264.1-24.3h.17v282.06h-.17zm.17 0h4.47v282.06h-4.47zm4.47 0h4.47v282.06H15.4zm4.47 0h4.47v282.06h-4.47zm4.48 0h4.47v282.06h-4.47zm4.47 0h4.47v282.06h-4.47zm4.47 0h4.47v282.06h-4.47zm4.48 0h4.47v282.06h-4.47zm4.47 0h4.47v282.06h-4.47zm4.47 0h4.47v282.06h-4.47zm4.48 0h4.47v282.06h-4.47zm4.47 0h4.47v282.06h-4.47zm4.47 0h4.47v282.06h-4.47zm4.48 0h4.47v282.06h-4.47zm4.47 0h4.47v282.06h-4.47zm4.47 0h4.47v282.06h-4.47zm4.48 0h4.47v282.06h-4.47zm4.47 0h4.47v282.06H82.5zm4.48 0h4.47v282.06h-4.47zm4.47 0h4.47v282.06h-4.47zm4.47 0h4.47v282.06h-4.47zm4.48 0h4.47v282.06h-4.47zm4.47 0h4.47v282.06h-4.47zm4.47 0h4.47v282.06h-4.47zm4.48 0h4.47v282.06h-4.47zm4.47 0h4.47v282.06h-4.47zm4.47 0h4.47v282.06h-4.47zm4.48 0h4.47v282.06h-4.47zm4.47 0h4.47v282.06h-4.47zm4.47 0h4.47v282.06h-4.47zm4.48 0h4.47v282.06h-4.47zm4.47 0h4.47v282.06h-4.47zm4.47 0h4.47v282.06h-4.47zm4.48 0h4.47v282.06h-4.47zm4.47 0h4.47v282.06h-4.47zm4.48 0h4.47v282.06h-4.47zm4.47 0h4.47v282.06h-4.47zm4.47 0h4.47v282.06h-4.47zm4.48 0h4.47v282.06h-4.47zm4.47 0h4.47v282.06h-4.47zm4.47 0h4.47v282.06h-4.47zm4.48 0h4.47v282.06h-4.47zm4.47 0h4.47v282.06h-4.47zm4.47 0h4.47v282.06h-4.47zm4.48 0h4.47v282.06h-4.47zm4.47 0h4.47v282.06h-4.47zm4.47 0h4.47v282.06h-4.47zm4.48 0h4.47v282.06h-4.47zm4.47 0h4.47v282.06h-4.47zm4.47 0h4.47v282.06h-4.47zm4.48 0h4.47v282.06h-4.47zm4.47 0h4.47v282.06h-4.47zm4.48 0h4.47v282.06h-4.47zm4.47 0h4.47v282.06h-4.47zm4.47 0h4.47v282.06h-4.47zm4.48 0h4.47v282.06h-4.47zm4.47 0h4.47v282.06h-4.47z"/><path class="cls-1" d="M261.44 10.37h4.47v282.06h-4.47zm4.48 0h4.47v282.06h-4.47z"/><path class="cls-1" d="M270.39 10.37h4.47v282.06h-4.47zm4.47 0h4.47v282.06h-4.47zm4.48 0h4.47v282.06h-4.47zm4.47 0h4.47v282.06h-4.47z"/><path class="cls-1" d="M288.28 10.37h4.47v282.06h-4.47zm4.48 0h4.47v282.06h-4.47zm4.47 0h4.47v282.06h-4.47z"/><path class="cls-1" d="M301.7 10.37h4.47v282.06h-4.47zm4.48 0h4.47v282.06h-4.47z"/></g><path class="cls-1" d="M155.86 289.89a.32.32 0 01-.19.1 2.55 2.55 0 01-.53 0 1.84 1.84 0 00.72-.1z"/><g clip-path="url(#clip-path-2)"><path class="cls-1" d="M155.14 289.89h.01v.14h-.01zm.02 0h.01v.14h-.01zm.01 0h.01v.14h-.01zm.01 0h.01v.14h-.01zm.01 0h.01v.14h-.01zm.01 0h.01v.14h-.01zm.01 0h.01v.14h-.01zm.01 0h.01v.14h-.01zm.01 0h.01v.14h-.01zm.01 0h.01v.14h-.01zm.01 0h.01v.14h-.01zm.01 0h.01v.14h-.01zm.01 0h.01v.14h-.01zm.01 0h.01v.14h-.01zm.01 0h.01v.14h-.01zm.02 0h.01v.14h-.01zm.01 0h.01v.14h-.01zm.01 0h.01v.14h-.01zm.01 0h.01v.14h-.01zm.01 0h.01v.14h-.01zm.01 0h.01v.14h-.01zm.01 0h.01v.14h-.01zm.01 0h.01v.14h-.01zm.01 0h.01v.14h-.01zm.01 0h.01v.14h-.01zm.01 0h.01v.14h-.01zm.01 0h.01v.14h-.01zm.01 0h.01v.14h-.01zm.01 0h.01v.14h-.01zm.02 0h.01v.14h-.01zm.01 0h.01v.14h-.01zm.01 0h.01v.14h-.01zm.01 0h.01v.14h-.01zm.01 0h.01v.14h-.01zm.01 0h.01v.14h-.01zm.01 0h.01v.14h-.01zm.01 0h.01v.14h-.01zm.01 0h.01v.14h-.01zm.01 0h.01v.14h-.01zm.01 0h.01v.14h-.01zm.01 0h.01v.14h-.01zm.01 0h.01v.14h-.01zm.02 0h.01v.14h-.01zm.01 0h.01v.14h-.01zm.01 0h.01v.14h-.01zm.01 0h.01v.14h-.01zm.01 0h.01v.14h-.01zm.01 0h.01v.14h-.01zm.01 0h.01v.14h-.01zm.01 0h.01v.14h-.01zm.01 0h.01v.14h-.01zm.01 0h.01v.14h-.01zm.01 0h.01v.14h-.01zm.01 0h.01v.14h-.01zm.01 0h.01v.14h-.01zm.01 0h.01v.14h-.01zm.02 0h.01v.14h-.01zm.01 0h.01v.14h-.01zm.01 0h.01v.14h-.01zm.01 0h.01v.14h-.01zm.01 0h.01v.14h-.01zm.01 0h.01v.14h-.01zm.01 0h.01v.14h-.01zm.01 0h.01v.14h-.01zm.01 0h.01v.14h-.01zm.01 0h.01v.14h-.01zm.01 0h.01v.14h-.01z"/></g><path class="cls-1" d="M153.13 288.93a.53.53 0 00.19.34h.1a.71.71 0 01-.29-.34zm2 1.1a2.55 2.55 0 00.53 0 .32.32 0 00.19-.1 1.84 1.84 0 01-.71.07zm.87 2.3h.24a2.12 2.12 0 00.57-.19 3.31 3.31 0 01-.81.19z"/><g clip-path="url(#clip-path-3)"><path class="cls-1" d="M156.01 292.14h.04v.19h-.04zm.04 0h.06v.19h-.06zm.06 0h.06v.19h-.06z"/><path class="cls-1" d="M156.16 292.14h.06v.19h-.06zm.06 0h.06v.19h-.06z"/><path class="cls-1" d="M156.27 292.14h.06v.19h-.06zm.06 0h.06v.19h-.06z"/><path class="cls-1" d="M156.38 292.14h.06v.19h-.06zm.06 0h.06v.19h-.06z"/><path class="cls-1" d="M156.49 292.14h.06v.19h-.06zm.06 0h.06v.19h-.06z"/><path class="cls-1" d="M156.6 292.14h.06v.19h-.06zm.06 0h.06v.19h-.06z"/><path class="cls-1" d="M156.71 292.14h.06v.19h-.06zm.06 0h.06v.19h-.06zm-1.63-2.25h.03v.14h-.03zm.03 0h.06v.14h-.06z"/><path class="cls-1" d="M155.22 289.89h.06v.14h-.06zm.06 0h.06v.14h-.06z"/><path class="cls-1" d="M155.33 289.89h.06v.14h-.06z"/><path class="cls-1" d="M155.39 289.89h.06v.14h-.06z"/><path class="cls-1" d="M155.44 289.89h.06v.14h-.06zm.06 0h.06v.14h-.06zm.06 0h.06v.14h-.06z"/><path class="cls-1" d="M155.61 289.89h.06v.14h-.06z"/><path class="cls-1" d="M155.67 289.89h.06v.14h-.06z"/><path class="cls-1" d="M155.72 289.89h.06v.14h-.06zm.06 0h.06v.14h-.06z"/><path class="cls-1" d="M155.83 289.89h.03v.14h-.03zm-2.7-.96h.06v.38h-.06zm.06 0h.06v.38h-.06z"/><path class="cls-1" d="M153.24 288.93h.06v.38h-.06zm.06 0h.06v.38h-.06z"/><path class="cls-1" d="M153.35 288.93h.06v.38h-.06zm.06 0h.01v.38h-.01z"/></g><path class="cls-1" d="M153.42 289.31h-.1a.53.53 0 01-.19-.34.71.71 0 00.29.34z"/><g clip-path="url(#clip-path-4)"><rect class="cls-1" x="153.13" y="288.93" height=".38"/><rect class="cls-1" x="153.14" y="288.93" height=".38"/><rect class="cls-1" x="153.14" y="288.93" height=".38"/><rect class="cls-1" x="153.14" y="288.93" height=".38"/><rect class="cls-1" x="153.15" y="288.93" height=".38"/><rect class="cls-1" x="153.15" y="288.93" height=".38"/><rect class="cls-1" x="153.16" y="288.93" height=".38"/><rect class="cls-1" x="153.16" y="288.93" height=".38"/><rect class="cls-1" x="153.17" y="288.93" height=".38"/><rect class="cls-1" x="153.17" y="288.93" height=".38"/><rect class="cls-1" x="153.17" y="288.93" height=".38"/><rect class="cls-1" x="153.18" y="288.93" height=".38"/><rect class="cls-1" x="153.18" y="288.93" height=".38"/><rect class="cls-1" x="153.19" y="288.93" height=".38"/><rect class="cls-1" x="153.19" y="288.93" height=".38"/><rect class="cls-1" x="153.2" y="288.93" height=".38"/><rect class="cls-1" x="153.2" y="288.93" height=".38"/><rect class="cls-1" x="153.2" y="288.93" height=".38"/><rect class="cls-1" x="153.21" y="288.93" height=".38"/><rect class="cls-1" x="153.21" y="288.93" height=".38"/><rect class="cls-1" x="153.22" y="288.93" height=".38"/><rect class="cls-1" x="153.22" y="288.93" height=".38"/><rect class="cls-1" x="153.23" y="288.93" height=".38"/><rect class="cls-1" x="153.23" y="288.93" height=".38"/><rect class="cls-1" x="153.23" y="288.93" height=".38"/><rect class="cls-1" x="153.24" y="288.93" height=".38"/><rect class="cls-1" x="153.24" y="288.93" height=".38"/><rect class="cls-1" x="153.25" y="288.93" height=".38"/><rect class="cls-1" x="153.25" y="288.93" height=".38"/><rect class="cls-1" x="153.26" y="288.93" height=".38"/><rect class="cls-1" x="153.26" y="288.93" height=".38"/><rect class="cls-1" x="153.26" y="288.93" height=".38"/><rect class="cls-1" x="153.27" y="288.93" height=".38"/><rect class="cls-1" x="153.27" y="288.93" height=".38"/><rect class="cls-1" x="153.28" y="288.93" height=".38"/><rect class="cls-1" x="153.28" y="288.93" height=".38"/><rect class="cls-1" x="153.29" y="288.93" height=".38"/><rect class="cls-1" x="153.29" y="288.93" height=".38"/><rect class="cls-1" x="153.29" y="288.93" height=".38"/><rect class="cls-1" x="153.3" y="288.93" height=".38"/><rect class="cls-1" x="153.3" y="288.93" height=".38"/><rect class="cls-1" x="153.31" y="288.93" height=".38"/><rect class="cls-1" x="153.31" y="288.93" height=".38"/><rect class="cls-1" x="153.32" y="288.93" height=".38"/><rect class="cls-1" x="153.32" y="288.93" height=".38"/><rect class="cls-1" x="153.32" y="288.93" height=".38"/><rect class="cls-1" x="153.33" y="288.93" height=".38"/><rect class="cls-1" x="153.33" y="288.93" height=".38"/><rect class="cls-1" x="153.34" y="288.93" height=".38"/><rect class="cls-1" x="153.34" y="288.93" height=".38"/><rect class="cls-1" x="153.35" y="288.93" height=".38"/><rect class="cls-1" x="153.35" y="288.93" height=".38"/><rect class="cls-1" x="153.35" y="288.93" height=".38"/><rect class="cls-1" x="153.36" y="288.93" height=".38"/><rect class="cls-1" x="153.36" y="288.93" height=".38"/><rect class="cls-1" x="153.37" y="288.93" height=".38"/><rect class="cls-1" x="153.37" y="288.93" height=".38"/><rect class="cls-1" x="153.38" y="288.93" height=".38"/><rect class="cls-1" x="153.38" y="288.93" height=".38"/><rect class="cls-1" x="153.38" y="288.93" height=".38"/><rect class="cls-1" x="153.39" y="288.93" height=".38"/><rect class="cls-1" x="153.39" y="288.93" height=".38"/><rect class="cls-1" x="153.4" y="288.93" height=".38"/><rect class="cls-1" x="153.4" y="288.93" height=".38"/><rect class="cls-1" x="153.41" y="288.93" height=".38"/><rect class="cls-1" x="153.41" y="288.93" height=".38"/><rect class="cls-1" x="153.41" y="288.93" height=".38"/></g><path class="cls-1" d="M153.13 288.93a.53.53 0 00.19.34h.1a.71.71 0 01-.29-.34zm2 1.1a2.55 2.55 0 00.53 0 .32.32 0 00.19-.1 1.84 1.84 0 01-.71.07z"/><g clip-path="url(#clip-path-5)"><path class="cls-1" d="M155.14 289.89h.03v.14h-.03zm.03 0h.04v.14h-.04zm.04 0h.04v.14h-.04zm.04 0h.04v.14h-.04zm.04 0h.04v.14h-.04zm.04 0h.04v.14h-.04zm.04 0h.04v.14h-.04zm.04 0h.04v.14h-.04zm.05 0h.04v.14h-.04zm.04 0h.04v.14h-.04zm.04 0h.04v.14h-.04zm.04 0h.04v.14h-.04zm.04 0h.04v.14h-.04zm.04 0h.04v.14h-.04zm.04 0h.04v.14h-.04zm.04 0h.04v.14h-.04zm.04 0h.04v.14h-.04zm.04 0h.04v.14h-.04zm-2.69-.96h.04v.38h-.04zm.04 0h.04v.38h-.04zm.04 0h.04v.38h-.04zm.04 0h.04v.38h-.04zm.04 0h.04v.38h-.04zm.04 0h.04v.38h-.04zm.05 0h.04v.38h-.04z"/><rect class="cls-1" x="153.42" y="288.93" height=".38"/></g><path class="cls-1" d="M80.31 222.25l-41.6 52.35-7.48-5.99 41.56-52.3 7.52 5.94z"/><g clip-path="url(#clip-path-6)"><path class="cls-1" d="M31.23 216.31h.73v58.29h-.73z"/><path class="cls-1" d="M31.96 216.31h.73v58.29h-.73zm.73 0h.73v58.29h-.73zm.74 0h.73v58.29h-.73zm.73 0h.73v58.29h-.73zm.73 0h.73v58.29h-.73zm.73 0h.73v58.29h-.73zm.74 0h.73v58.29h-.73zm.73 0h.73v58.29h-.73zm.73 0h.73v58.29h-.73zm.73 0h.73v58.29h-.73zm.74 0h.73v58.29h-.73zm.73 0h.73v58.29h-.73zm.73 0h.73v58.29h-.73zm.73 0h.73v58.29h-.73zm.74 0h.73v58.29h-.73zm.73 0h.73v58.29h-.73zm.73 0h.73v58.29h-.73zm.74 0h.73v58.29h-.73zm.73 0h.73v58.29h-.73zm.73 0h.73v58.29h-.73zm.73 0h.73v58.29h-.73zm.74 0h.73v58.29h-.73zm.73 0h.73v58.29h-.73zm.73 0h.73v58.29h-.73zm.73 0h.73v58.29h-.73zm.74 0h.73v58.29h-.73zm.73 0h.73v58.29h-.73zm.73 0h.73v58.29h-.73zm.73 0h.73v58.29h-.73zm.74 0h.73v58.29h-.73zm.73 0h.73v58.29h-.73zm.73 0h.73v58.29h-.73zm.73 0h.73v58.29h-.73zm.74 0h.73v58.29h-.73zm.73 0h.73v58.29h-.73zm.73 0h.73v58.29h-.73zm.74 0h.73v58.29h-.73zm.73 0h.73v58.29h-.73zm.73 0h.73v58.29h-.73zm.73 0h.73v58.29h-.73zm.74 0H62v58.29h-.73zm.73 0h.73v58.29H62zm.73 0h.73v58.29h-.73zm.73 0h.73v58.29h-.73zm.74 0h.73v58.29h-.73zm.73 0h.73v58.29h-.73zm.73 0h.73v58.29h-.73zm.73 0h.73v58.29h-.73zm.74 0h.73v58.29h-.73zm.73 0h.73v58.29h-.73zm.73 0h.73v58.29h-.73zm.74 0h.73v58.29h-.73zm.73 0h.73v58.29h-.73zm.73 0h.73v58.29h-.73zm.73 0h.73v58.29h-.73zm.74 0h.73v58.29h-.73zm.73 0h.73v58.29h-.73zm.73 0h.73v58.29h-.73zm.73 0h.73v58.29h-.73zm.74 0h.73v58.29h-.73zm.73 0h.73v58.29h-.73zm.73 0h.73v58.29h-.73zm.73 0h.73v58.29h-.73zm.74 0h.73v58.29h-.73zm.73 0h.73v58.29h-.73zm.73 0h.73v58.29h-.73z"/></g><path class="cls-1" d="M92.35 277.28l-53.74 64.38-7.38-6.14 53.74-64.37 7.38 6.13z"/><g clip-path="url(#clip-path-7)"><path class="cls-1" d="M31.23 271.15h.91v70.52h-.91zm.91 0h.91v70.52h-.91zm.91 0h.91v70.52h-.91zm.91 0h.91v70.52h-.91zm.92 0h.91v70.52h-.91zm.91 0h.91v70.52h-.91zm.91 0h.91v70.52h-.91zm.91 0h.91v70.52h-.91zm.92 0h.91v70.52h-.91zm.91 0h.91v70.52h-.91zm.91 0h.91v70.52h-.91zm.91 0h.91v70.52h-.91zm.91 0h.91v70.52h-.91zm.92 0H44v70.52h-.91zm.91 0h.91v70.52H44zm.91 0h.91v70.52h-.91zm.91 0h.91v70.52h-.91zm.92 0h.91v70.52h-.91zm.91 0h.91v70.52h-.91zm.91 0h.91v70.52h-.91zm.91 0h.91v70.52h-.91zm.91 0h.91v70.52h-.91zm.92 0h.91v70.52h-.91zm.91 0h.91v70.52h-.91zm.91 0h.91v70.52h-.91zm.91 0h.91v70.52h-.91zm.92 0h.91v70.52h-.91zm.91 0h.91v70.52h-.91zm.91 0h.91v70.52h-.91zm.91 0h.91v70.52h-.91zm.91 0h.91v70.52h-.91zm.92 0h.91v70.52h-.91zm.91 0h.91v70.52h-.91zm.91 0h.91v70.52h-.91zm.91 0h.91v70.52h-.91zm.92 0h.91v70.52h-.91zm.91 0h.91v70.52h-.91zm.91 0h.91v70.52h-.91zm.91 0h.91v70.52h-.91zm.91 0h.91v70.52h-.91zm.92 0h.91v70.52h-.91zm.91 0h.91v70.52h-.91zm.91 0h.91v70.52h-.91zm.91 0h.91v70.52h-.91zm.92 0h.91v70.52h-.91zm.91 0h.91v70.52h-.91zm.91 0h.91v70.52h-.91zm.91 0h.91v70.52h-.91zm.91 0h.91v70.52h-.91zm.92 0h.91v70.52h-.91zm.91 0h.91v70.52h-.91zm.91 0h.91v70.52h-.91zm.91 0h.91v70.52h-.91zm.92 0h.91v70.52h-.91zm.91 0h.91v70.52h-.91zm.91 0h.91v70.52h-.91zm.91 0h.91v70.52h-.91zm.91 0h.91v70.52h-.91zm.92 0h.91v70.52h-.91zm.91 0h.91v70.52h-.91zm.91 0h.91v70.52h-.91zm.91 0h.91v70.52h-.91zm.92 0h.91v70.52h-.91zm.91 0h.91v70.52h-.91zm.91 0h.91v70.52h-.91zm.91 0h.91v70.52h-.91zm.91 0h.91v70.52h-.91z"/></g><path class="cls-1" transform="rotate(-52.28 133.75 317.988)" d="M107.67 313.22h52.18v9.57h-52.18z"/><g clip-path="url(#clip-path-8)"><path class="cls-1" d="M114.01 294.44h.59v47.12h-.59z"/><path class="cls-1" d="M114.6 294.44h.59v47.12h-.59zm.59 0h.59v47.12h-.59zm.59 0h.59v47.12h-.59zm.59 0h.59v47.12h-.59z"/><path class="cls-1" d="M116.96 294.44h.59v47.12h-.59zm.59 0h.59v47.12h-.59zm.59 0h.59v47.12h-.59zm.59 0h.59v47.12h-.59z"/><path class="cls-1" d="M119.32 294.44h.59v47.12h-.59zm.59 0h.59v47.12h-.59zm.59 0h.59v47.12h-.59zm.59 0h.59v47.12h-.59zm.59 0h.59v47.12h-.59z"/><path class="cls-1" d="M122.27 294.44h.59v47.12h-.59zm.59 0h.59v47.12h-.59zm.59 0h.59v47.12h-.59zm.59 0h.59v47.12h-.59z"/><path class="cls-1" d="M124.63 294.44h.59v47.12h-.59zm.59 0h.59v47.12h-.59zm.59 0h.59v47.12h-.59zm.59 0h.59v47.12h-.59z"/><path class="cls-1" d="M126.98 294.44h.59v47.12h-.59z"/><path class="cls-1" d="M127.57 294.44h.59v47.12h-.59zm.59 0h.59v47.12h-.59zm.59 0h.59v47.12h-.59zm.59 0h.59v47.12h-.59zm.59 0h.59v47.12h-.59zm.59 0h.59v47.12h-.59zm.59 0h.59v47.12h-.59z"/><path class="cls-1" d="M131.7 294.44h.59v47.12h-.59zm.59 0h.59v47.12h-.59zm.59 0h.59v47.12h-.59zm.59 0h.59v47.12h-.59zm.59 0h.59v47.12h-.59zm.59 0h.59v47.12h-.59zm.59 0h.59v47.12h-.59zm.59 0h.59v47.12h-.59z"/><path class="cls-1" d="M136.42 294.44h.59v47.12h-.59zm.59 0h.59v47.12h-.59zm.59 0h.59v47.12h-.59zm.59 0h.59v47.12h-.59zm.59 0h.59v47.12h-.59zm.59 0h.59v47.12h-.59z"/><path class="cls-1" d="M139.95 294.44h.59v47.12h-.59zm.59 0h.59v47.12h-.59zm.59 0h.59v47.12h-.59zm.59 0h.59v47.12h-.59zm.59 0h.59v47.12h-.59zm.59 0h.59v47.12h-.59zm.59 0h.59v47.12h-.59zm.59 0h.59v47.12h-.59z"/><path class="cls-1" d="M144.67 294.44h.59v47.12h-.59zm.59 0h.59v47.12h-.59zm.59 0h.59v47.12h-.59zm.59 0h.59v47.12h-.59zm.59 0h.59v47.12h-.59zm.59 0h.59v47.12h-.59zm.59 0h.59v47.12h-.59zm.59 0h.59v47.12h-.59z"/><path class="cls-1" d="M149.39 294.44h.59v47.12h-.59zm.59 0h.59v47.12h-.59zm.59 0h.59v47.12h-.59zm.59 0h.59v47.12h-.59zm.59 0h.59v47.12h-.59zm.59 0h.59v47.12h-.59zm.59 0h.59v47.12h-.59z"/></g><path class="cls-1" d="M232.85 288.79l-42.18 52.82-7.53-5.99 42.18-52.82 7.53 5.99z"/><g clip-path="url(#clip-path-9)"><path class="cls-1" d="M183.14 282.79h.74v58.82h-.74zm.74 0h.74v58.82h-.74zm.74 0h.74v58.82h-.74zm.75 0h.74v58.82h-.74zm.74 0h.74v58.82h-.74z"/><path class="cls-1" d="M186.85 282.79h.74v58.82h-.74zm.74 0h.74v58.82h-.74zm.74 0h.74v58.82h-.74zm.75 0h.74v58.82h-.74z"/><path class="cls-1" d="M189.82 282.79h.74v58.82h-.74zm.74 0h.74v58.82h-.74zm.74 0h.74v58.82h-.74z"/><path class="cls-1" d="M192.04 282.79h.74v58.82h-.74zm.74 0h.74v58.82h-.74zm.75 0h.74v58.82h-.74zm.74 0h.74v58.82h-.74z"/><path class="cls-1" d="M195.01 282.79h.74v58.82h-.74zm.74 0h.74v58.82h-.74zm.74 0h.74v58.82h-.74zm.75 0h.74v58.82h-.74z"/><path class="cls-1" d="M197.98 282.79h.74v58.82h-.74zm.74 0h.74v58.82h-.74zm.74 0h.74v58.82h-.74z"/><path class="cls-1" d="M200.2 282.79h.74v58.82h-.74zm.75 0h.74v58.82h-.74zm.74 0h.74v58.82h-.74zm.74 0h.74v58.82h-.74z"/><path class="cls-1" d="M203.17 282.79h.74v58.82h-.74zm.74 0h.74v58.82h-.74zm.75 0h.74v58.82h-.74zm.74 0h.74v58.82h-.74z"/><path class="cls-1" d="M206.14 282.79h.74v58.82h-.74zm.74 0h.74v58.82h-.74zm.74 0h.74v58.82h-.74zm.75 0h.74v58.82h-.74zm.74 0h.74v58.82h-.74z"/><path class="cls-1" d="M209.85 282.79h.74v58.82h-.74zm.74 0h.74v58.82h-.74zm.74 0h.74v58.82h-.74zm.75 0h.74v58.82h-.74z"/><path class="cls-1" d="M212.82 282.79h.74v58.82h-.74zm.74 0h.74v58.82h-.74zm.74 0h.74v58.82h-.74z"/><path class="cls-1" d="M215.04 282.79h.74v58.82h-.74zm.75 0h.74v58.82h-.74zm.74 0h.74v58.82h-.74zm.74 0h.74v58.82h-.74z"/><path class="cls-1" d="M218.01 282.79h.74v58.82h-.74zm.74 0h.74v58.82h-.74zm.74 0h.74v58.82h-.74zm.75 0h.74v58.82h-.74z"/><path class="cls-1" d="M220.98 282.79h.74v58.82h-.74zm.74 0h.74v58.82h-.74zm.74 0h.74v58.82h-.74z"/><path class="cls-1" d="M223.2 282.79h.74v58.82h-.74zm.75 0h.74v58.82h-.74zm.74 0h.74v58.82h-.74zm.74 0h.74v58.82h-.74z"/><path class="cls-1" d="M226.17 282.79h.74v58.82h-.74zm.74 0h.74v58.82h-.74zm.75 0h.74v58.82h-.74zm.74 0h.74v58.82h-.74z"/><path class="cls-1" d="M229.14 282.79h.74v58.82h-.74zm.74 0h.74v58.82h-.74zm.74 0h.74v58.82h-.74zm.75 0h.74v58.82h-.74zm.74 0h.74v58.82h-.74z"/></g></svg>