<svg id="Layer_1" data-name="Layer 1" xmlns="http://www.w3.org/2000/svg" viewBox="0 0 324.32 355.33"><defs><style>.cls-1{fill:#fff}</style></defs><path class="cls-1" d="M163.46 10.57c-25.51 0-39.28 82.23-39.28 159.63 0 39.92 3.67 81.14 10.7 111.71.6 2.62 1.23 5.12 1.87 7.55a148.1 148.1 0 006.47 19.34 72.72 72.72 0 004.71 9.32c4.57 7.44 9.73 11.67 15.53 11.67s11.07-4.3 15.64-11.9a69.84 69.84 0 005.31-10.81 148.37 148.37 0 005.83-18c.68-2.43 1.28-5 1.88-7.6 7-30.52 10.62-71.56 10.62-111.29 0-77.39-13.74-159.62-39.28-159.62zm22 267a173 173 0 01-8.56 28.92c-4.34 10.21-9 15.79-13.47 15.79-4.27 0-8.64-5-12.76-14.18-3.33-7.44-6.47-17.62-9.2-30.15-5.84-26.67-9.84-64-9.84-107.78 0-89.67 16.76-152.14 31.8-152.14s31.8 62.47 31.8 152.14c.03 43.61-3.94 80.83-9.74 107.43z"/><path class="cls-1" d="M17.35 236.4v-49.64l104.83-61.85 10-3.78V200zm7.49-45.4v35.15l99.87-31.7v-62.4zm284.53 45.42L194.53 200v-78.85l10.59 4.06 104.25 61.57zM202 194.5l99.87 31.7v-35.15l-99.87-59zM141.5 278l-6.62 3.93-44.71 26.31v28.21l57.76-18.33 2.77-.9v-9.09c-3.33-7.44-6.47-17.62-9.2-30.13zm1.72 33.78L97.66 326.2v-13.69l39.09-23.05 6.47-3.81zm48.9-30.29l-6.63-3.89a173 173 0 01-8.56 28.92v10.7l2.17.67 58.32 18.56v-28.21zm37.82 44.71l-45.53-14.44v-26.11l5.83 3.44 39.7 23.42zM163.45 87.61a14.91 14.91 0 1114.91-14.9 14.92 14.92 0 01-14.91 14.9zm0-26.07a11.17 11.17 0 1011.17 11.17 11.17 11.17 0 00-11.17-11.17zm0 67.9a12.9 12.9 0 1112.9-12.9 12.91 12.91 0 01-12.9 12.9zm0-22a9.16 9.16 0 109.16 9.15 9.16 9.16 0 00-9.16-9.2zm0 61.66a12.9 12.9 0 1112.9-12.89 12.9 12.9 0 01-12.9 12.89zm0-22a9.16 9.16 0 109.16 9.16 9.16 9.16 0 00-9.16-9.21zm0 58.08a12.9 12.9 0 1112.9-12.89 12.9 12.9 0 01-12.9 12.89zm0-22.05a9.16 9.16 0 109.16 9.16 9.16 9.16 0 00-9.16-9.16z"/></svg>