<svg xmlns="http://www.w3.org/2000/svg" xmlns:xlink="http://www.w3.org/1999/xlink" viewBox="0 0 469.58 291.86"><defs><linearGradient id="linear-gradient" x1="405.01" y1="148.47" x2="495.61" y2="305.39" gradientTransform="matrix(-1 0 0 1 741.78 0)" gradientUnits="userSpaceOnUse"><stop offset="0" stop-color="#9776f0"/><stop offset=".24" stop-color="#8a6af3"/><stop offset=".68" stop-color="#694af9"/><stop offset="1" stop-color="#4d2fff"/></linearGradient><linearGradient id="linear-gradient-3" x1="512.73" y1="234.98" x2="553.87" y2="234.98" gradientTransform="matrix(-1 0 0 1 741.78 0)" gradientUnits="userSpaceOnUse"><stop offset="0" stop-color="#411ebe"/><stop offset="1" stop-color="#420087"/></linearGradient><linearGradient id="linear-gradient-4" x1="413.43" y1="156.05" x2="478.34" y2="156.05" xlink:href="#linear-gradient-3"/><linearGradient id="linear-gradient-5" x1="337.89" y1="234.96" x2="378.52" y2="234.96" xlink:href="#linear-gradient-3"/><linearGradient id="New_Gradient_Swatch_6" x1="337.04" y1="130.13" x2="346.42" y2="130.13" gradientTransform="scale(-1 1) rotate(-75 -29.7 611.13)" gradientUnits="userSpaceOnUse"><stop offset="0" stop-color="#df697b"/><stop offset="1" stop-color="#be2773"/></linearGradient><linearGradient id="New_Gradient_Swatch_6-2" x1="381.8" y1="114.55" x2="381.8" y2="145.4" gradientTransform="matrix(-1 0 0 1 741.78 0)" xlink:href="#New_Gradient_Swatch_6"/><linearGradient id="New_Gradient_Swatch_6-3" x1="647.85" y1="281.46" x2="647.85" y2="295.77" gradientTransform="matrix(1 0 0 -1 -553.92 577.23)" xlink:href="#New_Gradient_Swatch_6"/><linearGradient id="New_Gradient_Swatch_15" x1="646.8" y1="267.14" x2="646.8" y2="281.46" gradientTransform="matrix(1 0 0 -1 -551.82 548.6)" gradientUnits="userSpaceOnUse"><stop offset="0" stop-color="#efcf64"/><stop offset="1" stop-color="#ff7159"/></linearGradient><linearGradient id="New_Gradient_Swatch_4" x1="443.52" y1="24.09" x2="443.52" y2="96.99" gradientTransform="matrix(-1 0 0 1 741.78 0)" gradientUnits="userSpaceOnUse"><stop offset="0" stop-color="#68acff"/><stop offset=".23" stop-color="#65a7ff"/><stop offset=".5" stop-color="#5b99ff"/><stop offset=".79" stop-color="#4a81ff"/><stop offset="1" stop-color="#3b6bff"/></linearGradient><linearGradient id="linear-gradient-6" x1="541.17" y1="150.38" x2="550.47" y2="166.48" gradientTransform="matrix(-1 0 0 1 741.78 0)" gradientUnits="userSpaceOnUse"><stop offset="0" stop-color="#ffcf62"/><stop offset="1" stop-color="#ff965d"/></linearGradient><linearGradient id="New_Gradient_Swatch_6-4" x1="502.71" y1="58.3" x2="518.72" y2="86.03" gradientTransform="matrix(-.97 -.23 -.23 .97 744.69 119.27)" xlink:href="#New_Gradient_Swatch_6"/><linearGradient id="New_Gradient_Swatch_6-5" x1="310.33" y1="271.88" x2="347.81" y2="271.88" gradientTransform="matrix(-1 0 0 1 712.63 -17.22)" xlink:href="#New_Gradient_Swatch_6"/><style>.cls-2{fill:url(#linear-gradient)}.cls-3{fill:#e6edef}.cls-12{fill:none;stroke-miterlimit:10}.cls-6{fill:#d1d3d4}.cls-10,.cls-25,.cls-6{mix-blend-mode:multiply}.cls-10{fill:#d8d0bc}.cls-12{stroke:#112b46;stroke-linecap:round;stroke-width:4px}.cls-13{fill:#112b46}.cls-14{fill:#385c7a}.cls-16{fill:#a5b7c6}.cls-18{fill:#c3d3dd}.cls-20{fill:#ffc8af}.cls-21{fill:#f4b298}.cls-22{fill:#878cf0}.cls-23{fill:#ec827d}.cls-24{fill:#56548c}.cls-26{fill:#e6e7e8}.cls-27{fill:#d8d6ec}.cls-28{fill:#b8b7c9}.cls-31{fill:#f9fbfc}.cls-32{fill:#e1e7ea}.cls-36{fill:#002b45}.cls-37{fill:#369}.cls-43{fill:#34b2a3}.cls-46{fill:#4be2cf}.cls-47{fill:#fff}</style></defs><g style="isolation:isolate"><g id="OBJECTS"><path class="cls-2" d="M218.16 170.08a118.74 118.74 0 0120.28-10.84c8.89-3.87 18-7.13 25-9.8 6 4.62 20.53 14.88 32.45 14.88s26.49-10.26 32.46-14.88c12.79 4.86 32.59 11.72 45.28 20.64 16.61 10.95 26.18 43.83 29.2 55.83-11.61 10.72-33.22 13.58-39.57 14.21q-1.54-4.69-2.93-9.12L357 288.85l-.58 10.29H235.33l-.4-7-.13-1.14 1-.12-1-21.58h-1.12v-.05l-2.3-40.63c-.67 3.88-1.44 7.75-2.28 11.6-5.62-.52-28.15-3.24-40.09-14.26 2.99-12.05 12.54-44.96 29.15-55.88z" transform="translate(-29.14 -17.22)"/><path class="cls-3" d="M61.32 302.43C43.7 267.42 59 223.34 89.5 195c11.15-10.35 24.58-19.82 29.81-33.29 5.89-15.13 0-31.69.85-47.66 1.07-20.46 14.05-40.18 33.75-51.28s45.6-13.28 67.36-5.67c28.57 10 49.4 35.24 79.85 39.16 15 1.93 30.26-1.77 45.46-1.65 42.24.31 80.11 34.83 78.69 71.75-.6 15.82-6.95 33.28 3.12 46.44 10.31 13.48 32.5 15 46.69 25.46 15.45 11.39 16.7 28.33 17 46.18.09 5.19-.07 10.92-3.57 14.76-7 7.71-22.53 3.21-32.06 3.21H61.32z" transform="translate(-29.14 -17.22)"/><path d="M20.86 287.59c-18.09-35.68-2.43-80.6 28.91-109.47 11.45-10.55 25.23-20.2 30.6-33.92 6-15.43 0-32.3.87-48.57 1.1-20.86 14.42-41 34.64-52.27s46.79-13.53 69.12-5.78c29.33 10.18 50.7 35.92 82 39.91 15.43 2 31.05-1.8 46.65-1.68 43.35.31 82.21 35.5 80.76 73.12-.62 16.13-7.13 33.92 3.2 47.33 10.58 13.74 33.36 15.3 47.91 26 15.86 11.61 17.14 28.88 17.46 47.07.1 5.29-.08 11.13-3.67 15-7.22 7.85-23.12 3.27-32.9 3.27H20.86z" stroke-width="2" stroke="#e6edef" fill="none" stroke-miterlimit="10"/><path d="M101.04 287.78c-13.36-31.17-1.67-71.62 22.35-98.62 8.94-10.05 19.77-19.38 24.2-32.59 5.05-15 .62-31.41 1.61-47.54 1.29-20.95 12.49-41.78 29.3-54 17-12.42 39.19-15.6 57.45-8.11 24 9.82 40.2 36 66.09 39.35 12.83 1.64 26.35-2.66 39.59-3 37.05-.81 66.49 34.75 60.94 72.84-2.34 16-9.73 33.51-2.61 46.38 7.24 13.09 25.95 14.37 36.76 24.43 11.73 10.9 10.61 27.13 8.6 44-.58 4.87-1.44 10.22-4.85 13.8-6.81 7.14-19.16 3-27.07 3h-79.74l-120.8.06H101.04z" stroke="#fff" stroke-width="2" fill="none" stroke-miterlimit="10"/><path class="cls-3" d="M356.56 52.28v20.35a4.7 4.7 0 004.7 4.7h6.1v6.09l6.09-6.09h20.07a4.7 4.7 0 004.7-4.7V52.28a4.7 4.7 0 00-4.7-4.71h-32.26a4.7 4.7 0 00-4.7 4.71zm29.22 10.17a2.34 2.34 0 112.34 2.34 2.34 2.34 0 01-2.34-2.34zm-10.73 0a2.34 2.34 0 112.34 2.34 2.34 2.34 0 01-2.34-2.34zm-10.73 0a2.34 2.34 0 112.34 2.34 2.34 2.34 0 01-2.34-2.34z" transform="translate(-29.14 -17.22)"/><path class="cls-2" d="M218.16 170.08a118.74 118.74 0 0120.28-10.84c8.89-3.87 18-7.13 25-9.8 6 4.62 20.53 14.88 32.45 14.88s26.49-10.26 32.46-14.88c12.79 4.86 32.59 11.72 45.28 20.64 16.61 10.95 26.18 43.83 29.2 55.83-11.61 10.72-33.22 13.58-39.57 14.21q-1.54-4.69-2.93-9.12L357 288.85l-.58 10.29H235.33l-.4-7-.13-1.14 1-.12-1-21.58h-1.12v-.05l-2.3-40.63c-.67 3.88-1.44 7.75-2.28 11.6-5.62-.52-28.15-3.24-40.09-14.26 2.99-12.05 12.54-44.96 29.15-55.88z" transform="translate(-29.14 -17.22)"/><path class="cls-6" d="M240.19 290.31l-5.33.66.27 4.8h5.65zm-9.13-83.93l.27 22.19 2.3 40.68 4.28.13z" transform="translate(-29.14 -17.22)"/><path class="cls-6" d="M323.86 257.04l-2.01 21.52h5.65l1.06-18.5-4.7-3.02z"/><path class="cls-6" d="M359.39 247.24l-2.95-1.53 4.27-39.33-.26 22.19z" transform="translate(-29.14 -17.22)"/><path d="M229.05 240.17c-5.62-.52-28.15-3.24-40.09-14.26-.71 2.78-1.05 4.45-1.05 4.45a39.08 39.08 0 004.68 3.68c9.18 6.18 21.43 9.18 35.58 10 .31-1.27.6-2.57.88-3.87z" transform="translate(-29.14 -17.22)" fill="url(#linear-gradient-3)"/><path d="M295.89 160.61c-10.28 0-22.78-8.66-28.2-12.82-1.31.52-2.73 1.08-4.25 1.65 6 4.62 20.53 14.88 32.45 14.88s26.49-10.26 32.46-14.88c-1.53-.57-2.94-1.13-4.25-1.65-5.42 4.21-17.93 12.82-28.21 12.82z" transform="translate(-29.14 -17.22)" fill="url(#linear-gradient-4)"/><path d="M402.83 225.91c-11.61 10.72-33.22 13.58-39.57 14.21.41 1.27.84 2.58 1.27 3.88 13.76-.91 25.69-3.9 34.67-10a38.1 38.1 0 004.68-3.68s-.34-1.63-1.05-4.41z" transform="translate(-29.14 -17.22)" fill="url(#linear-gradient-5)"/><path class="cls-10" d="M320.78 256.71a67.19 67.19 0 01-7.54-7 10.31 10.31 0 01-7.45-2c-1.92-1.51-3.16-3.7-4.46-5.78-1.88-3-3.77-7.25-6.54-9.5-3.32-2.71-7.93-5.23-9.25-7.3a2.29 2.29 0 01-.29-1.6 1.33 1.33 0 011-1.14 2 2 0 011.16.33c3.65 1.93 7.56 2.81 11 5.05-2.62-3.94-6.86-7-10.07-10.47-1.51-1.64-3-2.45-2.29-4.59a1.23 1.23 0 01.37-.62 1.32 1.32 0 011.15-.07 5.23 5.23 0 012.49 1.66c-1.65-2-3.42-4.45-2.73-7a3.11 3.11 0 012.14.66 115.48 115.48 0 0112.73 9c-2.53-4.08-6.52-7-9.6-10.68-.82-1-1.62-2.31-1.08-3.47a41.78 41.78 0 019.13 4.82 18.2 18.2 0 012.79 2.13 18.55 18.55 0 012.4 3.11c.4.58 6.27 9 6.68 8.49 1.88-2.19.85-5.53 1.33-8.38a7.51 7.51 0 011.19-3 3 3 0 011.25-1.16 1.4 1.4 0 011.59.3 2.14 2.14 0 01.35 1c.24 1.4.49 2.81.73 4.22q.63 3.55 1.24 7.11c.27 1.56.54 3.13.67 4.7.22 2.65 0 5.31.28 8 2.08 1.06 4.12 2.64 6.11 3.7q4.68 2.51 9.39 5 11.13 5.83 22.31 11.6l-1.69 29.76a350.18 350.18 0 01-36.49-26.88z" transform="translate(-29.14 -17.22)"/><path d="M381.22 113.36c1-.18 2.1.06 3.15-.1 6.8-1 11.66-6.32 17.29-9.75 7.74-4.72 21.52-6.23 28.08 1.51 3.43 4.05 3.18 9.91 2.18 14.79-.71 3.49-1.86 6.89-2.46 10.4-1.43 8.39 1.08 16.84 5.49 24 4.26 6.89 11.08 11.65 14.13 19.29 2.79 7 3.44 15.86-.61 22.44a60.1 60.1 0 01-6.31 7.84c-7.79 8.89-12.72 18.72-11.69 30.8a66.41 66.41 0 002.91 12.93 51.78 51.78 0 012.52 13c.12 4.43-.93 9-3.74 12.45" stroke="#112b46" stroke-linecap="round" stroke-width="2" fill="none" stroke-miterlimit="10"/><path class="cls-12" d="M421.22 274.41l25.16-81.88-18.43-86.04-56.94-17.58"/><path class="cls-13" transform="rotate(-180 440.16 275.53)" d="M448.29 277.29h12.89v13.69h-12.89z"/><circle class="cls-13" cx="425.59" cy="260.07" r="6.45"/><circle class="cls-14" cx="425.59" cy="260.07" r="3.47"/><path class="cls-13" d="M420.8 285.95h67.86v1a9 9 0 01-9 9h-49.82a9 9 0 01-9-9v-1h-.04z" transform="rotate(-180 440.16 282.375)"/><rect class="cls-13" x="406.14" y="127.49" width="6.57" height="4.97" rx="1.4" transform="rotate(-180 394.855 121.365)"/><path class="cls-13" transform="rotate(-180 393.635 121.365)" d="M406.14 125.32h4.13v9.32h-4.13z"/><path class="cls-13" d="M349.65 115.72h12.74l-.11 28.46h-12.74a9.09 9.09 0 01-9.06-9.13v-10.28a9.09 9.09 0 019.17-9.05z" transform="translate(-29.14 -17.22)"/><path d="M342.62 140.94v-1.32H345v2.32h-1.37a7.62 7.62 0 001 .76h.37v.23a8 8 0 00.77.4v-.63h2.36v1.35c.25 0 .51.08.76.1v-1.45h2.37v1.49h.74v-1.49h2.36v1.5h.77v-1.5h2.36v1.51h.76v-1.51h4v-.76h-4v-2.32h4.05v-.77h-4.05v-2.32h4.06v-.76h-4.06v-2.33h4.07v-.76h-4.08v-2.32h4.09v-.77h-4.09v-2.32h4.1v-.76h-4.1v-2.33h4.11v-.76h-4.11v-2.32h4.12v-.77h-4.13V118h4.14v-.76h-4.14v-1.5h-.76v1.5h-2.36v-1.51h-.77v1.51H352v-1.52h-.76v1.53h-2.37v-1.5l-.76.1v1.4h-2.36v-.66a8.14 8.14 0 00-.77.41v.25h-.41a9.15 9.15 0 00-1 .76H345v2.32h-2.36V119a9.22 9.22 0 00-.76 1.09v.24h-.15a7.94 7.94 0 00-.39.77h.54v2.32h-1.22c0 .25-.07.51-.09.76h1.31v2.33h-1.34v.76h1.35v2.32h-1.39v.77h1.36v2.32h-1.37v.76h1.37v2.33h-1.35c0 .26.06.51.1.76h1.25v2.32h-.56a7 7 0 00.4.77h.16v.26a8.88 8.88 0 00.76 1.06zm12.51-1.32h2.36v2.32h-2.36zm0-3.09h2.36v2.32h-2.36zm0-3.09h2.36v2.33h-2.36zm0-3.08h2.36v2.32h-2.36zm0-3.09h2.36v2.32h-2.36zm0-3.09h2.36v2.33h-2.36zm0-3.08h2.36v2.32h-2.36zm0-3.09h2.36v2.32h-2.36zM352 139.62h2.36v2.32H352zm0-3.09h2.36v2.32H352zm0-3.09h2.36v2.33H352zm0-3.08h2.36v2.32H352zm0-3.09h2.36v2.32H352zm0-3.09h2.36v2.33H352zm0-3.08h2.36v2.32H352zm0-3.09h2.36v2.32H352zm-3.13 21.61h2.37v2.32h-2.37zm0-3.09h2.37v2.32h-2.37zm0-3.09h2.37v2.33h-2.37zm0-3.08h2.37v2.32h-2.37zm0-3.09h2.37v2.32h-2.37zm0-3.09h2.37v2.33h-2.37zm0-3.08h2.37v2.32h-2.37zm0-3.09h2.37v2.32h-2.37zm-3.12 21.61h2.36v2.32h-2.36zm0-3.09h2.36v2.32h-2.36zm0-3.09h2.36v2.33h-2.36zm0-3.08h2.36v2.32h-2.36zm0-3.09h2.36v2.32h-2.36zm0-3.09h2.36v2.33h-2.36zm0-3.08h2.36v2.32h-2.36zm0-3.09h2.36v2.32h-2.36zm-.77 5.41h-2.36v-2.32H345zm0 3.09h-2.36v-2.33H345zm0 3.08h-2.36v-2.32H345zm0 3.09h-2.36v-2.32H345zm0 3.09h-2.36v-2.33H345zm-2.36 3.08v-2.32H345v2.32z" transform="translate(-29.14 -17.22)" fill="#254963"/><path class="cls-16" d="M362.39 115.74l-.11 28.47 2.78-.27 3-.31 2-.19 3-.31 2-.19 3-.3 2-.2 3-.29 22.66-2.24a3 3 0 002.7-3l.05-13.55a3 3 0 00-2.67-3L383.33 118l-3-.32-2-.21-3-.33-2-.21-3-.33-2-.2-3-.34z" transform="translate(-29.14 -17.22)"/><circle cx="400.05" cy="130.13" r="4.69" transform="rotate(-75 371.93 140.18)" fill="url(#New_Gradient_Swatch_6)"/><path class="cls-13" d="M397.41 130.12a2.64 2.64 0 102.65-2.63 2.64 2.64 0 00-2.65 2.63z" transform="translate(-29.14 -17.22)"/><rect class="cls-18" x="330.26" y="97.33" width="7.79" height="30.85" rx="1.15"/><path class="cls-18" d="M350.92 100.41l.24.03 2.14.22v5.69h-2.38v-5.94zm-7.88-.84l1.07.12 1.31.13v6.53h-2.38v-6.78zm.96 26.35l-.96.09v-6.84h2.38v6.61l-1.42.14zm14.8-1.45v-5.3h2.38v5.06l-2.38.24zm-7.74.76l-.14.01v-6.07h2.38v5.84l-2.24.22zm7.74-23.98l2.38.25v4.85h-2.38v-5.1z"/><path d="M359.4 144.25V115.7a1.14 1.14 0 011.15-1.15v30.85a1.14 1.14 0 01-1.15-1.15z" transform="translate(-29.14 -17.22)" fill="url(#New_Gradient_Swatch_6-2)"/><circle class="cls-13" cx="371.01" cy="88.91" r="6.45"/><circle class="cls-14" cx="371.01" cy="88.91" r="3.47"/><circle class="cls-13" cx="427.95" cy="106.49" r="6.45"/><circle class="cls-14" cx="427.95" cy="106.49" r="3.47"/><circle class="cls-13" cx="446.38" cy="192.53" r="6.45"/><circle class="cls-14" cx="446.38" cy="192.53" r="3.47"/><path class="cls-12" d="M371.01 88.91v23.82"/><path class="cls-20" d="M306.87 249.42a20.76 20.76 0 01-4 1.06c1.34-.42 2.66-.76 4-1.06zm3.83-23.17a3.61 3.61 0 00-.35.33 8.35 8.35 0 00-1.82 3.13c-3.07 8.71 4.54 14.23 10.37 19.23a352.16 352.16 0 0038.8 28.33c16.12 10.2 30.89 17.54 35.83 15.85 9.91-3.37 11.94-21.25 5.67-59.08-9 6.06-20.9 9-34.67 10 .39 1.16.77 2.32 1.16 3.49s.81 2.41 1.22 3.63l-7.5-3.87q-12.3-6.36-24.57-12.77c-3.13-1.64-6.27-3.28-9.38-5-2.53-1.35-5.13-3.53-7.8-4.42a7.79 7.79 0 00-1.77-.39 6.91 6.91 0 00-5.19 1.54z" transform="translate(-29.14 -17.22)"/><path class="cls-21" d="M365.69 247.49c.41 1.2.81 2.41 1.22 3.63l18.31 8.54z" transform="translate(-29.14 -17.22)"/><path class="cls-20" d="M317.16 206.06c-.25-1.41-.49-2.82-.74-4.22a2.18 2.18 0 00-.35-1 1.39 1.39 0 00-1.59-.3 3 3 0 00-1.25 1.16 7.66 7.66 0 00-1.19 3c-.48 2.85.56 6.19-1.33 8.38-.4.47-6.28-7.9-6.67-8.49a19.67 19.67 0 00-2.4-3.11 18.79 18.79 0 00-2.8-2.13 41.33 41.33 0 00-9.13-4.82c-.53 1.16.26 2.49 1.09 3.47 3.07 3.68 7.07 6.6 9.59 10.68a115.86 115.86 0 00-12.73-9 3.11 3.11 0 00-2.14-.66c-.69 2.51 1.08 5 2.74 7a5.15 5.15 0 00-2.49-1.65 1.27 1.27 0 00-1.16.07 1.16 1.16 0 00-.37.61c-.67 2.14.78 3 2.3 4.59 3.2 3.48 7.45 6.53 10.06 10.47-3.47-2.24-7.37-3.12-11-5a2 2 0 00-1.16-.33 1.33 1.33 0 00-1 1.14 2.44 2.44 0 00.29 1.61c1.33 2.06 5.94 4.58 9.25 7.29 2.77 2.25 4.67 6.51 6.55 9.5 1.3 2.08 2.54 4.27 4.46 5.78a10.36 10.36 0 008.81 1.77 12.26 12.26 0 005.58-3.16c1.54-1.49 1.79-2.84 1.88-4.95.1-2.42-.53-4.8-.8-7.17-.33-2.85-.09-5.72-.32-8.56-.13-1.58-.41-3.15-.68-4.71z" transform="translate(-29.14 -17.22)"/><path class="cls-21" d="M301 214.82l-.66-.47c-.41-.31-1-.72-1.71-1.28s-1.5-1.17-2.34-1.88-1.73-1.47-2.62-2.17a24.11 24.11 0 00-2.81-1.77l-2.6-1.48c-.77-.42-1.39-.82-1.84-1.07l-.69-.43.79.2c.49.16 1.21.35 2 .66s1.8.67 2.81 1.14a16.76 16.76 0 013.08 1.77c.93.77 1.79 1.56 2.58 2.34s1.48 1.54 2.09 2.18 1.05 1.23 1.39 1.62zm3.11-3.57l-.75-.44c-.47-.31-1.16-.7-1.94-1.23s-1.71-1.13-2.68-1.81l-3-2.14-3-2.19c-.95-.69-1.81-1.39-2.58-1.93s-1.37-1.06-1.83-1.37l-.7-.52.82.31c.51.22 1.25.53 2.09 1s1.82 1 2.82 1.63 2 1.35 3.07 2.09 2 1.52 2.94 2.27 1.74 1.5 2.45 2.13 1.26 1.21 1.66 1.59z" transform="translate(-29.14 -17.22)"/><path class="cls-10" d="M234.8 291l.13 1.13.39 6.79c9.14-1.11 18.26-2.35 27.37-3.66 6.3-.91 12.66-1.68 18.89-2.92l1.06-.21.42-.09a14.49 14.49 0 0010.7-.68c2.43-1.24 4.78-5.91 5.63-7.69s2.42-8.17 4.31-9.6c.9-.67 8.6-4.58 11-5.75.63-.31 2.57-1.64 2.19-2.23-.48-.79-2.55-.4-3.61-.26-.29 0-.58.09-.88.14h.11c-1.12.13-2.31.32-3.5.54a34.63 34.63 0 007.35-3.87 3 3 0 001.07-1.09 1.06 1.06 0 00-.32-1.36 1.47 1.47 0 00-.69-.14 20.37 20.37 0 00-3.58.2 6.58 6.58 0 002.25-1.11c.44-.34.87-.88.66-1.4a1.26 1.26 0 00-.8-.61 11.12 11.12 0 00-5.87-.15c-.74.13-1.47.3-2.2.46l.15-.06h-.05c.25-.1.51-.19.76-.3.13-.47-.46-.8-.94-.89a11.7 11.7 0 00-6.37.69c-2 .75-9.35 3.22-10.65 4.09-1.12.76-3.28 6.19-3.75 7.29-1.63 3.85-3.08 8.14-5.52 11.56-.93-.15-1.86-.23-2.74-.29-2.75-.2-5.51-.38-8.27-.56q-13.23-.84-26.48-1.39-3.94-.15-7.9-.27l.65 13.57zm68.1-32.51c1.1-.35 2.22-.65 3.34-.91-.6.16-1.52.42-2.6.75-.25.03-.49.1-.74.14z" transform="translate(-29.14 -17.22)"/><path class="cls-20" d="M192.59 234c9.18 6.18 21.43 9.18 35.58 10-2 8.51-4.31 16.88-6.84 24.95 4 0 8.18.12 12.3.24 3.13.09 6.27.2 9.4.32q13.26.54 26.48 1.39c2.76.18 5.52.36 8.27.56 2.92.21 6.41.51 8.16 3.26a7.89 7.89 0 01.71 5.46 4.79 4.79 0 01-1.06 2.64 5.38 5.38 0 01-2.95 1.24l-1.06.21c-6.23 1.24-12.59 2-18.89 2.92-9.28 1.33-18.58 2.6-27.89 3.73-16.92 2-32.71 3.45-36.53 2.14-9.91-3.32-11.93-21.2-5.68-59.06z" transform="translate(-29.14 -17.22)"/><path class="cls-20" d="M286 260.25c.47-1.1 2.63-6.53 3.75-7.29 1.3-.87 8.63-3.34 10.65-4.09a11.7 11.7 0 016.37-.69c.48.09 1.07.42.94.89l-.88.35c-1.34.3-2.66.64-4 1.06a20.76 20.76 0 004-1.06c.74-.17 1.48-.34 2.22-.47a11.22 11.22 0 015.87.15 1.27 1.27 0 01.8.62c.21.51-.22 1.05-.66 1.39a6.78 6.78 0 01-2.25 1.12 19.46 19.46 0 013.58-.21 1.47 1.47 0 01.69.14 1.07 1.07 0 01.32 1.37 3 3 0 01-1.07 1.08 34.76 34.76 0 01-7.84 4.07c1.58-.2 3.18-.66 4.76-.86 1.06-.13 3.13-.53 3.61.26.38.6-1.56 1.92-2.19 2.23-2.41 1.17-10.11 5.08-11 5.76-1.89 1.42-3.47 7.82-4.31 9.59s-3.2 6.45-5.63 7.7c-4.44 2.27-13.15 2.24-14.85-3.51a10.6 10.6 0 01-.35-3 7.43 7.43 0 01.26-2.3 7.93 7.93 0 011.37-2.3c2.68-3.46 4.17-7.97 5.84-12z" transform="translate(-29.14 -17.22)"/><path class="cls-21" d="M312.52 257.94l-.53.19c-.34.09-.81.29-1.39.43s-1.24.37-2 .55-1.49.35-2.27.52-1.55.31-2.29.43-1.43.18-2 .27-1.11.08-1.46.12h-.56l.5-.26c.33-.13.78-.37 1.35-.56s1.23-.46 1.95-.66 1.5-.4 2.28-.58 1.57-.29 2.32-.38 1.45-.11 2.05-.16 1.12 0 1.47 0zm.33-5.71l-.68.16c-.43.07-1 .27-1.77.41s-1.56.39-2.46.61l-2.82.71-2.83.7-2.5.56c-.72.19-1.35.27-1.78.37l-.69.12.61-.35c.39-.19.95-.51 1.65-.8s1.5-.66 2.4-1 1.86-.59 2.83-.85 2-.44 2.92-.57 1.83-.18 2.58-.23a14.44 14.44 0 011.84 0zm-5.85-2.87l-.53.26c-.35.15-.83.41-1.42.64s-1.28.54-2 .81-1.54.56-2.33.85l-2.34.78c-.75.26-1.46.45-2.06.67s-1.11.34-1.45.49l-.57.19.45-.4a10.14 10.14 0 011.27-.92c.57-.32 1.22-.72 1.95-1s1.54-.65 2.34-.94 1.63-.52 2.41-.71 1.53-.32 2.16-.44 1.17-.15 1.54-.2z" transform="translate(-29.14 -17.22)"/><path class="cls-21" d="M192.9 249.54l-16.89 2.25h16.18l.71-2.25z"/><path class="cls-22" d="M68.92 233.9l-5.49 54.34-4.82-.49 5.5-54.34a2.42 2.42 0 012.65-2.16 2.41 2.41 0 012.16 2.65z" transform="translate(-29.14 -17.22)"/><path class="cls-23" d="M64.17 231.24H69v1.64a1.86 1.86 0 01-1.86 1.86H66a1.86 1.86 0 01-1.86-1.86v-1.64h.03z" transform="rotate(-174.22 51.582 225.12)"/><path class="cls-24" transform="rotate(-174.22 51.356 227.387)" d="M63.94 234.73h4.84v1.06h-4.84z"/><path class="cls-24" transform="rotate(-174.22 51.114 229.75)" d="M63.7 237.1h4.84v1.06H63.7z"/><g class="cls-25"><path class="cls-26" d="M66.76 231.25l-6.4 63.25-1.75-6.75 5.5-54.34a2.42 2.42 0 012.65-2.16z" transform="translate(-29.14 -17.22)"/></g><path class="cls-23" transform="rotate(-180 42.57 249.39)" d="M54.32 232.17h5.65v51.66h-5.65z"/><path class="cls-22" transform="rotate(-180 42.57 221.72)" d="M55.58 228.49h3.13v3.67h-3.13z"/><path class="cls-27" d="M26.9 272.32h2.2l1.72-5.68h-5.64l1.72 5.68z"/><path class="cls-28" d="M27.39 274.37l.61 2.07.61-2.07v-2.05h-1.22v2.05z"/><path class="cls-22" d="M51.3 248.42h1.26v-12a1.76 1.76 0 011.76-1.76v-1.26a3 3 0 00-3 3z" transform="translate(-29.14 -17.22)"/><g class="cls-25"><path class="cls-23" d="M27.39 274.37v-2.05h-.49l-1.72-5.68H28v9.8l-.61-2.07zm1.71-2.05h-.49v2.05l-.61 2.07v-9.8h2.82l-1.72 5.68z"/><path class="cls-26" d="M54.32 233.37v-1.2h1.26v-3.68h1.56v55.34h-2.82v-49.2a1.77 1.77 0 00-1.76 1.76v12H51.3v-12a3 3 0 013.02-3.02z" transform="translate(-29.14 -17.22)"/></g><path class="cls-24" transform="rotate(174.39 31.801 250.524)" d="M43.12 234.02h5.65v51.66h-5.65z"/><path class="cls-16" transform="rotate(174.39 29.09 222.99)" d="M41.67 230.47h3.13v3.67h-3.13z"/><path class="cls-27" d="M18.79 274.13l2.19-.22 1.16-5.82-5.62.55 2.27 5.49z"/><path class="cls-28" d="M19.48 276.12l.81 2 .4-2.12-.2-2.04-1.21.12.2 2.04z"/><path class="cls-16" d="M39.19 250.88l1.26-.12-1.18-12a1.77 1.77 0 011.58-1.92l-.12-1.26a3 3 0 00-2.73 3.34z" transform="translate(-29.14 -17.22)"/><g class="cls-25"><path class="cls-24" d="M19.48 276.12l-.2-2.04-.49.05-2.27-5.49 2.81-.27.96 9.75-.81-2z"/><path class="cls-24" d="M20.98 273.91l-.49.05.2 2.04-.4 2.12-.96-9.75 2.81-.28-1.16 5.82z"/><path class="cls-26" d="M40.73 235.61l-.12-1.19 1.25-.13-.36-3.65 1.56-.16 5.41 55.07-2.81.28-4.81-49a1.77 1.77 0 00-1.58 1.92l1.18 12-1.26.12-1.17-12a3 3 0 012.71-3.26z" transform="translate(-29.14 -17.22)"/></g><path d="M36.14 249.49V296H69v-46.5zm27.7 31.9h3.5v2.36h-3.5zm0-5.47h3.5v3.51h-3.5zm0-5.48h3.5V274h-3.5zm0-5.47h3.5v3.52h-3.5zm0-5.47h3.5v3.5h-3.5zm0-4h3.5v2h-3.5zm-5.2 25.88h3.5v2.36h-3.5zm0-5.47h3.5v3.51h-3.5zm0-5.48h3.5V274h-3.5zm0-5.47h3.5v3.52h-3.5zm0-5.47h3.5V263h-3.5zm0-4h3.5v2h-3.5zm-5.21 25.88h3.51v2.36h-3.51zm0-5.47h3.51v3.51h-3.51zm0-5.48h3.51V274h-3.51zm0-5.47h3.51v3.52h-3.51zm0-5.47h3.51V263h-3.51zm0-4h3.51v2h-3.51zm-5.2 25.88h3.51v2.36h-3.51zm0-5.47h3.51v3.51h-3.51zm0-5.48h3.51V274h-3.51zm0-5.47h3.51v3.52h-3.51zm0-5.47h3.51V263h-3.51zm0-4h3.51v2h-3.51zM43 281.39h3.51v2.36H43zm0-5.47h3.51v3.51H43zm0-5.48h3.51V274H43zm0-5.44h3.51v3.52H43zm0-5.47h3.51V263H43zm0-4h3.51v2H43zm-5.2 25.88h3.51v2.36h-3.48zm0-5.47h3.51v3.51h-3.48zm0-5.48h3.51V274h-3.48zm0-5.47h3.51v3.52h-3.48zm0-5.47h3.51V263h-3.48zm0-4h3.51v2h-3.48z" transform="translate(-29.14 -17.22)" fill="#758d9e"/><path d="M65.36 281.46h63.56v14.31H65.36a6.42 6.42 0 01-6.42-6.42v-1.48a6.42 6.42 0 016.42-6.41z" transform="rotate(-180 79.36 280.005)" fill="url(#New_Gradient_Swatch_6-3)"/><path class="cls-23" d="M44.67 294.22V283h-1.55v-1.55h69.7a7.16 7.16 0 017.16 7.16 7.16 7.16 0 01-7.16 7.15h-69.7v-1.55z" transform="translate(-29.14 -17.22)"/><path class="cls-31" d="M112.82 294.22a5.61 5.61 0 000-11.21H44.67v11.21z" transform="translate(-29.14 -17.22)"/><path class="cls-32" d="M15.53 268.32h71.15v.71H15.53zm0 1.82h72.09v.71H15.53zm0 1.81h72.09v.71H15.53zm0 1.81h71.15v.71H15.53z"/><path d="M75.42 267.14H121v14.31H75.42A6.42 6.42 0 0169 275v-1.48a6.42 6.42 0 016.42-6.38z" transform="rotate(-180 80.405 265.695)" fill="url(#New_Gradient_Swatch_15)"/><path d="M55.09 279.91V268.7h-1.55v-1.56h51.32a7.16 7.16 0 017.14 7.16 7.16 7.16 0 01-7.15 7.16H53.54v-1.55z" transform="translate(-29.14 -17.22)" fill="#fbd15b"/><path class="cls-31" d="M104.86 279.91a5.61 5.61 0 000-11.21H55.09v11.21z" transform="translate(-29.14 -17.22)"/><path class="cls-32" d="M25.95 254.01h52.76v.71H25.95zm0 1.81h53.71v.71H25.95zm0 1.82h53.71v.71H25.95zm0 1.81h52.76v.71H25.95z"/><rect class="cls-16" x="219.21" y="290.51" width="71.63" height="5.26" rx="2.36" transform="rotate(-180 240.45 284.53)"/><path class="cls-16" d="M108.87 221.17H196a6.69 6.69 0 016.38 4.7l21.74 69.9h-94.56l-22.46-72.2a1.85 1.85 0 011.77-2.4z" transform="translate(-29.14 -17.22)"/><path class="cls-18" d="M105.41 221.17h87.08a6.69 6.69 0 016.38 4.7l21.74 69.9H126.1l-22.45-72.2a1.85 1.85 0 011.76-2.4z" transform="translate(-29.14 -17.22)"/><path class="cls-16" d="M136.47 217.85h26.06l-.94-3.19h-26.06l.94 3.19z"/><path class="cls-20" d="M272.52 69.05c6.73-7 16.45-10.48 26.08-12a81.5 81.5 0 0126.31.28c3 .52 6.06 1.28 8.26 3.33a14 14 0 013.29 5.37 31.24 31.24 0 011.78 7.46 121.34 121.34 0 01.35 12.72 92.25 92.25 0 01-1.81 21.3 70.35 70.35 0 01-5.59 16.14 25.8 25.8 0 01-4.11 6.35c-1.74 1.8-4.34 2.47-6.8 2.64a46.2 46.2 0 01-7.24-.34c-8.63-.75-17.27.26-26-.45-3.5-.29-7.3-.85-9.73-3.39-1.78-1.86-2.5-4.47-3.18-7A59.35 59.35 0 00270 110c-.78-1.5-1.67-2.93-2.39-4.45a43.66 43.66 0 01-2.71-8.93c-.59-2.61-1.53-5.23-1.25-7.92a35.86 35.86 0 011.54-7.25 32.51 32.51 0 017.33-12.4z" transform="translate(-29.14 -17.22)"/><path class="cls-20" d="M318.76 145.44c-1.66-.87-2.67-1.63-2.83-2.27-1-4.23-.54-10.81.32-16.65-3.13 4.58-34.33-1-42.08-7.83 1.32 6.48 3.26 18.13 1.69 24.48-.29 1.17-3.41 2.7-8.17 4.62 5.42 4.16 17.92 12.82 28.2 12.82s22.79-8.66 28.21-12.82c-2.16-.86-3.97-1.65-5.34-2.35z" transform="translate(-29.14 -17.22)"/><path d="M273 112.05q-1.22-4.74-2-9.59c-.38-2.45-.52-4.93-.86-7.38-.27-1.92-.74-3.31-.27-5.32a5.8 5.8 0 012.13-3.49c2.1-1.44 5.15-.36 6.78 1.6 2.21 2.68 2.66 6.18 3.5 9.45.13.5.31 1.07.79 1.26a1.15 1.15 0 001.29-.47 3.35 3.35 0 00.48-1.38Q286 90.82 287.47 85a7.37 7.37 0 011-2.62c.95-1.31 2.62-1.88 3.84-3 1.6-1.42 2.26-3.6 2.86-5.66l1.63-5.68a5.36 5.36 0 011.53-2.87c1.08-.85 2.61-.74 4-.6a204.35 204.35 0 0021.28 1.08c3.42 0 6.95-.4 10.36-.17 1.85.13 1.91 1 2.43 2.68a41.54 41.54 0 011.17 4.9c.26 1.45.44 2.9.62 4.36.15 1.3.32 2.6.49 3.9a23.49 23.49 0 011.66-4.32c2.66-5.29 3-12 2.34-17.82a35.22 35.22 0 00-11.12-22c-2.84-2.55-6.33-4.63-10.14-4.82s-7.9 2-9 5.65a11.89 11.89 0 00-19.1 2 48.41 48.41 0 00-19.27 1.32 16.31 16.31 0 00-7.46 3.81c-2 2-3 5.19-1.83 7.75-5.24 0-9.58 9.3-10.59 13.53-2.24 9.33 1.85 17.42 5.45 25.72 4 9.29 8.07 18.56 12.33 27.74.65 1.41 1.35 2.81 2.05 4.19a1.6 1.6 0 00.49.65.56.56 0 00.74-.06 27.17 27.17 0 00-1-7.61c-.49-1.63-.79-3.33-1.23-5z" transform="translate(-29.14 -17.22)" fill="url(#New_Gradient_Swatch_4)"/><path class="cls-21" d="M270.09 94.46c.6 5.14 3.88 15.46 11.94 13.67 0 0 1.5 8.45-2.53 8.73s-6.23-8.36-7.5-12.67a68 68 0 01-1.91-9.73z" transform="translate(-29.14 -17.22)"/><path class="cls-21" d="M277.24 91.72a4.42 4.42 0 00-1.37-1.32 3.5 3.5 0 00-2.22-.19 1.9 1.9 0 00-1.35.75 2 2 0 00-.19 1.11 16.82 16.82 0 003.11 9.1 3.66 3.66 0 00.91 1 2.87 2.87 0 001.2.45 2.92 2.92 0 002.32-.51 1.71 1.71 0 00.4-2.19c-.39-.57-1.16-.76-1.65-1.25a1.85 1.85 0 01-.48-1.76 9.29 9.29 0 01.8-1.53c.66-1.38-.72-2.66-1.48-3.66zm38.29 41.05c-7.42-.44-19.8-1.36-21.49-1.74s9 9.1 21.49 9.31z" transform="translate(-29.14 -17.22)"/><path class="cls-36" d="M293.32 40c-11.41 5.85-19.53 18-14.53 44.25l-6.68.5S267.91 66.11 271 56s7.54-14.58 9.83-16 6.67-1.34 8.55-1.16a14.28 14.28 0 013.94 1.16z" transform="translate(-29.14 -17.22)"/><path class="cls-36" d="M263.82 97.37c1.12 7.93 6.09 13.79 11.08 13.08a6 6 0 002.23-.79c3.66-2.15 5.74-8.18 4.8-14.85s-4.62-11.89-8.74-12.94a6 6 0 00-2.35-.14c-5 .71-8.14 7.71-7.02 15.64z" transform="translate(-29.14 -17.22)"/><path class="cls-36" d="M277.13 109.66a6 6 0 01-2.23.79l4.59-.65c5-.71 8.15-7.71 7-15.64s-6.08-13.79-11.09-13.08l-4.58.65a6 6 0 012.35.14c4.12 1 7.79 6.26 8.74 12.94s-1.12 12.7-4.78 14.85z" transform="translate(-29.14 -17.22)"/><path class="cls-37" d="M269.77 87.46a4.64 4.64 0 01.64 0c2.87.1 5.57 3.56 6.22 8.13s-1 8.63-3.73 9.53a4.15 4.15 0 01-.61.14c-3.1.44-6.17-3.19-6.86-8.09s1.25-9.27 4.34-9.71z" transform="translate(-29.14 -17.22)"/><path d="M276.63 95.56c-.65-4.57-3.35-8-6.22-8.13a4.64 4.64 0 00-.64 0l1.27-.18c3.09-.43 6.16 3.19 6.86 8.1s-1.26 9.23-4.35 9.67l-1.26.18a4.15 4.15 0 00.61-.14c2.74-.87 4.38-4.94 3.73-9.5z" transform="translate(-29.14 -17.22)" fill="#22557f"/><path class="cls-18" d="M188.08 97.66V84.77l12.5 1.67v10.15a4.16 4.16 0 011.63-.16c1.84.18 3.21 1.48 3.08 2.92s-1.74 2.45-3.58 2.27-3.21-1.48-3.08-2.92a.16.16 0 000-.07v-8.81L190 88.57v7.05a4.21 4.21 0 011.64-.17c1.83.18 3.21 1.49 3.07 2.92s-1.74 2.46-3.58 2.28-3.21-1.49-3.07-2.92zm206.62 75.08v-16.69l16.19 2.16v13.15a5.23 5.23 0 012.11-.22c2.38.23 4.16 1.93 4 3.78s-2.26 3.18-4.63 2.95-4.16-1.92-4-3.78a.77.77 0 000-.1V162.6l-11.15-1.6v9.14a5.23 5.23 0 012.11-.22c2.38.23 4.16 1.92 4 3.78s-2.25 3.18-4.63 3-4.16-1.93-4-3.78z" transform="translate(-29.14 -17.22)"/><path d="M205.21 161.07a5.53 5.53 0 00-3.91-9.43 5.46 5.46 0 00-3.91 1.62l-.7.7-.71-.7a5.52 5.52 0 00-7.81 0 5.52 5.52 0 000 7.81l8.52 8.52z" transform="translate(-29.14 -17.22)" fill="url(#linear-gradient-6)"/><circle cx="231.06" cy="72.17" r="16.01" transform="rotate(-13.28 142.585 188.729)" fill="url(#New_Gradient_Swatch_6-4)"/><path class="cls-31" d="M223.74 70.4l9.45-5.46a2 2 0 013.06 1.77v10.91a2 2 0 01-3.06 1.77l-9.45-5.46a2 2 0 010-3.53z" transform="translate(-29.14 -17.22)"/><path class="cls-3" d="M178 22.64h1.31v13a6 6 0 014.66-.21c2.69.85 4.42 2.95 3.87 4.68s-3.17 2.45-5.86 1.6c-2.35-.75-4-2.44-4-4v-13.4c0 2.19-7.11 3.68-7 8.3v-1.67c-.13-4.62 7.02-6.11 7.02-8.3z" transform="translate(-29.14 -17.22)"/><path class="cls-31" d="M413.39 261.13l-2.83-29-13.73-4.59a1.12 1.12 0 01.71-2.12l14.46 4.81a1.11 1.11 0 01.76 1l2.9 29.73a1.12 1.12 0 01-2.22.22z" transform="translate(-29.14 -17.22)"/><path fill="url(#New_Gradient_Swatch_6-5)" d="M402.31 230.78l-.19 2.34-3.7 45.44h-29.71l-3.69-45.44-.19-2.34h37.48z"/><path class="cls-6" d="M364.83 230.78h37.48l-.19 2.34h-37.1l-.19-2.34z"/><rect class="cls-31" x="392.14" y="244.44" width="41.13" height="3.55" rx="1.3" transform="rotate(-180 398.135 237.61)"/><path class="cls-31" d="M400.26 242.21h24.9a1.12 1.12 0 011 .55l1 1.68H398.3l1-1.68a1.11 1.11 0 01.96-.55z" transform="translate(-29.14 -17.22)"/><path d="M405.14 268.13a.72.72 0 00.72.72h.39v4.29a5.24 5.24 0 00.52 2.26 5.8 5.8 0 001.41 1.82 6.85 6.85 0 003.81 1.61v4h-3.1a.72.72 0 000 1.44h7.64a.72.72 0 000-1.44h-3.1v-4a7 7 0 002.85-.91 5.94 5.94 0 002.36-2.51 5.11 5.11 0 00.53-2.26v-4.29h.39a.72.72 0 100-1.44h-2.31v-3.36a4.54 4.54 0 00-1.33-3.22 4.56 4.56 0 00-6.42 0 4.54 4.54 0 00-1.33 3.22v3.36h-2.31a.72.72 0 00-.72.71zm10.67-.72h-6.2v-3.36a3.1 3.1 0 015.29-2.2 3.12 3.12 0 01.91 2.2zm0 4.45a3.12 3.12 0 01-.91 2.2 3.1 3.1 0 01-5.29-2.2v-3h6.2zm-8.12-3h.48v3a4.54 4.54 0 001.33 3.22 4.56 4.56 0 006.42 0 4.54 4.54 0 001.33-3.22v-3h.48v4.29a3.75 3.75 0 01-.38 1.63 4.32 4.32 0 01-1.06 1.36 5.43 5.43 0 01-3.58 1.29 5.68 5.68 0 01-2.85-.75 4.59 4.59 0 01-1.79-1.9 3.62 3.62 0 01-.38-1.63zm6 2.73a.95.95 0 10-1 .95.95.95 0 00.97-.96z" transform="translate(-29.14 -17.22)" style="mix-blend-mode:screen" fill="#a0160b"/><path class="cls-43" d="M102.66 241.62c-1.6 4.59-5.08 7.54-7.79 6.6s-3.61-5.42-2-10 5.07-7.55 7.78-6.61 3.6 5.39 2.01 10.01zm-17.56-1.98c1.45 4.63.84 9-1.37 9.64s-5.18-2.5-6.63-7.14-.84-8.95 1.37-9.64 5.18 2.5 6.63 7.14z" transform="translate(-29.14 -17.22)"/><path d="M88.35 236.88c.39 4.84-.74 8.88-2.53 9s-3.57-3.66-4-8.5.74-8.88 2.53-9 3.65 3.62 4 8.5z" transform="translate(-29.14 -17.22)" fill="#349f96"/><circle cx="89.97" cy="243.04" r="10.3" transform="rotate(-76.72 64.517 252.838)" fill="#3ebfb4"/><circle class="cls-46" cx="62.1" cy="222.7" r="1.02"/><circle class="cls-46" cx="64.49" cy="219.23" r="1.02"/><circle class="cls-46" cx="54.94" cy="220.95" r="1.02"/><circle class="cls-46" cx="48.12" cy="218.21" r="1.02"/><circle class="cls-46" cx="68.61" cy="222.43" r="1.02"/><circle class="cls-46" cx="73.14" cy="222.99" r="1.02"/><path class="cls-46" d="M102.28 233.23a1 1 0 100 2 1 1 0 100-2z" transform="translate(-29.14 -17.22)"/><circle class="cls-46" cx="49.72" cy="222.27" r="1.02"/><circle class="cls-46" cx="51.28" cy="223.06" r="1.02"/><circle class="cls-43" cx="54.36" cy="222.67" r="1.02"/><circle class="cls-46" cx="67.43" cy="223.72" r="1.02"/><circle class="cls-46" cx="59.36" cy="217.81" r="1.02"/><circle class="cls-43" cx="56.98" cy="220.19" r="1.02"/><circle class="cls-46" cx="57.32" cy="223.72" r="1.02"/><path class="cls-18" d="M104.14 243.27v19.62a4.25 4.25 0 01-4.25 4.25H80.06a4.25 4.25 0 01-4.26-4.25v-19.62zM223.76 130a7.31 7.31 0 107.3-7.3 7.31 7.31 0 00-7.3 7.3zm2.63 0a4.68 4.68 0 111.37 3.3 4.64 4.64 0 01-1.37-3.3zm12.78-4.67h3.69a1.32 1.32 0 000-2.63h-3.69a1.32 1.32 0 100 2.63zm-18 10.66a1.32 1.32 0 001.32 1.32h.51a1.32 1.32 0 000-2.64h-.48a1.32 1.32 0 00-1.37 1.33zm-7.38-13.78v15.58A3.23 3.23 0 00217 141h28.11a3.23 3.23 0 003.23-3.23v-15.56a3.23 3.23 0 00-3.23-3.23h-7.68l-.27-1.27a1.32 1.32 0 00-1.29-1h-9.73a1.33 1.33 0 00-1.29 1l-.27 1.27H217a3.24 3.24 0 00-3.23 3.23zm2.64 0a.6.6 0 01.6-.6h8.64a1.32 1.32 0 001.29-1l.27-1.27h7.61l.27 1.27a1.32 1.32 0 001.29 1h8.74a.6.6 0 01.6.6v15.58a.6.6 0 01-.6.6H217a.6.6 0 01-.6-.6z" transform="translate(-29.14 -17.22)"/><path class="cls-3" d="M30.53 196.4A15.42 15.42 0 1045.94 181a15.41 15.41 0 00-15.41 15.4zm2.76 0a12.67 12.67 0 113.71 8.94 12.61 12.61 0 01-3.71-8.94zm10.65-9.75v10.22a1.36 1.36 0 00.37.94l4.69 4.93a1.38 1.38 0 102-1.9l-4.28-4.52v-9.67a1.38 1.38 0 00-2.76 0z" transform="translate(-29.14 -17.22)"/><path class="cls-18" d="M127.55 159.61a1.49 1.49 0 001.45 1.49h13.19a1.5 1.5 0 100-3H129a1.5 1.5 0 00-1.45 1.51zm6 5.19a1.5 1.5 0 001.49 1.5h7.18a1.5 1.5 0 100-3h-7.18a1.49 1.49 0 00-1.48 1.5zm-12-21.12v31.79a1.5 1.5 0 00.44 1.06 1.52 1.52 0 001.06.44h25.16a1.52 1.52 0 001.06-.44 1.53 1.53 0 00.43-1.06v-31.79a1.49 1.49 0 00-1.49-1.49h-25.15a1.52 1.52 0 00-1.06.44 1.49 1.49 0 00-.44 1.05zm3 30.3v-28.8h22.17V174zm3-19.57a1.49 1.49 0 001.45 1.49h13.19a1.5 1.5 0 100-3H129a1.5 1.5 0 00-1.45 1.51zm0-5.2a1.5 1.5 0 001.49 1.5h13.19a1.5 1.5 0 100-3H129a1.49 1.49 0 00-1.45 1.5zM96.4 114.69a8.43 8.43 0 00-1.05 10.6L90 130.65a.57.57 0 000 .82l1.5 1.51a.57.57 0 00.82 0l5.37-5.37a8.4 8.4 0 10-1.28-12.92zm2.33 2.31a5.11 5.11 0 110 7.22 5.11 5.11 0 010-7.22z" transform="translate(-29.14 -17.22)"/><path class="cls-47" d="M100.61 193.39V212a1.45 1.45 0 001.44 1.45h29.43a1.47 1.47 0 001.45-1.45v-18.89a.83.83 0 000-.15 1.17 1.17 0 00-.05-.11.91.91 0 00-.07-.14l-.07-.12-.05-.06-.06-.06a.1.1 0 00-.05 0l-.11-.1-.11-.07-.14-.07-.22-.23h-30.43l-.11.05-.14.07-.1.07-.12.1v.06l-.06.06-.08.12c0 .05 0 .09-.07.14a.36.36 0 000 .11.75.75 0 000 .16.43.43 0 000 .12.77.77 0 000 .15zm26.73 1.45l-10.57 8.42-10.58-8.42zm-23.84 1.56l12.37 9.85a1.44 1.44 0 001.8 0L130 196.4v14.1h-26.5z" transform="translate(-29.14 -17.22)"/><path class="cls-3" d="M54.99 132H18.2v-3.34h36.79m0 10.66H18.2v-3.35h36.79m16.58-2.11l-4.41 4.81-7.29-8.68 2.56-2.16 4.84 5.77 1.83-2 2.47 2.26zm-16.58 12.77H18.2v-3.34h36.79m0 10.66h-21.9v-3.35h21.9"/><path class="cls-3" d="M227.25 21h24a3 3 0 013 3v12a3 3 0 01-3 3h-15.19l-4.78 4.8V39h-4a3 3 0 01-3-3V24a3 3 0 013-3m0-3.73a6.75 6.75 0 00-6.77 6.73v12a6.75 6.75 0 006.74 6.73h.3v1.06a3.73 3.73 0 006.38 2.64l3.69-3.7h13.62A6.74 6.74 0 00258 36V24a6.74 6.74 0 00-6.73-6.73z" transform="translate(-29.14 -17.22)"/><path class="cls-37" d="M281.32 51.46c0-1-6.57-3.1-7.84-2.07l-.41.9a2.25 2.25 0 01-.57-1.91c.22-1.12 4.78-9.85 12.85-10.47s8.55.05 8.84.84.29 1.72-2.9 3.41-7.07 6.58-7.91 8.07-1.73 2.37-2.5 2.07z" transform="translate(-29.14 -17.22)"/><circle class="cls-47" cx="146.48" cy="193.84" r="2.55"/><circle class="cls-3" cx="67.43" cy="66.21" r="2.55"/><circle class="cls-47" cx="136.93" cy="143.3" r="4.62"/><path class="cls-3" d="M145.1 42.06a4.62 4.62 0 104.61-4.62 4.61 4.61 0 00-4.61 4.62zM433.22 196.4a4.62 4.62 0 104.62-4.62 4.61 4.61 0 00-4.62 4.62z" transform="translate(-29.14 -17.22)"/><circle class="cls-47" cx="348.25" cy="139.32" r="2.55"/><path transform="rotate(-180 249.36 293.82)" fill="#dce8ef" d="M29.14 295.77h469.58v13.31H29.14z"/><path class="cls-47" d="M140.87 97a1.54 1.54 0 001.53 1.53h.84v9.11a11 11 0 001.11 4.81 12.21 12.21 0 003 3.87 14.49 14.49 0 008.1 3.41v8.5h-6.59a1.53 1.53 0 000 3.06h16.24a1.53 1.53 0 000-3.06h-6.6v-8.5a14.82 14.82 0 006.07-2 12.68 12.68 0 005-5.33 10.9 10.9 0 001.12-4.81v-9.11h.83a1.53 1.53 0 100-3.06h-4.92v-7.17a9.65 9.65 0 00-19.3 0v7.17h-4.9a1.53 1.53 0 00-1.53 1.58zm22.69-1.53h-13.18v-7.22a6.59 6.59 0 1113.18 0zm0 9.46a6.59 6.59 0 11-13.18 0v-6.4h13.18zm-17.26-6.4h1v6.4a9.65 9.65 0 1019.3 0v-6.4h1v9.11a7.89 7.89 0 01-.8 3.47 9.28 9.28 0 01-2.24 2.9 11.64 11.64 0 01-7.56 2.69 11.89 11.89 0 01-6.05-1.61 9.59 9.59 0 01-3.82-4 7.89 7.89 0 01-.8-3.47zm12.7 5.74a2 2 0 10-2 2 2 2 0 002-2z" transform="translate(-29.14 -17.22)"/><path d="M247.05 209a.89.89 0 00.89.89h.48v5.28a6.43 6.43 0 00.65 2.79 7.1 7.1 0 001.73 2.24 8.4 8.4 0 004.7 2v4.93h-3.82a.89.89 0 100 1.77h9.42a.89.89 0 000-1.77h-3.83v-4.93a8.59 8.59 0 003.52-1.13 7.33 7.33 0 002.91-3.09 6.29 6.29 0 00.65-2.79v-5.28h.48a.89.89 0 100-1.78H262v-4.15a5.6 5.6 0 10-11.19 0v4.15h-2.85a.89.89 0 00-.91.87zm13.16-.89h-7.65v-4.15a3.83 3.83 0 017.65 0zm0 5.49a3.83 3.83 0 01-7.65 0v-3.71h7.65zm-10-3.71h.59v3.71a5.6 5.6 0 1011.19 0v-3.71h.59v5.28a4.59 4.59 0 01-.46 2 5.25 5.25 0 01-1.3 1.68 6.75 6.75 0 01-4.42 1.59 7 7 0 01-3.51-.93 5.51 5.51 0 01-2.21-2.34 4.47 4.47 0 01-.47-2zm7.36 3.36a1.18 1.18 0 10-1.17 1.17 1.18 1.18 0 001.16-1.19z" transform="translate(-29.14 -17.22)" style="mix-blend-mode:screen" fill="#11477c"/></g></g></svg>