<svg id="OBJECTS" xmlns="http://www.w3.org/2000/svg" viewBox="0 0 369.15 230.02"><defs><style>.cls-1{fill:#fff}.cls-2{fill:#84d9bc}</style></defs><path class="cls-1" d="M191.05 194.18v46a3 3 0 01-3.32 3 26.18 26.18 0 010-51.93 3 3 0 013.32 2.93zm7.95 51.64a4.12 4.12 0 01-4.11-4.12v-49a4.11 4.11 0 014.11-4.12 4.11 4.11 0 014.12 4.12v49a4.12 4.12 0 01-4.12 4.12z" transform="translate(-63.07 -122.09)"/><path class="cls-1" d="M317.47 189.56c0 1.72-.07 3.43-.19 5.12h-6.46c.15-1.69.22-3.4.22-5.12a61.48 61.48 0 00-2-15.45h-5.73a55.54 55.54 0 00-106.68 0h-5.73a61.48 61.48 0 00-2 15.45c0 1.72.07 3.43.22 5.12h-6.46c-.12-1.69-.19-3.4-.19-5.12a67.47 67.47 0 01134.94 0z" transform="translate(-63.07 -122.09)"/><path class="cls-1" d="M309 194.18v46a3 3 0 003.32 3 26.18 26.18 0 000-51.93 3 3 0 00-3.32 2.93zm-8 51.64a4.12 4.12 0 004.11-4.12v-49a4.11 4.11 0 00-4.11-4.12 4.11 4.11 0 00-4.12 4.12v49a4.12 4.12 0 004.12 4.12z" transform="translate(-63.07 -122.09)"/><path class="cls-2" d="M258.89 186.7h-17.78a1.89 1.89 0 110-3.78h17.78a1.89 1.89 0 110 3.78zm-4.07-7.82h-9.64a1.9 1.9 0 010-3.79h9.64a1.9 1.9 0 010 3.79zm8.91 15.65h-27.46a1.9 1.9 0 010-3.79h27.46a1.9 1.9 0 010 3.79zm0 8.05h-27.46a1.89 1.89 0 010-3.78h27.46a1.89 1.89 0 010 3.78z" transform="translate(-63.07 -122.09)"/><path class="cls-1" d="M217.84 214h-4.38a2.36 2.36 0 01-2.36-2.36 2.36 2.36 0 012.36-2.36h4.38a2.36 2.36 0 012.37 2.36 2.36 2.36 0 01-2.37 2.36zm68.36 0h-4.38a2.36 2.36 0 01-2.37-2.36 2.36 2.36 0 012.37-2.36h4.38a2.36 2.36 0 012.36 2.36 2.36 2.36 0 01-2.36 2.36zM250 169a21.59 21.59 0 0121.57 21.57v37.56a21.57 21.57 0 01-43.14 0v-37.54A21.59 21.59 0 01250 169m0-3.78a25.35 25.35 0 00-25.35 25.35v37.56A25.35 25.35 0 00250 253.5a25.35 25.35 0 0025.35-25.35v-37.56A25.35 25.35 0 00250 165.24z" transform="translate(-63.07 -122.09)"/><path class="cls-1" d="M250 165.23a25.36 25.36 0 00-25.35 25.36v37.56a25.35 25.35 0 0050.7 0v-37.56A25.36 25.36 0 00250 165.23zm21.57 62.92a21.57 21.57 0 01-43.14 0v-37.56a21.57 21.57 0 1143.14 0z" transform="translate(-63.07 -122.09)"/><path class="cls-1" d="M281.46 209.37v18.21a31.46 31.46 0 01-62.92 0v-18.21h-5.3v18.21a36.76 36.76 0 0073.52 0v-18.21z" transform="translate(-63.07 -122.09)"/><path class="cls-1" d="M275.35 209.32v18.83a25.35 25.35 0 01-50.7 0v-18.83z" transform="translate(-63.07 -122.09)"/><path class="cls-1" d="M182.11 141.92h9.63v14.23h-9.63z"/><path class="cls-1" d="M235.32 284.52a3.56 3.56 0 013.56-3.57h22.24a3.56 3.56 0 013.56 3.57 3.56 3.56 0 01-3.56 3.56h-22.24a3.56 3.56 0 01-3.56-3.56z" transform="translate(-63.07 -122.09)"/><path class="cls-2" d="M85.91 320a11.63 11.63 0 010 21.38 18.8 18.8 0 01-7.77 1.48h-5.75v8.62h-9.32v-33h15.07a18.8 18.8 0 017.77 1.52zm-4 14.27a4.43 4.43 0 001.45-3.56 4.5 4.5 0 00-1.45-3.58 6.5 6.5 0 00-4.34-1.27h-5.18v9.66h5.18a6.55 6.55 0 004.34-1.27zm27.8 15.63a16.85 16.85 0 010-29.85 21.07 21.07 0 0118.79 0 16.86 16.86 0 010 29.85 21 21 0 01-18.79 0zm13.91-6.68a8.45 8.45 0 003.2-3.32 10.85 10.85 0 000-9.84 8.39 8.39 0 00-3.2-3.32 9.25 9.25 0 00-9 0 8.46 8.46 0 00-3.2 3.32 10.85 10.85 0 000 9.84 8.52 8.52 0 003.2 3.32 9.32 9.32 0 009 0zM147 318.5h15.59a21.78 21.78 0 019.6 2 15.24 15.24 0 016.5 5.75 17.58 17.58 0 010 17.42 15.22 15.22 0 01-6.5 5.74 21.78 21.78 0 01-9.6 2H147zm15.23 25.5a9.56 9.56 0 006.81-2.4 9.89 9.89 0 000-13.28 9.56 9.56 0 00-6.81-2.4h-5.88V344zm35.53 5.93a16.42 16.42 0 01-6.48-6.1 17.86 17.86 0 010-17.71 16.39 16.39 0 016.48-6.09 19.47 19.47 0 019.3-2.19 19.88 19.88 0 018.14 1.6 15.66 15.66 0 016 4.61l-5.93 5.37a9.79 9.79 0 00-7.77-3.86 9.54 9.54 0 00-4.78 1.18 8.12 8.12 0 00-3.25 3.32 11.1 11.1 0 000 9.84 8.18 8.18 0 003.25 3.32 9.64 9.64 0 004.78 1.17 9.76 9.76 0 007.77-3.86l5.93 5.37a15.68 15.68 0 01-6 4.62 20 20 0 01-8.14 1.6 19.47 19.47 0 01-9.3-2.19zm53.84-4.88h-13.94l-2.59 6.41h-9.51l14.55-33h9.18l14.6 33h-9.7zm-2.73-6.87l-4.24-10.55-4.24 10.55zm26.18 12.95a19.11 19.11 0 01-6.12-2.64l3.06-6.87a19.86 19.86 0 005.13 2.35 19.45 19.45 0 005.75.9c3.58 0 5.36-.9 5.36-2.69a2.21 2.21 0 00-1.53-2.09 27.45 27.45 0 00-4.92-1.44 46.45 46.45 0 01-6.21-1.72 10.45 10.45 0 01-4.29-2.94 8 8 0 01-1.79-5.46 9.46 9.46 0 011.65-5.44 11 11 0 014.92-3.84 20.29 20.29 0 018-1.41 28 28 0 016.4.73 19.4 19.4 0 015.56 2.14l-2.87 6.92a19.27 19.27 0 00-9.14-2.54 7.67 7.67 0 00-4.05.82 2.5 2.5 0 00-1.27 2.15 2.12 2.12 0 001.51 2 26.9 26.9 0 004.85 1.37 44 44 0 016.24 1.72 10.67 10.67 0 014.31 2.85 7.77 7.77 0 011.82 5.43 9.26 9.26 0 01-1.65 5.37 11.27 11.27 0 01-4.95 3.84 19.9 19.9 0 01-8 1.44 30.43 30.43 0 01-7.77-.95zM313 325.89h-10.17v-7.39h29.52v7.39h-10.07v25.57H313zm55.28-.19v7.3h14.55v7.21h-14.55v11.3H359v-33h25.85v7.2zm55.37 25.76l-.09-17.46-8.48 14.22h-4.14l-8.43-13.75v17h-8.62v-33h7.68l11.58 19 11.3-19h7.68l.09 33z" transform="translate(-63.07 -122.09)"/></svg>