<svg xmlns="http://www.w3.org/2000/svg" viewBox="0 0 438.84 414.47"><defs><style>.cls-1{fill:#263238;}.cls-2{fill:#f5f5f5;}.cls-3{fill:#fff;}.cls-4{fill:#ebebeb;}.cls-5{fill:#e8505b;}.cls-6{opacity:0.6;}.cls-7{fill:#fafafa;}.cls-8{opacity:0.4;}.cls-9{fill:#ffbe9d;}.cls-10{opacity:0.2;}.cls-11{fill:#e0e0e0;}.cls-12{fill:#455a64;}.cls-13{opacity:0.3;}.cls-14{fill:#eb996e;}.cls-15{fill:none;stroke:#263238;stroke-miterlimit:10;stroke-width:0.05px;}</style></defs><g id="Device"><path class="cls-1" d="M203.82,444.56H64.65c-16.81-.07-31-14.41-31-31.23L35.18,62.82A30.45,30.45,0,0,1,65.77,32.49l139.82.65A30.44,30.44,0,0,1,235.9,63.72l-1.48,350.51A30.45,30.45,0,0,1,203.82,444.56Z" transform="translate(-33.69 -32.49)"/><path class="cls-2" d="M205.39,46.45l-27.11-.12a6.72,6.72,0,0,0-6.61,6.85l0,4.92A6.74,6.74,0,0,1,165,65L112.2,64.7a6.74,6.74,0,0,1-6.56-6.91l0-4.91A6.74,6.74,0,0,0,99.11,46l-9.53,0-23.73-.11A21.34,21.34,0,0,0,44.42,67.05L43,409.18A21.33,21.33,0,0,0,64.21,430.6l139.53.64A21.33,21.33,0,0,0,225.17,410l1.45-342.13A21.34,21.34,0,0,0,205.39,46.45Z" transform="translate(-33.69 -32.49)"/><path class="cls-2" d="M146.17,366.59c-.16,4.13-.31,8-.44,11.23h20l-2.45-12.32Z" transform="translate(-33.69 -32.49)"/><path class="cls-2" d="M64.71,371.74l.17,6.08h78.85c.13-3.42.28-7.2.43-11.1Z" transform="translate(-33.69 -32.49)"/><polygon class="cls-2" points="130.63 332.95 133.1 345.33 170.05 345.33 169.6 330.49 130.63 332.95"/><polygon class="cls-2" points="114.47 159.96 121.46 119.45 103.16 118.09 103.16 159.96 114.47 159.96"/><polygon class="cls-2" points="29.36 316.76 9.5 324.54 9.45 338.61 29.96 337.31 29.36 316.76"/><polygon class="cls-2" points="29.27 313.6 28.19 275.87 28.17 275.87 28.17 262.56 9.76 264.51 9.52 321.32 29.27 313.58 29.27 313.6"/><polygon class="cls-2" points="28.17 232.86 9.9 230.44 9.77 261.5 28.17 259.55 28.17 232.86"/><polygon class="cls-2" points="164.36 263.12 163.59 273.94 142.01 276.26 143.68 284.82 168.18 282.97 167.81 270.7 169.76 262.58 164.36 263.12"/><polygon class="cls-2" points="125.47 286.19 142.68 284.89 138.93 265.69 123.91 267.21 125.47 286.19"/><polygon class="cls-2" points="125.63 288.19 126.94 304.2 129.28 326.16 130.24 330.97 169.54 328.49 168.24 284.97 125.63 288.19"/><path class="cls-2" d="M91.67,245.07l1.51,2.59L62.87,265.34v42l32-2.27,61.66-6.22-2.25-27.49-58.91-7.7.39-3L154,268.25l-3.83-46.53-57.67,5.54-.19-2,57.7-5.54-2-24.28H92.56l-48.72,8.86-.23,55.6,18.45,2.43ZM66,303.28s.23-34.58,0-35.87l24.74-13.16,3.2,47.27Z" transform="translate(-33.69 -32.49)"/><polygon class="cls-2" points="162.34 263.33 139.93 265.59 141.63 274.29 161.71 272.13 162.34 263.33"/><path class="cls-2" d="M146.45,359.18c-.07,1.81-.14,3.62-.21,5.4l16.68-1.06-.85-4.3Z" transform="translate(-33.69 -32.49)"/><polygon class="cls-2" points="76.83 159.96 79.77 146.64 102.16 146.64 102.16 118.02 32.14 112.83 32.14 139.7 10.27 144.65 10.16 168.77 58.6 159.96 76.83 159.96"/><path class="cls-2" d="M157.25,112.82l-.6-2.45,26.74-10.58L166,64.87a6.24,6.24,0,0,1-1,.08l-29.54-.14.8,48.87Z" transform="translate(-33.69 -32.49)"/><path class="cls-2" d="M197.77,94.09l0-47.67-19.46-.09a6.72,6.72,0,0,0-6.61,6.85l0,4.92a7,7,0,0,1-2.87,5.64l17.41,34.94Z" transform="translate(-33.69 -32.49)"/><path class="cls-2" d="M97.25,96.14,95,45.94l-5.41,0-21.15-.1-9,44.89ZM92.43,51l.72,40.88L65,87.8,71.19,51Z" transform="translate(-33.69 -32.49)"/><path class="cls-2" d="M98.27,96.29v.42c0,3.92.13,11,.19,18.51l36.83-1.5-.81-48.91L112.2,64.7a6.74,6.74,0,0,1-6.56-6.91l0-4.91A6.74,6.74,0,0,0,99.11,46H96l2.26,50.33Z" transform="translate(-33.69 -32.49)"/><path class="cls-2" d="M56.44,90.28l8.93-44.45a21.33,21.33,0,0,0-21,21.22l-.09,22.16.09-.65Z" transform="translate(-33.69 -32.49)"/><polygon class="cls-2" points="29.14 112.61 10.41 111.22 10.28 141.57 29.14 137.31 29.14 112.61"/><polygon class="cls-2" points="22.55 58.77 10.63 57.06 10.43 106.21 12.99 106.4 22.55 58.77"/><polygon class="cls-2" points="60.38 313.02 60.7 273.57 29.19 275.8 30.3 314.45 60.38 313.02"/><path class="cls-2" d="M99.87,336.41l44.63,21.38c.53-14,1-27,1-27.87l1-.05.47-.94c.64.31.64.31.31,9.84-.19,5.31-.45,12.38-.72,19.45h15.43l-2.28-21.44-3-37L98.3,305.68Z" transform="translate(-33.69 -32.49)"/><polygon class="cls-2" points="175.57 238.44 175.07 233.23 121.57 238.8 123.83 266.21 170.01 261.55 175.57 238.44"/><polygon class="cls-2" points="102.16 149.64 82.18 149.64 79.9 159.96 102.16 159.96 102.16 149.64"/><path class="cls-2" d="M201,185.61l-50-3.46-2,11.82L151,219.63l52.78-5.08ZM152.8,194l2.69-7.46L199,189.24l2.52,21.34-47.2,5.6Z" transform="translate(-33.69 -32.49)"/><polygon class="cls-2" points="172.5 206.75 170.31 184.06 117.5 189.13 119.48 213.29 172.5 206.75"/><polygon class="cls-2" points="30.01 339.31 9.53 340.61 9.44 339.28 9.42 345.33 30.19 345.33 30.01 339.31"/><path class="cls-2" d="M226.25,82.82l.3.77.07-15.72a21.34,21.34,0,0,0-21.23-21.42l-6.65,0,0,47.28Z" transform="translate(-33.69 -32.49)"/><path class="cls-2" d="M144.46,358.88,98.91,337.05,97.3,305.78l-1.91.19-.32,40.5-31,1.47,0,.9v0h0l.6,20.88,79.59-5C144.31,362.77,144.39,360.82,144.46,358.88ZM66,350.51l43.46-3.05,28.27,13.12L66,364.46Z" transform="translate(-33.69 -32.49)"/><path class="cls-2" d="M213.3,135.33l1.86-11.05c-16.33-5.83-17.46-22.87-17.41-28l-10.67,4.22,16.06,32.23Z" transform="translate(-33.69 -32.49)"/><polygon class="cls-2" points="121.33 235.81 143.54 233.5 139.16 213.88 119.72 216.28 121.33 235.81"/><polygon class="cls-2" points="167.39 119.78 125.91 119.78 122.46 119.52 117.78 146.69 167.02 150.09 165.87 138.28 170.72 120.84 167.39 119.78"/><path class="cls-2" d="M200.07,147.27l.52-13-16.31-32.73-25.28,10,8.69,35.68ZM183.3,105.56,198.24,134l-2.16,8.86-25.56-1L164.13,115Z" transform="translate(-33.69 -32.49)"/><polygon class="cls-2" points="172.83 271.22 173.59 296.69 191.56 295.68 191.62 296.68 173.62 297.69 174.54 328.17 191.53 327.1 191.66 329.09 174.6 330.17 175.05 345.33 191.61 345.33 191.97 260.34 175.03 262.05 172.83 271.22"/><path class="cls-2" d="M97.28,97.15,59.22,91.69,49.7,139.11l47.75,3.54C97.64,135.35,97.47,113,97.28,97.15Z" transform="translate(-33.69 -32.49)"/><polygon class="cls-2" points="126.18 114.78 131.94 114.78 123.79 81.32 102.61 82.19 103.12 113.08 126.18 114.78"/><path class="cls-2" d="M43,402.16l0,7c0,.21,0,.42,0,.64Z" transform="translate(-33.69 -32.49)"/><path class="cls-2" d="M98.42,142.72l37.39,2.77-.5-30.77-36.84,1.5C98.55,126.63,98.58,137.73,98.42,142.72Z" transform="translate(-33.69 -32.49)"/><polygon class="cls-2" points="172.79 209.74 140.16 213.76 144.54 233.39 174.78 230.25 172.79 209.74"/><path class="cls-2" d="M215.33,123.27l2.09-12.4,9,.7.11-26.71-27.78,11C198.19,114.65,210,121.26,215.33,123.27Z" transform="translate(-33.69 -32.49)"/><polygon class="cls-2" points="170.94 138.72 172.07 150.44 192.43 151.85 192.53 127.72 175.49 122.34 170.94 138.72"/><path class="cls-2" d="M214.32,271.28,209,293.51l16.69-1.69.1-23.31c-5.12-1.35-9.6-2.45-12-2.91Z" transform="translate(-33.69 -32.49)"/><polygon class="cls-2" points="169.36 115.16 192.55 122.49 192.61 109.3 169.83 103.41 169.36 115.16"/><path class="cls-2" d="M213.48,262.55c1.87.28,5.41,1,12.3,2.85l.22-51-17,1.64Z" transform="translate(-33.69 -32.49)"/><polygon class="cls-2" points="175.09 181.59 192.31 179.93 192.42 154.86 172.37 153.47 175.09 181.59"/><path class="cls-2" d="M217.26,123.9a93.52,93.52,0,0,0,9.11,2.33l0-12.66-7.33-.57Z" transform="translate(-33.69 -32.49)"/><path class="cls-2" d="M215.25,135.83l11.07,2.86.05-11.43c-2.87-.58-6-1.36-9.28-2.36Z" transform="translate(-33.69 -32.49)"/><path class="cls-3" d="M63.71,371.8l.17,6h1l-.17-6.08,79.45-5c-.15,3.9-.3,7.68-.43,11.1h2c.13-3.23.28-7.1.44-11.23l17.15-1.09,2.45,12.32h1l-2.46-12.38,39-2.46.44,14.84h5l-.46-15.16,17.06-1.08-.13-2-17,1.08-.91-30.48,18-1-.06-1-18,1-.77-25.47,2.21-9.17,16.94-1.71v-1L209,293.51l5.34-22.23-.55-5.68c2.4.46,6.88,1.56,12,2.91V265.4c-6.89-1.82-10.43-2.57-12.3-2.85L209,216.07l17-1.64v-2l-17.23,1.66L206.06,186l20.05,1.39v-3l-20.35-1.41-1.14-11.72,4.55-16.38,17,5.38,0-5.23-23.19-7.33.47-11.75,22.77,5.89,0-3.1-11.07-2.86,1.84-10.93c3.32,1,6.41,1.78,9.28,2.36v-1a93.52,93.52,0,0,1-9.11-2.33l1.83-10.9,7.33.57v-2l-9-.7-2.09,12.4c-5.33-2-17.14-8.62-16.57-27.42l27.78-11V83.59l-.3-.77L198.77,93.7l0-47.28h-1l0,47.67-11.58,4.59L168.78,63.74A6.26,6.26,0,0,1,166,64.87l17.39,34.92-26.74,10.58.6,2.45-21,.86-.8-48.87h-1l.81,48.91-36.83,1.5c-.06-7.54-.14-14.59-.19-18.51v-.42h0L96,46H95l2.26,50.2L59.42,90.71l9-44.89H65.85l-.48,0L56.44,90.28l-12-1.72-.09.65v.34l11.92,1.71-9.56,47.63-2.57-.19,0,5,18.73,1.39v24.69L44,174.06v3.08l21.87-4.95V145.32l70,5.19v28.62H113.46l-2.94,13.32H92.29l-48.43,8.81,0,3.05,48.72-8.86H148l2,24.28-57.7,5.54.19,2,57.67-5.54L154,268.25l-58.27-7.61-.39,3,58.91,7.7,2.25,27.49L94.86,305l-32,2.27v-42l30.31-17.68-1.51-2.59L62.06,262.34l-18.45-2.43v3l18.27,2.42V292L43.46,294v3l18.42-1.95v13.31h0L63,346.09v0l-19.75,7.74V357l19.86-7.78.59,20.55-20.51,1.3v.67l.08,1.33Zm82.53-7.22c.07-1.78.14-3.59.21-5.4l15.62,0,.85,4.3Zm17.69-1.12-1-4.81-2.33-22-1.32-16,42.61-3.21L203.24,361Zm9.69-65.38L196,295.82l-.62,8.8-20.09,2.16Zm-1,.1,3.75,19.2-17.21,1.3-1.56-19Zm29.25,17.28-24.5,1.85-1.67-8.56,21.58-2.32.77-10.82,5.41-.54-2,8.12Zm-29-69.09L177.23,266,155,268.3l-1.6-19.53Zm5.37,19.51-4.38-19.63,32.64-4,2,20.51Zm22.48-83.3-49.24-3.41L156.16,152l3.44.26h41.48l3.33,1.06-4.84,17.44Zm-3-86.33c-.05,5.16,1.08,22.2,17.41,28l-1.86,11.05-10.16-2.63-16.06-32.23Zm-13.47,5.33,16.31,32.73-.52,13H167.69L159,111.59Zm-26.79,12.23,8.15,33.46h-5.76l-23.07-1.7-.5-30.89Zm-22.18.91.5,30.77-37.39-2.77c.16-5,.13-16.09,0-26.5Zm-76.09-23,38.06,5.46c.19,15.8.36,38.2.17,45.5L49.7,139.11Zm95.94,60.25-7,40.51H136.85V150.58Zm-39.29,30.19h20v10.32H113.59Zm33,11.84,2-11.82,50,3.46,2.81,28.94L151,219.63ZM204,216.55l2.2,22.69-53,6.54-2-24.16Zm-48.73,54.74,53.49-5.57.5,5.2L203.71,294l-46.19,4.66Zm4.37,65.49,2.28,21.44H146.49c.27-7.07.53-14.14.72-19.45.33-9.53.33-9.53-.31-9.84l-.47.94-1,.05c0,.83-.43,13.9-1,27.87L99.87,336.41,98.3,305.68l58.31-5.88ZM94.39,306.06l-.31,39.45L64,346.94l-1.11-38.65Zm-30.34,42.8h0v0l0-.9,31.05-1.47.32-40.5,1.91-.19,1.61,31.27,45.55,21.83c-.07,1.94-.15,3.89-.22,5.83l-79.59,5Z" transform="translate(-33.69 -32.49)"/><polygon class="cls-4" points="75.73 314.98 32.28 318.02 32.28 331.98 104.01 328.09 75.73 314.98"/><polygon class="cls-4" points="165.26 156.75 121.79 154 119.11 161.46 120.58 183.69 167.78 178.09 165.26 156.75"/><polygon class="cls-4" points="59.45 59.42 58.73 18.54 37.5 18.54 31.34 55.31 59.45 59.42"/><polygon class="cls-4" points="162.39 110.35 164.54 101.49 149.6 73.07 130.43 82.51 136.82 109.39 162.39 110.35"/><path class="cls-4" d="M66,267.41c.23,1.29,0,35.87,0,35.87l27.94-1.76-3.2-47.27Z" transform="translate(-33.69 -32.49)"/><polygon class="cls-4" points="125.47 263 123.99 241.57 171.92 235.41 171.92 239.11 166.12 258.82 125.47 263"/><path class="cls-5" d="M123.72,117.76a5.84,5.84,0,1,1-5.84-5.84A5.85,5.85,0,0,1,123.72,117.76Z" transform="translate(-33.69 -32.49)"/><g class="cls-6"><path class="cls-3" d="M123.71,117.51a5.84,5.84,0,1,1-6.08-5.58A5.84,5.84,0,0,1,123.71,117.51Z" transform="translate(-33.69 -32.49)"/></g><circle class="cls-5" cx="84.19" cy="85.07" r="3.88"/><path class="cls-5" d="M208.11,350.91a2.5,2.5,0,1,1-2.5-2.5A2.5,2.5,0,0,1,208.11,350.91Z" transform="translate(-33.69 -32.49)"/><path class="cls-5" d="M204.11,350.1l-.6-14-42.13,2.05a6.39,6.39,0,0,1-3.18-.68L98.45,307.31a4.34,4.34,0,0,1-2.37-3.64L87.94,145.93a2.63,2.63,0,0,1,2.83-2.76l25.61,1.89v-28h3v28.38a2.64,2.64,0,0,1-2.83,2.63L91,146.19l8.11,157.33a1.34,1.34,0,0,0,.73,1.11l59.75,30.18a3.39,3.39,0,0,0,1.69.36l42.48-2.07a2.67,2.67,0,0,1,1.91.69,2.62,2.62,0,0,1,.86,1.85l.62,14.33Z" transform="translate(-33.69 -32.49)"/><circle class="cls-5" cx="59.14" cy="181.93" r="7.56"/><circle class="cls-7" cx="59.14" cy="181.93" r="5.25"/><path class="cls-5" d="M92.83,220.05a5.63,5.63,0,1,1,5.63-5.63A5.63,5.63,0,0,1,92.83,220.05Zm0-10.51a4.88,4.88,0,1,0,4.88,4.88A4.88,4.88,0,0,0,92.83,209.54Z" transform="translate(-33.69 -32.49)"/><path class="cls-5" d="M137.37,182.71h-36a3.17,3.17,0,0,0-3.17,3.17v13a3.17,3.17,0,0,0,3.17,3.17h.42v3.11l3.6-3.11h32a3.17,3.17,0,0,0,3.17-3.17v-13A3.17,3.17,0,0,0,137.37,182.71Z" transform="translate(-33.69 -32.49)"/><g class="cls-8"><path class="cls-3" d="M137.37,182.71h-36a3.17,3.17,0,0,0-3.17,3.17v13a3.17,3.17,0,0,0,3.17,3.17h.42v3.11l3.6-3.11h32a3.17,3.17,0,0,0,3.17-3.17v-13A3.17,3.17,0,0,0,137.37,182.71Z" transform="translate(-33.69 -32.49)"/></g><path class="cls-3" d="M106.3,192.19a2.16,2.16,0,1,1,2.17,2.08A2.07,2.07,0,0,1,106.3,192.19Zm3.74,0a1.58,1.58,0,1,0-1.57,1.57A1.52,1.52,0,0,0,110,192.19Z" transform="translate(-33.69 -32.49)"/><path class="cls-3" d="M114.62,192.69a1.5,1.5,0,0,1-1.56,1.57,1.3,1.3,0,0,1-1.1-.52v.49h-.53v-4.32H112v1.7a1.3,1.3,0,0,1,1.07-.49A1.49,1.49,0,0,1,114.62,192.69Zm-.56,0a1,1,0,1,0-1,1.08A1,1,0,0,0,114.06,192.69Z" transform="translate(-33.69 -32.49)"/><path class="cls-3" d="M114.33,195.2l.18-.43a.66.66,0,0,0,.45.15c.3,0,.46-.19.46-.54v-3.23H116v3.22a.92.92,0,0,1-1,1A1.09,1.09,0,0,1,114.33,195.2Zm1-5a.36.36,0,0,1,.37-.36.36.36,0,0,1,.38.35.37.37,0,0,1-.38.37A.35.35,0,0,1,115.33,190.19Z" transform="translate(-33.69 -32.49)"/><path class="cls-3" d="M119.82,192.87h-2.5a1,1,0,0,0,1.12.9,1.16,1.16,0,0,0,.89-.37l.3.36a1.52,1.52,0,0,1-1.21.5,1.54,1.54,0,0,1-1.66-1.57,1.51,1.51,0,0,1,1.55-1.57,1.48,1.48,0,0,1,1.52,1.58A1,1,0,0,1,119.82,192.87Zm-2.5-.4h2a1,1,0,0,0-2,0Z" transform="translate(-33.69 -32.49)"/><path class="cls-3" d="M120.32,192.69a1.54,1.54,0,0,1,1.63-1.57,1.36,1.36,0,0,1,1.25.65l-.42.28a1,1,0,0,0-.84-.45,1.09,1.09,0,0,0,0,2.17,1,1,0,0,0,.84-.44l.42.27a1.37,1.37,0,0,1-1.25.66A1.55,1.55,0,0,1,120.32,192.69Z" transform="translate(-33.69 -32.49)"/><path class="cls-3" d="M125.7,194.05a1.1,1.1,0,0,1-.68.21.87.87,0,0,1-1-1v-1.7h-.53v-.45h.53v-.68h.55v.68h.89v.45h-.89v1.67a.46.46,0,0,0,.49.52.69.69,0,0,0,.43-.14Z" transform="translate(-33.69 -32.49)"/><path class="cls-3" d="M126.27,190.19a.38.38,0,1,1,.38.36A.36.36,0,0,1,126.27,190.19Zm.1,1h.56v3.08h-.56Z" transform="translate(-33.69 -32.49)"/><path class="cls-3" d="M130.72,191.15l-1.35,3.08h-.57l-1.35-3.08H128l1.06,2.47,1.08-2.47Z" transform="translate(-33.69 -32.49)"/><path class="cls-3" d="M133.93,192.87h-2.5a1,1,0,0,0,1.11.9,1.13,1.13,0,0,0,.89-.37l.31.36a1.52,1.52,0,0,1-1.21.5,1.54,1.54,0,0,1-1.66-1.57,1.51,1.51,0,0,1,1.55-1.57,1.48,1.48,0,0,1,1.52,1.58C133.94,192.75,133.93,192.82,133.93,192.87Zm-2.5-.4h2a1,1,0,0,0-2,0Z" transform="translate(-33.69 -32.49)"/><path class="cls-5" d="M125.48,98.15a7.48,7.48,0,1,0-13.94,3.78h0l0,0c.29.48.65.83,1,1.34l4.35,5.75a1.34,1.34,0,0,0,2.15,0l4.28-5.66a16.46,16.46,0,0,0,1.08-1.44l0,0h0A7.46,7.46,0,0,0,125.48,98.15ZM118,101.41a3.3,3.3,0,1,1,3.29-3.3A3.3,3.3,0,0,1,118,101.41Z" transform="translate(-33.69 -32.49)"/><path class="cls-5" d="M197.8,386.1H172.49a4.85,4.85,0,0,0-4.84,4.85v19.92a4.84,4.84,0,0,0,4.84,4.84h.65v4.75l5.5-4.75H197.8a4.84,4.84,0,0,0,4.84-4.84V391A4.84,4.84,0,0,0,197.8,386.1Z" transform="translate(-33.69 -32.49)"/><path class="cls-7" d="M174.91,395.24v10.22a.4.4,0,0,0,.4.4h21.41a.4.4,0,0,0,.4-.41l-.05-3.74a.4.4,0,0,0-.08-.23l-3.07-4.11a.38.38,0,0,0-.31-.16l-3.54,0a.4.4,0,0,1-.4-.39v-1.55a.4.4,0,0,0-.4-.4h-14A.4.4,0,0,0,174.91,395.24Z" transform="translate(-33.69 -32.49)"/><path class="cls-5" d="M190.67,398.08v3.27a.23.23,0,0,0,.23.23l4.73-.08a.23.23,0,0,0,.18-.36l-2.21-3.26a.22.22,0,0,0-.19-.1l-2.52.07A.22.22,0,0,0,190.67,398.08Z" transform="translate(-33.69 -32.49)"/><rect class="cls-7" x="140.78" y="373.68" width="23.07" height="0.71"/><path class="cls-5" d="M182.11,406.44a2.29,2.29,0,1,1-2.29-2.28A2.29,2.29,0,0,1,182.11,406.44Z" transform="translate(-33.69 -32.49)"/><path class="cls-7" d="M181.17,406.44a1.35,1.35,0,1,1-1.35-1.34A1.34,1.34,0,0,1,181.17,406.44Z" transform="translate(-33.69 -32.49)"/><path class="cls-5" d="M189.65,405.86c-.05,0-.1-2.47-.1-5.51s0-5.51.1-5.51.11,2.47.11,5.51S189.71,405.86,189.65,405.86Z" transform="translate(-33.69 -32.49)"/><path class="cls-5" d="M194.54,406.44a2.28,2.28,0,1,1-2.28-2.28A2.28,2.28,0,0,1,194.54,406.44Z" transform="translate(-33.69 -32.49)"/><path class="cls-7" d="M193.6,406.44a1.34,1.34,0,1,1-1.34-1.34A1.34,1.34,0,0,1,193.6,406.44Z" transform="translate(-33.69 -32.49)"/><path class="cls-5" d="M192.27,402.23c0,.06-.33.1-.73.1s-.73,0-.73-.1.32-.11.73-.11S192.27,402.17,192.27,402.23Z" transform="translate(-33.69 -32.49)"/></g><g id="Character"><path class="cls-9" d="M342,236.66s16.13,2.72,17.43,3.07,6.41,2.77,6.67,4.33a46.79,46.79,0,0,1,0,6.15s-.92.75-1.5-.75a15.31,15.31,0,0,1-.49-4.47l-2.86-1.1,1.56,2.77.26,6.49s-2-.18-2.39-1.73a16.07,16.07,0,0,1-.38-3.29l-2.08-1.76,1.56,2.11.52,4.67s-1.52.5-2-.54a16.44,16.44,0,0,1-.51-4.13l-5.88-2.06-3.9,2.17-7.27-4.11Z" transform="translate(-33.69 -32.49)"/><path class="cls-5" d="M285.56,196.79c.07.32,19.43,27,19.43,27l38.9,12.1-1.77,14.61-47.67-9.6-16.92-19.41Z" transform="translate(-33.69 -32.49)"/><g class="cls-10"><path d="M285.56,196.79c.07.32,19.43,27,19.43,27l38.9,12.1-1.77,14.61-47.67-9.6-16.92-19.41Z" transform="translate(-33.69 -32.49)"/></g><rect class="cls-2" x="101.57" y="200.99" width="85.58" height="15.49" rx="3.05"/><path class="cls-1" d="M217.8,249s.17,0,.5-.07a3.06,3.06,0,0,0,2.45-2.63c0-.94,0-2.06,0-3.3s0-2.63,0-4.14c0-.76,0-1.55,0-2.37a2.91,2.91,0,0,0-2.16-2.73,4.52,4.52,0,0,0-1.34-.09h-2.93l-6.35,0-69.61.08a2.76,2.76,0,0,0-2.06.91,2.87,2.87,0,0,0-.73,2.15v8.71a4.18,4.18,0,0,0,.1,1.14,2.82,2.82,0,0,0,2.39,2c.35,0,.79,0,1.18,0l18.48,0,31.29.06,21.1.08,5.74,0,1.49,0c.34,0,.51,0,.51,0s-.17,0-.51,0l-1.49,0-5.74,0-21.1.08-31.29.06-18.48,0c-.41,0-.78,0-1.23,0a3.46,3.46,0,0,1-1.25-.4,3.34,3.34,0,0,1-1.58-2,4.06,4.06,0,0,1-.12-1.28V236.8a3.4,3.4,0,0,1,.86-2.5,3.3,3.3,0,0,1,2.45-1.08l69.61.08h9.28a5.72,5.72,0,0,1,1.42.12,3.2,3.2,0,0,1,2.35,3c0,.82,0,1.62,0,2.38,0,1.51,0,2.89,0,4.14s0,2.35,0,3.32a3.12,3.12,0,0,1-1.21,2.09,3,3,0,0,1-1.38.57A1.78,1.78,0,0,1,217.8,249Z" transform="translate(-33.69 -32.49)"/><circle class="cls-1" cx="431.65" cy="406.07" r="40.89" transform="translate(-52.68 -11.32) rotate(-2.75)"/><path class="cls-1" d="M390.77,405.37s0,.07,0,.11a40.89,40.89,0,0,0,81.77,1.18v-.11Z" transform="translate(-33.69 -32.49)"/><path class="cls-7" d="M402.94,405.65a28.71,28.71,0,1,0,29.12-28.29A28.71,28.71,0,0,0,402.94,405.65Z" transform="translate(-33.69 -32.49)"/><path class="cls-11" d="M432.06,377.36a28.71,28.71,0,0,0-29.12,28.29l57.41.83A28.71,28.71,0,0,0,432.06,377.36Z" transform="translate(-33.69 -32.49)"/><path class="cls-1" d="M414.16,405.81a17.49,17.49,0,1,0,17.74-17.23A17.49,17.49,0,0,0,414.16,405.81Z" transform="translate(-33.69 -32.49)"/><path class="cls-5" d="M412.24,346.11s41.86-12.66,59.18,32.82l-87.61,27.14Z" transform="translate(-33.69 -32.49)"/><circle class="cls-1" cx="179.36" cy="406.07" r="40.89" transform="translate(-52.97 -23.42) rotate(-2.75)"/><path class="cls-1" d="M138.48,405.37a.41.41,0,0,1,0,.11,40.89,40.89,0,0,0,81.77,1.18v-.11Z" transform="translate(-33.69 -32.49)"/><path class="cls-7" d="M150.66,405.65a28.7,28.7,0,1,0,29.11-28.29A28.7,28.7,0,0,0,150.66,405.65Z" transform="translate(-33.69 -32.49)"/><path class="cls-11" d="M179.77,377.36a28.7,28.7,0,0,0-29.11,28.29l57.4.83A28.71,28.71,0,0,0,179.77,377.36Z" transform="translate(-33.69 -32.49)"/><path class="cls-1" d="M161.87,405.81a17.49,17.49,0,1,0,17.74-17.23A17.5,17.5,0,0,0,161.87,405.81Z" transform="translate(-33.69 -32.49)"/><path class="cls-12" d="M237.52,389.65c-.23.12-21.52-3.29-21.52-3.29h0a13,13,0,0,1-9.71,5.08c-9.2.45-18.19.85-26,1.2a13.18,13.18,0,0,0-12.58,13.73h0A13.2,13.2,0,0,0,180.4,419l45.28,1.78c7.44.29,17.34-4.23,22-10.06h0Z" transform="translate(-33.69 -32.49)"/><path class="cls-5" d="M126.28,371.56s-2-39.85,35.5-48.15V318.3H293v12.18s-19.26,23.19-13,42.44,8.25,21.22,8.25,21.22h74.67a51.13,51.13,0,0,0,9.43-28.29c.39-16.9-6.63-45.79-11.87-64.26-4.77-16.8-7.78-30.84-7.78-30.84l22.4-7.47s41.44,54.2,43.14,57.24,7.45,10.16,6.09,25.74-38.6,63.65-48.42,69.07-18.62,5.76-27.42,7.11c-7.65,1.18-64.17.4-79,.17a29,29,0,0,1-14.59-4.05c-4.42-2.68-7.75-7.12-11.42-14.4l-7.79-15.24Z" transform="translate(-33.69 -32.49)"/><path class="cls-12" d="M136.32,368.79l-16.53,25.88a4,4,0,0,0,4.92,5.92,19.34,19.34,0,0,0,5.54-3.76c7.56-7.19,21-26.13,21-26.13Z" transform="translate(-33.69 -32.49)"/><path class="cls-1" d="M254.81,373.45a1.73,1.73,0,0,1,.09-.38c.09-.27.2-.63.34-1.09a27.74,27.74,0,0,0,.86-4.27,30.14,30.14,0,0,0-2.56-15.62,32.68,32.68,0,0,0-6.08-9.15,40,40,0,0,0-10.05-7.66,50.62,50.62,0,0,0-13.1-4.88,69,69,0,0,0-15-1.55A113,113,0,0,0,194.29,330c-4.84.65-9.48,1.45-13.85,2.45a82.16,82.16,0,0,0-22.26,8.23,55.06,55.06,0,0,0-12.71,9.71c-1.32,1.36-2.27,2.49-2.9,3.26l-.71.89c-.16.2-.25.3-.26.29a33.61,33.61,0,0,1,3.72-4.58A54,54,0,0,1,158,340.32a81.36,81.36,0,0,1,22.33-8.38c4.39-1,9-1.83,13.89-2.49a113.9,113.9,0,0,1,15.12-1.12,68.81,68.81,0,0,1,15.08,1.57,51.31,51.31,0,0,1,13.23,5,40.33,40.33,0,0,1,10.12,7.78,32.92,32.92,0,0,1,6.11,9.3,30,30,0,0,1,2.42,15.8,26.5,26.5,0,0,1-1,4.27c-.17.46-.29.81-.39,1.08Z" transform="translate(-33.69 -32.49)"/><path class="cls-2" d="M247.25,364.5c-.06,0,.22-.63.49-1.77a12.94,12.94,0,0,0,.15-5,20.34,20.34,0,0,0-2.44-6.94,24.37,24.37,0,0,0-2.41-3.64,22.42,22.42,0,0,0-3.25-3.37,28.59,28.59,0,0,0-7.81-4.56,36.53,36.53,0,0,0-7.16-2,49.68,49.68,0,0,0-5-.57,14.69,14.69,0,0,1-1.84-.14,1.61,1.61,0,0,1,.48,0c.31,0,.77,0,1.37,0a37.4,37.4,0,0,1,5,.41,34.58,34.58,0,0,1,7.28,1.87,28.51,28.51,0,0,1,8,4.61,22.91,22.91,0,0,1,3.32,3.45,25.88,25.88,0,0,1,2.44,3.73,20.3,20.3,0,0,1,2.38,7.12,12.46,12.46,0,0,1-.32,5.06,6.49,6.49,0,0,1-.48,1.29A1.76,1.76,0,0,1,247.25,364.5Z" transform="translate(-33.69 -32.49)"/><g class="cls-8"><path d="M221.56,329.59a52.54,52.54,0,0,1,19.75,8,34.93,34.93,0,0,1,13.24,16.44c2.61,6.74,2.22,15.67-.53,21.25l9.27.77c3.12-10.41-.28-23.18-7.78-31.33a46,46,0,0,0-33.95-15.17" transform="translate(-33.69 -32.49)"/></g><rect class="cls-12" x="95.24" y="215.7" width="98.25" height="70.11" rx="8.58"/><path class="cls-1" d="M227.18,263.83c0,.15-22.09.26-49.33.26s-49.34-.11-49.34-.26,22.09-.26,49.34-.26S227.18,263.69,227.18,263.83Z" transform="translate(-33.69 -32.49)"/><path class="cls-1" d="M292.9,322.94c0,.14-29.48.26-65.85.26s-65.85-.12-65.85-.26,29.48-.26,65.85-.26S292.9,322.8,292.9,322.94Z" transform="translate(-33.69 -32.49)"/><path class="cls-12" d="M293,318.3a11.37,11.37,0,0,0,2.37-5.88c.2-3.29-1.3-7.41-4.84-7.41H245.2a13.3,13.3,0,0,0-13.3,13.29H293Z" transform="translate(-33.69 -32.49)"/><path class="cls-5" d="M352.7,270.75l-7.88-16.43a10.06,10.06,0,0,1,4-12.85l23.56-14.05a7.9,7.9,0,0,1,4.07-1.13h5.09l2,33.21-7.85,3,5,8.08Z" transform="translate(-33.69 -32.49)"/><path class="cls-4" d="M381.6,227.5s8.06,1.85,9.07,14.27-7.11,16.3-7.11,16.3Z" transform="translate(-33.69 -32.49)"/><path class="cls-1" d="M355.44,247.88s-16.29,7.72-18.28,9c-1.38.88-2.56,2.42-1.48,5.13,1.84,4.61,9.46.27,9.46.27l15.17-7.58s5.83-2.75,3.68-6.2C361.58,244.64,355.44,247.88,355.44,247.88Z" transform="translate(-33.69 -32.49)"/><path class="cls-9" d="M332.39,245.07s15.3,2.62,16.6,3,6.41,2.77,6.67,4.33a46.79,46.79,0,0,1,0,6.15s-.93.75-1.5-.75a15.53,15.53,0,0,1-.5-4.48l-2.85-1.1,1.56,2.77.26,6.5s-2-.18-2.39-1.74a15.18,15.18,0,0,1-.38-3.28l-2.08-1.77,1.55,2.11.53,4.68s-1.52.49-2-.55a16.06,16.06,0,0,1-.52-4.13l-5.88-2-3.89,2.17-6.12-3.36Z" transform="translate(-33.69 -32.49)"/><path class="cls-1" d="M356.22,223.75c0,6.2-2.85,11.22-6.36,11.22s-6.36-5-6.36-11.22,2.85-11.22,6.36-11.22S356.22,217.56,356.22,223.75Z" transform="translate(-33.69 -32.49)"/><path class="cls-1" d="M350.91,231.46l3.49,12.12A3.14,3.14,0,0,0,356,240c-.88-4.15-1.37-7.1-2.34-10.74-.11-.36-2.78,2.2-2.78,2.2" transform="translate(-33.69 -32.49)"/><g class="cls-8"><path d="M281.72,378.1c-.34-1-.69-2-1-3.07s-.68-2-.94-3a32.21,32.21,0,0,1-.88-4.57c-5.89,24,3.11,40.93,18.58,42.12,22.59,1.74,50.14,3,61.28.08,20.31-5.33,27.76-22.27,29.54-25.06s17.94-32.32,8-60.75-27.15-58.62-27.15-58.62l-16.45,5.48s3,14,7.78,30.84c5.24,18.47,12.26,47.36,11.87,64.26a51.13,51.13,0,0,1-9.43,28.29H288.25s-1.6-1.6-6.53-16" transform="translate(-33.69 -32.49)"/></g><path class="cls-5" d="M123.29,365.31l.53-5.7,136.28,15.7A13.46,13.46,0,0,1,271.79,391l-.62,3.45L130.13,374A8,8,0,0,1,123.29,365.31Z" transform="translate(-33.69 -32.49)"/><g class="cls-6"><path d="M123.29,365.31l.53-5.7,136.28,15.7A13.46,13.46,0,0,1,271.79,391l-.62,3.45L130.13,374A8,8,0,0,1,123.29,365.31Z" transform="translate(-33.69 -32.49)"/></g><g class="cls-13"><path d="M388.27,403.43s30-33,36.19-58.94a58.33,58.33,0,0,1,9.29.69S416,393.41,388.27,403.43Z" transform="translate(-33.69 -32.49)"/></g><path class="cls-1" d="M424,332.87a4.81,4.81,0,0,1,.16.83c.08.55.25,1.36.35,2.41a37.35,37.35,0,0,1-.24,9,45.74,45.74,0,0,1-4,12.68,146,146,0,0,1-7.95,14.2,189.6,189.6,0,0,1-17.56,23.74c-2.44,2.89-4.46,5.19-5.86,6.77l-1.62,1.81a7,7,0,0,1-.59.61,4.46,4.46,0,0,1,.51-.67l1.55-1.88,5.73-6.87A205,205,0,0,0,412,371.68a150.11,150.11,0,0,0,7.95-14.13,46.41,46.41,0,0,0,4-12.54,38.76,38.76,0,0,0,.39-8.88c-.07-1.05-.2-1.86-.24-2.42A4.42,4.42,0,0,1,424,332.87Z" transform="translate(-33.69 -32.49)"/><path class="cls-1" d="M372.16,403.19a39.59,39.59,0,0,1-4.8-4.34,39.08,39.08,0,0,1-4.44-4.71,40.65,40.65,0,0,1,4.8,4.34A41.15,41.15,0,0,1,372.16,403.19Z" transform="translate(-33.69 -32.49)"/><path class="cls-1" d="M283.13,402.18a13.72,13.72,0,0,1,2.2-4.27,14.07,14.07,0,0,1,3.15-3.63c.11.11-1.25,1.75-2.72,3.92S283.26,402.24,283.13,402.18Z" transform="translate(-33.69 -32.49)"/><path class="cls-1" d="M225.48,421.23a20,20,0,0,0,4.1-5.2,18.09,18.09,0,0,0,2-6.84,15.86,15.86,0,0,0-7.18-15.05,17.87,17.87,0,0,0-6.58-2.75,20.14,20.14,0,0,0-6.61-.09,1.93,1.93,0,0,1,.44-.13,10.9,10.9,0,0,1,1.32-.26,15.69,15.69,0,0,1,4.92.12,17.89,17.89,0,0,1,6.78,2.71,16.11,16.11,0,0,1,7.39,15.49,17.83,17.83,0,0,1-2.16,7,15.89,15.89,0,0,1-3,3.9,12.8,12.8,0,0,1-1,.86A1.87,1.87,0,0,1,225.48,421.23Z" transform="translate(-33.69 -32.49)"/><path class="cls-1" d="M175.72,410.78a23,23,0,0,1-.49-4.8,22.71,22.71,0,0,1,0-4.84,23.26,23.26,0,0,1,.49,4.81A22.59,22.59,0,0,1,175.72,410.78Z" transform="translate(-33.69 -32.49)"/><path class="cls-1" d="M179.33,410.79a46.3,46.3,0,0,1-1.23-9.66,23.91,23.91,0,0,1,.88,4.8A22.07,22.07,0,0,1,179.33,410.79Z" transform="translate(-33.69 -32.49)"/><path class="cls-1" d="M235.54,318.3c0,.14-16.57.26-37,.26s-37-.12-37-.26,16.57-.26,37-.26S235.54,318.16,235.54,318.3Z" transform="translate(-33.69 -32.49)"/><path class="cls-1" d="M181.88,318.25c-.14,0-.26-19-.26-42.38s.12-42.39.26-42.39.26,19,.26,42.39S182,318.25,181.88,318.25Z" transform="translate(-33.69 -32.49)"/><path class="cls-1" d="M171.73,318.18c-.14,0,.57-19,1.59-42.36s2-42.35,2.1-42.34-.56,19-1.58,42.36S171.88,318.19,171.73,318.18Z" transform="translate(-33.69 -32.49)"/><path class="cls-12" d="M148.78,433.83a3.46,3.46,0,0,1-.44-.44c-.26-.31-.69-.74-1.16-1.35a38.38,38.38,0,0,1-3.69-5.42,41.5,41.5,0,0,1,.17-41.48,39.37,39.37,0,0,1,3.73-5.39c.48-.61.91-1,1.18-1.34s.43-.45.44-.43a2.52,2.52,0,0,1-.36.5c-.24.33-.64.77-1.1,1.4a43.51,43.51,0,0,0-3.57,5.44,42.15,42.15,0,0,0-.17,41.12,42.57,42.57,0,0,0,3.53,5.47c.45.63.84,1.08,1.08,1.41S148.8,433.81,148.78,433.83Z" transform="translate(-33.69 -32.49)"/><path class="cls-12" d="M292,357.64l-.31.58-6,11.34-8.44,8.12,16.87,22.46,14.06-2.33s-1.58-3.21-8.64-3.83l-2.69-13.42,9.91-15.36" transform="translate(-33.69 -32.49)"/><polygon class="cls-11" points="243.58 345.19 260.45 367.65 274.5 365.32 272.57 363.47 261.03 364.74 245.38 343.46 243.58 345.19"/><path class="cls-1" d="M298.45,387.81c-.08.16-1-.17-2.05.05s-1.81.79-1.94.67.5-1.06,1.83-1.29S298.56,387.68,298.45,387.81Z" transform="translate(-33.69 -32.49)"/><path class="cls-1" d="M297.66,384.5c-.12.12-.89-.6-2-.63s-2,.62-2.08.49.06-.31.42-.59a2.67,2.67,0,0,1,3.32.1C297.62,384.18,297.72,384.45,297.66,384.5Z" transform="translate(-33.69 -32.49)"/><path class="cls-1" d="M297,380.18c-.14.11-.76-.62-1.79-.8s-1.86.29-2,.14.1-.29.46-.5a2.47,2.47,0,0,1,3,.54C297.05,379.88,297.11,380.14,297,380.18Z" transform="translate(-33.69 -32.49)"/><path class="cls-1" d="M300.25,376.23c-.16.08-.69-.65-1.66-1.07s-1.85-.36-1.89-.53,1-.58,2.15,0S300.41,376.18,300.25,376.23Z" transform="translate(-33.69 -32.49)"/><path class="cls-1" d="M301.6,373a6.4,6.4,0,0,1-1.47-1.27l-1.47-1.49a4.6,4.6,0,0,1-.84-1,1.17,1.17,0,0,1-.06-.87.88.88,0,0,1,.78-.58,2.55,2.55,0,0,1,1.42.46,5,5,0,0,1,1,.83,4.75,4.75,0,0,1,1.07,1.91,2.57,2.57,0,0,1,0,2,15,15,0,0,0-.42-1.83,5,5,0,0,0-1.07-1.65,4.58,4.58,0,0,0-.91-.7,2.26,2.26,0,0,0-1.06-.37.26.26,0,0,0-.24.17.54.54,0,0,0,0,.41,4.42,4.42,0,0,0,.7.88l1.37,1.59A6,6,0,0,1,301.6,373Z" transform="translate(-33.69 -32.49)"/><path class="cls-1" d="M302.17,373.37c-.06,0-.13-.74.49-1.71a3.55,3.55,0,0,1,4-1.45.68.68,0,0,1,.3.47.77.77,0,0,1-.1.47,2,2,0,0,1-.43.53,6.12,6.12,0,0,1-.9.73,6.23,6.23,0,0,1-1.76.82,2.89,2.89,0,0,1-1.76.13c0-.1.66-.16,1.62-.55a7,7,0,0,0,1.57-.87,6.36,6.36,0,0,0,.8-.7,1.59,1.59,0,0,0,.31-.37c0-.14,0-.1,0-.13a1.23,1.23,0,0,0-.44-.09,3.11,3.11,0,0,0-.53,0,3.5,3.5,0,0,0-1,.24,3.43,3.43,0,0,0-1.39,1A12.41,12.41,0,0,0,302.17,373.37Z" transform="translate(-33.69 -32.49)"/><path class="cls-11" d="M288.41,375.39a1.69,1.69,0,1,1-1.94-1.39A1.69,1.69,0,0,1,288.41,375.39Z" transform="translate(-33.69 -32.49)"/><path class="cls-12" d="M343.24,368.44l4.51,29.28,36.47-5.42c-.73-3.45-20.64-7.64-20.64-7.64l-2.12-18.88Z" transform="translate(-33.69 -32.49)"/><path class="cls-11" d="M352.07,384.76a1.5,1.5,0,0,0-.78,1.85,1.46,1.46,0,0,0,1.83.79,1.6,1.6,0,0,0,.82-2,1.51,1.51,0,0,0-2-.61" transform="translate(-33.69 -32.49)"/><path class="cls-11" d="M347.75,397.72l-.33-3,35.08-4.09s1.73.47,1.72,1.64Z" transform="translate(-33.69 -32.49)"/><path class="cls-1" d="M364.14,384.39c0,.18-.85.39-1.64,1.09s-1.15,1.52-1.32,1.48-.07-1.12.91-1.95S364.16,384.22,364.14,384.39Z" transform="translate(-33.69 -32.49)"/><path class="cls-1" d="M368.2,385.4c.07.17-.66.58-1.15,1.43s-.55,1.66-.73,1.68-.44-1,.2-2S368.18,385.23,368.2,385.4Z" transform="translate(-33.69 -32.49)"/><path class="cls-1" d="M371.06,389.65c-.16.07-.54-.79-.23-1.83s1.09-1.56,1.19-1.42-.34.74-.59,1.6S371.23,389.61,371.06,389.65Z" transform="translate(-33.69 -32.49)"/><path class="cls-1" d="M363.18,380.14c-.05.17-.9.05-1.9.26s-1.73.66-1.84.52.54-.89,1.72-1.13S363.25,380,363.18,380.14Z" transform="translate(-33.69 -32.49)"/><path class="cls-1" d="M361.67,375.94a3.43,3.43,0,0,1-1.83.26,8.22,8.22,0,0,1-2-.3,7.65,7.65,0,0,1-1.13-.4,2.09,2.09,0,0,1-.62-.35.78.78,0,0,1-.22-.93,1,1,0,0,1,.72-.53,2.73,2.73,0,0,1,.7,0,5.58,5.58,0,0,1,1.19.22,6.63,6.63,0,0,1,1.85.85c1,.66,1.35,1.28,1.29,1.33s-.56-.43-1.52-.95a7.12,7.12,0,0,0-1.77-.67,5.4,5.4,0,0,0-1.09-.17c-.4-.05-.73,0-.81.19s0,.09.07.2a1.76,1.76,0,0,0,.46.25,9.73,9.73,0,0,0,1,.41,10.65,10.65,0,0,0,1.87.41A12.63,12.63,0,0,1,361.67,375.94Z" transform="translate(-33.69 -32.49)"/><path class="cls-1" d="M361.48,376.23c-.06,0-.51-.55-.75-1.69a6.21,6.21,0,0,1,0-2,5.38,5.38,0,0,1,.3-1.18,1.52,1.52,0,0,1,1-1.09.87.87,0,0,1,.84.39,2.29,2.29,0,0,1,.29.65,4.07,4.07,0,0,1,.18,1.23,4.25,4.25,0,0,1-.5,2c-.57,1.05-1.28,1.37-1.3,1.31s.49-.51.9-1.5a4.17,4.17,0,0,0,.33-1.8,4.3,4.3,0,0,0-.19-1.05c-.12-.38-.31-.67-.45-.61s-.45.36-.55.69a5.46,5.46,0,0,0-.3,1.06,6.42,6.42,0,0,0-.09,1.87C361.28,375.55,361.57,376.19,361.48,376.23Z" transform="translate(-33.69 -32.49)"/><polyline class="cls-1" points="280.86 267.17 249.59 335.31 270.24 347.7 313.48 265.72"/><path class="cls-1" d="M366.12,381.75l-22.44,3.6-13.43-80.14L263.9,310a16.19,16.19,0,0,1-5.23-.5c-18.63-5.11-16.11-28.87-14.31-32.68l91.81-2.63A19.54,19.54,0,0,1,356.09,291Z" transform="translate(-33.69 -32.49)"/><path class="cls-5" d="M243.45,280.61l.33-33.88s-4.37-22-5.67-30.69c-2-13.44-4.76-19.83,17.27-29.38l4.81-1.86,7.45.1c8.89.67,18.25,8.7,18.46,14l8.57,76.35Z" transform="translate(-33.69 -32.49)"/><path class="cls-5" d="M244.83,194.53s-6.22,13.38-5,25.57L263,242.34c5.2,5.78,11.69,8.24,20,8.74L331,256.32l1.33-12.54-45.6-12.92c-1.82-.34-2.72-2.23-4.11-3.45l-37.75-32.88" transform="translate(-33.69 -32.49)"/><path class="cls-1" d="M241.08,198.39a3.28,3.28,0,0,1,.92-.62,11.43,11.43,0,0,1,3.1-.87,16,16,0,0,1,5.18,0,5.27,5.27,0,0,1,1.52.52,13.65,13.65,0,0,1,1.41,1,33.64,33.64,0,0,1,2.8,2.44c1.93,1.79,3.74,4.06,5.87,6.36s4.46,4.77,7,7.36,5.26,5.3,8.19,8.1c1.47,1.4,3,2.82,4.58,4.21.81.66,1.61,1.44,2.38,2.17a5.74,5.74,0,0,0,2.7,1.58h0l45.61,12.9.21.06,0,.22c-.09.89-.19,1.84-.3,2.81-.35,3.33-.7,6.63-1,9.73l0,.26-.26,0-20.29-2.23-9.6-1-9.19-.93c-3-.33-5.89-.67-8.7-1.08a39.07,39.07,0,0,1-8-1.87,29.75,29.75,0,0,1-6.79-3.65c-2-1.41-3.88-2.88-5.61-4.33-6.85-5.84-11.88-11.07-15.37-14.63-1.73-1.79-3.06-3.2-4-4.16l-1-1.1c-.22-.25-.33-.39-.33-.39s.13.11.37.35l1,1.07,4,4.1c3.53,3.51,8.6,8.7,15.46,14.49,1.73,1.43,3.58,2.89,5.6,4.28a29.61,29.61,0,0,0,6.71,3.58,39.13,39.13,0,0,0,8,1.82c2.81.4,5.71.74,8.69,1.06l9.19.9,9.6,1.05,20.3,2.21-.29.23c.33-3.1.68-6.4,1-9.74.1-1,.2-1.92.29-2.81l.19.28-45.6-12.95h0a6.08,6.08,0,0,1-2.92-1.69c-.81-.77-1.54-1.49-2.37-2.18-1.61-1.4-3.12-2.83-4.59-4.23-2.92-2.81-5.64-5.54-8.17-8.14s-4.85-5.08-7-7.41-3.92-4.59-5.82-6.38a33.31,33.31,0,0,0-2.76-2.45,14.24,14.24,0,0,0-1.37-1,5,5,0,0,0-1.46-.51,15.51,15.51,0,0,0-5.11-.08,11.55,11.55,0,0,0-3.09.79A7,7,0,0,0,241.08,198.39Z" transform="translate(-33.69 -32.49)"/><path class="cls-9" d="M253.05,155.41l2.33,33A10.27,10.27,0,0,0,265.63,198h0A10.27,10.27,0,0,0,275.89,187c-.2-3.14-.39-5.71-.39-5.71s8-1.24,8.08-9.23c.06-4.61-.74-15.07-1.42-23.09a10.46,10.46,0,0,0-10.43-9.57h-4.82A14.76,14.76,0,0,0,253.05,155.41Z" transform="translate(-33.69 -32.49)"/><path class="cls-14" d="M275.51,181.17a18.57,18.57,0,0,1-10.4-2.95s2.46,5.74,10.42,5Z" transform="translate(-33.69 -32.49)"/><path class="cls-1" d="M280.37,159.23a1.13,1.13,0,0,1-1.1,1.15,1.08,1.08,0,0,1-1.18-1,1.15,1.15,0,0,1,1.1-1.16A1.1,1.1,0,0,1,280.37,159.23Z" transform="translate(-33.69 -32.49)"/><path class="cls-1" d="M280.79,157c-.14.15-1-.49-2.23-.49s-2.13.62-2.26.47.08-.34.47-.62a3.16,3.16,0,0,1,1.81-.56,3,3,0,0,1,1.77.58C280.73,156.64,280.86,156.91,280.79,157Z" transform="translate(-33.69 -32.49)"/><path class="cls-1" d="M268.85,159.23a1.13,1.13,0,0,1-1.1,1.15,1.09,1.09,0,0,1-1.18-1,1.15,1.15,0,0,1,1.1-1.16A1.1,1.1,0,0,1,268.85,159.23Z" transform="translate(-33.69 -32.49)"/><path class="cls-1" d="M268.73,157.21c-.14.15-1-.49-2.23-.49s-2.13.62-2.26.47.07-.34.47-.62a3.12,3.12,0,0,1,3.58,0C268.67,156.87,268.8,157.14,268.73,157.21Z" transform="translate(-33.69 -32.49)"/><path class="cls-1" d="M273.18,166.31a8.33,8.33,0,0,1,2-.36c.32,0,.61-.1.67-.31a1.65,1.65,0,0,0-.21-.93c-.3-.76-.61-1.55-.93-2.38a40.28,40.28,0,0,1-2.08-6.24,41.13,41.13,0,0,1,2.58,6l.88,2.4a1.81,1.81,0,0,1,.17,1.23.79.79,0,0,1-.52.46,2.15,2.15,0,0,1-.53.07A8.07,8.07,0,0,1,273.18,166.31Z" transform="translate(-33.69 -32.49)"/><path class="cls-1" d="M269.57,167.16c.2,0,.2,1.32,1.34,2.26s2.56.8,2.57,1-.32.25-.92.27a3.32,3.32,0,0,1-2.14-.75,2.93,2.93,0,0,1-1-1.9C269.33,167.48,269.48,167.15,269.57,167.16Z" transform="translate(-33.69 -32.49)"/><path class="cls-1" d="M269.05,152.4c-.13.33-1.35.18-2.79.35s-2.6.57-2.79.27.11-.46.58-.78a4.65,4.65,0,0,1,2.07-.73,4.75,4.75,0,0,1,2.18.26C268.83,152,269.1,152.24,269.05,152.4Z" transform="translate(-33.69 -32.49)"/><path class="cls-1" d="M280.34,153.43c-.22.28-1.06,0-2.08,0s-1.88.18-2.08-.11.05-.42.43-.68a3,3,0,0,1,3.34.1C280.31,153,280.43,153.29,280.34,153.43Z" transform="translate(-33.69 -32.49)"/><path class="cls-9" d="M255.74,161.41c-.14-.06-5.49-1.63-5.31,3.83s5.62,4.16,5.62,4S255.74,161.41,255.74,161.41Z" transform="translate(-33.69 -32.49)"/><path class="cls-14" d="M254.32,167.23s-.1.07-.25.15a1,1,0,0,1-.71,0,2.34,2.34,0,0,1-1.16-2.07,3.16,3.16,0,0,1,.22-1.37,1.15,1.15,0,0,1,.69-.76.49.49,0,0,1,.57.25c.08.15,0,.26.08.27s.11-.1.06-.32a.57.57,0,0,0-.22-.34.73.73,0,0,0-.53-.12,1.33,1.33,0,0,0-1,.88,3.3,3.3,0,0,0-.28,1.53,2.47,2.47,0,0,0,1.46,2.31,1,1,0,0,0,.87-.17C254.31,167.36,254.34,167.24,254.32,167.23Z" transform="translate(-33.69 -32.49)"/><path class="cls-1" d="M252.7,161.22a2.88,2.88,0,0,1,2.63,1.35c.35.78.43,1.66.79,2.44a1.93,1.93,0,0,0,2,1.29,1.68,1.68,0,0,0,1.14-1.25,4.73,4.73,0,0,0,0-1.76c-.32-2.55-.86-5.07-1-7.64a13,13,0,0,1,1.61-7.42,7.16,7.16,0,0,1,6.38-3.59c1.7.14,3.25,1,4.94,1.26a6.68,6.68,0,0,0,5.54-1.85,11.11,11.11,0,0,1,1-.75,3.09,3.09,0,0,0-.57-1.68c-3.34-3.1-9.37-4-13.78-2.85A15.92,15.92,0,0,0,253,147.14c-1.9,4.14-1.33,9.89-.29,14.08" transform="translate(-33.69 -32.49)"/><path class="cls-5" d="M282.25,147.74s-20.94-6.74-30,11.38a33.78,33.78,0,0,1-1.36-7c0-1.62,1-11.29,10.92-14.33C261.81,137.83,276.8,132.11,282.25,147.74Z" transform="translate(-33.69 -32.49)"/><path class="cls-1" d="M264.26,148.19a4.55,4.55,0,0,0,7.25.66,2.74,2.74,0,0,0,2.63,1.69,2.78,2.78,0,0,0,2.45-1.95,6.17,6.17,0,0,0,2,1.49,2.08,2.08,0,0,0,2.33-.49,2,2,0,0,0-.14-2.4,5,5,0,0,0-2.13-1.43,15.35,15.35,0,0,0-7.9-1.2,10.67,10.67,0,0,0-6.93,3.77" transform="translate(-33.69 -32.49)"/><g class="cls-8"><path d="M282.25,147.74a9.73,9.73,0,0,0-6.66-3c-6.18-.27-17.74,3.2-23.34,14.4a33.78,33.78,0,0,1-1.36-7c0-1.62,1-11.29,10.92-14.33C261.81,137.83,276.8,132.11,282.25,147.74Z" transform="translate(-33.69 -32.49)"/></g><path class="cls-5" d="M253.12,157a39.36,39.36,0,0,1,12.21-11.68c4.81-3,12.77-6,18.26-7.44a11.86,11.86,0,0,1,5-.53,4.55,4.55,0,0,1,3.74,3.06c.52,2.07-3.15,5.26-4.87,6.51a56.24,56.24,0,0,1-5.25,3.1s.05-3.84-6.09-4.63C267.81,144.32,253.12,157,253.12,157Z" transform="translate(-33.69 -32.49)"/><g class="cls-13"><path d="M245.75,225.05c2.16,5.21,4.34,11.64,7.47,16.33s7.31,8.86,12.52,11c6.53,2.74,14.26,3.18,20.76.38.53-.23,1.57-.52,1.47-1.09,0,0-2.15-.25-2.81-.36-13.14-2.21-14.57-3.83-20.85-8.8-3.92-3.1-12.61-12.47-18.56-17.49" transform="translate(-33.69 -32.49)"/></g><path class="cls-1" d="M287.51,263a5.49,5.49,0,0,1-.55,1.22,15.25,15.25,0,0,1-2.12,3,22.9,22.9,0,0,1-10.18,6.23,46.53,46.53,0,0,1-11.84,1.77c-1.53.06-2.77.07-3.62.07a7.73,7.73,0,0,1-1.33-.06,6,6,0,0,1,1.32-.15l3.61-.23a51.73,51.73,0,0,0,11.71-1.9,23.74,23.74,0,0,0,10.06-6A25.64,25.64,0,0,0,287.51,263Z" transform="translate(-33.69 -32.49)"/><path class="cls-12" d="M344.08,387.74a1.53,1.53,0,0,1-.08-.31c0-.23-.1-.54-.18-.92-.15-.84-.37-2-.64-3.54-.54-3.12-1.32-7.57-2.27-13.06-1.88-11.06-4.46-26.29-7.31-43.11-1.26-7.62-2.48-14.9-3.59-21.55l.26.21-28.71,2.09-8.24.56-2.19.13-.57,0h-.19s.06,0,.19,0l.56-.07,2.19-.2,8.23-.7L330.23,305l.22,0,0,.22c1.12,6.65,2.35,13.93,3.63,21.54,2.79,16.83,5.31,32.07,7.15,43.14.89,5.5,1.61,10,2.11,13.08.23,1.52.42,2.72.55,3.57.05.38.09.69.13.92A1.54,1.54,0,0,1,344.08,387.74Z" transform="translate(-33.69 -32.49)"/><path class="cls-12" d="M337,298.07c.09.12-1.65,1.62-3.64,3.64s-3.46,3.79-3.58,3.69a24.11,24.11,0,0,1,7.22-7.33Z" transform="translate(-33.69 -32.49)"/><path class="cls-1" d="M275.69,187.7s.06.11.12.33a4.69,4.69,0,0,1,.19,1,8.06,8.06,0,0,1-.48,3.64,9.32,9.32,0,0,1-3.3,4.32,10,10,0,0,1-6.41,1.72,11.58,11.58,0,0,1-6.23-2.34,13.5,13.5,0,0,1-3.54-4.13,14.28,14.28,0,0,1-1.36-3.4c-.1-.42-.17-.75-.2-1s0-.35,0-.35a22.43,22.43,0,0,0,1.9,4.54,13.57,13.57,0,0,0,3.51,3.93,11.26,11.26,0,0,0,6,2.2,9.69,9.69,0,0,0,6.11-1.59,9.22,9.22,0,0,0,3.22-4.06,8.49,8.49,0,0,0,.63-3.49C275.77,188.18,275.64,187.72,275.69,187.7Z" transform="translate(-33.69 -32.49)"/><path class="cls-15" d="M280.83,312.62" transform="translate(-33.69 -32.49)"/><path class="cls-1" d="M289.8,231.37a4,4,0,0,1-.21-1c-.12-.79-.25-1.75-.41-2.86-.33-2.55-.76-5.83-1.23-9.46s-.81-7-1-9.48c-.11-1.21-.19-2.2-.23-2.88a3.93,3.93,0,0,1,0-1.06,4.23,4.23,0,0,1,.21,1c.11.79.24,1.74.39,2.86.32,2.55.73,5.83,1.18,9.46s.85,7,1.08,9.47c.11,1.22.19,2.2.24,2.89A4.54,4.54,0,0,1,289.8,231.37Z" transform="translate(-33.69 -32.49)"/></g></svg>