<svg id="Capa_1" data-name="Capa 1" xmlns="http://www.w3.org/2000/svg" viewBox="0 0 1441.97 406.44"><defs><style>.cls-1{fill:#e9505b;}.cls-2{fill:#1d1d1b;}</style></defs><path class="cls-1" d="M94.18,230.43a5.26,5.26,0,0,0-5.25-5.25H44.8a5.25,5.25,0,0,0,0,10.5H88.93A5.26,5.26,0,0,0,94.18,230.43Z" transform="translate(-39.55 -32.2)"/><path class="cls-1" d="M608,347.44a68.59,68.59,0,0,0-68.59-68.59c-1.62,0-3.22.08-4.8.19l-35-75.86a19.75,19.75,0,0,0-3.77-5.46A11.22,11.22,0,0,0,486,191.8h-2.59a19.9,19.9,0,0,0-3.62,0h-19l-1.73-13.19a15.49,15.49,0,0,0-15.43-15.48H398.27c9.47-13.87,17.47-24.52,20.34-25.52.27,0,.53,0,.8,0h0a52.89,52.89,0,0,0,51.06-39.84h15.18a42.89,42.89,0,0,0-15.44-26.76,52.88,52.88,0,0,0-50.8-38.85h0A52.64,52.64,0,0,0,385.27,125c-68,1.24-105.86,30.49-116.88,40.54a15.51,15.51,0,0,0-7.25,13.09v1.11a15.5,15.5,0,0,0,15.43,15.48l15.55.06a311.74,311.74,0,0,0-33.55,53.07h-19a11,11,0,0,0,1.14-3.18l19.17-110.67c1-5.74-3.21-10.47-9.35-10.51l-104.89-.68c-6.14,0-12,4.63-13,10.37L113.49,244.33a9.21,9.21,0,0,0,.17,4H83.75a7,7,0,0,0-7,6.95V256a7,7,0,0,0,7,7h64.92l.3,0H450.26C401.83,224,353.4,233.34,353.4,233.34s10.74-17.62,23.58-37.76l21.47.08a11.15,11.15,0,0,0,8.39,18.56H462a19.28,19.28,0,0,0,1.62,5.54L486,268.25l-8.62,8.63H401a4.7,4.7,0,1,0,0,9.39h70.25a3.88,3.88,0,0,1,2.94,3.75v.48a3.83,3.83,0,0,1-1.29,2.86h-130a6.6,6.6,0,1,0,0,13.19H447.73l-.4.4h.51a4.44,4.44,0,0,1,4.42,4.43v.51a4.44,4.44,0,0,1-4.42,4.43h-3.67a6.41,6.41,0,0,0-1.46-.18H305.53a6.6,6.6,0,0,0,0,13.19H435.34a6.47,6.47,0,0,1,2.57,5.14v.07a6.49,6.49,0,0,1-6.48,6.48l-154.76-1.4a7.49,7.49,0,0,0-7.47,7.47v2a7.49,7.49,0,0,0,7.47,7.47H412.1a7.45,7.45,0,0,0,2.41-.43,4.39,4.39,0,0,1,3.16,4.2v.53a4.42,4.42,0,0,1-2.13,3.75H257.17a70.7,70.7,0,0,1-3.42,12.85A80.05,80.05,0,0,1,249,388h59.89l-.33.33H448c-5.09,27.78,12.17,49.48,42.19,50.29,33.61.89,70.47-24.73,82.34-57.23,4.06-11.13,4.66-21.62,2.35-30.65h32.9C607.87,349.64,608,348.56,608,347.44Zm-75.31,32.89c-4.08,11.19-16.78,20-28.38,19.72s-17.66-9.65-13.59-20.86,16.81-20,28.4-19.72S536.78,369.12,532.68,380.33Z" transform="translate(-39.55 -32.2)"/><path class="cls-1" d="M540.72,257.75a18.93,18.93,0,0,0,3.3-.34V215.88a18.93,18.93,0,0,0-3.3-.34,19.85,19.85,0,0,0-19.79,19.79V238A19.85,19.85,0,0,0,540.72,257.75Z" transform="translate(-39.55 -32.2)"/><path class="cls-1" d="M318.13,306.55a6.45,6.45,0,0,0,6.44-6.43h0a6.46,6.46,0,0,0-6.44-6.43h-48a6.45,6.45,0,0,0-6.43,6.43h0a6.44,6.44,0,0,0,6.43,6.43Z" transform="translate(-39.55 -32.2)"/><path class="cls-1" d="M370.57,283.31a4,4,0,0,0,0-7.92H350.29a4,4,0,0,0,0,7.92Z" transform="translate(-39.55 -32.2)"/><path class="cls-1" d="M84.34,201h20.28a4,4,0,1,0,0-7.91H84.34a4,4,0,1,0,0,7.91Z" transform="translate(-39.55 -32.2)"/><path class="cls-1" d="M126.54,351.12a4,4,0,0,0-4-4H102.3a4,4,0,0,0,0,7.92h20.28A4,4,0,0,0,126.54,351.12Z" transform="translate(-39.55 -32.2)"/><path class="cls-1" d="M277.75,129.76H323.1a4.92,4.92,0,0,0,0-9.84H277.75a4.92,4.92,0,0,0,0,9.84Z" transform="translate(-39.55 -32.2)"/><path class="cls-1" d="M242.46,305.56a4.95,4.95,0,0,0,0-9.89H198.93a4.95,4.95,0,1,0,0,9.89Z" transform="translate(-39.55 -32.2)"/><path class="cls-1" d="M137.47,332.56a5,5,0,0,0-4.95-4.95H89a5,5,0,0,0,0,9.9h43.53A5,5,0,0,0,137.47,332.56Z" transform="translate(-39.55 -32.2)"/><path class="cls-1" d="M205,316.7c-33.61-.91-70.49,24.7-82.34,57.2s5.78,59.58,39.39,60.49,70.49-24.7,82.33-57.2S238.59,317.61,205,316.7Zm-3.49,60.52c-4.08,11.21-16.78,20-28.38,19.71s-17.66-9.64-13.56-20.85,16.78-20,28.37-19.72S205.59,366,201.49,377.22Z" transform="translate(-39.55 -32.2)"/><path class="cls-2" d="M797.67,185H752.38l-6.72,20.53H700.94L750.65,69.61h49.13L849.3,205.5H804.39Zm-10.36-32.06L775,115.1l-12.28,37.81Z" transform="translate(-39.55 -32.2)"/><path class="cls-2" d="M913.12,100.23q7.57-4.32,18.14-4.32a41,41,0,0,1,22.84,6.62q10.17,6.61,16,19.19T976,151.38q0,17.09-5.86,29.65t-16,19.19a41,41,0,0,1-22.84,6.63q-10.56,0-18.14-4.32a29.38,29.38,0,0,1-11.61-11.81v66.6H858.9V97.25h42.61V112A29.35,29.35,0,0,1,913.12,100.23Zm15.26,37.71a15.76,15.76,0,0,0-22.65,0q-4.41,4.8-4.41,13.44c0,5.75,1.47,10.24,4.41,13.43a15.76,15.76,0,0,0,22.65,0c2.94-3.19,4.41-7.68,4.41-13.43S931.32,141.14,928.38,137.94Z" transform="translate(-39.55 -32.2)"/><path class="cls-2" d="M1043.63,100.23q7.59-4.32,18.14-4.32a41,41,0,0,1,22.84,6.62q10.17,6.61,16,19.19t5.85,29.66q0,17.09-5.85,29.65t-16,19.19a40.91,40.91,0,0,1-22.84,6.63q-10.56,0-18.14-4.32A29.5,29.5,0,0,1,1032,190.72v66.6H989.41V97.25H1032V112A29.48,29.48,0,0,1,1043.63,100.23Zm15.26,37.71a15.76,15.76,0,0,0-22.65,0q-4.41,4.8-4.41,13.44c0,5.75,1.47,10.24,4.41,13.43a15.76,15.76,0,0,0,22.65,0c2.94-3.19,4.42-7.68,4.42-13.43S1061.83,141.14,1058.89,137.94Z" transform="translate(-39.55 -32.2)"/><path class="cls-2" d="M709.1,295.86a59,59,0,0,1,23.32-24.48q15.15-8.73,35.7-8.73,17.65,0,31.57,6.62A58.44,58.44,0,0,1,822.34,288,67.82,67.82,0,0,1,834,316.2H789a24.32,24.32,0,0,0-8.74-10.46A22.89,22.89,0,0,0,767.35,302q-10.76,0-17,8.06t-6.24,21.69q0,13.62,6.24,21.69t17,8.06a22.9,22.9,0,0,0,12.95-3.75A24.26,24.26,0,0,0,789,347.29H834a67.86,67.86,0,0,1-11.61,28.22,58.42,58.42,0,0,1-22.65,18.71q-13.92,6.63-31.57,6.62-20.55,0-35.7-8.73a58.86,58.86,0,0,1-23.32-24.47q-8.16-15.74-8.16-35.89T709.1,295.86Z" transform="translate(-39.55 -32.2)"/><path class="cls-2" d="M871.37,394.51a49.56,49.56,0,0,1-20.44-19.29q-7.38-12.57-7.39-29.46t7.39-29.46A49.56,49.56,0,0,1,871.37,297a67.54,67.54,0,0,1,58.74,0,49.56,49.56,0,0,1,20.44,19.29q7.38,12.57,7.38,29.46t-7.38,29.46a49.56,49.56,0,0,1-20.44,19.29,67.54,67.54,0,0,1-58.74,0Zm39.35-34.84q4-4.69,4-13.91t-4-13.92a12.95,12.95,0,0,0-20,0q-4,4.71-4,13.92t3.93,13.91a13,13,0,0,0,20.06,0Z" transform="translate(-39.55 -32.2)"/><path class="cls-2" d="M1148,303.34q11.42,12.48,11.42,33.78v62.76h-42.41V342.5q0-6.92-4.13-10.85t-11-3.93q-7.1,0-11.13,3.93t-4,10.85v57.38H1044.3V342.5q0-6.92-4.12-10.85c-2.76-2.62-6.43-3.93-11-3.93s-8.45,1.31-11.13,3.93-4,6.24-4,10.85v57.38H971.37V291.63H1014v14.59a33.69,33.69,0,0,1,12.57-11.13,39.43,39.43,0,0,1,18.71-4.23A41.47,41.47,0,0,1,1066,296a38.23,38.23,0,0,1,14.4,14.3,48.69,48.69,0,0,1,15.16-13.92,39.15,39.15,0,0,1,20.34-5.47Q1136.62,290.86,1148,303.34Z" transform="translate(-39.55 -32.2)"/><path class="cls-2" d="M1181.53,277.05a19.15,19.15,0,0,1-6.71-15,19.62,19.62,0,0,1,6.71-15.25q6.72-6.06,17.85-6,10.95,0,17.66,6a19.63,19.63,0,0,1,6.72,15.25,19.16,19.16,0,0,1-6.72,15q-6.72,5.94-17.66,5.95Q1188.25,283,1181.53,277.05Zm39,14.58V399.88h-42.61V291.63Z" transform="translate(-39.55 -32.2)"/><path class="cls-2" d="M1239.78,316.1q5.87-12.57,16-19.19a41,41,0,0,1,22.84-6.62q10.56,0,18.14,4.32a29.48,29.48,0,0,1,11.61,11.8V257.85H1351v142H1308.4V385.1a29.5,29.5,0,0,1-11.61,11.81q-7.59,4.32-18.14,4.32a41,41,0,0,1-22.84-6.62q-10.17-6.63-16-19.2t-5.85-29.65Q1233.93,328.68,1239.78,316.1Zm64.4,16.22a15.76,15.76,0,0,0-22.65,0q-4.42,4.8-4.42,13.44t4.42,13.43a15.76,15.76,0,0,0,22.65,0q4.41-4.79,4.41-13.43T1304.18,332.32Z" transform="translate(-39.55 -32.2)"/><path class="cls-2" d="M1370.3,316.1q5.85-12.57,16-19.19a41,41,0,0,1,22.84-6.62,36.62,36.62,0,0,1,18.24,4.32,29.35,29.35,0,0,1,11.71,11.8V291.63h42.41V399.88h-42.41V385.1a29.37,29.37,0,0,1-11.71,11.81,36.62,36.62,0,0,1-18.24,4.32,41,41,0,0,1-22.84-6.62q-10.17-6.63-16-19.2t-5.86-29.65Q1364.44,328.68,1370.3,316.1Zm64.39,16.22a15.76,15.76,0,0,0-22.65,0q-4.41,4.8-4.41,13.44t4.41,13.43a15.76,15.76,0,0,0,22.65,0q4.41-4.79,4.42-13.43T1434.69,332.32Z" transform="translate(-39.55 -32.2)"/></svg>