<svg id="Capa_1" data-name="Capa 1" xmlns="http://www.w3.org/2000/svg" viewBox="0 0 45.06 13.7"><defs><style>.cls-1{fill:#010101;}.cls-2{fill:#fff;}</style></defs><rect class="cls-1" width="45.06" height="13.7" rx="1.74"/><path class="cls-2" d="M14,4.47H12.79l-.28.6h-.16l1-2.14h.16l1,2.14H14.3ZM14,4.33,13.41,3.1l-.56,1.23Z" transform="translate(-0.02 -0.54)"/><path class="cls-2" d="M16,3.47l-.72,1.6h-.15l-.72-1.6h.16l.64,1.43.64-1.43Z" transform="translate(-0.02 -0.54)"/><path class="cls-2" d="M17.29,3.61a.58.58,0,0,1,.16.45v1H17.3V4.78a.47.47,0,0,1-.22.22.75.75,0,0,1-.35.08A.6.6,0,0,1,16.31,5a.41.41,0,0,1-.16-.33.39.39,0,0,1,.15-.32.67.67,0,0,1,.45-.12h.55V4.05a.45.45,0,0,0-.12-.34.49.49,0,0,0-.36-.12.8.8,0,0,0-.3.06.58.58,0,0,0-.25.15l-.07-.12a.85.85,0,0,1,.28-.16,1.09,1.09,0,0,1,.36-.06A.63.63,0,0,1,17.29,3.61Zm-.2,1.25a.61.61,0,0,0,.21-.26V4.3h-.55a.61.61,0,0,0-.34.08.3.3,0,0,0-.1.24.3.3,0,0,0,.11.24.54.54,0,0,0,.33.09A.62.62,0,0,0,17.09,4.86Z" transform="translate(-0.02 -0.54)"/><path class="cls-2" d="M18.07,3.05a.12.12,0,0,1,0-.18.13.13,0,0,1,.09,0,.18.18,0,0,1,.09,0,.12.12,0,0,1,0,.09.16.16,0,0,1,0,.09.16.16,0,0,1-.09,0A.12.12,0,0,1,18.07,3.05Zm0,.42h.15v1.6h-.15Z" transform="translate(-0.02 -0.54)"/><path class="cls-2" d="M18.88,2.8H19V5.07h-.15Z" transform="translate(-0.02 -0.54)"/><path class="cls-2" d="M20.67,3.61a.58.58,0,0,1,.16.45v1h-.15V4.78a.47.47,0,0,1-.22.22.75.75,0,0,1-.35.08A.6.6,0,0,1,19.69,5a.41.41,0,0,1-.16-.33.39.39,0,0,1,.15-.32.67.67,0,0,1,.45-.12h.55V4.05a.45.45,0,0,0-.12-.34.49.49,0,0,0-.36-.12.8.8,0,0,0-.3.06.58.58,0,0,0-.25.15l-.07-.12a.85.85,0,0,1,.28-.16,1.09,1.09,0,0,1,.36-.06A.63.63,0,0,1,20.67,3.61Zm-.2,1.25a.61.61,0,0,0,.21-.26V4.3h-.55a.61.61,0,0,0-.34.08.3.3,0,0,0-.1.24.3.3,0,0,0,.11.24.54.54,0,0,0,.33.09A.62.62,0,0,0,20.47,4.86Z" transform="translate(-0.02 -0.54)"/><path class="cls-2" d="M22.67,3.56a.78.78,0,0,1,.28.29.82.82,0,0,1,.1.42.82.82,0,0,1-.1.42.78.78,0,0,1-.28.29.8.8,0,0,1-.41.1.7.7,0,0,1-.38-.1.69.69,0,0,1-.27-.29v.38h-.15V2.8h.15v1a.73.73,0,0,1,.27-.28.7.7,0,0,1,.38-.1A.8.8,0,0,1,22.67,3.56Zm-.09,1.3a.69.69,0,0,0,.24-.24.81.81,0,0,0,0-.7.69.69,0,0,0-.24-.24.67.67,0,0,0-.33-.08.73.73,0,0,0-.33.08.64.64,0,0,0-.22.24.73.73,0,0,0,0,.7.64.64,0,0,0,.22.24.73.73,0,0,0,.33.08A.67.67,0,0,0,22.58,4.86Z" transform="translate(-0.02 -0.54)"/><path class="cls-2" d="M23.53,2.8h.15V5.07h-.15Z" transform="translate(-0.02 -0.54)"/><path class="cls-2" d="M25.67,4.31H24.3a.64.64,0,0,0,.1.33.52.52,0,0,0,.24.22.63.63,0,0,0,.34.08.93.93,0,0,0,.29-.05.72.72,0,0,0,.22-.17l.09.1a.66.66,0,0,1-.27.19.74.74,0,0,1-.34.07.82.82,0,0,1-.42-.1.74.74,0,0,1-.29-.29.82.82,0,0,1-.11-.42.81.81,0,0,1,.37-.71.77.77,0,0,1,.4-.1.76.76,0,0,1,.39.1.84.84,0,0,1,.27.29.92.92,0,0,1,.1.41Zm-1.06-.64a.53.53,0,0,0-.21.21.63.63,0,0,0-.1.31h1.23a.75.75,0,0,0-.09-.31.63.63,0,0,0-.22-.21.61.61,0,0,0-.3-.08A.62.62,0,0,0,24.61,3.67Z" transform="translate(-0.02 -0.54)"/><path class="cls-2" d="M27.15,5a.78.78,0,0,1-.28-.29.88.88,0,0,1-.11-.42.85.85,0,0,1,.11-.42.78.78,0,0,1,.28-.29.81.81,0,0,1,1.11.29,1,1,0,0,1,.1.42,1,1,0,0,1-.1.42A.84.84,0,0,1,27.15,5Zm.74-.12a.66.66,0,0,0,.23-.24.67.67,0,0,0,.08-.35.67.67,0,0,0-.08-.35.66.66,0,0,0-.23-.24.72.72,0,0,0-.66,0,.76.76,0,0,0-.23.24.81.81,0,0,0,0,.7.76.76,0,0,0,.23.24.72.72,0,0,0,.66,0Z" transform="translate(-0.02 -0.54)"/><path class="cls-2" d="M30.09,3.63a.73.73,0,0,1,.17.51v.93h-.15V4.15A.56.56,0,0,0,30,3.74a.47.47,0,0,0-.38-.14.55.55,0,0,0-.44.17.61.61,0,0,0-.16.45v.85h-.16V3.47H29v.35a.65.65,0,0,1,.25-.27.76.76,0,0,1,.38-.09A.69.69,0,0,1,30.09,3.63Z" transform="translate(-0.02 -0.54)"/><path class="cls-2" d="M32.47,5l-.14.08a.58.58,0,0,1-.19,0A.46.46,0,0,1,31.82,5a.48.48,0,0,1-.11-.32V3.6h-.29V3.47h.29V3.12h.15v.35h.51V3.6h-.51v1a.36.36,0,0,0,.08.24.29.29,0,0,0,.22.08.37.37,0,0,0,.25-.09Z" transform="translate(-0.02 -0.54)"/><path class="cls-2" d="M34.15,3.63a.69.69,0,0,1,.17.51v.93h-.15V4.15A.56.56,0,0,0,34,3.74a.51.51,0,0,0-.39-.14.57.57,0,0,0-.44.17.61.61,0,0,0-.16.45v.85H32.9V2.8h.15v1a.58.58,0,0,1,.24-.25.8.8,0,0,1,.39-.09A.66.66,0,0,1,34.15,3.63Z" transform="translate(-0.02 -0.54)"/><path class="cls-2" d="M36.31,4.31H34.93a.75.75,0,0,0,.1.33.67.67,0,0,0,.58.3.93.93,0,0,0,.29-.05.62.62,0,0,0,.22-.17l.09.1A.7.7,0,0,1,36,5a.8.8,0,0,1-.34.07.85.85,0,0,1-.43-.1.81.81,0,0,1-.29-.29.82.82,0,0,1-.11-.42,1,1,0,0,1,.1-.42.78.78,0,0,1,.28-.29.71.71,0,0,1,.39-.1.76.76,0,0,1,.39.1.84.84,0,0,1,.27.29.8.8,0,0,1,.1.41Zm-1.07-.64a.53.53,0,0,0-.21.21.63.63,0,0,0-.09.31h1.22a.75.75,0,0,0-.09-.31.63.63,0,0,0-.22-.21.61.61,0,0,0-.3-.08A.65.65,0,0,0,35.24,3.67Z" transform="translate(-0.02 -0.54)"/><path class="cls-2" d="M14.78,8.82h.63v1.43a2.15,2.15,0,0,1-.64.33,2.46,2.46,0,0,1-.76.12,2,2,0,0,1-1-.24,1.67,1.67,0,0,1-.69-.65,1.8,1.8,0,0,1-.25-1,1.74,1.74,0,0,1,.25-.94A1.69,1.69,0,0,1,13,7.26,2,2,0,0,1,14,7a2.18,2.18,0,0,1,.82.15,1.69,1.69,0,0,1,.62.43L15,8a1.35,1.35,0,0,0-1-.41,1.47,1.47,0,0,0-.67.16,1.24,1.24,0,0,0-.46.45,1.29,1.29,0,0,0-.17.65,1.25,1.25,0,0,0,.17.64,1.17,1.17,0,0,0,.46.45,1.45,1.45,0,0,0,1.4,0Z" transform="translate(-0.02 -0.54)"/><path class="cls-2" d="M16.7,10.51a1.29,1.29,0,0,1-.51-.5A1.37,1.37,0,0,1,16,9.28a1.39,1.39,0,0,1,.19-.72,1.27,1.27,0,0,1,.51-.49,1.57,1.57,0,0,1,.75-.18,1.54,1.54,0,0,1,.75.18,1.29,1.29,0,0,1,.52.49,1.49,1.49,0,0,1,.19.72,1.47,1.47,0,0,1-.19.73,1.32,1.32,0,0,1-.52.5,1.54,1.54,0,0,1-.75.17A1.56,1.56,0,0,1,16.7,10.51ZM18,9.9a.81.81,0,0,0,.23-.62A.8.8,0,0,0,18,8.67a.77.77,0,0,0-.58-.24.75.75,0,0,0-.58.24.94.94,0,0,0,0,1.23.75.75,0,0,0,.58.24A.77.77,0,0,0,18,9.9Z" transform="translate(-0.02 -0.54)"/><path class="cls-2" d="M20,10.51a1.39,1.39,0,0,1-.52-.5,1.47,1.47,0,0,1-.19-.73,1.49,1.49,0,0,1,.19-.72A1.36,1.36,0,0,1,20,8.07a1.54,1.54,0,0,1,.75-.18,1.6,1.6,0,0,1,.75.18,1.27,1.27,0,0,1,.51.49,1.39,1.39,0,0,1,.19.72A1.37,1.37,0,0,1,22,10a1.29,1.29,0,0,1-.51.5,1.59,1.59,0,0,1-.75.17A1.54,1.54,0,0,1,20,10.51Zm1.33-.61a.94.94,0,0,0,0-1.23.78.78,0,0,0-.58-.24.75.75,0,0,0-.58.24.8.8,0,0,0-.23.61.81.81,0,0,0,.23.62.75.75,0,0,0,.58.24A.78.78,0,0,0,21.33,9.9Z" transform="translate(-0.02 -0.54)"/><path class="cls-2" d="M25.52,7.92v2.31a1.29,1.29,0,0,1-1.47,1.45,3.08,3.08,0,0,1-.75-.1,1.85,1.85,0,0,1-.58-.29l.29-.48a1.36,1.36,0,0,0,.45.23,1.77,1.77,0,0,0,.56.09.87.87,0,0,0,.65-.2.83.83,0,0,0,.21-.62v-.15a1,1,0,0,1-.4.27,1.19,1.19,0,0,1-.51.1,1.48,1.48,0,0,1-.7-.17,1.26,1.26,0,0,1-.5-.47,1.31,1.31,0,0,1-.18-.69,1.28,1.28,0,0,1,.18-.68,1.26,1.26,0,0,1,.5-.47,1.47,1.47,0,0,1,.7-.16,1.33,1.33,0,0,1,.54.1.9.9,0,0,1,.4.29V7.92Zm-.86,1.85a.74.74,0,0,0,.23-.57.7.7,0,0,0-.23-.55.8.8,0,0,0-.59-.22.81.81,0,0,0-.6.22.71.71,0,0,0-.24.55.75.75,0,0,0,.24.57.84.84,0,0,0,.6.21A.84.84,0,0,0,24.66,9.77Z" transform="translate(-0.02 -0.54)"/><path class="cls-2" d="M26.36,6.86H27v3.79h-.64Z" transform="translate(-0.02 -0.54)"/><path class="cls-2" d="M30.39,9.49H28.25a.8.8,0,0,0,.29.48,1,1,0,0,0,.59.17,1.05,1.05,0,0,0,.75-.29l.34.39a1.12,1.12,0,0,1-.47.33,1.57,1.57,0,0,1-.63.11,1.67,1.67,0,0,1-.79-.17,1.28,1.28,0,0,1-.53-.5,1.37,1.37,0,0,1-.19-.73,1.41,1.41,0,0,1,.18-.71,1.23,1.23,0,0,1,.51-.5A1.43,1.43,0,0,1,29,7.89a1.39,1.39,0,0,1,.71.18,1.24,1.24,0,0,1,.5.49,1.58,1.58,0,0,1,.17.74A1.49,1.49,0,0,1,30.39,9.49ZM28.5,8.58a.75.75,0,0,0-.25.48h1.54a.75.75,0,0,0-.25-.48A.77.77,0,0,0,29,8.4.78.78,0,0,0,28.5,8.58Z" transform="translate(-0.02 -0.54)"/><path class="cls-2" d="M34.77,7.23a1.15,1.15,0,0,1,.53.44,1.23,1.23,0,0,1,.18.68A1.24,1.24,0,0,1,35.3,9a1.21,1.21,0,0,1-.53.44,1.86,1.86,0,0,1-.81.16h-.81v1h-.66V7.07H34A1.86,1.86,0,0,1,34.77,7.23Zm-.18,1.64a.63.63,0,0,0,.22-.52.64.64,0,0,0-.22-.53,1,1,0,0,0-.66-.19h-.78V9.06h.78A1,1,0,0,0,34.59,8.87Z" transform="translate(-0.02 -0.54)"/><path class="cls-2" d="M36.13,6.86h.64v3.79h-.64Z" transform="translate(-0.02 -0.54)"/><path class="cls-2" d="M39.57,8.18a1.08,1.08,0,0,1,.32.87v1.6h-.6v-.33a.73.73,0,0,1-.33.27,1.4,1.4,0,0,1-.53.09,1.25,1.25,0,0,1-.53-.1.81.81,0,0,1-.36-.29.79.79,0,0,1-.12-.42.72.72,0,0,1,.27-.59,1.34,1.34,0,0,1,.86-.22h.7V9a.55.55,0,0,0-.17-.44.73.73,0,0,0-.5-.15,1.43,1.43,0,0,0-.46.07,1.31,1.31,0,0,0-.37.2l-.25-.46A1.35,1.35,0,0,1,38,8a2.25,2.25,0,0,1,.64-.09A1.33,1.33,0,0,1,39.57,8.18ZM39,10.11a.57.57,0,0,0,.26-.31V9.48H38.6c-.37,0-.56.12-.56.36a.34.34,0,0,0,.14.28.63.63,0,0,0,.39.1A.82.82,0,0,0,39,10.11Z" transform="translate(-0.02 -0.54)"/><path class="cls-2" d="M43.21,7.92l-1.27,2.95a1.39,1.39,0,0,1-.44.62,1,1,0,0,1-.62.19,1.4,1.4,0,0,1-.4-.07,1.29,1.29,0,0,1-.33-.18l.26-.47a.67.67,0,0,0,.22.13.53.53,0,0,0,.25.05.44.44,0,0,0,.28-.08.86.86,0,0,0,.2-.29l0-.11L40.22,7.92h.66l.86,2,.86-2Z" transform="translate(-0.02 -0.54)"/><path class="cls-2" d="M10.86,7.22l-1.72-1L7.73,7.59,9,8.84l1.84-1.06a.32.32,0,0,0,0-.56Z" transform="translate(-0.02 -0.54)"/><polygon class="cls-2" points="8.83 5.52 6.95 4.43 2.81 2.31 7.48 6.83 8.83 5.52"/><polygon class="cls-2" points="2.87 11.73 6.95 9.48 8.71 8.47 7.48 7.28 2.87 11.73"/><polygon class="cls-2" points="2.53 2.49 2.52 11.62 7.25 7.05 2.53 2.49"/></svg>