<svg id="Capa_1" data-name="Capa 1" xmlns="http://www.w3.org/2000/svg" viewBox="0 0 45.06 13.7"><defs><style>.cls-1{fill:#010101;}.cls-2{fill:#fff;}</style></defs><rect class="cls-1" width="45.06" height="13.7" rx="1.74"/><path class="cls-2" d="M3.23,6.32a4.46,4.46,0,0,0,.54,4.36c.4.58.81,1.11,1.37,1.11h0a1.81,1.81,0,0,0,.64-.17,1.72,1.72,0,0,1,.75-.18,1.69,1.69,0,0,1,.72.17,1.56,1.56,0,0,0,.69.16c.63,0,1-.57,1.36-1.07a4.6,4.6,0,0,0,.59-1.22h0a.07.07,0,0,0,0-.08h0A1.79,1.79,0,0,1,8.79,7.73a1.88,1.88,0,0,1,.88-1.56h0a.1.1,0,0,0,0,0,.06.06,0,0,0,0,0,2,2,0,0,0-1.6-.87H8a2.83,2.83,0,0,0-1,.25,1.62,1.62,0,0,1-.49.15A1.59,1.59,0,0,1,6,5.44a2.48,2.48,0,0,0-.88-.22h0A2.15,2.15,0,0,0,3.23,6.32Z" transform="translate(-0.43 -0.72)"/><path class="cls-2" d="M8.09,3.14a2,2,0,0,0-1.31.67,1.84,1.84,0,0,0-.46,1.37.06.06,0,0,0,.06.06h.09A1.66,1.66,0,0,0,7.7,4.61,1.94,1.94,0,0,0,8.16,3.2S8.12,3.14,8.09,3.14Z" transform="translate(-0.43 -0.72)"/><path class="cls-2" d="M13.23,3.1h.85a1.25,1.25,0,0,1,.59.14,1,1,0,0,1,.4.38,1,1,0,0,1,.14.55,1.06,1.06,0,0,1-.14.56,1,1,0,0,1-.4.38,1.25,1.25,0,0,1-.59.14h-.85Zm.83,2A1.12,1.12,0,0,0,14.59,5a.93.93,0,0,0,.35-.33,1,1,0,0,0,.12-.49,1,1,0,0,0-.12-.48.93.93,0,0,0-.35-.33,1.12,1.12,0,0,0-.53-.12h-.68V5.1Z" transform="translate(-0.43 -0.72)"/><path class="cls-2" d="M15.92,5.15a.71.71,0,0,1-.28-.29.81.81,0,0,1-.11-.41A.82.82,0,0,1,15.64,4a.78.78,0,0,1,.28-.29.89.89,0,0,1,.82,0A.71.71,0,0,1,17,4a.82.82,0,0,1,.11.42.81.81,0,0,1-.11.41.65.65,0,0,1-.28.29.82.82,0,0,1-.82,0ZM16.66,5a.57.57,0,0,0,.23-.23A.82.82,0,0,0,17,4.45a.78.78,0,0,0-.08-.35.66.66,0,0,0-.23-.24.65.65,0,0,0-.66,0,.66.66,0,0,0-.23.24.78.78,0,0,0-.08.35.82.82,0,0,0,.08.35A.57.57,0,0,0,16,5a.65.65,0,0,0,.66,0Z" transform="translate(-0.43 -0.72)"/><path class="cls-2" d="M19.84,3.65l-.61,1.6h-.14l-.54-1.39L18,5.25h-.14l-.61-1.6h.15l.53,1.42.55-1.42h.13l.54,1.42.54-1.42Z" transform="translate(-0.43 -0.72)"/><path class="cls-2" d="M21.45,3.81a.7.7,0,0,1,.17.5v.94h-.15V4.32a.58.58,0,0,0-.14-.41A.51.51,0,0,0,21,3.77a.59.59,0,0,0-.44.17.62.62,0,0,0-.16.45v.86h-.16V3.65h.15V4a.63.63,0,0,1,.25-.26A.76.76,0,0,1,21,3.64.64.64,0,0,1,21.45,3.81Z" transform="translate(-0.43 -0.72)"/><path class="cls-2" d="M22.25,3h.15V5.25h-.15Z" transform="translate(-0.43 -0.72)"/><path class="cls-2" d="M23.27,5.15A.68.68,0,0,1,23,4.86a.8.8,0,0,1-.1-.41A.82.82,0,0,1,23,4a.74.74,0,0,1,.29-.29.77.77,0,0,1,.4-.1.78.78,0,0,1,.41.1.81.81,0,0,1,.29.29.82.82,0,0,1,.1.42.8.8,0,0,1-.1.41.74.74,0,0,1-.29.29.78.78,0,0,1-.41.11A.77.77,0,0,1,23.27,5.15ZM24,5a.51.51,0,0,0,.23-.23.7.7,0,0,0,.09-.35.68.68,0,0,0-.09-.35A.59.59,0,0,0,24,3.86a.58.58,0,0,0-.33-.09.57.57,0,0,0-.32.09.59.59,0,0,0-.23.24.68.68,0,0,0-.09.35.7.7,0,0,0,.09.35.51.51,0,0,0,.23.23.57.57,0,0,0,.32.09A.58.58,0,0,0,24,5Z" transform="translate(-0.43 -0.72)"/><path class="cls-2" d="M25.94,3.79a.6.6,0,0,1,.15.44v1H26V5a.54.54,0,0,1-.23.22.72.72,0,0,1-.35.08A.62.62,0,0,1,25,5.13a.4.4,0,0,1-.15-.33.39.39,0,0,1,.14-.32.69.69,0,0,1,.45-.13h.55V4.23a.44.44,0,0,0-.12-.34.48.48,0,0,0-.35-.12.81.81,0,0,0-.31.06.63.63,0,0,0-.24.14l-.08-.11a.9.9,0,0,1,.29-.16,1,1,0,0,1,.35-.06A.65.65,0,0,1,25.94,3.79ZM25.73,5a.58.58,0,0,0,.21-.27v-.3H25.4a.51.51,0,0,0-.34.09A.3.3,0,0,0,25,4.8a.29.29,0,0,0,.12.24.49.49,0,0,0,.32.09A.59.59,0,0,0,25.73,5Z" transform="translate(-0.43 -0.72)"/><path class="cls-2" d="M28.15,3V5.25H28V4.87a.84.84,0,0,1-.27.29.81.81,0,0,1-.39.1.77.77,0,0,1-.4-.11.69.69,0,0,1-.28-.28.88.88,0,0,1-.11-.42A.82.82,0,0,1,26.66,4a.65.65,0,0,1,.28-.29.77.77,0,0,1,.4-.1.73.73,0,0,1,.39.1A.64.64,0,0,1,28,4V3ZM27.68,5a.57.57,0,0,0,.23-.23A.69.69,0,0,0,28,4.45a.67.67,0,0,0-.08-.35.66.66,0,0,0-.23-.24.65.65,0,0,0-.66,0,.76.76,0,0,0-.23.24.78.78,0,0,0-.08.35.82.82,0,0,0,.08.35.65.65,0,0,0,.89.23Z" transform="translate(-0.43 -0.72)"/><path class="cls-2" d="M29.79,5.15a.71.71,0,0,1-.28-.29.81.81,0,0,1-.11-.41A.82.82,0,0,1,29.51,4a.78.78,0,0,1,.28-.29.83.83,0,0,1,.41-.1.77.77,0,0,1,.7.39.82.82,0,0,1,.1.42.8.8,0,0,1-.1.41.74.74,0,0,1-.29.29.81.81,0,0,1-.41.11A.84.84,0,0,1,29.79,5.15ZM30.53,5a.57.57,0,0,0,.23-.23.69.69,0,0,0,.08-.35.67.67,0,0,0-.08-.35.66.66,0,0,0-.23-.24.65.65,0,0,0-.66,0,.76.76,0,0,0-.23.24.78.78,0,0,0-.08.35.82.82,0,0,0,.08.35.65.65,0,0,0,.89.23Z" transform="translate(-0.43 -0.72)"/><path class="cls-2" d="M32.73,3.81a.66.66,0,0,1,.17.5v.94h-.15V4.32a.54.54,0,0,0-.14-.41.51.51,0,0,0-.38-.14.6.6,0,0,0-.44.17.62.62,0,0,0-.16.45v.86h-.16V3.65h.15V4a.63.63,0,0,1,.25-.26.8.8,0,0,1,.39-.09A.63.63,0,0,1,32.73,3.81Z" transform="translate(-0.43 -0.72)"/><path class="cls-2" d="M35.11,5.14a.42.42,0,0,1-.14.09.58.58,0,0,1-.19,0,.4.4,0,0,1-.43-.44v-1h-.29V3.65h.29V3.3h.15v.35H35v.13H34.5v1a.32.32,0,0,0,.08.23.27.27,0,0,0,.22.09A.37.37,0,0,0,35.05,5Z" transform="translate(-0.43 -0.72)"/><path class="cls-2" d="M36.79,3.81a.67.67,0,0,1,.18.5v.94h-.16V4.32a.58.58,0,0,0-.13-.41.52.52,0,0,0-.38-.14.61.61,0,0,0-.45.17.62.62,0,0,0-.16.45v.86h-.15V3h.15V4a.58.58,0,0,1,.24-.25.8.8,0,0,1,.39-.09A.62.62,0,0,1,36.79,3.81Z" transform="translate(-0.43 -0.72)"/><path class="cls-2" d="M39,4.48H37.57a.75.75,0,0,0,.1.34.64.64,0,0,0,.24.22.74.74,0,0,0,.34.08.72.72,0,0,0,.29-.06.5.5,0,0,0,.22-.16l.09.1a.7.7,0,0,1-.26.19.8.8,0,0,1-.34.07.89.89,0,0,1-.43-.11.78.78,0,0,1-.29-.28.88.88,0,0,1-.11-.42.93.93,0,0,1,.1-.42.78.78,0,0,1,.28-.29.71.71,0,0,1,.39-.1.76.76,0,0,1,.39.1.81.81,0,0,1,.27.28.87.87,0,0,1,.1.42Zm-1.06-.63a.56.56,0,0,0-.22.21.75.75,0,0,0-.09.3H38.8a.75.75,0,0,0-.09-.3.63.63,0,0,0-.22-.21.6.6,0,0,0-.6,0Z" transform="translate(-0.43 -0.72)"/><path class="cls-2" d="M15.49,10H13.66l-.36.85h-.7l1.65-3.66h.67l1.65,3.66h-.71Zm-.22-.53-.69-1.6-.69,1.6Z" transform="translate(-0.43 -0.72)"/><path class="cls-2" d="M19.25,8.18a1.33,1.33,0,0,1,.5.5,1.58,1.58,0,0,1,0,1.5,1.2,1.2,0,0,1-.5.5,1.49,1.49,0,0,1-.73.18,1.11,1.11,0,0,1-.89-.37v1.35H17V8h.62V8.4a1.17,1.17,0,0,1,.4-.3,1.51,1.51,0,0,1,.53-.1A1.49,1.49,0,0,1,19.25,8.18ZM19,10.06a.85.85,0,0,0,.23-.63A.85.85,0,0,0,19,8.8a.79.79,0,0,0-.59-.24.88.88,0,0,0-.43.1,1,1,0,0,0-.29,1.23.79.79,0,0,0,.29.31.88.88,0,0,0,.43.1A.79.79,0,0,0,19,10.06Z" transform="translate(-0.43 -0.72)"/><path class="cls-2" d="M22.84,8.18a1.33,1.33,0,0,1,.5.5,1.65,1.65,0,0,1,0,1.5,1.2,1.2,0,0,1-.5.5,1.49,1.49,0,0,1-.73.18,1.13,1.13,0,0,1-.9-.37v1.35h-.65V8h.62V8.4a1.08,1.08,0,0,1,.4-.3,1.47,1.47,0,0,1,.53-.1A1.49,1.49,0,0,1,22.84,8.18Zm-.21,1.88a1,1,0,0,0,0-1.26.81.81,0,0,0-.6-.24.84.84,0,0,0-.42.1.81.81,0,0,0-.3.31,1,1,0,0,0,0,.92.75.75,0,0,0,.3.31.84.84,0,0,0,.42.1A.81.81,0,0,0,22.63,10.06Z" transform="translate(-0.43 -0.72)"/><path class="cls-2" d="M26,10.76a1.69,1.69,0,0,1-.63-.32l.24-.53a1.69,1.69,0,0,0,.55.29,1.85,1.85,0,0,0,.65.11,1.08,1.08,0,0,0,.61-.13.37.37,0,0,0,.2-.34.31.31,0,0,0-.11-.26.76.76,0,0,0-.28-.16l-.47-.13a5.33,5.33,0,0,1-.68-.2,1.14,1.14,0,0,1-.44-.31.8.8,0,0,1-.19-.57.94.94,0,0,1,.16-.55,1.13,1.13,0,0,1,.5-.4,2,2,0,0,1,.81-.15,2.39,2.39,0,0,1,.66.09,1.51,1.51,0,0,1,.56.24L27.9,8a2,2,0,0,0-.5-.22,1.89,1.89,0,0,0-.51-.07,1,1,0,0,0-.6.14.42.42,0,0,0-.2.36.3.3,0,0,0,.12.25.76.76,0,0,0,.28.16l.47.13a4.23,4.23,0,0,1,.67.2,1.07,1.07,0,0,1,.45.31.82.82,0,0,1,.18.56,1,1,0,0,1-.16.55,1.18,1.18,0,0,1-.5.39,2,2,0,0,1-.82.15A2.74,2.74,0,0,1,26,10.76Z" transform="translate(-0.43 -0.72)"/><path class="cls-2" d="M30.55,10.67a.75.75,0,0,1-.28.15,1.27,1.27,0,0,1-.34,0,1,1,0,0,1-.71-.24.91.91,0,0,1-.26-.7V8.58H28.5V8.06H29V7.42h.66v.64h.74v.52h-.74V9.91a.43.43,0,0,0,.1.31.36.36,0,0,0,.28.1.56.56,0,0,0,.37-.11Z" transform="translate(-0.43 -0.72)"/><path class="cls-2" d="M31.49,10.68a1.3,1.3,0,0,1-.53-.51,1.41,1.41,0,0,1-.19-.74A1.43,1.43,0,0,1,31,8.69a1.34,1.34,0,0,1,.53-.5,1.64,1.64,0,0,1,1.53,0,1.34,1.34,0,0,1,.53.5,1.43,1.43,0,0,1,.19.74,1.41,1.41,0,0,1-.19.74,1.3,1.3,0,0,1-.53.51,1.72,1.72,0,0,1-1.53,0Zm1.36-.62a1,1,0,0,0,0-1.26.81.81,0,0,0-.6-.24.78.78,0,0,0-.59.24.85.85,0,0,0-.23.63.85.85,0,0,0,.23.63.78.78,0,0,0,.59.24A.81.81,0,0,0,32.85,10.06Z" transform="translate(-0.43 -0.72)"/><path class="cls-2" d="M36,8v.63l-.15,0a.77.77,0,0,0-.59.22.86.86,0,0,0-.22.64v1.36h-.65V8H35v.41A1.1,1.1,0,0,1,36,8Z" transform="translate(-0.43 -0.72)"/><path class="cls-2" d="M39.13,9.64H36.94a.71.71,0,0,0,.3.49,1,1,0,0,0,.6.18,1,1,0,0,0,.76-.3l.35.4a1.27,1.27,0,0,1-.48.34,1.84,1.84,0,0,1-.65.11,1.79,1.79,0,0,1-.81-.18,1.33,1.33,0,0,1-.54-.51,1.51,1.51,0,0,1-.19-.74,1.37,1.37,0,0,1,.19-.73A1.25,1.25,0,0,1,37,8.19,1.44,1.44,0,0,1,37.73,8a1.43,1.43,0,0,1,.72.18,1.25,1.25,0,0,1,.51.51,1.55,1.55,0,0,1,.18.76S39.13,9.56,39.13,9.64Zm-1.94-.93a.81.81,0,0,0-.26.5h1.58a.75.75,0,0,0-.25-.5.79.79,0,0,0-.53-.18A.84.84,0,0,0,37.19,8.71Z" transform="translate(-0.43 -0.72)"/></svg>