<?xml version="1.0" encoding="utf-8"?>
<!-- Generator: Adobe Illustrator 25.2.3, SVG Export Plug-In . SVG Version: 6.00 Build 0)  -->
<svg version="1.1" id="Capa_1" xmlns="http://www.w3.org/2000/svg" xmlns:xlink="http://www.w3.org/1999/xlink" x="0px" y="0px"
	 viewBox="0 0 100 100" style="enable-background:new 0 0 100 100;" xml:space="preserve">
<style type="text/css">
	.st0{fill-rule:evenodd;clip-rule:evenodd;fill:#1F1E1E;}
</style>
<path id="clock" class="st0" d="M50,90.8c22.6,0,40.8-18.3,40.8-40.8S72.6,9.2,50,9.2C27.4,9.2,9.2,27.4,9.2,50
	C9.2,72.6,27.4,90.8,50,90.8C50,90.8,50,90.8,50,90.8z M55.1,29.6c0-2.8-2.3-5.1-5.1-5.1s-5.1,2.3-5.1,5.1V50c0,1.4,0.5,2.7,1.5,3.6
	L60.8,68c2,2,5.2,2,7.2,0c2-2,2-5.2,0-7.2L55.1,47.9L55.1,29.6z"/>
</svg>
