<?xml version="1.0" encoding="utf-8"?>
<!-- Generator: Adobe Illustrator 25.2.3, SVG Export Plug-In . SVG Version: 6.00 Build 0)  -->
<svg version="1.1" id="Capa_1" xmlns="http://www.w3.org/2000/svg" xmlns:xlink="http://www.w3.org/1999/xlink" x="0px" y="0px"
	 viewBox="0 0 100 100" style="enable-background:new 0 0 100 100;" xml:space="preserve">
<style type="text/css">
	.st0{fill-rule:evenodd;clip-rule:evenodd;fill:#1F1E1E;}
</style>
<path id="badge-check" class="st0" d="M31,16.6c3.3-0.3,6.4-1.6,8.9-3.7c5.8-5,14.4-5,20.3,0c2.5,2.1,5.6,3.4,8.9,3.7
	c7.6,0.6,13.7,6.7,14.3,14.3c0.3,3.3,1.6,6.4,3.7,8.9c5,5.8,5,14.4,0,20.3c-2.1,2.5-3.4,5.6-3.7,8.9c-0.6,7.6-6.7,13.7-14.3,14.3
	c-3.3,0.3-6.4,1.6-8.9,3.7c-5.8,5-14.4,5-20.3,0c-2.5-2.1-5.6-3.4-8.9-3.7c-7.6-0.6-13.7-6.7-14.3-14.3c-0.3-3.3-1.6-6.4-3.7-8.9
	c-5-5.8-5-14.4,0-20.3c2.1-2.5,3.4-5.6,3.7-8.9C17.2,23.3,23.3,17.2,31,16.6z M68.9,43.4c2-2,2.1-5.2,0.1-7.2s-5.2-2.1-7.2-0.1
	c0,0-0.1,0.1-0.1,0.1L44.9,53l-6.6-6.6c-2-2-5.2-2-7.2,0c-2,2-2,5.2,0,7.2l10.2,10.2c2,2,5.2,2,7.2,0L68.9,43.4z"/>
</svg>
