<svg id="Capa_1" data-name="Capa 1" xmlns="http://www.w3.org/2000/svg" viewBox="0 0 91.39 85.06"><defs><style>.cls-1{fill:#3a484b;}.cls-1,.cls-2,.cls-3,.cls-4{fill-rule:evenodd;}.cls-2{fill:#1273ba;}.cls-3{fill:#0b5f94;}.cls-4{fill:#2a393d;}</style></defs><path class="cls-1" d="M11.22,25.84S-1.13,44.2,5.3,66.39C6,66,6.81,65.66,7.54,65.27c-2-11.74.51-28.12,7.9-36.68-1.39-.93-2.79-1.82-4.22-2.75Z" transform="translate(-3.44 -4.04)"/><path class="cls-1" d="M87,25.84S99.41,44.2,93,66.39c-.73-.38-1.51-.73-2.24-1.12,2.05-11.74-.51-28.12-7.9-36.68,1.39-.93,2.79-1.82,4.18-2.75Z" transform="translate(-3.44 -4.04)"/><path class="cls-2" d="M81.6,30.8c1.86,2.36,8.29-3.91,6.74-6.12-17.7-27.54-60.7-27.5-78.4,0-1.55,2.21,4.88,8.48,6.74,6.12,18-21.15,47.6-21.19,64.92,0Z" transform="translate(-3.44 -4.04)"/><path class="cls-3" d="M81.6,30.8c.54.7,1.47.66,2.48.19a1.15,1.15,0,0,0-.2-.46c-15.68-24.4-53.8-24.37-69.48,0a1.15,1.15,0,0,0-.2.46c1,.47,1.94.51,2.48-.19,18-21.15,47.6-21.19,64.92,0Z" transform="translate(-3.44 -4.04)"/><path class="cls-2" d="M22,51c1,5.73,2.09,11.46,3.14,17.15s2.13,11.47,3.17,17.2c.85,4.49-11.31,5.11-12.12.82L13.27,70.38c-1-5.27-1.93-10.57-2.9-15.84C9.56,50.28,21.14,46.48,22,51Z" transform="translate(-3.44 -4.04)"/><path class="cls-2" d="M76.29,51c-1,5.73-2.09,11.46-3.14,17.15S71,79.64,70,85.37c-.85,4.49,11.31,5.11,12.12.82L85,70.38c1-5.27,1.93-10.57,2.9-15.84.81-4.26-10.77-8.06-11.62-3.52Z" transform="translate(-3.44 -4.04)"/><path class="cls-3" d="M22,51c1,5.73,2.09,11.46,3.14,17.15s2.13,11.47,3.17,17.2c.39,2-2,3.33-4.72,3.64a0,0,0,0,1,0,0c1-1.89-1.86-1.24-2.1-1.74-1-2,2.25-2.28,2.72-3,1.2-1.82-2.29-3.41-3.49-4.26-3.18-2.17-1.09-4.57.77-6.82,1.44-1.74.28-3.83-1.27-5.11-4.54-3.76-.39-6.28-.39-7.36,0-3.83-5.66-2.09-5.11-4.42.58-2.63,3.6-2.59,4.37-5,.62-2-4.53-1-5.65-1,3.29-1.78,8-2.17,8.52.66Z" transform="translate(-3.44 -4.04)"/><path class="cls-3" d="M76.29,51c-1,5.73-2.09,11.46-3.14,17.15S71,79.64,70,85.37c-.39,2,2,3.33,4.72,3.64a0,0,0,0,0,0,0c-1-1.89,1.86-1.24,2.1-1.74,1-2-2.25-2.28-2.72-3-1.2-1.82,2.29-3.41,3.49-4.26,3.18-2.17,1.09-4.57-.77-6.82-1.44-1.74-.28-3.83,1.27-5.11,4.5-3.76.39-6.28.39-7.36,0-3.83,5.66-2.09,5.11-4.42-.58-2.63-3.6-2.59-4.37-5-.62-2,4.53-1,5.65-1-3.29-1.78-8-2.17-8.52.66Z" transform="translate(-3.44 -4.04)"/><path class="cls-1" d="M10.37,54.54h0A3,3,0,0,0,8,58l4.76,25.79a3,3,0,0,0,3.45,2.37h0Z" transform="translate(-3.44 -4.04)"/><path class="cls-1" d="M87.91,54.54h0A3,3,0,0,1,90.31,58L85.55,83.82a3,3,0,0,1-3.45,2.37h0Z" transform="translate(-3.44 -4.04)"/><path class="cls-4" d="M8.32,59.89c-2.83,2.28-4.26,7-3.37,12s4,9,7.43,10.07Z" transform="translate(-3.44 -4.04)"/><path class="cls-4" d="M90,59.89c2.83,2.28,4.26,7,3.33,12s-4,9-7.39,10.07Z" transform="translate(-3.44 -4.04)"/></svg>