<?xml version="1.0" encoding="utf-8"?>
<!-- Generator: Adobe Illustrator 25.2.3, SVG Export Plug-In . SVG Version: 6.00 Build 0)  -->
<svg version="1.1" id="Capa_1" xmlns="http://www.w3.org/2000/svg" xmlns:xlink="http://www.w3.org/1999/xlink" x="0px" y="0px"
	 viewBox="0 0 95 85.6" style="enable-background:new 0 0 95 85.6;" xml:space="preserve">
<style type="text/css">
	.st0{fill:#F9F9F9;}
	.st1{fill-rule:evenodd;clip-rule:evenodd;fill:#3F3F3F;}
	.st2{fill-rule:evenodd;clip-rule:evenodd;fill:#303030;}
	.st3{fill-rule:evenodd;clip-rule:evenodd;fill:#E2E2E1;}
	.st4{fill-rule:evenodd;clip-rule:evenodd;fill:#D6D6D6;}
	.st5{fill-rule:evenodd;clip-rule:evenodd;fill:#F9F9F9;}
</style>
<path class="st0" d="M6.7,44.5c-0.8-0.1-1.7,0.7-2.5,1.8c-0.7,1.2-1.2,2.5-1.4,3.8c-0.3,1.5-0.2,3.1,0.2,4.6c0.8,3.1,3.2,6.1,8.1,8
	l-0.9,2.5c-5.9-2.2-8.8-5.9-9.8-9.8c-0.5-1.9-0.6-3.9-0.3-5.8C0.5,48,1.1,46.4,2,45c1.3-2,3.1-3.2,4.9-3L6.7,44.5z"/>
<path class="st0" d="M88.3,44.5c0.8-0.1,1.7,0.7,2.5,1.8c0.7,1.2,1.2,2.5,1.4,3.8c0.3,1.5,0.2,3.1-0.2,4.6c-0.8,3.1-3.2,6.1-8.2,8
	l0.9,2.5c5.9-2.2,8.8-5.9,9.8-9.8c0.5-1.9,0.6-3.9,0.3-5.8c-0.3-1.7-0.9-3.3-1.8-4.8c-1.3-2-3.1-3.2-4.9-3L88.3,44.5z"/>
<path class="st1" d="M10.6,50.9c1.8-0.6,3.6-1.2,5.5-1.8c2.8-1,5.9,0.5,6.9,3.4c0,0,0,0,0,0c1.6,7.9,4.1,15.5,7.7,22.8
	c1,2.8-0.5,5.9-3.4,6.9c-1.8,0.6-3.7,1.2-5.5,1.8C18.1,72.9,14.4,61.9,10.6,50.9L10.6,50.9z"/>
<path class="st1" d="M84.3,50.9c-1.8-0.6-3.6-1.2-5.4-1.8c-2.8-1-5.9,0.5-6.9,3.4c0,0,0,0,0,0c-1.6,7.9-4.1,15.5-7.7,22.8
	c-1,2.8,0.5,5.9,3.4,6.9c1.8,0.6,3.7,1.2,5.5,1.8C76.9,72.9,80.6,61.9,84.3,50.9L84.3,50.9z"/>
<path class="st2" d="M10.6,50.9l3-1c-4.1,2.2,1.2,2.9,2.9,3.6c1.1,0.5,2,0.3,0.5,1.5c-2,1.6-3.8,4.9-0.3,6c0.5,0.2,3,0.8,2.3,1.5
	c-0.9,0.9-2.2,1.6-2.1,3.1c0.3,3,1.4,2.3,3.7,3c1.4,0.4,0.1,1.4-0.4,1.9c-0.3,0.3-1.2,0.9-0.6,1.5s3.5,0.3,3.9,1.7
	c0.1,0.3-1.9,2.2-2.2,3.4c-0.3,1-0.5,2.2,0.9,2.5c0.6,0.2,3.9-0.1,3.4,0.7c-0.8,1.3-2.2,1.7-2.1,3l-1.7,0.6
	C18.1,72.9,14.3,61.9,10.6,50.9L10.6,50.9z"/>
<path class="st2" d="M84.3,50.9l-3-1c4.1,2.2-1.2,2.9-2.9,3.6c-1.1,0.5-2,0.3-0.5,1.5c2,1.6,3.8,4.9,0.3,6c-0.5,0.2-3,0.8-2.3,1.5
	c0.9,0.9,2.2,1.6,2.1,3.1c-0.3,3-1.4,2.3-3.7,3C73,69,74.3,70,74.7,70.5c0.3,0.3,1.2,0.9,0.6,1.5s-3.5,0.3-3.9,1.7
	c-0.1,0.3,1.9,2.2,2.2,3.4c0.3,1,0.5,2.2-0.9,2.5c-0.6,0.2-3.9-0.1-3.4,0.7c0.8,1.3,2.2,1.7,2.1,3l1.7,0.6
	C76.9,72.9,80.6,61.9,84.3,50.9L84.3,50.9z"/>
<path class="st3" d="M9.1,50L9.1,50c-0.6,0.2-0.9,0.8-0.7,1.4c0,0,0,0,0,0l11.3,33.5c0.2,0.6,0.8,0.9,1.4,0.7c0,0,0,0,0,0l0,0
	c0.6-0.2,0.9-0.8,0.7-1.4c0,0,0,0,0,0L10.6,50.6C10.4,50.1,9.7,49.8,9.1,50z"/>
<path class="st4" d="M85.8,50L85.8,50c0.6,0.2,0.9,0.8,0.7,1.4c0,0,0,0,0,0L75.2,84.9c-0.2,0.6-0.8,0.9-1.4,0.7c0,0,0,0,0,0l0,0
	c-0.6-0.2-0.9-0.8-0.7-1.4c0,0,0,0,0,0l11.3-33.5C84.6,50.1,85.2,49.8,85.8,50z"/>
<path class="st4" d="M8.5,51.4l-1.4,0.5c-1.4,0.5-2.1,2-1.6,3.4l9.5,28c0.5,1.4,2,2.2,3.4,1.7l1.3-0.4L8.5,51.4z"/>
<path class="st4" d="M86.5,51.4l1.3,0.5c1.4,0.5,2.2,2,1.7,3.4c0,0,0,0,0,0l-9.4,28c-0.5,1.4-2,2.2-3.4,1.7l-1.3-0.4L86.5,51.4z"/>
<path class="st5" d="M84.6,39.2c-1.7,1.2-2.1,3.6-0.9,5.4c1.2,1.7,3.6,2.1,5.4,0.9c1.7-1.2,2.1-3.6,0.9-5.4
	c-0.3-0.4-0.7-0.8-1.1-1.1C84-13,10.9-13,6.2,39c-1.8,1.1-2.4,3.4-1.3,5.3s3.4,2.4,5.3,1.3s2.4-3.4,1.3-5.3c-0.3-0.4-0.6-0.8-1-1.1
	C14.2,2.3,80.7,2.3,84.6,39.2z"/>
<path class="st4" d="M84.6,39.2L84.6,39.2c0.4,0.1,0.8,0.1,0.8-0.2c-6.6-42.5-69-42.5-75.6,0c-0.1,0.3,0.3,0.3,0.8,0.2l0,0
	C14.3,2.3,80.8,2.3,84.6,39.2L84.6,39.2z"/>
</svg>
