<svg id="Capa_1" data-name="Capa 1" xmlns="http://www.w3.org/2000/svg" viewBox="0 0 92.09 96.05"><defs><style>.cls-1{fill:#1f1f1f;}.cls-1,.cls-2,.cls-3,.cls-4{fill-rule:evenodd;}.cls-2{fill:#2e2e2d;}.cls-3{fill:#0b5f95;}.cls-4{fill:#1273ba;}.cls-5{fill:#4d4d4d;}</style></defs><path class="cls-1" d="M66.73,58.18V94.39c0,5.4,9.78,5.4,9.78,0V58.18c0-5.4-9.78-5.4-9.78,0Zm-33.27,0V94.39c0,5.4-9.77,5.4-9.77,0V58.18c0-5.4,9.77-5.4,9.77,0Z" transform="translate(-4.05 -2.39)"/><path class="cls-2" d="M66.73,58.18V84c0,5.4,9.78,5.4,9.78,0V58.18c0-5.4-9.78-5.4-9.78,0ZM33.46,84c0,5.4-9.77,5.4-9.77,0V58.18c0-5.4,9.77-5.4,9.77,0Z" transform="translate(-4.05 -2.39)"/><path class="cls-3" d="M76.51,61V91.63c0,3.59,7.36,3.59,7.36,0V61c0-3.62-7.36-3.7-7.36,0ZM23.69,61V91.63c0,3.59-7.37,3.59-7.37,0V61c0-3.62,7.37-3.7,7.37,0Z" transform="translate(-4.05 -2.39)"/><path class="cls-4" d="M76.51,61V81.89c0,3.59,7.36,3.59,7.36,0V61c0-3.62-7.36-3.7-7.36,0ZM23.69,81.89c0,3.59-7.37,3.59-7.37,0V61c0-3.62,7.37-3.7,7.37,0Z" transform="translate(-4.05 -2.39)"/><path class="cls-5" d="M9,56S5.11,68,14.59,73.81L12.28,78.5C1,71.55,6.36,55.16,6.39,55.12Z" transform="translate(-4.05 -2.39)"/><path class="cls-5" d="M91.23,56s3.85,12-5.63,17.82l2.31,4.69c11.32-7,5.93-23.34,5.89-23.38Z" transform="translate(-4.05 -2.39)"/><path class="cls-2" d="M92.78,44.25H89v4.46a5.25,5.25,0,1,0,3.78,0ZM11.19,48.71a5.23,5.23,0,1,1-7.14,4.9,5.31,5.31,0,0,1,3.36-4.9V44.25h3.78Z" transform="translate(-4.05 -2.39)"/><path class="cls-4" d="M6.2,45.12h6.31C22.18,2.19,78,2.19,87.68,45.12H94c-8.39-56.9-79.4-57-87.79,0Z" transform="translate(-4.05 -2.39)"/><path class="cls-3" d="M11.15,45.12h1.36C22.18,2.19,78,2.19,87.68,45.12H89c-7.59-49.23-70.3-49.35-77.89,0Z" transform="translate(-4.05 -2.39)"/><path class="cls-2" d="M16.32,90.92c-2.68-1.78-4.64-7.67-4.64-14.61s2-12.84,4.64-14.65Z" transform="translate(-4.05 -2.39)"/><path class="cls-2" d="M83.87,90.92c2.68-1.78,4.64-7.67,4.64-14.61s-2-12.84-4.64-14.65Z" transform="translate(-4.05 -2.39)"/></svg>