<svg id="Modo_de_aislamiento" data-name="Modo de aislamiento" xmlns="http://www.w3.org/2000/svg" viewBox="0 0 111.19 27.65"><defs><style>.cls-1{fill:#fff;}</style></defs><path class="cls-1" d="M32.83,28.28c-.31-.2-.7-.4-1.13-.62V13l-6.31-2.55h0l-2.71,1.1V24.85c-.41-.06-.83-.1-1.25-.15V12.08L19.08,13V24.55l-1,0h-.15V12.22l.74-.3L21,11l.39-.16.12,0,1.13-.46,2.27-.91.44-.18V4.43l-7.46-3L14.63,2.74V16.8L15,17l.75.3v7.32h-.08l-.78.08-.34,0V18.08l-1.31-.53L10.45,16.4l-.18-.07-1.9.77V26l-.48.15-.59.2-.13.05V17.58L6,18.08v8.84L5.68,27l-.25.1-.24.12-.45.22c-.58.3-1.09.54-1.49.8L2,29.06l1.34-.55c.42-.2,1-.35,1.55-.57s1.28-.42,2-.64l.57-.17.6-.14,1.25-.3c.43-.1.88-.17,1.34-.25s.92-.18,1.39-.23L13.51,26c.49-.05,1-.08,1.48-.12l.75-.06.77,0,1.53,0,1.53,0c.25,0,.51,0,.76,0l.75.06c.51,0,1,.07,1.49.12l1.45.19c.48,0,.94.15,1.4.23s.9.15,1.33.24L28,27l.59.14.57.17c.75.22,1.44.41,2,.64s1.12.37,1.54.57c.85.36,1.35.55,1.35.55Z" transform="translate(-2 -1.41)"/><polygon class="cls-1" points="11.29 14.85 11.29 1.87 8.45 3.02 8.45 13.7 8.72 13.81 11.29 14.85"/><path class="cls-1" d="M45.8,17.08l3.73,5.13H47.31l-3.44-4.93h-.33v4.93H41.72v-12h2.13a5.32,5.32,0,0,1,3.45.9,3.28,3.28,0,0,1,1.17,2.63,3.4,3.4,0,0,1-.74,2.2A3.25,3.25,0,0,1,45.8,17.08ZM43.54,15.7h.58c1.72,0,2.58-.66,2.58-2s-.84-1.85-2.51-1.85h-.65Z" transform="translate(-2 -1.41)"/><path class="cls-1" d="M57.66,18.82H52.22a2.3,2.3,0,0,0,.6,1.49,1.84,1.84,0,0,0,1.38.55,1.87,1.87,0,0,0,1.09-.31,4.59,4.59,0,0,0,1-1.16l1.48.83a5.74,5.74,0,0,1-.73,1,3.76,3.76,0,0,1-.82.69,3.12,3.12,0,0,1-.94.39,4.75,4.75,0,0,1-1.1.12,3.58,3.58,0,0,1-2.73-1.09,4.1,4.1,0,0,1-1-2.91,4.26,4.26,0,0,1,1-2.92,3.45,3.45,0,0,1,2.67-1.1,3.41,3.41,0,0,1,2.65,1.07,4.23,4.23,0,0,1,1,2.94Zm-1.8-1.43A1.68,1.68,0,0,0,54.09,16a1.89,1.89,0,0,0-.6.09,1.8,1.8,0,0,0-.51.28,1.72,1.72,0,0,0-.4.45,2,2,0,0,0-.25.58Z" transform="translate(-2 -1.41)"/><path class="cls-1" d="M65.17,14.61h1.76v7.6H65.17v-.8a3.38,3.38,0,0,1-4.93-.12,4.24,4.24,0,0,1-1-2.9,4.12,4.12,0,0,1,1-2.85,3.28,3.28,0,0,1,2.55-1.14,3.22,3.22,0,0,1,2.38,1.1ZM61,18.39a2.62,2.62,0,0,0,.58,1.77,1.91,1.91,0,0,0,1.52.7,2,2,0,0,0,1.57-.67,2.59,2.59,0,0,0,.6-1.76,2.62,2.62,0,0,0-.6-1.77A2,2,0,0,0,63.12,16a2,2,0,0,0-1.51.68A2.56,2.56,0,0,0,61,18.39Z" transform="translate(-2 -1.41)"/><path class="cls-1" d="M70.9,9V22.21H69.15V9Z" transform="translate(-2 -1.41)"/><path class="cls-1" d="M85.19,12l-1.48.88a2.52,2.52,0,0,0-.78-.94,1.91,1.91,0,0,0-1-.25,1.88,1.88,0,0,0-1.25.43,1.32,1.32,0,0,0-.5,1.06c0,.59.43,1.06,1.31,1.42l1.2.49a5.18,5.18,0,0,1,2.14,1.45,3.26,3.26,0,0,1,.68,2.09,3.65,3.65,0,0,1-1.11,2.74,3.78,3.78,0,0,1-2.77,1.09A3.68,3.68,0,0,1,79,21.5a4.3,4.3,0,0,1-1.26-2.61l1.84-.41A3.07,3.07,0,0,0,80.06,20a1.88,1.88,0,0,0,1.63.78,1.92,1.92,0,0,0,1.42-.57,2,2,0,0,0,.56-1.45,2.2,2.2,0,0,0-.1-.64,2.06,2.06,0,0,0-.3-.54,2.82,2.82,0,0,0-.54-.46,5.61,5.61,0,0,0-.78-.41l-1.16-.48c-1.65-.69-2.47-1.71-2.47-3a2.9,2.9,0,0,1,1-2.27,3.71,3.71,0,0,1,2.58-.92A3.61,3.61,0,0,1,85.19,12Z" transform="translate(-2 -1.41)"/><path class="cls-1" d="M89.43,16.25v6H87.68v-6h-.75V14.61h.75V11.83h1.75v2.78H90.8v1.64Z" transform="translate(-2 -1.41)"/><path class="cls-1" d="M97.73,14.61h1.76v7.6H97.73v-.8a3.39,3.39,0,0,1-4.94-.12,4.24,4.24,0,0,1-1-2.9,4.12,4.12,0,0,1,1-2.85,3.3,3.3,0,0,1,2.56-1.14,3.24,3.24,0,0,1,2.38,1.1Zm-4.16,3.78a2.62,2.62,0,0,0,.58,1.77,1.89,1.89,0,0,0,1.51.7,2,2,0,0,0,1.58-.67,2.59,2.59,0,0,0,.6-1.76,2.62,2.62,0,0,0-.6-1.77A2,2,0,0,0,95.68,16a2,2,0,0,0-1.51.68A2.56,2.56,0,0,0,93.57,18.39Z" transform="translate(-2 -1.41)"/><path class="cls-1" d="M103.51,16.25v6h-1.75v-6H101V14.61h.75V11.83h1.75v2.78h1.37v1.64Z" transform="translate(-2 -1.41)"/><path class="cls-1" d="M113.12,18.82h-5.44a2.31,2.31,0,0,0,.61,1.49,1.84,1.84,0,0,0,1.38.55,1.82,1.82,0,0,0,1.08-.31,4.59,4.59,0,0,0,1-1.16l1.48.83a6.29,6.29,0,0,1-.72,1,4,4,0,0,1-.82.69,3.23,3.23,0,0,1-.94.39,4.82,4.82,0,0,1-1.1.12,3.55,3.55,0,0,1-2.73-1.09,4.06,4.06,0,0,1-1-2.91,4.21,4.21,0,0,1,1-2.92,3.79,3.79,0,0,1,5.31,0,4.19,4.19,0,0,1,1,2.94Zm-1.8-1.43a1.67,1.67,0,0,0-1.77-1.4,2,2,0,0,0-.6.09,2,2,0,0,0-.51.28,1.89,1.89,0,0,0-.39.45,2,2,0,0,0-.25.58Z" transform="translate(-2 -1.41)"/></svg>