<svg id="Modo_de_aislamiento" data-name="Modo de aislamiento" xmlns="http://www.w3.org/2000/svg" viewBox="0 0 48.66 36.1"><defs><style>.cls-1{fill:#7d8ca6;}</style></defs><path class="cls-1" d="M52.38,5.22c-10.23,7.33-9.47,16.5-6.87,17a10.85,10.85,0,0,1,6,2.59A8.91,8.91,0,1,1,38.94,37.45c-5.35-5.5-2.75-16.19,1.37-22.91A25.73,25.73,0,0,1,51.47,4ZM22,5.22c-10.24,7.33-9.47,16.5-7,17a10.8,10.8,0,0,1,6.11,2.59A8.91,8.91,0,1,1,8.53,37.45C3.19,32,5.79,21.26,9.91,14.54A26,26,0,0,1,20.91,4Z" transform="translate(-5.52 -3.99)"/></svg>