<svg id="Capa_1" data-name="Capa 1" xmlns="http://www.w3.org/2000/svg" viewBox="0 0 644.3 198.86"><defs><style>.cls-1,.cls-2{fill:#fff;}.cls-2{fill-rule:evenodd;}.cls-3{fill:#d88506;}</style></defs><path class="cls-1" d="M143.59,161.33a49,49,0,0,1-19-3.69A47.51,47.51,0,0,1,95,113.3a46.32,46.32,0,0,1,3.82-18.82,47,47,0,0,1,10.6-15.2A48.49,48.49,0,0,1,125.3,69.15a52,52,0,0,1,19.48-3.62,53.06,53.06,0,0,1,21.77,4.34,44.63,44.63,0,0,1,16.26,12L168.73,95.93a29.28,29.28,0,0,0-10.53-8.69,31.36,31.36,0,0,0-13.69-2.9A29.33,29.33,0,0,0,129.91,88,25.77,25.77,0,0,0,119.84,98.1a30.71,30.71,0,0,0-3.62,15.2,31.5,31.5,0,0,0,3.56,15.26,26.1,26.1,0,0,0,9.73,10.27,27.29,27.29,0,0,0,14.22,3.68,28.9,28.9,0,0,0,13.88-3.09,21.19,21.19,0,0,0,8.81-8.95,30.2,30.2,0,0,0,3.09-14.28l13.69,9.21-41.45-.66V107.25h48.82v3q0,16.71-6,28.1A40.51,40.51,0,0,1,168,155.54,50.07,50.07,0,0,1,143.59,161.33Z" transform="translate(-18.66 -16.75)"/><path class="cls-1" d="M229.66,161.33a32.65,32.65,0,0,1-15.6-3.62,26.65,26.65,0,0,1-10.59-10A28,28,0,0,1,199.65,133V95.93h20.13v36.84a13.22,13.22,0,0,0,1.12,5.66,8.21,8.21,0,0,0,3.36,3.68,10.44,10.44,0,0,0,5.4,1.32,9.24,9.24,0,0,0,7.1-2.83c1.75-1.89,2.63-4.49,2.63-7.83V95.93h20.13v37a28.35,28.35,0,0,1-3.81,14.81,26.89,26.89,0,0,1-10.53,10A32.22,32.22,0,0,1,229.66,161.33Z" transform="translate(-18.66 -16.75)"/><path class="cls-1" d="M282.29,87.11a10.35,10.35,0,0,1-7.83-3.23,11.54,11.54,0,0,1,0-15.72A10.47,10.47,0,0,1,282.29,65a10.27,10.27,0,0,1,7.76,3.16,11.71,11.71,0,0,1,0,15.72A10.15,10.15,0,0,1,282.29,87.11Zm-10.14,72.77V95.93h20.14v63.95Z" transform="translate(-18.66 -16.75)"/><path class="cls-1" d="M301.1,113V95.93h49.09V113Zm14.48,46.85V69.48h20.13v90.4Z" transform="translate(-18.66 -16.75)"/><path class="cls-1" d="M384.4,161.2a29,29,0,0,1-15.73-4.34A31.06,31.06,0,0,1,357.75,145a35.64,35.64,0,0,1-4-17.11,35.62,35.62,0,0,1,4-17.1A31,31,0,0,1,368.67,99a29,29,0,0,1,15.73-4.34,26.51,26.51,0,0,1,11.65,2.5,22.65,22.65,0,0,1,8.48,6.91,18.56,18.56,0,0,1,3.69,10.07v27.63a18.92,18.92,0,0,1-3.62,10.07,22,22,0,0,1-8.49,6.91A27,27,0,0,1,384.4,161.2ZM388.48,143a13.45,13.45,0,0,0,10.39-4.28,15.36,15.36,0,0,0,4-10.86,16.93,16.93,0,0,0-1.78-7.89,13.12,13.12,0,0,0-5-5.33,15.43,15.43,0,0,0-14.87,0A14,14,0,0,0,376,120a17.33,17.33,0,0,0-.06,15.66,13.72,13.72,0,0,0,5.13,5.39A14,14,0,0,0,388.48,143ZM402,159.88V142.64l3-15.52-3-15.53V95.93h19.75v63.95Z" transform="translate(-18.66 -16.75)"/><path class="cls-1" d="M436,159.88V95.93h20.13v63.95Zm20.13-35.14-8.42-6.58q2.51-11.18,8.42-17.37c4-4.12,9.43-6.18,16.45-6.18a21.92,21.92,0,0,1,8.1,1.38,16.29,16.29,0,0,1,6.11,4.28l-12,15.13a8.73,8.73,0,0,0-3.29-2.23,11.87,11.87,0,0,0-4.47-.79,10.49,10.49,0,0,0-8,3.09Q456.11,118.56,456.11,124.74Z" transform="translate(-18.66 -16.75)"/><path class="cls-1" d="M95,213.35v-32h7.11v32Z" transform="translate(-18.66 -16.75)"/><path class="cls-1" d="M108.3,213.35v-32h5l2.12,6.39v25.59Zm22.06,0-18.84-24.14,1.77-7.84,18.84,24.14Zm0,0-1.9-6.39V181.37h7.11v32Z" transform="translate(-18.66 -16.75)"/><path class="cls-1" d="M150.69,213.85a16.42,16.42,0,0,1-6.77-1.29,16,16,0,0,1-5.18-3.92l4.62-4.58a11.46,11.46,0,0,0,3.42,2.74,9.35,9.35,0,0,0,4.37,1,6.33,6.33,0,0,0,3.51-.82,2.56,2.56,0,0,0,1.24-2.26,2.88,2.88,0,0,0-.81-2.13,7.08,7.08,0,0,0-2.15-1.4c-.9-.4-1.88-.77-2.95-1.14s-2.13-.77-3.19-1.24a13.3,13.3,0,0,1-2.92-1.77,8,8,0,0,1-2.15-2.67A9,9,0,0,1,146.3,182a14.45,14.45,0,0,1,5.84-1.11,15.7,15.7,0,0,1,6.14,1.17,12.66,12.66,0,0,1,4.6,3.22l-4.62,4.57a11.14,11.14,0,0,0-2.92-2.22,7.47,7.47,0,0,0-3.33-.72,5.39,5.39,0,0,0-2.95.7,2.27,2.27,0,0,0-1.08,2,2.56,2.56,0,0,0,.81,2,7.13,7.13,0,0,0,2.15,1.29c.89.36,1.87.72,2.95,1.08s2.13.79,3.19,1.27a13.54,13.54,0,0,1,2.92,1.83,8.29,8.29,0,0,1,2.15,2.81,9.6,9.6,0,0,1,.82,4.19,8.69,8.69,0,0,1-3.26,7.18C157.53,213,154.53,213.85,150.69,213.85Z" transform="translate(-18.66 -16.75)"/><path class="cls-1" d="M164.15,187.58v-6.21h27.13v6.21Zm10,25.77V181.83h7.11v31.52Z" transform="translate(-18.66 -16.75)"/><path class="cls-1" d="M195.26,213.35v-32h7.11v32Zm5.44-13.18v-5.25h6.74a4.65,4.65,0,0,0,3.29-1.09,4.26,4.26,0,0,0,0-5.8,4.44,4.44,0,0,0-3.26-1.13H200.7v-5.53h7.6a12.35,12.35,0,0,1,5.58,1.2,9.37,9.37,0,0,1,3.76,3.33,9.59,9.59,0,0,1,0,9.81,9.14,9.14,0,0,1-3.81,3.28,13.06,13.06,0,0,1-5.75,1.18Zm12,13.18-10-13.77,6.52-1.77,11.87,15.54Z" transform="translate(-18.66 -16.75)"/><path class="cls-1" d="M236.93,213.85a14.06,14.06,0,0,1-7-1.68,12.14,12.14,0,0,1-4.71-4.64,13.42,13.42,0,0,1-1.69-6.77V181.37h7.15v19.8a6.39,6.39,0,0,0,.82,3.3,5.46,5.46,0,0,0,2.24,2.15,6.66,6.66,0,0,0,3.15.75,6.46,6.46,0,0,0,3.17-.75,5.5,5.5,0,0,0,2.15-2.13,6.45,6.45,0,0,0,.79-3.28V181.37h7.16V200.8a13.36,13.36,0,0,1-1.68,6.75,12,12,0,0,1-4.66,4.62A13.94,13.94,0,0,1,236.93,213.85Z" transform="translate(-18.66 -16.75)"/><path class="cls-1" d="M255.86,213.35v-32h5.07L273.52,201h-2.58l12.55-19.61h5.11v32h-7.11v-20l1.27.31-8.2,12.77h-4.71l-8.15-12.77,1.22-.31v20Z" transform="translate(-18.66 -16.75)"/><path class="cls-1" d="M294.72,213.35v-32h7.11v32Zm5.43-25.86v-6.12h17.3v6.12Zm0,12.5v-5.94h15.94V200Zm0,13.36v-6.16h17.53v6.16Z" transform="translate(-18.66 -16.75)"/><path class="cls-1" d="M322.57,213.35v-32h5l2.13,6.39v25.59Zm22.06,0-18.85-24.14,1.77-7.84,18.84,24.14Zm0,0L342.72,207V181.37h7.11v32Z" transform="translate(-18.66 -16.75)"/><path class="cls-1" d="M353.82,187.58v-6.21H381v6.21Zm10,25.77V181.83h7.11v31.52Z" transform="translate(-18.66 -16.75)"/><path class="cls-1" d="M398.52,213.89a17.17,17.17,0,0,1-6.68-1.27,16.65,16.65,0,0,1-5.37-3.53,15.91,15.91,0,0,1-3.57-5.28,17.29,17.29,0,0,1,0-13,16.09,16.09,0,0,1,3.53-5.24,16.33,16.33,0,0,1,5.32-3.49,18.51,18.51,0,0,1,13.32,0,16.74,16.74,0,0,1,5.34,3.49,16,16,0,0,1,3.55,5.26,17.37,17.37,0,0,1,0,13,15.92,15.92,0,0,1-3.53,5.25,16.22,16.22,0,0,1-5.32,3.51A16.93,16.93,0,0,1,398.52,213.89Zm-.09-6.48a9.7,9.7,0,0,0,5-1.26,8.55,8.55,0,0,0,3.33-3.56,11.28,11.28,0,0,0,1.18-5.27,11.79,11.79,0,0,0-.68-4.1,9,9,0,0,0-1.95-3.17,8.46,8.46,0,0,0-3-2,10.22,10.22,0,0,0-3.87-.71,9.86,9.86,0,0,0-5,1.25A8.47,8.47,0,0,0,390.1,192a11.12,11.12,0,0,0-1.18,5.28,12,12,0,0,0,.68,4.12,9.32,9.32,0,0,0,1.92,3.19,8.41,8.41,0,0,0,3,2.06A10.17,10.17,0,0,0,398.43,207.41Z" transform="translate(-18.66 -16.75)"/><path class="cls-1" d="M428.64,213.85a16.35,16.35,0,0,1-6.77-1.29,15.91,15.91,0,0,1-5.19-3.92l4.62-4.58a11.58,11.58,0,0,0,3.42,2.74,9.35,9.35,0,0,0,4.37,1,6.33,6.33,0,0,0,3.51-.82,2.57,2.57,0,0,0,1.25-2.26,2.89,2.89,0,0,0-.82-2.13,7,7,0,0,0-2.15-1.4c-.89-.4-1.87-.77-2.95-1.14s-2.13-.77-3.19-1.24a13.3,13.3,0,0,1-2.92-1.77,8,8,0,0,1-2.15-2.67A9,9,0,0,1,424.24,182a14.47,14.47,0,0,1,5.85-1.11,15.65,15.65,0,0,1,6.13,1.17,12.66,12.66,0,0,1,4.6,3.22l-4.62,4.57a11.14,11.14,0,0,0-2.92-2.22,7.47,7.47,0,0,0-3.33-.72,5.33,5.33,0,0,0-2.94.7,2.25,2.25,0,0,0-1.09,2,2.56,2.56,0,0,0,.81,2,7.13,7.13,0,0,0,2.15,1.29c.9.36,1.88.72,2.95,1.08s2.14.79,3.19,1.27a13.54,13.54,0,0,1,2.92,1.83,8.29,8.29,0,0,1,2.15,2.81,9.6,9.6,0,0,1,.82,4.19,8.69,8.69,0,0,1-3.26,7.18Q434.38,213.85,428.64,213.85Z" transform="translate(-18.66 -16.75)"/><path class="cls-1" d="M453.41,204.83v-6.07h16v6.07Z" transform="translate(-18.66 -16.75)"/><path class="cls-1" d="M498.74,213.85a17.43,17.43,0,0,1-6.63-1.25,16.13,16.13,0,0,1-8.9-8.79,17.24,17.24,0,0,1,0-13,15.88,15.88,0,0,1,3.53-5.24,16.42,16.42,0,0,1,5.32-3.46,18.89,18.89,0,0,1,13.41,0,16.38,16.38,0,0,1,5.19,3.35l-4.76,4.8a9.1,9.1,0,0,0-3.06-2.13,10.44,10.44,0,0,0-4.14-.77,10.12,10.12,0,0,0-3.83.7,8.37,8.37,0,0,0-3,2,9.41,9.41,0,0,0-1.95,3.17,12.36,12.36,0,0,0,0,8.2,9.51,9.51,0,0,0,1.95,3.17,8.66,8.66,0,0,0,3,2,9.76,9.76,0,0,0,3.83.73,10.91,10.91,0,0,0,4.26-.77,9.41,9.41,0,0,0,3.12-2.13l4.8,4.8a17.5,17.5,0,0,1-5.28,3.35A17.76,17.76,0,0,1,498.74,213.85Z" transform="translate(-18.66 -16.75)"/><path class="cls-1" d="M527.64,213.85a14,14,0,0,1-6.95-1.68,12,12,0,0,1-4.71-4.64,13.43,13.43,0,0,1-1.7-6.77V181.37h7.16v19.8a6.48,6.48,0,0,0,.81,3.3,5.46,5.46,0,0,0,2.24,2.15,6.66,6.66,0,0,0,3.15.75,6.43,6.43,0,0,0,3.17-.75,5.44,5.44,0,0,0,2.15-2.13,6.45,6.45,0,0,0,.8-3.28V181.37h7.15V200.8a13.36,13.36,0,0,1-1.68,6.75,12,12,0,0,1-4.66,4.62A13.89,13.89,0,0,1,527.64,213.85Z" transform="translate(-18.66 -16.75)"/><path class="cls-1" d="M546.57,213.35v-32h7.11v32ZM552,200.17v-5.25h6.74a4.65,4.65,0,0,0,3.29-1.09,4.26,4.26,0,0,0,0-5.8,4.44,4.44,0,0,0-3.26-1.13H552v-5.53h7.6a12.35,12.35,0,0,1,5.58,1.2,9.27,9.27,0,0,1,3.75,3.33,9.53,9.53,0,0,1,0,9.81,9,9,0,0,1-3.8,3.28,13.06,13.06,0,0,1-5.75,1.18Zm12,13.18-10-13.77,6.52-1.77,11.87,15.54Z" transform="translate(-18.66 -16.75)"/><path class="cls-1" d="M584.3,213.85a16.35,16.35,0,0,1-6.77-1.29,15.91,15.91,0,0,1-5.19-3.92l4.62-4.58a11.58,11.58,0,0,0,3.42,2.74,9.35,9.35,0,0,0,4.37,1,6.33,6.33,0,0,0,3.51-.82,2.57,2.57,0,0,0,1.25-2.26,2.89,2.89,0,0,0-.82-2.13,7,7,0,0,0-2.15-1.4c-.89-.4-1.87-.77-2.95-1.14s-2.13-.77-3.19-1.24a13.3,13.3,0,0,1-2.92-1.77,8,8,0,0,1-2.15-2.67A9,9,0,0,1,579.9,182a14.47,14.47,0,0,1,5.85-1.11,15.65,15.65,0,0,1,6.13,1.17,12.66,12.66,0,0,1,4.6,3.22l-4.62,4.57a11.14,11.14,0,0,0-2.92-2.22,7.47,7.47,0,0,0-3.33-.72,5.33,5.33,0,0,0-2.94.7,2.25,2.25,0,0,0-1.09,2,2.56,2.56,0,0,0,.81,2,7.13,7.13,0,0,0,2.15,1.29c.9.36,1.88.72,3,1.08s2.14.79,3.19,1.27a13.54,13.54,0,0,1,2.92,1.83,8.29,8.29,0,0,1,2.15,2.81,9.6,9.6,0,0,1,.82,4.19,8.69,8.69,0,0,1-3.26,7.18Q590,213.85,584.3,213.85Z" transform="translate(-18.66 -16.75)"/><path class="cls-1" d="M616.63,213.89a17.21,17.21,0,0,1-6.68-1.27,16.61,16.61,0,0,1-5.36-3.53,15.93,15.93,0,0,1-3.58-5.28,17.29,17.29,0,0,1,0-13,16.09,16.09,0,0,1,3.53-5.24,16.33,16.33,0,0,1,5.32-3.49,18.51,18.51,0,0,1,13.32,0,16.63,16.63,0,0,1,5.34,3.49,16,16,0,0,1,3.56,5.26,17.37,17.37,0,0,1,0,13,16.22,16.22,0,0,1-8.86,8.76A16.93,16.93,0,0,1,616.63,213.89Zm-.09-6.48a9.76,9.76,0,0,0,5-1.26,8.67,8.67,0,0,0,3.33-3.56,11.4,11.4,0,0,0,1.17-5.27,11.56,11.56,0,0,0-.68-4.1,9.12,9.12,0,0,0-1.94-3.17,8.5,8.5,0,0,0-3-2,10.22,10.22,0,0,0-3.87-.71,9.79,9.79,0,0,0-5,1.25,8.43,8.43,0,0,0-3.33,3.49,11.12,11.12,0,0,0-1.18,5.28,12,12,0,0,0,.68,4.12,9.18,9.18,0,0,0,1.93,3.19,8.37,8.37,0,0,0,3,2.06A10.21,10.21,0,0,0,616.54,207.41Z" transform="translate(-18.66 -16.75)"/><path class="cls-1" d="M646.75,213.85a16.39,16.39,0,0,1-6.77-1.29,15.91,15.91,0,0,1-5.19-3.92l4.62-4.58a11.71,11.71,0,0,0,3.42,2.74,9.38,9.38,0,0,0,4.37,1,6.33,6.33,0,0,0,3.51-.82A2.57,2.57,0,0,0,652,204.7a2.85,2.85,0,0,0-.82-2.13,7,7,0,0,0-2.15-1.4c-.89-.4-1.87-.77-2.94-1.14s-2.14-.77-3.19-1.24a13.3,13.3,0,0,1-2.92-1.77,8,8,0,0,1-2.16-2.67A9,9,0,0,1,642.36,182a14.45,14.45,0,0,1,5.84-1.11,15.73,15.73,0,0,1,6.14,1.17,12.62,12.62,0,0,1,4.59,3.22l-4.62,4.57a11,11,0,0,0-2.92-2.22,7.47,7.47,0,0,0-3.33-.72,5.38,5.38,0,0,0-2.94.7,2.25,2.25,0,0,0-1.09,2,2.54,2.54,0,0,0,.82,2,7,7,0,0,0,2.15,1.29q1.34.54,2.94,1.08c1.07.37,2.14.79,3.2,1.27a13.78,13.78,0,0,1,2.92,1.83,8.29,8.29,0,0,1,2.15,2.81,9.75,9.75,0,0,1,.81,4.19,8.66,8.66,0,0,1-3.26,7.18Q652.51,213.85,646.75,213.85Z" transform="translate(-18.66 -16.75)"/><path class="cls-2" d="M28.32,123c-3-.05-5.7,4.71-5.37,12,.39,8.57,6.43,17.27,6.43,25.55,0,7.09-10.81,14.78-10.71,29.35.1,16.6,8.4,25.71,31.15,25.71s28.32-10.87,28.32-25c0-13-8.38-17.35-8.38-27.07,0-10.22,5.42-14.88,6.43-20.6,1.19-6.77-2.56-9.85-5.33-8.78-2.46,1-1.34,7.37-9.92,7.55-4.12.09-7.16-3.77-7.16-13.33s-9.64-10.6-10.22-1.22c-.18,2.78-1.06,8.14-6.81,8.17C30.35,135.34,32.14,123.11,28.32,123Z" transform="translate(-18.66 -16.75)"/><polygon class="cls-2" points="24.62 124.69 35.27 124.69 33.42 35.05 26.46 35.05 24.62 124.69"/><path class="cls-2" d="M59.24,42.62A61.86,61.86,0,0,1,60,25.35c1.67-8.41-.47-13.15-5.12-2.27L43.74,49.2c-.44,1-1.17,1.46.31,3.55a4.71,4.71,0,0,1,1,2.35h7.09c0-1.18,1.37-4.32,3.87-6.42C57.55,47.38,59.4,44.46,59.24,42.62Z" transform="translate(-18.66 -16.75)"/><rect class="cls-1" x="52.94" y="24.84" width="1" height="3.38" transform="translate(-10.64 48.48) rotate(-66.84)"/><path class="cls-2" d="M51.63,27.38l-1.08-.46c-.85-.76,0-2.71,1.13-2.63l1.07.46C53.22,25.35,52.38,27.31,51.63,27.38Z" transform="translate(-18.66 -16.75)"/><rect class="cls-1" x="51.13" y="29.06" width="1" height="3.38" transform="translate(-15.62 49.37) rotate(-66.83)"/><path class="cls-2" d="M49.82,31.61l-1.08-.47c-.85-.76,0-2.71,1.13-2.63L51,29C51.41,29.57,50.57,31.53,49.82,31.61Z" transform="translate(-18.66 -16.75)"/><rect class="cls-1" x="49.33" y="33.28" width="1" height="3.38" transform="translate(-20.6 50.27) rotate(-66.82)"/><path class="cls-2" d="M48,35.83l-1.07-.46c-.85-.76,0-2.72,1.12-2.63l1.08.46C49.61,33.79,48.77,35.75,48,35.83Z" transform="translate(-18.66 -16.75)"/><rect class="cls-1" x="47.52" y="37.5" width="1" height="3.38" transform="translate(-25.57 51.19) rotate(-66.85)"/><path class="cls-2" d="M46.21,40.05l-1.08-.46c-.85-.76,0-2.72,1.13-2.63l1.07.46C47.8,38,47,40,46.21,40.05Z" transform="translate(-18.66 -16.75)"/><rect class="cls-1" x="45.72" y="41.73" width="1" height="3.38" transform="translate(-30.55 52.07) rotate(-66.83)"/><path class="cls-2" d="M44.4,44.27l-1.08-.46c-.85-.76,0-2.72,1.13-2.63l1.08.46C46,42.23,45.15,44.2,44.4,44.27Z" transform="translate(-18.66 -16.75)"/><rect class="cls-1" x="43.91" y="45.95" width="1" height="3.38" transform="translate(-35.53 52.97) rotate(-66.83)"/><path class="cls-2" d="M42.6,48.49,41.52,48c-.85-.76,0-2.72,1.12-2.63l1.08.46C44.19,46.46,43.35,48.42,42.6,48.49Z" transform="translate(-18.66 -16.75)"/><path class="cls-3" d="M499,159.62V65.93h26.31v93.69Zm21.45,0V137.25h43.82v22.37Z" transform="translate(-18.66 -16.75)"/><path class="cls-3" d="M565.19,159.62l35.67-93.69H627.7L663,159.62H635.6L609.41,80h9.47L592,159.62Zm23.17-15.79V123.3h52.37v20.53Z" transform="translate(-18.66 -16.75)"/></svg>