<svg xmlns="http://www.w3.org/2000/svg" viewBox="0 0 438.84 414.47"><defs><style>.cls-1{fill:#263238}.cls-2{fill:#f5f5f5}.cls-3{fill:#fff}.cls-4{fill:#ebebeb}.cls-5{fill:#e8505b}.cls-7{fill:#fafafa}.cls-9{fill:#ffbe9d}.cls-11{fill:#e0e0e0}.cls-12{fill:#455a64}.cls-14{fill:#eb996e}</style></defs><g id="Device"><path class="cls-1" d="M203.82 444.56H64.65c-16.81-.07-31-14.41-31-31.23l1.53-350.51a30.45 30.45 0 0130.59-30.33l139.82.65a30.44 30.44 0 0130.31 30.58l-1.48 350.51a30.45 30.45 0 01-30.6 30.33z" transform="translate(-33.69 -32.49)"/><path class="cls-2" d="M205.39 46.45l-27.11-.12a6.72 6.72 0 00-6.61 6.85v4.92A6.74 6.74 0 01165 65l-52.8-.3a6.74 6.74 0 01-6.56-6.91v-4.91A6.74 6.74 0 0099.11 46h-9.53l-23.73-.11a21.34 21.34 0 00-21.43 21.16L43 409.18a21.33 21.33 0 0021.21 21.42l139.53.64A21.33 21.33 0 00225.17 410l1.45-342.13a21.34 21.34 0 00-21.23-21.42z" transform="translate(-33.69 -32.49)"/><path class="cls-2" d="M146.17 366.59c-.16 4.13-.31 8-.44 11.23h20l-2.45-12.32zm-81.46 5.15l.17 6.08h78.85c.13-3.42.28-7.2.43-11.1z" transform="translate(-33.69 -32.49)"/><path class="cls-2" d="M130.63 332.95l2.47 12.38h36.95l-.45-14.84-38.97 2.46zm-16.16-172.99l6.99-40.51-18.3-1.36v41.87h11.31zm-85.11 156.8L9.5 324.54l-.05 14.07 20.51-1.3-.6-20.55zm-.09-3.16l-1.08-37.73h-.02v-13.31l-18.41 1.95-.24 56.81 19.75-7.74v.02zm-1.1-80.74L9.9 230.44l-.13 31.06 18.4-1.95v-26.69zm136.19 30.26l-.77 10.82-21.58 2.32 1.67 8.56 24.5-1.85-.37-12.27 1.95-8.12-5.4.54zm-38.89 23.07l17.21-1.3-3.75-19.2-15.02 1.52 1.56 18.98zm.16 2l1.31 16.01 2.34 21.96.96 4.81 39.3-2.48-1.3-43.52-42.61 3.22z"/><path class="cls-2" d="M91.67 245.07l1.51 2.59-30.31 17.68v42l32-2.27 61.66-6.22-2.25-27.49-58.91-7.7.39-3 58.24 7.59-3.83-46.53-57.67 5.54-.19-2 57.7-5.54-2-24.28H92.56l-48.72 8.86-.23 55.6 18.45 2.43zM66 303.28s.23-34.58 0-35.87l24.74-13.16 3.2 47.27z" transform="translate(-33.69 -32.49)"/><path class="cls-2" d="M162.34 263.33l-22.41 2.26 1.7 8.7 20.08-2.16.63-8.8z"/><path class="cls-2" d="M146.45 359.18l-.21 5.4 16.68-1.06-.85-4.3z" transform="translate(-33.69 -32.49)"/><path class="cls-2" d="M76.83 159.96l2.94-13.32h22.39v-28.62l-70.02-5.19v26.87l-21.87 4.95-.11 24.12 48.44-8.81h18.23z"/><path class="cls-2" d="M157.25 112.82l-.6-2.45 26.74-10.58L166 64.87a6.24 6.24 0 01-1 .08l-29.54-.14.8 48.87zm40.52-18.73V46.42l-19.46-.09a6.72 6.72 0 00-6.61 6.85v4.92a7 7 0 01-2.87 5.64l17.41 34.94zM97.25 96.14L95 45.94h-5.41l-21.15-.1-9 44.89zM92.43 51l.72 40.88L65 87.8 71.19 51zm5.84 45.29v.42c0 3.92.13 11 .19 18.51l36.83-1.5-.81-48.91-22.28-.11a6.74 6.74 0 01-6.56-6.91v-4.91A6.74 6.74 0 0099.11 46H96l2.26 50.33zm-41.83-6.01l8.93-44.45a21.33 21.33 0 00-21 21.22l-.09 22.16.09-.65z" transform="translate(-33.69 -32.49)"/><path class="cls-2" d="M29.14 112.61l-18.73-1.39-.13 30.35 18.86-4.26v-24.7zm-6.59-53.84l-11.92-1.71-.2 49.15 2.56.19 9.56-47.63zm37.83 254.25l.32-39.45-31.51 2.23 1.11 38.65 30.08-1.43z"/><path class="cls-2" d="M99.87 336.41l44.63 21.38c.53-14 1-27 1-27.87l1-.05.47-.94c.64.31.64.31.31 9.84-.19 5.31-.45 12.38-.72 19.45h15.43l-2.28-21.44-3-37-58.41 5.9z" transform="translate(-33.69 -32.49)"/><path class="cls-2" d="M175.57 238.44l-.5-5.21-53.5 5.57 2.26 27.41 46.18-4.66 5.56-23.11zm-73.41-88.8H82.18l-2.28 10.32h22.26v-10.32z"/><path class="cls-2" d="M201 185.61l-50-3.46-2 11.82 2 25.66 52.78-5.08zM152.8 194l2.69-7.46 43.51 2.7 2.52 21.34-47.2 5.6z" transform="translate(-33.69 -32.49)"/><path class="cls-2" d="M172.5 206.75l-2.19-22.69-52.81 5.07 1.98 24.16 53.02-6.54zM30.01 339.31l-20.48 1.3-.09-1.33-.02 6.05h20.77l-.18-6.02z"/><path class="cls-2" d="M226.25 82.82l.3.77.07-15.72a21.34 21.34 0 00-21.23-21.42h-6.65v47.28zm-81.79 276.06l-45.55-21.83-1.61-31.27-1.91.19-.32 40.5-31 1.47v.9l.6 20.88 79.59-5c.05-1.95.13-3.9.2-5.84zM66 350.51l43.46-3.05 28.27 13.12L66 364.46zm147.3-215.18l1.86-11.05c-16.33-5.83-17.46-22.87-17.41-28l-10.67 4.22 16.06 32.23z" transform="translate(-33.69 -32.49)"/><path class="cls-2" d="M121.33 235.81l22.21-2.31-4.38-19.62-19.44 2.4 1.61 19.53zm46.06-116.03h-41.48l-3.45-.26-4.68 27.17 49.24 3.4-1.15-11.81 4.85-17.44-3.33-1.06z"/><path class="cls-2" d="M200.07 147.27l.52-13-16.31-32.73-25.28 10 8.69 35.68zm-16.77-41.71L198.24 134l-2.16 8.86-25.56-1-6.39-26.86z" transform="translate(-33.69 -32.49)"/><path class="cls-2" d="M172.83 271.22l.76 25.47 17.97-1.01.06 1-18 1.01.92 30.48 16.99-1.07.13 1.99-17.06 1.08.45 15.16h16.56l.36-84.99-16.94 1.71-2.2 9.17z"/><path class="cls-2" d="M97.28 97.15l-38.06-5.46-9.52 47.42 47.75 3.54c.19-7.3.02-29.65-.17-45.5z" transform="translate(-33.69 -32.49)"/><path class="cls-2" d="M126.18 114.78h5.76l-8.15-33.46-21.18.87.51 30.89 23.06 1.7z"/><path class="cls-2" d="M43 402.16v7.64zm55.42-259.44l37.39 2.77-.5-30.77-36.84 1.5c.08 10.41.11 21.51-.05 26.5z" transform="translate(-33.69 -32.49)"/><path class="cls-2" d="M172.79 209.74l-32.63 4.02 4.38 19.63 30.24-3.14-1.99-20.51z"/><path class="cls-2" d="M215.33 123.27l2.09-12.4 9 .7.11-26.71-27.78 11c-.56 18.79 11.25 25.4 16.58 27.41z" transform="translate(-33.69 -32.49)"/><path class="cls-2" d="M170.94 138.72l1.13 11.72 20.36 1.41.1-24.13-17.04-5.38-4.55 16.38z"/><path class="cls-2" d="M214.32 271.28L209 293.51l16.69-1.69.1-23.31c-5.12-1.35-9.6-2.45-12-2.91z" transform="translate(-33.69 -32.49)"/><path class="cls-2" d="M169.36 115.16l23.19 7.33.06-13.19-22.78-5.89-.47 11.75z"/><path class="cls-2" d="M213.48 262.55c1.87.28 5.41 1 12.3 2.85l.22-51-17 1.64z" transform="translate(-33.69 -32.49)"/><path class="cls-2" d="M175.09 181.59l17.22-1.66.11-25.07-20.05-1.39 2.72 28.12z"/><path class="cls-2" d="M217.26 123.9a93.52 93.52 0 009.11 2.33v-12.66l-7.33-.57zm-2.01 11.93l11.07 2.86.05-11.43c-2.87-.58-6-1.36-9.28-2.36z" transform="translate(-33.69 -32.49)"/><path class="cls-3" d="M63.71 371.8l.17 6h1l-.17-6.08 79.45-5c-.15 3.9-.3 7.68-.43 11.1h2c.13-3.23.28-7.1.44-11.23l17.15-1.09 2.45 12.32h1l-2.46-12.38 39-2.46.44 14.84h5l-.46-15.16 17.06-1.08-.13-2-17 1.08-.91-30.48 18-1-.06-1-18 1-.77-25.47 2.21-9.17 16.94-1.71v-1L209 293.51l5.34-22.23-.55-5.68c2.4.46 6.88 1.56 12 2.91v-3.11c-6.89-1.82-10.43-2.57-12.3-2.85L209 216.07l17-1.64v-2l-17.23 1.66-2.71-28.09 20.05 1.39v-3l-20.35-1.41-1.14-11.72 4.55-16.38 17 5.38v-5.23l-23.19-7.33.47-11.75 22.77 5.89v-3.1l-11.07-2.86 1.84-10.93c3.32 1 6.41 1.78 9.28 2.36v-1a93.52 93.52 0 01-9.11-2.33l1.83-10.9 7.33.57v-2l-9-.7-2.09 12.4c-5.33-2-17.14-8.62-16.57-27.42l27.78-11v-1.34l-.3-.77-27.37 10.88V46.42h-1v47.67l-11.58 4.59-17.41-34.94a6.26 6.26 0 01-2.78 1.13l17.39 34.92-26.74 10.58.6 2.45-21 .86-.8-48.87h-1l.81 48.91-36.83 1.5c-.06-7.54-.14-14.59-.19-18.51v-.42L96 46h-1l2.26 50.2-37.84-5.49 9-44.89h-3.05l-8.93 44.46-12-1.72-.09.65v.34l11.92 1.71-9.56 47.63-2.57-.19v5l18.73 1.39v24.69L44 174.06v3.08l21.87-4.95v-26.87l70 5.19v28.62h-22.41l-2.94 13.32H92.29l-48.43 8.81v3.05l48.72-8.86H148l2 24.28-57.7 5.54.19 2 57.67-5.54 3.84 46.52-58.27-7.61-.39 3 58.91 7.7 2.25 27.49L94.86 305l-32 2.27v-42l30.31-17.68-1.51-2.59-29.6 17.34-18.45-2.43v3l18.27 2.42V292l-18.42 2v3l18.42-1.95v13.31L63 346.09l-19.75 7.74V357l19.86-7.78.59 20.55-20.51 1.3v.67l.08 1.33zm82.53-7.22l.21-5.4h15.62l.85 4.3zm17.69-1.12l-1-4.81-2.33-22-1.32-16 42.61-3.21 1.35 43.56zm9.69-65.38l22.38-2.26-.62 8.8-20.09 2.16zm-1 .1l3.75 19.2-17.21 1.3-1.56-19zm29.25 17.28l-24.5 1.85-1.67-8.56 21.58-2.32.77-10.82 5.41-.54-2 8.12zm-29-69.09l4.36 19.63-22.23 2.3-1.6-19.53zm5.37 19.51l-4.38-19.63 32.64-4 2 20.51zm22.48-83.3l-49.24-3.41 4.68-27.17 3.44.26h41.48l3.33 1.06-4.84 17.44zm-3-86.33c-.05 5.16 1.08 22.2 17.41 28l-1.86 11.05-10.16-2.63-16.06-32.23zm-13.47 5.33l16.31 32.73-.52 13h-32.35L159 111.59zm-26.79 12.23l8.15 33.46h-5.76l-23.07-1.7-.5-30.89zm-22.18.91l.5 30.77-37.39-2.77c.16-5 .13-16.09 0-26.5zm-76.09-23l38.06 5.46c.19 15.8.36 38.2.17 45.5l-47.72-3.57zm95.94 60.25l-7 40.51h-11.28v-41.9zm-39.29 30.19h20v10.32h-22.25zm33 11.84l2-11.82 50 3.46 2.81 28.94-52.65 5.05zM204 216.55l2.2 22.69-53 6.54-2-24.16zm-48.73 54.74l53.49-5.57.5 5.2-5.55 23.08-46.19 4.66zm4.37 65.49l2.28 21.44h-15.43c.27-7.07.53-14.14.72-19.45.33-9.53.33-9.53-.31-9.84l-.47.94-1 .05c0 .83-.43 13.9-1 27.87l-44.56-21.38-1.57-30.73 58.31-5.88zm-65.25-30.72l-.31 39.45L64 346.94l-1.11-38.65zm-30.34 42.8v-.9l31.05-1.47.32-40.5 1.91-.19 1.61 31.27 45.55 21.83c-.07 1.94-.15 3.89-.22 5.83l-79.59 5z" transform="translate(-33.69 -32.49)"/><path class="cls-4" d="M75.73 314.98l-43.45 3.04v13.96l71.73-3.89-28.28-13.11zm89.53-158.23L121.79 154l-2.68 7.46 1.47 22.23 47.2-5.6-2.52-21.34zM59.45 59.42l-.72-40.88H37.5l-6.16 36.77 28.11 4.11zm102.94 50.93l2.15-8.86-14.94-28.42-19.17 9.44 6.39 26.88 25.57.96z"/><path class="cls-4" d="M66 267.41c.23 1.29 0 35.87 0 35.87l27.94-1.76-3.2-47.27z" transform="translate(-33.69 -32.49)"/><path class="cls-4" d="M125.47 263l-1.48-21.43 47.93-6.16v3.7l-5.8 19.71-40.65 4.18z"/><path class="cls-5" d="M123.72 117.76a5.84 5.84 0 11-5.84-5.84 5.85 5.85 0 015.84 5.84z" transform="translate(-33.69 -32.49)"/><path class="cls-3" d="M123.71 117.51a5.84 5.84 0 11-6.08-5.58 5.84 5.84 0 016.08 5.58z" transform="translate(-33.69 -32.49)" opacity=".6"/><circle class="cls-5" cx="84.19" cy="85.07" r="3.88"/><path class="cls-5" d="M208.11 350.91a2.5 2.5 0 11-2.5-2.5 2.5 2.5 0 012.5 2.5z" transform="translate(-33.69 -32.49)"/><path class="cls-5" d="M204.11 350.1l-.6-14-42.13 2.05a6.39 6.39 0 01-3.18-.68l-59.75-30.16a4.34 4.34 0 01-2.37-3.64l-8.14-157.74a2.63 2.63 0 012.83-2.76l25.61 1.89v-28h3v28.38a2.64 2.64 0 01-2.83 2.63L91 146.19l8.11 157.33a1.34 1.34 0 00.73 1.11l59.75 30.18a3.39 3.39 0 001.69.36l42.48-2.07a2.67 2.67 0 011.91.69 2.62 2.62 0 01.86 1.85l.62 14.33z" transform="translate(-33.69 -32.49)"/><circle class="cls-5" cx="59.14" cy="181.93" r="7.56"/><circle class="cls-7" cx="59.14" cy="181.93" r="5.25"/><path class="cls-5" d="M92.83 220.05a5.63 5.63 0 115.63-5.63 5.63 5.63 0 01-5.63 5.63zm0-10.51a4.88 4.88 0 104.88 4.88 4.88 4.88 0 00-4.88-4.88zm44.54-26.83h-36a3.17 3.17 0 00-3.17 3.17v13a3.17 3.17 0 003.17 3.17h.42v3.11l3.6-3.11h32a3.17 3.17 0 003.17-3.17v-13a3.17 3.17 0 00-3.19-3.17z" transform="translate(-33.69 -32.49)"/><path class="cls-3" d="M137.37 182.71h-36a3.17 3.17 0 00-3.17 3.17v13a3.17 3.17 0 003.17 3.17h.42v3.11l3.6-3.11h32a3.17 3.17 0 003.17-3.17v-13a3.17 3.17 0 00-3.19-3.17z" transform="translate(-33.69 -32.49)" opacity=".4"/><path class="cls-3" d="M106.3 192.19a2.16 2.16 0 112.17 2.08 2.07 2.07 0 01-2.17-2.08zm3.74 0a1.58 1.58 0 10-1.57 1.57 1.52 1.52 0 001.53-1.57zm4.58.5a1.5 1.5 0 01-1.56 1.57 1.3 1.3 0 01-1.1-.52v.49h-.53v-4.32h.57v1.7a1.3 1.3 0 011.07-.49 1.49 1.49 0 011.55 1.57zm-.56 0a1 1 0 10-1 1.08 1 1 0 001-1.08zm.27 2.51l.18-.43a.66.66 0 00.45.15c.3 0 .46-.19.46-.54v-3.23h.58v3.22a.92.92 0 01-1 1 1.09 1.09 0 01-.67-.17zm1-5a.36.36 0 01.37-.36.36.36 0 01.38.35.37.37 0 01-.38.37.35.35 0 01-.37-.37zm4.49 2.67h-2.5a1 1 0 001.12.9 1.16 1.16 0 00.89-.37l.3.36a1.52 1.52 0 01-1.21.5 1.54 1.54 0 01-1.66-1.57 1.51 1.51 0 011.55-1.57 1.48 1.48 0 011.52 1.58 1 1 0 01-.01.17zm-2.5-.4h2a1 1 0 00-2 0zm3 .22a1.54 1.54 0 011.63-1.57 1.36 1.36 0 011.25.65l-.42.28a1 1 0 00-.84-.45 1.09 1.09 0 000 2.17 1 1 0 00.84-.44l.42.27a1.37 1.37 0 01-1.25.66 1.55 1.55 0 01-1.63-1.57zm5.38 1.36a1.1 1.1 0 01-.68.21.87.87 0 01-1-1v-1.7h-.53v-.45h.53v-.68h.55v.68h.89v.45h-.89v1.67a.46.46 0 00.49.52.69.69 0 00.43-.14zm.57-3.86a.38.38 0 11.38.36.36.36 0 01-.38-.36zm.1 1h.56v3.08h-.56zm4.35-.04l-1.35 3.08h-.57l-1.35-3.08h.55l1.06 2.47 1.08-2.47zm3.21 1.72h-2.5a1 1 0 001.11.9 1.13 1.13 0 00.89-.37l.31.36a1.52 1.52 0 01-1.21.5 1.54 1.54 0 01-1.66-1.57 1.51 1.51 0 011.55-1.57 1.48 1.48 0 011.52 1.58c0 .05-.01.12-.01.17zm-2.5-.4h2a1 1 0 00-2 0z" transform="translate(-33.69 -32.49)"/><path class="cls-5" d="M125.48 98.15a7.48 7.48 0 10-13.94 3.78c.29.48.65.83 1 1.34l4.35 5.75a1.34 1.34 0 002.15 0l4.28-5.66a16.46 16.46 0 001.08-1.44 7.46 7.46 0 001.08-3.77zm-7.48 3.26a3.3 3.3 0 113.29-3.3 3.3 3.3 0 01-3.29 3.3zm79.8 284.69h-25.31a4.85 4.85 0 00-4.84 4.85v19.92a4.84 4.84 0 004.84 4.84h.65v4.75l5.5-4.75h19.16a4.84 4.84 0 004.84-4.84V391a4.84 4.84 0 00-4.84-4.9z" transform="translate(-33.69 -32.49)"/><path class="cls-7" d="M174.91 395.24v10.22a.4.4 0 00.4.4h21.41a.4.4 0 00.4-.41l-.05-3.74a.4.4 0 00-.08-.23l-3.07-4.11a.38.38 0 00-.31-.16h-3.54a.4.4 0 01-.4-.39v-1.55a.4.4 0 00-.4-.4h-14a.4.4 0 00-.36.37z" transform="translate(-33.69 -32.49)"/><path class="cls-5" d="M190.67 398.08v3.27a.23.23 0 00.23.23l4.73-.08a.23.23 0 00.18-.36l-2.21-3.26a.22.22 0 00-.19-.1l-2.52.07a.22.22 0 00-.22.23z" transform="translate(-33.69 -32.49)"/><path class="cls-7" d="M140.78 373.68h23.07v.71h-23.07z"/><path class="cls-5" d="M182.11 406.44a2.29 2.29 0 11-2.29-2.28 2.29 2.29 0 012.29 2.28z" transform="translate(-33.69 -32.49)"/><path class="cls-7" d="M181.17 406.44a1.35 1.35 0 11-1.35-1.34 1.34 1.34 0 011.35 1.34z" transform="translate(-33.69 -32.49)"/><path class="cls-5" d="M189.65 405.86c-.05 0-.1-2.47-.1-5.51s0-5.51.1-5.51.11 2.47.11 5.51-.05 5.51-.11 5.51zm4.89.58a2.28 2.28 0 11-2.28-2.28 2.28 2.28 0 012.28 2.28z" transform="translate(-33.69 -32.49)"/><path class="cls-7" d="M193.6 406.44a1.34 1.34 0 11-1.34-1.34 1.34 1.34 0 011.34 1.34z" transform="translate(-33.69 -32.49)"/><path class="cls-5" d="M192.27 402.23c0 .06-.33.1-.73.1s-.73 0-.73-.1.32-.11.73-.11.73.05.73.11z" transform="translate(-33.69 -32.49)"/></g><g id="Character"><path class="cls-9" d="M342 236.66s16.13 2.72 17.43 3.07 6.41 2.77 6.67 4.33a46.79 46.79 0 010 6.15s-.92.75-1.5-.75a15.31 15.31 0 01-.49-4.47l-2.86-1.1 1.56 2.77.26 6.49s-2-.18-2.39-1.73a16.07 16.07 0 01-.38-3.29l-2.08-1.76 1.56 2.11.52 4.67s-1.52.5-2-.54a16.44 16.44 0 01-.51-4.13l-5.88-2.06-3.9 2.17-7.27-4.11z" transform="translate(-33.69 -32.49)"/><path class="cls-5" d="M285.56 196.79c.07.32 19.43 27 19.43 27l38.9 12.1-1.77 14.61-47.67-9.6-16.92-19.41z" transform="translate(-33.69 -32.49)"/><path d="M285.56 196.79c.07.32 19.43 27 19.43 27l38.9 12.1-1.77 14.61-47.67-9.6-16.92-19.41z" transform="translate(-33.69 -32.49)" opacity=".2"/><rect class="cls-2" x="101.57" y="200.99" width="85.58" height="15.49" rx="3.05"/><path class="cls-1" d="M217.8 249s.17 0 .5-.07a3.06 3.06 0 002.45-2.63v-9.81a2.91 2.91 0 00-2.16-2.73 4.52 4.52 0 00-1.34-.09h-9.28l-69.61.08a2.76 2.76 0 00-2.06.91 2.87 2.87 0 00-.73 2.15v8.71a4.18 4.18 0 00.1 1.14 2.82 2.82 0 002.39 2h19.66l31.29.06 21.1.08h7.23-7.23l-21.1.08-31.29.06h-19.71a3.46 3.46 0 01-1.25-.4 3.34 3.34 0 01-1.58-2 4.06 4.06 0 01-.12-1.28v-8.46a3.4 3.4 0 01.86-2.5 3.3 3.3 0 012.45-1.08l69.61.08h9.28a5.72 5.72 0 011.42.12 3.2 3.2 0 012.35 3v9.84a3.12 3.12 0 01-1.21 2.09 3 3 0 01-1.38.57 1.78 1.78 0 01-.64.08z" transform="translate(-33.69 -32.49)"/><circle class="cls-1" cx="431.65" cy="406.07" r="40.89" transform="rotate(-2.75 -262.145 1091.708)"/><path class="cls-1" d="M390.77 405.37v.11a40.89 40.89 0 0081.77 1.18v-.11z" transform="translate(-33.69 -32.49)"/><path class="cls-7" d="M402.94 405.65a28.71 28.71 0 1029.12-28.29 28.71 28.71 0 00-29.12 28.29z" transform="translate(-33.69 -32.49)"/><path class="cls-11" d="M432.06 377.36a28.71 28.71 0 00-29.12 28.29l57.41.83a28.71 28.71 0 00-28.29-29.12z" transform="translate(-33.69 -32.49)"/><path class="cls-1" d="M414.16 405.81a17.49 17.49 0 1017.74-17.23 17.49 17.49 0 00-17.74 17.23z" transform="translate(-33.69 -32.49)"/><path class="cls-5" d="M412.24 346.11s41.86-12.66 59.18 32.82l-87.61 27.14z" transform="translate(-33.69 -32.49)"/><circle class="cls-1" cx="179.36" cy="406.07" r="40.89" transform="rotate(-2.75 -514.343 1091.699)"/><path class="cls-1" d="M138.48 405.37a.41.41 0 010 .11 40.89 40.89 0 0081.77 1.18v-.11z" transform="translate(-33.69 -32.49)"/><path class="cls-7" d="M150.66 405.65a28.7 28.7 0 1029.11-28.29 28.7 28.7 0 00-29.11 28.29z" transform="translate(-33.69 -32.49)"/><path class="cls-11" d="M179.77 377.36a28.7 28.7 0 00-29.11 28.29l57.4.83a28.71 28.71 0 00-28.29-29.12z" transform="translate(-33.69 -32.49)"/><path class="cls-1" d="M161.87 405.81a17.49 17.49 0 1017.74-17.23 17.5 17.5 0 00-17.74 17.23z" transform="translate(-33.69 -32.49)"/><path class="cls-12" d="M237.52 389.65c-.23.12-21.52-3.29-21.52-3.29a13 13 0 01-9.71 5.08c-9.2.45-18.19.85-26 1.2a13.18 13.18 0 00-12.58 13.73A13.2 13.2 0 00180.4 419l45.28 1.78c7.44.29 17.34-4.23 22-10.06z" transform="translate(-33.69 -32.49)"/><path class="cls-5" d="M126.28 371.56s-2-39.85 35.5-48.15v-5.11H293v12.18s-19.26 23.19-13 42.44 8.25 21.22 8.25 21.22h74.67a51.13 51.13 0 009.43-28.29c.39-16.9-6.63-45.79-11.87-64.26-4.77-16.8-7.78-30.84-7.78-30.84l22.4-7.47s41.44 54.2 43.14 57.24 7.45 10.16 6.09 25.74-38.6 63.65-48.42 69.07-18.62 5.76-27.42 7.11c-7.65 1.18-64.17.4-79 .17a29 29 0 01-14.59-4.05c-4.42-2.68-7.75-7.12-11.42-14.4l-7.79-15.24z" transform="translate(-33.69 -32.49)"/><path class="cls-12" d="M136.32 368.79l-16.53 25.88a4 4 0 004.92 5.92 19.34 19.34 0 005.54-3.76c7.56-7.19 21-26.13 21-26.13z" transform="translate(-33.69 -32.49)"/><path class="cls-1" d="M254.81 373.45a1.73 1.73 0 01.09-.38c.09-.27.2-.63.34-1.09a27.74 27.74 0 00.86-4.27 30.14 30.14 0 00-2.56-15.62 32.68 32.68 0 00-6.08-9.15 40 40 0 00-10.05-7.66 50.62 50.62 0 00-13.1-4.88 69 69 0 00-15-1.55 113 113 0 00-15.02 1.15c-4.84.65-9.48 1.45-13.85 2.45a82.16 82.16 0 00-22.26 8.23 55.06 55.06 0 00-12.71 9.71 50.222 50.222 0 00-2.9 3.26l-.71.89c-.16.2-.25.3-.26.29a33.61 33.61 0 013.72-4.58 54 54 0 0112.68-9.93 81.36 81.36 0 0122.33-8.38c4.39-1 9-1.83 13.89-2.49a113.9 113.9 0 0115.12-1.12 68.81 68.81 0 0115.08 1.57 51.31 51.31 0 0113.23 5 40.33 40.33 0 0110.12 7.78 32.92 32.92 0 016.11 9.3 30 30 0 012.42 15.8 26.5 26.5 0 01-1 4.27c-.17.46-.29.81-.39 1.08z" transform="translate(-33.69 -32.49)"/><path class="cls-2" d="M247.25 364.5c-.06 0 .22-.63.49-1.77a12.94 12.94 0 00.15-5 20.34 20.34 0 00-2.44-6.94 24.37 24.37 0 00-2.41-3.64 22.42 22.42 0 00-3.25-3.37 28.59 28.59 0 00-7.81-4.56 36.53 36.53 0 00-7.16-2 49.68 49.68 0 00-5-.57 14.69 14.69 0 01-1.84-.14 1.61 1.61 0 01.48 0h1.37a37.4 37.4 0 015 .41 34.58 34.58 0 017.28 1.87 28.51 28.51 0 018 4.61 22.91 22.91 0 013.32 3.45 25.88 25.88 0 012.44 3.73 20.3 20.3 0 012.38 7.12 12.46 12.46 0 01-.32 5.06 6.49 6.49 0 01-.48 1.29 1.76 1.76 0 01-.2.45z" transform="translate(-33.69 -32.49)"/><path d="M221.56 329.59a52.54 52.54 0 0119.75 8 34.93 34.93 0 0113.24 16.44c2.61 6.74 2.22 15.67-.53 21.25l9.27.77c3.12-10.41-.28-23.18-7.78-31.33a46 46 0 00-33.95-15.17" transform="translate(-33.69 -32.49)"/><rect class="cls-12" x="95.24" y="215.7" width="98.25" height="70.11" rx="8.58"/><path class="cls-1" d="M227.18 263.83c0 .15-22.09.26-49.33.26s-49.34-.11-49.34-.26 22.09-.26 49.34-.26 49.33.12 49.33.26zm65.72 59.11c0 .14-29.48.26-65.85.26s-65.85-.12-65.85-.26 29.48-.26 65.85-.26 65.85.12 65.85.26z" transform="translate(-33.69 -32.49)"/><path class="cls-12" d="M293 318.3a11.37 11.37 0 002.37-5.88c.2-3.29-1.3-7.41-4.84-7.41H245.2a13.3 13.3 0 00-13.3 13.29H293z" transform="translate(-33.69 -32.49)"/><path class="cls-5" d="M352.7 270.75l-7.88-16.43a10.06 10.06 0 014-12.85l23.56-14.05a7.9 7.9 0 014.07-1.13h5.09l2 33.21-7.85 3 5 8.08z" transform="translate(-33.69 -32.49)"/><path class="cls-4" d="M381.6 227.5s8.06 1.85 9.07 14.27-7.11 16.3-7.11 16.3z" transform="translate(-33.69 -32.49)"/><path class="cls-1" d="M355.44 247.88s-16.29 7.72-18.28 9c-1.38.88-2.56 2.42-1.48 5.13 1.84 4.61 9.46.27 9.46.27l15.17-7.58s5.83-2.75 3.68-6.2c-2.41-3.86-8.55-.62-8.55-.62z" transform="translate(-33.69 -32.49)"/><path class="cls-9" d="M332.39 245.07s15.3 2.62 16.6 3 6.41 2.77 6.67 4.33a46.79 46.79 0 010 6.15s-.93.75-1.5-.75a15.53 15.53 0 01-.5-4.48l-2.85-1.1 1.56 2.77.26 6.5s-2-.18-2.39-1.74a15.18 15.18 0 01-.38-3.28l-2.08-1.77 1.55 2.11.53 4.68s-1.52.49-2-.55a16.06 16.06 0 01-.52-4.13l-5.88-2-3.89 2.17-6.12-3.36z" transform="translate(-33.69 -32.49)"/><path class="cls-1" d="M356.22 223.75c0 6.2-2.85 11.22-6.36 11.22s-6.36-5-6.36-11.22 2.85-11.22 6.36-11.22 6.36 5.03 6.36 11.22z" transform="translate(-33.69 -32.49)"/><path class="cls-1" d="M350.91 231.46l3.49 12.12A3.14 3.14 0 00356 240c-.88-4.15-1.37-7.1-2.34-10.74-.11-.36-2.78 2.2-2.78 2.2" transform="translate(-33.69 -32.49)"/><path d="M281.72 378.1c-.34-1-.69-2-1-3.07s-.68-2-.94-3a32.21 32.21 0 01-.88-4.57c-5.89 24 3.11 40.93 18.58 42.12 22.59 1.74 50.14 3 61.28.08 20.31-5.33 27.76-22.27 29.54-25.06s17.94-32.32 8-60.75-27.15-58.62-27.15-58.62l-16.45 5.48s3 14 7.78 30.84c5.24 18.47 12.26 47.36 11.87 64.26a51.13 51.13 0 01-9.43 28.29h-74.67s-1.6-1.6-6.53-16" transform="translate(-33.69 -32.49)"/><path class="cls-5" d="M123.29 365.31l.53-5.7 136.28 15.7A13.46 13.46 0 01271.79 391l-.62 3.45L130.13 374a8 8 0 01-6.84-8.69z" transform="translate(-33.69 -32.49)"/><path d="M123.29 365.31l.53-5.7 136.28 15.7A13.46 13.46 0 01271.79 391l-.62 3.45L130.13 374a8 8 0 01-6.84-8.69zm264.98 38.12s30-33 36.19-58.94a58.33 58.33 0 019.29.69s-17.75 48.23-45.48 58.25z" transform="translate(-33.69 -32.49)"/><path class="cls-1" d="M424 332.87a4.81 4.81 0 01.16.83c.08.55.25 1.36.35 2.41a37.35 37.35 0 01-.24 9 45.74 45.74 0 01-4 12.68 146 146 0 01-7.95 14.2 189.6 189.6 0 01-17.56 23.74c-2.44 2.89-4.46 5.19-5.86 6.77l-1.62 1.81a7 7 0 01-.59.61 4.46 4.46 0 01.51-.67l1.55-1.88 5.73-6.87A205 205 0 00412 371.68a150.11 150.11 0 007.95-14.13 46.41 46.41 0 004-12.54 38.76 38.76 0 00.39-8.88c-.07-1.05-.2-1.86-.24-2.42a4.42 4.42 0 01-.1-.84zm-51.84 70.32a39.59 39.59 0 01-4.8-4.34 39.08 39.08 0 01-4.44-4.71 40.65 40.65 0 014.8 4.34 41.15 41.15 0 014.44 4.71zm-89.03-1.01a13.72 13.72 0 012.2-4.27 14.07 14.07 0 013.15-3.63c.11.11-1.25 1.75-2.72 3.92s-2.5 4.04-2.63 3.98zm-57.65 19.05a20 20 0 004.1-5.2 18.09 18.09 0 002-6.84 15.86 15.86 0 00-7.18-15.05 17.87 17.87 0 00-6.58-2.75 20.14 20.14 0 00-6.61-.09 1.93 1.93 0 01.44-.13 10.9 10.9 0 011.32-.26 15.69 15.69 0 014.92.12 17.89 17.89 0 016.78 2.71 16.11 16.11 0 017.39 15.49 17.83 17.83 0 01-2.16 7 15.89 15.89 0 01-3 3.9 12.8 12.8 0 01-1 .86 1.87 1.87 0 01-.42.24zm-49.76-10.45a23 23 0 01-.49-4.8 22.71 22.71 0 010-4.84 23.26 23.26 0 01.49 4.81 22.59 22.59 0 010 4.83zm3.61.01a46.3 46.3 0 01-1.23-9.66 23.91 23.91 0 01.88 4.8 22.07 22.07 0 01.35 4.86zm56.21-92.49c0 .14-16.57.26-37 .26s-37-.12-37-.26 16.57-.26 37-.26 37 .12 37 .26z" transform="translate(-33.69 -32.49)"/><path class="cls-1" d="M181.88 318.25c-.14 0-.26-19-.26-42.38s.12-42.39.26-42.39.26 19 .26 42.39-.14 42.38-.26 42.38zm-10.15-.07c-.14 0 .57-19 1.59-42.36s2-42.35 2.1-42.34-.56 19-1.58 42.36-1.96 42.35-2.11 42.34z" transform="translate(-33.69 -32.49)"/><path class="cls-12" d="M148.78 433.83a3.46 3.46 0 01-.44-.44c-.26-.31-.69-.74-1.16-1.35a38.38 38.38 0 01-3.69-5.42 41.5 41.5 0 01.17-41.48 39.37 39.37 0 013.73-5.39c.48-.61.91-1 1.18-1.34s.43-.45.44-.43a2.52 2.52 0 01-.36.5c-.24.33-.64.77-1.1 1.4a43.51 43.51 0 00-3.57 5.44 42.15 42.15 0 00-.17 41.12 42.57 42.57 0 003.53 5.47c.45.63.84 1.08 1.08 1.41s.38.49.36.51zM292 357.64l-.31.58-6 11.34-8.44 8.12 16.87 22.46 14.06-2.33s-1.58-3.21-8.64-3.83l-2.69-13.42 9.91-15.36" transform="translate(-33.69 -32.49)"/><path class="cls-11" d="M243.58 345.19l16.87 22.46 14.05-2.33-1.93-1.85-11.54 1.27-15.65-21.28-1.8 1.73z"/><path class="cls-1" d="M298.45 387.81c-.08.16-1-.17-2.05.05s-1.81.79-1.94.67.5-1.06 1.83-1.29 2.27.44 2.16.57zm-.79-3.31c-.12.12-.89-.6-2-.63s-2 .62-2.08.49.06-.31.42-.59a2.67 2.67 0 013.32.1c.3.31.4.58.34.63zm-.66-4.32c-.14.11-.76-.62-1.79-.8s-1.86.29-2 .14.1-.29.46-.5a2.47 2.47 0 013 .54c.38.32.44.58.33.62zm3.25-3.95c-.16.08-.69-.65-1.66-1.07s-1.85-.36-1.89-.53 1-.58 2.15 0 1.56 1.55 1.4 1.6zm1.35-3.23a6.4 6.4 0 01-1.47-1.27l-1.47-1.49a4.6 4.6 0 01-.84-1 1.17 1.17 0 01-.06-.87.88.88 0 01.78-.58 2.55 2.55 0 011.42.46 5 5 0 011 .83 4.75 4.75 0 011.07 1.91 2.57 2.57 0 010 2 15 15 0 00-.42-1.83 5 5 0 00-1.07-1.65 4.58 4.58 0 00-.91-.7 2.26 2.26 0 00-1.06-.37.26.26 0 00-.24.17.54.54 0 000 .41 4.42 4.42 0 00.7.88l1.37 1.59a6 6 0 011.2 1.51zm.57.37c-.06 0-.13-.74.49-1.71a3.55 3.55 0 014-1.45.68.68 0 01.3.47.77.77 0 01-.1.47 2 2 0 01-.43.53 6.12 6.12 0 01-.9.73 6.23 6.23 0 01-1.76.82 2.89 2.89 0 01-1.76.13c0-.1.66-.16 1.62-.55a7 7 0 001.57-.87 6.36 6.36 0 00.8-.7 1.59 1.59 0 00.31-.37v-.13a1.23 1.23 0 00-.44-.09 3.11 3.11 0 00-.53 0 3.5 3.5 0 00-1 .24 3.43 3.43 0 00-1.39 1 12.41 12.41 0 00-.78 1.48z" transform="translate(-33.69 -32.49)"/><path class="cls-11" d="M288.41 375.39a1.69 1.69 0 11-1.94-1.39 1.69 1.69 0 011.94 1.39z" transform="translate(-33.69 -32.49)"/><path class="cls-12" d="M343.24 368.44l4.51 29.28 36.47-5.42c-.73-3.45-20.64-7.64-20.64-7.64l-2.12-18.88z" transform="translate(-33.69 -32.49)"/><path class="cls-11" d="M352.07 384.76a1.5 1.5 0 00-.78 1.85 1.46 1.46 0 001.83.79 1.6 1.6 0 00.82-2 1.51 1.51 0 00-2-.61m-4.19 12.93l-.33-3 35.08-4.09s1.73.47 1.72 1.64z" transform="translate(-33.69 -32.49)"/><path class="cls-1" d="M364.14 384.39c0 .18-.85.39-1.64 1.09s-1.15 1.52-1.32 1.48-.07-1.12.91-1.95 2.07-.79 2.05-.62zm4.06 1.01c.07.17-.66.58-1.15 1.43s-.55 1.66-.73 1.68-.44-1 .2-2 1.66-1.28 1.68-1.11zm2.86 4.25c-.16.07-.54-.79-.23-1.83s1.09-1.56 1.19-1.42-.34.74-.59 1.6-.2 1.61-.37 1.65zm-7.88-9.51c-.05.17-.9.05-1.9.26s-1.73.66-1.84.52.54-.89 1.72-1.13 2.09.21 2.02.35zm-1.51-4.2a3.43 3.43 0 01-1.83.26 8.22 8.22 0 01-2-.3 7.65 7.65 0 01-1.13-.4 2.09 2.09 0 01-.62-.35.78.78 0 01-.22-.93 1 1 0 01.72-.53 2.73 2.73 0 01.7 0 5.58 5.58 0 011.19.22 6.63 6.63 0 011.85.85c1 .66 1.35 1.28 1.29 1.33s-.56-.43-1.52-.95a7.12 7.12 0 00-1.77-.67 5.4 5.4 0 00-1.09-.17c-.4-.05-.73 0-.81.19s0 .09.07.2a1.76 1.76 0 00.46.25 9.73 9.73 0 001 .41 10.65 10.65 0 001.87.41 12.63 12.63 0 011.84.18z" transform="translate(-33.69 -32.49)"/><path class="cls-1" d="M361.48 376.23c-.06 0-.51-.55-.75-1.69a6.21 6.21 0 010-2 5.38 5.38 0 01.3-1.18 1.52 1.52 0 011-1.09.87.87 0 01.84.39 2.29 2.29 0 01.29.65 4.07 4.07 0 01.18 1.23 4.25 4.25 0 01-.5 2c-.57 1.05-1.28 1.37-1.3 1.31s.49-.51.9-1.5a4.17 4.17 0 00.33-1.8 4.3 4.3 0 00-.19-1.05c-.12-.38-.31-.67-.45-.61s-.45.36-.55.69a5.46 5.46 0 00-.3 1.06 6.42 6.42 0 00-.09 1.87c.09 1.04.38 1.68.29 1.72z" transform="translate(-33.69 -32.49)"/><path class="cls-1" d="M280.86 267.17l-31.27 68.14 20.65 12.39 43.24-81.98"/><path class="cls-1" d="M366.12 381.75l-22.44 3.6-13.43-80.14L263.9 310a16.19 16.19 0 01-5.23-.5c-18.63-5.11-16.11-28.87-14.31-32.68l91.81-2.63A19.54 19.54 0 01356.09 291z" transform="translate(-33.69 -32.49)"/><path class="cls-5" d="M243.45 280.61l.33-33.88s-4.37-22-5.67-30.69c-2-13.44-4.76-19.83 17.27-29.38l4.81-1.86 7.45.1c8.89.67 18.25 8.7 18.46 14l8.57 76.35z" transform="translate(-33.69 -32.49)"/><path class="cls-5" d="M244.83 194.53s-6.22 13.38-5 25.57L263 242.34c5.2 5.78 11.69 8.24 20 8.74l48 5.24 1.33-12.54-45.6-12.92c-1.82-.34-2.72-2.23-4.11-3.45l-37.75-32.88" transform="translate(-33.69 -32.49)"/><path class="cls-1" d="M241.08 198.39a3.28 3.28 0 01.92-.62 11.43 11.43 0 013.1-.87 16 16 0 015.18 0 5.27 5.27 0 011.52.52 13.65 13.65 0 011.41 1 33.64 33.64 0 012.8 2.44c1.93 1.79 3.74 4.06 5.87 6.36s4.46 4.77 7 7.36 5.26 5.3 8.19 8.1c1.47 1.4 3 2.82 4.58 4.21.81.66 1.61 1.44 2.38 2.17a5.74 5.74 0 002.7 1.58l45.61 12.9.21.06v.22c-.09.89-.19 1.84-.3 2.81-.35 3.33-.7 6.63-1 9.73v.26h-.26l-20.29-2.23-9.6-1-9.19-.93c-3-.33-5.89-.67-8.7-1.08a39.07 39.07 0 01-8-1.87 29.75 29.75 0 01-6.79-3.65c-2-1.41-3.88-2.88-5.61-4.33-6.85-5.84-11.88-11.07-15.37-14.63-1.73-1.79-3.06-3.2-4-4.16l-1-1.1c-.22-.25-.33-.39-.33-.39s.13.11.37.35l1 1.07 4 4.1c3.53 3.51 8.6 8.7 15.46 14.49 1.73 1.43 3.58 2.89 5.6 4.28a29.61 29.61 0 006.71 3.58 39.13 39.13 0 008 1.82c2.81.4 5.71.74 8.69 1.06l9.19.9 9.6 1.05 20.3 2.21-.29.23c.33-3.1.68-6.4 1-9.74.1-1 .2-1.92.29-2.81l.19.28-45.6-12.95a6.08 6.08 0 01-2.92-1.69c-.81-.77-1.54-1.49-2.37-2.18-1.61-1.4-3.12-2.83-4.59-4.23-2.92-2.81-5.64-5.54-8.17-8.14s-4.85-5.08-7-7.41-3.92-4.59-5.82-6.38a33.31 33.31 0 00-2.76-2.45 14.24 14.24 0 00-1.37-1 5 5 0 00-1.46-.51 15.51 15.51 0 00-5.11-.08 11.55 11.55 0 00-3.09.79 7 7 0 00-.88.5z" transform="translate(-33.69 -32.49)"/><path class="cls-9" d="M253.05 155.41l2.33 33a10.27 10.27 0 0010.25 9.59 10.27 10.27 0 0010.26-11c-.2-3.14-.39-5.71-.39-5.71s8-1.24 8.08-9.23c.06-4.61-.74-15.07-1.42-23.09a10.46 10.46 0 00-10.43-9.57h-4.82a14.76 14.76 0 00-13.86 16.01z" transform="translate(-33.69 -32.49)"/><path class="cls-14" d="M275.51 181.17a18.57 18.57 0 01-10.4-2.95s2.46 5.74 10.42 5z" transform="translate(-33.69 -32.49)"/><path class="cls-1" d="M280.37 159.23a1.13 1.13 0 01-1.1 1.15 1.08 1.08 0 01-1.18-1 1.15 1.15 0 011.1-1.16 1.1 1.1 0 011.18 1.01zm.42-2.23c-.14.15-1-.49-2.23-.49s-2.13.62-2.26.47.08-.34.47-.62a3.16 3.16 0 011.81-.56 3 3 0 011.77.58c.38.26.51.53.44.62zm-11.94 2.23a1.13 1.13 0 01-1.1 1.15 1.09 1.09 0 01-1.18-1 1.15 1.15 0 011.1-1.16 1.1 1.1 0 011.18 1.01zm-.12-2.02c-.14.15-1-.49-2.23-.49s-2.13.62-2.26.47.07-.34.47-.62a3.12 3.12 0 013.58 0c.38.3.51.57.44.64zm4.45 9.1a8.33 8.33 0 012-.36c.32 0 .61-.1.67-.31a1.65 1.65 0 00-.21-.93c-.3-.76-.61-1.55-.93-2.38a40.28 40.28 0 01-2.08-6.24 41.13 41.13 0 012.58 6l.88 2.4a1.81 1.81 0 01.17 1.23.79.79 0 01-.52.46 2.15 2.15 0 01-.53.07 8.07 8.07 0 01-2.03.06zm-3.61.85c.2 0 .2 1.32 1.34 2.26s2.56.8 2.57 1-.32.25-.92.27a3.32 3.32 0 01-2.14-.75 2.93 2.93 0 01-1-1.9c-.09-.56.06-.89.15-.88zm-.52-14.76c-.13.33-1.35.18-2.79.35s-2.6.57-2.79.27.11-.46.58-.78a4.65 4.65 0 012.07-.73 4.75 4.75 0 012.18.26c.53.23.8.47.75.63zm11.29 1.03c-.22.28-1.06 0-2.08 0s-1.88.18-2.08-.11.05-.42.43-.68a3 3 0 013.34.1c.36.26.48.55.39.69z" transform="translate(-33.69 -32.49)"/><path class="cls-9" d="M255.74 161.41c-.14-.06-5.49-1.63-5.31 3.83s5.62 4.16 5.62 4-.31-7.83-.31-7.83z" transform="translate(-33.69 -32.49)"/><path class="cls-14" d="M254.32 167.23s-.1.07-.25.15a1 1 0 01-.71 0 2.34 2.34 0 01-1.16-2.07 3.16 3.16 0 01.22-1.37 1.15 1.15 0 01.69-.76.49.49 0 01.57.25c.08.15 0 .26.08.27s.11-.1.06-.32a.57.57 0 00-.22-.34.73.73 0 00-.53-.12 1.33 1.33 0 00-1 .88 3.3 3.3 0 00-.28 1.53 2.47 2.47 0 001.46 2.31 1 1 0 00.87-.17c.19-.11.22-.23.2-.24z" transform="translate(-33.69 -32.49)"/><path class="cls-1" d="M252.7 161.22a2.88 2.88 0 012.63 1.35c.35.78.43 1.66.79 2.44a1.93 1.93 0 002 1.29 1.68 1.68 0 001.14-1.25 4.73 4.73 0 000-1.76c-.32-2.55-.86-5.07-1-7.64a13 13 0 011.61-7.42 7.16 7.16 0 016.38-3.59c1.7.14 3.25 1 4.94 1.26a6.68 6.68 0 005.54-1.85 11.11 11.11 0 011-.75 3.09 3.09 0 00-.57-1.68c-3.34-3.1-9.37-4-13.78-2.85a15.92 15.92 0 00-10.38 8.37c-1.9 4.14-1.33 9.89-.29 14.08" transform="translate(-33.69 -32.49)"/><path class="cls-5" d="M282.25 147.74s-20.94-6.74-30 11.38a33.78 33.78 0 01-1.36-7c0-1.62 1-11.29 10.92-14.33 0 .04 14.99-5.68 20.44 9.95z" transform="translate(-33.69 -32.49)"/><path class="cls-1" d="M264.26 148.19a4.55 4.55 0 007.25.66 2.74 2.74 0 002.63 1.69 2.78 2.78 0 002.45-1.95 6.17 6.17 0 002 1.49 2.08 2.08 0 002.33-.49 2 2 0 00-.14-2.4 5 5 0 00-2.13-1.43 15.35 15.35 0 00-7.9-1.2 10.67 10.67 0 00-6.93 3.77" transform="translate(-33.69 -32.49)"/><path d="M282.25 147.74a9.73 9.73 0 00-6.66-3c-6.18-.27-17.74 3.2-23.34 14.4a33.78 33.78 0 01-1.36-7c0-1.62 1-11.29 10.92-14.33 0 .02 14.99-5.7 20.44 9.93z" transform="translate(-33.69 -32.49)"/><path class="cls-5" d="M253.12 157a39.36 39.36 0 0112.21-11.68c4.81-3 12.77-6 18.26-7.44a11.86 11.86 0 015-.53 4.55 4.55 0 013.74 3.06c.52 2.07-3.15 5.26-4.87 6.51a56.24 56.24 0 01-5.25 3.1s.05-3.84-6.09-4.63c-8.31-1.07-23 11.61-23 11.61z" transform="translate(-33.69 -32.49)"/><path d="M245.75 225.05c2.16 5.21 4.34 11.64 7.47 16.33s7.31 8.86 12.52 11c6.53 2.74 14.26 3.18 20.76.38.53-.23 1.57-.52 1.47-1.09 0 0-2.15-.25-2.81-.36-13.14-2.21-14.57-3.83-20.85-8.8-3.92-3.1-12.61-12.47-18.56-17.49" transform="translate(-33.69 -32.49)"/><path class="cls-1" d="M287.51 263a5.49 5.49 0 01-.55 1.22 15.25 15.25 0 01-2.12 3 22.9 22.9 0 01-10.18 6.23 46.53 46.53 0 01-11.84 1.77c-1.53.06-2.77.07-3.62.07a7.73 7.73 0 01-1.33-.06 6 6 0 011.32-.15l3.61-.23a51.73 51.73 0 0011.71-1.9 23.74 23.74 0 0010.06-6 25.64 25.64 0 002.94-3.95z" transform="translate(-33.69 -32.49)"/><path class="cls-12" d="M344.08 387.74a1.53 1.53 0 01-.08-.31c0-.23-.1-.54-.18-.92-.15-.84-.37-2-.64-3.54-.54-3.12-1.32-7.57-2.27-13.06-1.88-11.06-4.46-26.29-7.31-43.11-1.26-7.62-2.48-14.9-3.59-21.55l.26.21-28.71 2.09-8.24.56-2.19.13h-.76.19l.56-.07 2.19-.2 8.23-.7 28.69-2.27h.22v.22c1.12 6.65 2.35 13.93 3.63 21.54 2.79 16.83 5.31 32.07 7.15 43.14.89 5.5 1.61 10 2.11 13.08.23 1.52.42 2.72.55 3.57.05.38.09.69.13.92a1.54 1.54 0 01.06.27z" transform="translate(-33.69 -32.49)"/><path class="cls-12" d="M337 298.07c.09.12-1.65 1.62-3.64 3.64s-3.46 3.79-3.58 3.69a24.11 24.11 0 017.22-7.33z" transform="translate(-33.69 -32.49)"/><path class="cls-1" d="M275.69 187.7s.06.11.12.33a4.69 4.69 0 01.19 1 8.06 8.06 0 01-.48 3.64 9.32 9.32 0 01-3.3 4.32 10 10 0 01-6.41 1.72 11.58 11.58 0 01-6.23-2.34 13.5 13.5 0 01-3.54-4.13 14.28 14.28 0 01-1.36-3.4c-.1-.42-.17-.75-.2-1s0-.35 0-.35a22.43 22.43 0 001.9 4.54 13.57 13.57 0 003.51 3.93 11.26 11.26 0 006 2.2 9.69 9.69 0 006.11-1.59 9.22 9.22 0 003.22-4.06 8.49 8.49 0 00.63-3.49c-.08-.84-.21-1.3-.16-1.32zm14.11 43.67a4 4 0 01-.21-1c-.12-.79-.25-1.75-.41-2.86-.33-2.55-.76-5.83-1.23-9.46s-.81-7-1-9.48c-.11-1.21-.19-2.2-.23-2.88a3.93 3.93 0 010-1.06 4.23 4.23 0 01.21 1c.11.79.24 1.74.39 2.86.32 2.55.73 5.83 1.18 9.46s.85 7 1.08 9.47c.11 1.22.19 2.2.24 2.89a4.54 4.54 0 01-.02 1.06z" transform="translate(-33.69 -32.49)"/></g></svg>