<svg id="Capa_1" data-name="Capa 1" xmlns="http://www.w3.org/2000/svg" viewBox="0 0 1441.97 406.44"><defs><style>.cls-1{fill:#e9505b}</style></defs><path class="cls-1" d="M94.18 230.43a5.26 5.26 0 00-5.25-5.25H44.8a5.25 5.25 0 000 10.5h44.13a5.26 5.26 0 005.25-5.25z" transform="translate(-39.55 -32.2)"/><path class="cls-1" d="M608 347.44a68.59 68.59 0 00-68.59-68.59c-1.62 0-3.22.08-4.8.19l-35-75.86a19.75 19.75 0 00-3.77-5.46 11.22 11.22 0 00-9.84-5.92h-2.59a19.9 19.9 0 00-3.62 0h-19l-1.73-13.19a15.49 15.49 0 00-15.43-15.48h-45.36c9.47-13.87 17.47-24.52 20.34-25.52h.8a52.89 52.89 0 0051.06-39.84h15.18a42.89 42.89 0 00-15.44-26.76 52.88 52.88 0 00-50.8-38.85A52.64 52.64 0 00385.27 125c-68 1.24-105.86 30.49-116.88 40.54a15.51 15.51 0 00-7.25 13.09v1.11a15.5 15.5 0 0015.43 15.48l15.55.06a311.74 311.74 0 00-33.55 53.07h-19a11 11 0 001.14-3.18l19.17-110.67c1-5.74-3.21-10.47-9.35-10.51l-104.89-.68c-6.14 0-12 4.63-13 10.37l-19.15 110.65a9.21 9.21 0 00.17 4H83.75a7 7 0 00-7 6.95v.72a7 7 0 007 7h366.51c-48.43-39-96.86-29.66-96.86-29.66s10.74-17.62 23.58-37.76l21.47.08a11.15 11.15 0 008.39 18.56H462a19.28 19.28 0 001.62 5.54L486 268.25l-8.62 8.63H401a4.7 4.7 0 100 9.39h70.25a3.88 3.88 0 012.94 3.75v.48a3.83 3.83 0 01-1.29 2.86h-130a6.6 6.6 0 100 13.19h104.83l-.4.4h.51a4.44 4.44 0 014.42 4.43v.51a4.44 4.44 0 01-4.42 4.43h-3.67a6.41 6.41 0 00-1.46-.18H305.53a6.6 6.6 0 000 13.19h129.81a6.47 6.47 0 012.57 5.14v.07a6.49 6.49 0 01-6.48 6.48l-154.76-1.4a7.49 7.49 0 00-7.47 7.47v2a7.49 7.49 0 007.47 7.47H412.1a7.45 7.45 0 002.41-.43 4.39 4.39 0 013.16 4.2v.53a4.42 4.42 0 01-2.13 3.75H257.17a70.7 70.7 0 01-3.42 12.85A80.05 80.05 0 01249 388h59.89l-.33.33H448c-5.09 27.78 12.17 49.48 42.19 50.29 33.61.89 70.47-24.73 82.34-57.23 4.06-11.13 4.66-21.62 2.35-30.65h32.9c.09-1.1.22-2.18.22-3.3zm-75.31 32.89c-4.08 11.19-16.78 20-28.38 19.72s-17.66-9.65-13.59-20.86 16.81-20 28.4-19.72 17.66 9.65 13.56 20.86z" transform="translate(-39.55 -32.2)"/><path class="cls-1" d="M540.72 257.75a18.93 18.93 0 003.3-.34v-41.53a18.93 18.93 0 00-3.3-.34 19.85 19.85 0 00-19.79 19.79V238a19.85 19.85 0 0019.79 19.75zm-222.59 48.8a6.45 6.45 0 006.44-6.43 6.46 6.46 0 00-6.44-6.43h-48a6.45 6.45 0 00-6.43 6.43 6.44 6.44 0 006.43 6.43zm52.44-23.24a4 4 0 000-7.92h-20.28a4 4 0 000 7.92zM84.34 201h20.28a4 4 0 100-7.91H84.34a4 4 0 100 7.91zm42.2 150.12a4 4 0 00-4-4H102.3a4 4 0 000 7.92h20.28a4 4 0 003.96-3.92zm151.21-221.36h45.35a4.92 4.92 0 000-9.84h-45.35a4.92 4.92 0 000 9.84zm-35.29 175.8a4.95 4.95 0 000-9.89h-43.53a4.95 4.95 0 100 9.89zm-104.99 27a5 5 0 00-4.95-4.95H89a5 5 0 000 9.9h43.53a5 5 0 004.94-4.95zM205 316.7c-33.61-.91-70.49 24.7-82.34 57.2s5.78 59.58 39.39 60.49 70.49-24.7 82.33-57.2-5.79-59.58-39.38-60.49zm-3.49 60.52c-4.08 11.21-16.78 20-28.38 19.71s-17.66-9.64-13.56-20.85 16.78-20 28.37-19.72 17.65 9.64 13.55 20.86z" transform="translate(-39.55 -32.2)"/><path d="M797.67 185h-45.29l-6.72 20.53h-44.72l49.71-135.92h49.13L849.3 205.5h-44.91zm-10.36-32.06L775 115.1l-12.28 37.81zm125.81-52.71q7.57-4.32 18.14-4.32a41 41 0 0122.84 6.62q10.17 6.61 16 19.19t5.9 29.66q0 17.09-5.86 29.65t-16 19.19a41 41 0 01-22.84 6.63q-10.56 0-18.14-4.32a29.38 29.38 0 01-11.61-11.81v66.6H858.9V97.25h42.61V112a29.35 29.35 0 0111.61-11.77zm15.26 37.71a15.76 15.76 0 00-22.65 0q-4.41 4.8-4.41 13.44c0 5.75 1.47 10.24 4.41 13.43a15.76 15.76 0 0022.65 0c2.94-3.19 4.41-7.68 4.41-13.43s-1.47-10.24-4.41-13.44zm115.25-37.71q7.59-4.32 18.14-4.32a41 41 0 0122.84 6.62q10.17 6.61 16 19.19t5.85 29.66q0 17.09-5.85 29.65t-16 19.19a40.91 40.91 0 01-22.84 6.63q-10.56 0-18.14-4.32a29.5 29.5 0 01-11.63-11.81v66.6h-42.59V97.25H1032V112a29.48 29.48 0 0111.63-11.77zm15.26 37.71a15.76 15.76 0 00-22.65 0q-4.41 4.8-4.41 13.44c0 5.75 1.47 10.24 4.41 13.43a15.76 15.76 0 0022.65 0c2.94-3.19 4.42-7.68 4.42-13.43s-1.48-10.24-4.42-13.44zM709.1 295.86a59 59 0 0123.32-24.48q15.15-8.73 35.7-8.73 17.65 0 31.57 6.62A58.44 58.44 0 01822.34 288 67.82 67.82 0 01834 316.2h-45a24.32 24.32 0 00-8.74-10.46 22.89 22.89 0 00-12.91-3.74q-10.76 0-17 8.06t-6.24 21.69q0 13.62 6.24 21.69t17 8.06a22.9 22.9 0 0012.95-3.75 24.26 24.26 0 008.7-10.46h45a67.86 67.86 0 01-11.61 28.22 58.42 58.42 0 01-22.65 18.71q-13.92 6.63-31.57 6.62-20.55 0-35.7-8.73a58.86 58.86 0 01-23.32-24.47q-8.16-15.74-8.16-35.89t8.11-35.89zm162.27 98.65a49.56 49.56 0 01-20.44-19.29q-7.38-12.57-7.39-29.46t7.39-29.46a49.56 49.56 0 0120.44-19.3 67.54 67.54 0 0158.74 0 49.56 49.56 0 0120.44 19.29q7.38 12.57 7.38 29.46t-7.38 29.46a49.56 49.56 0 01-20.44 19.29 67.54 67.54 0 01-58.74 0zm39.35-34.84q4-4.69 4-13.91t-4-13.92a12.95 12.95 0 00-20 0q-4 4.71-4 13.92t3.93 13.91a13 13 0 0020.06 0zM1148 303.34q11.42 12.48 11.42 33.78v62.76h-42.41V342.5q0-6.92-4.13-10.85t-11-3.93q-7.1 0-11.13 3.93t-4 10.85v57.38h-42.45V342.5q0-6.92-4.12-10.85c-2.76-2.62-6.43-3.93-11-3.93s-8.45 1.31-11.13 3.93-4 6.24-4 10.85v57.38h-42.68V291.63H1014v14.59a33.69 33.69 0 0112.57-11.13 39.43 39.43 0 0118.71-4.23A41.47 41.47 0 011066 296a38.23 38.23 0 0114.4 14.3 48.69 48.69 0 0115.16-13.92 39.15 39.15 0 0120.34-5.47q20.72-.05 32.1 12.43zm33.53-26.29a19.15 19.15 0 01-6.71-15 19.62 19.62 0 016.71-15.25q6.72-6.06 17.85-6 10.95 0 17.66 6a19.63 19.63 0 016.72 15.25 19.16 19.16 0 01-6.72 15q-6.72 5.94-17.66 5.95-11.13 0-17.85-5.95zm39 14.58v108.25h-42.61V291.63zm19.25 24.47q5.87-12.57 16-19.19a41 41 0 0122.84-6.62q10.56 0 18.14 4.32a29.48 29.48 0 0111.61 11.8v-48.56H1351v142h-42.6V385.1a29.5 29.5 0 01-11.61 11.81q-7.59 4.32-18.14 4.32a41 41 0 01-22.84-6.62q-10.17-6.63-16-19.2t-5.85-29.65q-.03-17.08 5.82-29.66zm64.4 16.22a15.76 15.76 0 00-22.65 0q-4.42 4.8-4.42 13.44t4.42 13.43a15.76 15.76 0 0022.65 0q4.41-4.79 4.41-13.43t-4.41-13.44zm66.12-16.22q5.85-12.57 16-19.19a41 41 0 0122.84-6.62 36.62 36.62 0 0118.24 4.32 29.35 29.35 0 0111.71 11.8v-14.78h42.41v108.25h-42.41V385.1a29.37 29.37 0 01-11.71 11.81 36.62 36.62 0 01-18.24 4.32 41 41 0 01-22.84-6.62q-10.17-6.63-16-19.2t-5.86-29.65q0-17.08 5.86-29.66zm64.39 16.22a15.76 15.76 0 00-22.65 0q-4.41 4.8-4.41 13.44t4.41 13.43a15.76 15.76 0 0022.65 0q4.41-4.79 4.42-13.43t-4.42-13.44z" transform="translate(-39.55 -32.2)" fill="#1d1d1b"/></svg>