<svg data-name="Capa 1" xmlns="http://www.w3.org/2000/svg" viewBox="0 0 45.06 13.7"><rect width="45.06" height="13.7" rx="1.74" fill="#010101"/><path d="M2.8 5.6a4.46 4.46 0 00.54 4.36c.4.58.81 1.11 1.37 1.11a1.81 1.81 0 00.64-.17 1.72 1.72 0 01.75-.18 1.69 1.69 0 01.72.17 1.56 1.56 0 00.69.16c.63 0 1-.57 1.36-1.07a4.6 4.6 0 00.59-1.22.07.07 0 000-.08 1.79 1.79 0 01-1.1-1.67 1.88 1.88 0 01.88-1.56 2 2 0 00-1.6-.87h-.07a2.83 2.83 0 00-1 .25 1.62 1.62 0 01-.49.15 1.59 1.59 0 01-.51-.26 2.48 2.48 0 00-.88-.22A2.15 2.15 0 002.8 5.6zm4.86-3.18a2 2 0 00-1.31.67 1.84 1.84 0 00-.46 1.37.06.06 0 00.06.06h.09a1.66 1.66 0 001.23-.63 1.94 1.94 0 00.46-1.41s-.04-.06-.07-.06zm5.14-.04h.85a1.25 1.25 0 01.59.14 1 1 0 01.4.38 1 1 0 01.14.55 1.06 1.06 0 01-.14.56 1 1 0 01-.4.38 1.25 1.25 0 01-.59.14h-.85zm.83 2a1.12 1.12 0 00.53-.1.93.93 0 00.35-.33 1 1 0 00.12-.49 1 1 0 00-.12-.48.93.93 0 00-.35-.33 1.12 1.12 0 00-.53-.12h-.68v1.85zm1.86.05a.71.71 0 01-.28-.29.81.81 0 01-.11-.41.82.82 0 01.11-.45.78.78 0 01.28-.29.89.89 0 01.82 0 .71.71 0 01.26.29.82.82 0 01.11.42.81.81 0 01-.11.41.65.65 0 01-.28.29.82.82 0 01-.82 0zm.74-.15a.57.57 0 00.23-.23.82.82 0 00.11-.32.78.78 0 00-.08-.35.66.66 0 00-.23-.24.65.65 0 00-.66 0 .66.66 0 00-.23.24.78.78 0 00-.08.35.82.82 0 00.08.35.57.57 0 00.2.2.65.65 0 00.66 0zm3.18-1.35l-.61 1.6h-.14l-.54-1.39-.55 1.39h-.14l-.61-1.6h.15l.53 1.42.55-1.42h.13l.54 1.42.54-1.42zm1.61.16a.7.7 0 01.17.5v.94h-.15V3.6a.58.58 0 00-.14-.41.51.51 0 00-.33-.14.59.59 0 00-.44.17.62.62 0 00-.16.45v.86h-.16v-1.6h.15v.35a.63.63 0 01.25-.26.76.76 0 01.36-.1.64.64 0 01.45.17zm.8-.81h.15v2.25h-.15zm1.02 2.15a.68.68 0 01-.27-.29.8.8 0 01-.1-.41.82.82 0 01.1-.45.74.74 0 01.29-.29.77.77 0 01.4-.1.78.78 0 01.41.1.81.81 0 01.29.29.82.82 0 01.1.42.8.8 0 01-.1.41.74.74 0 01-.29.29.78.78 0 01-.41.11.77.77 0 01-.42-.08zm.73-.15a.51.51 0 00.23-.23.7.7 0 00.09-.35.68.68 0 00-.09-.35.59.59 0 00-.23-.21.58.58 0 00-.33-.09.57.57 0 00-.32.09.59.59 0 00-.23.24.68.68 0 00-.09.35.7.7 0 00.09.35.51.51 0 00.23.23.57.57 0 00.32.09.58.58 0 00.33-.12zm1.94-1.21a.6.6 0 01.15.44v1h-.09v-.23a.54.54 0 01-.23.22.72.72 0 01-.35.08.62.62 0 01-.42-.17.4.4 0 01-.15-.33.39.39 0 01.14-.32.69.69 0 01.45-.13h.55v-.12a.44.44 0 00-.12-.34.48.48 0 00-.35-.12.81.81 0 00-.31.06.63.63 0 00-.24.14l-.08-.11a.9.9 0 01.29-.16 1 1 0 01.35-.06.65.65 0 01.41.15zm-.21 1.21a.58.58 0 00.21-.27v-.3h-.54a.51.51 0 00-.34.09.3.3 0 00-.06.28.29.29 0 00.12.24.49.49 0 00.32.09.59.59 0 00.29-.13zm2.42-2v2.25h-.15v-.38a.84.84 0 01-.27.29.81.81 0 01-.39.1.77.77 0 01-.4-.11.69.69 0 01-.28-.28.88.88 0 01-.11-.42.82.82 0 01.11-.45.65.65 0 01.28-.29.77.77 0 01.4-.1.73.73 0 01.39.1.64.64 0 01.27.29v-1zm-.47 2a.57.57 0 00.23-.23.69.69 0 00.09-.32.67.67 0 00-.08-.35.66.66 0 00-.23-.24.65.65 0 00-.66 0 .76.76 0 00-.23.24.78.78 0 00-.08.35.82.82 0 00.08.35.65.65 0 00.89.23zm2.11.15a.71.71 0 01-.28-.29.81.81 0 01-.11-.41.82.82 0 01.11-.45.78.78 0 01.28-.29.83.83 0 01.41-.1.77.77 0 01.7.39.82.82 0 01.1.42.8.8 0 01-.1.41.74.74 0 01-.29.29.81.81 0 01-.41.11.84.84 0 01-.41-.08zm.74-.15a.57.57 0 00.23-.23.69.69 0 00.08-.35.67.67 0 00-.08-.35.66.66 0 00-.23-.24.65.65 0 00-.66 0 .76.76 0 00-.23.24.78.78 0 00-.08.35.82.82 0 00.08.35.65.65 0 00.89.23zm2.2-1.19a.66.66 0 01.17.5v.94h-.15V3.6a.54.54 0 00-.14-.41.51.51 0 00-.38-.14.6.6 0 00-.44.17.62.62 0 00-.16.45v.86h-.16v-1.6h.15v.35a.63.63 0 01.25-.26.8.8 0 01.39-.09.63.63 0 01.47.16zm2.38 1.33a.42.42 0 01-.14.09.58.58 0 01-.19 0 .4.4 0 01-.43-.44v-1h-.29v-.14h.29v-.35h.15v.35h.5v.13h-.5v1a.32.32 0 00.08.23.27.27 0 00.22.09.37.37 0 00.25-.1zm1.68-1.33a.67.67 0 01.18.5v.94h-.16V3.6a.58.58 0 00-.13-.41.52.52 0 00-.38-.14.61.61 0 00-.45.17.62.62 0 00-.16.45v.86h-.15V2.28h.15v1a.58.58 0 01.24-.25.8.8 0 01.39-.09.62.62 0 01.47.15zm2.21.67h-1.43a.75.75 0 00.1.34.64.64 0 00.24.22.74.74 0 00.34.08.72.72 0 00.29-.06.5.5 0 00.22-.16l.09.1a.7.7 0 01-.26.19.8.8 0 01-.34.07.89.89 0 01-.43-.11.78.78 0 01-.29-.28.88.88 0 01-.11-.42.93.93 0 01.1-.42.78.78 0 01.28-.29.71.71 0 01.39-.1.76.76 0 01.39.1.81.81 0 01.27.28.87.87 0 01.1.42zm-1.06-.63a.56.56 0 00-.22.21.75.75 0 00-.09.3h1.17a.75.75 0 00-.09-.3.63.63 0 00-.22-.21.6.6 0 00-.6 0zM15.06 9.28h-1.83l-.36.85h-.7l1.65-3.66h.67l1.65 3.66h-.71zm-.22-.53l-.69-1.6-.69 1.6zm3.98-1.29a1.33 1.33 0 01.5.5 1.58 1.58 0 010 1.5 1.2 1.2 0 01-.5.5 1.49 1.49 0 01-.73.18 1.11 1.11 0 01-.89-.37v1.35h-.63V7.28h.62v.4a1.17 1.17 0 01.4-.3 1.51 1.51 0 01.53-.1 1.49 1.49 0 01.7.18zm-.25 1.88a.85.85 0 00.23-.63.85.85 0 00-.23-.63.79.79 0 00-.59-.24.88.88 0 00-.43.1 1 1 0 00-.29 1.23.79.79 0 00.29.31.88.88 0 00.43.1.79.79 0 00.59-.24zm3.84-1.88a1.33 1.33 0 01.5.5 1.65 1.65 0 010 1.5 1.2 1.2 0 01-.5.5 1.49 1.49 0 01-.73.18 1.13 1.13 0 01-.9-.37v1.35h-.65V7.28h.62v.4a1.08 1.08 0 01.4-.3 1.47 1.47 0 01.53-.1 1.49 1.49 0 01.73.18zm-.21 1.88a1 1 0 000-1.26.81.81 0 00-.6-.24.84.84 0 00-.42.1.81.81 0 00-.3.31 1 1 0 000 .92.75.75 0 00.3.31.84.84 0 00.42.1.81.81 0 00.6-.24zm3.37.7a1.69 1.69 0 01-.63-.32l.24-.53a1.69 1.69 0 00.55.29 1.85 1.85 0 00.65.11 1.08 1.08 0 00.61-.13.37.37 0 00.2-.34.31.31 0 00-.11-.26.76.76 0 00-.28-.16l-.47-.13a5.33 5.33 0 01-.68-.2 1.14 1.14 0 01-.44-.31.8.8 0 01-.19-.57.94.94 0 01.16-.55 1.13 1.13 0 01.5-.4 2 2 0 01.81-.15 2.39 2.39 0 01.66.09 1.51 1.51 0 01.56.24l-.24.56a2 2 0 00-.5-.22 1.89 1.89 0 00-.51-.07 1 1 0 00-.6.14.42.42 0 00-.2.36.3.3 0 00.12.25.76.76 0 00.28.16l.47.13a4.23 4.23 0 01.67.2 1.07 1.07 0 01.45.31.82.82 0 01.18.56 1 1 0 01-.16.55 1.18 1.18 0 01-.5.39 2 2 0 01-.82.15 2.74 2.74 0 01-.78-.15zm4.55-.09a.75.75 0 01-.28.15 1.27 1.27 0 01-.34 0 1 1 0 01-.71-.24.91.91 0 01-.26-.7v-1.3h-.46v-.52h.5V6.7h.66v.64h.74v.52h-.74v1.33a.43.43 0 00.1.31.36.36 0 00.28.1.56.56 0 00.37-.11zm.94.01a1.3 1.3 0 01-.53-.51 1.41 1.41 0 01-.19-.74 1.43 1.43 0 01.23-.74 1.34 1.34 0 01.53-.5 1.64 1.64 0 011.53 0 1.34 1.34 0 01.53.5 1.43 1.43 0 01.19.74 1.41 1.41 0 01-.19.74 1.3 1.3 0 01-.53.51 1.72 1.72 0 01-1.53 0zm1.36-.62a1 1 0 000-1.26.81.81 0 00-.6-.24.78.78 0 00-.59.24.85.85 0 00-.23.63.85.85 0 00.23.63.78.78 0 00.59.24.81.81 0 00.6-.24zm3.15-2.06v.63h-.15a.77.77 0 00-.59.22.86.86 0 00-.22.64v1.36h-.65V7.28h.61v.41a1.1 1.1 0 011-.41zm3.13 1.64h-2.19a.71.71 0 00.3.49 1 1 0 00.6.18 1 1 0 00.76-.3l.35.4a1.27 1.27 0 01-.48.34 1.84 1.84 0 01-.65.11 1.79 1.79 0 01-.81-.18 1.33 1.33 0 01-.54-.51 1.51 1.51 0 01-.19-.74 1.37 1.37 0 01.19-.73 1.25 1.25 0 01.53-.51 1.44 1.44 0 01.73-.19 1.43 1.43 0 01.72.18 1.25 1.25 0 01.51.51 1.55 1.55 0 01.18.76s-.01.11-.01.19zm-1.94-.93a.81.81 0 00-.26.5h1.58a.75.75 0 00-.25-.5.79.79 0 00-.53-.18.84.84 0 00-.54.18z" fill="#fff"/></svg>