<svg id="Modo_de_aislamiento" data-name="Modo de aislamiento" xmlns="http://www.w3.org/2000/svg" viewBox="0 0 111.19 27.65"><defs><style>.cls-1{fill:#fff}</style></defs><path class="cls-1" d="M32.83 28.28c-.31-.2-.7-.4-1.13-.62V13l-6.31-2.55-2.71 1.1v13.3c-.41-.06-.83-.1-1.25-.15V12.08l-2.35.92v11.55h-1.15V12.22l.74-.3L21 11l.39-.16h.12l1.13-.46 2.27-.91.44-.18V4.43l-7.46-3-3.26 1.31V16.8l.37.2.75.3v7.32h-.08l-.78.08h-.34v-6.62l-1.31-.53-2.79-1.15-.18-.07-1.9.77V26l-.48.15-.59.2-.13.05v-8.82l-1.17.5v8.84l-.32.08-.25.1-.24.12-.45.22c-.58.3-1.09.54-1.49.8L2 29.06l1.34-.55c.42-.2 1-.35 1.55-.57s1.28-.42 2-.64l.57-.17.6-.14 1.25-.3c.43-.1.88-.17 1.34-.25s.92-.18 1.39-.23l1.47-.21c.49-.05 1-.08 1.48-.12l.75-.06h4.59l.75.06c.51 0 1 .07 1.49.12l1.45.19c.48 0 .94.15 1.4.23s.9.15 1.33.24L28 27l.59.14.57.17c.75.22 1.44.41 2 .64s1.12.37 1.54.57c.85.36 1.35.55 1.35.55z" transform="translate(-2 -1.41)"/><path class="cls-1" d="M11.29 14.85V1.87L8.45 3.02V13.7l.27.11 2.57 1.04z"/><path class="cls-1" d="M45.8 17.08l3.73 5.13h-2.22l-3.44-4.93h-.33v4.93h-1.82v-12h2.13a5.32 5.32 0 013.45.9 3.28 3.28 0 011.17 2.63 3.4 3.4 0 01-.74 2.2 3.25 3.25 0 01-1.93 1.14zm-2.26-1.38h.58c1.72 0 2.58-.66 2.58-2s-.84-1.85-2.51-1.85h-.65zm14.12 3.12h-5.44a2.3 2.3 0 00.6 1.49 1.84 1.84 0 001.38.55 1.87 1.87 0 001.09-.31 4.59 4.59 0 001-1.16l1.48.83a5.74 5.74 0 01-.73 1 3.76 3.76 0 01-.82.69 3.12 3.12 0 01-.94.39 4.75 4.75 0 01-1.1.12 3.58 3.58 0 01-2.73-1.09 4.1 4.1 0 01-1-2.91 4.26 4.26 0 011-2.92 3.45 3.45 0 012.67-1.1 3.41 3.41 0 012.65 1.07 4.23 4.23 0 011 2.94zm-1.8-1.43A1.68 1.68 0 0054.09 16a1.89 1.89 0 00-.6.09 1.8 1.8 0 00-.51.28 1.72 1.72 0 00-.4.45 2 2 0 00-.25.58zm9.31-2.78h1.76v7.6h-1.76v-.8a3.38 3.38 0 01-4.93-.12 4.24 4.24 0 01-1-2.9 4.12 4.12 0 011-2.85 3.28 3.28 0 012.55-1.14 3.22 3.22 0 012.38 1.1zM61 18.39a2.62 2.62 0 00.58 1.77 1.91 1.91 0 001.52.7 2 2 0 001.57-.67 2.59 2.59 0 00.6-1.76 2.62 2.62 0 00-.6-1.77 2 2 0 00-1.55-.66 2 2 0 00-1.51.68 2.56 2.56 0 00-.61 1.71zM70.9 9v13.21h-1.75V9zm14.29 3l-1.48.88a2.52 2.52 0 00-.78-.94 1.91 1.91 0 00-1-.25 1.88 1.88 0 00-1.25.43 1.32 1.32 0 00-.5 1.06c0 .59.43 1.06 1.31 1.42l1.2.49a5.18 5.18 0 012.14 1.45 3.26 3.26 0 01.68 2.09 3.65 3.65 0 01-1.11 2.74 3.78 3.78 0 01-2.77 1.09A3.68 3.68 0 0179 21.5a4.3 4.3 0 01-1.26-2.61l1.84-.41a3.07 3.07 0 00.48 1.52 1.88 1.88 0 001.63.78 1.92 1.92 0 001.42-.57 2 2 0 00.56-1.45 2.2 2.2 0 00-.1-.64 2.06 2.06 0 00-.3-.54 2.82 2.82 0 00-.54-.46 5.61 5.61 0 00-.78-.41l-1.16-.48c-1.65-.69-2.47-1.71-2.47-3a2.9 2.9 0 011-2.27 3.71 3.71 0 012.58-.92A3.61 3.61 0 0185.19 12zm4.24 4.25v6h-1.75v-6h-.75v-1.64h.75v-2.78h1.75v2.78h1.37v1.64zm8.3-1.64h1.76v7.6h-1.76v-.8a3.39 3.39 0 01-4.94-.12 4.24 4.24 0 01-1-2.9 4.12 4.12 0 011-2.85 3.3 3.3 0 012.56-1.14 3.24 3.24 0 012.38 1.1zm-4.16 3.78a2.62 2.62 0 00.58 1.77 1.89 1.89 0 001.51.7 2 2 0 001.58-.67 2.59 2.59 0 00.6-1.76 2.62 2.62 0 00-.6-1.77 2 2 0 00-1.56-.66 2 2 0 00-1.51.68 2.56 2.56 0 00-.6 1.71zm9.94-2.14v6h-1.75v-6H101v-1.64h.75v-2.78h1.75v2.78h1.37v1.64zm9.61 2.57h-5.44a2.31 2.31 0 00.61 1.49 1.84 1.84 0 001.38.55 1.82 1.82 0 001.08-.31 4.59 4.59 0 001-1.16l1.48.83a6.29 6.29 0 01-.72 1 4 4 0 01-.82.69 3.23 3.23 0 01-.94.39 4.82 4.82 0 01-1.1.12 3.55 3.55 0 01-2.73-1.09 4.06 4.06 0 01-1-2.91 4.21 4.21 0 011-2.92 3.79 3.79 0 015.31 0 4.19 4.19 0 011 2.94zm-1.8-1.43a1.67 1.67 0 00-1.77-1.4 2 2 0 00-.6.09 2 2 0 00-.51.28 1.89 1.89 0 00-.39.45 2 2 0 00-.25.58z" transform="translate(-2 -1.41)"/></svg>