<svg xmlns="http://www.w3.org/2000/svg" width="2156" height="800" viewBox="536.5 0 2156 800"><path d="M2140.841 366.671c0-7.927-6.416-14.342-14.342-14.342-7.928 0-14.341 6.416-14.341 14.342 0 37.657 41.539 89.365 46.271 95.149a14.375 14.375 0 0011.104 5.236c3.195 0 6.416-1.064 9.091-3.25 6.119-5.028 7-14.06 1.988-20.193-15.377-18.739-39.771-56.188-39.771-76.942zm301.157-14.342c-7.925 0-14.341 6.416-14.341 14.342 0 20.685-24.395 58.177-39.772 76.957-5.013 6.119-4.118 15.152 2.003 20.179a14.268 14.268 0 009.089 3.25c4.145 0 8.247-1.792 11.092-5.236 4.734-5.784 46.272-57.49 46.272-95.149 0-7.928-6.414-14.343-14.343-14.343zm-157.748 0c-7.927 0-14.341 6.416-14.341 14.342v86.044c0 7.927 6.414 14.342 14.341 14.342s14.342-6.415 14.342-14.342v-86.044c-.001-7.927-6.417-14.342-14.342-14.342z"/><path d="M2441.998 122.876c-8.689 0-17.771 1.149-27.202 2.901-31.586-36.82-78.342-60.266-130.546-60.266s-98.962 23.445-130.546 60.265c-9.433-1.751-18.515-2.902-27.204-2.902-86.983.001-157.751 70.767-157.751 157.75 0 59.603 33.611 113.789 86.383 140.58l-.281 216.723c-.014 15.644 6.063 30.349 17.114 41.413 11.063 11.078 25.755 17.17 41.397 17.17h341.831c32.267 0 58.512-26.245 58.512-58.512V420.994c52.573-26.86 86.046-80.962 86.046-140.369-.004-86.983-70.768-157.749-157.753-157.749zM2485.022 638c0 16.44-13.389 29.831-29.831 29.831h-341.829c-7.969 0-15.461-3.11-21.105-8.753-5.629-5.643-8.738-13.136-8.726-21.119l.075-56.175h401.416V638zm8.879-239.329c-.758.309-1.473.672-2.143 1.107a14.038 14.038 0 00-4.399 4.312 14.184 14.184 0 00-2.185 5.757 13.945 13.945 0 00-.154 2.409v140.846h-401.377l.184-140.65a14.376 14.376 0 00-2.409-8.292 14.252 14.252 0 00-4.258-4.159 14.9 14.9 0 00-2.257-1.164c-47.068-20.584-77.474-66.94-77.474-118.212 0-71.173 57.896-129.068 129.068-129.068 2.781 0 5.718.336 8.6.564-14.51 25.217-22.94 54.355-22.94 85.481 0 7.927 6.413 14.342 14.341 14.342 7.926 0 14.342-6.415 14.342-14.342 0-79.071 64.337-143.409 143.409-143.409 79.07 0 143.407 64.337 143.407 143.409 0 7.927 6.416 14.342 14.341 14.342 7.929 0 14.343-6.415 14.343-14.342 0-31.126-8.432-60.264-22.941-85.481 2.882-.228 5.818-.564 8.599-.564 71.175 0 129.069 57.897 129.069 129.068 0 51.089-30.278 97.387-77.166 118.046z"/><path stroke="#000" stroke-width="2" stroke-miterlimit="10" d="M639.653 422.528h103.15v24.534h-130.75v-197.38H738.62v24.255h-98.967v59.103h93.113v23.698h-93.113v65.79zm238.081-136.324c-3.902-5.388-9.2-9.801-15.892-13.243-6.689-3.437-14.217-5.157-22.581-5.157-4.461 0-8.969.605-13.521 1.812-4.557 1.21-8.691 3.162-12.405 5.854a32.29 32.29 0 00-9.062 10.037c-2.325 3.998-3.484 8.781-3.484 14.357 0 5.392 1.067 9.896 3.206 13.521 2.136 3.624 5.018 6.69 8.643 9.2 3.625 2.508 7.897 4.647 12.825 6.412a698.48 698.48 0 0015.751 5.436 334.902 334.902 0 0120.352 6.97c6.874 2.605 13.103 6.042 18.678 10.315 5.575 4.276 10.128 9.618 13.661 16.03 3.528 6.413 5.296 14.546 5.296 24.394 0 10.225-1.908 19.097-5.714 26.624-3.812 7.528-8.879 13.757-15.195 18.679-6.32 4.928-13.616 8.599-21.884 11.013-8.271 2.413-16.775 3.623-25.51 3.623-12.453 0-24.488-2.416-36.102-7.248-11.618-4.831-21.236-11.989-28.855-21.467l21.467-18.121c4.645 6.879 10.873 12.454 18.679 16.729 7.806 4.278 16.261 6.411 25.37 6.411 4.644 0 9.291-.649 13.939-1.95 4.644-1.299 8.873-3.347 12.685-6.134 3.808-2.788 6.921-6.273 9.339-10.454 2.413-4.183 3.624-9.245 3.624-15.195 0-5.947-1.254-10.916-3.763-14.916-2.511-3.995-5.904-7.386-10.176-10.174-4.279-2.789-9.247-5.157-14.916-7.11a1050.92 1050.92 0 00-17.98-5.994 154.427 154.427 0 01-18.68-6.83c-6.132-2.692-11.617-6.133-16.448-10.315-4.835-4.182-8.737-9.339-11.709-15.472-2.976-6.134-4.461-13.753-4.461-22.86 0-9.85 1.995-18.304 5.995-25.37 3.994-7.061 9.198-12.916 15.612-17.563 6.411-4.644 13.659-8.038 21.745-10.175 8.084-2.135 16.212-3.207 24.394-3.207 11.522 0 22.303 2.048 32.339 6.133 10.037 4.091 18.121 9.575 24.254 16.449l-19.516 18.956zm229.714 130.192c-7.806 10.594-17.938 19.193-30.387 25.788-12.453 6.594-27.416 9.896-44.885 9.896-15.054 0-28.95-2.556-41.678-7.666-12.733-5.111-23.697-12.268-32.897-21.465-9.198-9.202-16.403-20.167-21.605-32.898-5.206-12.728-7.806-26.716-7.806-41.958 0-15.424 2.648-29.503 7.946-42.236 5.297-12.728 12.636-23.6 22.022-32.618 9.383-9.012 20.491-16.03 33.316-21.048 12.822-5.018 26.762-7.528 41.817-7.528 6.689 0 13.473.653 20.351 1.952 6.875 1.303 13.473 3.254 19.795 5.854 6.316 2.605 12.078 5.812 17.284 9.619 5.2 3.812 9.661 8.225 13.381 13.242l-21.745 16.728c-4.834-6.691-11.666-12.219-20.49-16.588-8.829-4.365-18.355-6.551-28.575-6.551-11.526 0-21.885 2.09-31.085 6.272s-17.055 9.897-23.558 17.145c-6.507 7.249-11.526 15.66-15.054 25.231-3.533 9.574-5.297 19.75-5.297 30.526 0 11.153 1.715 21.562 5.157 31.225 3.437 9.665 8.364 18.078 14.775 25.23 6.411 7.156 14.218 12.78 23.417 16.865 9.2 4.09 19.469 6.134 30.808 6.134 11.15 0 21.278-2.23 30.387-6.691 9.104-4.461 16.631-10.964 22.581-19.515l22.025 15.055zm103.429 35.684c-13.012 0-24.35-2.187-34.013-6.55-9.664-4.366-17.659-10.177-23.975-17.425-6.32-7.249-11.012-15.564-14.078-24.951-3.066-9.383-4.601-19.099-4.601-29.133V249.682h27.601v122.667c0 6.69.836 13.337 2.508 19.933 1.673 6.6 4.413 12.5 8.225 17.702 3.808 5.206 8.824 9.387 15.055 12.545 6.226 3.162 13.982 4.741 23.278 4.741 9.104 0 16.819-1.579 23.14-4.741 6.315-3.158 11.382-7.339 15.193-12.545 3.808-5.201 6.551-11.102 8.224-17.702 1.673-6.596 2.511-13.243 2.511-19.933V249.682h27.598v124.339c0 10.034-1.531 19.75-4.599 29.133-3.066 9.387-7.763 17.702-14.079 24.951-6.32 7.248-14.314 13.059-23.976 17.425-9.665 4.364-21.004 6.55-34.012 6.55zm150.821-29.552h103.149v24.534h-130.75v-197.38h126.567v24.255h-98.967v59.103h93.113v23.698h-93.113v65.79zm167.549 0h88.095v24.534h-115.695v-197.38h27.601v172.846zm122.939 24.534h-30.665l85.586-197.38h25.092l84.75 197.38h-31.223l-20.073-48.507h-93.672l-19.795 48.507zm29.553-72.763h73.877l-36.801-92.557-37.076 92.557z"/><path fill="#F46767" d="M774.169 601.843c0 15.515-2.877 28.901-8.632 40.161-5.757 11.26-13.348 20.518-22.771 27.775-9.427 7.255-20.06 12.597-31.903 16.014-11.845 3.421-23.857 5.129-36.03 5.129h-66.06V513.766h64.059a158.42 158.42 0 0137.031 4.379c12.176 2.92 23.021 7.756 32.528 14.513 9.51 6.755 17.181 15.808 23.021 27.149 5.837 11.344 8.757 25.357 8.757 42.036zm-44.54 0c0-10.009-1.625-18.305-4.879-24.897-3.252-6.587-7.593-11.842-13.012-15.764-5.423-3.916-11.595-6.713-18.517-8.383-6.923-1.664-14.055-2.501-21.393-2.501h-21.27V653.89h20.268c7.672 0 15.052-.877 22.145-2.628 7.088-1.751 13.344-4.63 18.767-8.633 5.419-4.003 9.76-9.34 13.012-16.014 3.254-6.67 4.879-14.927 4.879-24.772zm72.812 89.079V513.766h119.105v36.031h-77.819v33.53h73.565v34.279h-73.565v36.783h82.323v36.532H802.441zm341.301-3.128c-11.509 5.254-24.771 7.883-39.785 7.883-13.68 0-26.315-2.252-37.908-6.757-11.597-4.504-21.644-10.884-30.151-19.141-8.508-8.259-15.181-18.142-20.017-29.652-4.841-11.51-7.258-24.186-7.258-38.034 0-14.176 2.46-27.023 7.382-38.534 4.92-11.51 11.717-21.307 20.394-29.4 8.671-8.09 18.848-14.301 30.526-18.642 11.674-4.335 24.272-6.506 37.783-6.506 12.512 0 24.811 2.214 36.908 6.632 12.092 4.422 21.895 10.885 29.4 19.393l-29.025 29.025c-4.004-5.506-9.258-9.592-15.764-12.262-6.506-2.666-13.181-4.004-20.019-4.004-7.506 0-14.387 1.377-20.642 4.129-6.256 2.753-11.636 6.549-16.141 11.385-4.504 4.84-8.006 10.553-10.509 17.141-2.503 6.592-3.753 13.806-3.753 21.644 0 8.008 1.25 15.351 3.753 22.021 2.503 6.674 5.962 12.386 10.385 17.141 4.417 4.753 9.716 8.468 15.888 11.134 6.17 2.671 12.926 4.004 20.27 4.004 8.508 0 15.928-1.666 22.269-5.005 6.337-3.335 11.424-7.67 15.265-13.012l29.774 28.025c-7.841 9.005-17.514 16.138-29.025 21.392zm228.954-86.2c0 14.012-2.422 26.815-7.258 38.408-4.84 11.596-11.552 21.519-20.143 29.777-8.594 8.257-18.81 14.637-30.65 19.141-11.848 4.505-24.69 6.757-38.535 6.757-13.85 0-26.649-2.252-38.409-6.757-11.76-4.504-21.937-10.884-30.526-19.141-8.595-8.259-15.307-18.182-20.143-29.777-4.841-11.593-7.258-24.396-7.258-38.408 0-14.177 2.417-26.981 7.258-38.409 4.836-11.425 11.548-21.144 20.143-29.151 8.59-8.007 18.767-14.176 30.526-18.517 11.76-4.335 24.56-6.506 38.409-6.506 13.845 0 26.688 2.171 38.535 6.506 11.841 4.341 22.057 10.51 30.65 18.517 8.591 8.008 15.303 17.727 20.143 29.151 4.836 11.427 7.258 24.232 7.258 38.409zm-45.791 0c0-7.671-1.252-14.846-3.754-21.52-2.501-6.67-5.965-12.387-10.384-17.141-4.423-4.754-9.758-8.508-16.014-11.26-6.255-2.752-13.138-4.128-20.644-4.128s-14.348 1.376-20.518 4.128c-6.175 2.752-11.512 6.506-16.014 11.26-4.505 4.754-7.969 10.471-10.386 17.141-2.419 6.674-3.628 13.849-3.628 21.52 0 8.007 1.252 15.388 3.752 22.144 2.503 6.756 5.963 12.555 10.386 17.391 4.419 4.841 9.715 8.632 15.89 11.385 6.17 2.753 13.012 4.129 20.518 4.129s14.344-1.376 20.518-4.129c6.17-2.753 11.512-6.544 16.014-11.385 4.504-4.836 8.009-10.635 10.51-17.391 2.502-6.757 3.754-14.137 3.754-22.144zm200.927 86.2c-11.509 5.254-24.771 7.883-39.785 7.883-13.681 0-26.315-2.252-37.908-6.757-11.597-4.504-21.644-10.884-30.151-19.141-8.508-8.259-15.181-18.142-20.017-29.652-4.841-11.51-7.258-24.186-7.258-38.034 0-14.176 2.46-27.023 7.382-38.534 4.92-11.51 11.717-21.307 20.394-29.4 8.671-8.09 18.848-14.301 30.526-18.642 11.674-4.335 24.272-6.506 37.783-6.506 12.512 0 24.811 2.214 36.908 6.632 12.092 4.422 21.895 10.885 29.4 19.393l-29.025 29.025c-4.004-5.506-9.258-9.592-15.764-12.262-6.506-2.666-13.181-4.004-20.019-4.004-7.506 0-14.387 1.377-20.642 4.129-6.256 2.753-11.636 6.549-16.141 11.385-4.504 4.84-8.006 10.553-10.509 17.141-2.503 6.592-3.753 13.806-3.753 21.644 0 8.008 1.25 15.351 3.753 22.021 2.503 6.674 5.962 12.386 10.385 17.141 4.417 4.753 9.716 8.468 15.888 11.134 6.17 2.671 12.926 4.004 20.27 4.004 8.508 0 15.928-1.666 22.269-5.005 6.337-3.335 11.424-7.67 15.265-13.012l29.774 28.025c-7.841 9.005-17.514 16.138-29.025 21.392zm47.291 3.128V513.766h43.039v177.156h-43.039zm192.168 0l-71.313-115.853h-.749l1 115.853h-41.537V513.766h48.794l71.063 115.602h.749l-1-115.602h41.537v177.156h-48.544zm205.181 0l-13.764-34.781h-68.561l-13.012 34.781h-46.54l74.315-177.156h41.536l73.565 177.156h-47.539zm-47.544-129.864l-22.52 60.803h44.54l-22.02-60.803z"/></svg>