<svg xmlns="http://www.w3.org/2000/svg" width="239.564" height="169.676"><g fill="#B89D64"><path d="M63.077 111.646a48.512 48.512 0 002.307 3.939c-11.096-.009-29.924 2.303-34.159 13.852-.068.094-.13.195-.168.328-.082.271-.128.531-.19.795-.016.061-.027.121-.042.182-.042.188-.091.379-.122.561-.042.201-.095.395-.13.598a.257.257 0 00.038.195c-.498 5.104 2.77 8.67 7.536 11.213 8.22 6.266 17.38 10.227 27.026 12.719-.113.273.202.627.496.438.111-.07.217-.148.33-.22 7.901 1.969 16.121 2.969 24.42 3.437.057.196.25.353.494.221.102-.053.199-.118.301-.174 11.634.606 23.407.203 34.655-.004 29.426-.541 70.47.324 92.513-16.162 3.088-1.438 5.685-3.371 7.237-6.031a.652.652 0 00.746-.396c8.857-19.395-28.675-20.704-40.296-20.216 1.311-1.634 2.57-3.337 3.71-5.189 14.047-22.821 16.367-54.905 13.352-80.878-.007-.053-.029-.091-.04-.138.168.064.334.143.505.204.19.071.308-.19.188-.321-18.156-19.618-53.53-19.48-77.999-20.574-22.793-1.021-57.84-2.254-74.806 16.413 0 0-1.257.526-2.072 2.624-1.471 3.785.472 9.912-.514 13.674-5.968-5.698-14.817-6.427-22.133-2.101-8.505 5.027-12.486 15.521-13.161 24.934-2.07 28.861 24.546 42.753 49.29 46.188.26.034.484-.023.688-.111zM49.27 61.036c-8.785-5.94-22.138-7.627-22.711 6.557-.74 18.312 14.108 25.972 30.063 28.548 1.525 4.477 3.268 8.859 5.277 13.104-16.688-2.473-34.214-8.503-42.64-24.347-4.983-9.369-5.063-21.58-.72-31.145 5.247-11.551 19.171-19.115 29.782-8.346.033.033.066.042.102.071.067 5.17.348 10.374.847 15.558zm6.627 32.961c-10.135-2.741-22.089-5.649-25.715-16.892-2.01-6.231-2.351-15.279 4.883-18.33 4.651-1.959 10.56 2.705 14.306 5.076.071.047.137.053.206.082 1.153 10.231 3.197 20.366 6.32 30.064zm48.15-66.919l.053-.049m-1.029.109c-13.285.879-26.422 3.312-38.792 8.419-.724.299-.879 1.076-.651 1.639-3.969-2.349-7.438-5.477-10.033-9.765-.031-.052-.069-.082-.102-.124C71.259 9.33 106.46 11.458 129.427 12.645c14.031.726 28.392 1.19 42.06 4.693 10.606 2.716 19.539 8.419 29.408 12.494-.015.014-.033.016-.051.031-3.5 3.42-7.613 5.855-12.041 7.678-.009-.005-.013-.012-.022-.016-17.598-8.824-40.181-9.336-59.494-10.414-2.01-.11-4.029-.194-6.05-.261-.066-.111-.215-.171-.323-.056-.013.014-.026.029-.04.042a212.21 212.21 0 00-15.386.042M72.795 39.713a5.245 5.245 0 00-.804 1.157c-.447-.144-.872-.325-1.312-.48 2.922-1.802 5.607-4.276 8.087-6.734 1.078-.257 2.156-.514 3.239-.746a406.642 406.642 0 01-9.292 7.99 3.7 3.7 0 01.525-.844c.184-.266-.232-.578-.443-.343zm11.543 3.457c-.12.182-.239.365-.359.55-.729-.122-1.457-.255-2.185-.39 5.187-4.016 10.122-8.397 14.915-12.878 1.007-.115 2.015-.234 3.024-.332-4.977 4.443-9.962 8.875-14.925 13.331l.002-.004c.148-.316-.277-.576-.472-.277zm97.908-3.4c-.841.237-1.698.435-2.548.646.974-1.026 1.839-2.158 2.592-3.276.673.237 1.35.468 2.012.722-.675.649-1.342 1.301-2.056 1.908zm2.468-1.749c.467.184.941.352 1.404.542-.828.29-1.665.56-2.508.817.42-.446.789-.902 1.104-1.359zm-5.63 2.124c-.23.221-.487.407-.731.613-1.076.25-2.158.442-3.239.664.514-.428 1.021-.854 1.515-1.275 1.062-.898 2.121-1.822 3.092-2.818.299-.308.574-.494.673-.823.474.155.95.299 1.419.462-.827 1.129-1.715 2.204-2.729 3.177zm-5.413 1.571c-1.051.206-2.081.372-3.128.564.259-.323.511-.631.744-.872 1.919-1.997 3.917-3.914 5.911-5.836.885.257 1.789.477 2.663.758.002.013-.013.026-.007.037.018.029.036.058.051.087.044.075.108.084.17.07-.682.863-4.235 3.584-4.638 3.903-.57.454-1.172.868-1.766 1.289zm-3.949.5c-.075.075-.155.167-.235.255-.832.15-1.656.297-2.488.449 2.52-2.513 4.833-5.3 7.007-8.021a.183.183 0 00.042-.137c.919.236 1.851.44 2.758.699a97.33 97.33 0 00-4.425 4.075c-.899.88-1.787 1.775-2.659 2.68zm-4.175.966c-.257.044-.52.098-.772.14-.596.1-1.195.17-1.793.266 3.206-2.902 6.186-6.115 9.085-9.28.542.128 1.098.232 1.641.369-2.578 2.999-5.394 5.718-8.161 8.505zm-4.029.622c-.974.15-1.952.261-2.929.4 3.522-3.301 6.768-7.056 9.934-10.646.983.203 1.975.387 2.946.612-3.23 3.309-6.637 6.422-9.951 9.634zm-4.27.584c-.804.111-1.609.195-2.413.297 3.801-3.692 7.385-7.702 10.903-11.649.746.138 1.497.26 2.236.408-3.572 3.608-7.355 7.15-10.726 10.944zm-3.618.447c-.666.082-1.333.145-1.999.222 4.116-3.907 7.923-8.279 11.744-12.42.551.094 1.105.171 1.654.271-3.803 3.957-7.724 7.854-11.399 11.927zm-3.588.398c-1.103.124-2.209.224-3.314.335 4.549-4.389 8.968-8.946 13.413-13.427.895.133 1.793.259 2.686.405-4.231 4.218-8.712 8.311-12.785 12.687zm-4.835.488c-.697.064-1.395.117-2.092.177 4.576-4.503 8.829-9.471 13.094-14.254 1.098.139 2.201.243 3.294.402-4.857 4.423-9.732 8.937-14.296 13.675zm-3.43.29c-1.182.098-2.369.152-3.553.234 4.937-4.786 9.597-9.942 14.252-15.012.972.106 1.944.19 2.914.311-4.607 4.708-9.387 9.424-13.613 14.467zm-4.585.301c-1.009.064-2.021.111-3.033.164 5.222-4.893 10.117-10.159 14.782-15.585.963.093 1.924.17 2.887.274-4.961 4.948-10.009 9.904-14.636 15.147zm-4.307.235c-.671.03-1.342.037-2.015.066 5.147-4.908 10.06-10.262 14.164-16.06 1.063.089 2.123.171 3.188.271-4.939 5.417-10.095 10.593-15.337 15.723zm-3.697.112c-.055-.332-.469-.23-.556.026-.999.031-1.999.089-3 .098h-.024c5.501-5.284 10.761-10.848 15.897-16.486.923.068 1.835.115 2.763.19-2.263 2.757-4.485 5.539-6.883 8.187a141.162 141.162 0 01-4.521 4.762c-.387.39-3.661 3.33-3.676 3.223zm-5.042.126c-.932.003-1.866-.006-2.8-.013 6.099-4.913 11.581-10.715 16.604-16.71.853.058 1.693.104 2.55.164-2.515 2.652-5.03 5.302-7.584 7.912a583.958 583.958 0 01-4.76 4.812c-.657.656-3.372 2.629-4.01 3.835zm-4.241-.019c-.994-.011-1.988-.06-2.982-.082a2197.155 2197.155 0 0014.153-14.055c.532-.535 2.374-1.99 2.863-2.813 1.002.062 1.999.117 3.006.184-5.296 6.02-11.065 11.408-17.04 16.766zm-4.306-.12c-.961-.024-1.921-.082-2.882-.12 2.98-1.562 5.973-5.034 8.269-7.064 3.509-3.105 6.938-6.349 10.119-9.8.749.042 1.479.072 2.231.117-1.126 1.098-3.316 2.758-3.838 3.266-1.519 1.472-3.031 2.95-4.545 4.427-3.126 3.049-6.25 6.103-9.354 9.174zm-4.056-.237c.117-.312-.341-.569-.556-.325l-.135.152a.405.405 0 00-.1.211 261.663 261.663 0 01-6.737-.393c.398-.234.706-.432.629-.383.998-.629 1.881-1.609 2.76-2.389a164.098 164.098 0 0010.987-10.695 138.73 138.73 0 001.968-2.16c.071-.077.412-.587.793-1.158 1.479.031 2.953.043 4.438.104.224.009.456.024.682.035-2.225 2.464-5.089 4.536-7.513 6.661-3.234 2.834-6.688 5.493-9.768 8.49-.248.241.091.699.376.487 3.675-2.698 7.013-5.933 10.387-8.997 2.245-2.037 5.067-4.106 7.016-6.615 1.277.062 2.563.131 3.856.202-2.874 2.371-5.641 5.2-8.477 7.722a177.715 177.715 0 01-5.282 4.521c-1.388 1.145-4.681 2.797-5.324 4.53zm-8.671-.449c-.791-.06-1.576-.133-2.364-.199 6.161-5.03 12.085-10.518 17.308-16.504.923.004 1.844-.016 2.771 0-2.896 3.077-5.798 6.139-8.886 9.034a173.524 173.524 0 01-5.988 5.359c-.868.738-2.02 1.435-2.841 2.31zm-3.37-.414c-.024.026-.057.077-.09.122-.935-.085-1.866-.202-2.801-.297 5.991-4.771 11.72-10.427 16.838-16.055 1.2-.022 2.397-.06 3.602-.06-2.979 3.006-5.933 6.032-9.048 8.908a181.555 181.555 0 01-5.614 4.979c-.93.792-2.085 1.498-2.887 2.403zm-4.033-.297c-.713-.075-1.423-.168-2.136-.248a713.237 713.237 0 0017.028-15.58c.768-.027 1.534-.073 2.302-.091-5.786 5.171-11.693 10.449-17.194 15.919zm-3.097-.36l-.43-.049a.295.295 0 00-.35-.042c-.859-.104-1.713-.244-2.572-.356 5.324-4.687 11.306-9.406 16.116-14.749 1.435-.091 2.872-.181 4.315-.238-3.168 2.827-6.321 5.667-9.484 8.498-1.922 1.718-3.841 3.44-5.765 5.158-.561.5-1.188 1.173-1.83 1.778zm-3.56-1.405c-.11-.199-.418-.285-.533-.028-.124.276-.248.554-.374.83-.777-.108-1.554-.215-2.333-.325 5.284-4.47 10.427-9.154 15.428-13.947 1.043-.093 2.088-.192 3.135-.264-4.737 4.891-10.326 9.174-15.323 13.734zm-7.979-.34c-.536-.104-1.069-.236-1.605-.352 4.485-3.659 8.795-7.578 12.818-11.74a146.8 146.8 0 013.542-.478c-4.852 4.27-9.811 8.402-14.755 12.57zm-2.636-.578c-.811-.184-1.612-.395-2.416-.603 4.288-2.902 8.18-6.56 11.877-10.168 1.039-.182 2.075-.39 3.115-.549-4.102 3.877-8.27 7.66-12.576 11.32zm-3.181-.793c-.509-.137-1.009-.295-1.514-.442 3.425-2.776 6.728-5.708 9.954-8.714 1.022-.21 2.041-.432 3.066-.62-3.742 3.381-7.716 6.458-11.506 9.776zm-5.211-1.705c-.352-.133-.695-.283-1.045-.42.999-.828 1.943-1.74 2.875-2.595.755-.693 1.499-1.395 2.236-2.105 1.069-.297 2.137-.615 3.208-.883-2.415 2.019-4.919 3.916-7.274 6.003zm-1.944-.783a43.668 43.668 0 01-1.452-.636 46.788 46.788 0 002.608-2.277c1.131-.354 2.265-.697 3.4-1.025-.343.316-.671.646-1.019.956-1.135 1.011-2.388 1.955-3.537 2.982zm131.234 111.844c2.072-1.466 4.184-2.83 6.422-4.066a75.626 75.626 0 005.275-1.008c-3.756 2.049-7.677 3.692-11.697 5.074zm-5.665 1.737c2.608-1.685 5.165-3.47 7.735-5.198.935-.117 1.893-.243 2.887-.387-2.316 1.187-4.521 2.646-6.467 4.355a89.302 89.302 0 01-4.155 1.23zm-5.16 1.218c2.986-1.973 5.959-3.973 8.959-5.924.901-.115 1.869-.232 2.9-.361-2.865 1.812-5.761 3.606-8.55 5.528a94.391 94.391 0 01-3.309.757zm-10.873 1.775c3.157-2.006 6.19-4.215 9.116-6.549a265.97 265.97 0 009.59-1.021c-3.21 1.902-6.387 3.914-9.397 6.117-1.081.219-2.167.414-3.259.603 2.771-1.676 5.408-3.69 7.896-5.637.21-.164-.084-.454-.292-.292-2.971 2.296-6.146 4.188-9.274 6.195-1.448.233-2.916.401-4.38.584zm-14.531 1.22c3.382-2.101 6.606-4.527 9.831-6.88.988-.055 1.977-.088 2.964-.146-3.031 2.059-6.147 3.998-9.072 6.189-.286.215-.047.65.283.486 3.604-1.805 6.978-4.287 10.23-6.759 1.065-.065 2.134-.104 3.197-.18-3.135 1.978-6.268 3.959-9.298 6.079-.29.203-.031.669.281.482 3.544-2.107 6.985-4.396 10.427-6.67 1.222-.094 2.444-.174 3.662-.279-3.093 2.303-6.268 4.48-9.468 6.652-4.306.502-8.665.818-13.037 1.026zm-3.624.114c.752-.57 1.443-1.164 1.899-1.463 2.743-1.793 5.486-3.588 8.231-5.381.626-.031 1.257-.05 1.884-.08-3.232 2.19-6.502 4.379-9.495 6.852-.839.035-1.68.045-2.519.072zm-5.061.118c3.896-2.197 7.722-4.527 11.563-6.812.741-.031 1.483-.055 2.225-.089l-5.525 3.56c-.37.237-3.12 2.088-4.855 3.272-1.136.033-2.272.043-3.408.069zm-7.799.102c3.531-1.845 6.852-4.146 9.98-6.603 1.191-.039 2.38-.069 3.571-.111-3.354 1.951-6.719 3.892-10.015 5.938-.354.219-.04.76.323.557 3.768-2.104 7.463-4.342 11.173-6.545.997-.035 1.99-.058 2.987-.098-3.868 2.227-7.762 4.428-11.552 6.785-2.159.038-4.315.06-6.467.077zm-5.532.028c3.642-1.979 7.155-4.254 10.664-6.478 1.311-.042 2.617-.08 3.927-.124a84.101 84.101 0 01-4.656 3.208c-1.777 1.122-4.069 2.022-5.645 3.373h-.036c.157-.203-.11-.54-.338-.376-.264.189-.392.268-.447.381-1.162.009-2.309.013-3.469.016zm-5.003.028c3.502-2.066 6.969-4.201 10.429-6.338 1.211-.038 2.413-.08 3.624-.117-3.491 2.055-7.011 4.106-10.296 6.437-1.258.002-2.504.011-3.757.018zm-4.944.043c.79-.582 1.525-1.154 2.112-1.521 2.42-1.51 4.799-3.086 7.177-4.662 1.618-.051 3.23-.109 4.848-.157-3.58 2.069-7.16 4.144-10.682 6.306-.033.002-.064.002-.097.002.015-.074.033-.145.048-.217.084-.396-.476-.55-.606-.169-.044.128-.086.259-.128.388-.899.004-1.778.02-2.672.03zm-5.802.07c3.582-1.99 7.082-4.146 10.704-6.07.022-.012.02-.031.038-.045.908-.025 1.815-.06 2.725-.086-1.492.973-2.973 1.959-4.483 2.906-1.661 1.043-3.885 2.027-5.645 3.25-.855.012-1.725.014-2.573.029-.255.004-.512.011-.766.016zm-3.564.068c2.778-1.946 5.517-3.961 8.233-5.986 1.426-.049 2.856-.094 4.284-.137-3.65 1.828-7.358 3.771-10.706 6.088-.603.011-1.209.026-1.811.035zm-6.985.133c3.254-1.561 6.3-3.688 9.156-5.906 1.676-.061 3.352-.117 5.023-.18l.14-.004c-2.911 1.949-5.816 3.923-8.643 5.982-1.884.04-3.779.077-5.676.108zm-2.085.031a166.677 166.677 0 007.12-5.801c1.027-.035 2.057-.063 3.086-.101-3 2.104-6.141 3.914-9.243 5.887-.319.01-.642.012-.963.015zm-4.66.045c2.743-1.645 5.391-3.735 7.883-5.627.04-.03.046-.07.066-.107.979-.029 1.959-.051 2.938-.082-2.427 1.979-4.899 3.891-7.388 5.787-1.164.016-2.333.024-3.499.029zm-4.842.004c2.856-1.731 5.608-3.704 8.349-5.631 1.142-.025 2.282-.049 3.424-.08-2.776 1.75-5.727 3.582-8.213 5.715a384.13 384.13 0 01-3.56-.004zm-4.204-.06c2.674-1.68 5.242-3.65 7.79-5.486 1.151-.017 2.302-.029 3.454-.055-2.847 1.782-5.716 3.573-8.368 5.588a250.75 250.75 0 01-2.876-.047zm-4.157-.121c2.515-1.643 4.923-3.472 7.261-5.326 1.107-.004 2.211-.006 3.316-.019-2.725 1.722-5.512 3.456-8.025 5.429-.852-.023-1.702-.054-2.552-.084zm-5.085-.252c2.468-1.625 4.873-3.377 7.263-5.09 1.287.014 2.573.021 3.859.021-2.5 1.826-5.065 3.533-7.633 5.256a212.688 212.688 0 01-3.489-.187zm-4.18-.332c2.495-1.436 4.868-3.15 7.157-4.854 1.058.023 2.119.068 3.179.084-2.528 1.611-5.047 3.268-7.487 5.013-.954-.068-1.899-.161-2.849-.243zm-4.578-.475c2.34-1.293 4.527-2.885 6.59-4.564 1.277.051 2.555.115 3.832.15-2.433 1.646-4.939 3.163-7.403 4.755-1.011-.097-2.014-.224-3.019-.341zm-4.685-.626c2.088-1.472 4.171-2.907 6.38-4.198 1.24.076 2.479.155 3.721.211-2.218 1.631-4.541 3.057-6.914 4.445-1.066-.135-2.126-.297-3.187-.458zm-3.896-.66c.146-.149.292-.292.436-.416a28.776 28.776 0 012.369-1.819c.892-.615 1.829-1.153 2.781-1.66 1.056.086 2.109.201 3.166.271-2.119 1.193-4.162 2.553-6 4.115-.921-.15-1.838-.32-2.752-.491zm-3.693-.757c1.782-1.205 3.566-2.4 5.426-3.507.81.077 1.62.173 2.431.243a27.791 27.791 0 00-4.096 2.803c-.398.328-.772.68-1.165 1.017-.867-.173-1.732-.363-2.596-.556zm-3.677-.935c1.515-.918 3.015-1.854 4.574-2.696.155-.087.182-.22.164-.351 1.038.121 2.077.241 3.117.351-1.846 1.009-3.701 2.101-5.413 3.347-.821-.194-1.627-.439-2.442-.651zm-3.486-1.02c1.412-.886 2.82-1.771 4.306-2.548.992.144 1.983.292 2.978.414-1.665.866-3.325 1.784-4.859 2.868-.816-.225-1.618-.486-2.425-.734zm-3.04-.998c1.005-.618 1.959-1.426 2.871-2.207 1.138.168 2.183.318 3.062.458-1.35.71-2.663 1.513-3.854 2.457-.697-.222-1.386-.47-2.079-.708zm-2.55-.926c.695-.355 1.321-.854 1.881-1.395.137-.134.14-.283.098-.422.739.12 1.483.239 2.169.344-.883.646-1.751 1.33-2.444 2.109-.571-.198-1.138-.421-1.704-.636zm-1.098-.416c-.534-.213-1.058-.458-1.59-.686a9.37 9.37 0 011.951-1.175c.622.11 1.246.224 1.846.323-.68.614-1.437 1.06-2.207 1.538zm-7.917-3.701c2.269.631 4.569 1.135 6.785 1.561a8.11 8.11 0 00-1.417 1.045c-1.815-.797-3.612-1.643-5.368-2.606zm20.108-28.9c13.209 17.992 35.866 20.211 58.183 21.236 22.131 1.016 45.823-3.835 60.328-21.12 10.972 1.372 40.805.808 39.848 16.474-.365.93-.859 1.789-1.45 2.591a66.599 66.599 0 01-5.889 4.764c-7.613 3.976-19.205 5.118-28.729 5.565.124-.104.254-.207.378-.311.263-.22-.113-.585-.374-.375-.308.251-.626.483-.939.729-4.505.195-8.49.244-11.275.384-14.808.744-29.638 1.146-44.453 1.69-13.666.508-105.056 5.371-99.524-19.028a.928.928 0 00-.432-1.041c6.541-10.131 23.89-10.887 34.328-11.558zm81.625-69.776c4.961-.503 9.913-1.099 14.834-1.891.1.051.219.068.332-.022.016-.013.029-.026.044-.04 1.208-.197 2.417-.387 3.62-.6 12.087-2.143 25.237-4.232 34.121-13.312.128 2.462.197 4.954.239 7.456-3.128.312-6.332.264-9.422.73-.417.062-.261.645.09.678 3.035.292 6.301-.229 9.34-.636.022 1.503.046 3.004.046 4.514-3.779-.108-7.784-.247-11.514.419-.394.068-.285.678.091.678 3.803.006 7.609-.43 11.421-.435-.002 1.632.022 3.257-.016 4.893-1.594.058-3.19.115-4.786.177-.292.012-5.838.169-5.654-.203a.3.3 0 00-.472-.361 40.3 40.3 0 01-.325.279c-.102.086-.135.252-.1.376.423 1.471 2.101.938 3.336.87 2.661-.146 5.322-.303 7.983-.463-.028 1.136-.048 2.27-.095 3.407-1.787.129-3.576.257-5.364.388-1.193.086-4.326-.248-5.346.487.378-.272.06-.809-.363-.62-.088.04-.179.08-.268.117-.12.053-.195.213-.193.337l.007.339a.426.426 0 00.21.367c1.255.653 3.224.035 4.574-.075l6.701-.554c-.08 1.828-.162 3.657-.292 5.486-3.374.432-6.575.152-9.986.274-.37.013-.447.54-.089.644 3.095.896 6.746.547 10.002-.02-.128 1.665-.226 3.334-.403 4.994-3.028.058-6.336.071-9.187.877-.332.095-.248.562.08.582 2.931.173 6.043-.334 9.021-.629a151.08 151.08 0 01-.604 4.798c-2.909-.202-5.904-.573-8.795-.388-.339.02-.458.564-.084.626 2.852.461 5.855.396 8.765.474-.237 1.61-.487 3.217-.782 4.813-3.079-.374-6.313-.578-9.322-.071-.392.066-.27.648.089.662 3.042.115 6.048.016 9.081.175-.286 1.506-.565 3.013-.903 4.503-2.978-.108-5.942-.522-8.911-.529-.332-.002-.405.503-.08.582 2.818.678 5.893.665 8.835.641-1.423 6.118-3.298 12.101-5.762 17.83-3.786.256-7.405-.136-11.171-.445-.394-.03-.463.591-.093.681 3.529.84 7.326.795 10.934.514a92.162 92.162 0 01-1.767 3.801c-.144.288-.303.551-.452.832-1.08-.646-2.922-.018-4.113.043-2.181.107-4.365-.08-6.542.037-.31.016-.41.5-.075.564 1.64.311 3.316.291 4.981.24a46.757 46.757 0 002.453-.14c.294-.022 1.884-.36 2.644-.427-.157.102-.244.306-.064.474l.131.124c.02.02.049.02.071.033a56.812 56.812 0 01-2.017 3.354c-3.841-.078-7.675-.312-11.514-.378-.385-.007-.363.54 0 .58 3.668.418 7.425.433 11.131.356-2.267 3.361-4.826 6.356-7.677 8.945-4.012-.106-8.134.039-12.063.703-.363.062-.274.66.086.639 3.739-.227 7.452-.489 11.186-.65a51.257 51.257 0 01-3.15 2.552c-3.695.548-7.4.798-11.106 1.238-.312.037-.332.493 0 .5 3.334.067 6.69-.386 9.986-.968-1.64 1.146-3.327 2.226-5.085 3.188-.801.068-1.667.046-2.373.115-2.243.214-4.492.398-6.724.708-.367.053-.276.671.089.646 2.495-.179 5.074-.382 7.611-.707-12.627 6.469-27.834 8.467-42.502 7.795-12.247-.564-25.563-1.44-37.25-5.359-14.937-5.01-22.415-18.148-27.407-32.188-7.945-22.341-10.624-46.198-9.035-69.784.146 0 .294-.04.438-.115 12.897 21.064 48.752 20.084 70.098 20.205 6.954.04 13.907-.266 20.841-.823m1.138-.098c1.233-.104 2.466-.197 3.697-.318"/><path d="M170.827 116.009c3.91-.409 7.981-.114 11.875.354.237.027.325.303.122.447-.575.399-.374.336-1.076.317-.259-.007-.259-.39 0-.401-3.325.16-7.383-.053-10.921-.16-.366-.009-.35-.522 0-.557zm11.578-18.957c3.416-.032 6.819.214 10.239.099.427-.015.425.642 0 .662-3.412.164-6.927.312-10.319-.166-.345-.049-.25-.59.08-.595zm1.366-5.173c3.615-.162 7.288.199 10.918.133.456-.01.445.668 0 .701-3.566.252-7.479.477-10.998-.234-.35-.072-.25-.584.08-.6zm1.034-3.818c3.675-.442 7.589-.25 11.262.154.35.039.37.573 0 .564-3.748-.092-7.521-.006-11.262-.162-.366-.015-.348-.515 0-.556z"/></g><path fill="#B89D64" d="M188.179 38.879s-27.452 18.432-96.446 8.915C60.675 43.51 61.517 37.256 61.517 37.256s3.074-7.402 50.977-8.807c47.901-1.405 66.41 7.212 75.685 10.43z"/></svg>