<svg xmlns="http://www.w3.org/2000/svg" width="239.564" height="169.676" viewBox="334.564 0 239.564 169.676"><g fill="#B89D64"><path d="M563.663 23.159c-3.086-5.364-10.101-7.078-15.748-8.026-5.064-.849-10.617-1.067-15.937-.28-.277-.231-.649-.336-1.011-.167-.356.172-.658.353-.983.53-2.768.553-5.454 1.37-7.931 2.579-8.744-3.236-18.417-3.919-26.767-.918-13.865-5.996-29.443-7.166-43.229-.99-1.661-.896-3.377-1.646-5.155-2.198-6.442-1.997-12.457-.333-18.179 2.862-7.047 3.938-13.556 7.902-21.067 10.977-12.781 5.23-24.337 13.83-22.837 28.993-.14.43-.253.869-.342 1.317-1.289 2.921-1.856 5.989-1.125 8.757-5.621 4.116-9.184 10.787-10.446 17.614a34.636 34.636 0 0 0-.532 5.357c-.674 3.041-.668 6.174-1.53 9.188-.281.982-.753 1.889-1.262 2.775-3.557 3.271-6.229 8.229-8.001 11.85-3.625 7.411-10.386 20.316-6.197 28.876 6.625 16.634 30.492 16.956 45.137 13.177 6.179-1.598 12.429-4.519 18.814-5.024.381-.03.75-.013 1.119 0 .812 1.392 2.083 2.663 3.023 3.428 3.543 2.884 8.311 3.69 12.743 3.421 4.005-.242 9.816-1.438 14.676-3.811 2.11-.743 4.112-1.729 5.842-3.031 1.325-.273 2.643-.641 3.958-1.008 8.871-.482 17.464-5.405 25.227-11.492 6.937-4.43 13.319-9.686 19.111-15.575 4.976-5.062 9.457-10.603 13.548-16.416 5.662-7.052 10.609-14.922 13.255-23.2.919-2.286 1.696-4.643 2.181-7.003.081-.178.161-.356.246-.531.542-1.105 1.12-2.189 1.66-3.294.393-.496.751-1.024 1.126-1.537 2.474-2.503 4.38-5.667 5.802-9.021.911-1.667 1.666-3.629 2.556-5.391a40.68 40.68 0 0 1 1.987-2.347c2.049-.715 4.141-1.881 6.141-3.361 5.248-2.668 11.346-8.592 10.926-14.757 1.35-4.223 1.369-8.557-.799-12.323zm-32.777-4.944c.036-.024.072-.051.109-.077 9.212-1.32 19.18-1.854 26.692 3.501 7.141 5.087 3.73 14.317-.343 20.252-1.843 2.688-4.044 4.705-6.438 6.532-.54.228-1.072.465-1.633.646-.093-.102-.143-.228-.271-.304-2.312-1.358-2.245-6.739-3.067-9.156-.661-1.947-1.658-3.812-2.811-5.538a24.56 24.56 0 0 0-1.58-2.349c-2.443-3.216-5.53-6.069-9.014-8.48-1.442-1.481-2.375-3.129-1.644-5.027zm5.317 12.767c11.068 11.349 6.495 25.903-1.118 37.568-.188.188-.372.381-.544.575-.069-.864-.171-1.723-.37-2.564-1.746-20.542-16.837-38.896-35.774-48.247 13.99-.383 27.504 2.11 37.806 12.668zm-141.207 6.493c4.945-4.263 11.296-6.417 17.247-8.853 11.516-4.713 23.189-17.2 36.274-11.387 11.752 5.222 20.4 19.162 26.773 29.813 3.716 6.208 6.912 12.733 9.589 19.456 2.795 7.019 6.991 16.148 5.115 23.83-13.523-4.002-22.375-13.609-32.702-22.684-10.224-8.984-21.594-18.588-34.682-23.018-9.743-3.296-21.384-3.418-29.992 2.888-.591.434-1.197.957-1.804 1.521-1.473.993-2.785 2.174-3.846 3.52.995-5.755 3.486-11.166 8.028-15.086zm3.418 13.191c-2.469.166-4.997.719-7.248 1.715.765-.814 1.564-1.582 2.43-2.26 6.894-3.355 16.562-2.813 23.703-.451 9.4 3.109 16.434 10.033 23.608 16.513 7.346 6.634 15.231 13.025 23.846 17.982-14.053-6.907-26.949-17.599-39.629-25.351-8.01-4.895-17.128-8.8-26.71-8.148zm20.955 9.101c-.346-.132-.692-.265-1.046-.375-2.945-1.32-6.092-2.35-9.234-3.117-3.812-1.419-7.917-2.358-11.921-2.042a26.88 26.88 0 0 0-.841-.064c5.508-.418 12.02.959 16.678 2.56a59.391 59.391 0 0 1 4.542 1.951c.621.339 1.219.716 1.822 1.087zm34.245 13.441c-9.223-7.176-17.097-16.521-27.235-22.443-5.838-3.409-12.798-5.497-19.714-5.67 12.437-1.299 23.995 5.123 33.686 12.281 9.06 6.69 17.123 14.384 25.472 21.899 2.229 2.009 4.584 4.002 7.058 5.832-6.819-3.139-13.205-7.182-19.267-11.899zm-30.787 69.983c-.428-.311-.979-.441-1.618-.159-17.123 7.532-37.858 14.171-55.664 4.724-6.461-3.428-9.721-8.428-8.085-15.73 1.106-4.942 3.038-9.844 5.091-14.465 1.909-4.295 3.9-8.088 6.581-11.178.966-.513 1.76-1.347 2.402-2.402a21.174 21.174 0 0 1 5.275-3.328 5.764 5.764 0 0 0 2.016.351c2.618-.022 5.151-1.312 7.774-1.599 3.569-.389 7.143-.184 10.656.562 6.667 1.415 12.941 4.677 18.275 8.859 7.796 6.114 12.281 13.985 11.986 22.5-.13.729-.263 1.452-.4 2.185-.772 3.559-2.084 6.954-4.289 9.68zm7.771 11.233c-.579-.107-3.497-1.266-6.041-2.749 2.375.69 4.806 1.207 7.246 1.474 1.604.561 3.231 1.045 4.904 1.377-2.054.242-4.123.264-6.109-.102zm95.001-66.572c-1.452 2.808-3.081 5.599-4.833 8.44-2.555 4.147-5.347 8.151-8.312 12.022-3.536 4.102-7.349 7.973-11.277 11.674-5.157 4.859-10.334 9.781-15.828 14.121-3.83 2.55-7.821 4.853-11.982 6.83-1.774.843-3.566 1.562-5.367 2.223a.742.742 0 0 0-.506-.247c-1.481-.129-3.015.09-4.476-.095-1.603-.202-3.436-1.284-3.424-2.946 7.534-14.802 1.77-36.342-10.58-46.944-.394-.337-.954.133-.777.586 2.633 6.772 7.212 12.562 9.526 19.525a41.294 41.294 0 0 1 1.477 5.818c-.175 3.293-.241 6.568-1.089 9.873-.99 3.854-2.725 7.285-4.434 10.771-5.279 5.276-9.131 12.074-18.476 10.013-4.932-1.086-6.411-4.453-6.532-8.568 3.312-4.772 3.549-10.219 1.944-15.559.032-.604.042-1.184.008-1.725-.039-.586-.483-.916-.984-1.016-3.564-8.555-11.4-16.465-18.252-20.373-9.389-5.358-17.921-5.939-28.345-5.107-2.754.219-4.854-.3-6.185-1.725 5.926-12.63 27.5-10.868 37.708-4.896 10.792 6.314 16.062 17.365 22.294 27.639.161.266.521.006.442-.252-4.653-15.195-14.754-30.166-31-34.084-7.818-1.886-17.027-1.426-24.184 2.523-2.65 1.46-5.334 3.666-6.634 6.331a9.714 9.714 0 0 1-.218-1.395 25.966 25.966 0 0 1 .029-4.228c2.678-5.42 9.239-9.104 14.815-10.26 7.226-1.502 14.107.62 20.656 3.529.281.124.539-.284.281-.47-7.156-5.151-16.479-6.755-24.837-3.601-3.206 1.21-7.657 3.783-10.33 7.095.038-.172.063-.351.105-.522a25.145 25.145 0 0 1 1.795-5c6.59-8.256 16.677-10.528 27.675-9.055 5.672.762 11.541 1.826 16.266 5.271 4.015 2.928 7.143 7.15 10.407 10.849.097.109.31.015.238-.136-2.564-5.338-5.622-10.415-10.779-13.604a23.71 23.71 0 0 0-1.709-.936c-5.855-5.387-14.146-7.726-22.006-7.826-2.485-.032-8.19-.012-11.586 1.724 9.602-15.647 28.832-2.229 39.94 5.228 6.106 4.099 12.817 8.095 19.842 11.081 5.218 3.237 10.696 6.058 16.387 8.356 6.876 2.779 16.447 6.926 23.956 5.869.509-.07.771-.441.804-.846.838.021 1.677.047 2.529.007.352-.017.614-.175.812-.394.664.289 1.475.14 1.791-.756 2.661-7.519-.326-15.208-2.886-22.394a138.766 138.766 0 0 0-9.75-21.374c-5.836-10.388-14.07-24.161-24.984-31.411 18.699-3.947 37.169-2.023 52.812 10.252 12.725 9.986 18.727 23.108 23.511 37.682.078 1.223.059 2.405.016 3.578-1.555 6.654-3.054 12.832-5.504 18.835z"/><path d="M488.633 20.277c-.08-.035-.157.084-.081.134 9.535 6.23 18.504 12.852 25.565 21.926 7.145 9.182 10.744 19.385 13.518 30.555.056.225.351.183.353-.045.131-23.024-19.573-43.586-39.355-52.57zM518.081 28.331c-.188-.527-.537-.84-1.139-.931-.152-.023-.185.208-.033.235l1.072.906c.021.055.079.061.128.04 8.619 7.458 14.358 16.291 17.918 27.252.042.128.251.072.227-.059-2.021-11.288-8.921-20.888-18.173-27.443zM530.175 34.915c-.185-.179-.482.119-.321.314 2.28 2.774 4.339 5.621 5.931 8.857 1.452 2.949 2.138 6.106 3.382 9.119.077.187.326.099.322-.084-.172-6.576-4.75-13.735-9.314-18.206zM415.93 111.439c-.479-.399-1.029.16-.884.668 1.955 6.82 3.443 12.968-.409 19.539-3.25 5.541-8.88 9.281-14.88 11.33-6.559 2.241-13.724 2.476-20.586 2.26-6.627-.202-13.968-.834-18.327-6.51-.054-.067-.178-.008-.137.076 3.074 6.19 9.734 7.364 16.079 7.877 8.785.713 18.006.541 26.28-2.804 6.667-2.692 12.652-7.528 15.414-14.321 2.367-5.825 2.625-13.775-2.55-18.115zM425.518 128.841c-3.616 6.283-7.46 11.731-14.013 15.245-.198.104-.073.432.134.328 6.301-3.132 12.303-8.458 14.181-15.488.049-.187-.221-.225-.302-.085z"/><path d="M518.909 57.743c-.059-.111-.233-.047-.184.073 3.454 8.022 4.971 16.282 6.209 24.859.038.264.478.29.488.003.366-8.806-2.394-17.279-6.513-24.935zM519.347 68.114c-.07-.116-.276-.031-.248.102.659 2.898 1.698 5.689 2.285 8.611.592 2.939.74 5.915 1.119 8.886.037.292.498.309.527.003.542-5.673-.723-12.685-3.683-17.602zM518.141 72.712c-.061-.178-.363-.101-.32.086 1.44 6.311 1.694 12.31 1.444 18.765-.007.188.252.229.293.041 1.336-6.234.625-12.891-1.417-18.892zM515.047 78.308a.12.12 0 0 0-.227.062c.198 3.052.844 6.047.951 9.112.12 3.47-.525 6.846-.622 10.295-.011.355.483.559.64.181 2.347-5.653 2.008-14.189-.742-19.65zM512.26 83.378c-.019-.104-.186-.116-.194-.001-.518 6.782-.925 13.812-1.076 20.613-.011.419.54.502.644.092 1.595-6.328 1.8-14.273.626-20.704zM507.052 91.523c-.041-.213-.397-.25-.41-.002-.271 5.756-.769 11.482-1.07 17.229-.018.309.45.498.563.159 1.775-5.358 1.991-11.857.917-17.386zM503.679 97.404c-.02-.192-.299-.184-.333 0-1.045 5.806-1.971 12.046-2.427 17.925-.031.409.583.642.734.209 1.904-5.457 2.611-12.382 2.026-18.134zM499.154 105.727c.027-.176-.253-.193-.25-.004.082 4.254-1.472 8.729-2.541 12.793-.046.174.234.248.301.084 1.693-4.239 1.796-8.448 2.49-12.873zM466.568 114.139c-.074-.296-.476-.248-.471.06.133 7.397.324 14.214-.882 21.562-.03.182.268.273.32.09 1.92-6.719 2.764-14.872 1.033-21.712zM470.785 121.498c-.076-.118-.291-.066-.3.078-.156 2.646.62 5.292.644 7.966.026 3.069-.712 6.002-.908 9.04a.287.287 0 0 0 .545.152c2.333-4.416 2.806-12.932.019-17.236zM476.741 116.573c-.023-.126-.198-.101-.196.024.121 6.107-.638 12.014-.99 18.084-.018.307.454.496.564.158 1.88-5.778 1.684-12.348.622-18.266zM483.131 110.066c-.058-.211-.423-.116-.379.104 1.257 6.25.828 12.466-.7 18.631-.046.184.251.262.32.088 2.425-6.134 2.472-12.491.759-18.823zM490.525 107.016c-.048-.207-.404-.255-.411-.002-.193 6.647-.981 12.709-2.146 19.25-.059.325.41.438.545.153 2.765-5.791 3.426-13.161 2.012-19.401z"/><path d="M495.643 106.438c-.086-.232-.404-.117-.396.106.238 6.647-.202 12.312-2.525 18.606-.107.298.317.603.503.304 3.419-5.499 4.699-12.83 2.418-19.016zM538.168 22.187c-.021-.01-.037.02-.02.034 3.455 2.967 6.233 6.397 7.692 10.771 1.368 4.102.709 7.891 1.193 12.029.04.339.572.545.771.213 4.688-7.812-2.454-19.549-9.636-23.047zM547.68 25.198c-.197-.235-.543.029-.379.284 2.801 4.328 3.43 8.704 3.77 13.717.025.382.544.325.625.004 1.225-4.9-.867-10.281-4.016-14.005zM424.387 32.98a4.05 4.05 0 0 0-2.215.087c-.365.12-.701.286-.994.534-.306.261-.325.588-.556.857-.694.807.337 1.885 1.146 1.236.12.004.247.029.35-.005 1.502-.476 2.322.362 3.683.739.379.104.722-.13.849-.48.508-1.425-1.053-2.664-2.263-2.968zM436.643 34.596c-1.233-.776-2.536-.911-3.951-1.003-.826-.052-.799 1.188 0 1.27 1.146.12 2.287.877 3.146 1.602.656.551 1.229 1.527 2.157 1.53.296 0 .481-.197.586-.449.484-1.164-1.081-2.411-1.938-2.95zM445.783 46.521c-.092-1.227-1.977-1.257-1.932 0 .061 1.704 1.276 3.104 3.02 3.152.462.014.799-.321.949-.724.496-1.326-1.946-1.216-2.037-2.428zM445.054 30.611c-.944-.376-1.846-.345-2.7-.995-.934-.713-2.137.854-1.257 1.628 1.077.949 3.098 1.696 4.237.43.343-.381.168-.883-.28-1.063zM451.091 30.755c-.66-.915-2.147-.104-1.544.903.963 1.605 1.884 3.589 3.543 4.583.42.253.807-.164.749-.575-.261-1.861-1.684-3.435-2.748-4.911zM459.959 45.912c-.708-.901-2.155.26-1.573 1.213.564.925 1.232 1.973 2.262 2.384.396.159.835-.241.825-.63-.022-1.113-.849-2.121-1.514-2.967zM467.193 57.205c-.013-1.197-1.851-1.197-1.861 0-.011 1.115-.385 2.663.475 3.507.25.246.661.246.91 0 .86-.844.486-2.396.476-3.507zM456.812 50.771c-.584-1.363-1.959-1.867-3.119-2.641-.691-.458-1.568.643-.9 1.167 1.158.906 2.067 2.045 3.618 2.173.391.032.527-.41.401-.699zM464.482 63.014c-.312-.692-.9-.944-1.554-1.294-1.097-.588-2.068 1.14-.965 1.653.755.353 1.33.693 2.166.506.405-.092.501-.54.353-.865zM473.655 71.397c-.199-.404-.456-.647-.776-.969-.659-.659-1.685.363-1.023 1.023.319.32.562.578.968.778a.613.613 0 0 0 .831-.832z"/><path d="M475.72 70.436a11.033 11.033 0 0 0-1.462-.871c-.913-.46-1.72.913-.803 1.372.583.295 1.128.525 1.748.727.765.249 1.105-.811.517-1.228zM468.803 51.351l-.681.845a.608.608 0 0 0 .86.86c.281-.228.562-.453.845-.68.73-.589-.436-1.756-1.024-1.025zM465.499 42.629c-1.081 0-1.083 1.68 0 1.68 1.082 0 1.084-1.68 0-1.68zM460.753 33.824a12.173 12.173 0 0 1-1.511-3.501c-.239-.934-1.614-.535-1.432.393.273 1.39.717 2.767 1.383 4.021.533 1.004 1.292 2.308 2.494 2.46.318.04.606-.307.6-.599-.022-1.036-1-1.926-1.534-2.774zM451 25.123c-1.024 0-1.025 1.591 0 1.591 1.024 0 1.026-1.591 0-1.591zM442.541 22.865c0-.009-.01-.013-.01-.023a.56.56 0 0 0-.199-.447c-.163-.156-.379-.198-.6-.163-1.368-.169-2.706-.052-3.999.479-1.034.424-2.578 1.075-2.656 2.328-.018.274.26.56.537.538.962-.08 1.5-.933 2.344-1.356.975-.486 2.068-.68 3.15-.619-.018.405.021.75.361 1.163.17.208.578.205.747 0 .525-.638.346-1.089.325-1.9zM427.728 26.805c-.67.346-1.074.618-1.494 1.252-.199.299.067.656.386.674.797.042 1.228-.154 1.939-.503.946-.466.113-1.906-.831-1.423zM420.188 29.984c-.831.541-1.954.977-2.453 1.858-.297.522.189 1.013.717.93.937-.143 1.706-1.006 2.458-1.554.73-.528.064-1.744-.722-1.234zM410.463 32.414c-.779.261-1.694.439-2.359.931-.327.245-.248.82.222.817.835-.005 1.653-.397 2.438-.66.683-.23.39-1.319-.301-1.088zM409 34.994c-1.222.273-2.142 1.097-2.446 2.322-.042.169.203.233.258.07.378-1.093 1.139-1.838 2.27-2.099.19-.044.108-.337-.082-.293zM400.062 37.804c-.767 1.02-1.791 2.062-2.253 3.253-.184.476.478.998.894.688 1.073-.802 1.831-2.133 2.641-3.191.579-.755-.712-1.507-1.282-.75zM437.626 45.756c-.433-1.088-1.388-1.936-2.295-2.646-.535-.418-1.557.145-1.053.813.729.967 1.572 1.994 2.709 2.471.352.148.777-.291.639-.638zM451.463 41.672c-.327-.729-.862-1.261-1.389-1.856-.729-.819-2.022.473-1.201 1.202.593.525 1.126 1.062 1.855 1.389.505.225.961-.229.735-.735zM463.004 64.504c-.434-.852-1.715-.1-1.282.75.327.644.55 1.178 1.172 1.562.332.206.701-.066.728-.416.052-.728-.293-1.258-.618-1.896zM480.438 82.894c-.651-1.152-1.606-2.104-2.475-3.094l-1.577-1.796c-.303-.556-.771-.983-1.237-1.451-.688-.696-1.775.389-1.074 1.076.312.305.606.615.932.878 1.469 1.782 2.941 3.72 4.735 5.084.426.325.927-.289.696-.697zM480.451 71.907c-.599.391-.979.998-1.506 1.483a6.911 6.911 0 0 1-2.217 1.349c-.931.356-.543 1.862.42 1.517 1.558-.56 3.918-1.809 4.288-3.591.112-.537-.463-1.099-.985-.758zM477.709 62.362c-.471.006-.735.08-1.161.269-.515.229-.515 1.129 0 1.359.425.189.689.262 1.161.267 1.219.015 1.222-1.91 0-1.895zM473.89 52.453c-.44.004-.867-.321-1.02-.721-.18-.471-.789-.477-.966 0-.527 1.42.596 2.53 1.984 2.546 1.176.015 1.178-1.831.002-1.825zM482.287 72.353c-.147 0-.147.229 0 .229s.148-.229 0-.229zM485.34 81.726c-.852 0-.853 1.324 0 1.324s.852-1.324 0-1.324zM476.568 25.113c-.758-2.114-2.819-3.603-4.403-5.095-.672-.636-1.569.307-.999.998 1.342 1.631 2.669 3.787 4.666 4.662.357.157.9-.11.736-.565zM485.232 26.793c-.65-.747-1.984.254-1.391 1.073.968 1.333 2.005 3.377 3.654 3.93.329.109.76-.19.725-.553-.171-1.747-1.897-3.195-2.988-4.45zM485.788 40.293c-.329-.78-.896-1.286-1.487-1.891-.623-.632-1.605.352-.975.976.603.593 1.109 1.159 1.891 1.487.309.129.702-.261.571-.572zM493.082 36.198c-.544-.178-.752.648-.234.844 1.493.569 1.094 2.271 2.207 3.02.18.119.429.064.575-.073 1.591-1.485-1.387-3.41-2.548-3.791zM475.296 29.576c-.424-1.023-1.93-.332-1.372.581.33.537.628 1.041 1.094 1.468.267.246.846.101.794-.329-.074-.627-.273-1.137-.516-1.72zM381.378 112.8c-.437-1.077-1.699-1.166-2.752-1.126-1.393.053-2.461.477-3.583 1.238-.615.418-.218 1.275.489 1.161 1.062-.173 2.215-.212 3.292-.23.839-.016 1.764.216 2.397-.442.139-.145.238-.4.157-.601zM391.024 110.312c-1.833-2.239-4.943-3.156-7.663-3.769-1.164-.261-1.661 1.496-.496 1.794 2.657.682 5.074 2.092 7.732 2.708.45.105.698-.399.427-.733zM395.962 115.964c.026.534.089.784.447 1.175a.585.585 0 0 0 .822 0c.367-.4.42-.635.446-1.175.056-1.105-1.77-1.109-1.715 0zM385.834 120.234c-.133-.305-.563-.658-.504-1.021.149-.909-1.173-1.321-1.414-.389-.252.974.298 2.639 1.608 2.17.343-.121.452-.437.31-.76zM381.574 120.744c-2.201.279-3.825 1.843-4.101 4.054-.031.255.166.521.371.646.722.435 1.033-.342 1.203-.907.386-1.285 1.417-2.138 2.724-2.333.819-.125.635-1.565-.197-1.46zM370.738 125.511c-.458-.944-1.924-.11-1.42.832.312.584.526 1.13 1.049 1.54.386.307 1.075.149 1.053-.438-.028-.736-.359-1.267-.682-1.934zM368.162 127.748c-.975 1.085-2.091 2.874-1.686 4.395.116.433.845.604 1.045.135.231-.541.258-1.09.431-1.652a5.565 5.565 0 0 1 1.106-1.979c.525-.62-.346-1.513-.896-.899zM393.373 134.829c-1.545-2.375-4.54-3.339-7.233-3.591-.941-.086-.9 1.33 0 1.449 2.522.336 4.439 1.605 6.647 2.728.358.183.835-.205.586-.586zM370.23 118.585c-1.575-.571-3.224-.306-4.816 0-.426.082-.427.78 0 .862 1.592.305 3.242.57 4.816 0a.451.451 0 0 0 0-.862zM398.038 105.784c-1.736-3.082-5.943-3.448-8.966-2.457-.685.224-.402 1.192.295 1.067 3.037-.547 5.35.834 7.925 2.135.478.242 1.025-.254.746-.745zM402.381 119.998c-.456.436-.783.643-.756 1.309a.549.549 0 0 0 .537.535c.666.027.859-.287 1.307-.755.685-.718-.371-1.775-1.088-1.089zM388.156 126.917c-.585-.687-1.673.401-.987.985.395.337.637.591 1.138.701a.452.452 0 0 0 .55-.551c-.113-.497-.369-.743-.701-1.135zM374.98 133.76c-.625-.479-1.166.485-.769.999.654.845 1.486 2.14 2.612 2.314.397.062.68-.214.616-.613-.189-1.17-1.578-2.022-2.459-2.7zM364.964 136.234c-.659-.307-.996-.161-1.72-.113-.576.038-.576.854 0 .895.713.047 1.056.193 1.72-.117.251-.117.251-.545 0-.665zM493.617 50.856c-.295-.851-.973-1.287-1.532-1.953-.628-.749-1.068-1.689-1.319-2.629-.343-1.29-2.131-.713-1.948.537.283 1.936 1.962 5.262 4.361 4.816.319-.058.541-.47.438-.771zM517.83 24.911c-.681-1.511-2.573-1.882-3.861-2.671-.43-.265-.965.387-.552.715 1.241.985 2.232 2.625 3.957 2.751.438.031.605-.464.456-.795z"/></g></svg>