<svg xmlns="http://www.w3.org/2000/svg" width="239.564" height="169.676" viewBox="693.564 5.529 239.564 169.676"><path fill="#B89D64" d="M918.774 49.044c-5.016-7.071-14.784-9.425-22.852-6.939-8.479 2.609-14.221 9.954-16.919 18.117a40.218 40.218 0 01-.05-3.185c.276-10.277 4.994-19.77 9.654-28.716.359-.209.486-.527.439-.844l.017-.033c.444-.852-.291-1.617-1.011-1.637-.006-.004-.008-.011-.016-.015-9.048-6.565-19.832-7.982-30.678-9.238a478.708 478.708 0 00-44.214-3.036c-28.746-.645-58.551.372-86.769 6.291-.636.133-.643 1.025-.191 1.319-.023.044-.052.084-.066.132-.489-.224-1.136.423-.826.971a51.311 51.311 0 013.289 7.042c-.333-.001-.463.5-.101.583l.341.082c7.635 21.107-.852 42.188-2.801 63.932-.277-.028-.555-.054-.832-.08-.39-.04-.386.565 0 .606.258.027.517.056.774.082a88.477 88.477 0 00-.327 7.608c-.196.136-.22.437.001.542.012 1.223.042 2.445.117 3.674-.059-.007-.116-.011-.174-.019-.38-.054-.546.526-.161.58.127.019.254.032.382.05.04.576.075 1.15.13 1.729.312 3.219.961 6.313 1.849 9.305-.049-.005-.097-.006-.146-.012-.364-.037-.359.527 0 .567.107.011.215.019.322.03 5.014 16.17 17.94 28.73 33.751 35.496.659.283 1.338.523 2.005.788.069 5.028 3.178 8.731 8.176 10.868 2.339.998 4.928 1.761 7.639 2.369.245.213.442.375.846.324a.338.338 0 00.196-.102c8.554 1.768 18.283 1.982 26.099 2.271 3.79.141 12.571.002 21.238-1.375.01.006.018.014.025.02.176.132.386.044.514-.109 2.733-.453 5.434-1.039 7.961-1.773.039.023.076.054.115.078.135.08.314.051.425-.057a.884.884 0 00.166-.225c6.363-1.948 11.423-4.937 12.538-9.457.179-.086.299-.275.159-.477-.01-.016-.023-.025-.035-.041.275-1.57.088-3.318-.674-5.268 14.304-5.979 26.495-15.832 31.978-31.291a56.287 56.287 0 001.417-4.65c1.563 2.939 5.469 4.555 8.936 2.495 2.461-1.462 3.869-4.224 3.42-7.065-.417-2.644-2.583-5.627-5.364-6.06 11.648-14.068 44.874-34.28 29.288-56.247zM807.827 15.611c13.002.143 26.004.815 38.951 2.021 13.419 1.249 27.933 1.865 39.496 9.458-4.459 1.87-9.049 3.519-13.71 5.034a18.794 18.794 0 00-1.597-1.446c.833.215 1.666.432 2.5.668 1.242.353 1.742-1.523.529-1.922-41.98-13.812-90.149-9.583-132.945-1.805-.641.116-.714.929-.371 1.348a123.655 123.655 0 01-13.35-7.818c26.891-2.794 53.389-5.836 80.497-5.538zm43.844 21.55c1.104 1.69-.621-.295-.896-.574a148.037 148.037 0 00-6.56-6.238 138.044 138.044 0 00-6.501-5.423c.959.084 1.921.187 2.883.283a637.134 637.134 0 0113.47 12.253c-.401.095-.798.209-1.201.302-.14-.303-.353-.602-.682-.997-.236-.287-.715.084-.513.394zm-2.911 1.331a685.726 685.726 0 00-14.809-13.876c.861.061 1.722.142 2.582.213 5.093 4.205 9.948 8.622 14.547 13.361-.532.12-1.06.266-1.594.38-.106-.178-.207-.36-.314-.537-.157-.262-.642-.088-.515.215.036.089.069.161.103.244zm-3.424.949l-.082.017c-4.86-5.288-10.025-10.304-15.358-15.113.99.056 1.982.131 2.972.197a689.6 689.6 0 0015.061 14.356c-.649.134-1.296.282-1.946.41-.04-.1-.074-.201-.113-.3-.143-.367-.701-.233-.603.166.021.09.046.178.069.267zm-6.998.786a648.895 648.895 0 01-16.973-16.246c1.045.026 2.093.073 3.139.11 2.846 2.703 5.556 5.592 8.319 8.382 1.512 1.525 3.02 3.053 4.533 4.575.923.929 1.725 2.107 2.971 2.574.129.048.326-.031.385-.157l.109-.24c.055-.117.066-.294-.049-.385a5.185 5.185 0 01-.168-.134c-.296-.233-.675.127-.42.42-3.149-3.619-6.643-6.939-10.063-10.325-1.524-1.51-3.043-3.028-4.589-4.518-.056-.055-.104-.107-.156-.161 1.19.044 2.384.114 3.575.175 5.261 4.965 10.314 10.112 15.291 15.358-1.956.372-3.917.719-5.884 1.036.108-.129.141-.314-.02-.464zm-24.51 2.133c-.129-.341-.736-.333-.692.094-.124-1.212-3.658-3.349-4.56-4.123-2.056-1.767-4.108-3.537-6.164-5.305-3.298-2.838-6.588-5.685-9.922-8.483.927-.056 1.852-.104 2.776-.153-.064.046-.102.142-.029.205 3.734 3.325 7.714 6.384 11.532 9.612a471.464 471.464 0 018.026 6.938c.441.389.882.781 1.321 1.175.272.424.625.632 1.046.656-.018.062 0 .136.024.211-1.005.055-2.011.113-3.018.152-.005-.026.011-.044.001-.072l-.341-.907zm-70.776-13.328l2.522-.257c1.623 1.61 3.3 3.22 5.087 4.669a133.976 133.976 0 01-3.728-1.557c-1.272-.992-2.597-1.926-3.881-2.855zm1.185 1.638c-1.031-.48-2.061-.959-3.081-1.47.038.003.07.017.111.013l1.143-.116c.013.024.01.051.035.071.592.492 1.191.998 1.792 1.502zm2.15-1.979l1.604-.167c2.388 2.184 4.738 4.452 7.164 6.6-.797-.286-1.597-.565-2.388-.868-2.099-1.887-4.286-3.671-6.38-5.565zm6.092 2.911a85.986 85.986 0 00-3.768-3.153l1.638-.169c2.413 2.67 4.909 5.361 7.574 7.807-.186-.062-.372-.117-.557-.179a.173.173 0 00-.144-.047c-.201-.068-.402-.134-.604-.204-1.119-1.487-2.724-2.801-4.139-4.055zm-1.429-3.394l1.734-.179c2.339 3.039 4.916 6.271 7.801 8.906-.213-.067-.427-.127-.64-.193-2.922-2.881-5.958-5.659-8.895-8.534zm6.885 4.679c-1.521-1.597-2.97-3.254-4.396-4.936.506-.053 1.007-.104 1.512-.155 3.281 3.708 6.818 7.374 10.625 10.611-.966-.263-1.933-.525-2.893-.809-1.567-1.608-3.308-3.093-4.848-4.711zm-2.099-5.172c.843-.086 1.681-.17 2.521-.257 4.038 4.073 8.075 8.364 12.386 12.173-1.021-.238-2.055-.44-3.07-.701-3.995-3.699-8.008-7.326-11.837-11.215zm3.292-.336l1.703-.171c4.593 4.382 9.153 8.878 14.022 12.927.339.282.813-.168.493-.493-4.339-4.38-9.077-8.432-13.725-12.513.535-.055 1.069-.104 1.605-.16a818.347 818.347 0 0115.517 14.271 149.497 149.497 0 01-6.101-1.174c-4.166-4.479-8.955-8.581-13.514-12.687zm4.906-.49c.812-.082 1.619-.158 2.43-.237 4.916 5.108 9.885 10.321 15.167 15.048-.425-.066-.855-.111-1.28-.18a290.75 290.75 0 00-16.317-14.631zm3.177-.309c.626-.061 1.25-.117 1.876-.178 5.561 5.304 11.105 10.63 16.749 15.846-.896-.112-1.792-.202-2.684-.332-5.044-5.328-10.567-10.316-15.941-15.336zm2.74-.259c.666-.065 1.329-.121 1.995-.184a1496.366 1496.366 0 0018.15 16.568c-.938-.095-1.881-.167-2.817-.277-5.7-5.447-11.527-10.767-17.328-16.107zm2.74-.253c1.258-.117 2.515-.224 3.772-.335a5864.397 5864.397 0 0017.611 17.3c-.82-.062-1.645-.104-2.464-.178a1499.94 1499.94 0 00-18.919-16.787zm4.676-.415c.759-.067 1.516-.125 2.272-.188a1963.988 1963.988 0 0018.366 17.798c-.817-.042-1.636-.067-2.452-.122a5882.75 5882.75 0 00-18.186-17.488zm3.024-.25c.931-.077 1.861-.145 2.791-.218 6.343 6.241 12.981 12.215 19.526 18.243-1.09-.028-2.18-.044-3.269-.093a2040.518 2040.518 0 00-19.048-17.932zm3.696-.289c1.292-.099 2.581-.189 3.869-.279 2.906 3.35 6.578 6.35 9.834 9.484 3.094 2.979 6.084 6.056 9.053 9.155-.877-.001-1.754.01-2.63-.005-6.668-6.142-13.275-12.408-20.126-18.355zm4.309-.311c1.127-.077 2.252-.145 3.377-.214 6.967 6.37 14.087 12.592 21.201 18.796a184.1 184.1 0 01-4.756.093c-6.246-6.573-12.857-12.864-19.822-18.675zm7.01-.423c1.201-.064 2.401-.119 3.602-.174 6.69 6.145 13.438 12.225 20.007 18.501.005.004.001.011.007.015.115.108.229.214.346.321-.323.022-.646.062-.971.082-7.398-6.482-14.877-13.169-22.991-18.745zm4.204-.203c.764-.034 1.528-.059 2.294-.088.049.051.101.105.15.159.126.13.343-.019.292-.176h.023c2.59 3.702 6.862 6.796 10.222 9.886 3.196 2.94 6.399 5.875 9.583 8.833-.526.042-1.051.111-1.576.15-6.953-6.302-13.862-12.658-20.988-18.764zm22.264 17.047c-6.37-5.722-12.647-11.549-19.107-17.169.938-.033 1.875-.057 2.812-.083 6.277 6.462 13.064 12.506 19.817 18.491-.586.056-1.171.139-1.757.19-.438-.468-.859-.95-1.32-1.394-.152-.153-.32-.126-.445-.035zm-15.431-17.279c1.194-.03 2.388-.051 3.581-.069 6.335 6.107 12.758 12.127 19.184 18.139-.82.094-1.636.217-2.455.302-4.881-4.494-16.588-15.366-20.31-18.372zm4.507-.082c.77-.01 1.537.005 2.307 0 3.515 3.542 7.188 6.932 10.807 10.366 1.756 1.666 3.511 3.334 5.27 5 .691.655 1.516 1.797 2.453 2.451-.303.04-.604.091-.908.129-.116-.149-.284-.3-.716-.746-.157-.165-.406-.055-.477.118-6.214-5.804-12.44-11.603-18.736-17.318zm19.617 15.271c-.747-.768-1.577-1.471-2.359-2.203l-5.312-4.959c-2.911-2.718-5.807-5.463-8.786-8.108.837-.002 1.675.021 2.512.026 5.824 5.743 11.699 11.481 17.732 17.002.227.207.726.086.681-.282l-.108-.888c-.046-.378-.55-.383-.593 0 .078-.729-3.37-3.2-4.02-3.816l-4.637-4.388c-2.694-2.546-5.388-5.096-8.105-7.617.967.008 1.936.043 2.902.062a277.777 277.777 0 0017.343 16.787c.019.015.037.006.054.018-1.53.243-3.06.494-4.596.704-.058-.104-.142-.188-.271-.18l-.129.009c-.164.01-.27.134-.304.27a4.882 4.882 0 01-.135.019c-.565-.68-1.578-2.155-1.869-2.456zm11.27-13.804c1.47.157 2.938.333 4.409.521 3.26 1.89 5.514 4.842 7.956 7.673.496.575 1.684 2.317 2.863 3.163-.652.164-1.296.351-1.951.509a324.564 324.564 0 00-13.277-11.866zm14.498 9.305a47.686 47.686 0 01-1.55-1.694c-.929-1.053-1.819-2.138-2.765-3.175-1.275-1.4-2.639-2.667-4.185-3.7 1.26.171 2.521.379 3.782.574 1.888 1.966 3.829 3.881 5.758 5.805.944.942 1.976 2.276 3.104 3.326-.508.137-1.009.288-1.517.419-.085-.389-.716-.304-.698.096.004.085-1.815-1.533-1.929-1.651zm3.553-.904c-.963-.937-1.93-1.871-2.895-2.803a392.72 392.72 0 00-4.333-4.13c1.406.225 2.815.476 4.225.732 2.28 2.437 4.545 4.89 6.833 7.32-.694.196-1.381.407-2.078.599-.522-.634-1.207-1.186-1.752-1.718zm3.688-.348a247.404 247.404 0 00-2.473-2.642c-.941-.995-1.897-1.976-2.846-2.96 1.002.19 2.006.429 3.01.635 1.413 1.298 2.792 2.63 4.065 4.076.405.458.837 1.027 1.32 1.492-.617.183-1.227.378-1.846.556-.498-.486-1.055-.968-1.23-1.157zm.748-3.205c-.487-.491-.996-.962-1.503-1.436.933.201 1.867.425 2.801.637.637.647 1.281 1.283 1.9 1.949.554.597 1.083 1.252 1.632 1.886-.506.156-1.006.321-1.514.472-1.287-.844-2.497-2.682-3.316-3.508zm3.933.777c-.415-.435-.858-.841-1.282-1.269.548.129 1.095.267 1.643.399a63.412 63.412 0 012.975 2.351c-.493.158-.981.322-1.477.477-.601-.678-1.255-1.321-1.859-1.958zM765.845 156.77c1.675 2.217 3.801 4.396 6.081 6.261-2.897-1.558-5.085-3.595-6.081-6.261zm11.363 8.402c-.135-.117-.271-.229-.404-.346l-3.317-2.833c-2.212-1.888-4.416-3.792-6.68-5.62-.185-.148-.447.1-.267.268 2.801 2.584 5.702 5.062 8.572 7.572.149.131.295.268.443.399-.174-.062-.357-.116-.528-.183-1.462-1.16-2.961-2.272-4.356-3.521-1.756-1.566-3.31-3.325-5.021-4.932-.016-.017-.037-.014-.054-.021-.041-.152-.095-.295-.129-.449a79.633 79.633 0 004.816 1.575 922.986 922.986 0 006.265 5.763c1.168 1.062 2.362 2.188 3.667 3.129a48.478 48.478 0 01-3.007-.801zm4.731 1.182c-3.737-2.807-7.204-5.926-10.712-9.01.848.241 1.707.447 2.562.664 3.104 3.062 6.541 6.299 10.23 8.73a65.85 65.85 0 01-2.08-.384zm3.709.647c-3.501-2.997-7.24-5.709-10.759-8.709 1.167.276 2.343.527 3.525.759 3.053 2.819 6.172 5.717 9.484 8.248-.75-.094-1.502-.186-2.25-.298zm3.604.458c-3.075-2.861-6.416-5.502-9.658-8.197.63.112 1.265.207 1.898.312 3.308 2.771 6.621 5.67 10.16 8.121-.796-.071-1.595-.148-2.4-.236zm3.49.32c-3.062-2.896-6.56-5.445-9.964-7.996.63.092 1.271.139 1.904.22 3.288 2.679 6.562 5.479 10.03 7.921-.649-.043-1.305-.09-1.97-.145zm3.094.209c-3.16-2.816-6.674-5.327-10.092-7.862.894.106 1.794.158 2.691.243 3.146 2.646 6.309 5.477 9.719 7.738-.757-.033-1.526-.071-2.318-.119zm2.902.147c.045-.096.056-.209-.038-.298-2.812-2.69-6.095-5.03-9.256-7.377.632.054 1.27.07 1.902.111 3.062 2.659 6.442 5.622 10.003 7.659-.836-.027-1.702-.056-2.611-.095zm3.985.138c-1.564-1.278-3.326-2.342-4.964-3.518-1.849-1.328-3.644-2.722-5.434-4.128.848.052 1.698.062 2.549.095 3.057 2.662 6.326 5.405 9.788 7.604-.613-.017-1.256-.033-1.939-.053zm3.946.114c-.211-.008-.471-.014-.697-.02-3.326-2.609-6.833-4.999-10.167-7.611.706.021 1.412.014 2.118.022 3.397 2.548 6.787 5.45 10.437 7.646a87.555 87.555 0 01-1.691-.037zm2.618.043c-3.104-2.865-6.854-5.205-10.338-7.64 1.017.007 2.031-.019 3.047-.034-.161.102-.237.377-.029.533 3.134 2.364 6.228 4.943 9.511 7.121-.788.016-1.523.022-2.191.02zm3.472-.045c-3.27-2.767-6.969-5.129-10.443-7.623-.013-.015-.023-.002-.038-.012.65-.012 1.299-.045 1.95-.064 3.021 2.824 6.427 5.766 10.125 7.647-.545.019-1.082.039-1.594.052zm2.522-.09a.308.308 0 00-.128-.205c-3.364-2.502-6.831-4.719-10.023-7.438.601-.023 1.198-.088 1.8-.117 3.456 2.553 6.935 5.408 10.635 7.635-.782.049-1.546.092-2.284.125zm3.327-.197c-3.237-2.832-7.037-5.207-10.615-7.636.704-.042 1.402-.12 2.106-.171 3.042 2.625 6.332 5.456 9.874 7.197.265.132.593-.219.337-.438-2.896-2.461-6.146-4.525-9.185-6.845.699-.058 1.393-.144 2.091-.206a711.491 711.491 0 0010.021 7.672c-1.577.179-3.133.322-4.629.427zm5.92-.58c-.252-.307-.502-.615-.76-.918-.172-.207-.469-.013-.463.213a711.784 711.784 0 00-9.259-6.894c.575-.058 1.146-.134 1.722-.198a676.07 676.07 0 009.797 7.655c-.345.048-.691.101-1.037.142zm2.191-.301c-3.293-2.552-6.61-5.076-9.917-7.611 1.078-.122 2.15-.268 3.222-.41-.17.117-.26.339-.057.513 2.9 2.479 5.994 5.091 9.323 7.077-.854.155-1.712.302-2.571.431zm3.645-.64c-3.253-2.513-6.714-4.747-9.888-7.382-.044-.035-.09-.027-.136-.042.847-.114 1.676-.271 2.519-.397 2.927 2.557 5.923 5.229 9.125 7.475a64.53 64.53 0 01-1.62.346zm4.728-1.153c-.026-.02-.06-.037-.085-.057a155.006 155.006 0 01-3.073-2.312 123.159 123.159 0 01-5.384-4.426c-.346-.299-.849.196-.504.502 2.532 2.264 5.165 4.592 7.97 6.592-.313.082-.625.168-.943.246-3.001-2.549-6.226-4.875-9.296-7.355a178.94 178.94 0 005.786-1.006c2.648 2.32 5.363 4.906 8.306 6.906-.89.328-1.819.632-2.777.91zm3.782-1.306c-2.596-2.396-5.563-4.497-8.32-6.72.769-.153 1.529-.321 2.293-.483 2.346 2.196 4.752 4.695 7.394 6.597a26.71 26.71 0 01-1.367.606zm2.247-1.04c-1.144-1.066-2.433-2.02-3.609-3.025a315.22 315.22 0 01-3.812-3.317c.212-.046.43-.082.642-.134.545-.129 1.085-.276 1.629-.414 2.185 2.018 4.333 4.127 6.619 6.039-.468.294-.952.58-1.469.851zm2.151-1.33c-2.055-2.015-4.286-3.881-6.448-5.777.649-.172 1.287-.384 1.934-.565a51.025 51.025 0 015.337 5.702c-.267.216-.533.435-.823.64zm1.445-1.191a48.932 48.932 0 00-5.134-5.396c.315-.093.627-.198.943-.292 1.603 1.675 3.182 3.401 4.875 4.983-.215.242-.44.476-.684.705zm1.228-1.377c-.244-.25-.522-.479-.744-.703a380.284 380.284 0 00-1.554-1.558l-2.304-2.305c.393-.123.782-.255 1.174-.379 1.052.7 2.064 1.455 3.012 2.294.437.386.842.838 1.263 1.27a8.62 8.62 0 01-.847 1.381zm1.23-2.326c-.457-.416-.941-.803-1.37-1.162a29.755 29.755 0 00-2.36-1.756c.234-.075.462-.168.696-.246 1.224.623 2.272 1.396 3.27 2.257a7.732 7.732 0 01-.236.907zm-2.124-3.484c.771-.269 1.548-.522 2.306-.817.176.824.231 1.604.188 2.342a15.598 15.598 0 00-2.494-1.525zm35.509-38.72c-8.633 34.961-48.524 43.299-79.672 43.88-11.985.223-24.552-1.75-35.823-6.103a.831.831 0 00-.561-.222 73.643 73.643 0 01-10.515-5.126c2.57.652 5.235 1.119 7.811 1.581.29.051.418-.377.125-.448-2.997-.729-6.111-1.486-9.188-1.906a63.482 63.482 0 01-4.304-2.951c3.929.753 7.88 1.388 11.834 1.982.239.038.346-.322.102-.367-3.955-.709-7.921-1.385-11.9-1.938-.136-.02-.212.107-.192.207a55.976 55.976 0 01-6.912-6.125c1.178.595 2.507.703 3.883.872 3.6.442 7.2.868 10.81 1.218.31.029.298-.439 0-.479-2.601-.344-5.2-.642-7.808-.924-2.463-.269-5.685-.117-7.727-1.654-.027-.021-.054-.02-.08-.02a49.734 49.734 0 01-2.612-3.126c4.415.706 8.892 1.248 13.332 1.63.246.021.308-.396.061-.437-4.553-.729-9.181-1.33-13.783-1.716a47.675 47.675 0 01-2.271-3.334c4.158.979 8.379 1.779 12.627 2.219.304.029.378-.491.072-.537-4.384-.65-8.729-1.368-13.059-2.299-.408-.672-.784-1.367-1.16-2.062 4.406.605 8.812 1.262 13.238 1.694.215.021.267-.345.052-.38-4.495-.723-9.024-1.215-13.542-1.764a46.664 46.664 0 01-1.642-3.51c4.487.76 9.045 1.275 13.6 1.176.33-.006.329-.496 0-.51-4.654-.199-9.235-.484-13.84-1.238a48.873 48.873 0 01-1.151-3.158c3.867.369 7.745.625 11.632.615.331 0 .33-.502 0-.517-3.957-.179-7.901-.403-11.844-.739a49.737 49.737 0 01-.923-3.359c3.95.529 7.896 1.09 11.862 1.468.295.028.365-.476.07-.521-4.006-.65-8.041-1.114-12.069-1.613a52.1 52.1 0 01-.521-2.676c3.855.269 7.729.609 11.588.615.285 0 .271-.402 0-.434-3.864-.454-7.782-.574-11.674-.77a54.855 54.855 0 01-.447-3.649c3.518.412 7.067.636 10.599.422.33-.021.335-.507 0-.515-3.568-.086-7.097-.197-10.631-.553a50.333 50.333 0 01-.16-3.053c-.001-.171.004-.345.003-.516 3.571.501 7.189.801 10.787.593.353-.021.356-.539 0-.551-3.629-.123-7.198-.284-10.784-.738a70.23 70.23 0 01.104-3.222c3.452.22 6.919.488 10.371.481.35 0 .333-.493 0-.528-3.421-.362-6.888-.45-10.334-.592a88.2 88.2 0 01.317-3.699c3.028.328 6.059.654 9.097.832.248.015.312-.404.061-.441-3.018-.439-6.056-.732-9.094-1.021.107-.977.235-1.957.369-2.944 3.294.196 6.588.399 9.886.513.357.012.352-.525 0-.553-3.263-.246-6.531-.403-9.801-.567.196-1.393.417-2.796.654-4.208 3.352.207 6.721.303 10.064.006.298-.023.309-.464 0-.467-3.325-.04-6.639-.015-9.959-.164.184-1.066.375-2.139.573-3.213 3.6.69 7.249 1.155 10.916 1.145.364 0 .359-.54 0-.562-3.638-.217-7.224-.556-10.803-1.196.218-1.179.442-2.361.669-3.548 3.565.461 7.146.782 10.744.734.349-.005.344-.518 0-.538-3.55-.207-7.086-.443-10.615-.866.22-1.152.443-2.308.665-3.463 3.416.42 6.831.874 10.259 1.188.301.026.375-.488.072-.533-3.4-.473-6.819-.809-10.232-1.177a439.2 439.2 0 00.731-3.936c.033.117.106.226.255.244 3.253.43 6.504.91 9.774 1.204.283.025.351-.455.066-.501-3.263-.542-6.559-.897-9.841-1.307a.243.243 0 00-.202.063c.238-1.32.463-2.641.68-3.962 2.982.436 5.984.648 9.001.443.35-.024.357-.556 0-.551-2.992.031-5.95-.064-8.915-.438.092-.575.176-1.147.262-1.722 3.619.117 7.135.659 10.706 1.239.357.059.521-.46.153-.557-3.493-.929-7.158-1.231-10.765-1.303.104-.714.198-1.424.292-2.133 3.034.502 6.112.886 9.184.828.307-.007.297-.441 0-.47-3.047-.284-6.08-.495-9.109-.902.188-1.47.34-2.935.466-4.396 3.005.817 6.156 1.344 9.259 1.127.32-.023.324-.485 0-.5-3.14-.149-6.173-.401-9.214-1.115.094-1.141.156-2.275.202-3.406 3.063.529 6.193 1.229 9.278 1.399.315.016.376-.471.075-.548-3.014-.776-6.229-1.045-9.328-1.471.036-1.082.042-2.158.026-3.23 1.991.384 3.982.759 5.975 1.14.961.182 2.91 1.027 3.814.451.158-.101.19-.277.115-.442-.022-.051-.048-.104-.071-.155-.054-.12-.233-.187-.355-.146l-.125.044c-.183.062-.235.225-.204.367-.426-.276-.885-.463-1.407-.481-.265-.045-.53-.093-.796-.138l-2.783-.487c-1.389-.244-2.776-.485-4.167-.725a60.94 60.94 0 00-.138-2.782c2.792.542 5.648 1.07 8.472 1.189.312.014.392-.497.075-.552-2.849-.492-5.729-.784-8.586-1.248a52.391 52.391 0 00-.248-2.317c3.312.705 6.639 1.483 9.984 1.923.351.046.412-.519.083-.607-3.323-.875-6.765-1.411-10.157-2.028a46.346 46.346 0 00-.408-2.441c3.176.473 6.374 1.017 9.562 1.211.382.023.472-.599.091-.674-3.219-.636-6.541-.924-9.816-1.284a42.426 42.426 0 00-.711-2.836c3.44.524 6.97 1.276 10.436 1.385.332.011.404-.503.078-.581-3.459-.836-7.163-1.034-10.702-1.464a39.604 39.604 0 00-1.255-3.5c3.109.752 6.225 1.514 9.368 2.065.382.067.553-.485.164-.593-3.25-.896-6.569-1.57-9.878-2.261-1.068-2.47-2.388-4.882-4.08-7.202 43.454 32.645 110.442 28.314 158.209 7.161-5.463 10.874-9.775 22.006-8.244 34.495 2.116 17.233 7.704 32.915 3.393 50.383zm1.23-38.125c.012-.022.028-.037.038-.062 2.509-6.62 4.948-13.728 10.185-18.765.467-.498.967-.954 1.484-1.39a.51.51 0 00.431-.003c4.519-2.064 9.83-1.58 13.386 2.081a10.475 10.475 0 012.565 4.398 10.495 10.495 0 01-.035 3.869.783.783 0 00.253.737 10.837 10.837 0 01-1.566 4.018c-.14.216-.094.443.038.616-5.575 9.22-15.646 16.84-24.096 23.471a92.844 92.844 0 00-1.239-11.86c-.403-2.376-.92-4.743-1.444-7.11zm6.622 29.694c.052.176.151.34.311.448 1.656 1.14 3.25 1.896 4 3.938.812 2.215.082 4.513-1.784 5.926-3.373 2.551-7.478.04-7.789-3.544 1.016-4.909 1.436-9.941 1.393-14.974.08-.029.16-.049.239-.107 10.196-7.588 37.79-27.216 26.824-43.005-3.723-5.36-10.223-5.272-15.616-2.536-8.23 4.179-11.995 13.237-14.763 21.591-.625-2.807-1.23-5.618-1.659-8.45a.983.983 0 00.231-.428c2.708-10.456 9.3-20.864 21.206-21.7 14.283-1.006 21.991 12.384 17.659 25.197-5.234 15.483-22.138 23.38-30.872 36.558-.32.482.146 1.049.62 1.086zM739.103 29.382s38.581 19.139 79.579 15.14c41-4 53.863-12.356 56.442-13.248 2.58-.892-33.614-8.952-64.174-7.412-30.559 1.541-34.858-2.516-71.847 5.52z"/></svg>