<svg xmlns="http://www.w3.org/2000/svg" width="341" height="347" viewBox="0 0 341 347"><path fill="#FFF" d="M198.438 11.092c54.811 9.699 98.097 46.549 118.559 94.246l2.555-.133C298.929 56.394 254.809 18.621 198.86 8.719 117.549-5.67 39.478 43.756 16.121 120.911l2.563-.132C42.003 45.255 118.636-3.031 198.438 11.092zM315.783 221.156c-25.804 71.428-100.105 116.27-177.38 102.594-52.17-9.232-93.9-43.069-115.445-87.437l-2.601.136c21.737 45.487 64.308 80.235 117.626 89.671 78.793 13.945 154.545-32.031 180.419-105.1l-2.619.136z"/><path fill="#FFF" d="M197.046 18.743c47.448 8.396 85.836 38.12 107.144 77.538l1.467-.079c-21.434-40.033-60.296-70.256-108.38-78.765-72.492-12.829-142.29 27.818-168.803 93.527l1.479-.08C56.416 46.091 125.394 6.062 197.046 18.743zM308.29 221.104c-25.245 67.079-95.533 108.975-168.609 96.043-48.932-8.66-88.271-39.98-109.131-81.248l-1.439.077c20.973 41.882 60.775 73.708 110.338 82.479 73.916 13.08 144.996-29.446 170.283-97.426l-1.442.075z"/><g fill="#FFF"><path d="M167.597 91.255c0 .133-.133.199-.398.199h-.856c-.932 0-1.722.185-2.368.551-.266.146-.428.221-.484.221-.171 0-.257-.115-.257-.343l.028-.885c-.817.818-1.788 1.228-2.91 1.228-1.598 0-2.915-.618-3.951-1.85s-1.555-2.803-1.555-4.712c0-1.968.518-3.563 1.555-4.785 1.037-1.223 2.392-1.833 4.065-1.833 1.293 0 2.264.464 2.91 1.396v-4.45c0-1.444-.066-2.339-.197-2.683-.113-.284-.282-.418-.507-.398-.544.057-.871.086-.984.086-.244 0-.365-.086-.365-.257 0-.172.104-.256.312-.256l1.02.027c.567.02 1.437-.246 2.608-.799a.454.454 0 0 1 .198-.057c.188 0 .283.229.283.685v11.241c0 4.507.038 6.923.114 7.246.038.134.485.199 1.341.199.265 0 .398.078.398.229zm-4.221-7.16c0-1.826-.199-2.996-.6-3.51-.513-.646-1.17-.97-1.967-.97-1.027 0-1.846.533-2.455 1.599-.609 1.063-.912 2.491-.912 4.277 0 1.713.267 3.178.799 4.395.229.514.565.937 1.012 1.269.447.333.908.499 1.384.499a2.63 2.63 0 0 0 1.598-.526c.475-.353.784-.775.927-1.27.142-.496.214-2.416.214-5.763zM179.066 88.717c0 .189-.148.526-.442 1.012-.295.485-.595.88-.898 1.185-.818.836-1.912 1.255-3.282 1.255-1.711 0-3.142-.618-4.293-1.854-1.149-1.236-1.726-2.767-1.726-4.593 0-1.902.547-3.49 1.64-4.766 1.095-1.272 2.459-1.909 4.094-1.909 1.352 0 2.483.394 3.395 1.184.915.788 1.398 1.802 1.456 3.038-.608.095-1.418.133-2.426.113h-1.996c-.133 0-1.274.029-3.423.085a11.695 11.695 0 0 0-.143 1.791c0 1.915.366 3.388 1.098 4.421.732 1.032 1.764 1.548 3.096 1.548.761 0 1.368-.17 1.826-.513.456-.343.95-.999 1.482-1.97.076-.15.181-.227.314-.227.152 0 .228.066.228.2zm-2.483-5.821c-.076-2.283-.893-3.424-2.452-3.424-1.54 0-2.502 1.141-2.882 3.424h5.334zM189.393 88.193c0 1.106-.401 2.044-1.203 2.815a4.004 4.004 0 0 1-2.876 1.159c-.643 0-1.427-.229-2.351-.685-.246-.133-.464-.2-.652-.2-.266 0-.463.181-.595.542-.076.229-.18.343-.312.343-.133 0-.199-.077-.199-.229v-.343-1.683-.685-1.113c0-.209.067-.313.2-.313.152 0 .237.105.256.316.114.881.361 1.571.742 2.068.761.997 1.778 1.495 3.053 1.495.685 0 1.236-.199 1.654-.601.418-.399.629-.934.629-1.602 0-.743-.239-1.334-.715-1.772-.267-.247-.509-.424-.728-.528-.218-.106-.86-.357-1.925-.758-2.111-.801-3.167-2.001-3.167-3.603 0-1.066.357-1.964 1.075-2.688.717-.724 1.604-1.085 2.661-1.085.376 0 .943.113 1.697.342.189.057.358.085.51.085.396 0 .642-.188.735-.569.058-.191.142-.287.256-.287.132 0 .198.076.198.229v1.368c-.02.457.027 1.189.143 2.197v.058c0 .151-.076.228-.229.228-.114 0-.257-.287-.429-.862-.209-.691-.574-1.248-1.098-1.67a2.8 2.8 0 0 0-1.812-.635c-.646 0-1.179.2-1.597.601-.419.401-.628.906-.628 1.516 0 .953.637 1.678 1.912 2.173 1.977.782 3.233 1.43 3.765 1.944.688.67 1.03 1.478 1.03 2.432zM203.77 91.255c0 .133-.132.199-.398.199h-.856c-.933 0-1.722.185-2.368.551-.268.146-.428.221-.484.221-.172 0-.258-.115-.258-.343l.029-.885c-.818.818-1.787 1.228-2.909 1.228-1.599 0-2.916-.618-3.952-1.85-1.037-1.231-1.555-2.803-1.555-4.712 0-1.968.518-3.563 1.555-4.785 1.036-1.223 2.392-1.833 4.065-1.833 1.293 0 2.264.464 2.909 1.396v-4.45c0-1.444-.065-2.339-.195-2.683-.114-.284-.282-.418-.508-.398-.544.057-.872.086-.984.086-.244 0-.365-.086-.365-.257 0-.172.104-.256.312-.256l1.021.027c.566.02 1.435-.246 2.607-.799a.45.45 0 0 1 .198-.057c.189 0 .284.229.284.685v11.241c0 4.507.037 6.923.113 7.246.038.134.485.199 1.341.199.266 0 .398.078.398.229zm-4.222-7.16c0-1.826-.199-2.996-.598-3.51-.515-.646-1.17-.97-1.969-.97-1.027 0-1.846.533-2.454 1.599-.609 1.063-.912 2.491-.912 4.277 0 1.713.266 3.178.799 4.395.228.514.565.937 1.012 1.269.447.333.909.499 1.384.499a2.63 2.63 0 0 0 1.599-.526c.475-.353.784-.775.927-1.27.141-.496.212-2.416.212-5.763zM215.239 88.717c0 .189-.148.526-.442 1.012-.296.485-.595.88-.899 1.185-.818.836-1.911 1.255-3.281 1.255-1.711 0-3.142-.618-4.293-1.854-1.15-1.236-1.726-2.767-1.726-4.593 0-1.902.547-3.49 1.64-4.766 1.095-1.272 2.458-1.909 4.094-1.909 1.351 0 2.482.394 3.396 1.184.913.788 1.397 1.802 1.456 3.038-.609.095-1.419.133-2.426.113h-1.997c-.133 0-1.274.029-3.423.085a11.7 11.7 0 0 0-.144 1.791c0 1.915.366 3.388 1.099 4.421.732 1.032 1.764 1.548 3.096 1.548.76 0 1.369-.17 1.826-.513.455-.343.949-.999 1.482-1.97.076-.15.181-.227.313-.227.153 0 .229.066.229.2zm-2.482-5.821c-.077-2.283-.895-3.424-2.453-3.424-1.54 0-2.502 1.141-2.883 3.424h5.336zM233.354 91.599c0 .17-.209.255-.626.255h-6.965c-.455 0-.683-.085-.683-.256 0-.172.134-.256.399-.256.418 0 .865-.011 1.341-.029.589-.019.908-.166.956-.441.047-.275.071-.868.071-1.78V75.705c0-.607-.02-.968-.058-1.082-.038-.113-.173-.17-.403-.17-.097 0-.72.047-1.871.142a6.24 6.24 0 0 1-.461.028c-.23 0-.345-.066-.345-.199 0-.152.112-.237.34-.256.89-.097 1.789-.368 2.696-.814.909-.446 1.638-.975 2.187-1.584.208-.17.351-.256.426-.256.151 0 .228.095.228.285v18.116c0 .685.032 1.084.1 1.198.067.113.301.181.699.199H232.954c.266 0 .4.095.4.287zM250.128 80.5c0 2.492-.576 4.749-1.727 6.774-1.151 2.026-2.658 3.43-4.522 4.209-1.369.57-2.737.855-4.106.855-.495 0-.742-.066-.742-.199 0-.114.132-.19.399-.229 3.214-.417 5.42-2.015 6.618-4.792.475-1.122.809-2.549.998-4.279-1.046.989-2.225 1.483-3.536 1.483-1.256 0-2.397-.38-3.425-1.141-1.502-1.104-2.252-2.729-2.252-4.878 0-1.826.556-3.381 1.668-4.665s2.458-1.926 4.036-1.926c1.94 0 3.524.818 4.749 2.455 1.228 1.635 1.842 3.746 1.842 6.333zm-2.996-1.884c0-2.168-.399-3.879-1.198-5.134-.552-.855-1.303-1.284-2.254-1.284-1.959 0-2.938 2.054-2.938 6.162 0 3.519 1.093 5.277 3.28 5.277.97 0 1.73-.441 2.281-1.326.553-.884.829-2.116.829-3.695zM265.246 86.262c0 1.579-.638 2.93-1.911 4.052-1.407 1.236-3.205 1.854-5.392 1.854-1.788 0-3.1-.419-3.938-1.255-.532-.532-.799-1.143-.799-1.826 0-.59.187-1.06.558-1.412.371-.352.87-.528 1.497-.528.495 0 .903.144 1.227.431.324.287.485.651.485 1.091 0 .671-.447 1.196-1.341 1.579-.362.153-.542.307-.542.459 0 .249.247.475.741.676.495.2 1.037.301 1.626.301 1.445 0 2.62-.496 3.524-1.487.903-.992 1.354-2.288 1.354-3.891 0-3.224-1.446-4.835-4.337-4.835H257.172c-.247 0-.371-.086-.371-.256 0-.133.229-.236.685-.313 1.331-.188 2.357-.677 3.08-1.464.724-.787 1.084-1.796 1.084-3.028 0-1.214-.312-2.185-.941-2.915-.627-.73-1.473-1.096-2.538-1.096-.779 0-1.459.167-2.04.5-.58.332-.87.718-.87 1.154 0 .173.133.285.4.342 1.254.306 1.882.828 1.882 1.57 0 .971-.505 1.455-1.512 1.455-.646 0-1.165-.189-1.555-.57-.391-.38-.585-.885-.585-1.513 0-1.026.442-1.887 1.327-2.582.884-.693 2.115-1.041 3.693-1.041 1.808 0 3.186.467 4.137 1.397.95.933 1.428 2.017 1.428 3.253 0 1.712-.81 2.977-2.426 3.794-.57.285-1.493.523-2.768.713v.201c1.579.057 2.854.407 3.822 1.054 1.43.951 2.142 2.33 2.142 4.136zM280.537 80.5c0 2.492-.575 4.749-1.726 6.774-1.152 2.026-2.658 3.43-4.522 4.209-1.368.57-2.738.855-4.107.855-.494 0-.742-.066-.742-.199 0-.114.134-.19.399-.229 3.214-.417 5.421-2.015 6.618-4.792.477-1.122.809-2.549.999-4.279-1.046.989-2.226 1.483-3.537 1.483-1.256 0-2.396-.38-3.424-1.141-1.503-1.104-2.253-2.729-2.253-4.878 0-1.826.556-3.381 1.669-4.665 1.112-1.284 2.457-1.926 4.035-1.926 1.941 0 3.524.818 4.751 2.455 1.227 1.635 1.84 3.746 1.84 6.333zm-2.996-1.884c0-2.168-.398-3.879-1.196-5.134-.553-.855-1.304-1.284-2.255-1.284-1.959 0-2.938 2.054-2.938 6.162 0 3.519 1.092 5.277 3.28 5.277.97 0 1.73-.441 2.282-1.326.552-.884.827-2.116.827-3.695z"/></g><g fill="#FFF"><path d="M32.132 138.754c-.357-.771-.762-1.289-1.213-1.553-.451-.263-.678-.356-.678-.281h8.975c0-.075-.226.019-.677.281-.452.264-.866.782-1.242 1.553-.376.771-.564 1.91-.564 3.415v31.329h9.257c1.694 0 3.152-.348 4.375-1.045 1.223-.696 2.098-1.589 2.625-2.681l-1.016 5.982H30.241c0 .113.227.029.678-.255.451-.281.855-.847 1.213-1.693s.536-2.077.536-3.696v-27.941c0-1.505-.179-2.644-.536-3.415zM71.56 175.473c-.828-.602-1.299-1.298-1.412-2.088a6.674 6.674 0 0 1-2.681 2.258c-1.11.525-2.211.79-3.302.79-1.732 0-3.181-.499-4.347-1.496-1.167-.996-1.75-2.304-1.75-3.923 0-4.177 3.913-6.266 11.741-6.266v-.621c0-2.069-.302-3.593-.903-4.572-.828-1.393-2.183-2.089-4.063-2.089-1.469 0-2.682.434-3.641 1.299-.961.866-1.439 1.995-1.439 3.387a8.717 8.717 0 0 1-.537-1.016c-.133-.302-.197-.715-.197-1.242 0-1.354.639-2.549 1.919-3.585 1.278-1.034 2.954-1.552 5.024-1.552 2.935 0 5.023.979 6.266 2.936.413.602.714 1.354.902 2.257.188.903.283 2.089.283 3.558v6.717c0 1.167.328 2.069.986 2.709s1.59.96 2.795.96h.733l-3.33 2.54c-1.204-.039-2.22-.36-3.047-.961zm-7.847-7.903c-1.054.753-1.58 1.769-1.58 3.049 0 1.054.282 1.882.847 2.483s1.316.902 2.258.902c.715 0 1.393-.169 2.032-.507a4.9 4.9 0 0 0 1.637-1.412c.602-.79.903-1.862.903-3.217v-2.428c-3.012.001-5.043.378-6.097 1.13zM122.7 175.246c-2.296.792-4.61 1.187-6.943 1.187-3.5 0-6.756-.81-9.766-2.428-3.011-1.617-5.428-3.951-7.253-7-1.825-3.047-2.737-6.622-2.737-10.725 0-3.838.837-7.28 2.512-10.329 1.674-3.048 4.064-5.429 7.168-7.141 3.105-1.712 6.727-2.568 10.867-2.568 4.402 0 8.316.959 11.74 2.879v6.266c-1.166-2.069-2.86-3.716-5.08-4.939a14.52 14.52 0 0 0-7.112-1.834c-3.199 0-5.975.753-8.325 2.257-2.354 1.506-4.149 3.566-5.392 6.182-1.241 2.615-1.862 5.542-1.862 8.777 0 3.65.705 6.83 2.116 9.539 1.411 2.71 3.321 4.79 5.729 6.238s5.099 2.173 8.072 2.173c4.778 0 8.729-1.392 11.854-4.177v2.71c-1.43 1.166-3.293 2.143-5.588 2.933zM148.327 175.473c-.829-.602-1.299-1.298-1.412-2.088a6.684 6.684 0 0 1-2.682 2.258c-1.109.525-2.211.79-3.301.79-1.732 0-3.182-.499-4.348-1.496-1.166-.996-1.749-2.304-1.749-3.923 0-4.177 3.913-6.266 11.741-6.266v-.621c0-2.069-.302-3.593-.904-4.572-.828-1.393-2.182-2.089-4.063-2.089-1.468 0-2.682.434-3.641 1.299-.96.866-1.439 1.995-1.439 3.387a8.85 8.85 0 0 1-.536-1.016c-.133-.302-.197-.715-.197-1.242 0-1.354.639-2.549 1.918-3.585 1.279-1.034 2.954-1.552 5.024-1.552 2.935 0 5.023.979 6.266 2.936.413.602.715 1.354.903 2.257.188.903.282 2.089.282 3.558v6.717c0 1.167.329 2.069.987 2.709s1.59.96 2.795.96h.733l-3.331 2.54c-1.203-.039-2.22-.36-3.046-.961zm-7.847-7.903c-1.054.753-1.581 1.769-1.581 3.049 0 1.054.283 1.882.848 2.483s1.316.902 2.258.902c.714 0 1.392-.169 2.031-.507a4.89 4.89 0 0 0 1.637-1.412c.603-.79.904-1.862.904-3.217v-2.428c-3.012.001-5.044.378-6.097 1.13zM171.159 137.286a7.579 7.579 0 0 0-2.907-.593c-1.882 0-3.255.669-4.12 2.004-.866 1.337-1.299 3.058-1.299 5.165v11.347h5.871v2.257h-5.871v12.645c0 1.619.17 2.85.508 3.696.34.847.715 1.412 1.129 1.693.414.284.622.368.622.255h-8.186c0 .113.216.029.649-.255.432-.281.818-.847 1.156-1.693.34-.847.509-2.077.509-3.696v-12.645h-3.161v-2.257h3.161v-7.847c0-2.634.442-4.958 1.327-6.972.883-2.013 2.125-3.584 3.725-4.713s3.434-1.693 5.504-1.693c1.617 0 2.896.169 3.838.509v4.401c-.676-.676-1.496-1.212-2.455-1.608zM175.929 174.937a9.724 9.724 0 0 1-3.358-3.895 11.598 11.598 0 0 1-1.157-5.108c0-2.333.461-4.347 1.383-6.04s2.117-2.973 3.584-3.838c1.469-.865 2.992-1.299 4.572-1.299 2.258 0 4.206.817 5.844 2.455 1.637 1.638 2.529 3.905 2.681 6.802H174.8c0 1.807.338 3.397 1.017 4.771.677 1.374 1.589 2.428 2.737 3.161a6.836 6.836 0 0 0 3.754 1.101c3.537 0 5.927-1.13 7.169-3.387-.339 2.031-1.262 3.669-2.767 4.91-1.506 1.242-3.35 1.863-5.531 1.863-2.033 0-3.783-.499-5.25-1.496zm.846-16.765c-1.054 1.035-1.693 2.381-1.919 4.036h10.273c0-1.73-.461-3.095-1.383-4.093-.923-.997-1.986-1.496-3.189-1.496-1.467 0-2.729.519-3.782 1.553zM197.661 174.542c-.941-1.261-1.412-2.774-1.412-4.545v-12.531h-3.16l6.773-7.676v5.419h7.225v2.257h-7.225v11.911c0 1.431.375 2.512 1.129 3.245.752.734 1.617 1.101 2.597 1.101.752 0 1.485-.225 2.201-.677.715-.452 1.298-1.073 1.75-1.863-.564 3.5-2.466 5.25-5.701 5.25-1.845 0-3.237-.631-4.177-1.891zM215.666 174.937a9.74 9.74 0 0 1-3.358-3.895 11.612 11.612 0 0 1-1.157-5.108c0-2.333.461-4.347 1.383-6.04s2.117-2.973 3.585-3.838c1.467-.865 2.992-1.299 4.572-1.299 2.258 0 4.205.817 5.842 2.455 1.638 1.638 2.53 3.905 2.682 6.802h-14.676c0 1.807.338 3.397 1.015 4.771.678 1.374 1.59 2.428 2.738 3.161a6.839 6.839 0 0 0 3.754 1.101c3.536 0 5.927-1.13 7.169-3.387-.338 2.031-1.262 3.669-2.766 4.91-1.506 1.242-3.351 1.863-5.533 1.863-2.032 0-3.782-.499-5.25-1.496zm.848-16.765c-1.055 1.035-1.694 2.381-1.92 4.036h10.273c0-1.73-.461-3.095-1.383-4.093-.923-.997-1.985-1.496-3.189-1.496-1.468 0-2.729.519-3.781 1.553zM242.394 156.422c1.298-1.109 2.605-1.665 3.923-1.665.827 0 1.448.112 1.862.339v4.629c-.827-1.018-1.994-1.524-3.499-1.524-1.581 0-2.822.687-3.726 2.06-.903 1.375-1.354 3.133-1.354 5.278v4.572c0 2.107.244 3.556.733 4.346s.96 1.224 1.411 1.299h-7.959c.452-.075.932-.498 1.439-1.27s.762-2.229.762-4.375v-8.523c0-1.581-.254-2.662-.762-3.245-.508-.584-1.082-.876-1.722-.876l6.097-2.709v5.137c.565-1.206 1.497-2.363 2.795-3.473zM253.287 158.342c-.509-.584-1.083-.876-1.722-.876l6.097-2.709v15.354c0 1.657.169 2.898.507 3.726.34.828.716 1.383 1.13 1.664.413.284.621.368.621.255h-8.129c0 .113.207.029.621-.255.413-.281.79-.836 1.129-1.664.339-.827.508-2.068.508-3.726v-8.523c0-1.582-.254-2.663-.762-3.246zm3.641-18.543h5.023l-9.145 10.725 4.122-10.725zM278.379 175.473c-.829-.602-1.299-1.298-1.411-2.088a6.69 6.69 0 0 1-2.682 2.258c-1.11.525-2.211.79-3.302.79-1.732 0-3.182-.499-4.347-1.496-1.167-.996-1.75-2.304-1.75-3.923 0-4.177 3.913-6.266 11.74-6.266v-.621c0-2.069-.301-3.593-.902-4.572-.828-1.393-2.183-2.089-4.064-2.089-1.468 0-2.682.434-3.641 1.299-.96.866-1.439 1.995-1.439 3.387a8.85 8.85 0 0 1-.536-1.016c-.132-.302-.198-.715-.198-1.242 0-1.354.641-2.549 1.92-3.585 1.278-1.034 2.953-1.552 5.023-1.552 2.936 0 5.024.979 6.266 2.936.414.602.715 1.354.903 2.257.188.903.282 2.089.282 3.558v6.717c0 1.167.329 2.069.987 2.709.659.64 1.59.96 2.795.96h.733l-3.33 2.54c-1.204-.039-2.22-.36-3.047-.961zm-7.847-7.903c-1.054.753-1.581 1.769-1.581 3.049 0 1.054.283 1.882.847 2.483.565.602 1.317.902 2.258.902a4.29 4.29 0 0 0 2.033-.507 4.9 4.9 0 0 0 1.637-1.412c.602-.79.902-1.862.902-3.217v-2.428c-3.011.001-5.043.378-6.096 1.13z"/></g></svg>