<svg xmlns="http://www.w3.org/2000/svg" width="121" height="109" viewBox="0 0 121 109"><g fill="#5E3E22"><path d="M43.883 55.127c-5.502-1.943-7.421-15.691-5.929-25.043C29.975 33.72 24.202 44.3 24.202 56.791c0 15.497 8.883 28.059 19.842 28.059 1.488 0 2.937-.239 4.332-.679 7.009-15.538 2.504-26.573-4.493-29.044z"/><path d="M66.314 55.839c0-15.497-8.883-28.059-19.842-28.059-2.125 0-4.17.478-6.09 1.353-1.492 9.352.427 23.1 5.93 25.042 6.998 2.471 11.502 13.506 4.493 29.043 8.873-2.795 15.509-13.988 15.509-27.379z"/></g><g fill="#5E3E22"><path d="M85.374 78.413c.82 4.029-6.793 10.171-12.985 12.659 5.088 3.504 13.575 3.159 21.124-1.368 9.365-5.616 13.738-15.538 9.767-22.16a10.133 10.133 0 0 0-1.98-2.372c-11.932 1.395-16.969 8.117-15.926 13.241z"/><path d="M77.675 64.599c-9.366 5.616-13.738 15.537-9.767 22.16.77 1.284 1.8 2.347 3.024 3.19 6.192-2.488 13.805-8.63 12.985-12.659-1.043-5.125 3.994-11.846 15.924-13.241-4.904-4.349-14.074-4.303-22.166.55z"/></g></svg>