<svg id="Layer_1" data-name="Layer 1" xmlns="http://www.w3.org/2000/svg" viewBox="0 0 48.43 35.22"><defs><style>.cls-1{fill:#313c4e;}</style></defs><path class="cls-1" d="M17.36,11a10.41,10.41,0,0,1,8,3.64,12.29,12.29,0,0,1,2.5,4.1,13.44,13.44,0,0,1,.93,4.87,19.5,19.5,0,0,1-3.37,10.46,30,30,0,0,1-9,9c-3.19,2.1-5.69,3.16-7.5,3.16a2.53,2.53,0,0,1-1.8-.66,2.24,2.24,0,0,1-.7-1.74c0-1.08.68-2,2.06-2.71a26.05,26.05,0,0,0,7.23-5.06c1.45-1.56,2.17-2.7,2.17-3.42s-.54-1.11-1.63-1.25l-.7-.11-.82-.06A8.78,8.78,0,0,1,9,28a10.3,10.3,0,0,1-2.2-6.66,9.91,9.91,0,0,1,2.71-7A10.33,10.33,0,0,1,17.36,11Z" transform="translate(-6.39 -11.04)"/><path class="cls-1" d="M43.4,11a10.42,10.42,0,0,1,8,3.64,12.46,12.46,0,0,1,2.5,4.1,13.65,13.65,0,0,1,.92,4.87,19.41,19.41,0,0,1-3.37,10.46,29.75,29.75,0,0,1-9,9c-3.19,2.1-5.69,3.16-7.5,3.16a2.5,2.5,0,0,1-1.79-.66,2.25,2.25,0,0,1-.71-1.74c0-1.08.69-2,2.07-2.71a26.13,26.13,0,0,0,7.22-5.06c1.45-1.56,2.18-2.7,2.18-3.42s-.55-1.11-1.63-1.25l-.71-.11-.81-.06A8.8,8.8,0,0,1,35,28a10.3,10.3,0,0,1-2.2-6.66,9.92,9.92,0,0,1,2.72-7A10.3,10.3,0,0,1,43.4,11Z" transform="translate(-6.39 -11.04)"/></svg>