<svg id="Layer_1" data-name="Layer 1" xmlns="http://www.w3.org/2000/svg" viewBox="0 0 324.32 355.33"><defs><style>.cls-1{fill:#fff;}</style></defs><path class="cls-1" d="M163.46,10.57c-25.51,0-39.28,82.23-39.28,159.63,0,39.92,3.67,81.14,10.7,111.71.6,2.62,1.23,5.12,1.87,7.55a148.1,148.1,0,0,0,6.47,19.34,72.72,72.72,0,0,0,4.71,9.32c4.57,7.44,9.73,11.67,15.53,11.67s11.07-4.3,15.64-11.9a69.84,69.84,0,0,0,5.31-10.81,148.37,148.37,0,0,0,5.83-18c.68-2.43,1.28-5,1.88-7.6,7-30.52,10.62-71.56,10.62-111.29C202.74,92.8,189,10.57,163.46,10.57Zm22,267a173,173,0,0,1-8.56,28.92c-4.34,10.21-9,15.79-13.47,15.79-4.27,0-8.64-5-12.76-14.18-3.33-7.44-6.47-17.62-9.2-30.15-5.84-26.67-9.84-64-9.84-107.78,0-89.67,16.76-152.14,31.8-152.14s31.8,62.47,31.8,152.14C195.26,213.78,191.29,251,185.49,277.6Z"/><path class="cls-1" d="M17.35,236.4V186.76l104.83-61.85,10-3.78V200ZM24.84,191v35.15l99.87-31.7V132.05Z"/><path class="cls-1" d="M309.37,236.42,194.53,200V121.15l10.59,4.06,104.25,61.57ZM202,194.5l99.87,31.7V191.05l-99.87-59Z"/><path class="cls-1" d="M141.5,278l-6.62,3.93L90.17,308.24v28.21l57.76-18.33,2.77-.9v-9.09C147.37,300.69,144.23,290.51,141.5,278Zm1.72,33.78L97.66,326.2V312.51l39.09-23.05,6.47-3.81Z"/><path class="cls-1" d="M192.12,281.49l-6.63-3.89a173,173,0,0,1-8.56,28.92v10.7l2.17.67,58.32,18.56V308.24Zm37.82,44.71-45.53-14.44V285.65l5.83,3.44,39.7,23.42Z"/><path class="cls-1" d="M163.45,87.61a14.91,14.91,0,1,1,14.91-14.9A14.92,14.92,0,0,1,163.45,87.61Zm0-26.07a11.17,11.17,0,1,0,11.17,11.17A11.17,11.17,0,0,0,163.45,61.54Z"/><path class="cls-1" d="M163.45,129.44a12.9,12.9,0,1,1,12.9-12.9A12.91,12.91,0,0,1,163.45,129.44Zm0-22a9.16,9.16,0,1,0,9.16,9.15A9.16,9.16,0,0,0,163.45,107.39Z"/><path class="cls-1" d="M163.45,169.1a12.9,12.9,0,1,1,12.9-12.89A12.9,12.9,0,0,1,163.45,169.1Zm0-22a9.16,9.16,0,1,0,9.16,9.16A9.16,9.16,0,0,0,163.45,147.05Z"/><path class="cls-1" d="M163.45,205.18a12.9,12.9,0,1,1,12.9-12.89A12.9,12.9,0,0,1,163.45,205.18Zm0-22.05a9.16,9.16,0,1,0,9.16,9.16A9.16,9.16,0,0,0,163.45,183.13Z"/></svg>