<svg xmlns="http://www.w3.org/2000/svg" xmlns:xlink="http://www.w3.org/1999/xlink" viewBox="0 0 469.58 291.86"><defs><style>.cls-1{isolation:isolate;}.cls-2{fill:url(#linear-gradient);}.cls-3{fill:#e6edef;}.cls-11,.cls-12,.cls-4,.cls-5{fill:none;stroke-miterlimit:10;}.cls-4{stroke:#e6edef;}.cls-11,.cls-4,.cls-5{stroke-width:2px;}.cls-5{stroke:#fff;}.cls-6{fill:#d1d3d4;}.cls-10,.cls-25,.cls-6{mix-blend-mode:multiply;}.cls-7{fill:url(#linear-gradient-3);}.cls-8{fill:url(#linear-gradient-4);}.cls-9{fill:url(#linear-gradient-5);}.cls-10{fill:#d8d0bc;}.cls-11,.cls-12{stroke:#112b46;stroke-linecap:round;}.cls-12{stroke-width:4px;}.cls-13{fill:#112b46;}.cls-14{fill:#385c7a;}.cls-15{fill:#254963;}.cls-16{fill:#a5b7c6;}.cls-17{fill:url(#New_Gradient_Swatch_6);}.cls-18{fill:#c3d3dd;}.cls-19{fill:url(#New_Gradient_Swatch_6-2);}.cls-20{fill:#ffc8af;}.cls-21{fill:#f4b298;}.cls-22{fill:#878cf0;}.cls-23{fill:#ec827d;}.cls-24{fill:#56548c;}.cls-26{fill:#e6e7e8;}.cls-27{fill:#d8d6ec;}.cls-28{fill:#b8b7c9;}.cls-29{fill:#758d9e;}.cls-30{fill:url(#New_Gradient_Swatch_6-3);}.cls-31{fill:#f9fbfc;}.cls-32{fill:#e1e7ea;}.cls-33{fill:url(#New_Gradient_Swatch_15);}.cls-34{fill:#fbd15b;}.cls-35{fill:url(#New_Gradient_Swatch_4);}.cls-36{fill:#002b45;}.cls-37{fill:#369;}.cls-38{fill:#22557f;}.cls-39{fill:url(#linear-gradient-6);}.cls-40{fill:url(#New_Gradient_Swatch_6-4);}.cls-41{fill:url(#New_Gradient_Swatch_6-5);}.cls-42{fill:#a0160b;}.cls-42,.cls-49{mix-blend-mode:screen;}.cls-43{fill:#34b2a3;}.cls-44{fill:#349f96;}.cls-45{fill:#3ebfb4;}.cls-46{fill:#4be2cf;}.cls-47{fill:#fff;}.cls-48{fill:#dce8ef;}.cls-49{fill:#11477c;}</style><linearGradient id="linear-gradient" x1="405.01" y1="148.47" x2="495.61" y2="305.39" gradientTransform="matrix(-1, 0, 0, 1, 741.78, 0)" gradientUnits="userSpaceOnUse"><stop offset="0" stop-color="#9776f0"/><stop offset="0.24" stop-color="#8a6af3"/><stop offset="0.68" stop-color="#694af9"/><stop offset="1" stop-color="#4d2fff"/></linearGradient><linearGradient id="linear-gradient-3" x1="512.73" y1="234.98" x2="553.87" y2="234.98" gradientTransform="matrix(-1, 0, 0, 1, 741.78, 0)" gradientUnits="userSpaceOnUse"><stop offset="0" stop-color="#411ebe"/><stop offset="1" stop-color="#420087"/></linearGradient><linearGradient id="linear-gradient-4" x1="413.43" y1="156.05" x2="478.34" y2="156.05" xlink:href="#linear-gradient-3"/><linearGradient id="linear-gradient-5" x1="337.89" y1="234.96" x2="378.52" y2="234.96" xlink:href="#linear-gradient-3"/><linearGradient id="New_Gradient_Swatch_6" x1="337.04" y1="130.13" x2="346.42" y2="130.13" gradientTransform="matrix(-0.26, -0.97, -0.97, 0.26, 614.9, 426.02)" gradientUnits="userSpaceOnUse"><stop offset="0" stop-color="#df697b"/><stop offset="1" stop-color="#be2773"/></linearGradient><linearGradient id="New_Gradient_Swatch_6-2" x1="381.8" y1="114.55" x2="381.8" y2="145.4" gradientTransform="matrix(-1, 0, 0, 1, 741.78, 0)" xlink:href="#New_Gradient_Swatch_6"/><linearGradient id="New_Gradient_Swatch_6-3" x1="647.85" y1="281.46" x2="647.85" y2="295.77" gradientTransform="matrix(1, 0, 0, -1, -553.92, 577.23)" xlink:href="#New_Gradient_Swatch_6"/><linearGradient id="New_Gradient_Swatch_15" x1="646.8" y1="267.14" x2="646.8" y2="281.46" gradientTransform="matrix(1, 0, 0, -1, -551.82, 548.6)" gradientUnits="userSpaceOnUse"><stop offset="0" stop-color="#efcf64"/><stop offset="1" stop-color="#ff7159"/></linearGradient><linearGradient id="New_Gradient_Swatch_4" x1="443.52" y1="24.09" x2="443.52" y2="96.99" gradientTransform="matrix(-1, 0, 0, 1, 741.78, 0)" gradientUnits="userSpaceOnUse"><stop offset="0" stop-color="#68acff"/><stop offset="0.23" stop-color="#65a7ff"/><stop offset="0.5" stop-color="#5b99ff"/><stop offset="0.79" stop-color="#4a81ff"/><stop offset="1" stop-color="#3b6bff"/></linearGradient><linearGradient id="linear-gradient-6" x1="541.17" y1="150.38" x2="550.47" y2="166.48" gradientTransform="matrix(-1, 0, 0, 1, 741.78, 0)" gradientUnits="userSpaceOnUse"><stop offset="0" stop-color="#ffcf62"/><stop offset="1" stop-color="#ff965d"/></linearGradient><linearGradient id="New_Gradient_Swatch_6-4" x1="502.71" y1="58.3" x2="518.72" y2="86.03" gradientTransform="matrix(-0.97, -0.23, -0.23, 0.97, 744.69, 119.27)" xlink:href="#New_Gradient_Swatch_6"/><linearGradient id="New_Gradient_Swatch_6-5" x1="310.33" y1="271.88" x2="347.81" y2="271.88" gradientTransform="matrix(-1, 0, 0, 1, 712.63, -17.22)" xlink:href="#New_Gradient_Swatch_6"/></defs><g class="cls-1"><g id="OBJECTS"><path class="cls-2" d="M218.16,170.08a118.74,118.74,0,0,1,20.28-10.84c8.89-3.87,18-7.13,25-9.8,6,4.62,20.53,14.88,32.45,14.88s26.49-10.26,32.46-14.88c12.79,4.86,32.59,11.72,45.28,20.64,16.61,10.95,26.18,43.83,29.2,55.83-11.61,10.72-33.22,13.58-39.57,14.21q-1.54-4.69-2.93-9.12L357,288.85l-.58,10.29H235.33l-.4-7L234.8,291l1-.12-1-21.58-1.12,0v-.05l-2.3-40.63c-.67,3.88-1.44,7.75-2.28,11.6-5.62-.52-28.15-3.24-40.09-14.26C192,213.91,201.55,181,218.16,170.08Z" transform="translate(-29.14 -17.22)"/><path class="cls-3" d="M61.32,302.43C43.7,267.42,59,223.34,89.5,195c11.15-10.35,24.58-19.82,29.81-33.29,5.89-15.13,0-31.69.85-47.66,1.07-20.46,14.05-40.18,33.75-51.28s45.6-13.28,67.36-5.67c28.57,10,49.4,35.24,79.85,39.16,15,1.93,30.26-1.77,45.46-1.65,42.24.31,80.11,34.83,78.69,71.75-.6,15.82-6.95,33.28,3.12,46.44,10.31,13.48,32.5,15,46.69,25.46,15.45,11.39,16.7,28.33,17,46.18.09,5.19-.07,10.92-3.57,14.76-7,7.71-22.53,3.21-32.06,3.21H61.32Z" transform="translate(-29.14 -17.22)"/><path class="cls-4" d="M50,304.81c-18.09-35.68-2.43-80.6,28.91-109.47,11.45-10.55,25.23-20.2,30.6-33.92,6-15.43,0-32.3.87-48.57,1.1-20.86,14.42-41,34.64-52.27s46.79-13.53,69.12-5.78c29.33,10.18,50.7,35.92,82,39.91,15.43,2,31.05-1.8,46.65-1.68,43.35.31,82.21,35.5,80.76,73.12-.62,16.13-7.13,33.92,3.2,47.33,10.58,13.74,33.36,15.3,47.91,26,15.86,11.61,17.14,28.88,17.46,47.07.1,5.29-.08,11.13-3.67,15-7.22,7.85-23.12,3.27-32.9,3.27H50Z" transform="translate(-29.14 -17.22)"/><path class="cls-5" d="M130.18,305c-13.36-31.17-1.67-71.62,22.35-98.62,8.94-10.05,19.77-19.38,24.2-32.59,5.05-15,.62-31.41,1.61-47.54,1.29-20.95,12.49-41.78,29.3-54,17-12.42,39.19-15.6,57.45-8.11,24,9.82,40.2,36,66.09,39.35,12.83,1.64,26.35-2.66,39.59-3,37.05-.81,66.49,34.75,60.94,72.84-2.34,16-9.73,33.51-2.61,46.38,7.24,13.09,25.95,14.37,36.76,24.43,11.73,10.9,10.61,27.13,8.6,44-.58,4.87-1.44,10.22-4.85,13.8-6.81,7.14-19.16,3-27.07,3H362.8L242,305H130.18Z" transform="translate(-29.14 -17.22)"/><path class="cls-3" d="M356.56,52.28V72.63a4.7,4.7,0,0,0,4.7,4.7h6.1v6.09l6.09-6.09h20.07a4.7,4.7,0,0,0,4.7-4.7V52.28a4.7,4.7,0,0,0-4.7-4.71H361.26A4.7,4.7,0,0,0,356.56,52.28Zm29.22,10.17a2.34,2.34,0,1,1,2.34,2.34A2.34,2.34,0,0,1,385.78,62.45Zm-10.73,0a2.34,2.34,0,1,1,2.34,2.34A2.34,2.34,0,0,1,375.05,62.45Zm-10.73,0a2.34,2.34,0,1,1,2.34,2.34A2.34,2.34,0,0,1,364.32,62.45Z" transform="translate(-29.14 -17.22)"/><path class="cls-2" d="M218.16,170.08a118.74,118.74,0,0,1,20.28-10.84c8.89-3.87,18-7.13,25-9.8,6,4.62,20.53,14.88,32.45,14.88s26.49-10.26,32.46-14.88c12.79,4.86,32.59,11.72,45.28,20.64,16.61,10.95,26.18,43.83,29.2,55.83-11.61,10.72-33.22,13.58-39.57,14.21q-1.54-4.69-2.93-9.12L357,288.85l-.58,10.29H235.33l-.4-7L234.8,291l1-.12-1-21.58-1.12,0v-.05l-2.3-40.63c-.67,3.88-1.44,7.75-2.28,11.6-5.62-.52-28.15-3.24-40.09-14.26C192,213.91,201.55,181,218.16,170.08Z" transform="translate(-29.14 -17.22)"/><path class="cls-6" d="M240.19,290.31l-5.33.66.27,4.8h5.65Zm-9.13-83.93.27,22.19,2.3,40.68,4.28.13Z" transform="translate(-29.14 -17.22)"/><polygon class="cls-6" points="323.86 257.04 321.85 278.56 327.5 278.56 328.56 260.06 323.86 257.04"/><path class="cls-6" d="M359.39,247.24l-2.95-1.53,4.27-39.33-.26,22.19Z" transform="translate(-29.14 -17.22)"/><path class="cls-7" d="M229.05,240.17c-5.62-.52-28.15-3.24-40.09-14.26-.71,2.78-1.05,4.45-1.05,4.45a39.08,39.08,0,0,0,4.68,3.68c9.18,6.18,21.43,9.18,35.58,10C228.48,242.77,228.77,241.47,229.05,240.17Z" transform="translate(-29.14 -17.22)"/><path class="cls-8" d="M295.89,160.61c-10.28,0-22.78-8.66-28.2-12.82-1.31.52-2.73,1.08-4.25,1.65,6,4.62,20.53,14.88,32.45,14.88s26.49-10.26,32.46-14.88c-1.53-.57-2.94-1.13-4.25-1.65C318.68,152,306.17,160.61,295.89,160.61Z" transform="translate(-29.14 -17.22)"/><path class="cls-9" d="M402.83,225.91c-11.61,10.72-33.22,13.58-39.57,14.21.41,1.27.84,2.58,1.27,3.88,13.76-.91,25.69-3.9,34.67-10a38.1,38.1,0,0,0,4.68-3.68S403.54,228.69,402.83,225.91Z" transform="translate(-29.14 -17.22)"/><path class="cls-10" d="M320.78,256.71a67.19,67.19,0,0,1-7.54-7,10.31,10.31,0,0,1-7.45-2c-1.92-1.51-3.16-3.7-4.46-5.78-1.88-3-3.77-7.25-6.54-9.5-3.32-2.71-7.93-5.23-9.25-7.3a2.29,2.29,0,0,1-.29-1.6,1.33,1.33,0,0,1,1-1.14,2,2,0,0,1,1.16.33c3.65,1.93,7.56,2.81,11,5.05-2.62-3.94-6.86-7-10.07-10.47-1.51-1.64-3-2.45-2.29-4.59a1.23,1.23,0,0,1,.37-.62,1.32,1.32,0,0,1,1.15-.07,5.23,5.23,0,0,1,2.49,1.66c-1.65-2-3.42-4.45-2.73-7a3.11,3.11,0,0,1,2.14.66,115.48,115.48,0,0,1,12.73,9c-2.53-4.08-6.52-7-9.6-10.68-.82-1-1.62-2.31-1.08-3.47a41.78,41.78,0,0,1,9.13,4.82,18.2,18.2,0,0,1,2.79,2.13,18.55,18.55,0,0,1,2.4,3.11c.4.58,6.27,9,6.68,8.49,1.88-2.19.85-5.53,1.33-8.38a7.51,7.51,0,0,1,1.19-3,3,3,0,0,1,1.25-1.16,1.4,1.4,0,0,1,1.59.3,2.14,2.14,0,0,1,.35,1c.24,1.4.49,2.81.73,4.22q.63,3.55,1.24,7.11c.27,1.56.54,3.13.67,4.7.22,2.65,0,5.31.28,8,2.08,1.06,4.12,2.64,6.11,3.7q4.68,2.51,9.39,5,11.13,5.83,22.31,11.6l-1.69,29.76A350.18,350.18,0,0,1,320.78,256.71Z" transform="translate(-29.14 -17.22)"/><path class="cls-11" d="M410.36,130.58c1-.18,2.1.06,3.15-.1,6.8-1,11.66-6.32,17.29-9.75,7.74-4.72,21.52-6.23,28.08,1.51,3.43,4.05,3.18,9.91,2.18,14.79-.71,3.49-1.86,6.89-2.46,10.4-1.43,8.39,1.08,16.84,5.49,24,4.26,6.89,11.08,11.65,14.13,19.29,2.79,7,3.44,15.86-.61,22.44A60.1,60.1,0,0,1,471.3,221c-7.79,8.89-12.72,18.72-11.69,30.8a66.41,66.41,0,0,0,2.91,12.93,51.78,51.78,0,0,1,2.52,13c.12,4.43-.93,9-3.74,12.45" transform="translate(-29.14 -17.22)"/><polyline class="cls-12" points="421.22 274.41 446.38 192.53 427.95 106.49 371.01 88.91"/><rect class="cls-13" x="448.29" y="277.29" width="12.89" height="13.69" transform="translate(880.32 551.06) rotate(-180)"/><circle class="cls-13" cx="425.59" cy="260.07" r="6.45"/><circle class="cls-14" cx="425.59" cy="260.07" r="3.47"/><path class="cls-13" d="M420.8,285.95h67.86a0,0,0,0,1,0,0v1a9,9,0,0,1-9,9H429.84a9,9,0,0,1-9-9v-1A0,0,0,0,1,420.8,285.95Z" transform="translate(880.32 564.75) rotate(-180)"/><rect class="cls-13" x="406.14" y="127.49" width="6.57" height="4.97" rx="1.4" transform="translate(789.71 242.73) rotate(-180)"/><rect class="cls-13" x="406.14" y="125.32" width="4.13" height="9.32" transform="translate(787.27 242.73) rotate(-180)"/><path class="cls-13" d="M349.65,115.72l12.74,0-.11,28.46-12.74,0a9.09,9.09,0,0,1-9.06-9.13l0-10.28A9.09,9.09,0,0,1,349.65,115.72Z" transform="translate(-29.14 -17.22)"/><path class="cls-15" d="M342.62,140.94v-1.32H345v2.32h-1.37a7.62,7.62,0,0,0,1,.76H345v.23a8,8,0,0,0,.77.4v-.63h2.36v1.35c.25,0,.51.08.76.1V142.7h2.37v1.49H352V142.7h2.36v1.5h.77v-1.5h2.36v1.51h.76V142.7h4v-.76h-4v-2.32h4.05v-.77h-4.05v-2.32h4.06v-.76h-4.06v-2.33h4.07v-.76h-4.08v-2.32h4.09v-.77h-4.09v-2.32h4.1v-.76h-4.1v-2.33h4.11v-.76h-4.11V121.1h4.12v-.77h-4.13V118h4.14v-.76h-4.14v-1.5h-.76v1.5h-2.36v-1.51h-.77v1.51H352v-1.52h-.76v1.53h-2.37v-1.5l-.76.1v1.4h-2.36v-.66a8.14,8.14,0,0,0-.77.41v.25h-.41a9.15,9.15,0,0,0-1,.76H345v2.32h-2.36V119a9.22,9.22,0,0,0-.76,1.09v.24h-.15a7.94,7.94,0,0,0-.39.77h.54v2.32h-1.22c0,.25-.07.51-.09.76h1.31v2.33h-1.34v.76h1.35v2.32H340.5v.77h1.36v2.32h-1.37v.76h1.37v2.33h-1.35c0,.26.06.51.1.76h1.25v2.32h-.56a7,7,0,0,0,.4.77h.16v.26A8.88,8.88,0,0,0,342.62,140.94Zm12.51-1.32h2.36v2.32h-2.36Zm0-3.09h2.36v2.32h-2.36Zm0-3.09h2.36v2.33h-2.36Zm0-3.08h2.36v2.32h-2.36Zm0-3.09h2.36v2.32h-2.36Zm0-3.09h2.36v2.33h-2.36Zm0-3.08h2.36v2.32h-2.36Zm0-3.09h2.36v2.32h-2.36ZM352,139.62h2.36v2.32H352Zm0-3.09h2.36v2.32H352Zm0-3.09h2.36v2.33H352Zm0-3.08h2.36v2.32H352Zm0-3.09h2.36v2.32H352Zm0-3.09h2.36v2.33H352Zm0-3.08h2.36v2.32H352Zm0-3.09h2.36v2.32H352Zm-3.13,21.61h2.37v2.32h-2.37Zm0-3.09h2.37v2.32h-2.37Zm0-3.09h2.37v2.33h-2.37Zm0-3.08h2.37v2.32h-2.37Zm0-3.09h2.37v2.32h-2.37Zm0-3.09h2.37v2.33h-2.37Zm0-3.08h2.37v2.32h-2.37Zm0-3.09h2.37v2.32h-2.37Zm-3.12,21.61h2.36v2.32h-2.36Zm0-3.09h2.36v2.32h-2.36Zm0-3.09h2.36v2.33h-2.36Zm0-3.08h2.36v2.32h-2.36Zm0-3.09h2.36v2.32h-2.36Zm0-3.09h2.36v2.33h-2.36Zm0-3.08h2.36v2.32h-2.36Zm0-3.09h2.36v2.32h-2.36Zm-.77,5.41h-2.36V121.1H345Zm0,3.09h-2.36v-2.33H345Zm0,3.08h-2.36v-2.32H345Zm0,3.09h-2.36v-2.32H345Zm0,3.09h-2.36v-2.33H345Zm-2.36,3.08v-2.32H345v2.32Z" transform="translate(-29.14 -17.22)"/><path class="cls-16" d="M362.39,115.74l-.11,28.47,2.78-.27,3-.31,2-.19,3-.31,2-.19,3-.3,2-.2,3-.29,22.66-2.24a3,3,0,0,0,2.7-3l.05-13.55a3,3,0,0,0-2.67-3L383.33,118l-3-.32-2-.21-3-.33-2-.21-3-.33-2-.2-3-.34Z" transform="translate(-29.14 -17.22)"/><circle class="cls-17" cx="400.05" cy="130.13" r="4.69" transform="matrix(0.26, -0.97, 0.97, 0.26, 140.83, 465.1)"/><path class="cls-13" d="M397.41,130.12a2.64,2.64,0,1,0,2.65-2.63A2.64,2.64,0,0,0,397.41,130.12Z" transform="translate(-29.14 -17.22)"/><rect class="cls-18" x="330.26" y="97.33" width="7.79" height="30.85" rx="1.15"/><polygon class="cls-18" points="350.92 100.41 351.16 100.44 353.3 100.66 353.3 106.35 350.92 106.35 350.92 100.41"/><polygon class="cls-18" points="343.04 99.57 344.11 99.69 345.42 99.82 345.42 106.35 343.04 106.35 343.04 99.57"/><polygon class="cls-18" points="344 125.92 343.04 126.01 343.04 119.17 345.42 119.17 345.42 125.78 344 125.92"/><polygon class="cls-18" points="358.8 124.47 358.8 119.17 361.18 119.17 361.18 124.23 358.8 124.47"/><polygon class="cls-18" points="351.06 125.23 350.92 125.24 350.92 119.17 353.3 119.17 353.3 125.01 351.06 125.23"/><polygon class="cls-18" points="358.8 101.25 361.18 101.5 361.18 106.35 358.8 106.35 358.8 101.25"/><path class="cls-19" d="M359.4,144.25V115.7a1.14,1.14,0,0,1,1.15-1.15V145.4A1.14,1.14,0,0,1,359.4,144.25Z" transform="translate(-29.14 -17.22)"/><circle class="cls-13" cx="371.01" cy="88.91" r="6.45"/><circle class="cls-14" cx="371.01" cy="88.91" r="3.47"/><circle class="cls-13" cx="427.95" cy="106.49" r="6.45"/><circle class="cls-14" cx="427.95" cy="106.49" r="3.47"/><circle class="cls-13" cx="446.38" cy="192.53" r="6.45"/><circle class="cls-14" cx="446.38" cy="192.53" r="3.47"/><line class="cls-12" x1="371.01" y1="88.91" x2="371.01" y2="112.73"/><path class="cls-20" d="M306.87,249.42a20.76,20.76,0,0,1-4,1.06C304.21,250.06,305.53,249.72,306.87,249.42Z" transform="translate(-29.14 -17.22)"/><path class="cls-20" d="M310.7,226.25a3.61,3.61,0,0,0-.35.33,8.35,8.35,0,0,0-1.82,3.13c-3.07,8.71,4.54,14.23,10.37,19.23a352.16,352.16,0,0,0,38.8,28.33c16.12,10.2,30.89,17.54,35.83,15.85,9.91-3.37,11.94-21.25,5.67-59.08-9,6.06-20.9,9-34.67,10,.39,1.16.77,2.32,1.16,3.49s.81,2.41,1.22,3.63l-7.5-3.87q-12.3-6.36-24.57-12.77c-3.13-1.64-6.27-3.28-9.38-5-2.53-1.35-5.13-3.53-7.8-4.42a7.79,7.79,0,0,0-1.77-.39A6.91,6.91,0,0,0,310.7,226.25Z" transform="translate(-29.14 -17.22)"/><path class="cls-21" d="M365.69,247.49c.41,1.2.81,2.41,1.22,3.63l18.31,8.54Z" transform="translate(-29.14 -17.22)"/><path class="cls-20" d="M317.16,206.06c-.25-1.41-.49-2.82-.74-4.22a2.18,2.18,0,0,0-.35-1,1.39,1.39,0,0,0-1.59-.3,3,3,0,0,0-1.25,1.16,7.66,7.66,0,0,0-1.19,3c-.48,2.85.56,6.19-1.33,8.38-.4.47-6.28-7.9-6.67-8.49a19.67,19.67,0,0,0-2.4-3.11,18.79,18.79,0,0,0-2.8-2.13,41.33,41.33,0,0,0-9.13-4.82c-.53,1.16.26,2.49,1.09,3.47,3.07,3.68,7.07,6.6,9.59,10.68a115.86,115.86,0,0,0-12.73-9,3.11,3.11,0,0,0-2.14-.66c-.69,2.51,1.08,5,2.74,7a5.15,5.15,0,0,0-2.49-1.65,1.27,1.27,0,0,0-1.16.07,1.16,1.16,0,0,0-.37.61c-.67,2.14.78,3,2.3,4.59,3.2,3.48,7.45,6.53,10.06,10.47-3.47-2.24-7.37-3.12-11-5a2,2,0,0,0-1.16-.33,1.33,1.33,0,0,0-1,1.14,2.44,2.44,0,0,0,.29,1.61c1.33,2.06,5.94,4.58,9.25,7.29,2.77,2.25,4.67,6.51,6.55,9.5,1.3,2.08,2.54,4.27,4.46,5.78a10.36,10.36,0,0,0,8.81,1.77,12.26,12.26,0,0,0,5.58-3.16c1.54-1.49,1.79-2.84,1.88-4.95.1-2.42-.53-4.8-.8-7.17-.33-2.85-.09-5.72-.32-8.56-.13-1.58-.41-3.15-.68-4.71Z" transform="translate(-29.14 -17.22)"/><path class="cls-21" d="M301,214.82l-.66-.47c-.41-.31-1-.72-1.71-1.28s-1.5-1.17-2.34-1.88-1.73-1.47-2.62-2.17a24.11,24.11,0,0,0-2.81-1.77l-2.6-1.48c-.77-.42-1.39-.82-1.84-1.07l-.69-.43.79.2c.49.16,1.21.35,2,.66s1.8.67,2.81,1.14a16.76,16.76,0,0,1,3.08,1.77c.93.77,1.79,1.56,2.58,2.34s1.48,1.54,2.09,2.18,1.05,1.23,1.39,1.62Z" transform="translate(-29.14 -17.22)"/><path class="cls-21" d="M304.11,211.25l-.75-.44c-.47-.31-1.16-.7-1.94-1.23s-1.71-1.13-2.68-1.81l-3-2.14-3-2.19c-.95-.69-1.81-1.39-2.58-1.93s-1.37-1.06-1.83-1.37l-.7-.52.82.31c.51.22,1.25.53,2.09,1s1.82,1,2.82,1.63,2,1.35,3.07,2.09,2,1.52,2.94,2.27,1.74,1.5,2.45,2.13,1.26,1.21,1.66,1.59Z" transform="translate(-29.14 -17.22)"/><path class="cls-10" d="M234.8,291l.13,1.13.39,6.79c9.14-1.11,18.26-2.35,27.37-3.66,6.3-.91,12.66-1.68,18.89-2.92l1.06-.21.42-.09a14.49,14.49,0,0,0,10.7-.68c2.43-1.24,4.78-5.91,5.63-7.69s2.42-8.17,4.31-9.6c.9-.67,8.6-4.58,11-5.75.63-.31,2.57-1.64,2.19-2.23-.48-.79-2.55-.4-3.61-.26-.29,0-.58.09-.88.14l.11,0c-1.12.13-2.31.32-3.5.54a34.63,34.63,0,0,0,7.35-3.87,3,3,0,0,0,1.07-1.09,1.06,1.06,0,0,0-.32-1.36,1.47,1.47,0,0,0-.69-.14,20.37,20.37,0,0,0-3.58.2,6.58,6.58,0,0,0,2.25-1.11c.44-.34.87-.88.66-1.4a1.26,1.26,0,0,0-.8-.61,11.12,11.12,0,0,0-5.87-.15c-.74.13-1.47.3-2.2.46l.15-.06-.05,0c.25-.1.51-.19.76-.3.13-.47-.46-.8-.94-.89a11.7,11.7,0,0,0-6.37.69c-2,.75-9.35,3.22-10.65,4.09-1.12.76-3.28,6.19-3.75,7.29-1.63,3.85-3.08,8.14-5.52,11.56-.93-.15-1.86-.23-2.74-.29-2.75-.2-5.51-.38-8.27-.56q-13.23-.84-26.48-1.39-3.94-.15-7.9-.27l.65,13.57Zm68.1-32.51c1.1-.35,2.22-.65,3.34-.91-.6.16-1.52.42-2.6.75C303.39,258.36,303.15,258.43,302.9,258.47Z" transform="translate(-29.14 -17.22)"/><path class="cls-20" d="M192.59,234c9.18,6.18,21.43,9.18,35.58,10-2,8.51-4.31,16.88-6.84,24.95,4,0,8.18.12,12.3.24,3.13.09,6.27.2,9.4.32q13.26.54,26.48,1.39c2.76.18,5.52.36,8.27.56,2.92.21,6.41.51,8.16,3.26a7.89,7.89,0,0,1,.71,5.46,4.79,4.79,0,0,1-1.06,2.64,5.38,5.38,0,0,1-2.95,1.24l-1.06.21c-6.23,1.24-12.59,2-18.89,2.92-9.28,1.33-18.58,2.6-27.89,3.73-16.92,2-32.71,3.45-36.53,2.14C188.36,289.74,186.34,271.86,192.59,234Z" transform="translate(-29.14 -17.22)"/><path class="cls-20" d="M286,260.25c.47-1.1,2.63-6.53,3.75-7.29,1.3-.87,8.63-3.34,10.65-4.09a11.7,11.7,0,0,1,6.37-.69c.48.09,1.07.42.94.89l-.88.35c-1.34.3-2.66.64-4,1.06a20.76,20.76,0,0,0,4-1.06c.74-.17,1.48-.34,2.22-.47a11.22,11.22,0,0,1,5.87.15,1.27,1.27,0,0,1,.8.62c.21.51-.22,1.05-.66,1.39a6.78,6.78,0,0,1-2.25,1.12,19.46,19.46,0,0,1,3.58-.21,1.47,1.47,0,0,1,.69.14,1.07,1.07,0,0,1,.32,1.37,3,3,0,0,1-1.07,1.08,34.76,34.76,0,0,1-7.84,4.07c1.58-.2,3.18-.66,4.76-.86,1.06-.13,3.13-.53,3.61.26.38.6-1.56,1.92-2.19,2.23-2.41,1.17-10.11,5.08-11,5.76-1.89,1.42-3.47,7.82-4.31,9.59s-3.2,6.45-5.63,7.7c-4.44,2.27-13.15,2.24-14.85-3.51a10.6,10.6,0,0,1-.35-3,7.43,7.43,0,0,1,.26-2.3,7.93,7.93,0,0,1,1.37-2.3C282.84,268.79,284.33,264.28,286,260.25Z" transform="translate(-29.14 -17.22)"/><path class="cls-21" d="M312.52,257.94l-.53.19c-.34.09-.81.29-1.39.43s-1.24.37-2,.55-1.49.35-2.27.52-1.55.31-2.29.43-1.43.18-2,.27-1.11.08-1.46.12l-.56,0,.5-.26c.33-.13.78-.37,1.35-.56s1.23-.46,1.95-.66,1.5-.4,2.28-.58,1.57-.29,2.32-.38,1.45-.11,2.05-.16,1.12,0,1.47,0Z" transform="translate(-29.14 -17.22)"/><path class="cls-21" d="M312.85,252.23l-.68.16c-.43.07-1,.27-1.77.41s-1.56.39-2.46.61l-2.82.71-2.83.7-2.5.56c-.72.19-1.35.27-1.78.37l-.69.12.61-.35c.39-.19.95-.51,1.65-.8s1.5-.66,2.4-1,1.86-.59,2.83-.85,2-.44,2.92-.57,1.83-.18,2.58-.23a14.44,14.44,0,0,1,1.84,0Z" transform="translate(-29.14 -17.22)"/><path class="cls-21" d="M307,249.36l-.53.26c-.35.15-.83.41-1.42.64s-1.28.54-2,.81-1.54.56-2.33.85l-2.34.78c-.75.26-1.46.45-2.06.67s-1.11.34-1.45.49l-.57.19.45-.4a10.14,10.14,0,0,1,1.27-.92c.57-.32,1.22-.72,1.95-1s1.54-.65,2.34-.94,1.63-.52,2.41-.71,1.53-.32,2.16-.44,1.17-.15,1.54-.2Z" transform="translate(-29.14 -17.22)"/><polygon class="cls-21" points="192.9 249.54 176.01 251.79 192.19 251.79 192.9 249.54"/><path class="cls-22" d="M68.92,233.9l-5.49,54.34-4.82-.49,5.5-54.34a2.42,2.42,0,0,1,2.65-2.16h0A2.41,2.41,0,0,1,68.92,233.9Z" transform="translate(-29.14 -17.22)"/><path class="cls-23" d="M64.17,231.24H69a0,0,0,0,1,0,0v1.64a1.86,1.86,0,0,1-1.86,1.86H66a1.86,1.86,0,0,1-1.86-1.86v-1.64A0,0,0,0,1,64.17,231.24Z" transform="translate(80.23 454.29) rotate(-174.22)"/><rect class="cls-24" x="63.94" y="234.73" width="4.84" height="1.06" transform="translate(79.55 458.79) rotate(-174.22)"/><rect class="cls-24" x="63.7" y="237.1" width="4.84" height="1.06" transform="translate(78.83 463.48) rotate(-174.22)"/><g class="cls-25"><path class="cls-26" d="M66.76,231.25h0l-6.4,63.25-1.75-6.75,5.5-54.34A2.42,2.42,0,0,1,66.76,231.25Z" transform="translate(-29.14 -17.22)"/></g><rect class="cls-23" x="54.32" y="232.17" width="5.65" height="51.66" transform="translate(85.14 498.78) rotate(-180)"/><rect class="cls-22" x="55.58" y="228.49" width="3.13" height="3.67" transform="translate(85.14 443.44) rotate(-180)"/><polygon class="cls-27" points="26.9 272.32 29.1 272.32 30.82 266.64 25.18 266.64 26.9 272.32"/><polygon class="cls-28" points="27.39 274.37 28 276.44 28.61 274.37 28.61 272.32 27.39 272.32 27.39 274.37"/><path class="cls-22" d="M51.3,248.42h1.26v-12a1.76,1.76,0,0,1,1.76-1.76v-1.26a3,3,0,0,0-3,3Z" transform="translate(-29.14 -17.22)"/><g class="cls-25"><polygon class="cls-23" points="27.39 274.37 27.39 272.32 26.9 272.32 25.18 266.64 28 266.64 28 276.44 27.39 274.37"/><polygon class="cls-23" points="29.1 272.32 28.61 272.32 28.61 274.37 28 276.44 28 266.64 30.82 266.64 29.1 272.32"/><path class="cls-26" d="M54.32,233.37v-1.2h1.26v-3.68h1.56v55.34H54.32v-49.2a1.77,1.77,0,0,0-1.76,1.76v12H51.3v-12A3,3,0,0,1,54.32,233.37Z" transform="translate(-29.14 -17.22)"/></g><rect class="cls-24" x="43.12" y="234.02" width="5.65" height="51.66" transform="translate(87.94 496.74) rotate(174.39)"/><rect class="cls-16" x="41.67" y="230.47" width="3.13" height="3.67" transform="translate(79.84 442.07) rotate(174.39)"/><polygon class="cls-27" points="18.79 274.13 20.98 273.91 22.14 268.09 16.52 268.64 18.79 274.13"/><polygon class="cls-28" points="19.48 276.12 20.29 278.12 20.69 276 20.49 273.96 19.28 274.08 19.48 276.12"/><path class="cls-16" d="M39.19,250.88l1.26-.12-1.18-12a1.77,1.77,0,0,1,1.58-1.92l-.12-1.26A3,3,0,0,0,38,238.92Z" transform="translate(-29.14 -17.22)"/><g class="cls-25"><polygon class="cls-24" points="19.48 276.12 19.28 274.08 18.79 274.13 16.52 268.64 19.33 268.37 20.29 278.12 19.48 276.12"/><polygon class="cls-24" points="20.98 273.91 20.49 273.96 20.69 276 20.29 278.12 19.33 268.37 22.14 268.09 20.98 273.91"/><path class="cls-26" d="M40.73,235.61l-.12-1.19,1.25-.13-.36-3.65,1.56-.16,5.41,55.07-2.81.28-4.81-49a1.77,1.77,0,0,0-1.58,1.92l1.18,12-1.26.12-1.17-12A3,3,0,0,1,40.73,235.61Z" transform="translate(-29.14 -17.22)"/></g><path class="cls-29" d="M36.14,249.49V296H69V283.75h0v-2.36h0v-2h0v-3.51h0v-2h0v-3.52h0v-1.95h0V265h0v-2h0V259.5h0v-2h0v-2h0v-6Zm27.7,31.9h3.5v2.36h-3.5Zm0-5.47h3.5v3.51h-3.5Zm0-5.48h3.5V274h-3.5Zm0-5.47h3.5v3.52h-3.5Zm0-5.47h3.5V263h-3.5Zm0-4h3.5v2h-3.5Zm-5.2,25.88h3.5v2.36h-3.5Zm0-5.47h3.5v3.51h-3.5Zm0-5.48h3.5V274h-3.5Zm0-5.47h3.5v3.52h-3.5Zm0-5.47h3.5V263h-3.5Zm0-4h3.5v2h-3.5Zm-5.21,25.88h3.51v2.36H53.43Zm0-5.47h3.51v3.51H53.43Zm0-5.48h3.51V274H53.43Zm0-5.47h3.51v3.52H53.43Zm0-5.47h3.51V263H53.43Zm0-4h3.51v2H53.43Zm-5.2,25.88h3.51v2.36H48.23Zm0-5.47h3.51v3.51H48.23Zm0-5.48h3.51V274H48.23Zm0-5.47h3.51v3.52H48.23Zm0-5.47h3.51V263H48.23Zm0-4h3.51v2H48.23ZM43,281.39h3.51v2.36H43Zm0-5.47h3.51v3.51H43Zm0-5.48h3.51V274H43ZM43,265h3.51v3.52H43Zm0-5.47h3.51V263H43Zm0-4h3.51v2H43Zm-5.2,25.88h3.51v2.36H37.83Zm0-5.47h3.51v3.51H37.83Zm0-5.48h3.51V274H37.83Zm0-5.47h3.51v3.52H37.83Zm0-5.47h3.51V263H37.83Zm0-4h3.51v2H37.83Z" transform="translate(-29.14 -17.22)"/><path class="cls-30" d="M65.36,281.46h63.56a0,0,0,0,1,0,0v14.31a0,0,0,0,1,0,0H65.36a6.42,6.42,0,0,1-6.42-6.42v-1.48A6.42,6.42,0,0,1,65.36,281.46Z" transform="translate(158.72 560.01) rotate(-180)"/><path class="cls-23" d="M44.67,294.22V283H43.12v-1.55h69.7a7.16,7.16,0,0,1,7.16,7.16h0a7.16,7.16,0,0,1-7.16,7.15H43.12v-1.55Z" transform="translate(-29.14 -17.22)"/><path class="cls-31" d="M112.82,294.22a5.61,5.61,0,0,0,0-11.21H44.67v11.21Z" transform="translate(-29.14 -17.22)"/><rect class="cls-32" x="15.53" y="268.32" width="71.15" height="0.71"/><rect class="cls-32" x="15.53" y="270.14" width="72.09" height="0.71"/><rect class="cls-32" x="15.53" y="271.95" width="72.09" height="0.71"/><rect class="cls-32" x="15.53" y="273.76" width="71.15" height="0.71"/><path class="cls-33" d="M75.42,267.14H121a0,0,0,0,1,0,0v14.31a0,0,0,0,1,0,0H75.42A6.42,6.42,0,0,1,69,275v-1.48A6.42,6.42,0,0,1,75.42,267.14Z" transform="translate(160.81 531.39) rotate(-180)"/><path class="cls-34" d="M55.09,279.91V268.7H53.54v-1.56h51.32A7.16,7.16,0,0,1,112,274.3h0a7.16,7.16,0,0,1-7.15,7.16H53.54v-1.55Z" transform="translate(-29.14 -17.22)"/><path class="cls-31" d="M104.86,279.91a5.61,5.61,0,0,0,0-11.21H55.09v11.21Z" transform="translate(-29.14 -17.22)"/><rect class="cls-32" x="25.95" y="254.01" width="52.76" height="0.71"/><rect class="cls-32" x="25.95" y="255.82" width="53.71" height="0.71"/><rect class="cls-32" x="25.95" y="257.64" width="53.71" height="0.71"/><rect class="cls-32" x="25.95" y="259.45" width="52.76" height="0.71"/><rect class="cls-16" x="219.21" y="290.51" width="71.63" height="5.26" rx="2.36" transform="translate(480.9 569.06) rotate(-180)"/><path class="cls-16" d="M108.87,221.17H196a6.69,6.69,0,0,1,6.38,4.7l21.74,69.9H129.56l-22.46-72.2A1.85,1.85,0,0,1,108.87,221.17Z" transform="translate(-29.14 -17.22)"/><path class="cls-18" d="M105.41,221.17h87.08a6.69,6.69,0,0,1,6.38,4.7l21.74,69.9H126.1l-22.45-72.2A1.85,1.85,0,0,1,105.41,221.17Z" transform="translate(-29.14 -17.22)"/><polygon class="cls-16" points="136.47 217.85 162.53 217.85 161.59 214.66 135.53 214.66 136.47 217.85"/><path class="cls-20" d="M272.52,69.05c6.73-7,16.45-10.48,26.08-12a81.5,81.5,0,0,1,26.31.28c3,.52,6.06,1.28,8.26,3.33a14,14,0,0,1,3.29,5.37,31.24,31.24,0,0,1,1.78,7.46v0a121.34,121.34,0,0,1,.35,12.72,92.25,92.25,0,0,1-1.81,21.3,70.35,70.35,0,0,1-5.59,16.14,25.8,25.8,0,0,1-4.11,6.35c-1.74,1.8-4.34,2.47-6.8,2.64a46.2,46.2,0,0,1-7.24-.34c-8.63-.75-17.27.26-26-.45-3.5-.29-7.3-.85-9.73-3.39-1.78-1.86-2.5-4.47-3.18-7A59.35,59.35,0,0,0,270,110c-.78-1.5-1.67-2.93-2.39-4.45a43.66,43.66,0,0,1-2.71-8.93c-.59-2.61-1.53-5.23-1.25-7.92a35.86,35.86,0,0,1,1.54-7.25A32.51,32.51,0,0,1,272.52,69.05Z" transform="translate(-29.14 -17.22)"/><path class="cls-20" d="M318.76,145.44c-1.66-.87-2.67-1.63-2.83-2.27-1-4.23-.54-10.81.32-16.65-3.13,4.58-34.33-1-42.08-7.83,1.32,6.48,3.26,18.13,1.69,24.48-.29,1.17-3.41,2.7-8.17,4.62,5.42,4.16,17.92,12.82,28.2,12.82s22.79-8.66,28.21-12.82C321.94,146.93,320.13,146.14,318.76,145.44Z" transform="translate(-29.14 -17.22)"/><path class="cls-35" d="M273,112.05q-1.22-4.74-2-9.59c-.38-2.45-.52-4.93-.86-7.38-.27-1.92-.74-3.31-.27-5.32A5.8,5.8,0,0,1,272,86.27c2.1-1.44,5.15-.36,6.78,1.6,2.21,2.68,2.66,6.18,3.5,9.45.13.5.31,1.07.79,1.26a1.15,1.15,0,0,0,1.29-.47,3.35,3.35,0,0,0,.48-1.38Q286,90.82,287.47,85a7.37,7.37,0,0,1,1-2.62c.95-1.31,2.62-1.88,3.84-3,1.6-1.42,2.26-3.6,2.86-5.66l1.63-5.68a5.36,5.36,0,0,1,1.53-2.87c1.08-.85,2.61-.74,4-.6a204.35,204.35,0,0,0,21.28,1.08c3.42,0,6.95-.4,10.36-.17,1.85.13,1.91,1,2.43,2.68a41.54,41.54,0,0,1,1.17,4.9c.26,1.45.44,2.9.62,4.36.15,1.3.32,2.6.49,3.9A23.49,23.49,0,0,1,340.34,77c2.66-5.29,3-12,2.34-17.82a35.22,35.22,0,0,0-11.12-22c-2.84-2.55-6.33-4.63-10.14-4.82s-7.9,2-9,5.65a11.89,11.89,0,0,0-19.1,2,48.41,48.41,0,0,0-19.27,1.32,16.31,16.31,0,0,0-7.46,3.81c-2,2-3,5.19-1.83,7.75-5.24,0-9.58,9.3-10.59,13.53-2.24,9.33,1.85,17.42,5.45,25.72,4,9.29,8.07,18.56,12.33,27.74.65,1.41,1.35,2.81,2.05,4.19a1.6,1.6,0,0,0,.49.65.56.56,0,0,0,.74-.06,27.17,27.17,0,0,0-1-7.61C273.74,115.42,273.44,113.72,273,112.05Z" transform="translate(-29.14 -17.22)"/><path class="cls-21" d="M270.09,94.46c.6,5.14,3.88,15.46,11.94,13.67,0,0,1.5,8.45-2.53,8.73s-6.23-8.36-7.5-12.67A68,68,0,0,1,270.09,94.46Z" transform="translate(-29.14 -17.22)"/><path class="cls-21" d="M277.24,91.72a4.42,4.42,0,0,0-1.37-1.32,3.5,3.5,0,0,0-2.22-.19,1.9,1.9,0,0,0-1.35.75,2,2,0,0,0-.19,1.11,16.82,16.82,0,0,0,3.11,9.1,3.66,3.66,0,0,0,.91,1,2.87,2.87,0,0,0,1.2.45,2.92,2.92,0,0,0,2.32-.51,1.71,1.71,0,0,0,.4-2.19c-.39-.57-1.16-.76-1.65-1.25a1.85,1.85,0,0,1-.48-1.76,9.29,9.29,0,0,1,.8-1.53C279.38,94,278,92.72,277.24,91.72Z" transform="translate(-29.14 -17.22)"/><path class="cls-21" d="M315.53,132.77c-7.42-.44-19.8-1.36-21.49-1.74s9,9.1,21.49,9.31Z" transform="translate(-29.14 -17.22)"/><path class="cls-36" d="M293.32,40C281.91,45.85,273.79,58,278.79,84.25l-6.68.5S267.91,66.11,271,56s7.54-14.58,9.83-16,6.67-1.34,8.55-1.16A14.28,14.28,0,0,1,293.32,40Z" transform="translate(-29.14 -17.22)"/><path class="cls-36" d="M263.82,97.37c1.12,7.93,6.09,13.79,11.08,13.08a6,6,0,0,0,2.23-.79c3.66-2.15,5.74-8.18,4.8-14.85s-4.62-11.89-8.74-12.94a6,6,0,0,0-2.35-.14C265.84,82.44,262.7,89.44,263.82,97.37Z" transform="translate(-29.14 -17.22)"/><path class="cls-36" d="M277.13,109.66a6,6,0,0,1-2.23.79l4.59-.65c5-.71,8.15-7.71,7-15.64s-6.08-13.79-11.09-13.08l-4.58.65a6,6,0,0,1,2.35.14c4.12,1,7.79,6.26,8.74,12.94S280.79,107.51,277.13,109.66Z" transform="translate(-29.14 -17.22)"/><path class="cls-37" d="M269.77,87.46a4.64,4.64,0,0,1,.64,0c2.87.1,5.57,3.56,6.22,8.13s-1,8.63-3.73,9.53a4.15,4.15,0,0,1-.61.14c-3.1.44-6.17-3.19-6.86-8.09S266.68,87.9,269.77,87.46Z" transform="translate(-29.14 -17.22)"/><path class="cls-38" d="M276.63,95.56c-.65-4.57-3.35-8-6.22-8.13a4.64,4.64,0,0,0-.64,0l1.27-.18c3.09-.43,6.16,3.19,6.86,8.1s-1.26,9.23-4.35,9.67l-1.26.18a4.15,4.15,0,0,0,.61-.14C275.64,104.19,277.28,100.12,276.63,95.56Z" transform="translate(-29.14 -17.22)"/><path class="cls-18" d="M188.08,97.66V84.77h0l12.5,1.67h0V96.59a4.16,4.16,0,0,1,1.63-.16c1.84.18,3.21,1.48,3.08,2.92s-1.74,2.45-3.58,2.27-3.21-1.48-3.08-2.92a.16.16,0,0,0,0-.07V89.82L190,88.57v7.05a4.21,4.21,0,0,1,1.64-.17c1.83.18,3.21,1.49,3.07,2.92s-1.74,2.46-3.58,2.28-3.21-1.49-3.07-2.92Z" transform="translate(-29.14 -17.22)"/><path class="cls-18" d="M394.7,172.74V156.05h0l16.19,2.16h0v13.15a5.23,5.23,0,0,1,2.11-.22c2.38.23,4.16,1.93,4,3.78s-2.26,3.18-4.63,2.95-4.16-1.92-4-3.78a.77.77,0,0,0,0-.1V162.6L397.22,161v9.14a5.23,5.23,0,0,1,2.11-.22c2.38.23,4.16,1.92,4,3.78s-2.25,3.18-4.63,3-4.16-1.93-4-3.78Z" transform="translate(-29.14 -17.22)"/><path class="cls-39" d="M205.21,161.07a5.53,5.53,0,0,0-3.91-9.43,5.46,5.46,0,0,0-3.91,1.62l-.7.7-.71-.7a5.52,5.52,0,0,0-7.81,0,5.52,5.52,0,0,0,0,7.81l8.52,8.52Z" transform="translate(-29.14 -17.22)"/><circle class="cls-40" cx="231.06" cy="72.17" r="16.01" transform="translate(-39.54 37.8) rotate(-13.28)"/><path class="cls-31" d="M223.74,70.4l9.45-5.46a2,2,0,0,1,3.06,1.77V77.62a2,2,0,0,1-3.06,1.77l-9.45-5.46A2,2,0,0,1,223.74,70.4Z" transform="translate(-29.14 -17.22)"/><path class="cls-3" d="M178,22.64h1.31v13a6,6,0,0,1,4.66-.21c2.69.85,4.42,2.95,3.87,4.68s-3.17,2.45-5.86,1.6c-2.35-.75-4-2.44-4-4h0V24.31c0,2.19-7.11,3.68-7,8.3V30.94C170.85,26.32,178,24.83,178,22.64Z" transform="translate(-29.14 -17.22)"/><path class="cls-31" d="M413.39,261.13l-2.83-29-13.73-4.59a1.12,1.12,0,0,1,.71-2.12L412,230.23a1.11,1.11,0,0,1,.76,1l2.9,29.73a1.12,1.12,0,0,1-2.22.22Z" transform="translate(-29.14 -17.22)"/><polygon class="cls-41" points="402.31 230.78 402.12 233.12 398.42 278.56 368.71 278.56 365.02 233.12 364.83 230.78 402.31 230.78"/><polygon class="cls-6" points="364.83 230.78 402.31 230.78 402.12 233.12 365.02 233.12 364.83 230.78"/><rect class="cls-31" x="392.14" y="244.44" width="41.13" height="3.55" rx="1.3" transform="translate(796.27 475.22) rotate(-180)"/><path class="cls-31" d="M400.26,242.21h24.9a1.12,1.12,0,0,1,1,.55l1,1.68H398.3l1-1.68A1.11,1.11,0,0,1,400.26,242.21Z" transform="translate(-29.14 -17.22)"/><path class="cls-42" d="M405.14,268.13a.72.72,0,0,0,.72.72h.39v4.29a5.24,5.24,0,0,0,.52,2.26,5.8,5.8,0,0,0,1.41,1.82,6.85,6.85,0,0,0,3.81,1.61v4h-3.1a.72.72,0,0,0,0,1.44h7.64a.72.72,0,0,0,0-1.44h-3.1v-4a7,7,0,0,0,2.85-.91,5.94,5.94,0,0,0,2.36-2.51,5.11,5.11,0,0,0,.53-2.26v-4.29h.39a.72.72,0,1,0,0-1.44h-2.31v-3.36a4.54,4.54,0,0,0-1.33-3.22,4.56,4.56,0,0,0-6.42,0,4.54,4.54,0,0,0-1.33,3.22v3.36h-2.31A.72.72,0,0,0,405.14,268.13Zm10.67-.72h-6.2v-3.36a3.1,3.1,0,0,1,5.29-2.2,3.12,3.12,0,0,1,.91,2.2Zm0,4.45a3.12,3.12,0,0,1-.91,2.2,3.1,3.1,0,0,1-5.29-2.2v-3h6.2Zm-8.12-3h.48v3a4.54,4.54,0,0,0,1.33,3.22,4.56,4.56,0,0,0,6.42,0,4.54,4.54,0,0,0,1.33-3.22v-3h.48v4.29a3.75,3.75,0,0,1-.38,1.63,4.32,4.32,0,0,1-1.06,1.36,5.43,5.43,0,0,1-3.58,1.29,5.68,5.68,0,0,1-2.85-.75,4.59,4.59,0,0,1-1.79-1.9,3.62,3.62,0,0,1-.38-1.63Zm6,2.73a.95.95,0,1,0-1,.95A.95.95,0,0,0,413.66,271.58Z" transform="translate(-29.14 -17.22)"/><path class="cls-43" d="M102.66,241.62c-1.6,4.59-5.08,7.54-7.79,6.6s-3.61-5.42-2-10,5.07-7.55,7.78-6.61S104.25,237,102.66,241.62Z" transform="translate(-29.14 -17.22)"/><path class="cls-43" d="M85.1,239.64c1.45,4.63.84,9-1.37,9.64s-5.18-2.5-6.63-7.14-.84-8.95,1.37-9.64S83.65,235,85.1,239.64Z" transform="translate(-29.14 -17.22)"/><path class="cls-44" d="M88.35,236.88c.39,4.84-.74,8.88-2.53,9s-3.57-3.66-4-8.5.74-8.88,2.53-9S88,232,88.35,236.88Z" transform="translate(-29.14 -17.22)"/><circle class="cls-45" cx="89.97" cy="243.04" r="10.3" transform="translate(-196.38 257.55) rotate(-76.72)"/><circle class="cls-46" cx="62.1" cy="222.7" r="1.02"/><circle class="cls-46" cx="64.49" cy="219.23" r="1.02"/><circle class="cls-46" cx="54.94" cy="220.95" r="1.02"/><circle class="cls-46" cx="48.12" cy="218.21" r="1.02"/><circle class="cls-46" cx="68.61" cy="222.43" r="1.02"/><circle class="cls-46" cx="73.14" cy="222.99" r="1.02"/><path class="cls-46" d="M102.28,233.23a1,1,0,1,0,0,2,1,1,0,1,0,0-2Z" transform="translate(-29.14 -17.22)"/><circle class="cls-46" cx="49.72" cy="222.27" r="1.02"/><circle class="cls-46" cx="51.28" cy="223.06" r="1.02"/><circle class="cls-43" cx="54.36" cy="222.67" r="1.02"/><circle class="cls-46" cx="67.43" cy="223.72" r="1.02"/><circle class="cls-46" cx="59.36" cy="217.81" r="1.02"/><circle class="cls-43" cx="56.98" cy="220.19" r="1.02"/><circle class="cls-46" cx="57.32" cy="223.72" r="1.02"/><path class="cls-18" d="M104.14,243.27v19.62a4.25,4.25,0,0,1-4.25,4.25H80.06a4.25,4.25,0,0,1-4.26-4.25V243.27Z" transform="translate(-29.14 -17.22)"/><path class="cls-18" d="M223.76,130a7.31,7.31,0,1,0,7.3-7.3A7.31,7.31,0,0,0,223.76,130Zm2.63,0a4.68,4.68,0,1,1,1.37,3.3A4.64,4.64,0,0,1,226.39,130Zm12.78-4.67h3.69a1.32,1.32,0,0,0,0-2.63h-3.69a1.32,1.32,0,1,0,0,2.63Zm-18,10.66a1.32,1.32,0,0,0,1.32,1.32H223a1.32,1.32,0,0,0,0-2.64h-.48A1.32,1.32,0,0,0,221.15,136Zm-7.38-13.78v15.58A3.23,3.23,0,0,0,217,141h28.11a3.23,3.23,0,0,0,3.23-3.23V122.21a3.23,3.23,0,0,0-3.23-3.23h-7.68l-.27-1.27a1.32,1.32,0,0,0-1.29-1h-9.73a1.33,1.33,0,0,0-1.29,1l-.27,1.27H217A3.24,3.24,0,0,0,213.77,122.21Zm2.64,0a.6.6,0,0,1,.6-.6h8.64a1.32,1.32,0,0,0,1.29-1l.27-1.27h7.61l.27,1.27a1.32,1.32,0,0,0,1.29,1h8.74a.6.6,0,0,1,.6.6v15.58a.6.6,0,0,1-.6.6H217a.6.6,0,0,1-.6-.6Z" transform="translate(-29.14 -17.22)"/><path class="cls-3" d="M30.53,196.4A15.42,15.42,0,1,0,45.94,181,15.41,15.41,0,0,0,30.53,196.4Zm2.76,0A12.67,12.67,0,1,1,37,205.34,12.61,12.61,0,0,1,33.29,196.4Zm10.65-9.75v10.22a1.36,1.36,0,0,0,.37.94L49,202.74a1.38,1.38,0,1,0,2-1.9l-4.28-4.52v-9.67h0a1.38,1.38,0,0,0-2.76,0Z" transform="translate(-29.14 -17.22)"/><path class="cls-18" d="M127.55,159.61A1.49,1.49,0,0,0,129,161.1h13.19a1.5,1.5,0,1,0,0-3H129A1.5,1.5,0,0,0,127.55,159.61Zm6,5.19a1.5,1.5,0,0,0,1.49,1.5h7.18a1.5,1.5,0,1,0,0-3h-7.18A1.49,1.49,0,0,0,133.56,164.8Zm-12-21.12v31.79a1.5,1.5,0,0,0,.44,1.06,1.52,1.52,0,0,0,1.06.44h25.16a1.52,1.52,0,0,0,1.06-.44,1.53,1.53,0,0,0,.43-1.06V143.68a1.49,1.49,0,0,0-1.49-1.49H123.06a1.52,1.52,0,0,0-1.06.44A1.49,1.49,0,0,0,121.56,143.68Zm3,30.3v-28.8h22.17V174Zm3-19.57A1.49,1.49,0,0,0,129,155.9h13.19a1.5,1.5,0,1,0,0-3H129A1.5,1.5,0,0,0,127.55,154.41Zm0-5.2a1.5,1.5,0,0,0,1.49,1.5h13.19a1.5,1.5,0,1,0,0-3H129A1.49,1.49,0,0,0,127.55,149.21Z" transform="translate(-29.14 -17.22)"/><path class="cls-18" d="M96.4,114.69a8.43,8.43,0,0,0-1.05,10.6L90,130.65a.57.57,0,0,0,0,.82l1.5,1.51a.57.57,0,0,0,.82,0l5.37-5.37a8.4,8.4,0,1,0-1.28-12.92ZM98.73,117a5.11,5.11,0,1,1,0,7.22A5.11,5.11,0,0,1,98.73,117Z" transform="translate(-29.14 -17.22)"/><path class="cls-47" d="M100.61,193.39V212a1.45,1.45,0,0,0,1.44,1.45h29.43a1.47,1.47,0,0,0,1.45-1.45V193.39s0,0,0,0,0-.1,0-.15l0-.13a.83.83,0,0,0,0-.15,1.17,1.17,0,0,0-.05-.11.91.91,0,0,0-.07-.14l-.07-.12s0,0,0,0l-.05-.06-.06-.06a.1.1,0,0,0-.05,0l-.11-.1-.11-.07-.14-.07L132,192l-.15,0-.12,0-.15,0H102l-.15,0-.12,0-.16,0-.11.05-.14.07-.1.07-.12.1,0,0,0,.06-.06.06,0,0-.08.12c0,.05,0,.09-.07.14a.36.36,0,0,0,0,.11.75.75,0,0,0,0,.16.43.43,0,0,0,0,.12.77.77,0,0,0,0,.15Zm26.73,1.45-10.57,8.42-10.58-8.42ZM103.5,196.4l12.37,9.85a1.44,1.44,0,0,0,1.8,0L130,196.4v14.1H103.5Z" transform="translate(-29.14 -17.22)"/><polyline class="cls-3" points="54.99 132 18.2 132 18.2 128.66 54.99 128.66"/><polyline class="cls-3" points="54.99 139.32 18.2 139.32 18.2 135.97 54.99 135.97"/><polygon class="cls-3" points="71.57 133.86 67.16 138.67 59.87 129.99 62.43 127.83 67.27 133.6 69.1 131.6 71.57 133.86 71.57 133.86"/><polyline class="cls-3" points="54.99 146.63 18.2 146.63 18.2 143.29 54.99 143.29"/><polyline class="cls-3" points="54.99 153.95 33.09 153.95 33.09 150.6 54.99 150.6"/><path class="cls-3" d="M227.25,21h24a3,3,0,0,1,3,3V36a3,3,0,0,1-3,3H236.06l-4.78,4.8v-4.8h-4a3,3,0,0,1-3-3V24a3,3,0,0,1,3-3m0-3.73A6.75,6.75,0,0,0,220.51,24V36a6.75,6.75,0,0,0,6.74,6.73h.3v1.06a3.73,3.73,0,0,0,6.38,2.64l3.69-3.7h13.62A6.74,6.74,0,0,0,258,36V24a6.74,6.74,0,0,0-6.73-6.73Z" transform="translate(-29.14 -17.22)"/><path class="cls-37" d="M281.32,51.46c0-1-6.57-3.1-7.84-2.07l-.41.9a2.25,2.25,0,0,1-.57-1.91c.22-1.12,4.78-9.85,12.85-10.47s8.55.05,8.84.84.29,1.72-2.9,3.41-7.07,6.58-7.91,8.07-1.73,2.37-2.5,2.07Z" transform="translate(-29.14 -17.22)"/><circle class="cls-47" cx="146.48" cy="193.84" r="2.55"/><circle class="cls-3" cx="67.43" cy="66.21" r="2.55"/><circle class="cls-47" cx="136.93" cy="143.3" r="4.62"/><path class="cls-3" d="M145.1,42.06a4.62,4.62,0,1,0,4.61-4.62A4.61,4.61,0,0,0,145.1,42.06Z" transform="translate(-29.14 -17.22)"/><path class="cls-3" d="M433.22,196.4a4.62,4.62,0,1,0,4.62-4.62A4.61,4.61,0,0,0,433.22,196.4Z" transform="translate(-29.14 -17.22)"/><circle class="cls-47" cx="348.25" cy="139.32" r="2.55"/><rect class="cls-48" x="29.14" y="295.77" width="469.58" height="13.31" transform="translate(498.72 587.64) rotate(-180)"/><path class="cls-47" d="M140.87,97a1.54,1.54,0,0,0,1.53,1.53h.84v9.11a11,11,0,0,0,1.11,4.81,12.21,12.21,0,0,0,3,3.87,14.49,14.49,0,0,0,8.1,3.41v8.5h-6.59a1.53,1.53,0,0,0,0,3.06h16.24a1.53,1.53,0,0,0,0-3.06H158.5v-8.5a14.82,14.82,0,0,0,6.07-2,12.68,12.68,0,0,0,5-5.33,10.9,10.9,0,0,0,1.12-4.81V98.48h.83a1.53,1.53,0,1,0,0-3.06h-4.92V88.25a9.65,9.65,0,0,0-19.3,0v7.17H142.4A1.53,1.53,0,0,0,140.87,97Zm22.69-1.53H150.38V88.25a6.59,6.59,0,1,1,13.18,0Zm0,9.46a6.59,6.59,0,1,1-13.18,0v-6.4h13.18Zm-17.26-6.4h1v6.4a9.65,9.65,0,1,0,19.3,0v-6.4h1v9.11a7.89,7.89,0,0,1-.8,3.47,9.28,9.28,0,0,1-2.24,2.9A11.64,11.64,0,0,1,157,116.7a11.89,11.89,0,0,1-6.05-1.61,9.59,9.59,0,0,1-3.82-4,7.89,7.89,0,0,1-.8-3.47ZM159,104.27a2,2,0,1,0-2,2A2,2,0,0,0,159,104.27Z" transform="translate(-29.14 -17.22)"/><path class="cls-49" d="M247.05,209a.89.89,0,0,0,.89.89h.48v5.28a6.43,6.43,0,0,0,.65,2.79,7.1,7.1,0,0,0,1.73,2.24,8.4,8.4,0,0,0,4.7,2v4.93h-3.82a.89.89,0,1,0,0,1.77h9.42a.89.89,0,0,0,0-1.77h-3.83v-4.93a8.59,8.59,0,0,0,3.52-1.13,7.33,7.33,0,0,0,2.91-3.09,6.29,6.29,0,0,0,.65-2.79v-5.28h.48a.89.89,0,1,0,0-1.78H262v-4.15a5.6,5.6,0,1,0-11.19,0v4.15h-2.85A.89.89,0,0,0,247.05,209Zm13.16-.89h-7.65v-4.15a3.83,3.83,0,0,1,7.65,0Zm0,5.49a3.83,3.83,0,0,1-7.65,0v-3.71h7.65Zm-10-3.71h.59v3.71a5.6,5.6,0,1,0,11.19,0v-3.71h.59v5.28a4.59,4.59,0,0,1-.46,2,5.25,5.25,0,0,1-1.3,1.68,6.75,6.75,0,0,1-4.42,1.59,7,7,0,0,1-3.51-.93,5.51,5.51,0,0,1-2.21-2.34,4.47,4.47,0,0,1-.47-2Zm7.36,3.36a1.18,1.18,0,1,0-1.17,1.17A1.18,1.18,0,0,0,257.56,213.23Z" transform="translate(-29.14 -17.22)"/></g></g></svg>