<svg id="OBJECTS" xmlns="http://www.w3.org/2000/svg" viewBox="0 0 369.15 230.02"><defs><style>.cls-1{fill:#fff;}.cls-2{fill:#84d9bc;}</style></defs><path class="cls-1" d="M191.05,194.18v46a3,3,0,0,1-3.32,3,26.18,26.18,0,0,1,0-51.93A3,3,0,0,1,191.05,194.18Z" transform="translate(-63.07 -122.09)"/><path class="cls-1" d="M199,245.82h0a4.12,4.12,0,0,1-4.11-4.12v-49a4.11,4.11,0,0,1,4.11-4.12h0a4.11,4.11,0,0,1,4.12,4.12v49A4.12,4.12,0,0,1,199,245.82Z" transform="translate(-63.07 -122.09)"/><path class="cls-1" d="M317.47,189.56c0,1.72-.07,3.43-.19,5.12h-6.46c.15-1.69.22-3.4.22-5.12a61.48,61.48,0,0,0-2-15.45h-5.73a55.54,55.54,0,0,0-106.68,0h-5.73a61.48,61.48,0,0,0-2,15.45c0,1.72.07,3.43.22,5.12h-6.46c-.12-1.69-.19-3.4-.19-5.12a67.47,67.47,0,0,1,134.94,0Z" transform="translate(-63.07 -122.09)"/><path class="cls-1" d="M309,194.18v46a3,3,0,0,0,3.32,3,26.18,26.18,0,0,0,0-51.93A3,3,0,0,0,309,194.18Z" transform="translate(-63.07 -122.09)"/><path class="cls-1" d="M301,245.82h0a4.12,4.12,0,0,0,4.11-4.12v-49a4.11,4.11,0,0,0-4.11-4.12h0a4.11,4.11,0,0,0-4.12,4.12v49A4.12,4.12,0,0,0,301,245.82Z" transform="translate(-63.07 -122.09)"/><path class="cls-2" d="M258.89,186.7H241.11a1.89,1.89,0,1,1,0-3.78h17.78a1.89,1.89,0,1,1,0,3.78Z" transform="translate(-63.07 -122.09)"/><path class="cls-2" d="M254.82,178.88h-9.64a1.9,1.9,0,0,1,0-3.79h9.64a1.9,1.9,0,0,1,0,3.79Z" transform="translate(-63.07 -122.09)"/><path class="cls-2" d="M263.73,194.53H236.27a1.9,1.9,0,0,1,0-3.79h27.46a1.9,1.9,0,0,1,0,3.79Z" transform="translate(-63.07 -122.09)"/><path class="cls-2" d="M263.73,202.58H236.27a1.89,1.89,0,0,1,0-3.78h27.46a1.89,1.89,0,0,1,0,3.78Z" transform="translate(-63.07 -122.09)"/><path class="cls-1" d="M217.84,214h-4.38a2.36,2.36,0,0,1-2.36-2.36h0a2.36,2.36,0,0,1,2.36-2.36h4.38a2.36,2.36,0,0,1,2.37,2.36h0A2.36,2.36,0,0,1,217.84,214Z" transform="translate(-63.07 -122.09)"/><path class="cls-1" d="M286.2,214h-4.38a2.36,2.36,0,0,1-2.37-2.36h0a2.36,2.36,0,0,1,2.37-2.36h4.38a2.36,2.36,0,0,1,2.36,2.36h0A2.36,2.36,0,0,1,286.2,214Z" transform="translate(-63.07 -122.09)"/><path class="cls-1" d="M250,169a21.59,21.59,0,0,1,21.57,21.57v37.56a21.57,21.57,0,0,1-43.14,0V190.59A21.59,21.59,0,0,1,250,169m0-3.78h0a25.35,25.35,0,0,0-25.35,25.35v37.56A25.35,25.35,0,0,0,250,253.5h0a25.35,25.35,0,0,0,25.35-25.35V190.59A25.35,25.35,0,0,0,250,165.24Z" transform="translate(-63.07 -122.09)"/><path class="cls-1" d="M250,165.23a25.36,25.36,0,0,0-25.35,25.36v37.56a25.35,25.35,0,0,0,50.7,0V190.59A25.36,25.36,0,0,0,250,165.23Zm21.57,62.92a21.57,21.57,0,0,1-43.14,0V190.59a21.57,21.57,0,1,1,43.14,0Z" transform="translate(-63.07 -122.09)"/><path class="cls-1" d="M281.46,209.37v18.21a31.46,31.46,0,0,1-62.92,0V209.37h-5.3v18.21a36.76,36.76,0,0,0,73.52,0V209.37Z" transform="translate(-63.07 -122.09)"/><path class="cls-1" d="M275.35,209.32v18.83a25.35,25.35,0,0,1-50.7,0V209.32Z" transform="translate(-63.07 -122.09)"/><rect class="cls-1" x="182.11" y="141.92" width="9.63" height="14.23"/><path class="cls-1" d="M235.32,284.52h0a3.56,3.56,0,0,1,3.56-3.57h22.24a3.56,3.56,0,0,1,3.56,3.57h0a3.56,3.56,0,0,1-3.56,3.56H238.88A3.56,3.56,0,0,1,235.32,284.52Z" transform="translate(-63.07 -122.09)"/><path class="cls-2" d="M85.91,320a11.63,11.63,0,0,1,0,21.38,18.8,18.8,0,0,1-7.77,1.48H72.39v8.62H63.07v-33H78.14A18.8,18.8,0,0,1,85.91,320Zm-4,14.27a4.43,4.43,0,0,0,1.45-3.56,4.5,4.5,0,0,0-1.45-3.58,6.5,6.5,0,0,0-4.34-1.27H72.39v9.66h5.18A6.55,6.55,0,0,0,81.91,334.25Z" transform="translate(-63.07 -122.09)"/><path class="cls-2" d="M109.71,349.9a16.85,16.85,0,0,1,0-29.85,21.07,21.07,0,0,1,18.79,0,16.86,16.86,0,0,1,0,29.85,21,21,0,0,1-18.79,0Zm13.91-6.68a8.45,8.45,0,0,0,3.2-3.32,10.85,10.85,0,0,0,0-9.84,8.39,8.39,0,0,0-3.2-3.32,9.25,9.25,0,0,0-9,0,8.46,8.46,0,0,0-3.2,3.32,10.85,10.85,0,0,0,0,9.84,8.52,8.52,0,0,0,3.2,3.32,9.32,9.32,0,0,0,9,0Z" transform="translate(-63.07 -122.09)"/><path class="cls-2" d="M147,318.5h15.59a21.78,21.78,0,0,1,9.6,2,15.24,15.24,0,0,1,6.5,5.75,17.58,17.58,0,0,1,0,17.42,15.22,15.22,0,0,1-6.5,5.74,21.78,21.78,0,0,1-9.6,2H147ZM162.23,344a9.56,9.56,0,0,0,6.81-2.4,9.89,9.89,0,0,0,0-13.28,9.56,9.56,0,0,0-6.81-2.4h-5.88V344Z" transform="translate(-63.07 -122.09)"/><path class="cls-2" d="M197.76,349.93a16.42,16.42,0,0,1-6.48-6.1,17.86,17.86,0,0,1,0-17.71,16.39,16.39,0,0,1,6.48-6.09,19.47,19.47,0,0,1,9.3-2.19,19.88,19.88,0,0,1,8.14,1.6,15.66,15.66,0,0,1,6,4.61l-5.93,5.37a9.79,9.79,0,0,0-7.77-3.86,9.54,9.54,0,0,0-4.78,1.18,8.12,8.12,0,0,0-3.25,3.32,11.1,11.1,0,0,0,0,9.84,8.18,8.18,0,0,0,3.25,3.32,9.64,9.64,0,0,0,4.78,1.17,9.76,9.76,0,0,0,7.77-3.86l5.93,5.37a15.68,15.68,0,0,1-6,4.62,20,20,0,0,1-8.14,1.6A19.47,19.47,0,0,1,197.76,349.93Z" transform="translate(-63.07 -122.09)"/><path class="cls-2" d="M251.6,345.05H237.66l-2.59,6.41h-9.51l14.55-33h9.18l14.6,33h-9.7Zm-2.73-6.87-4.24-10.55-4.24,10.55Z" transform="translate(-63.07 -122.09)"/><path class="cls-2" d="M275.05,351.13a19.11,19.11,0,0,1-6.12-2.64l3.06-6.87a19.86,19.86,0,0,0,5.13,2.35,19.45,19.45,0,0,0,5.75.9c3.58,0,5.36-.9,5.36-2.69a2.21,2.21,0,0,0-1.53-2.09,27.45,27.45,0,0,0-4.92-1.44,46.45,46.45,0,0,1-6.21-1.72,10.45,10.45,0,0,1-4.29-2.94,8,8,0,0,1-1.79-5.46,9.46,9.46,0,0,1,1.65-5.44,11,11,0,0,1,4.92-3.84,20.29,20.29,0,0,1,8-1.41,28,28,0,0,1,6.4.73,19.4,19.4,0,0,1,5.56,2.14l-2.87,6.92a19.27,19.27,0,0,0-9.14-2.54,7.67,7.67,0,0,0-4.05.82,2.5,2.5,0,0,0-1.27,2.15,2.12,2.12,0,0,0,1.51,2,26.9,26.9,0,0,0,4.85,1.37,44,44,0,0,1,6.24,1.72A10.67,10.67,0,0,1,295.6,336a7.77,7.77,0,0,1,1.82,5.43,9.26,9.26,0,0,1-1.65,5.37,11.27,11.27,0,0,1-4.95,3.84,19.9,19.9,0,0,1-8,1.44A30.43,30.43,0,0,1,275.05,351.13Z" transform="translate(-63.07 -122.09)"/><path class="cls-2" d="M313,325.89H302.83V318.5h29.52v7.39H322.28v25.57H313Z" transform="translate(-63.07 -122.09)"/><path class="cls-2" d="M368.28,325.7V333h14.55v7.21H368.28v11.3H359v-33h25.85v7.2Z" transform="translate(-63.07 -122.09)"/><path class="cls-2" d="M423.65,351.46,423.56,334l-8.48,14.22h-4.14l-8.43-13.75v17h-8.62v-33h7.68l11.58,19,11.3-19h7.68l.09,33Z" transform="translate(-63.07 -122.09)"/></svg>