<?xml version="1.0" encoding="utf-8"?>
<!-- Generator: Adobe Illustrator 25.4.1, SVG Export Plug-In . SVG Version: 6.00 Build 0)  -->
<svg version="1.1" id="App_Screen" xmlns="http://www.w3.org/2000/svg" xmlns:xlink="http://www.w3.org/1999/xlink" x="0px" y="0px"
	 viewBox="0 0 272.7 652.4" style="enable-background:new 0 0 272.7 652.4;" xml:space="preserve">
<style type="text/css">
	.st0{fill:#0F0F1E;}
	.st1{fill:#151524;}
	.st2{fill:none;stroke:#FFFFFF;stroke-width:2;stroke-miterlimit:10;}
	.st3{fill:#FFFFFF;}
	.st4{fill:#EA001B;}
	.st5{fill:#F79F1A;}
	.st6{fill:#6034A6;}
	.st7{fill:#6834A6;}
	.st8{fill:#AEAEB3;}
	.st9{fill:#50E800;}
</style>
<path class="st0" d="M40,0h192.7c22.1,0,40,17.9,40,40v510.5c0,22.1-17.9,40-40,40H40c-22.1,0-40-17.9-40-40V40C0,17.9,17.9,0,40,0z
	"/>
<path class="st1" d="M40,326.7h192.7c22.1,0,40,17.9,40,40v183.8c0,22.1-17.9,40-40,40H40c-22.1,0-40-17.9-40-40V366.7
	C0,344.6,17.9,326.7,40,326.7z"/>
<line class="st2" x1="21.8" y1="42.3" x2="40.2" y2="42.3"/>
<line class="st2" x1="21.8" y1="35.3" x2="34" y2="35.3"/>
<line class="st2" x1="21.8" y1="28.2" x2="40.2" y2="28.2"/>
<path class="st1" d="M229,21.8h16.9c2.8,0,5,2.2,5,5v16.9c0,2.8-2.2,5-5,5H229c-2.8,0-5-2.2-5-5V26.8C224,24.1,226.3,21.8,229,21.8z
	"/>
<path class="st3" d="M237.5,27.5c-4.3,0-7.8,3.5-7.8,7.7c0,1.8,0.6,3.6,1.8,5l0,0c0.8,1,1.8,1.7,2.9,2.2l0,0l0.3,0.1h0.1l0.2,0.1
	h0.1l0.2,0.1h0.2h0.2h0.2h0.2h0.2h0.2h0.3h1.1h0.3h0.1h0.2h0.2h0.2h0.2h0.2l0.2-0.1h0.1l0.2-0.1h0.1l0.3-0.1l0,0
	c1.1-0.5,2.2-1.2,2.9-2.2l0,0c2.7-3.3,2.3-8.2-1-10.9c-1.4-1.2-3.2-1.8-5-1.8H237.5z M239,35.6c-0.1,0.1-0.2,0.1-0.3,0.2l0,0
	c-0.8,0.3-1.6,0.3-2.4,0l0,0c-0.1-0.1-0.2-0.1-0.3-0.2c-1.3-0.9-1.7-2.6-0.8-3.9c0.9-1.3,2.6-1.7,3.9-0.8c1.3,0.9,1.7,2.6,0.8,3.9
	C239.7,35.1,239.4,35.4,239,35.6L239,35.6z M235.8,36.1L235.8,36.1l0.3,0.1l0.2,0.1l0,0c0.4,0.1,0.7,0.2,1.1,0.2
	c0.4,0,0.8-0.1,1.1-0.2l0,0l0.2-0.1c0.1,0,0.2-0.1,0.2-0.1h0.1l0.1-0.1c1.9,0.6,3.3,2,3.8,3.9c-0.7,0.8-1.5,1.4-2.4,1.8l0,0
	l-0.3,0.1h-0.1L240,42h-0.1l-0.2,0.1h-0.1l-0.2,0.1h-0.2H239h-0.2h-0.2h-0.2h-0.1H238h-1h-0.3h-0.1h-0.2h-0.2H236h-0.2h-0.2
	l-0.2-0.1h-0.1l-0.2-0.1H235l-0.3-0.1h-0.1l-0.3-0.1l0,0c-0.9-0.4-1.7-1-2.4-1.8c0.5-1.9,1.9-3.3,3.7-3.9L235.8,36.1z M243.4,39.5
	c-0.6-1.7-1.9-3.1-3.6-3.8c0.7-0.6,1.1-1.5,1.1-2.5c-0.1-1.9-1.7-3.3-3.5-3.2c-1.7,0.1-3.1,1.5-3.2,3.2c0,1,0.4,1.9,1.1,2.5
	c-1.7,0.7-3,2.1-3.6,3.8c-0.9-1.2-1.4-2.7-1.4-4.2c0-4,3.2-7.3,7.2-7.3c4,0,7.3,3.2,7.3,7.2C244.7,36.7,244.2,38.2,243.4,39.5z"/>
<image style="overflow:visible;enable-background:new    ;" width="210" height="128" xlink:href="7DB8A5ED5D08DA70.png"  transform="matrix(1 0 0 1 33.81 113.98)">
</image>
<circle class="st4" cx="198.9" cy="201.6" r="11.2"/>
<circle class="st5" cx="215.3" cy="201.6" r="11.2"/>
<path class="st3" d="M199.8,225h-1.5v-2.2c0-0.2,0-0.3-0.1-0.4c-0.1-0.1-0.2-0.1-0.3-0.1c-0.1,0-0.2,0-0.3,0.1
	c-0.1,0.1-0.2,0.1-0.2,0.2c-0.1,0.1-0.1,0.2-0.2,0.3v2.2h-1.4v-3.9h1.3v0.6c0.1-0.1,0.2-0.3,0.4-0.4c0.2-0.1,0.3-0.2,0.5-0.2
	c0.2-0.1,0.4-0.1,0.6-0.1c0.2,0,0.4,0,0.6,0.1c0.2,0.1,0.3,0.2,0.4,0.4c0.1,0.1,0.1,0.3,0.2,0.5c0,0.1,0,0.3,0,0.4L199.8,225z"/>
<path class="st3" d="M200.7,223.6V221h1.4v2.2c0,0.1,0,0.3,0.1,0.4c0.1,0.1,0.2,0.2,0.3,0.1c0.1,0,0.1,0,0.2,0
	c0.1,0,0.2-0.1,0.2-0.1c0.1-0.1,0.2-0.1,0.2-0.2v-2.4h1.4v2.3c0,0.1,0,0.2,0.1,0.3c0.1,0.1,0.1,0.1,0.2,0.1v1.2l-0.3,0.1
	c-0.1,0-0.2,0-0.3,0c-0.2,0-0.4,0-0.6-0.1c-0.1-0.1-0.2-0.2-0.3-0.4v-0.1c-0.2,0.2-0.4,0.4-0.7,0.5c-0.3,0.1-0.6,0.2-0.9,0.2
	c-0.3,0-0.7-0.1-0.9-0.4C200.8,224.4,200.7,224,200.7,223.6z"/>
<path class="st3" d="M207.7,225c-0.3,0-0.6,0-0.9-0.2c-0.3-0.1-0.5-0.3-0.7-0.4c-0.2-0.2-0.3-0.4-0.4-0.6c-0.1-0.2-0.2-0.5-0.1-0.8
	c0-0.4,0.1-0.7,0.3-1c0.2-0.3,0.4-0.6,0.7-0.7c0.4-0.2,0.8-0.3,1.2-0.3c0.4,0,0.8,0.1,1.2,0.3c0.3,0.2,0.6,0.4,0.7,0.8l-1.4,0.4
	c-0.1-0.1-0.1-0.2-0.2-0.2c-0.1-0.1-0.2-0.1-0.3-0.1c-0.3,0-0.5,0.1-0.6,0.4c-0.1,0.1-0.1,0.3-0.1,0.4c0,0.2,0,0.3,0.1,0.4
	c0.1,0.1,0.1,0.2,0.2,0.3c0.1,0.1,0.2,0.1,0.4,0.1c0.1,0,0.1,0,0.2,0c0.1,0,0.1-0.1,0.2-0.1c0.1,0,0.1-0.1,0.1-0.2l1.4,0.4
	c-0.1,0.2-0.3,0.4-0.4,0.6c-0.2,0.2-0.4,0.3-0.6,0.4C208.3,225,208,225,207.7,225z"/>
<path class="st3" d="M210.4,219.4h1.4v3.9c0,0.1,0,0.2,0.1,0.3c0.1,0.1,0.2,0.1,0.3,0.1h0.2c0.1,0,0.1,0,0.2-0.1l0.2,1.1
	c-0.2,0.1-0.4,0.1-0.6,0.2c-0.2,0-0.4,0.1-0.6,0.1c-0.3,0-0.6-0.1-0.9-0.3c-0.2-0.2-0.3-0.5-0.3-0.8L210.4,219.4z"/>
<path class="st3" d="M215.2,225c-0.3,0-0.6,0-0.9-0.2c-0.3-0.1-0.5-0.2-0.7-0.4c-0.2-0.2-0.3-0.4-0.4-0.6c-0.1-0.2-0.2-0.5-0.1-0.8
	c0-0.3,0.1-0.7,0.2-1c0.2-0.3,0.4-0.6,0.7-0.8c0.4-0.2,0.8-0.3,1.2-0.3c0.4,0,0.8,0.1,1.2,0.3c0.3,0.2,0.6,0.4,0.7,0.7
	c0.2,0.3,0.2,0.7,0.2,1c0,0.1,0,0.2,0,0.2c0,0.1,0,0.1,0,0.2h-2.8c0,0.1,0,0.2,0.1,0.3c0.1,0.1,0.2,0.1,0.3,0.2
	c0.1,0,0.2,0.1,0.3,0.1c0.2,0,0.3,0,0.4-0.1c0.1-0.1,0.2-0.2,0.3-0.3l1.2,0.3c-0.1,0.2-0.3,0.4-0.4,0.6c-0.2,0.2-0.4,0.3-0.7,0.4
	C215.8,225,215.5,225,215.2,225z M214.5,222.5h1.3c0-0.1-0.1-0.2-0.1-0.3c-0.1-0.1-0.1-0.2-0.2-0.2c-0.2-0.1-0.4-0.1-0.6,0
	c-0.1,0-0.2,0.1-0.2,0.2C214.6,222.3,214.5,222.4,214.5,222.5L214.5,222.5z"/>
<path class="st3" d="M218,223.6V221h1.4v2.2c0,0.1,0,0.3,0.1,0.4c0.1,0.1,0.2,0.2,0.3,0.1c0.1,0,0.2,0,0.2,0c0.1,0,0.2-0.1,0.2-0.1
	c0.1-0.1,0.2-0.1,0.2-0.2v-2.4h1.4v2.3c0,0.1,0,0.2,0.1,0.3c0.1,0.1,0.1,0.1,0.2,0.1v1.2L222,225c-0.1,0-0.2,0-0.3,0
	c-0.2,0-0.4,0-0.6-0.1c-0.1-0.1-0.2-0.2-0.3-0.4v-0.1c-0.2,0.2-0.4,0.4-0.7,0.5c-0.3,0.1-0.6,0.2-0.9,0.2c-0.3,0-0.7-0.1-0.9-0.4
	C218.1,224.4,218,224,218,223.6z"/>
<path class="st3" d="M224.7,225c-0.3,0-0.7-0.1-1-0.2c-0.3-0.1-0.6-0.3-0.8-0.5l0.5-0.9c0.2,0.1,0.5,0.3,0.7,0.4
	c0.2,0.1,0.4,0.1,0.6,0.1c0.1,0,0.2,0,0.2,0c0,0,0.1-0.1,0.1-0.1c0,0,0-0.1-0.1-0.1c-0.1,0-0.1-0.1-0.2-0.1l-0.3-0.1
	c-0.3-0.1-0.5-0.2-0.8-0.3c-0.2-0.1-0.3-0.2-0.5-0.3c-0.1-0.2-0.2-0.4-0.1-0.6c0-0.2,0.1-0.5,0.2-0.7c0.1-0.2,0.4-0.4,0.6-0.5
	c0.3-0.1,0.6-0.2,0.9-0.2c0.3,0,0.5,0,0.8,0.1c0.3,0.1,0.6,0.2,0.8,0.4l-0.6,0.9c-0.2-0.1-0.4-0.2-0.6-0.3c-0.1-0.1-0.3-0.1-0.5-0.1
	h-0.2c0,0-0.1,0-0.1,0.1c0,0,0,0.1,0,0.1c0,0,0,0.1,0.1,0.1c0,0,0.1,0.1,0.2,0.1l0.3,0.1c0.3,0.1,0.6,0.2,0.8,0.3
	c0.2,0.1,0.3,0.2,0.5,0.4c0.1,0.2,0.2,0.4,0.1,0.6c0,0.4-0.1,0.8-0.4,1C225.6,224.9,225.2,225,224.7,225z"/>
<path class="st3" d="M51.1,158.1v-0.8h1.7v6.6h-0.8v-5.8L51.1,158.1z"/>
<path class="st3" d="M54.5,162.4v-0.6l3.2-4.4h1v4.3h0.9v0.7h-0.9v1.5h-0.8v-1.5H54.5z M57.9,158.3l-2.4,3.4h2.4V158.3z"/>
<path class="st3" d="M65,158l-2.5,5.9h-0.8l2.6-5.8h-3.5v-0.7H65V158z"/>
<path class="st3" d="M66.9,159.9c-0.2-0.3-0.3-0.6-0.3-0.9c0-0.7,0.4-1.3,1-1.5c0.7-0.3,1.6-0.3,2.3,0c0.3,0.1,0.6,0.3,0.7,0.6
	c0.2,0.3,0.3,0.6,0.2,0.9c0,0.3-0.1,0.6-0.3,0.9c-0.2,0.3-0.5,0.5-0.8,0.6c0.4,0.1,0.7,0.3,0.9,0.6c0.2,0.3,0.3,0.6,0.3,1
	c0,0.4-0.1,0.7-0.3,1c-0.2,0.3-0.5,0.5-0.8,0.7c-0.4,0.2-0.8,0.2-1.2,0.2c-0.4,0-0.8-0.1-1.2-0.2c-0.3-0.1-0.6-0.4-0.8-0.7
	c-0.2-0.3-0.3-0.6-0.3-1c0-0.4,0.1-0.7,0.3-1c0.2-0.3,0.5-0.5,0.9-0.6C67.4,160.4,67.1,160.2,66.9,159.9z M67.6,161.2
	c-0.3,0.2-0.5,0.6-0.4,0.9c0,0.4,0.1,0.7,0.4,0.9c0.3,0.2,0.7,0.4,1.1,0.4c0.4,0,0.8-0.1,1.1-0.4c0.3-0.2,0.4-0.6,0.4-0.9
	c0-0.4-0.1-0.7-0.4-0.9c-0.3-0.2-0.7-0.3-1.1-0.3C68.4,160.9,68,161,67.6,161.2z M69.7,158.2c-0.3-0.2-0.6-0.3-1-0.3
	c-0.4,0-0.7,0.1-1,0.3c-0.3,0.2-0.4,0.5-0.4,0.9c0,0.3,0.1,0.6,0.4,0.8c0.6,0.4,1.4,0.4,2,0c0.2-0.2,0.4-0.5,0.4-0.8
	C70.1,158.8,70,158.5,69.7,158.2z"/>
<path class="st3" d="M77.3,161.7c0.4-0.4,0.8-0.8,1.1-1.2c0.3-0.4,0.4-0.8,0.4-1.3c0-0.3-0.1-0.7-0.3-0.9c-0.2-0.2-0.6-0.4-0.9-0.3
	c-0.4,0-0.7,0.1-1,0.4c-0.2,0.3-0.4,0.6-0.4,1h-0.8c0-0.6,0.2-1.1,0.6-1.6c0.4-0.4,0.9-0.6,1.5-0.6c0.5,0,1.1,0.2,1.5,0.5
	c0.4,0.4,0.6,0.9,0.6,1.4c0,0.5-0.2,1-0.4,1.5c-0.3,0.5-0.6,0.9-1,1.2c-0.4,0.4-0.9,0.8-1.5,1.3h3.1v0.7h-4.3v-0.6
	C76.3,162.6,76.9,162.1,77.3,161.7z"/>
<path class="st3" d="M83.1,161.7c0.4-0.4,0.8-0.8,1.1-1.2c0.3-0.4,0.4-0.8,0.4-1.3c0-0.3-0.1-0.7-0.3-0.9c-0.2-0.2-0.6-0.4-0.9-0.3
	c-0.4,0-0.7,0.1-0.9,0.4c-0.2,0.3-0.4,0.6-0.4,1h-0.8c0-0.6,0.2-1.1,0.6-1.6c0.9-0.7,2.1-0.7,3,0c0.4,0.4,0.6,0.9,0.6,1.4
	c0,0.5-0.2,1-0.4,1.5c-0.3,0.5-0.6,0.9-1,1.2c-0.4,0.4-0.9,0.8-1.5,1.3h3.1v0.7h-4.4v-0.6C82.1,162.6,82.7,162.1,83.1,161.7z"/>
<path class="st3" d="M91.3,158.1h-3.2v2.1c0.2-0.2,0.4-0.4,0.6-0.5c0.3-0.1,0.6-0.2,0.9-0.2c0.4,0,0.9,0.1,1.2,0.3
	c0.3,0.2,0.5,0.5,0.7,0.8c0.1,0.3,0.2,0.7,0.2,1c0,0.4-0.1,0.8-0.2,1.2c-0.2,0.3-0.4,0.6-0.8,0.8c-0.4,0.2-0.8,0.3-1.2,0.3
	c-0.6,0-1.1-0.1-1.5-0.5c-0.4-0.3-0.6-0.8-0.7-1.3h0.8c0.1,0.3,0.2,0.6,0.5,0.8c0.3,0.2,0.6,0.3,1,0.3c0.4,0,0.8-0.1,1.1-0.4
	c0.3-0.3,0.4-0.7,0.4-1.1c0-0.4-0.1-0.8-0.4-1.1c-0.3-0.3-0.7-0.4-1.1-0.4c-0.3,0-0.6,0.1-0.8,0.2c-0.2,0.1-0.4,0.4-0.5,0.6h-0.9
	v-3.7h4V158.1z"/>
<path class="st3" d="M97.5,158.1h-3.2v2.1c0.2-0.2,0.4-0.4,0.6-0.5c0.3-0.1,0.6-0.2,0.9-0.2c0.4,0,0.9,0.1,1.2,0.3
	c0.3,0.2,0.5,0.5,0.7,0.8c0.1,0.3,0.2,0.7,0.2,1c0,0.4-0.1,0.8-0.2,1.2c-0.2,0.3-0.4,0.6-0.8,0.8c-0.4,0.2-0.8,0.3-1.2,0.3
	c-0.6,0-1.1-0.1-1.5-0.5c-0.4-0.3-0.7-0.8-0.7-1.3h0.8c0.1,0.3,0.2,0.6,0.5,0.8c0.3,0.2,0.6,0.3,1,0.3c0.4,0,0.8-0.1,1.1-0.4
	c0.3-0.3,0.4-0.7,0.4-1.1c0-0.4-0.1-0.8-0.4-1.1c-0.3-0.3-0.7-0.4-1.1-0.4c-0.3,0-0.6,0.1-0.8,0.2c-0.2,0.1-0.4,0.4-0.5,0.6h-0.8
	v-3.7h3.9L97.5,158.1z"/>
<path class="st3" d="M102.3,162.4v-0.6l3.2-4.4h1v4.3h0.9v0.7h-0.9v1.5h-0.8v-1.5H102.3z M105.7,158.3l-2.4,3.4h2.4L105.7,158.3z"/>
<path class="st3" d="M113,158.1h-3.2v2.1c0.2-0.2,0.4-0.4,0.6-0.5c0.3-0.1,0.6-0.2,0.9-0.2c0.4,0,0.9,0.1,1.2,0.3
	c0.3,0.2,0.5,0.5,0.7,0.8c0.1,0.3,0.2,0.7,0.2,1c0,0.4-0.1,0.8-0.2,1.2c-0.2,0.3-0.4,0.6-0.8,0.8c-0.4,0.2-0.8,0.3-1.2,0.3
	c-0.6,0-1.1-0.1-1.5-0.5c-0.4-0.3-0.7-0.8-0.7-1.3h0.8c0.1,0.3,0.2,0.6,0.5,0.8c0.3,0.2,0.6,0.3,1,0.3c0.4,0,0.8-0.1,1.1-0.4
	c0.3-0.3,0.4-0.7,0.4-1.1c0-0.4-0.1-0.8-0.4-1.1c-0.3-0.3-0.7-0.4-1.1-0.4c-0.3,0-0.6,0.1-0.8,0.2c-0.2,0.1-0.4,0.4-0.5,0.6h-0.8
	v-3.7h3.9L113,158.1z"/>
<path class="st3" d="M116.5,163c0.3,0.2,0.6,0.3,0.9,0.3c0.5,0,0.9-0.2,1.1-0.6c0.3-0.6,0.4-1.3,0.3-2c-0.1,0.3-0.4,0.5-0.6,0.6
	c-0.3,0.2-0.7,0.2-1,0.2c-0.4,0-0.7-0.1-1.1-0.2c-0.3-0.2-0.6-0.4-0.8-0.7c-0.2-0.4-0.3-0.8-0.3-1.2c0-0.6,0.2-1.1,0.6-1.6
	c0.4-0.4,1-0.6,1.6-0.6c0.7-0.1,1.4,0.2,1.8,0.8c0.4,0.8,0.6,1.6,0.5,2.4c0,0.6-0.1,1.3-0.2,1.9c-0.1,0.4-0.3,0.8-0.7,1.1
	c-0.4,0.3-0.8,0.4-1.3,0.4c-0.5,0-1-0.1-1.4-0.5c-0.3-0.3-0.6-0.8-0.6-1.3h0.8C116.1,162.5,116.3,162.8,116.5,163z M118.3,160.5
	c0.3-0.3,0.4-0.6,0.4-1c0-0.4-0.1-0.8-0.4-1.1c-0.3-0.3-0.7-0.4-1.1-0.4c-0.4,0-0.7,0.1-1,0.4c-0.5,0.6-0.5,1.5,0,2.1
	C116.9,161,117.8,161,118.3,160.5L118.3,160.5z"/>
<path class="st3" d="M125.4,158.1h-3.2v2.1c0.2-0.2,0.4-0.4,0.6-0.5c0.3-0.1,0.6-0.2,0.9-0.2c0.4,0,0.9,0.1,1.2,0.3
	c0.3,0.2,0.5,0.5,0.7,0.8c0.1,0.3,0.2,0.7,0.2,1c0,0.4-0.1,0.8-0.2,1.2c-0.2,0.3-0.4,0.6-0.8,0.8c-0.4,0.2-0.8,0.3-1.2,0.3
	c-0.6,0-1.1-0.1-1.5-0.5c-0.4-0.3-0.6-0.8-0.7-1.3h0.8c0.1,0.3,0.2,0.6,0.5,0.8c0.3,0.2,0.6,0.3,1,0.3c0.4,0,0.8-0.1,1.1-0.4
	c0.3-0.3,0.4-0.7,0.4-1.1c0-0.4-0.1-0.8-0.4-1.1c-0.3-0.3-0.7-0.4-1.1-0.4c-0.3,0-0.6,0.1-0.8,0.2c-0.2,0.1-0.4,0.4-0.5,0.6h-0.8
	v-3.7h3.9L125.4,158.1z"/>
<path class="st3" d="M131.9,163c0.3,0.2,0.6,0.3,0.9,0.3c0.5,0,0.9-0.2,1.1-0.6c0.3-0.6,0.4-1.3,0.3-2c-0.1,0.3-0.4,0.5-0.6,0.6
	c-0.3,0.2-0.7,0.2-1,0.2c-0.4,0-0.8-0.1-1.1-0.2c-0.3-0.2-0.6-0.4-0.7-0.7c-0.2-0.4-0.3-0.8-0.3-1.2c0-0.6,0.2-1.1,0.6-1.6
	c0.4-0.4,1-0.6,1.6-0.6c0.7-0.1,1.4,0.2,1.8,0.8c0.4,0.8,0.6,1.6,0.5,2.4c0,0.6-0.1,1.3-0.2,1.9c-0.1,0.4-0.3,0.8-0.7,1.1
	c-0.4,0.3-0.9,0.4-1.3,0.4c-0.5,0-1-0.1-1.4-0.5c-0.3-0.3-0.6-0.8-0.6-1.3h0.8C131.5,162.5,131.7,162.8,131.9,163z M133.8,160.5
	c0.3-0.3,0.4-0.6,0.4-1c0-0.4-0.1-0.8-0.4-1.1c-0.3-0.3-0.7-0.4-1.1-0.4c-0.4,0-0.7,0.1-1,0.4c-0.2,0.3-0.4,0.6-0.4,1
	c0,0.4,0.1,0.8,0.4,1.1c0.3,0.3,0.7,0.4,1.1,0.4C133.2,160.8,133.5,160.7,133.8,160.5L133.8,160.5z"/>
<path class="st3" d="M137.1,159.9c-0.2-0.3-0.3-0.6-0.3-0.9c0-0.3,0.1-0.6,0.2-0.9c0.2-0.3,0.4-0.5,0.7-0.6c0.7-0.3,1.6-0.3,2.3,0
	c0.3,0.1,0.6,0.3,0.7,0.6c0.2,0.3,0.3,0.6,0.2,0.9c0,0.3-0.1,0.7-0.3,0.9c-0.2,0.3-0.5,0.5-0.8,0.6c0.4,0.1,0.7,0.3,0.9,0.6
	c0.2,0.3,0.3,0.6,0.3,1c0,0.4-0.1,0.7-0.3,1c-0.2,0.3-0.5,0.5-0.8,0.7c-0.4,0.2-0.8,0.2-1.2,0.2c-0.4,0-0.8-0.1-1.2-0.2
	c-0.3-0.1-0.6-0.4-0.8-0.7c-0.2-0.3-0.3-0.6-0.3-1c0-0.4,0.1-0.7,0.3-1c0.2-0.3,0.5-0.5,0.9-0.6
	C137.6,160.4,137.3,160.2,137.1,159.9z M137.9,161.2c-0.3,0.2-0.4,0.6-0.4,0.9c0,0.4,0.1,0.7,0.4,0.9c0.7,0.5,1.5,0.5,2.2,0
	c0.3-0.2,0.4-0.6,0.4-0.9c0-0.4-0.1-0.7-0.4-0.9c-0.3-0.2-0.7-0.3-1.1-0.3C138.6,160.9,138.2,161,137.9,161.2z M140,158.2
	c-0.6-0.4-1.4-0.4-2,0c-0.2,0.2-0.4,0.5-0.4,0.9c0,0.3,0.1,0.6,0.4,0.8c0.3,0.2,0.6,0.3,1,0.3c0.4,0,0.7-0.1,1-0.3
	c0.5-0.4,0.5-1.1,0.1-1.6C140.1,158.3,140,158.3,140,158.2L140,158.2z"/>
<path class="st3" d="M147,158l-2.5,5.9h-0.8l2.6-5.8h-3.5v-0.7h4.3L147,158z"/>
<path class="st3" d="M148.2,162.4v-0.6l3.2-4.4h1v4.3h0.9v0.7h-0.9v1.5h-0.8v-1.5H148.2z M151.6,158.3l-2.4,3.4h2.4V158.3z"/>
<path class="st3" d="M55.2,224.1h-2.4l-0.4,1.1h-1.6l2.3-6.4H55l2.3,6.4h-1.6L55.2,224.1z M54.8,223l-0.8-2.3l-0.8,2.3H54.8z"/>
<path class="st3" d="M59.8,218.6v6.7h-1.5v-6.7H59.8z"/>
<path class="st3" d="M65.9,223.1h-3.5c0,0.3,0.1,0.5,0.3,0.7c0.2,0.2,0.4,0.3,0.7,0.2c0.3,0,0.7-0.2,0.8-0.5h1.7
	c-0.2,0.7-0.6,1.2-1.3,1.5c-0.3,0.2-0.7,0.2-1.1,0.2c-0.5,0-0.9-0.1-1.3-0.3c-0.4-0.2-0.7-0.5-0.9-0.9c-0.2-0.4-0.3-0.9-0.3-1.4
	c0-0.5,0.1-0.9,0.3-1.4c0.2-0.4,0.5-0.7,0.9-0.9c0.8-0.4,1.8-0.4,2.6,0c0.4,0.2,0.7,0.5,0.9,0.9c0.2,0.4,0.3,0.9,0.3,1.3
	C65.9,222.8,65.9,222.9,65.9,223.1z M64.3,222.2c0-0.2-0.1-0.5-0.3-0.6c-0.4-0.3-0.9-0.3-1.3,0c-0.2,0.2-0.3,0.4-0.3,0.6L64.3,222.2
	z"/>
<path class="st3" d="M68.6,225.9c0,0.5-0.1,1-0.5,1.3c-0.4,0.3-0.8,0.4-1.3,0.4h-0.6v-1.3h0.4c0.1,0,0.3,0,0.4-0.1
	c0.1-0.1,0.1-0.2,0.1-0.3v-5.7h1.6L68.6,225.9z M67.1,219.4c-0.2-0.1-0.3-0.4-0.3-0.6c0-0.2,0.1-0.4,0.3-0.6c0.4-0.3,0.9-0.3,1.3,0
	c0.2,0.2,0.3,0.4,0.3,0.6c0,0.2-0.1,0.4-0.3,0.6C68.1,219.8,67.5,219.8,67.1,219.4z"/>
<path class="st3" d="M69.9,221.3c0.2-0.4,0.5-0.7,0.8-0.9c0.3-0.2,0.7-0.3,1.1-0.3c0.3,0,0.6,0.1,0.9,0.2c0.3,0.1,0.5,0.3,0.6,0.6
	v-0.7H75v5.1h-1.6v-0.7c-0.2,0.2-0.4,0.4-0.6,0.6c-0.3,0.2-0.6,0.2-0.9,0.2c-0.4,0-0.8-0.1-1.1-0.3c-0.3-0.2-0.6-0.5-0.8-0.9
	c-0.2-0.4-0.3-0.9-0.3-1.4C69.6,222.2,69.7,221.8,69.9,221.3z M73.1,221.8c-0.4-0.4-1.1-0.4-1.5,0c0,0,0,0,0,0
	c-0.4,0.5-0.4,1.3,0,1.8c0.2,0.2,0.5,0.4,0.8,0.3c0.3,0,0.6-0.1,0.8-0.3c0.2-0.3,0.3-0.6,0.3-0.9C73.5,222.4,73.3,222.1,73.1,221.8z
	"/>
<path class="st3" d="M80.9,220.7c0.4,0.4,0.6,1,0.5,1.6v3h-1.5v-2.8c0-0.3-0.1-0.6-0.3-0.8c-0.4-0.4-1-0.4-1.4,0
	c-0.2,0.2-0.3,0.5-0.3,0.8v2.8h-1.6v-5.1h1.6v0.7c0.2-0.2,0.4-0.4,0.6-0.5c0.3-0.1,0.6-0.2,0.9-0.2C80,220.1,80.5,220.3,80.9,220.7z
	"/>
<path class="st3" d="M82.7,221.3c0.2-0.4,0.5-0.7,0.8-0.9c0.3-0.2,0.7-0.3,1.1-0.3c0.3,0,0.6,0.1,0.9,0.2c0.3,0.1,0.5,0.3,0.6,0.6
	v-2.3h1.6v6.7h-1.6v-0.7c-0.1,0.2-0.4,0.4-0.6,0.6c-0.3,0.2-0.6,0.2-0.9,0.2c-0.4,0-0.8-0.1-1.1-0.3c-0.3-0.2-0.6-0.5-0.8-0.9
	c-0.2-0.4-0.3-0.9-0.3-1.4C82.4,222.2,82.5,221.8,82.7,221.3z M85.9,221.8c-0.4-0.4-1.1-0.4-1.5,0c0,0,0,0,0,0
	c-0.4,0.5-0.4,1.3,0,1.8c0.2,0.2,0.5,0.3,0.8,0.3c0.3,0,0.6-0.1,0.8-0.3c0.2-0.3,0.3-0.6,0.3-0.9C86.2,222.4,86.1,222.1,85.9,221.8z
	"/>
<path class="st3" d="M91.3,220.4c0.3-0.2,0.6-0.2,0.9-0.2v1.6h-0.4c-0.3,0-0.6,0.1-0.9,0.2c-0.2,0.2-0.3,0.6-0.3,0.9v2.4h-1.5v-5.1
	h1.6v0.8C90.9,220.8,91.1,220.5,91.3,220.4z"/>
<path class="st3" d="M93.3,221.3c0.2-0.4,0.5-0.7,0.8-0.9c0.3-0.2,0.7-0.3,1.1-0.3c0.3,0,0.6,0.1,0.9,0.2c0.3,0.1,0.5,0.3,0.6,0.6
	v-0.7h1.6v5.1h-1.6v-0.7c-0.2,0.2-0.4,0.4-0.6,0.6c-0.3,0.2-0.6,0.2-0.9,0.2c-0.4,0-0.8-0.1-1.1-0.3c-0.3-0.2-0.6-0.5-0.8-0.9
	c-0.2-0.4-0.3-0.9-0.3-1.4C93,222.2,93.1,221.8,93.3,221.3z M96.4,221.8c-0.4-0.4-1.1-0.4-1.5,0c0,0,0,0,0,0c-0.4,0.5-0.4,1.3,0,1.8
	c0.2,0.2,0.5,0.3,0.8,0.3c0.3,0,0.6-0.1,0.8-0.3c0.2-0.3,0.3-0.6,0.3-0.9C96.8,222.4,96.7,222.1,96.4,221.8z"/>
<path class="st3" d="M106.5,222c-0.2,0.3-0.5,0.6-0.8,0.7c-0.4,0.2-0.9,0.3-1.3,0.3h-1v2.3h-1.6v-6.4h2.5c0.4,0,0.9,0.1,1.3,0.3
	c0.3,0.2,0.6,0.4,0.8,0.7c0.2,0.3,0.3,0.7,0.3,1.1C106.7,221.3,106.6,221.7,106.5,222z M104.9,221.6c0.3-0.3,0.3-0.8,0-1.2
	c-0.2-0.2-0.4-0.2-0.7-0.2h-0.8v1.6h0.8C104.5,221.8,104.8,221.7,104.9,221.6L104.9,221.6z"/>
<path class="st3" d="M112.5,223.1H109c0,0.3,0.1,0.5,0.3,0.7c0.2,0.2,0.4,0.3,0.7,0.2c0.3,0,0.7-0.2,0.8-0.5h1.6
	c-0.1,0.3-0.2,0.6-0.5,0.9c-0.2,0.3-0.5,0.5-0.8,0.6c-0.8,0.3-1.7,0.3-2.4-0.1c-0.4-0.2-0.7-0.5-0.9-0.9c-0.2-0.4-0.3-0.9-0.3-1.4
	c0-0.5,0.1-0.9,0.3-1.4c0.2-0.4,0.5-0.7,0.9-0.9c0.4-0.2,0.9-0.3,1.3-0.3c0.5,0,0.9,0.1,1.3,0.3c0.4,0.2,0.7,0.5,0.9,0.9
	c0.2,0.4,0.3,0.9,0.3,1.3C112.6,222.8,112.6,222.9,112.5,223.1z M111.1,218.9l-2.2,0.9v-1.1l2.2-1.1V218.9z M111,222.2
	c0-0.2-0.1-0.5-0.3-0.6c-0.4-0.3-0.9-0.3-1.3,0c-0.2,0.2-0.3,0.4-0.3,0.6L111,222.2z"/>
<path class="st3" d="M115.9,220.4c0.3-0.2,0.6-0.2,0.9-0.2v1.6h-0.4c-0.3,0-0.6,0.1-0.9,0.2c-0.2,0.2-0.3,0.6-0.3,0.9v2.4h-1.6v-5.1
	h1.6v0.8C115.4,220.8,115.6,220.5,115.9,220.4z"/>
<path class="st3" d="M122.5,223.1H119c0,0.3,0.1,0.5,0.3,0.7c0.2,0.2,0.4,0.3,0.7,0.2c0.3,0,0.7-0.2,0.8-0.5h1.6
	c-0.1,0.3-0.2,0.6-0.5,0.9c-0.2,0.3-0.5,0.5-0.8,0.6c-0.3,0.2-0.7,0.2-1.1,0.2c-0.5,0-0.9-0.1-1.3-0.3c-0.4-0.2-0.7-0.5-0.9-0.9
	c-0.2-0.4-0.3-0.9-0.3-1.4c0-0.5,0.1-0.9,0.3-1.4c0.2-0.4,0.5-0.7,0.9-0.9c0.8-0.4,1.8-0.4,2.6,0c0.4,0.2,0.7,0.5,0.9,0.9
	c0.2,0.4,0.3,0.9,0.3,1.3C122.6,222.8,122.6,222.9,122.5,223.1z M121,222.2c0-0.2-0.1-0.5-0.3-0.6c-0.2-0.2-0.4-0.2-0.7-0.2
	c-0.2,0-0.5,0.1-0.6,0.2c-0.2,0.2-0.3,0.4-0.3,0.6H121z"/>
<path class="st3" d="M125.1,224h2.2v1.3h-3.9V224l2.1-2.6h-2.1v-1.3h3.9v1.2L125.1,224z"/>
<path class="st3" d="M54.3,210.7c-0.4,0.3-0.9,0.4-1.3,0.4h-1.1v2.2h-0.5v-5.3h1.6c0.5,0,1,0.1,1.3,0.4
	C54.9,209.1,54.9,210.1,54.3,210.7z M54.2,209.6c0-0.3-0.1-0.6-0.3-0.8c-0.3-0.2-0.6-0.3-0.9-0.3h-1.1v2.1h1.1
	C53.8,210.6,54.2,210.3,54.2,209.6z"/>
<path class="st3" d="M56.9,209.4c0.3-0.1,0.6-0.2,0.9-0.2v0.6h-0.2c-0.6-0.1-1.2,0.4-1.3,1c0,0.1,0,0.2,0,0.3v2.3h-0.5v-4.1h0.5v0.8
	C56.5,209.7,56.6,209.5,56.9,209.4z"/>
<path class="st3" d="M59.5,213.1c-0.3-0.2-0.6-0.4-0.7-0.7c-0.4-0.7-0.4-1.5,0-2.2c0.2-0.3,0.4-0.6,0.7-0.7c0.3-0.2,0.7-0.3,1-0.3
	c0.4,0,0.7,0.1,1.1,0.3c0.3,0.2,0.6,0.4,0.7,0.7c0.2,0.3,0.3,0.7,0.3,1.1c0,0.4-0.1,0.8-0.3,1.1c-0.2,0.3-0.4,0.6-0.8,0.7
	c-0.3,0.2-0.7,0.3-1,0.3C60.2,213.4,59.9,213.3,59.5,213.1z M61.3,212.8c0.2-0.1,0.4-0.3,0.6-0.6c0.2-0.3,0.2-0.6,0.2-0.9
	c0-0.3-0.1-0.6-0.2-0.9c-0.1-0.2-0.3-0.4-0.6-0.6c-0.5-0.3-1-0.3-1.5,0c-0.2,0.1-0.4,0.3-0.6,0.6c-0.1,0.3-0.2,0.6-0.2,0.9
	c0,0.3,0.1,0.6,0.2,0.9c0.1,0.2,0.3,0.4,0.6,0.6c0.2,0.1,0.5,0.2,0.8,0.2C60.8,212.9,61.1,212.9,61.3,212.8L61.3,212.8z"/>
<path class="st3" d="M65,209.4c0.3-0.2,0.6-0.3,1-0.3c0.4,0,0.7,0.1,1,0.3c0.3,0.2,0.5,0.4,0.7,0.7c0.3,0.7,0.3,1.5,0,2.2
	c-0.2,0.3-0.4,0.6-0.7,0.8c-0.3,0.2-0.6,0.3-1,0.3c-0.4,0-0.7-0.1-1-0.3c-0.3-0.2-0.5-0.4-0.6-0.7v2.9h-0.5v-6.1h0.5v0.9
	C64.5,209.8,64.7,209.6,65,209.4z M67.2,210.4c-0.1-0.2-0.3-0.4-0.5-0.6c-0.2-0.1-0.5-0.2-0.8-0.2c-0.3,0-0.5,0.1-0.8,0.2
	c-0.2,0.1-0.4,0.3-0.6,0.6c-0.1,0.3-0.2,0.6-0.2,0.9c0,0.3,0.1,0.6,0.2,0.9c0.1,0.2,0.3,0.4,0.6,0.6c0.2,0.1,0.5,0.2,0.8,0.2
	c0.3,0,0.5-0.1,0.8-0.2c0.2-0.1,0.4-0.3,0.5-0.6c0.1-0.3,0.2-0.6,0.2-0.9C67.4,211,67.4,210.7,67.2,210.4z"/>
<path class="st3" d="M69.2,208.3c-0.1-0.1-0.1-0.2-0.1-0.3c0-0.1,0-0.2,0.1-0.3c0.1-0.1,0.2-0.1,0.3-0.1c0.1,0,0.2,0,0.3,0.1
	c0.1,0.1,0.1,0.2,0.1,0.3c0,0.2-0.2,0.4-0.4,0.4c0,0,0,0,0,0C69.3,208.5,69.2,208.4,69.2,208.3z M69.7,209.2v4.1h-0.5v-4.1H69.7z"/>
<path class="st3" d="M74.8,211.5h-3.4c0,0.3,0.1,0.6,0.2,0.8c0.1,0.2,0.3,0.4,0.5,0.5c0.2,0.1,0.5,0.2,0.7,0.2
	c0.3,0,0.6-0.1,0.9-0.2c0.2-0.2,0.4-0.4,0.5-0.7h0.6c-0.1,0.4-0.3,0.8-0.6,1c-0.4,0.3-0.8,0.4-1.2,0.4c-0.3,0-0.7-0.1-1-0.3
	c-0.3-0.2-0.6-0.4-0.7-0.7c-0.2-0.3-0.3-0.7-0.3-1.1c0-0.4,0.1-0.8,0.2-1.1c0.2-0.3,0.4-0.6,0.7-0.7c0.3-0.2,0.7-0.3,1.1-0.3
	c0.4,0,0.7,0.1,1,0.3c0.3,0.2,0.5,0.4,0.7,0.7c0.2,0.3,0.2,0.7,0.2,1C74.8,211.2,74.8,211.4,74.8,211.5z M74.1,210.3
	c-0.1-0.2-0.3-0.4-0.5-0.5c-0.2-0.1-0.5-0.2-0.7-0.2c-0.4,0-0.7,0.1-1,0.4c-0.3,0.3-0.5,0.7-0.5,1.1h2.9
	C74.3,210.8,74.3,210.5,74.1,210.3z"/>
<path class="st3" d="M76.7,209.7v2.6c0,0.2,0,0.4,0.1,0.5c0.1,0.1,0.3,0.2,0.5,0.1h0.5v0.4h-0.6c-0.3,0-0.6-0.1-0.8-0.3
	c-0.2-0.2-0.3-0.5-0.3-0.9v-2.6h-0.6v-0.4h0.6v-1h0.5v1h1.1v0.4H76.7z"/>
<path class="st3" d="M78.9,210.2c0.2-0.3,0.4-0.6,0.7-0.7c0.3-0.2,0.6-0.3,1-0.3c0.4,0,0.7,0.1,1,0.3c0.3,0.2,0.5,0.4,0.6,0.7v-0.9
	h0.5v4.1h-0.5v-0.9c-0.1,0.3-0.4,0.5-0.6,0.7c-0.3,0.2-0.6,0.3-1,0.3c-0.4,0-0.7-0.1-1-0.3c-0.3-0.2-0.5-0.4-0.7-0.8
	C78.6,211.7,78.6,210.9,78.9,210.2L78.9,210.2z M82.1,210.4c-0.1-0.2-0.3-0.4-0.6-0.6c-0.2-0.1-0.5-0.2-0.8-0.2
	c-0.3,0-0.5,0.1-0.8,0.2c-0.2,0.1-0.4,0.3-0.6,0.6c-0.1,0.3-0.2,0.6-0.2,0.9c0,0.3,0.1,0.6,0.2,0.9c0.1,0.2,0.3,0.4,0.6,0.6
	c0.5,0.3,1.1,0.3,1.6,0c0.2-0.1,0.4-0.3,0.6-0.6c0.1-0.3,0.2-0.6,0.2-0.9C82.3,211,82.2,210.7,82.1,210.4z"/>
<path class="st3" d="M85.3,209.4c0.3-0.1,0.6-0.2,0.9-0.2v0.6h-0.1c-0.3,0-0.7,0.1-0.9,0.3c-0.3,0.3-0.4,0.6-0.3,1v2.3h-0.5v-4.1
	h0.5v0.8C84.9,209.7,85.1,209.5,85.3,209.4z"/>
<path class="st3" d="M87.2,208.3c-0.1-0.1-0.1-0.2-0.1-0.3c0-0.1,0-0.2,0.1-0.3c0.1-0.1,0.2-0.1,0.3-0.1c0.1,0,0.2,0,0.3,0.1
	c0.1,0.1,0.1,0.2,0.1,0.3c0,0.2-0.2,0.4-0.4,0.4c0,0,0,0,0,0C87.4,208.5,87.3,208.4,87.2,208.3z M87.7,209.2v4.1h-0.5v-4.1H87.7z"/>
<path class="st3" d="M89.9,213.1c-0.3-0.2-0.6-0.4-0.7-0.7c-0.4-0.7-0.4-1.5,0-2.2c0.2-0.3,0.4-0.6,0.7-0.7c0.3-0.2,0.7-0.3,1-0.3
	c0.4,0,0.7,0.1,1.1,0.3c0.3,0.2,0.6,0.4,0.7,0.7c0.2,0.3,0.3,0.7,0.3,1.1c0,0.4-0.1,0.8-0.3,1.1c-0.2,0.3-0.4,0.6-0.7,0.7
	c-0.3,0.2-0.7,0.3-1.1,0.3C90.6,213.4,90.2,213.3,89.9,213.1z M91.7,212.8c0.2-0.1,0.4-0.3,0.6-0.6c0.1-0.3,0.2-0.6,0.2-0.9
	c0-0.3-0.1-0.6-0.2-0.9c-0.1-0.2-0.3-0.4-0.6-0.6c-0.2-0.1-0.5-0.2-0.8-0.2c-0.3,0-0.5,0.1-0.8,0.2c-0.2,0.1-0.4,0.3-0.6,0.6
	c-0.1,0.3-0.2,0.6-0.2,0.9c0,0.3,0.1,0.6,0.2,0.9c0.1,0.2,0.3,0.4,0.6,0.6c0.2,0.1,0.5,0.2,0.8,0.2
	C91.2,212.9,91.5,212.9,91.7,212.8z"/>
<path class="st3" d="M207.1,132.9v-0.5h1.3v5.4h-0.5v-4.9H207.1z"/>
<path class="st3" d="M211.8,135.6c0.4-0.4,0.7-1,0.8-1.6c0-0.3-0.1-0.6-0.3-0.8c-0.2-0.2-0.5-0.3-0.9-0.3c-0.3,0-0.7,0.1-0.9,0.4
	c-0.2,0.3-0.3,0.6-0.4,0.9h-0.5c0-0.5,0.2-1,0.5-1.3c0.7-0.6,1.7-0.6,2.4-0.1c0.3,0.3,0.5,0.7,0.5,1.2c0,0.7-0.3,1.3-0.8,1.8
	c-0.6,0.6-1.2,1.2-1.9,1.7h2.8v0.4h-3.6v-0.4C210.4,136.9,211.1,136.2,211.8,135.6z"/>
<path class="st3" d="M216.8,130.8l-2.1,8.3h-0.5l2.1-8.3H216.8z"/>
<path class="st3" d="M219.9,135.6c0.5-0.4,0.7-1,0.8-1.6c0-0.3-0.1-0.6-0.3-0.8c-0.2-0.2-0.5-0.3-0.9-0.3c-0.3,0-0.7,0.1-0.9,0.4
	c-0.2,0.3-0.3,0.6-0.4,0.9h-0.5c0-0.5,0.2-1,0.5-1.3c0.7-0.6,1.7-0.6,2.4-0.1c0.3,0.3,0.5,0.7,0.5,1.2c0,0.7-0.3,1.3-0.8,1.8
	c-0.6,0.6-1.2,1.2-1.9,1.7h2.8v0.4h-3.6v-0.4C218.5,136.9,219.2,136.2,219.9,135.6z"/>
<path class="st3" d="M222.2,136.6v-0.4l2.7-3.7h0.6v3.6h0.8v0.5h-0.8v1.3H225v-1.3L222.2,136.6z M225,133.1l-2.3,3.1h2.3V133.1z"/>
<path class="st6" d="M86.7,264H186c10.1,0,18.2,8.2,18.2,18.2l0,0c0,10.1-8.2,18.2-18.2,18.2H86.7c-10.1,0-18.2-8.2-18.2-18.2l0,0
	C68.4,272.2,76.6,264,86.7,264z"/>
<path class="st0" d="M86.8,266.6h33.9c8.7,0,15.7,7,15.7,15.7v0c0,8.7-7,15.7-15.7,15.7H86.8c-8.7,0-15.7-7-15.7-15.7v0
	C71.1,273.6,78.2,266.6,86.8,266.6z"/>
<path class="st3" d="M88.5,278.9c0.7,0.3,1.2,0.9,1.6,1.5c0.7,1.4,0.7,3.1,0,4.5c-0.4,0.7-0.9,1.2-1.6,1.5c-0.7,0.4-1.6,0.6-2.4,0.5
	h-3.2v-8.7h3.2C86.9,278.3,87.7,278.5,88.5,278.9z M87.8,284.5c0.5-0.5,0.7-1.2,0.7-1.9c0.1-1.3-0.8-2.4-2.1-2.5c-0.2,0-0.3,0-0.5,0
	h-1v5h1C86.6,285.2,87.3,285,87.8,284.5z"/>
<path class="st3" d="M98.6,284.1h-4.8c0,0.4,0.1,0.7,0.4,1c0.2,0.2,0.6,0.3,0.9,0.3c0.5,0,0.9-0.2,1.1-0.7h2.2
	c-0.1,0.5-0.3,0.9-0.6,1.2c-0.3,0.4-0.7,0.7-1.1,0.9c-0.5,0.2-1,0.3-1.5,0.3c-0.6,0-1.2-0.1-1.8-0.4c-0.5-0.3-1-0.7-1.2-1.2
	c-0.3-0.6-0.5-1.2-0.4-1.9c0-0.7,0.1-1.3,0.4-1.9c0.3-0.5,0.7-1,1.2-1.2c0.6-0.3,1.2-0.5,1.8-0.4c0.6,0,1.2,0.1,1.8,0.4
	c0.5,0.3,0.9,0.7,1.2,1.2c0.3,0.6,0.5,1.2,0.4,1.8C98.7,283.7,98.7,283.9,98.6,284.1z M96.5,282.9c0-0.3-0.1-0.6-0.4-0.9
	c-0.5-0.4-1.3-0.4-1.8,0c-0.3,0.2-0.4,0.5-0.4,0.9L96.5,282.9z"/>
<path class="st3" d="M103.1,280.3c0.4-0.2,0.8-0.3,1.3-0.3c0.5,0,1.1,0.1,1.5,0.4c0.5,0.3,0.9,0.7,1.1,1.2c0.5,1.2,0.5,2.6,0,3.7
	c-0.2,0.5-0.6,0.9-1.1,1.2c-0.5,0.3-1,0.4-1.5,0.4c-0.4,0-0.9-0.1-1.3-0.3c-0.3-0.2-0.6-0.4-0.8-0.8v1h-2.1v-9.1h2.1v3.2
	C102.5,280.8,102.8,280.5,103.1,280.3z M104.9,282.3c-0.3-0.3-0.7-0.5-1.1-0.5c-0.4,0-0.8,0.2-1.1,0.5c-0.6,0.7-0.6,1.8,0,2.5
	c0.3,0.3,0.7,0.5,1.1,0.5c0.4,0,0.8-0.2,1.1-0.5C105.4,284.1,105.4,283,104.9,282.3L104.9,282.3z"/>
<path class="st3" d="M109.1,279.1c-0.5-0.4-0.5-1.1-0.1-1.6c0,0,0-0.1,0.1-0.1c0.5-0.4,1.3-0.4,1.8,0c0.5,0.4,0.5,1.1,0,1.6
	c0,0,0,0,0,0C110.4,279.5,109.6,279.5,109.1,279.1z M111.1,280.1v6.9H109v-6.9L111.1,280.1z"/>
<path class="st3" d="M116.8,285.2v1.8h-1.1c-0.6,0-1.3-0.2-1.8-0.6c-0.5-0.5-0.7-1.2-0.6-1.8v-2.7h-0.8v-1.8h0.8v-1.7h2.1v1.7h1.4
	v1.8h-1.4v2.8c0,0.2,0,0.3,0.1,0.4c0.1,0.1,0.3,0.2,0.5,0.1L116.8,285.2z"/>
<path class="st3" d="M119.7,286.7c-0.5-0.3-1-0.7-1.3-1.2c-0.6-1.2-0.6-2.6,0-3.8c0.3-0.5,0.7-1,1.3-1.2c0.6-0.3,1.2-0.4,1.8-0.4
	c0.6,0,1.3,0.1,1.8,0.4c0.5,0.3,1,0.7,1.3,1.2c0.6,1.2,0.6,2.6,0,3.8c-0.3,0.5-0.8,1-1.3,1.2c-0.6,0.3-1.2,0.4-1.8,0.4
	C120.8,287.1,120.2,287,119.7,286.7z M122.5,284.8c0.6-0.8,0.6-1.8,0-2.5c-0.3-0.3-0.6-0.5-1-0.5c-0.4,0-0.7,0.2-1,0.4
	c-0.3,0.4-0.4,0.8-0.4,1.3c0,0.5,0.1,0.9,0.4,1.3c0.3,0.3,0.6,0.4,1,0.4C121.9,285.3,122.2,285.1,122.5,284.8z"/>
<path class="st3" d="M145.4,280.4c0.4-0.7,0.9-1.2,1.6-1.6c0.7-0.4,1.5-0.6,2.2-0.6c0.9,0,1.9,0.3,2.6,0.8c0.7,0.5,1.3,1.3,1.5,2.2
	H151c-0.2-0.3-0.4-0.6-0.7-0.8c-0.3-0.2-0.7-0.3-1.1-0.3c-0.6,0-1.2,0.2-1.6,0.7c-0.8,1.1-0.8,2.6,0,3.6c0.4,0.4,1,0.7,1.6,0.7
	c0.4,0,0.8-0.1,1.1-0.3c0.3-0.2,0.6-0.5,0.7-0.8h2.3c-0.2,0.9-0.7,1.7-1.5,2.2c-0.8,0.6-1.7,0.8-2.6,0.8c-0.8,0-1.6-0.2-2.2-0.6
	c-0.7-0.4-1.2-0.9-1.6-1.6C144.7,283.5,144.7,281.8,145.4,280.4L145.4,280.4z"/>
<path class="st3" d="M158.1,280.4c0.4-0.2,0.8-0.4,1.3-0.4v2.2h-0.6c-0.4,0-0.8,0.1-1.2,0.3c-0.3,0.3-0.5,0.8-0.4,1.2v3.2h-2.1v-6.9
	h2.1v1.1C157.4,280.9,157.7,280.6,158.1,280.4z"/>
<path class="st3" d="M167.2,284.1h-4.8c0,0.4,0.1,0.7,0.4,1c0.2,0.2,0.6,0.3,0.9,0.3c0.5,0,0.9-0.2,1.1-0.7h2.2
	c-0.1,0.5-0.3,0.9-0.6,1.2c-0.3,0.4-0.7,0.7-1.1,0.9c-0.5,0.2-1,0.3-1.5,0.3c-0.6,0-1.3-0.1-1.8-0.4c-0.5-0.3-1-0.7-1.2-1.2
	c-0.3-0.6-0.5-1.2-0.4-1.9c0-0.7,0.1-1.3,0.4-1.9c0.3-0.5,0.7-1,1.2-1.2c1.1-0.6,2.5-0.6,3.6,0c0.5,0.3,0.9,0.7,1.2,1.2
	c0.3,0.6,0.5,1.2,0.4,1.8C167.2,283.6,167.2,283.8,167.2,284.1z M165,282.9c0-0.3-0.1-0.6-0.4-0.9c-0.3-0.2-0.6-0.3-0.9-0.3
	c-0.3,0-0.6,0.1-0.9,0.3c-0.3,0.2-0.4,0.5-0.5,0.9H165z"/>
<path class="st3" d="M168.7,281.7c0.2-0.5,0.6-0.9,1.1-1.2c0.5-0.3,1-0.5,1.6-0.4c0.4,0,0.9,0.1,1.2,0.3c0.4,0.2,0.7,0.4,0.9,0.8
	v-3.2h2.1v9.1h-2.1v-1c-0.2,0.3-0.5,0.6-0.8,0.8c-0.4,0.2-0.8,0.3-1.3,0.3c-0.5,0-1.1-0.1-1.6-0.4c-0.5-0.3-0.9-0.7-1.1-1.2
	C168.2,284.2,168.2,282.8,168.7,281.7L168.7,281.7z M173,282.3c-0.3-0.3-0.7-0.5-1.1-0.5c-0.4,0-0.8,0.2-1.1,0.5
	c-0.3,0.3-0.5,0.8-0.4,1.2c0,0.5,0.1,0.9,0.4,1.2c0.5,0.6,1.5,0.6,2.1,0.1c0,0,0.1-0.1,0.1-0.1C173.6,284,173.6,283,173,282.3
	L173,282.3z"/>
<path class="st3" d="M177.6,279.1c-0.5-0.4-0.5-1.1-0.1-1.6c0,0,0-0.1,0.1-0.1c0.2-0.2,0.6-0.3,0.9-0.3c0.3,0,0.6,0.1,0.9,0.3
	c0.5,0.4,0.5,1.1,0,1.6c0,0,0,0,0,0c-0.2,0.2-0.6,0.3-0.9,0.3C178.2,279.4,177.8,279.3,177.6,279.1z M179.6,280.1v6.9h-2.1v-6.9
	L179.6,280.1z"/>
<path class="st3" d="M185.4,285.2v1.8h-1.1c-0.6,0-1.3-0.2-1.8-0.6c-0.5-0.5-0.7-1.2-0.6-1.8v-2.7H181v-1.8h0.8v-1.7h2.1v1.7h1.4
	v1.8H184v2.8c0,0.2,0,0.3,0.1,0.4c0.1,0.1,0.3,0.2,0.5,0.1L185.4,285.2z"/>
<path class="st3" d="M188.2,286.7c-0.5-0.3-1-0.7-1.3-1.2c-0.6-1.2-0.6-2.6,0-3.8c0.3-0.5,0.7-1,1.3-1.2c0.6-0.3,1.2-0.4,1.8-0.4
	c0.6,0,1.3,0.1,1.8,0.4c0.5,0.3,1,0.7,1.3,1.2c0.3,0.6,0.5,1.2,0.5,1.9c0,0.7-0.2,1.3-0.5,1.9c-0.3,0.5-0.8,1-1.3,1.2
	c-0.6,0.3-1.2,0.4-1.8,0.4C189.4,287.1,188.7,287,188.2,286.7z M191,284.8c0.3-0.4,0.5-0.8,0.4-1.3c0-0.5-0.1-0.9-0.4-1.3
	c-0.5-0.6-1.4-0.6-2-0.1c0,0,0,0-0.1,0.1c-0.3,0.4-0.4,0.8-0.4,1.3c0,0.5,0.1,0.9,0.4,1.3c0.3,0.3,0.6,0.4,1,0.4
	C190.4,285.3,190.8,285.1,191,284.8L191,284.8z"/>
<path class="st7" d="M26.8,348.5h16.9c2.8,0,5,2.2,5,5v16.9c0,2.8-2.2,5-5,5H26.8c-2.8,0-5-2.2-5-5v-16.9
	C21.8,350.8,24.1,348.5,26.8,348.5z"/>
<path class="st3" d="M60.4,354.8c0.3-0.5,0.7-1,1.3-1.3c0.6-0.3,1.2-0.5,1.9-0.5c0.8,0,1.5,0.2,2.2,0.7c0.6,0.4,1,1.1,1.2,1.8H65
	c-0.1-0.3-0.3-0.5-0.6-0.7c-0.7-0.4-1.6-0.3-2.2,0.3c-0.7,0.9-0.7,2.1,0,3c0.6,0.6,1.5,0.7,2.2,0.3c0.3-0.2,0.5-0.4,0.6-0.7h1.9
	c-0.2,0.7-0.6,1.4-1.2,1.8c-0.6,0.5-1.4,0.7-2.2,0.7c-0.7,0-1.3-0.2-1.9-0.5c-0.5-0.3-1-0.7-1.3-1.3c-0.3-0.6-0.5-1.2-0.5-1.9
	C59.9,356,60.1,355.3,60.4,354.8z"/>
<path class="st3" d="M69.4,360c-0.4-0.2-0.8-0.6-1-1c-0.5-1-0.5-2.1,0-3.1c0.3-0.4,0.6-0.8,1.1-1c0.9-0.5,2.1-0.5,3,0
	c0.4,0.2,0.8,0.6,1.1,1c0.3,0.5,0.4,1,0.4,1.5c0,0.5-0.1,1.1-0.4,1.5c-0.3,0.4-0.6,0.8-1.1,1c-0.5,0.2-1,0.4-1.5,0.4
	C70.4,360.4,69.9,360.2,69.4,360z M71.8,358.5c0.2-0.3,0.4-0.7,0.3-1c0-0.4-0.1-0.8-0.3-1c-0.2-0.2-0.5-0.4-0.8-0.4
	c-0.3,0-0.6,0.1-0.8,0.4c-0.2,0.3-0.4,0.7-0.3,1c0,0.4,0.1,0.8,0.3,1c0.2,0.2,0.5,0.4,0.8,0.4C71.2,358.8,71.5,358.7,71.8,358.5z"/>
<path class="st3" d="M84,355.2c0.4,0.5,0.7,1.1,0.6,1.8v3.3h-1.7v-3.1c0-0.3-0.1-0.6-0.3-0.9c-0.5-0.4-1.1-0.4-1.6,0
	c-0.2,0.2-0.3,0.5-0.3,0.9v3.1H79v-3.1c0-0.3-0.1-0.6-0.3-0.9c-0.2-0.2-0.5-0.3-0.8-0.3c-0.3,0-0.6,0.1-0.8,0.3
	c-0.2,0.2-0.3,0.5-0.3,0.9v3.1h-1.7v-5.7h1.7v0.7c0.2-0.2,0.4-0.4,0.7-0.6c0.3-0.1,0.7-0.2,1-0.2c0.4,0,0.8,0.1,1.1,0.3
	c0.3,0.2,0.6,0.4,0.8,0.8c0.2-0.3,0.5-0.6,0.8-0.8c0.3-0.2,0.7-0.3,1.1-0.3C83,354.5,83.6,354.7,84,355.2z"/>
<path class="st3" d="M88.6,354.7c0.3-0.2,0.7-0.3,1-0.2c0.4,0,0.9,0.1,1.3,0.4c0.4,0.2,0.7,0.6,0.9,1c0.2,0.5,0.3,1,0.3,1.5
	c0,0.5-0.1,1.1-0.3,1.5c-0.2,0.4-0.5,0.8-0.9,1c-0.4,0.2-0.8,0.4-1.3,0.4c-0.3,0-0.7-0.1-1-0.2c-0.3-0.1-0.5-0.4-0.7-0.6v3.6h-1.7
	v-8.4h1.7v0.8C88.1,355.1,88.3,354.9,88.6,354.7z M90.1,356.4c-0.2-0.2-0.6-0.4-0.9-0.4c-0.3,0-0.7,0.1-0.9,0.4
	c-0.5,0.6-0.5,1.4,0,2c0.2,0.2,0.5,0.4,0.9,0.4c0.3,0,0.7-0.1,0.9-0.4C90.5,357.8,90.5,356.9,90.1,356.4L90.1,356.4z"/>
<path class="st3" d="M95.9,354.8c0.3-0.2,0.6-0.3,1-0.3v1.8h-0.5c-0.4,0-0.7,0.1-1,0.3c-0.3,0.3-0.4,0.6-0.3,1v2.6h-1.7v-5.7h1.7v1
	C95.3,355.3,95.6,355,95.9,354.8z"/>
<path class="st3" d="M98.1,355.9c0.2-0.4,0.5-0.8,0.9-1c0.4-0.2,0.8-0.4,1.3-0.4c0.4,0,0.7,0.1,1.1,0.2c0.3,0.1,0.5,0.4,0.7,0.6
	v-0.8h1.7v5.7H102v-0.8c-0.2,0.3-0.4,0.5-0.7,0.6c-0.7,0.4-1.6,0.3-2.3-0.1c-0.4-0.2-0.7-0.6-0.9-1c-0.2-0.5-0.3-1-0.3-1.5
	C97.7,356.9,97.8,356.4,98.1,355.9z M101.6,356.4c-0.2-0.2-0.5-0.4-0.9-0.4c-0.3,0-0.7,0.1-0.9,0.4c-0.2,0.3-0.4,0.6-0.4,1
	c0,0.4,0.1,0.7,0.4,1c0.2,0.2,0.5,0.4,0.9,0.4c0.3,0,0.7-0.1,0.9-0.4C102.1,357.8,102.1,357,101.6,356.4L101.6,356.4z"/>
<path class="st3" d="M107.9,354.8c0.3-0.5,0.7-1,1.3-1.3c0.6-0.3,1.2-0.5,1.9-0.5c0.8,0,1.5,0.2,2.2,0.7c0.6,0.5,1,1.1,1.2,1.8h-1.9
	c-0.1-0.3-0.3-0.5-0.6-0.7c-0.3-0.2-0.6-0.2-0.9-0.2c-0.5,0-1,0.2-1.3,0.6c-0.7,0.9-0.7,2.1,0,3c0.3,0.4,0.8,0.6,1.3,0.6
	c0.3,0,0.6-0.1,0.9-0.2c0.3-0.2,0.5-0.4,0.6-0.7h1.9c-0.2,0.7-0.6,1.4-1.2,1.8c-0.6,0.5-1.4,0.7-2.2,0.7c-0.7,0-1.3-0.2-1.9-0.5
	c-0.5-0.3-1-0.7-1.3-1.3c-0.3-0.6-0.5-1.2-0.5-1.9C107.5,356,107.6,355.4,107.9,354.8z"/>
<path class="st3" d="M116.9,360c-0.4-0.2-0.8-0.6-1.1-1c-0.5-1-0.5-2.1,0-3.1c0.3-0.4,0.6-0.8,1.1-1c0.9-0.5,2.1-0.5,3,0
	c0.4,0.2,0.8,0.6,1,1c0.5,1,0.5,2.1,0,3.1c-0.3,0.4-0.6,0.8-1.1,1c-0.5,0.2-1,0.4-1.5,0.4C117.8,360.3,117.4,360.2,116.9,360z
	 M119.3,358.5c0.2-0.3,0.4-0.7,0.4-1c0-0.4-0.1-0.8-0.3-1c-0.4-0.5-1.2-0.5-1.7,0c0,0,0,0,0,0c-0.4,0.6-0.4,1.5,0,2.1
	c0.2,0.2,0.5,0.4,0.8,0.4C118.7,358.8,119,358.7,119.3,358.5z"/>
<path class="st3" d="M131.6,355.2c0.4,0.5,0.7,1.1,0.6,1.8v3.3h-1.7v-3.1c0-0.3-0.1-0.6-0.3-0.9c-0.2-0.2-0.5-0.3-0.8-0.3
	c-0.3,0-0.6,0.1-0.8,0.3c-0.2,0.2-0.3,0.5-0.3,0.9v3.1h-1.7v-3.1c0-0.3-0.1-0.6-0.3-0.9c-0.2-0.2-0.5-0.3-0.8-0.3
	c-0.3,0-0.6,0.1-0.8,0.3c-0.2,0.2-0.3,0.5-0.3,0.9v3.1h-1.7v-5.7h1.7v0.7c0.2-0.2,0.4-0.4,0.7-0.6c0.3-0.2,0.7-0.2,1-0.2
	c0.4,0,0.8,0.1,1.1,0.3c0.3,0.2,0.6,0.4,0.8,0.8c0.2-0.3,0.5-0.6,0.8-0.8c0.3-0.2,0.7-0.3,1.1-0.3
	C130.5,354.5,131.1,354.7,131.6,355.2z"/>
<path class="st3" d="M133.8,353.7c-0.2-0.2-0.3-0.4-0.3-0.7c0-0.3,0.1-0.5,0.3-0.7c0.2-0.2,0.5-0.3,0.8-0.3c0.3,0,0.5,0.1,0.7,0.3
	c0.2,0.2,0.3,0.4,0.3,0.7c0,0.3-0.1,0.5-0.3,0.7c-0.2,0.2-0.5,0.3-0.7,0.3C134.3,354,134,353.9,133.8,353.7z M135.4,354.6v5.7h-1.7
	v-5.7H135.4z"/>
<path class="st3" d="M137,355.9c0.2-0.4,0.5-0.8,0.9-1c0.4-0.2,0.8-0.4,1.3-0.4c0.3,0,0.7,0.1,1,0.2c0.3,0.1,0.5,0.4,0.7,0.6v-2.6
	h1.7v7.5h-1.7v-0.8c-0.2,0.3-0.4,0.5-0.7,0.6c-0.3,0.2-0.7,0.3-1.1,0.2c-0.5,0-0.9-0.1-1.3-0.4c-0.4-0.2-0.7-0.6-0.9-1
	c-0.2-0.5-0.3-1-0.3-1.5C136.6,356.9,136.7,356.4,137,355.9z M140.6,356.4c-0.5-0.5-1.2-0.5-1.7,0c0,0,0,0,0,0
	c-0.2,0.3-0.4,0.6-0.4,1c0,0.4,0.1,0.7,0.4,1c0.2,0.2,0.5,0.4,0.9,0.4c0.3,0,0.7-0.1,0.9-0.4C141,357.8,141,357,140.6,356.4
	L140.6,356.4z"/>
<path class="st3" d="M144.2,355.9c0.2-0.4,0.5-0.8,0.9-1c0.4-0.2,0.8-0.4,1.3-0.4c0.4,0,0.7,0.1,1.1,0.2c0.3,0.1,0.5,0.4,0.7,0.6
	v-0.8h1.7v5.7h-1.7v-0.8c-0.2,0.3-0.4,0.5-0.7,0.6c-0.3,0.2-0.7,0.3-1.1,0.2c-0.5,0-0.9-0.1-1.3-0.4c-0.4-0.2-0.7-0.6-0.9-1
	c-0.2-0.5-0.3-1-0.3-1.5C143.9,356.9,144,356.4,144.2,355.9z M147.8,356.4c-0.5-0.5-1.2-0.5-1.7,0c0,0,0,0,0,0
	c-0.3,0.3-0.4,0.6-0.4,1c0,0.4,0.1,0.7,0.4,1c0.2,0.2,0.5,0.4,0.9,0.4c0.3,0,0.7-0.1,0.9-0.4C148.2,357.8,148.2,357,147.8,356.4
	L147.8,356.4z"/>
<path class="st8" d="M63.2,370.7h-2.3l-0.4,1.2h-0.5l1.9-5h0.6l1.8,5h-0.5L63.2,370.7z M63,370.3l-1-2.7l-1,2.7H63z"/>
<path class="st8" d="M66.6,371.4l1.3-3.4h0.5l-1.6,4h-0.6l-1.6-4h0.5L66.6,371.4z"/>
<path class="st8" d="M72.9,370.1h-3.3c0,0.3,0.1,0.5,0.2,0.8c0.1,0.2,0.3,0.4,0.5,0.5c0.2,0.1,0.5,0.2,0.7,0.2
	c0.3,0,0.6-0.1,0.8-0.2c0.2-0.2,0.4-0.4,0.4-0.6h0.5c-0.1,0.4-0.3,0.7-0.6,0.9c-0.3,0.3-0.8,0.4-1.2,0.4c-0.3,0-0.7-0.1-1-0.2
	c-0.3-0.2-0.6-0.4-0.7-0.7c-0.2-0.3-0.3-0.7-0.3-1.1c0-0.4,0.1-0.8,0.2-1.1c0.2-0.3,0.4-0.5,0.7-0.7c0.3-0.2,0.7-0.2,1-0.2
	c0.3,0,0.7,0.1,1,0.2c0.3,0.2,0.5,0.4,0.7,0.7c0.2,0.3,0.2,0.6,0.2,0.9C72.9,369.9,72.9,370,72.9,370.1z M72.3,369
	c-0.1-0.2-0.3-0.4-0.5-0.5c-0.2-0.1-0.5-0.2-0.7-0.2c-0.4,0-0.7,0.1-1,0.4c-0.3,0.3-0.4,0.6-0.4,1h2.8
	C72.4,369.5,72.4,369.2,72.3,369z"/>
<path class="st8" d="M75.1,368.1c0.3-0.1,0.6-0.2,0.8-0.2v0.5h-0.1c-0.6-0.1-1.2,0.4-1.2,1c0,0.1,0,0.2,0,0.3v2.2h-0.5v-4h0.5v0.7
	C74.7,368.4,74.9,368.2,75.1,368.1z"/>
<path class="st8" d="M77.1,371.8c-0.1-0.1-0.1-0.2-0.1-0.3c0-0.1,0-0.2,0.1-0.3c0.1-0.1,0.2-0.1,0.3-0.1c0.1,0,0.2,0,0.3,0.1
	c0.1,0.1,0.1,0.2,0.1,0.3c0,0.2-0.1,0.4-0.3,0.4c0,0-0.1,0-0.1,0C77.3,372,77.2,371.9,77.1,371.8z M77.6,366.8l-0.1,3.7h-0.4
	l-0.1-3.7H77.6z"/>
<path class="st4" d="M226.4,363v0.8h-4.1V363H226.4z"/>
<path class="st4" d="M232.7,366.1c-0.2,0.3-0.4,0.6-0.7,0.7c-0.3,0.2-0.7,0.3-1.1,0.3v0.8h-0.5v-0.8c-0.6,0-1.1-0.2-1.5-0.6
	c-0.4-0.3-0.6-0.8-0.6-1.3h1c0,0.3,0.1,0.5,0.3,0.7c0.2,0.2,0.5,0.4,0.8,0.4v-2.5c-0.4-0.1-0.7-0.2-1.1-0.4
	c-0.3-0.1-0.5-0.3-0.7-0.6c-0.2-0.3-0.3-0.6-0.3-1c0-0.5,0.2-1,0.6-1.4c0.4-0.4,1-0.6,1.5-0.6v-0.9h0.6v0.9c0.5,0,1,0.2,1.4,0.5
	c0.4,0.3,0.6,0.8,0.6,1.3h-1c0-0.2-0.1-0.5-0.3-0.6c-0.2-0.2-0.4-0.3-0.7-0.4v2.5c0.4,0.1,0.7,0.2,1.1,0.4c0.3,0.1,0.5,0.3,0.7,0.6
	c0.2,0.3,0.3,0.7,0.3,1C233,365.5,232.9,365.8,232.7,366.1z M229.5,362.6c0.3,0.2,0.6,0.4,0.9,0.4v-2.4c-0.3,0-0.6,0.1-0.9,0.3
	c-0.2,0.2-0.3,0.5-0.3,0.8C229.2,362.2,229.3,362.4,229.5,362.6z M231.7,366.1c0.2-0.2,0.3-0.5,0.3-0.8c0-0.3-0.1-0.6-0.3-0.8
	c-0.3-0.2-0.5-0.4-0.9-0.4v2.4C231.2,366.4,231.5,366.3,231.7,366.1z"/>
<path class="st4" d="M234.6,360.6v-0.9h1.9v7.4h-0.9v-6.5L234.6,360.6z"/>
<path class="st4" d="M243.1,360.6h-3.6v2.3c0.2-0.2,0.4-0.4,0.7-0.5c0.3-0.1,0.7-0.2,1-0.2c0.5,0,1,0.1,1.4,0.4
	c0.3,0.2,0.6,0.5,0.8,0.9c0.3,0.8,0.3,1.7,0,2.5c-0.2,0.4-0.5,0.7-0.8,0.9c-0.4,0.2-0.9,0.3-1.4,0.3c-0.6,0-1.2-0.2-1.7-0.5
	c-0.4-0.4-0.7-0.9-0.8-1.5h0.9c0.1,0.4,0.3,0.7,0.6,0.9c0.3,0.2,0.7,0.3,1.1,0.3c0.5,0,0.9-0.1,1.2-0.5c0.3-0.4,0.4-0.8,0.4-1.3
	c0-0.4-0.1-0.9-0.4-1.2c-0.3-0.3-0.8-0.5-1.2-0.4c-0.3,0-0.7,0.1-0.9,0.3c-0.3,0.2-0.5,0.4-0.6,0.7h-0.9v-4.2h4.4L243.1,360.6z"/>
<path class="st4" d="M245.7,360.7c0.4-0.7,1.2-1.1,2-1c0.8-0.1,1.6,0.3,2,1c0.4,0.8,0.6,1.8,0.6,2.7c0,1-0.1,1.9-0.6,2.8
	c-0.4,0.7-1.2,1.1-2,1c-0.8,0.1-1.6-0.3-2-1c-0.4-0.9-0.6-1.8-0.6-2.8C245.1,362.4,245.3,361.5,245.7,360.7z M249.2,361.9
	c-0.1-0.4-0.2-0.7-0.5-1c-0.6-0.5-1.5-0.5-2.1,0c-0.3,0.3-0.4,0.6-0.5,1c-0.2,1-0.2,2,0,3c0,0.4,0.2,0.7,0.5,1
	c0.6,0.5,1.5,0.5,2.1,0c0.3-0.3,0.4-0.6,0.5-1C249.4,363.9,249.4,362.9,249.2,361.9z"/>
<path class="st7" d="M26.8,396.6h16.9c2.8,0,5,2.2,5,5v16.9c0,2.8-2.2,5-5,5H26.8c-2.8,0-5-2.2-5-5v-16.9
	C21.8,398.9,24.1,396.6,26.8,396.6z"/>
<path class="st3" d="M67,401.2l-2.5,7.1h-2.2l-2.5-7.1h1.8l1.8,5.4l1.8-5.4H67z"/>
<path class="st3" d="M73.3,406h-4c0,0.3,0.1,0.6,0.3,0.8c0.2,0.2,0.5,0.3,0.7,0.3c0.4,0,0.8-0.2,0.9-0.5h1.8c-0.1,0.4-0.3,0.7-0.5,1
	c-0.3,0.3-0.6,0.5-0.9,0.7c-0.4,0.2-0.8,0.3-1.3,0.2c-0.5,0-1-0.1-1.5-0.4c-0.4-0.2-0.8-0.6-1-1c-0.3-0.5-0.4-1-0.4-1.5
	c0-0.5,0.1-1.1,0.4-1.5c0.2-0.4,0.6-0.8,1-1c0.5-0.2,1-0.4,1.5-0.4c0.5,0,1,0.1,1.5,0.3c0.4,0.2,0.8,0.6,1,1c0.2,0.5,0.4,1,0.4,1.5
	C73.3,405.7,73.3,405.8,73.3,406z M71.6,405c0-0.3-0.1-0.5-0.3-0.7c-0.2-0.2-0.5-0.3-0.8-0.3c-0.3,0-0.5,0.1-0.7,0.3
	c-0.2,0.2-0.4,0.4-0.4,0.7H71.6z"/>
<path class="st3" d="M79.6,403.3c0.4,0.5,0.6,1.1,0.6,1.8v3.3h-1.7v-3.1c0-0.3-0.1-0.6-0.3-0.9c-0.4-0.4-1.1-0.4-1.6,0
	c-0.2,0.2-0.3,0.6-0.3,0.9v3.1h-1.7v-5.7h1.8v0.8c0.2-0.3,0.4-0.5,0.7-0.6c0.3-0.2,0.7-0.2,1-0.2C78.7,402.6,79.2,402.8,79.6,403.3z
	"/>
<path class="st3" d="M84.9,406.9v1.5H84c-0.5,0-1.1-0.1-1.5-0.5c-0.4-0.4-0.6-1-0.5-1.5v-2.3h-0.7v-1.4H82v-1.4h1.7v1.4h1.1v1.5
	h-1.2v2.3c0,0.1,0,0.3,0.1,0.4c0.1,0.1,0.3,0.1,0.4,0.1H84.9z"/>
<path class="st3" d="M86.2,404c0.2-0.4,0.5-0.8,0.9-1c0.4-0.2,0.8-0.4,1.3-0.4c0.4,0,0.7,0.1,1.1,0.2c0.3,0.2,0.5,0.4,0.7,0.6v-0.8
	h1.7v5.7h-1.7v-0.8c-0.2,0.3-0.4,0.5-0.7,0.6c-0.3,0.2-0.7,0.2-1.1,0.2c-0.4,0-0.9-0.1-1.3-0.4c-0.4-0.2-0.7-0.6-0.9-1
	C85.7,406.1,85.7,405,86.2,404L86.2,404z M89.7,404.5c-0.5-0.5-1.2-0.5-1.7,0c0,0,0,0,0,0c-0.2,0.3-0.4,0.6-0.4,1
	c0,0.4,0.1,0.7,0.4,1c0.2,0.3,0.5,0.4,0.9,0.4c0.3,0,0.7-0.1,0.9-0.4C90.2,405.9,90.2,405.1,89.7,404.5L89.7,404.5z"/>
<path class="st3" d="M94.3,408.2c-0.4-0.1-0.7-0.4-0.9-0.7c-0.2-0.3-0.3-0.6-0.4-1h1.7c0,0.2,0.1,0.4,0.3,0.5
	c0.2,0.1,0.4,0.2,0.6,0.2c0.2,0,0.4,0,0.5-0.1c0.1-0.1,0.2-0.2,0.2-0.3c0-0.2-0.1-0.3-0.3-0.4c-0.3-0.1-0.5-0.2-0.8-0.3
	c-0.3-0.1-0.7-0.2-1-0.3c-0.3-0.1-0.5-0.3-0.7-0.5c-0.2-0.3-0.3-0.6-0.3-0.9c0-0.3,0.1-0.6,0.3-0.9c0.2-0.3,0.5-0.5,0.8-0.6
	c0.4-0.2,0.8-0.2,1.2-0.2c0.6,0,1.2,0.2,1.7,0.5c0.4,0.4,0.7,0.9,0.7,1.4h-1.6c0-0.2-0.1-0.4-0.3-0.5c-0.2-0.1-0.4-0.2-0.6-0.2
	c-0.2,0-0.3,0-0.5,0.1c-0.1,0.1-0.2,0.2-0.2,0.3c0,0.2,0.1,0.3,0.3,0.4c0.3,0.1,0.5,0.2,0.8,0.2c0.4,0.1,0.8,0.2,1,0.3
	c0.3,0.1,0.5,0.3,0.7,0.5c0.2,0.3,0.3,0.6,0.3,0.9c0,0.3-0.1,0.6-0.3,0.9c-0.2,0.3-0.5,0.5-0.8,0.6c-0.4,0.2-0.8,0.2-1.2,0.2
	C95.2,408.4,94.8,408.4,94.3,408.2z"/>
<path class="st3" d="M101.8,404c0.2-0.4,0.5-0.8,0.9-1c0.4-0.2,0.8-0.4,1.3-0.4c0.3,0,0.7,0.1,1,0.2c0.3,0.1,0.5,0.4,0.7,0.6v-2.6
	h1.7v7.5h-1.7v-0.8c-0.2,0.3-0.4,0.5-0.7,0.6c-0.3,0.2-0.7,0.2-1,0.2c-0.4,0-0.9-0.1-1.3-0.4c-0.4-0.2-0.7-0.6-0.9-1
	C101.4,406.1,101.4,405,101.8,404L101.8,404z M105.4,404.5c-0.5-0.5-1.2-0.5-1.7,0c0,0,0,0,0,0c-0.2,0.3-0.4,0.6-0.4,1
	c0,0.4,0.1,0.7,0.4,1c0.2,0.3,0.5,0.4,0.9,0.4c0.3,0,0.7-0.1,0.9-0.4C105.9,405.9,105.9,405.1,105.4,404.5L105.4,404.5z"/>
<path class="st3" d="M114.3,406h-3.9c0,0.3,0.1,0.6,0.3,0.8c0.2,0.2,0.5,0.3,0.7,0.3c0.4,0,0.7-0.2,0.9-0.5h1.9
	c-0.1,0.4-0.3,0.7-0.5,1c-0.3,0.3-0.6,0.5-0.9,0.7c-0.4,0.2-0.8,0.3-1.2,0.2c-0.5,0-1-0.1-1.5-0.4c-0.4-0.2-0.8-0.6-1-1
	c-0.5-1-0.5-2.1,0-3.1c0.2-0.4,0.6-0.8,1-1c0.5-0.2,1-0.4,1.5-0.4c0.5,0,1,0.1,1.5,0.3c0.4,0.2,0.8,0.6,1,1c0.2,0.5,0.4,1,0.4,1.5
	C114.4,405.7,114.4,405.8,114.3,406z M112.6,405c0-0.3-0.1-0.5-0.3-0.7c-0.5-0.4-1.2-0.4-1.6,0.1c-0.2,0.2-0.3,0.4-0.3,0.6H112.6z"
	/>
<path class="st3" d="M117.3,400.8v7.5h-1.7v-7.5H117.3z"/>
<path class="st3" d="M126.1,401.7c0.5,0.3,1,0.7,1.3,1.3c0.6,1.2,0.6,2.6,0,3.7c-0.3,0.5-0.8,1-1.3,1.3c-0.6,0.3-1.3,0.5-2,0.5h-2.7
	v-7.1h2.7C124.8,401.2,125.4,401.3,126.1,401.7z M125.5,406.3c0.4-0.4,0.6-1,0.6-1.5c0-0.6-0.2-1.1-0.6-1.5c-0.4-0.4-1-0.6-1.5-0.5
	h-0.8v4.1h0.8C124.5,406.9,125.1,406.7,125.5,406.3z"/>
<path class="st3" d="M131.4,401.3l-2.5,1v-1.2l2.5-1.2V401.3z M131,402.7v5.7h-1.8v-5.7H131z"/>
<path class="st3" d="M132.7,404c0.2-0.4,0.5-0.8,0.9-1c0.4-0.2,0.8-0.4,1.3-0.4c0.4,0,0.7,0.1,1.1,0.2c0.3,0.2,0.5,0.4,0.7,0.6v-0.8
	h1.8v5.7h-1.7v-0.8c-0.2,0.3-0.4,0.5-0.7,0.6c-0.3,0.2-0.7,0.2-1.1,0.2c-0.4,0-0.9-0.1-1.3-0.4c-0.4-0.2-0.7-0.6-0.9-1
	C132.3,406.1,132.3,405,132.7,404L132.7,404z M136.2,404.5c-0.5-0.5-1.2-0.5-1.7,0c0,0,0,0,0,0c-0.2,0.3-0.4,0.6-0.4,1
	c0,0.4,0.1,0.7,0.4,1c0.2,0.3,0.5,0.4,0.9,0.4c0.3,0,0.7-0.1,0.9-0.4C136.7,405.9,136.7,405.1,136.2,404.5L136.2,404.5z"/>
<path class="st8" d="M63.2,415v0.4h-1.4v4.6h-0.5v-4.7h-1.4V415H63.2z"/>
<path class="st8" d="M64.2,415.2c-0.1-0.1-0.1-0.2-0.1-0.3c0-0.1,0-0.2,0.1-0.3c0.1-0.1,0.2-0.1,0.3-0.1c0.1,0,0.2,0,0.3,0.1
	c0.1,0.1,0.1,0.2,0.1,0.3c0,0.1,0,0.2-0.1,0.3c-0.1,0.1-0.2,0.1-0.3,0.1C64.4,415.3,64.3,415.3,64.2,415.2z M64.7,416v4h-0.5v-4
	H64.7z"/>
<path class="st8" d="M69.7,418.2h-3.3c0,0.3,0.1,0.5,0.2,0.8c0.1,0.2,0.3,0.4,0.5,0.5c0.2,0.1,0.5,0.2,0.7,0.2
	c0.3,0,0.6-0.1,0.8-0.2c0.2-0.2,0.4-0.4,0.4-0.6h0.5c-0.1,0.4-0.3,0.8-0.6,1c-0.3,0.3-0.8,0.4-1.2,0.4c-0.3,0-0.7-0.1-1-0.2
	c-0.3-0.2-0.5-0.4-0.7-0.7c-0.3-0.7-0.3-1.5,0-2.2c0.2-0.3,0.4-0.6,0.7-0.7c0.3-0.2,0.7-0.3,1-0.2c0.4,0,0.7,0.1,1,0.2
	c0.3,0.2,0.5,0.4,0.7,0.7c0.2,0.3,0.2,0.6,0.2,0.9C69.7,418,69.7,418.1,69.7,418.2z M69,417c-0.1-0.2-0.3-0.4-0.5-0.5
	c-0.2-0.1-0.5-0.2-0.7-0.2c-0.4,0-0.7,0.1-1,0.4c-0.3,0.3-0.4,0.6-0.4,1h2.8C69.2,417.5,69.1,417.3,69,417L69,417z"/>
<path class="st8" d="M73.8,416.4c0.3,0.3,0.5,0.8,0.5,1.3v2.3h-0.5v-2.3c0-0.4-0.1-0.7-0.3-1c-0.2-0.2-0.6-0.4-0.9-0.3
	c-0.3,0-0.7,0.1-0.9,0.4c-0.3,0.3-0.4,0.7-0.3,1.1v2.2h-0.5v-4h0.5v0.7c0.1-0.2,0.3-0.4,0.6-0.6c0.2-0.1,0.5-0.2,0.8-0.2
	C73.1,415.9,73.6,416.1,73.8,416.4z"/>
<path class="st8" d="M75.7,417c0.2-0.3,0.4-0.5,0.7-0.7c0.3-0.2,0.7-0.3,1-0.2c0.4,0,0.7,0.1,1,0.3c0.3,0.2,0.5,0.4,0.6,0.7v-2.3
	h0.4v5.3h-0.5v-0.9c-0.1,0.3-0.3,0.5-0.6,0.7c-0.3,0.2-0.6,0.3-1,0.3c-0.4,0-0.7-0.1-1-0.3c-0.3-0.2-0.5-0.4-0.7-0.7
	c-0.2-0.3-0.2-0.7-0.2-1.1C75.4,417.6,75.5,417.3,75.7,417z M78.7,417.2c-0.1-0.2-0.3-0.4-0.5-0.6c-0.2-0.1-0.5-0.2-0.7-0.2
	c-0.3,0-0.5,0.1-0.8,0.2c-0.2,0.1-0.4,0.3-0.5,0.5c-0.3,0.5-0.3,1.2,0,1.7c0.1,0.2,0.3,0.4,0.5,0.6c0.2,0.1,0.5,0.2,0.8,0.2
	c0.3,0,0.5-0.1,0.7-0.2c0.2-0.1,0.4-0.3,0.5-0.6c0.1-0.3,0.2-0.5,0.2-0.8C78.9,417.8,78.8,417.5,78.7,417.2L78.7,417.2z"/>
<path class="st8" d="M80.8,417c0.1-0.3,0.4-0.5,0.7-0.7c0.3-0.2,0.7-0.3,1-0.2c0.4,0,0.7,0.1,1,0.3c0.3,0.2,0.5,0.4,0.6,0.7v-0.9
	h0.5v4H84v-0.9c-0.1,0.3-0.3,0.5-0.6,0.7c-0.3,0.2-0.6,0.3-1,0.3c-0.4,0-0.7-0.1-1-0.3c-0.3-0.2-0.5-0.4-0.7-0.7
	c-0.2-0.3-0.3-0.7-0.2-1.1C80.5,417.7,80.6,417.3,80.8,417z M83.8,417.2c-0.1-0.2-0.3-0.4-0.5-0.6c-0.2-0.1-0.5-0.2-0.8-0.2
	c-0.3,0-0.5,0.1-0.8,0.2c-0.2,0.1-0.4,0.3-0.5,0.5c-0.3,0.5-0.3,1.2,0,1.7c0.1,0.2,0.3,0.4,0.5,0.6c0.2,0.1,0.5,0.2,0.8,0.2
	c0.3,0,0.5-0.1,0.8-0.2c0.2-0.1,0.4-0.3,0.5-0.6c0.1-0.3,0.2-0.5,0.2-0.8C84,417.8,83.9,417.5,83.8,417.2L83.8,417.2z"/>
<path class="st8" d="M90.8,420l-1.3-2.1h-0.9v2.1h-0.5v-5h1.5c0.5,0,0.9,0.1,1.3,0.4c0.5,0.5,0.6,1.4,0.1,2
	c-0.2,0.3-0.6,0.4-0.9,0.5l1.3,2.2L90.8,420z M88.6,417.4h1c0.3,0,0.6-0.1,0.9-0.3c0.4-0.4,0.4-1.1,0-1.5c-0.3-0.2-0.6-0.3-0.9-0.3
	h-1L88.6,417.4z"/>
<path class="st8" d="M93.3,419.8c-0.3-0.2-0.5-0.4-0.7-0.7c-0.2-0.3-0.3-0.7-0.3-1.1c0-0.4,0.1-0.8,0.3-1.1c0.2-0.3,0.4-0.6,0.7-0.7
	c0.3-0.2,0.7-0.2,1-0.2c0.3,0,0.7,0.1,1,0.2c0.3,0.2,0.5,0.4,0.7,0.7c0.2,0.3,0.3,0.7,0.3,1.1c0,0.4-0.1,0.7-0.3,1.1
	c-0.2,0.3-0.4,0.5-0.7,0.7c-0.3,0.2-0.7,0.3-1,0.2C94,420.1,93.7,420,93.3,419.8z M95.1,419.5c0.2-0.1,0.4-0.3,0.5-0.5
	c0.3-0.6,0.3-1.2,0-1.8c-0.1-0.2-0.3-0.4-0.5-0.5c-0.5-0.2-1-0.2-1.4,0c-0.2,0.1-0.4,0.3-0.5,0.5c-0.3,0.6-0.3,1.2,0,1.8
	c0.1,0.2,0.3,0.4,0.5,0.5C94.1,419.7,94.6,419.7,95.1,419.5z"/>
<path class="st8" d="M98.6,416.2c0.3-0.2,0.6-0.3,1-0.3c0.3,0,0.7,0.1,1,0.2c0.3,0.2,0.5,0.4,0.7,0.7c0.2,0.3,0.3,0.7,0.2,1.1
	c0,0.4-0.1,0.7-0.2,1.1c-0.2,0.3-0.4,0.5-0.7,0.7c-0.3,0.2-0.6,0.3-1,0.3c-0.4,0-0.7-0.1-1-0.3c-0.3-0.2-0.5-0.4-0.6-0.7v2.8h-0.5
	V416H98v0.9C98.1,416.6,98.3,416.4,98.6,416.2z M100.8,417.2c-0.1-0.2-0.3-0.4-0.5-0.5c-0.2-0.1-0.5-0.2-0.8-0.2
	c-0.3,0-0.5,0.1-0.8,0.2c-0.2,0.1-0.4,0.3-0.5,0.6c-0.1,0.3-0.2,0.6-0.2,0.9c0,0.3,0.1,0.6,0.2,0.8c0.1,0.2,0.3,0.4,0.5,0.6
	c0.2,0.1,0.5,0.2,0.8,0.2c0.3,0,0.5-0.1,0.8-0.2c0.2-0.1,0.4-0.3,0.5-0.6C101,418.3,101,417.7,100.8,417.2L100.8,417.2z"/>
<path class="st8" d="M102.6,417c0.1-0.3,0.4-0.5,0.7-0.7c0.3-0.2,0.7-0.3,1-0.2c0.4,0,0.7,0.1,1,0.3c0.3,0.2,0.5,0.4,0.6,0.7v-0.9
	h0.5v4h-0.5v-0.9c-0.1,0.3-0.3,0.5-0.6,0.7c-0.3,0.2-0.6,0.3-1,0.3c-0.4,0-0.7-0.1-1-0.3c-0.3-0.2-0.5-0.4-0.7-0.7
	c-0.2-0.4-0.3-0.8-0.2-1.2C102.4,417.6,102.5,417.3,102.6,417z M105.6,417.2c-0.1-0.2-0.3-0.4-0.5-0.6c-0.2-0.1-0.5-0.2-0.8-0.2
	c-0.3,0-0.5,0.1-0.8,0.2c-0.2,0.1-0.4,0.3-0.5,0.5c-0.3,0.5-0.3,1.2,0,1.7c0.1,0.2,0.3,0.4,0.5,0.6c0.2,0.1,0.5,0.2,0.8,0.2
	c0.3,0,0.5-0.1,0.8-0.2c0.2-0.1,0.4-0.3,0.5-0.6c0.1-0.3,0.2-0.5,0.2-0.8C105.9,417.8,105.8,417.5,105.6,417.2L105.6,417.2z"/>
<path class="st9" d="M214.7,411.9h-2.2v2.2h-0.9v-2.2h-2.2v-0.8h2.2V409h0.9v2.2h2.2V411.9z"/>
<path class="st9" d="M221,414.2c-0.2,0.3-0.4,0.6-0.7,0.7c-0.3,0.2-0.7,0.3-1.1,0.3v0.8h-0.6v-0.8c-0.6,0-1.1-0.2-1.5-0.6
	c-0.4-0.3-0.6-0.8-0.6-1.3h1c0,0.3,0.1,0.5,0.3,0.7c0.2,0.2,0.5,0.4,0.8,0.4V412c-0.4-0.1-0.7-0.2-1.1-0.4c-0.3-0.1-0.5-0.3-0.7-0.6
	c-0.2-0.3-0.3-0.6-0.3-1c0-0.5,0.2-1,0.6-1.4c0.4-0.4,1-0.6,1.5-0.6v-0.8h0.6v0.8c0.5,0,1,0.2,1.4,0.6c0.4,0.3,0.6,0.8,0.6,1.2h-1
	c0-0.2-0.2-0.5-0.3-0.6c-0.2-0.2-0.4-0.3-0.7-0.4v2.5c0.4,0.1,0.7,0.2,1.1,0.4c0.6,0.3,1.1,0.9,1,1.6
	C221.2,413.6,221.1,414,221,414.2z M217.7,410.8c0.3,0.2,0.6,0.4,0.9,0.4v-2.4c-0.3,0-0.6,0.1-0.9,0.3c-0.2,0.2-0.3,0.5-0.3,0.8
	C217.4,410.3,217.5,410.5,217.7,410.8L217.7,410.8z M220,414.2c0.2-0.2,0.3-0.5,0.3-0.8c0-0.3-0.1-0.6-0.3-0.8
	c-0.3-0.2-0.5-0.4-0.9-0.4v2.4C219.4,414.5,219.8,414.4,220,414.2L220,414.2z"/>
<path class="st9" d="M223.8,408.3c0.5-0.4,1.1-0.6,1.7-0.5c0.4,0,0.8,0.1,1.2,0.2c0.3,0.1,0.6,0.4,0.8,0.7c0.2,0.3,0.3,0.6,0.3,1
	c0,0.4-0.1,0.8-0.4,1.1c-0.2,0.3-0.6,0.5-0.9,0.6v0c0.4,0.1,0.7,0.3,1,0.6c0.3,0.4,0.4,0.8,0.4,1.3c0,0.4-0.1,0.7-0.3,1
	c-0.2,0.3-0.5,0.6-0.8,0.7c-0.4,0.2-0.8,0.3-1.3,0.3c-0.6,0-1.3-0.2-1.8-0.6c-0.5-0.4-0.8-1-0.8-1.6h0.9c0,0.4,0.2,0.7,0.5,1
	c0.3,0.3,0.7,0.4,1.1,0.4c0.4,0,0.8-0.1,1.1-0.4c0.3-0.3,0.4-0.6,0.4-1c0-0.4-0.2-0.8-0.5-1.1c-0.5-0.3-1-0.4-1.5-0.3h-0.2V411h0.2
	c0.5,0,1-0.1,1.4-0.3c0.3-0.2,0.5-0.6,0.5-0.9c0-0.3-0.1-0.6-0.4-0.9c-0.3-0.2-0.6-0.4-1-0.3c-0.4,0-0.7,0.1-1,0.3
	c-0.3,0.2-0.4,0.5-0.4,0.9h-0.9C223.1,409.2,223.4,408.6,223.8,408.3z"/>
<path class="st9" d="M230.5,414l-1.2,2.7h-0.6l0.7-2.7L230.5,414z"/>
<path class="st9" d="M232.4,408.8c0.8-1.1,2.4-1.3,3.5-0.5c0.2,0.1,0.3,0.3,0.5,0.5c0.4,0.8,0.6,1.8,0.6,2.7c0.1,1-0.1,1.9-0.6,2.8
	c-0.8,1.1-2.4,1.3-3.5,0.5c-0.2-0.1-0.3-0.3-0.5-0.5c-0.4-0.9-0.6-1.8-0.6-2.8C231.7,410.5,231.9,409.6,232.4,408.8z M235.9,410
	c-0.1-0.4-0.2-0.7-0.5-1c-0.6-0.5-1.5-0.5-2.1,0c-0.3,0.3-0.4,0.6-0.5,1c-0.1,0.5-0.1,1-0.1,1.5c0,0.5,0,1,0.1,1.5
	c0.1,0.4,0.2,0.7,0.5,1c0.6,0.5,1.5,0.5,2.1,0c0.3-0.3,0.4-0.6,0.5-1c0.1-0.5,0.1-1,0.1-1.5C236,411,235.9,410.5,235.9,410
	L235.9,410z"/>
<path class="st9" d="M243.1,408.7h-3.6v2.3c0.2-0.2,0.4-0.4,0.7-0.5c0.3-0.1,0.7-0.2,1-0.2c0.5,0,1,0.1,1.4,0.4
	c0.3,0.2,0.6,0.5,0.8,0.9c0.3,0.8,0.3,1.7,0,2.5c-0.2,0.4-0.5,0.7-0.8,0.9c-0.4,0.2-0.9,0.3-1.4,0.3c-0.6,0-1.2-0.2-1.7-0.5
	c-0.4-0.4-0.7-0.9-0.8-1.5h0.9c0.1,0.4,0.3,0.7,0.6,0.9c0.3,0.2,0.7,0.3,1.1,0.3c0.4,0,0.9-0.1,1.2-0.5c0.3-0.4,0.4-0.8,0.4-1.3
	c0-0.4-0.1-0.9-0.4-1.2c-0.3-0.3-0.8-0.5-1.2-0.4c-0.3,0-0.7,0.1-0.9,0.3c-0.3,0.2-0.5,0.4-0.6,0.7h-0.9v-4.1h4.4L243.1,408.7z"/>
<path class="st9" d="M245.7,408.8c0.4-0.7,1.2-1.1,2-1c0.8-0.1,1.6,0.3,2,1c0.4,0.8,0.6,1.8,0.6,2.7c0.1,1-0.1,1.9-0.6,2.8
	c-0.4,0.7-1.2,1.1-2,1c-0.8,0.1-1.6-0.3-2-1c-0.4-0.9-0.6-1.8-0.6-2.8C245.1,410.5,245.3,409.6,245.7,408.8z M249.2,410
	c-0.1-0.4-0.2-0.7-0.5-1c-0.6-0.5-1.5-0.5-2.1,0c-0.3,0.3-0.4,0.6-0.5,1c-0.1,0.5-0.1,1-0.1,1.5c0,0.5,0,1,0.1,1.5
	c0.1,0.4,0.2,0.7,0.5,1c0.6,0.5,1.5,0.5,2.1,0c0.3-0.3,0.4-0.6,0.5-1c0.1-0.5,0.1-1,0.1-1.5C249.4,411,249.3,410.5,249.2,410
	L249.2,410z"/>
<path class="st7" d="M26.8,444.8h16.9c2.8,0,5,2.2,5,5v16.9c0,2.8-2.2,5-5,5H26.8c-2.8,0-5-2.2-5-5v-16.9
	C21.8,447,24.1,444.8,26.8,444.8z"/>
<path class="st3" d="M60.4,451c0.3-0.5,0.7-1,1.3-1.3c0.6-0.3,1.2-0.5,1.9-0.5c0.8,0,1.5,0.2,2.2,0.7c0.6,0.5,1,1.1,1.2,1.8H65
	c-0.1-0.3-0.3-0.5-0.6-0.7c-0.3-0.2-0.6-0.2-0.9-0.2c-0.5,0-1,0.2-1.3,0.6c-0.7,0.9-0.7,2.1,0,3c0.3,0.4,0.8,0.6,1.3,0.6
	c0.3,0,0.6-0.1,0.9-0.2c0.3-0.2,0.5-0.4,0.6-0.7h1.9c-0.2,0.7-0.6,1.4-1.2,1.8c-0.6,0.5-1.4,0.7-2.2,0.7c-0.6,0-1.3-0.2-1.9-0.5
	c-0.5-0.3-1-0.7-1.3-1.3C59.8,453.6,59.8,452.2,60.4,451L60.4,451z"/>
<path class="st3" d="M69.4,456.2c-0.4-0.2-0.8-0.6-1-1c-0.3-0.5-0.4-1-0.4-1.5c0-0.5,0.1-1.1,0.4-1.5c0.3-0.4,0.6-0.8,1.1-1
	c0.9-0.5,2.1-0.5,3,0c0.4,0.2,0.8,0.6,1.1,1c0.3,0.5,0.4,1,0.4,1.5c0,0.5-0.1,1.1-0.4,1.5c-0.3,0.4-0.6,0.8-1.1,1
	c-0.5,0.2-1,0.4-1.5,0.4C70.4,456.6,69.9,456.4,69.4,456.2z M71.8,454.7c0.2-0.3,0.4-0.7,0.3-1c0-0.4-0.1-0.7-0.3-1
	c-0.4-0.5-1.2-0.5-1.6-0.1c0,0,0,0-0.1,0.1c-0.2,0.3-0.4,0.7-0.3,1.1c0,0.4,0.1,0.8,0.3,1c0.2,0.2,0.5,0.4,0.8,0.4
	C71.2,455.1,71.5,454.9,71.8,454.7L71.8,454.7z"/>
<path class="st3" d="M84,451.4c0.4,0.5,0.7,1.1,0.6,1.8v3.3h-1.7v-3.1c0-0.3-0.1-0.6-0.3-0.9c-0.5-0.4-1.1-0.4-1.6,0
	c-0.2,0.2-0.3,0.5-0.3,0.9v3.1H79v-3.1c0-0.3-0.1-0.6-0.3-0.9c-0.2-0.2-0.5-0.3-0.8-0.3c-0.3,0-0.6,0.1-0.8,0.3
	c-0.2,0.2-0.3,0.5-0.3,0.9v3.1h-1.7v-5.7h1.7v0.7c0.2-0.2,0.4-0.4,0.7-0.6c0.3-0.1,0.7-0.2,1-0.2c0.4,0,0.8,0.1,1.1,0.3
	c0.3,0.2,0.6,0.4,0.8,0.8c0.2-0.3,0.5-0.6,0.8-0.8c0.3-0.2,0.7-0.3,1.1-0.3C83,450.7,83.6,450.9,84,451.4z"/>
<path class="st3" d="M88.6,451c0.3-0.2,0.7-0.2,1-0.2c0.4,0,0.9,0.1,1.3,0.4c0.4,0.2,0.7,0.6,0.9,1c0.4,1,0.4,2.1,0,3.1
	c-0.2,0.4-0.5,0.8-0.9,1c-0.4,0.2-0.8,0.4-1.3,0.4c-0.3,0-0.7-0.1-1-0.2c-0.3-0.2-0.5-0.4-0.7-0.6v3.5h-1.7v-8.4h1.7v0.8
	C88.1,451.3,88.4,451.1,88.6,451z M90.1,452.6c-0.2-0.2-0.6-0.4-0.9-0.4c-0.3,0-0.7,0.1-0.9,0.4c-0.3,0.3-0.4,0.6-0.4,1
	c0,0.4,0.1,0.7,0.4,1c0.5,0.5,1.2,0.5,1.7,0c0,0,0,0,0,0c0.3-0.3,0.4-0.6,0.4-1C90.4,453.2,90.3,452.9,90.1,452.6L90.1,452.6z"/>
<path class="st3" d="M95.9,451c0.3-0.2,0.6-0.3,1-0.3v1.8h-0.5c-0.4,0-0.7,0.1-1,0.3c-0.3,0.3-0.4,0.6-0.3,1v2.6h-1.7v-5.7h1.7v0.9
	C95.3,451.4,95.6,451.2,95.9,451z"/>
<path class="st3" d="M98.1,452.1c0.2-0.4,0.5-0.8,0.9-1c0.4-0.2,0.8-0.4,1.3-0.4c0.4,0,0.7,0.1,1.1,0.2c0.3,0.2,0.5,0.4,0.7,0.6
	v-0.8h1.7v5.7H102v-0.8c-0.2,0.3-0.4,0.5-0.7,0.6c-0.3,0.2-0.7,0.2-1.1,0.2c-0.4,0-0.9-0.1-1.3-0.4c-0.4-0.2-0.7-0.6-0.9-1
	C97.6,454.2,97.6,453.1,98.1,452.1L98.1,452.1z M101.6,452.6c-0.2-0.2-0.5-0.4-0.9-0.4c-0.3,0-0.6,0.1-0.9,0.4
	c-0.2,0.3-0.4,0.6-0.4,1c0,0.4,0.1,0.7,0.4,1c0.5,0.5,1.2,0.5,1.7,0c0,0,0,0,0,0c0.2-0.3,0.4-0.6,0.4-1
	C102,453.2,101.9,452.9,101.6,452.6z"/>
<path class="st3" d="M107.9,451c0.3-0.5,0.7-1,1.3-1.3c0.6-0.3,1.2-0.5,1.9-0.5c0.8,0,1.5,0.2,2.2,0.7c0.6,0.5,1,1.1,1.2,1.8h-1.9
	c-0.1-0.3-0.3-0.5-0.6-0.7c-0.3-0.2-0.6-0.2-0.9-0.2c-0.5,0-1,0.2-1.3,0.6c-0.7,0.9-0.7,2.1,0,3c0.3,0.4,0.8,0.6,1.3,0.6
	c0.3,0,0.6-0.1,0.9-0.2c0.3-0.2,0.5-0.4,0.6-0.7h1.9c-0.2,0.7-0.6,1.4-1.2,1.8c-0.6,0.5-1.4,0.7-2.2,0.7c-0.6,0-1.3-0.1-1.9-0.5
	c-0.5-0.3-1-0.7-1.3-1.3C107.3,453.6,107.3,452.2,107.9,451L107.9,451z"/>
<path class="st3" d="M115.8,452.1c0.2-0.4,0.5-0.8,0.9-1c0.4-0.2,0.8-0.4,1.3-0.4c0.4,0,0.7,0.1,1.1,0.2c0.3,0.1,0.5,0.4,0.7,0.6
	v-0.8h1.7v5.7h-1.7v-0.8c-0.2,0.3-0.4,0.5-0.7,0.6c-0.3,0.2-0.7,0.2-1,0.2c-0.4,0-0.9-0.1-1.3-0.4c-0.4-0.2-0.7-0.6-0.9-1
	C115.4,454.2,115.4,453.1,115.8,452.1L115.8,452.1z M119.4,452.6c-0.2-0.2-0.5-0.4-0.9-0.4c-0.3,0-0.7,0.1-0.9,0.4
	c-0.2,0.3-0.4,0.6-0.4,1c0,0.4,0.1,0.7,0.4,1c0.2,0.2,0.5,0.4,0.9,0.4c0.3,0,0.7-0.1,0.9-0.4c0.2-0.3,0.4-0.6,0.4-1
	C119.7,453.2,119.6,452.9,119.4,452.6L119.4,452.6z"/>
<path class="st3" d="M124.8,457.2c0.1,0.6-0.1,1.1-0.5,1.5c-0.4,0.3-0.9,0.5-1.5,0.5h-0.7v-1.5h0.4c0.1,0,0.3,0,0.4-0.1
	c0.1-0.1,0.1-0.2,0.1-0.4v-6.4h1.7V457.2z M123.2,450c-0.4-0.4-0.4-0.9,0-1.3c0,0,0,0,0,0c0.2-0.2,0.5-0.3,0.8-0.3
	c0.3,0,0.5,0.1,0.7,0.3c0.4,0.4,0.4,0.9,0,1.3c0,0,0,0,0,0c-0.2,0.2-0.5,0.3-0.7,0.3C123.6,450.3,123.4,450.2,123.2,450z"/>
<path class="st3" d="M126.3,452.1c0.2-0.4,0.5-0.8,0.9-1c0.4-0.2,0.8-0.4,1.3-0.4c0.3,0,0.7,0.1,1,0.2c0.3,0.1,0.5,0.4,0.7,0.6v-0.8
	h1.7v5.7h-1.7v-0.8c-0.2,0.3-0.4,0.5-0.7,0.6c-0.3,0.2-0.7,0.2-1.1,0.2c-0.4,0-0.9-0.1-1.3-0.4c-0.4-0.2-0.7-0.6-0.9-1
	C125.9,454.2,125.9,453.1,126.3,452.1L126.3,452.1z M129.9,452.6c-0.2-0.2-0.5-0.4-0.9-0.4c-0.3,0-0.7,0.1-0.9,0.4
	c-0.2,0.3-0.4,0.6-0.4,1c0,0.4,0.1,0.7,0.4,1c0.2,0.2,0.5,0.4,0.9,0.4c0.3,0,0.7-0.1,0.9-0.4c0.2-0.3,0.4-0.6,0.4-1
	C130.3,453.2,130.1,452.9,129.9,452.6L129.9,452.6z"/>
<path class="st3" d="M134.6,456.3c-0.4-0.2-0.7-0.4-0.9-0.7c-0.2-0.3-0.4-0.6-0.4-1h1.7c0,0.2,0.1,0.4,0.3,0.5
	c0.2,0.1,0.4,0.2,0.6,0.2c0.2,0,0.4,0,0.5-0.1c0.1-0.1,0.2-0.2,0.2-0.3c0-0.2-0.1-0.3-0.2-0.4c-0.3-0.1-0.5-0.2-0.8-0.3
	c-0.3-0.1-0.7-0.2-1-0.3c-0.3-0.1-0.5-0.3-0.7-0.5c-0.2-0.3-0.3-0.6-0.3-0.9c0-0.3,0.1-0.6,0.3-0.9c0.2-0.3,0.5-0.5,0.8-0.6
	c0.4-0.2,0.8-0.2,1.2-0.2c0.6,0,1.2,0.1,1.7,0.5c0.4,0.4,0.7,0.9,0.7,1.4h-1.6c0-0.2-0.1-0.4-0.3-0.5c-0.2-0.1-0.4-0.2-0.6-0.2
	c-0.2,0-0.3,0-0.5,0.1c-0.1,0.1-0.2,0.2-0.2,0.3c0,0.2,0.1,0.3,0.3,0.4c0.3,0.1,0.5,0.2,0.8,0.2c0.3,0.1,0.7,0.2,1,0.3
	c0.3,0.1,0.5,0.3,0.7,0.5c0.2,0.3,0.3,0.6,0.3,0.9c0,0.3-0.1,0.6-0.3,0.9c-0.2,0.3-0.5,0.5-0.8,0.6c-0.4,0.2-0.8,0.2-1.2,0.2
	C135.4,456.6,135,456.5,134.6,456.3z"/>
<path class="st8" d="M60.3,464.2c0.2-0.4,0.5-0.7,0.9-0.9c0.4-0.2,0.8-0.3,1.3-0.3c0.5,0,1,0.1,1.4,0.4c0.4,0.3,0.7,0.7,0.9,1.1
	h-0.6c-0.1-0.3-0.4-0.6-0.7-0.8c-0.6-0.4-1.4-0.4-2.1,0c-0.3,0.2-0.5,0.4-0.7,0.8c-0.2,0.3-0.3,0.7-0.3,1.1c0,0.4,0.1,0.8,0.3,1.1
	c0.2,0.3,0.4,0.6,0.7,0.8c0.6,0.4,1.4,0.4,2.1,0c0.3-0.2,0.5-0.5,0.7-0.8h0.6c-0.2,0.5-0.5,0.9-0.9,1.1c-0.4,0.3-0.9,0.4-1.4,0.4
	c-0.4,0-0.9-0.1-1.3-0.3c-0.4-0.2-0.7-0.5-0.9-0.9C59.9,466.1,59.9,465.1,60.3,464.2L60.3,464.2z"/>
<path class="st8" d="M66,465.1c0.2-0.3,0.4-0.5,0.7-0.7c0.3-0.2,0.7-0.3,1-0.2c0.4,0,0.7,0.1,1,0.3c0.3,0.2,0.5,0.4,0.6,0.7v-0.9
	h0.5v4h-0.5v-0.9c-0.1,0.3-0.3,0.5-0.6,0.7c-0.3,0.2-0.6,0.3-1,0.3c-0.4,0-0.7-0.1-1-0.3c-0.3-0.2-0.5-0.4-0.7-0.7
	C65.7,466.6,65.7,465.8,66,465.1L66,465.1z M69,465.3c-0.1-0.2-0.3-0.4-0.5-0.6c-0.2-0.1-0.5-0.2-0.7-0.2c-0.3,0-0.5,0.1-0.8,0.2
	c-0.2,0.1-0.4,0.3-0.5,0.5c-0.3,0.5-0.3,1.2,0,1.7c0.1,0.2,0.3,0.4,0.5,0.6c0.2,0.1,0.5,0.2,0.8,0.2c0.3,0,0.5-0.1,0.7-0.2
	c0.2-0.1,0.4-0.3,0.5-0.6c0.1-0.3,0.2-0.6,0.2-0.9C69.2,465.8,69.2,465.6,69,465.3L69,465.3z"/>
<path class="st8" d="M71.7,469.1c0,0.3-0.1,0.5-0.2,0.7c-0.2,0.2-0.5,0.2-0.7,0.2h-0.4v-0.4h0.3c0.2,0.1,0.5-0.1,0.5-0.3
	c0-0.1,0-0.1,0-0.2v-4.9h0.5L71.7,469.1z M71.2,463.3c-0.1-0.1-0.1-0.2-0.1-0.3c0-0.1,0-0.2,0.1-0.3c0.1-0.1,0.2-0.1,0.3-0.1
	c0.2,0,0.4,0.2,0.4,0.4c0,0.1,0,0.2-0.1,0.3c-0.1,0.1-0.2,0.1-0.3,0.1C71.3,463.4,71.2,463.4,71.2,463.3z"/>
<path class="st8" d="M73.1,465.1c0.2-0.3,0.4-0.5,0.7-0.7c0.3-0.2,0.7-0.3,1-0.2c0.4,0,0.7,0.1,1,0.3c0.3,0.2,0.5,0.4,0.6,0.6v-0.9
	h0.5v4h-0.5v-0.9c-0.1,0.3-0.3,0.5-0.6,0.7c-0.3,0.2-0.6,0.3-1,0.3c-0.4,0-0.7-0.1-1-0.3c-0.3-0.2-0.5-0.4-0.7-0.7
	C72.8,466.5,72.8,465.7,73.1,465.1L73.1,465.1z M76.1,465.3c-0.1-0.2-0.3-0.4-0.5-0.6c-0.2-0.1-0.5-0.2-0.8-0.2
	c-0.3,0-0.5,0.1-0.8,0.2c-0.2,0.1-0.4,0.3-0.5,0.5c-0.3,0.5-0.3,1.2,0,1.7c0.1,0.2,0.3,0.4,0.5,0.6c0.2,0.1,0.5,0.2,0.8,0.2
	c0.3,0,0.5-0.1,0.8-0.2c0.2-0.1,0.4-0.3,0.5-0.6c0.1-0.3,0.2-0.6,0.2-0.9C76.3,465.8,76.2,465.6,76.1,465.3L76.1,465.3z"/>
<path class="st8" d="M78.4,467.9c-0.3-0.2-0.5-0.5-0.5-0.9h0.5c0,0.2,0.1,0.4,0.3,0.5c0.2,0.2,0.5,0.2,0.8,0.2
	c0.2,0,0.5-0.1,0.7-0.2c0.2-0.1,0.2-0.3,0.2-0.5c0-0.1,0-0.2-0.1-0.3c-0.1-0.1-0.2-0.2-0.3-0.2l-0.6-0.2c-0.3-0.1-0.5-0.2-0.7-0.2
	c-0.2-0.1-0.3-0.2-0.5-0.4c-0.1-0.2-0.2-0.4-0.2-0.6c0-0.2,0.1-0.4,0.2-0.5c0.1-0.2,0.3-0.3,0.5-0.4c0.2-0.1,0.5-0.1,0.7-0.1
	c0.4,0,0.7,0.1,1,0.3c0.3,0.2,0.4,0.5,0.4,0.9h-0.5c0-0.2-0.1-0.4-0.3-0.6c-0.2-0.1-0.4-0.2-0.7-0.2c-0.2,0-0.4,0.1-0.6,0.2
	c-0.2,0.1-0.2,0.3-0.2,0.5c0,0.1,0,0.3,0.1,0.4c0.1,0.1,0.2,0.2,0.3,0.2c0.2,0.1,0.4,0.1,0.6,0.2c0.2,0.1,0.5,0.1,0.7,0.2
	c0.2,0.1,0.3,0.2,0.4,0.3c0.1,0.2,0.2,0.4,0.2,0.6c0,0.2-0.1,0.4-0.2,0.6c-0.1,0.2-0.3,0.3-0.5,0.4c-0.2,0.1-0.5,0.2-0.7,0.1
	C79.2,468.2,78.8,468.1,78.4,467.9z"/>
<path class="st8" d="M84.3,465.1c0.2-0.3,0.4-0.5,0.7-0.7c0.3-0.2,0.7-0.3,1-0.2c0.4,0,0.7,0.1,1,0.2c0.3,0.2,0.5,0.4,0.6,0.7v-2.3
	h0.5v5.4h-0.5v-0.9c-0.1,0.3-0.3,0.5-0.6,0.7c-0.3,0.2-0.6,0.3-1,0.3c-0.4,0-0.7-0.1-1-0.3c-0.3-0.2-0.5-0.4-0.7-0.7
	C84.1,466.5,84.1,465.7,84.3,465.1L84.3,465.1z M87.3,465.3c-0.1-0.2-0.3-0.4-0.5-0.6c-0.2-0.1-0.5-0.2-0.7-0.2
	c-0.3,0-0.5,0.1-0.8,0.2c-0.2,0.1-0.4,0.3-0.5,0.5c-0.3,0.5-0.3,1.2,0,1.7c0.1,0.2,0.3,0.4,0.5,0.6c0.2,0.1,0.5,0.2,0.8,0.2
	c0.3,0,0.5-0.1,0.7-0.2c0.2-0.1,0.4-0.3,0.5-0.6c0.1-0.3,0.2-0.6,0.2-0.9C87.6,465.8,87.5,465.5,87.3,465.3z"/>
<path class="st8" d="M93,466.3h-3.3c0,0.3,0.1,0.5,0.2,0.8c0.1,0.2,0.3,0.4,0.5,0.5c0.2,0.1,0.5,0.2,0.7,0.2c0.3,0,0.6-0.1,0.8-0.2
	c0.2-0.2,0.4-0.4,0.4-0.6H93c-0.1,0.4-0.3,0.7-0.6,1c-0.3,0.2-0.8,0.4-1.2,0.4c-0.3,0-0.7-0.1-1-0.2c-0.3-0.2-0.5-0.4-0.7-0.7
	c-0.2-0.3-0.3-0.7-0.2-1.1c0-0.4,0.1-0.7,0.2-1.1c0.2-0.3,0.4-0.5,0.7-0.7c0.3-0.2,0.7-0.3,1-0.2c0.3,0,0.7,0.1,1,0.2
	c0.3,0.2,0.5,0.4,0.7,0.7c0.2,0.3,0.2,0.6,0.2,0.9C93.1,466.1,93.1,466.2,93,466.3z M92.4,465.2c-0.1-0.2-0.3-0.4-0.5-0.5
	c-0.2-0.1-0.5-0.2-0.7-0.2c-0.4,0-0.7,0.1-1,0.4c-0.3,0.3-0.4,0.6-0.4,1h2.8C92.5,465.6,92.5,465.4,92.4,465.2L92.4,465.2z"/>
<path class="st8" d="M101.3,463.1v5h-0.5v-4l-1.8,4h-0.4l-1.8-4v4h-0.5v-5h0.5l1.9,4.4l1.9-4.4H101.3z"/>
<path class="st8" d="M106.3,466.3H103c0,0.3,0.1,0.5,0.2,0.8c0.1,0.2,0.3,0.4,0.5,0.5c0.2,0.1,0.5,0.2,0.7,0.2
	c0.3,0,0.6-0.1,0.8-0.2c0.2-0.2,0.4-0.4,0.4-0.6h0.5c-0.1,0.4-0.3,0.7-0.6,1c-0.3,0.3-0.8,0.4-1.2,0.4c-0.3,0-0.7-0.1-1-0.2
	c-0.3-0.2-0.5-0.4-0.7-0.7c-0.2-0.3-0.3-0.7-0.2-1.1c0-0.4,0.1-0.7,0.2-1.1c0.2-0.3,0.4-0.5,0.7-0.7c0.3-0.2,0.7-0.3,1-0.2
	c0.4,0,0.7,0.1,1,0.2c0.3,0.2,0.5,0.4,0.7,0.7c0.2,0.3,0.2,0.6,0.2,0.9C106.3,466.1,106.3,466.2,106.3,466.3z M105.7,465.2
	c-0.1-0.2-0.3-0.4-0.5-0.5c-0.2-0.1-0.5-0.2-0.7-0.2c-0.4,0-0.7,0.1-1,0.4c-0.3,0.3-0.4,0.6-0.4,1h2.8
	C105.8,465.6,105.8,465.4,105.7,465.2L105.7,465.2z M105.1,463l-1.5,0.9v-0.4l1.5-0.9V463z"/>
<path class="st8" d="M109.6,468.1l-1-1.6l-1,1.6H107l1.3-2l-1.3-2h0.6l1,1.6l1-1.6h0.5l-1.3,2l1.3,2H109.6z"/>
<path class="st8" d="M111.1,463.3c-0.1-0.1-0.1-0.2-0.1-0.3c0-0.1,0-0.2,0.1-0.3c0.1-0.1,0.4-0.1,0.5,0c0,0,0,0,0,0
	c0.1,0.1,0.1,0.2,0.1,0.3c0,0.1,0,0.2-0.1,0.3C111.4,463.4,111.2,463.4,111.1,463.3C111.1,463.3,111.1,463.3,111.1,463.3z
	 M111.6,464.1v4h-0.5v-4H111.6z"/>
<path class="st8" d="M113,465.1c0.2-0.3,0.4-0.5,0.7-0.7c0.7-0.4,1.5-0.3,2.2,0.1c0.3,0.2,0.5,0.6,0.6,1h-0.6
	c-0.1-0.3-0.2-0.5-0.4-0.7c-0.2-0.2-0.5-0.3-0.8-0.2c-0.3,0-0.5,0.1-0.7,0.2c-0.2,0.1-0.4,0.3-0.5,0.5c-0.1,0.3-0.2,0.6-0.2,0.9
	c0,0.3,0.1,0.6,0.2,0.9c0.1,0.2,0.3,0.4,0.5,0.5c0.2,0.1,0.5,0.2,0.7,0.2c0.3,0,0.6-0.1,0.8-0.2c0.2-0.2,0.4-0.4,0.4-0.7h0.6
	c-0.1,0.4-0.3,0.8-0.6,1c-0.4,0.3-0.8,0.4-1.2,0.4c-0.3,0-0.7-0.1-1-0.2c-0.3-0.2-0.5-0.4-0.7-0.7c-0.2-0.3-0.3-0.7-0.2-1.1
	C112.7,465.8,112.8,465.4,113,465.1z"/>
<path class="st8" d="M118.3,468c-0.3-0.2-0.5-0.4-0.7-0.7c-0.2-0.3-0.3-0.7-0.3-1.1c0-0.4,0.1-0.7,0.3-1.1c0.2-0.3,0.4-0.5,0.7-0.7
	c0.3-0.2,0.7-0.3,1-0.2c0.3,0,0.7,0.1,1,0.2c0.3,0.2,0.5,0.4,0.7,0.7c0.2,0.3,0.3,0.7,0.2,1.1c0,0.4-0.1,0.7-0.3,1.1
	c-0.2,0.3-0.4,0.6-0.7,0.7c-0.3,0.2-0.7,0.2-1,0.2C119,468.2,118.7,468.1,118.3,468z M120.1,467.6c0.2-0.1,0.4-0.3,0.5-0.5
	c0.1-0.3,0.2-0.6,0.2-0.9c0-0.3-0.1-0.6-0.2-0.9c-0.1-0.2-0.3-0.4-0.5-0.5c-0.5-0.2-1-0.2-1.5,0c-0.2,0.1-0.4,0.3-0.5,0.5
	c-0.1,0.3-0.2,0.6-0.2,0.9c0,0.3,0.1,0.6,0.2,0.9c0.1,0.2,0.3,0.4,0.5,0.5C119.1,467.8,119.6,467.8,120.1,467.6z"/>
<path class="st4" d="M233.6,459.2v0.8h-4.1v-0.8L233.6,459.2z"/>
<path class="st4" d="M240,462.4c-0.2,0.3-0.4,0.6-0.7,0.7c-0.3,0.2-0.7,0.3-1.1,0.3v0.8h-0.6v-0.8c-0.6,0-1.1-0.2-1.5-0.6
	c-0.4-0.3-0.6-0.8-0.6-1.3h1c0,0.3,0.1,0.5,0.3,0.7c0.2,0.2,0.5,0.4,0.8,0.4v-2.5c-0.4-0.1-0.7-0.2-1.1-0.4
	c-0.3-0.1-0.5-0.3-0.7-0.6c-0.2-0.3-0.3-0.6-0.3-1c0-0.5,0.2-1,0.6-1.4c0.4-0.4,1-0.6,1.5-0.6v-0.9h0.6v0.9c0.5,0,1,0.2,1.4,0.5
	c0.4,0.3,0.6,0.8,0.6,1.3h-1c0-0.2-0.1-0.5-0.3-0.6c-0.2-0.2-0.4-0.3-0.7-0.4v2.5c0.4,0.1,0.7,0.2,1.1,0.4c0.3,0.1,0.5,0.3,0.7,0.6
	c0.2,0.3,0.3,0.7,0.3,1C240.2,461.8,240.1,462.1,240,462.4z M236.7,458.9c0.3,0.2,0.6,0.4,0.9,0.4V457c-0.3,0-0.6,0.1-0.9,0.3
	c-0.2,0.2-0.3,0.5-0.3,0.8C236.4,458.4,236.5,458.7,236.7,458.9L236.7,458.9z M239,462.3c0.2-0.2,0.3-0.5,0.3-0.8
	c0-0.3-0.1-0.6-0.3-0.8c-0.3-0.2-0.5-0.4-0.9-0.4v2.4C238.4,462.6,238.7,462.5,239,462.3L239,462.3z"/>
<path class="st4" d="M241.9,456.8V456h1.9v7.4h-0.9v-6.5L241.9,456.8z"/>
<path class="st4" d="M247.6,460.9c0.5-0.4,0.9-0.9,1.2-1.4c0.3-0.4,0.5-0.9,0.5-1.4c0-0.4-0.1-0.7-0.3-1c-0.3-0.3-0.6-0.4-1-0.4
	c-0.4,0-0.8,0.1-1.1,0.4c-0.3,0.3-0.4,0.7-0.4,1.2h-0.9c0-0.7,0.2-1.3,0.7-1.8c1-0.8,2.4-0.8,3.4,0c0.4,0.4,0.6,1,0.6,1.6
	c0,0.6-0.2,1.2-0.5,1.6c-0.3,0.5-0.7,1-1.1,1.4c-0.4,0.4-1,0.9-1.6,1.4h3.5v0.8h-4.9v-0.7C246.4,461.9,247.1,461.4,247.6,460.9z"/>
<path class="st7" d="M26.8,492.9h16.9c2.8,0,5,2.2,5,5v16.9c0,2.8-2.2,5-5,5H26.8c-2.8,0-5-2.2-5-5v-16.9
	C21.8,495.1,24.1,492.9,26.8,492.9z"/>
<path class="st3" d="M62,498.8v1.5h2.4v1.3H62v1.6h2.6v1.4h-4.4v-7.1h4.4v1.4L62,498.8z"/>
<path class="st3" d="M71.1,499.5c0.4,0.5,0.6,1.1,0.6,1.8v3.3H70v-3.1c0-0.3-0.1-0.6-0.3-0.9c-0.4-0.4-1.1-0.4-1.6,0
	c-0.2,0.2-0.3,0.6-0.3,0.9v3.1h-1.7v-5.7h1.7v0.8c0.2-0.3,0.4-0.5,0.7-0.6c0.3-0.1,0.7-0.2,1-0.2C70.1,498.8,70.7,499,71.1,499.5z"
	/>
<path class="st3" d="M75.8,503l1.2-4.1h1.8l-2,5.7h-2.2l-2-5.7h1.9L75.8,503z"/>
<path class="st3" d="M82.1,497.5l-2.4,1v-1.2l2.4-1.2V497.5z M81.8,498.9v5.7H80v-5.7L81.8,498.9z"/>
<path class="st3" d="M84.6,504.3c-0.4-0.2-0.8-0.6-1-1c-0.3-0.5-0.4-1-0.4-1.5c0-0.5,0.1-1.1,0.4-1.5c0.2-0.4,0.6-0.8,1-1
	c0.9-0.5,2.1-0.5,3,0c0.4,0.2,0.8,0.6,1.1,1c0.5,1,0.5,2.1,0,3.1c-0.3,0.4-0.6,0.8-1.1,1c-0.5,0.2-1,0.4-1.5,0.4
	C85.5,504.7,85,504.5,84.6,504.3z M86.9,502.8c0.2-0.3,0.4-0.6,0.3-1c0-0.4-0.1-0.7-0.3-1c-0.4-0.5-1.2-0.5-1.6-0.1c0,0,0,0-0.1,0.1
	c-0.2,0.3-0.4,0.7-0.3,1c0,0.4,0.1,0.7,0.3,1c0.2,0.2,0.5,0.4,0.8,0.4C86.4,503.2,86.7,503,86.9,502.8z"/>
<path class="st3" d="M92.7,500.2c0.2-0.4,0.5-0.8,0.9-1c0.4-0.2,0.8-0.4,1.3-0.4c0.3,0,0.7,0.1,1,0.2c0.3,0.1,0.5,0.4,0.7,0.6v-2.6
	h1.7v7.5h-1.7v-0.8c-0.2,0.3-0.4,0.5-0.7,0.7c-0.3,0.2-0.7,0.3-1,0.2c-0.4,0-0.9-0.1-1.3-0.4c-0.4-0.2-0.7-0.6-0.9-1
	c-0.2-0.5-0.3-1-0.3-1.5C92.4,501.2,92.5,500.7,92.7,500.2z M96.3,500.7c-0.2-0.2-0.5-0.4-0.9-0.4c-0.3,0-0.7,0.1-0.9,0.4
	c-0.2,0.3-0.4,0.6-0.4,1c0,0.4,0.1,0.7,0.4,1c0.2,0.2,0.5,0.4,0.9,0.4c0.3,0,0.7-0.1,0.9-0.4C96.7,502.1,96.7,501.3,96.3,500.7
	L96.3,500.7z"/>
<path class="st3" d="M105.3,502.1h-3.9c0,0.3,0.1,0.6,0.3,0.8c0.2,0.2,0.5,0.3,0.7,0.3c0.4,0,0.8-0.2,0.9-0.5h1.8
	c-0.1,0.4-0.3,0.7-0.5,1c-0.3,0.3-0.6,0.5-0.9,0.7c-0.9,0.4-1.9,0.3-2.7-0.1c-0.4-0.2-0.8-0.6-1-1c-0.3-0.5-0.4-1-0.4-1.5
	c0-0.5,0.1-1.1,0.4-1.5c0.2-0.4,0.6-0.8,1-1c0.5-0.2,1-0.4,1.5-0.4c0.5,0,1,0.1,1.5,0.4c0.4,0.2,0.8,0.6,1,1c0.2,0.5,0.4,1,0.4,1.5
	C105.3,501.8,105.3,502,105.3,502.1z M103.5,501.1c0-0.3-0.1-0.5-0.3-0.7c-0.2-0.2-0.5-0.3-0.8-0.3c-0.3,0-0.5,0.1-0.7,0.2
	c-0.2,0.2-0.3,0.4-0.4,0.7H103.5z"/>
<path class="st3" d="M114.2,500.9c-0.2,0.4-0.5,0.6-0.9,0.8c-0.5,0.2-1,0.3-1.5,0.3h-1.1v2.6H109v-7.1h2.8c0.5,0,1,0.1,1.4,0.3
	c0.4,0.2,0.7,0.5,0.9,0.8C114.5,499.3,114.5,500.1,114.2,500.9L114.2,500.9z M112.4,500.4c0.2-0.2,0.3-0.4,0.2-0.7
	c0-0.2-0.1-0.5-0.2-0.7c-0.2-0.2-0.5-0.3-0.7-0.2h-1v1.8h1C112,500.7,112.2,500.6,112.4,500.4z"/>
<path class="st3" d="M118.2,499.1c0.3-0.2,0.6-0.3,1-0.3v1.9h-0.5c-0.4,0-0.7,0.1-1,0.3c-0.3,0.3-0.4,0.6-0.3,1v2.6h-1.7v-5.7h1.7v1
	C117.6,499.5,117.8,499.3,118.2,499.1z"/>
<path class="st3" d="M121.4,504.3c-0.4-0.2-0.8-0.6-1.1-1c-0.3-0.5-0.4-1-0.4-1.5c0-0.5,0.1-1.1,0.4-1.5c0.3-0.4,0.6-0.8,1.1-1
	c0.9-0.5,2.1-0.5,3,0c0.4,0.2,0.8,0.6,1,1c0.5,1,0.5,2.1,0,3.1c-0.3,0.4-0.6,0.8-1.1,1c-0.5,0.2-1,0.4-1.5,0.4
	C122.3,504.7,121.9,504.5,121.4,504.3z M123.8,502.8c0.5-0.6,0.5-1.5,0-2.1c-0.2-0.2-0.5-0.4-0.8-0.4c-0.3,0-0.6,0.1-0.9,0.4
	c-0.4,0.6-0.4,1.5,0,2.1c0.2,0.2,0.5,0.4,0.8,0.4C123.2,503.2,123.5,503,123.8,502.8z"/>
<path class="st3" d="M127.1,500.2c0.2-0.4,0.5-0.8,0.9-1c0.4-0.2,0.8-0.4,1.3-0.4c0.3,0,0.7,0.1,1,0.2c0.3,0.1,0.5,0.4,0.7,0.6v-2.6
	h1.7v7.5H131v-0.8c-0.2,0.3-0.4,0.5-0.7,0.7c-0.3,0.2-0.7,0.3-1.1,0.2c-0.4,0-0.9-0.1-1.3-0.4c-0.4-0.2-0.7-0.6-0.9-1
	c-0.2-0.5-0.3-1-0.3-1.5C126.7,501.2,126.9,500.7,127.1,500.2z M130.7,500.7c-0.5-0.5-1.2-0.5-1.7,0c0,0,0,0,0,0
	c-0.2,0.3-0.4,0.6-0.4,1c0,0.4,0.1,0.7,0.4,1c0.5,0.5,1.2,0.5,1.7,0c0,0,0,0,0,0C131.1,502.1,131.1,501.3,130.7,500.7z"/>
<path class="st3" d="M139.9,498.9v5.7h-1.7v-0.8c-0.2,0.3-0.4,0.5-0.7,0.6c-0.3,0.2-0.7,0.2-1,0.2c-0.4,0-0.8-0.1-1.1-0.3
	c-0.3-0.2-0.6-0.5-0.8-0.8c-0.2-0.4-0.3-0.9-0.3-1.3v-3.3h1.7v3.1c0,0.3,0.1,0.6,0.3,0.9c0.2,0.2,0.5,0.3,0.8,0.3
	c0.3,0,0.6-0.1,0.8-0.3c0.2-0.2,0.3-0.6,0.3-0.9v-3.1H139.9z"/>
<path class="st3" d="M141.5,500.2c0.2-0.4,0.6-0.8,1-1c0.5-0.2,1-0.4,1.5-0.4c0.6,0,1.3,0.2,1.8,0.6c0.5,0.4,0.8,1,0.9,1.6h-1.9
	c-0.1-0.4-0.5-0.7-0.9-0.6c-0.3,0-0.6,0.1-0.8,0.4c-0.4,0.7-0.4,1.5,0,2.1c0.2,0.2,0.5,0.4,0.8,0.4c0.4,0,0.8-0.2,0.9-0.7h1.9
	c-0.1,0.6-0.5,1.2-0.9,1.6c-0.5,0.4-1.1,0.6-1.8,0.6c-0.5,0-1-0.1-1.5-0.4c-0.4-0.2-0.8-0.6-1-1C141,502.3,141,501.2,141.5,500.2
	L141.5,500.2z"/>
<path class="st3" d="M151.1,503.1v1.5h-0.9c-0.5,0-1.1-0.1-1.5-0.5c-0.4-0.4-0.6-1-0.5-1.5v-2.3h-0.7v-1.5h0.7v-1.4h1.7v1.4h1.1v1.5
	H150v2.3c0,0.1,0,0.3,0.1,0.4c0.1,0.1,0.3,0.1,0.4,0.1H151.1z"/>
<path class="st3" d="M153.5,504.3c-0.4-0.2-0.8-0.6-1-1c-0.3-0.5-0.4-1-0.4-1.5c0-0.5,0.1-1.1,0.4-1.5c0.2-0.4,0.6-0.8,1.1-1
	c0.9-0.5,2.1-0.5,3,0c0.4,0.2,0.8,0.6,1.1,1c0.3,0.5,0.4,1,0.4,1.5c0,0.5-0.1,1.1-0.4,1.5c-0.3,0.4-0.6,0.8-1.1,1
	c-0.5,0.2-1,0.4-1.5,0.4C154.5,504.7,154,504.6,153.5,504.3z M155.8,502.8c0.2-0.3,0.4-0.6,0.4-1c0-0.4-0.1-0.7-0.3-1
	c-0.4-0.5-1.2-0.5-1.6-0.1c0,0,0,0-0.1,0.1c-0.2,0.3-0.4,0.7-0.3,1c0,0.4,0.1,0.7,0.3,1c0.2,0.2,0.5,0.4,0.8,0.4
	C155.3,503.2,155.6,503,155.8,502.8z"/>
<path class="st3" d="M160.2,504.4c-0.4-0.1-0.7-0.4-0.9-0.7c-0.2-0.3-0.4-0.6-0.4-1h1.7c0,0.2,0.1,0.4,0.3,0.5
	c0.2,0.1,0.4,0.2,0.6,0.2c0.2,0,0.3,0,0.5-0.1c0.1-0.1,0.2-0.2,0.2-0.3c0-0.2-0.1-0.3-0.3-0.4c-0.3-0.1-0.5-0.2-0.8-0.2
	c-0.3-0.1-0.7-0.2-1-0.3c-0.3-0.1-0.5-0.3-0.7-0.5c-0.2-0.3-0.3-0.6-0.3-0.9c0-0.3,0.1-0.6,0.3-0.9c0.2-0.3,0.5-0.5,0.8-0.6
	c0.4-0.2,0.8-0.2,1.2-0.2c0.6,0,1.2,0.2,1.7,0.5c0.4,0.4,0.7,0.9,0.7,1.4h-1.6c0-0.2-0.1-0.4-0.3-0.5c-0.2-0.1-0.4-0.2-0.6-0.2
	c-0.2,0-0.3,0-0.5,0.1c-0.1,0.1-0.2,0.2-0.2,0.3c0,0.2,0.1,0.3,0.3,0.4c0.3,0.1,0.5,0.2,0.8,0.2c0.3,0.1,0.7,0.2,1,0.3
	c0.3,0.1,0.5,0.3,0.7,0.5c0.2,0.3,0.3,0.6,0.3,1c0,0.3-0.1,0.6-0.3,0.9c-0.2,0.3-0.5,0.5-0.8,0.6c-0.4,0.2-0.8,0.2-1.2,0.2
	C161,504.7,160.6,504.6,160.2,504.4z"/>
<path class="st8" d="M63,513.7c-0.4,0.3-0.8,0.4-1.3,0.4h-1v2.2h-0.5v-5.1h1.5c0.5,0,0.9,0.1,1.3,0.4
	C63.6,512.1,63.6,513.1,63,513.7L63,513.7z M62.9,512.6c0-0.3-0.1-0.6-0.3-0.8c-0.3-0.2-0.6-0.3-0.9-0.3h-1v2h1
	C62.5,513.6,62.9,513.3,62.9,512.6z"/>
<path class="st8" d="M64.5,513.2c0.2-0.3,0.4-0.5,0.7-0.7c0.3-0.2,0.6-0.3,1-0.2c0.4,0,0.7,0.1,1,0.3c0.3,0.2,0.5,0.4,0.6,0.7v-0.9
	h0.5v4h-0.5v-0.9c-0.1,0.3-0.3,0.5-0.6,0.7c-0.3,0.2-0.6,0.3-1,0.3c-0.4,0-0.7-0.1-1-0.2c-0.3-0.2-0.5-0.4-0.7-0.7
	C64.2,514.7,64.2,513.9,64.5,513.2L64.5,513.2z M67.5,513.4c-0.1-0.2-0.3-0.4-0.5-0.6c-0.5-0.3-1-0.3-1.5,0
	c-0.2,0.1-0.4,0.3-0.5,0.5c-0.1,0.3-0.2,0.6-0.2,0.8c0,0.3,0.1,0.6,0.2,0.9c0.1,0.2,0.3,0.4,0.5,0.6c0.5,0.3,1,0.3,1.5,0
	c0.2-0.1,0.4-0.3,0.5-0.6C67.8,514.6,67.8,513.9,67.5,513.4L67.5,513.4z"/>
<path class="st8" d="M69.7,513.2c0.2-0.3,0.4-0.5,0.7-0.7c0.3-0.2,0.7-0.3,1-0.2c0.4,0,0.7,0.1,1,0.3c0.3,0.2,0.5,0.4,0.6,0.7v-0.9
	h0.4v5.8h-0.5v-2.8c-0.1,0.3-0.3,0.5-0.6,0.7c-0.3,0.2-0.6,0.3-1,0.3c-0.4,0-0.7-0.1-1-0.2c-0.3-0.2-0.5-0.4-0.7-0.7
	C69.3,514.6,69.3,513.8,69.7,513.2L69.7,513.2z M72.7,513.4c-0.1-0.2-0.3-0.4-0.5-0.6c-0.2-0.1-0.5-0.2-0.7-0.2
	c-0.3,0-0.5,0.1-0.8,0.2c-0.2,0.1-0.4,0.3-0.5,0.5c-0.1,0.3-0.2,0.6-0.2,0.8c0,0.3,0.1,0.6,0.2,0.9c0.1,0.2,0.3,0.4,0.5,0.6
	c0.2,0.1,0.5,0.2,0.8,0.2c0.3,0,0.5-0.1,0.7-0.2c0.2-0.1,0.4-0.3,0.5-0.6C72.9,514.5,72.9,513.9,72.7,513.4L72.7,513.4z"/>
<path class="st8" d="M78.2,512.3v4h-0.5v-0.7c-0.1,0.2-0.3,0.4-0.5,0.6c-0.3,0.1-0.5,0.2-0.8,0.2c-0.4,0-0.8-0.1-1.2-0.4
	c-0.3-0.3-0.5-0.8-0.4-1.3v-2.3h0.5v2.3c0,0.4,0.1,0.7,0.3,1c0.2,0.2,0.6,0.4,0.9,0.3c0.3,0,0.7-0.1,0.9-0.4
	c0.3-0.3,0.4-0.7,0.3-1.1v-2.2L78.2,512.3z"/>
<path class="st8" d="M83.2,514.4h-3.3c0,0.3,0.1,0.5,0.2,0.8c0.1,0.2,0.3,0.4,0.5,0.5c0.2,0.1,0.5,0.2,0.7,0.2
	c0.3,0,0.6-0.1,0.8-0.2c0.2-0.2,0.4-0.4,0.4-0.6h0.5c-0.1,0.4-0.3,0.8-0.6,1c-0.3,0.2-0.8,0.4-1.2,0.4c-0.3,0-0.7-0.1-1-0.2
	c-0.3-0.2-0.5-0.4-0.7-0.7c-0.2-0.3-0.3-0.7-0.3-1.1c0-0.4,0.1-0.7,0.2-1.1c0.2-0.3,0.4-0.5,0.7-0.7c0.3-0.2,0.7-0.2,1-0.2
	c0.3,0,0.7,0.1,1,0.2c0.3,0.2,0.5,0.4,0.7,0.7c0.2,0.3,0.2,0.6,0.2,0.9C83.2,514.2,83.2,514.3,83.2,514.4z M82.5,513.3
	c-0.1-0.2-0.3-0.4-0.5-0.5c-0.2-0.1-0.5-0.2-0.7-0.2c-0.4,0-0.7,0.1-1,0.4c-0.3,0.3-0.4,0.6-0.4,1h2.8
	C82.7,513.7,82.6,513.5,82.5,513.3L82.5,513.3z"/>
<path class="st8" d="M85,512.7v2.5c0,0.2,0,0.4,0.1,0.5c0.1,0.1,0.3,0.2,0.5,0.1h0.5v0.4h-0.5c-0.3,0-0.6-0.1-0.8-0.2
	c-0.2-0.2-0.3-0.5-0.3-0.8v-2.5h-0.6v-0.4h0.6v-1H85v1h1.1v0.4H85z"/>
<path class="st8" d="M90.7,514.4h-3.3c0,0.3,0.1,0.5,0.2,0.8c0.1,0.2,0.3,0.4,0.5,0.5c0.2,0.1,0.5,0.2,0.7,0.2
	c0.3,0,0.6-0.1,0.8-0.2c0.2-0.1,0.4-0.4,0.4-0.6h0.5c-0.1,0.4-0.3,0.8-0.6,1c-0.7,0.4-1.5,0.5-2.2,0.1c-0.3-0.2-0.5-0.4-0.7-0.7
	c-0.3-0.7-0.3-1.5,0-2.2c0.2-0.3,0.4-0.5,0.7-0.7c0.3-0.2,0.7-0.2,1-0.2c0.3,0,0.7,0.1,1,0.2c0.3,0.2,0.5,0.4,0.7,0.7
	c0.2,0.3,0.2,0.6,0.2,0.9C90.7,514.2,90.7,514.3,90.7,514.4z M90,513.3c-0.1-0.2-0.3-0.4-0.5-0.5c-0.2-0.1-0.5-0.2-0.7-0.2
	c-0.4,0-0.7,0.1-1,0.4c-0.3,0.3-0.4,0.6-0.4,1h2.8C90.2,513.7,90.2,513.5,90,513.3L90,513.3z"/>
<path class="st8" d="M92.9,512.4c0.3-0.1,0.6-0.2,0.8-0.2v0.5h-0.1c-0.3,0-0.6,0.1-0.9,0.3c-0.2,0.3-0.4,0.6-0.3,1v2.2h-0.5v-4h0.5
	v0.7C92.5,512.7,92.7,512.5,92.9,512.4z"/>
<path class="st8" d="M95.7,511.1l-1.5,0.9v-0.4l1.5-0.9V511.1z M95.2,512.3v4h-0.5v-4H95.2z"/>
<path class="st8" d="M96.6,513.2c0.2-0.3,0.4-0.5,0.7-0.7c0.3-0.2,0.6-0.3,1-0.2c0.4,0,0.7,0.1,1,0.3c0.3,0.2,0.5,0.4,0.6,0.7v-0.9
	h0.5v4h-0.5v-0.9c-0.1,0.3-0.3,0.5-0.6,0.7c-0.3,0.2-0.6,0.3-1,0.3c-0.4,0-0.7-0.1-1-0.2c-0.3-0.2-0.5-0.4-0.7-0.7
	C96.2,514.7,96.2,513.9,96.6,513.2L96.6,513.2z M99.6,513.4c-0.1-0.2-0.3-0.4-0.5-0.6c-0.2-0.1-0.5-0.2-0.8-0.2
	c-0.3,0-0.5,0.1-0.8,0.2c-0.2,0.1-0.4,0.3-0.5,0.5c-0.1,0.3-0.2,0.6-0.2,0.8c0,0.3,0.1,0.6,0.2,0.9c0.1,0.2,0.3,0.4,0.5,0.6
	c0.2,0.1,0.5,0.2,0.8,0.2c0.3,0,0.5-0.1,0.8-0.2c0.2-0.1,0.4-0.3,0.5-0.6C99.9,514.6,99.9,513.9,99.6,513.4L99.6,513.4z"/>
<path class="st4" d="M230.9,507.3v0.8h-4.1v-0.8H230.9z"/>
<path class="st4" d="M237.2,510.4c-0.2,0.3-0.4,0.6-0.7,0.7c-0.3,0.2-0.7,0.3-1.1,0.3v0.8h-0.6v-0.8c-0.5,0-1.1-0.2-1.5-0.5
	c-0.4-0.3-0.6-0.8-0.6-1.3h1c0,0.6,0.5,1.1,1.1,1.1v-2.5c-0.4-0.1-0.7-0.2-1.1-0.4c-0.3-0.1-0.5-0.3-0.7-0.6c-0.2-0.3-0.3-0.6-0.3-1
	c0-0.5,0.2-1,0.6-1.4c0.4-0.4,1-0.6,1.5-0.6v-0.8h0.5v0.8c0.5,0,1,0.2,1.4,0.5c0.4,0.3,0.6,0.8,0.6,1.3h-1c0-0.2-0.2-0.5-0.3-0.7
	c-0.2-0.2-0.4-0.3-0.7-0.4v2.5c0.4,0.1,0.7,0.2,1.1,0.3c0.3,0.1,0.5,0.3,0.7,0.6c0.2,0.3,0.3,0.6,0.3,1
	C237.4,509.9,237.4,510.2,237.2,510.4z M234,507c0.3,0.2,0.6,0.3,0.9,0.4v-2.3c-0.3,0-0.6,0.1-0.9,0.3c-0.2,0.2-0.3,0.5-0.3,0.8
	C233.7,506.5,233.8,506.8,234,507z M236.2,510.4c0.2-0.2,0.3-0.5,0.3-0.8c0-0.3-0.1-0.6-0.3-0.8c-0.3-0.2-0.5-0.4-0.9-0.4v2.4
	C235.7,510.8,236,510.6,236.2,510.4L236.2,510.4z"/>
<path class="st4" d="M240.1,504.5c0.9-0.6,1.9-0.7,2.9-0.3c0.6,0.3,1,0.9,1,1.6c0,0.4-0.1,0.8-0.4,1.1c-0.2,0.3-0.6,0.5-0.9,0.6v0.1
	c0.4,0.1,0.8,0.3,1,0.6c0.3,0.4,0.4,0.8,0.4,1.2c0,0.4-0.1,0.7-0.3,1c-0.2,0.3-0.5,0.6-0.8,0.7c-0.4,0.2-0.8,0.3-1.3,0.3
	c-0.6,0-1.3-0.2-1.8-0.6c-0.5-0.4-0.8-1-0.8-1.6h0.9c0,0.4,0.2,0.7,0.5,1c0.3,0.3,0.7,0.4,1.1,0.4c0.4,0,0.8-0.1,1.1-0.4
	c0.3-0.3,0.4-0.6,0.4-1c0-0.4-0.2-0.9-0.5-1.1c-0.5-0.3-1-0.4-1.5-0.3h-0.2v-0.8h0.2c0.5,0,1-0.1,1.4-0.3c0.3-0.2,0.5-0.6,0.5-0.9
	c0-0.3-0.1-0.6-0.4-0.9c-0.3-0.2-0.6-0.3-1-0.3c-0.4,0-0.7,0.1-1,0.3c-0.3,0.2-0.4,0.5-0.5,0.9h-0.9
	C239.4,505.3,239.7,504.8,240.1,504.5z"/>
<path class="st4" d="M247.6,509c0.5-0.4,0.9-0.9,1.2-1.4c0.3-0.4,0.5-0.9,0.5-1.4c0-0.4-0.1-0.7-0.3-1c-0.3-0.3-0.6-0.4-1-0.4
	c-0.4,0-0.8,0.1-1.1,0.4c-0.3,0.3-0.4,0.7-0.4,1.2h-0.9c0-0.7,0.2-1.3,0.7-1.8c0.5-0.4,1.1-0.6,1.7-0.6c0.6,0,1.2,0.2,1.7,0.6
	c0.4,0.4,0.6,1,0.6,1.6c0,0.6-0.2,1.2-0.5,1.6c-0.3,0.5-0.7,1-1.1,1.4c-0.4,0.4-1,0.9-1.6,1.4h3.5v0.8h-4.9v-0.7
	C246.4,510,247.1,509.5,247.6,509z"/>
<path class="st7" d="M26.8,541h16.9c2.8,0,5,2.2,5,5v16.9c0,2.8-2.2,5-5,5H26.8c-2.8,0-5-2.2-5-5V546C21.8,543.2,24.1,541,26.8,541z
	"/>
<path class="st3" d="M67,545.5l-2.5,7.1h-2.2l-2.5-7.1h1.8l1.8,5.4l1.8-5.4L67,545.5z"/>
<path class="st3" d="M73.3,550.3h-4c0,0.3,0.1,0.6,0.3,0.8c0.2,0.2,0.5,0.3,0.7,0.3c0.4,0,0.8-0.2,0.9-0.5h1.8
	c-0.1,0.4-0.3,0.7-0.5,1c-0.3,0.3-0.6,0.5-0.9,0.7c-0.4,0.2-0.8,0.3-1.3,0.2c-0.5,0-1-0.1-1.5-0.3c-0.4-0.2-0.8-0.6-1-1
	c-0.3-0.5-0.4-1-0.4-1.5c0-0.5,0.1-1.1,0.4-1.5c0.2-0.4,0.6-0.8,1-1c0.5-0.2,1-0.4,1.5-0.4c0.5,0,1,0.1,1.5,0.3c0.4,0.2,0.8,0.6,1,1
	c0.2,0.5,0.4,1,0.4,1.5C73.3,549.9,73.3,550.1,73.3,550.3z M71.6,549.3c0-0.3-0.1-0.5-0.3-0.7c-0.2-0.2-0.5-0.3-0.8-0.3
	c-0.3,0-0.5,0.1-0.7,0.3c-0.2,0.2-0.4,0.4-0.4,0.7L71.6,549.3z"/>
<path class="st3" d="M79.6,547.6c0.4,0.5,0.6,1.1,0.6,1.8v3.3h-1.7v-3.1c0-0.3-0.1-0.6-0.3-0.9c-0.4-0.4-1.1-0.4-1.6,0
	c-0.2,0.2-0.3,0.6-0.3,0.9v3.1h-1.7V547h1.8v0.8c0.2-0.3,0.4-0.5,0.7-0.6c0.3-0.2,0.7-0.2,1-0.2C78.7,546.9,79.2,547.2,79.6,547.6z"
	/>
<path class="st3" d="M84.9,551.2v1.5H84c-0.5,0-1.1-0.1-1.5-0.5c-0.4-0.4-0.6-1-0.5-1.5v-2.3h-0.7V547H82v-1.4h1.7v1.4h1.1v1.5h-1.2
	v2.3c0,0.1,0,0.3,0.1,0.4c0.1,0.1,0.3,0.1,0.4,0.1L84.9,551.2z"/>
<path class="st3" d="M86.2,548.3c0.2-0.4,0.5-0.8,0.9-1c0.4-0.2,0.8-0.4,1.3-0.4c0.4,0,0.7,0.1,1.1,0.2c0.3,0.2,0.5,0.4,0.7,0.7V547
	h1.7v5.7h-1.7v-0.8c-0.2,0.3-0.4,0.5-0.7,0.6c-0.3,0.2-0.7,0.2-1.1,0.2c-0.4,0-0.9-0.1-1.3-0.4c-0.4-0.2-0.7-0.6-0.9-1
	c-0.2-0.5-0.3-1-0.3-1.5C85.8,549.3,85.9,548.8,86.2,548.3z M89.7,548.8c-0.5-0.5-1.3-0.5-1.7,0c0,0,0,0,0,0c-0.2,0.3-0.4,0.6-0.4,1
	c0,0.4,0.1,0.7,0.4,1c0.5,0.5,1.2,0.5,1.7,0c0,0,0,0,0,0c0.2-0.3,0.4-0.6,0.4-1C90.1,549.4,90,549.1,89.7,548.8z"/>
<path class="st3" d="M100.3,551.4h-2.7l-0.4,1.3h-1.9l2.6-7.1h2l2.6,7.1h-1.8L100.3,551.4z M99.9,550.1l-0.9-2.6l-0.9,2.6H99.9z"/>
<path class="st3" d="M112.6,547.6c0.4,0.5,0.7,1.1,0.6,1.8v3.3h-1.7v-3.1c0-0.3-0.1-0.6-0.3-0.8c-0.5-0.4-1.1-0.4-1.6,0
	c-0.2,0.2-0.3,0.5-0.3,0.8v3.1h-1.7v-3.1c0-0.3-0.1-0.6-0.3-0.8c-0.2-0.2-0.5-0.3-0.8-0.3c-0.3,0-0.6,0.1-0.8,0.3
	c-0.2,0.2-0.3,0.5-0.3,0.8v3.1h-1.7V547h1.7v0.7c0.2-0.2,0.4-0.4,0.7-0.6c0.3-0.1,0.7-0.2,1-0.2c0.4,0,0.8,0.1,1.1,0.3
	c0.3,0.2,0.6,0.4,0.8,0.8c0.2-0.3,0.5-0.6,0.8-0.8c0.3-0.2,0.7-0.3,1.1-0.3C111.6,546.9,112.2,547.1,112.6,547.6z"/>
<path class="st3" d="M114.7,548.3c0.2-0.4,0.5-0.8,0.9-1c0.4-0.2,0.8-0.4,1.3-0.4c0.4,0,0.7,0.1,1.1,0.2c0.3,0.2,0.5,0.4,0.7,0.7
	V547h1.7v5.7h-1.7v-0.8c-0.2,0.3-0.4,0.5-0.7,0.6c-0.3,0.2-0.7,0.2-1.1,0.2c-0.4,0-0.9-0.1-1.3-0.4c-0.4-0.2-0.7-0.6-0.9-1
	c-0.2-0.5-0.3-1-0.3-1.5C114.4,549.3,114.5,548.8,114.7,548.3z M118.3,548.8c-0.5-0.5-1.3-0.5-1.7,0c0,0,0,0,0,0
	c-0.2,0.3-0.4,0.6-0.4,1c0,0.4,0.1,0.7,0.4,1c0.5,0.5,1.2,0.5,1.7,0c0,0,0,0,0,0c0.2-0.3,0.4-0.6,0.4-1
	C118.7,549.4,118.6,549.1,118.3,548.8L118.3,548.8z"/>
<path class="st3" d="M123.6,551.2h2.5v1.4h-4.4v-1.4l2.4-2.9h-2.3V547h4.3v1.4L123.6,551.2z"/>
<path class="st3" d="M128.4,552.4c-0.4-0.2-0.8-0.6-1.1-1c-0.3-0.5-0.4-1-0.4-1.5c0-0.5,0.1-1.1,0.4-1.5c0.2-0.4,0.6-0.8,1.1-1
	c0.5-0.2,1-0.4,1.5-0.4c0.5,0,1,0.1,1.5,0.4c0.4,0.2,0.8,0.6,1.1,1c0.3,0.5,0.4,1,0.4,1.5c0,0.5-0.1,1.1-0.4,1.5
	c-0.3,0.4-0.6,0.8-1.1,1c-0.5,0.2-1,0.4-1.5,0.3C129.4,552.8,128.9,552.6,128.4,552.4z M130.8,550.9c0.2-0.3,0.4-0.6,0.4-1
	c0-0.4-0.1-0.8-0.4-1c-0.4-0.5-1.2-0.5-1.6,0c0,0,0,0,0,0c-0.4,0.6-0.4,1.5,0,2.1c0.2,0.2,0.5,0.4,0.8,0.4
	C130.2,551.3,130.6,551.1,130.8,550.9z"/>
<path class="st3" d="M139.2,547.6c0.4,0.5,0.6,1.1,0.6,1.8v3.3H138v-3.1c0-0.3-0.1-0.6-0.3-0.9c-0.2-0.2-0.5-0.3-0.8-0.3
	c-0.3,0-0.6,0.1-0.8,0.3c-0.2,0.2-0.3,0.6-0.3,0.9v3.1h-1.7V547h1.7v0.8c0.2-0.3,0.4-0.5,0.7-0.6c0.3-0.1,0.7-0.2,1-0.2
	C138.2,546.9,138.8,547.1,139.2,547.6z"/>
<path class="st8" d="M63.2,562.1c0.2,0.2,0.3,0.5,0.3,0.8c0,0.5-0.3,1-0.7,1.2c-0.3,0.1-0.6,0.2-0.8,0.2h-1.7v-5.1h1.6
	c0.4,0,0.8,0.1,1.1,0.4c0.3,0.2,0.4,0.6,0.4,0.9c0,0.3-0.1,0.6-0.2,0.8c-0.2,0.2-0.4,0.3-0.6,0.4C62.7,561.8,63,561.9,63.2,562.1z
	 M60.7,561.5h1.1c0.3,0,0.5-0.1,0.8-0.2c0.3-0.4,0.3-1,0-1.3c-0.2-0.2-0.5-0.3-0.8-0.2h-1.1L60.7,561.5z M62.7,563.6
	c0.2-0.2,0.3-0.4,0.3-0.7c0-0.3-0.1-0.5-0.3-0.7c-0.2-0.2-0.5-0.3-0.8-0.3h-1.2v2h1.2C62.1,563.9,62.4,563.8,62.7,563.6L62.7,563.6z
	"/>
<path class="st8" d="M64.6,561.3c0.1-0.3,0.4-0.5,0.6-0.7c0.3-0.2,0.6-0.3,0.9-0.3c0.3,0,0.7,0.1,0.9,0.3c0.3,0.2,0.4,0.4,0.6,0.7
	v-0.9h0.5v4h-0.5v-0.9c-0.1,0.3-0.3,0.5-0.6,0.7c-0.3,0.2-0.6,0.3-0.9,0.3c-0.3,0-0.6-0.1-0.9-0.2c-0.3-0.2-0.5-0.4-0.6-0.7
	c-0.2-0.3-0.2-0.7-0.2-1.1C64.3,562,64.4,561.6,64.6,561.3z M67.5,561.5c-0.1-0.2-0.3-0.4-0.5-0.6c-0.2-0.1-0.5-0.2-0.7-0.2
	c-0.3,0-0.5,0.1-0.7,0.2c-0.2,0.1-0.4,0.3-0.5,0.5c-0.1,0.3-0.2,0.6-0.2,0.8c0,0.3,0.1,0.6,0.2,0.9c0.1,0.2,0.3,0.4,0.5,0.6
	c0.2,0.1,0.5,0.2,0.7,0.2c0.3,0,0.5-0.1,0.7-0.2c0.2-0.1,0.4-0.3,0.5-0.6c0.1-0.3,0.2-0.5,0.2-0.8C67.7,562.1,67.6,561.8,67.5,561.5
	L67.5,561.5z"/>
<path class="st8" d="M72.3,560.7c0.3,0.4,0.5,0.8,0.4,1.3v2.3h-0.4v-2.3c0-0.4-0.1-0.7-0.3-1c-0.2-0.2-0.5-0.4-0.8-0.3
	c-0.3,0-0.7,0.1-0.9,0.4c-0.2,0.3-0.4,0.7-0.3,1.1v2.2h-0.5v-4H70v0.7c0.1-0.2,0.3-0.4,0.5-0.6C71.1,560.1,71.9,560.2,72.3,560.7
	L72.3,560.7z"/>
<path class="st8" d="M74.1,561.3c0.1-0.3,0.4-0.5,0.7-0.7c0.3-0.2,0.6-0.3,0.9-0.3c0.4,0,0.8,0.1,1.2,0.4c0.3,0.2,0.5,0.6,0.6,1
	h-0.5c-0.1-0.3-0.2-0.5-0.4-0.7c-0.2-0.2-0.5-0.2-0.8-0.2c-0.2,0-0.5,0.1-0.7,0.2c-0.2,0.1-0.4,0.3-0.5,0.5
	c-0.1,0.3-0.2,0.6-0.2,0.9c0,0.3,0.1,0.6,0.2,0.9c0.1,0.2,0.3,0.4,0.5,0.5c0.2,0.1,0.4,0.2,0.7,0.2c0.3,0,0.6-0.1,0.8-0.2
	c0.2-0.2,0.4-0.4,0.4-0.7h0.5c-0.1,0.4-0.3,0.7-0.6,1c-0.3,0.3-0.7,0.4-1.2,0.4c-0.7,0-1.3-0.4-1.6-1
	C73.8,562.7,73.8,561.9,74.1,561.3L74.1,561.3z"/>
<path class="st8" d="M79.3,564.1c-0.3-0.2-0.5-0.4-0.7-0.7c-0.2-0.3-0.3-0.7-0.2-1.1c0-0.4,0.1-0.7,0.3-1.1c0.2-0.3,0.4-0.5,0.7-0.7
	c0.3-0.2,0.6-0.3,1-0.3c0.4,0,0.7,0.1,1,0.3c0.3,0.2,0.5,0.4,0.7,0.7c0.2,0.3,0.3,0.7,0.2,1.1c0,0.4-0.1,0.7-0.2,1.1
	c-0.2,0.3-0.4,0.5-0.7,0.7c-0.3,0.2-0.7,0.3-1,0.2C79.9,564.4,79.6,564.3,79.3,564.1z M80.9,563.8c0.2-0.1,0.4-0.3,0.5-0.5
	c0.1-0.3,0.2-0.6,0.2-0.9c0-0.3-0.1-0.6-0.2-0.9c-0.1-0.2-0.3-0.4-0.5-0.5c-0.4-0.2-1-0.2-1.4,0c-0.2,0.1-0.4,0.3-0.5,0.5
	c-0.1,0.3-0.2,0.6-0.2,0.9c0,0.3,0.1,0.6,0.2,0.9c0.1,0.2,0.3,0.4,0.5,0.5c0.2,0.1,0.4,0.2,0.7,0.2C80.5,564,80.7,563.9,80.9,563.8z
	"/>
<path class="st9" d="M225.8,561h-2.2v2.2h-0.9V561h-2.2v-0.8h2.2V558h0.9v2.2h2.2V561z"/>
<path class="st9" d="M232.1,563.3c-0.2,0.3-0.4,0.6-0.7,0.7c-0.3,0.2-0.7,0.3-1.1,0.3v0.8h-0.6v-0.8c-0.6,0-1.1-0.2-1.5-0.6
	c-0.4-0.3-0.6-0.8-0.6-1.3h1c0,0.3,0.1,0.5,0.3,0.7c0.2,0.2,0.5,0.4,0.8,0.4v-2.5c-0.4-0.1-0.7-0.2-1.1-0.4
	c-0.3-0.1-0.5-0.3-0.7-0.6c-0.2-0.3-0.3-0.6-0.3-1c0-0.5,0.2-1,0.6-1.4c0.4-0.4,1-0.6,1.5-0.6v-0.8h0.6v0.8c0.5,0,1,0.2,1.4,0.5
	c0.4,0.3,0.6,0.8,0.6,1.3h-1c0-0.2-0.1-0.5-0.3-0.7c-0.2-0.2-0.4-0.3-0.7-0.4v2.5c0.4,0.1,0.7,0.2,1.1,0.3c0.3,0.1,0.5,0.3,0.7,0.6
	c0.2,0.3,0.3,0.6,0.3,1C232.3,562.7,232.2,563,232.1,563.3z M228.8,559.8c0.3,0.2,0.6,0.4,0.9,0.4v-2.3c-0.3,0-0.6,0.1-0.9,0.3
	c-0.2,0.2-0.3,0.5-0.3,0.8C228.5,559.4,228.6,559.6,228.8,559.8L228.8,559.8z M231.1,563.2c0.2-0.2,0.3-0.5,0.3-0.8
	c0-0.3-0.1-0.6-0.3-0.8c-0.3-0.2-0.5-0.4-0.9-0.4v2.4C230.5,563.6,230.8,563.5,231.1,563.2L231.1,563.2z"/>
<path class="st9" d="M234,557.8V557h1.9v7.4h-0.9v-6.5L234,557.8z"/>
<path class="st9" d="M239.4,563.2c0.3,0.2,0.6,0.3,1,0.3c0.5,0,1-0.2,1.2-0.7c0.3-0.7,0.4-1.5,0.4-2.2c-0.2,0.3-0.4,0.6-0.7,0.7
	c-0.3,0.2-0.7,0.3-1.1,0.3c-0.4,0-0.8-0.1-1.2-0.3c-0.4-0.2-0.6-0.5-0.8-0.8c-0.2-0.4-0.3-0.9-0.3-1.3c0-0.6,0.2-1.3,0.6-1.8
	c0.5-0.5,1.1-0.7,1.8-0.7c0.8-0.1,1.6,0.3,2,0.9c0.4,0.9,0.6,1.8,0.6,2.8c0,0.7-0.1,1.4-0.2,2.1c-0.1,0.5-0.4,0.9-0.8,1.3
	c-0.4,0.3-1,0.5-1.5,0.4c-0.6,0-1.2-0.2-1.6-0.6c-0.4-0.4-0.6-0.9-0.7-1.4h0.9C239,562.7,239.2,563,239.4,563.2z M241.5,560.5
	c0.3-0.3,0.5-0.7,0.4-1.2c0-0.4-0.1-0.9-0.4-1.2c-0.3-0.3-0.8-0.5-1.2-0.5c-0.4,0-0.8,0.1-1.1,0.5c-0.6,0.7-0.6,1.7,0,2.4
	C239.8,561,240.8,561,241.5,560.5L241.5,560.5z"/>
<path class="st9" d="M246.1,563.2c0.3,0.2,0.6,0.3,1,0.3c0.5,0,1-0.2,1.2-0.7c0.3-0.7,0.4-1.5,0.4-2.2c-0.2,0.3-0.4,0.6-0.7,0.7
	c-0.3,0.2-0.7,0.3-1.1,0.3c-0.4,0-0.8-0.1-1.2-0.3c-0.4-0.2-0.6-0.5-0.8-0.8c-0.2-0.4-0.3-0.9-0.3-1.3c0-0.6,0.2-1.3,0.6-1.8
	c0.5-0.5,1.1-0.7,1.8-0.7c0.8-0.1,1.6,0.3,2,0.9c0.4,0.9,0.6,1.8,0.6,2.8c0,0.7-0.1,1.4-0.2,2.1c-0.1,0.5-0.4,0.9-0.8,1.3
	c-0.4,0.3-1,0.5-1.5,0.4c-0.6,0-1.2-0.2-1.6-0.6c-0.4-0.4-0.6-0.9-0.7-1.4h0.9C245.7,562.7,245.9,563,246.1,563.2z M248.2,560.5
	c0.3-0.3,0.5-0.7,0.4-1.2c0-0.4-0.1-0.9-0.4-1.2c-0.3-0.3-0.8-0.5-1.2-0.5c-0.4,0-0.8,0.1-1.1,0.5c-0.6,0.7-0.6,1.7,0,2.4
	C246.6,561,247.6,561,248.2,560.5L248.2,560.5z"/>
<path class="st8" d="M114,67.5c0.2,0.2,0.3,0.5,0.3,0.8c0,0.2-0.1,0.5-0.2,0.7c-0.1,0.2-0.3,0.4-0.6,0.5c-0.3,0.1-0.6,0.2-0.9,0.2
	h-1.8v-5.1h1.7c0.4,0,0.8,0.1,1.2,0.4c0.3,0.2,0.4,0.6,0.4,0.9c0,0.3-0.1,0.6-0.2,0.8c-0.2,0.2-0.4,0.3-0.7,0.4
	C113.5,67.1,113.8,67.3,114,67.5z M111.4,66.8h1.2c0.3,0,0.6-0.1,0.8-0.2c0.2-0.2,0.3-0.4,0.3-0.7c0-0.3-0.1-0.5-0.3-0.7
	c-0.2-0.2-0.5-0.3-0.8-0.2h-1.2L111.4,66.8z M113.5,69c0.2-0.2,0.3-0.4,0.3-0.7c0-0.3-0.1-0.5-0.3-0.7c-0.2-0.2-0.6-0.3-0.9-0.3
	h-1.2v2h1.2C112.9,69.3,113.2,69.2,113.5,69z"/>
<path class="st8" d="M115.5,66.6c0.1-0.3,0.4-0.5,0.7-0.7c0.3-0.2,0.7-0.3,1-0.2c0.4,0,0.7,0.1,1,0.3c0.3,0.2,0.5,0.4,0.6,0.7v-0.9
	h0.5v4h-0.5v-0.9c-0.1,0.3-0.3,0.5-0.6,0.7c-0.3,0.2-0.6,0.3-1,0.3c-0.4,0-0.7-0.1-1-0.2c-0.3-0.2-0.5-0.4-0.7-0.7
	C115.1,68.1,115.1,67.3,115.5,66.6L115.5,66.6z M118.5,66.8c-0.1-0.2-0.3-0.4-0.5-0.6c-0.2-0.1-0.5-0.2-0.8-0.2
	c-0.3,0-0.5,0.1-0.8,0.2c-0.2,0.1-0.4,0.3-0.5,0.6c-0.1,0.3-0.2,0.6-0.2,0.9c0,0.3,0.1,0.6,0.2,0.9c0.2,0.5,0.7,0.8,1.3,0.8
	c0.3,0,0.5-0.1,0.8-0.2c0.2-0.1,0.4-0.3,0.5-0.6C118.7,68,118.7,67.4,118.5,66.8L118.5,66.8z"/>
<path class="st8" d="M121.1,64.3v5.4h-0.5v-5.4H121.1z"/>
<path class="st8" d="M122.5,66.6c0.1-0.3,0.4-0.5,0.7-0.7c0.3-0.2,0.7-0.3,1-0.2c0.4,0,0.7,0.1,1,0.3c0.3,0.2,0.5,0.4,0.6,0.7v-0.9
	h0.5v4h-0.5v-0.9c-0.1,0.3-0.3,0.5-0.6,0.7c-0.3,0.2-0.6,0.3-1,0.3c-0.4,0-0.7-0.1-1-0.2c-0.3-0.2-0.5-0.4-0.7-0.7
	C122.1,68.1,122.1,67.3,122.5,66.6L122.5,66.6z M125.5,66.8c-0.1-0.2-0.3-0.4-0.5-0.6c-0.2-0.1-0.5-0.2-0.7-0.2
	c-0.3,0-0.5,0.1-0.8,0.2c-0.2,0.1-0.4,0.3-0.5,0.6c-0.1,0.3-0.2,0.6-0.2,0.9c0,0.3,0.1,0.6,0.2,0.9c0.1,0.2,0.3,0.4,0.5,0.6
	c0.2,0.1,0.5,0.2,0.8,0.2c0.3,0,0.5-0.1,0.7-0.2c0.2-0.1,0.4-0.3,0.5-0.6C125.7,68,125.7,67.4,125.5,66.8L125.5,66.8z"/>
<path class="st8" d="M130.6,66.1c0.3,0.3,0.5,0.8,0.4,1.3v2.3h-0.5v-2.3c0-0.4-0.1-0.7-0.3-1c-0.2-0.2-0.6-0.4-0.9-0.3
	c-0.3,0-0.7,0.1-0.9,0.4c-0.2,0.3-0.4,0.7-0.3,1.1v2.2h-0.5v-4h0.5v0.7c0.1-0.2,0.3-0.4,0.6-0.6c0.2-0.1,0.5-0.2,0.8-0.2
	C129.9,65.6,130.3,65.8,130.6,66.1z"/>
<path class="st8" d="M132.4,66.6c0.2-0.3,0.4-0.5,0.7-0.7c0.7-0.4,1.6-0.4,2.2,0.1c0.3,0.2,0.5,0.6,0.6,1h-0.6
	c-0.1-0.3-0.2-0.5-0.4-0.7c-0.2-0.2-0.5-0.3-0.8-0.2c-0.5,0-1,0.3-1.2,0.7c-0.1,0.3-0.2,0.6-0.2,0.9c0,0.3,0.1,0.6,0.2,0.9
	c0.1,0.2,0.3,0.4,0.5,0.5c0.5,0.3,1.1,0.2,1.6-0.1c0.2-0.2,0.4-0.4,0.4-0.7h0.5c-0.1,0.4-0.3,0.8-0.6,1c-0.3,0.3-0.8,0.4-1.2,0.4
	c-0.3,0-0.7-0.1-1-0.2c-0.3-0.2-0.5-0.4-0.7-0.7C132.1,68.1,132.1,67.3,132.4,66.6L132.4,66.6z"/>
<path class="st8" d="M140.7,67.9h-3.3c0,0.3,0.1,0.5,0.2,0.8c0.1,0.2,0.3,0.4,0.5,0.5c0.2,0.1,0.5,0.2,0.7,0.2
	c0.3,0,0.6-0.1,0.8-0.2c0.2-0.2,0.4-0.4,0.4-0.6h0.5c-0.1,0.4-0.3,0.8-0.6,1c-0.3,0.3-0.8,0.4-1.2,0.4c-0.3,0-0.7-0.1-1-0.2
	c-0.3-0.2-0.5-0.4-0.7-0.7c-0.3-0.7-0.3-1.5,0-2.2c0.2-0.3,0.4-0.6,0.7-0.7c0.3-0.2,0.7-0.2,1-0.2c0.3,0,0.7,0.1,1,0.2
	c0.3,0.2,0.5,0.4,0.6,0.7c0.2,0.3,0.2,0.6,0.2,0.9C140.7,67.7,140.7,67.8,140.7,67.9z M140,66.7c-0.1-0.2-0.3-0.4-0.5-0.5
	c-0.2-0.1-0.5-0.2-0.7-0.2c-0.4,0-0.7,0.1-1,0.4c-0.3,0.3-0.4,0.6-0.4,1h2.8C140.1,67.2,140.1,66.9,140,66.7z"/>
<path class="st8" d="M147,64.6V65h-1.4v4.7h-0.5V65h-1.4v-0.4L147,64.6z"/>
<path class="st8" d="M148.8,69.5c-0.3-0.2-0.5-0.4-0.7-0.7c-0.3-0.7-0.3-1.5,0-2.2c0.2-0.3,0.4-0.5,0.7-0.7c0.3-0.2,0.7-0.3,1-0.2
	c0.3,0,0.7,0.1,1,0.2c0.3,0.2,0.5,0.4,0.7,0.7c0.2,0.3,0.3,0.7,0.3,1.1c0,0.4-0.1,0.7-0.3,1.1c-0.2,0.3-0.4,0.6-0.7,0.7
	c-0.3,0.2-0.7,0.3-1,0.2C149.4,69.7,149.1,69.7,148.8,69.5z M150.5,69.1c0.2-0.1,0.4-0.3,0.5-0.5c0.3-0.6,0.3-1.2,0-1.8
	c-0.1-0.2-0.3-0.4-0.5-0.5c-0.2-0.1-0.5-0.2-0.7-0.2c-0.3,0-0.5,0.1-0.7,0.2c-0.2,0.1-0.4,0.3-0.5,0.5c-0.3,0.6-0.3,1.2,0,1.8
	c0.1,0.2,0.3,0.4,0.5,0.5c0.2,0.1,0.5,0.2,0.7,0.2C150,69.3,150.3,69.2,150.5,69.1L150.5,69.1z"/>
<path class="st8" d="M153.6,66.1v2.5c0,0.2,0,0.4,0.1,0.5c0.1,0.1,0.3,0.2,0.5,0.1h0.5v0.4h-0.5c-0.3,0-0.6-0.1-0.8-0.3
	c-0.2-0.2-0.3-0.5-0.3-0.8v-2.5h-0.6v-0.4h0.6v-1h0.5v1h1.1v0.4H153.6z"/>
<path class="st8" d="M155.7,66.6c0.1-0.3,0.4-0.5,0.7-0.7c0.3-0.2,0.7-0.3,1-0.2c0.4,0,0.7,0.1,1,0.3c0.3,0.2,0.5,0.4,0.6,0.7v-0.9
	h0.5v4H159v-0.9c-0.1,0.3-0.3,0.5-0.6,0.7c-0.3,0.2-0.6,0.3-1,0.3c-0.3,0-0.7-0.1-1-0.2c-0.3-0.2-0.5-0.4-0.7-0.7
	C155.4,68.1,155.4,67.3,155.7,66.6L155.7,66.6z M158.7,66.8c-0.1-0.2-0.3-0.4-0.5-0.6c-0.2-0.1-0.5-0.2-0.7-0.2
	c-0.3,0-0.5,0.1-0.8,0.2c-0.2,0.1-0.4,0.3-0.5,0.6c-0.1,0.3-0.2,0.6-0.2,0.9c0,0.3,0.1,0.6,0.2,0.9c0.1,0.2,0.3,0.4,0.5,0.6
	c0.2,0.1,0.5,0.2,0.8,0.2c0.3,0,0.5-0.1,0.7-0.2c0.2-0.1,0.4-0.3,0.5-0.6C159,68,159,67.4,158.7,66.8L158.7,66.8z"/>
<path class="st8" d="M161.4,64.3v5.4h-0.5v-5.4H161.4z"/>
<path class="st3" d="M102.3,88.4c-0.3,0.5-0.8,0.9-1.3,1.2c-0.7,0.3-1.4,0.5-2.1,0.5v1.3h-1v-1.3c-1,0-1.9-0.4-2.7-1
	c-0.7-0.6-1.1-1.5-1.1-2.4H97c0,0.6,0.4,1.1,0.9,1.2v-2.6c-0.7-0.2-1.3-0.4-2-0.6c-0.5-0.2-1-0.6-1.3-1c-0.4-0.5-0.6-1.2-0.6-1.8
	c0-0.9,0.4-1.8,1.1-2.3c0.8-0.6,1.8-1,2.8-1v-1.3h1v1.3c1,0,1.9,0.4,2.7,1c0.6,0.6,1,1.4,1.1,2.3h-2.9c0-0.5-0.3-1-0.8-1.1v2.5
	c0.7,0.2,1.3,0.4,2,0.7c0.5,0.2,0.9,0.6,1.3,1c0.4,0.5,0.6,1.2,0.6,1.8C102.8,87.4,102.6,87.9,102.3,88.4z M97.2,82.5
	c0.2,0.2,0.4,0.4,0.7,0.5v-2.2c-0.3,0-0.5,0.2-0.7,0.4C96.8,81.5,96.8,82.1,97.2,82.5L97.2,82.5z M99.7,87.6
	c0.2-0.2,0.3-0.5,0.3-0.8c0-0.3-0.1-0.5-0.3-0.7c-0.2-0.2-0.5-0.4-0.8-0.5V88C99.2,87.9,99.4,87.8,99.7,87.6L99.7,87.6z"/>
<path class="st3" d="M108.6,80.9v-2.5h4.4V90h-2.8v-9.1H108.6z"/>
<path class="st3" d="M115.1,80.9v-2.5h4.4V90h-2.9v-9.1H115.1z"/>
<path class="st3" d="M125.1,87.5l-1.7,4.6h-1.7l0.9-4.6H125.1z"/>
<path class="st3" d="M127.3,87.4c1-0.9,1.9-1.6,2.5-2.1c0.6-0.5,1.1-1.1,1.5-1.7c0.4-0.5,0.6-1.1,0.6-1.8c0-0.4-0.1-0.7-0.3-1
	c-0.2-0.3-0.6-0.4-0.9-0.4c-0.4,0-0.8,0.1-1,0.4c-0.2,0.4-0.4,0.8-0.3,1.3h-2.6c0-0.8,0.2-1.6,0.6-2.3c0.3-0.6,0.8-1.1,1.5-1.3
	c0.6-0.3,1.3-0.4,2-0.4c1.1-0.1,2.1,0.3,2.9,1c0.7,0.7,1,1.6,1,2.5c0,1.2-0.4,2.3-1.2,3.2c-0.9,1.1-1.9,2-3,2.9h4.3v2.2h-8v-2
	L127.3,87.4z"/>
<path class="st3" d="M137.6,79.7c1.6-1.9,4.5-2.1,6.4-0.5c0.2,0.2,0.3,0.3,0.5,0.5c0.8,1.3,1.1,2.8,1.1,4.3c0.1,1.5-0.3,3-1.1,4.4
	c-1.6,1.9-4.5,2.1-6.4,0.5c-0.2-0.2-0.3-0.3-0.5-0.5c-0.8-1.3-1.1-2.8-1.1-4.4C136.5,82.5,136.8,81,137.6,79.7z M142.5,81.6
	c-0.4-0.8-1.4-1.1-2.2-0.7c-0.3,0.2-0.5,0.4-0.7,0.7c-0.3,0.8-0.4,1.6-0.4,2.5c0,0.6,0,1.2,0.1,1.8c0.1,0.4,0.2,0.8,0.5,1.2
	c0.3,0.3,0.7,0.5,1.2,0.4c0.4,0,0.9-0.1,1.2-0.4c0.3-0.3,0.5-0.7,0.5-1.2c0.1-0.6,0.1-1.2,0.1-1.8C142.9,83.2,142.8,82.4,142.5,81.6
	z"/>
<path class="st3" d="M147.2,80.9v-2.5h4.4V90h-2.9v-9.1H147.2z"/>
<path class="st3" d="M154.4,89.7c-0.3-0.3-0.5-0.7-0.4-1.1c0-0.4,0.2-0.8,0.4-1.1c0.3-0.3,0.7-0.4,1.2-0.4c0.4,0,0.8,0.1,1.2,0.4
	c0.3,0.3,0.5,0.7,0.5,1.1c0,0.4-0.2,0.8-0.5,1.1c-0.3,0.3-0.7,0.4-1.2,0.4C155.1,90.2,154.7,90,154.4,89.7z"/>
<path class="st3" d="M167.2,80.7h-5V83c0.3-0.3,0.6-0.5,0.9-0.6c0.4-0.1,0.8-0.2,1.2-0.2c0.7,0,1.4,0.2,2,0.5
	c0.5,0.4,0.9,0.8,1.2,1.4c0.2,0.6,0.4,1.2,0.4,1.9c0.1,1.1-0.3,2.2-1.1,3c-0.8,0.8-1.9,1.2-3,1.1c-0.8,0-1.5-0.1-2.2-0.4
	c-0.6-0.3-1.1-0.7-1.5-1.2c-0.3-0.5-0.5-1.2-0.6-1.8h2.7c0.1,0.3,0.2,0.6,0.5,0.8c0.3,0.2,0.6,0.3,1,0.3c0.4,0,0.8-0.1,1.1-0.5
	c0.3-0.4,0.4-0.8,0.4-1.3c0-0.4-0.1-0.9-0.4-1.2c-0.3-0.3-0.7-0.5-1.1-0.4c-0.3,0-0.6,0.1-0.9,0.3c-0.2,0.2-0.4,0.4-0.5,0.7h-2.6v-7
	h7.5L167.2,80.7z"/>
<path class="st3" d="M174.3,87.9c0.5,0,1-0.3,1.2-0.8c0.3-0.8,0.4-1.6,0.4-2.4c-0.3,0.3-0.6,0.6-1,0.8c-0.4,0.2-0.9,0.3-1.4,0.3
	c-0.6,0-1.3-0.1-1.8-0.4c-0.5-0.3-1-0.7-1.2-1.3c-0.3-0.6-0.5-1.3-0.5-2c0-0.7,0.2-1.4,0.5-2.1c0.3-0.6,0.8-1.1,1.4-1.4
	c0.7-0.3,1.4-0.5,2.1-0.5c1.3-0.1,2.5,0.4,3.3,1.5c0.7,1.3,1,2.8,0.9,4.3c0,1.2-0.1,2.3-0.4,3.4c-0.3,1.7-1.9,2.9-3.7,2.8
	c-0.7,0-1.4-0.1-2.1-0.5c-0.5-0.3-1-0.7-1.3-1.3c-0.3-0.5-0.5-1.1-0.5-1.7h2.5C172.8,87.4,173.5,88,174.3,87.9
	C174.2,87.9,174.3,87.9,174.3,87.9z M175.2,83.1c0.3-0.3,0.4-0.7,0.4-1.1c0-0.4-0.1-0.9-0.4-1.2c-0.3-0.3-0.7-0.4-1.1-0.4
	c-0.4,0-0.8,0.1-1.1,0.4c-0.3,0.3-0.4,0.7-0.4,1.2c0,0.4,0.1,0.8,0.4,1.1c0.3,0.3,0.7,0.4,1.2,0.4C174.5,83.6,174.9,83.4,175.2,83.1
	z"/>
<path class="st3" d="M31.4,366v-8.5h3.9c0.4,0,0.8,0.1,1.2,0.2c0.3,0.2,0.7,0.4,0.9,0.7c0.3,0.3,0.5,0.6,0.6,1
	c0.1,0.3,0.2,0.7,0.2,1.1c0,0.3,0,0.6-0.2,1c-0.1,0.3-0.2,0.6-0.4,0.8c-0.2,0.3-0.4,0.5-0.7,0.7l1.8,3.1h-2.6l-1.5-2.6h-1v2.6
	L31.4,366z M33.8,361.3h1.4c0.1,0,0.2,0,0.3-0.1c0.1-0.1,0.2-0.2,0.2-0.3c0.1-0.2,0.1-0.3,0.1-0.5c0-0.2,0-0.3-0.1-0.5
	c-0.1-0.1-0.1-0.2-0.2-0.3c-0.1-0.1-0.2-0.1-0.3-0.1h-1.4L33.8,361.3z"/>
<path class="st3" d="M31.3,462.4v-8.5h3.9c0.4,0,0.8,0.1,1.2,0.2c0.3,0.2,0.7,0.4,0.9,0.7c0.3,0.3,0.5,0.6,0.6,1
	c0.1,0.3,0.2,0.7,0.2,1.1c0,0.3,0,0.6-0.2,1c-0.1,0.3-0.2,0.6-0.4,0.8c-0.2,0.3-0.4,0.5-0.7,0.7l1.8,3.1h-2.6l-1.5-2.6h-1v2.6
	L31.3,462.4z M33.7,457.8h1.4c0.1,0,0.2,0,0.3-0.1c0.1-0.1,0.2-0.2,0.2-0.3c0.1-0.2,0.1-0.3,0.1-0.5c0-0.2,0-0.3-0.1-0.5
	c-0.1-0.1-0.1-0.2-0.2-0.3c-0.1-0.1-0.2-0.1-0.3-0.1h-1.4L33.7,457.8z"/>
<path class="st3" d="M31.3,510.4v-8.5h3.9c0.4,0,0.8,0.1,1.2,0.3c0.3,0.2,0.7,0.4,0.9,0.7c0.3,0.3,0.5,0.6,0.6,1
	c0.1,0.3,0.2,0.7,0.2,1.1c0,0.3-0.1,0.6-0.2,0.9c-0.1,0.3-0.2,0.6-0.4,0.8c-0.2,0.3-0.4,0.5-0.7,0.7l1.8,3.1h-2.6l-1.5-2.6h-1v2.6
	L31.3,510.4z M33.7,505.8h1.4c0.1,0,0.2,0,0.3-0.1c0.1-0.1,0.2-0.2,0.2-0.3c0.1-0.2,0.1-0.3,0.1-0.5c0-0.2,0-0.3-0.1-0.5
	c-0.1-0.1-0.1-0.2-0.2-0.3c-0.1-0.1-0.2-0.1-0.3-0.1h-1.4L33.7,505.8z"/>
<path class="st3" d="M31.5,413.9v-8.5h3.3c0.8,0,1.6,0.2,2.4,0.6c0.6,0.4,1.1,0.9,1.4,1.5c0.7,1.4,0.7,3,0,4.4
	c-0.3,0.6-0.9,1.1-1.5,1.5c-0.7,0.4-1.5,0.5-2.3,0.5L31.5,413.9z M36.7,409.6c0-0.4-0.1-0.8-0.2-1.2c-0.3-0.7-1-1.1-1.7-1h-0.9v4.4
	h0.9c0.4,0,0.7-0.1,1-0.3c0.3-0.2,0.5-0.5,0.7-0.8C36.6,410.4,36.7,410,36.7,409.6L36.7,409.6z"/>
<path class="st3" d="M31.3,558.6V550h3.3c0.8,0,1.6,0.2,2.4,0.6c0.6,0.4,1.1,0.9,1.4,1.5c0.7,1.4,0.7,3,0,4.4
	c-0.3,0.6-0.9,1.1-1.5,1.5c-0.7,0.4-1.5,0.5-2.3,0.5H31.3z M36.5,554.3c0-0.4-0.1-0.8-0.2-1.2c-0.3-0.7-1-1.1-1.7-1h-0.9v4.4h0.9
	c0.4,0,0.7-0.1,1-0.3c0.3-0.2,0.5-0.5,0.7-0.8C36.4,555.1,36.5,554.7,36.5,554.3z"/>
</svg>
