<svg id="App_Screen" data-name="App Screen" xmlns="http://www.w3.org/2000/svg" xmlns:xlink="http://www.w3.org/1999/xlink" viewBox="0 0 272.73 390.48"><defs><style>.cls-1{fill:#0f0f1e;}.cls-2{fill:#fff;}.cls-3{fill:#151524;}.cls-4{fill:#aeaeb3;}.cls-5{fill:url(#linear-gradient);}.cls-6{fill:url(#linear-gradient-2);}.cls-7{fill:url(#linear-gradient-3);}.cls-8{fill:url(#linear-gradient-4);}.cls-9{fill:url(#linear-gradient-5);}.cls-10{fill:url(#linear-gradient-6);}.cls-11{fill:url(#linear-gradient-7);}.cls-12{fill:url(#linear-gradient-8);}.cls-13{fill:url(#linear-gradient-9);}</style><linearGradient id="linear-gradient" x1="21.82" y1="208.19" x2="222.56" y2="208.19" gradientUnits="userSpaceOnUse"><stop offset="0" stop-color="#7a33a6"/><stop offset="1" stop-color="#4733a6"/></linearGradient><linearGradient id="linear-gradient-2" x1="27.08" y1="197.28" x2="227.82" y2="197.28" xlink:href="#linear-gradient"/><linearGradient id="linear-gradient-3" x1="81.52" y1="190.01" x2="282.27" y2="190.01" xlink:href="#linear-gradient"/><linearGradient id="linear-gradient-4" x1="-6.85" y1="179.1" x2="193.89" y2="179.1" xlink:href="#linear-gradient"/><linearGradient id="linear-gradient-5" x1="48.86" y1="173.64" x2="249.6" y2="173.64" xlink:href="#linear-gradient"/><linearGradient id="linear-gradient-6" x1="31.14" y1="327.73" x2="72.02" y2="327.73" xlink:href="#linear-gradient"/><linearGradient id="linear-gradient-7" x1="87.66" y1="327.73" x2="128.54" y2="327.73" xlink:href="#linear-gradient"/><linearGradient id="linear-gradient-8" x1="144.19" y1="327.73" x2="185.06" y2="327.73" xlink:href="#linear-gradient"/><linearGradient id="linear-gradient-9" x1="200.71" y1="327.73" x2="241.59" y2="327.73" xlink:href="#linear-gradient"/></defs><path class="cls-1" d="M12.62,396.05V49.55c0-24.29,17.91-44,40-44H245.34c22.1,0,40,19.69,40,44v346.5" transform="translate(-12.62 -5.57)"/><polygon class="cls-2" points="39.77 35.98 24.6 35.98 29.21 40.6 28.19 41.62 21.82 35.26 28.19 28.89 29.21 29.92 24.6 34.53 39.77 34.53 39.77 35.98"/><rect class="cls-3" x="224.03" y="21.82" width="26.88" height="26.88" rx="5"/><path class="cls-2" d="M42.88,96.21a2,2,0,0,0-.87-.85,2.81,2.81,0,0,0-1.33-.3,2.74,2.74,0,0,0-2.13.87,3.3,3.3,0,0,0-.8,2.33,3.37,3.37,0,0,0,.84,2.43,3.06,3.06,0,0,0,2.31.87,2.79,2.79,0,0,0,1.7-.51,2.91,2.91,0,0,0,1-1.48H40.15v-2h6v2.54a5.38,5.38,0,0,1-2.88,3.33,5.76,5.76,0,0,1-2.53.54,6,6,0,0,1-3-.72,5.21,5.21,0,0,1-2-2,6,6,0,0,1-.73-3,6.05,6.05,0,0,1,.73-3,5.21,5.21,0,0,1,2-2,6,6,0,0,1,3-.73,5.73,5.73,0,0,1,3.39,1,4.59,4.59,0,0,1,1.84,2.7Z" transform="translate(-12.62 -5.57)"/><path class="cls-2" d="M48.07,97a3.83,3.83,0,0,1,1.42-1.6,3.66,3.66,0,0,1,2-.56,3.53,3.53,0,0,1,1.66.38,2.81,2.81,0,0,1,1.09,1V95H57v8.92H54.24v-1.26a2.94,2.94,0,0,1-1.11,1,3.49,3.49,0,0,1-1.65.38,3.64,3.64,0,0,1-2-.57,3.86,3.86,0,0,1-1.42-1.61,5.5,5.5,0,0,1-.51-2.43A5.41,5.41,0,0,1,48.07,97Zm5.61.81a1.88,1.88,0,0,0-1.39-.59,1.86,1.86,0,0,0-1.38.59,2.19,2.19,0,0,0-.57,1.6,2.26,2.26,0,0,0,.57,1.63,1.83,1.83,0,0,0,1.38.6,1.88,1.88,0,0,0,1.39-.59,2.62,2.62,0,0,0,0-3.24Z" transform="translate(-12.62 -5.57)"/><path class="cls-2" d="M61,103.62a3.63,3.63,0,0,1-1.44-1.09A3,3,0,0,1,59,101h2.71a1,1,0,0,0,.43.75A1.52,1.52,0,0,0,63,102a1.35,1.35,0,0,0,.79-.2.62.62,0,0,0,.28-.52.59.59,0,0,0-.4-.57,7.94,7.94,0,0,0-1.29-.41,13.38,13.38,0,0,1-1.6-.47,2.8,2.8,0,0,1-1.11-.79,2.11,2.11,0,0,1-.46-1.44,2.45,2.45,0,0,1,.42-1.4,2.8,2.8,0,0,1,1.25-1,4.73,4.73,0,0,1,2-.37,4,4,0,0,1,2.65.83,3.18,3.18,0,0,1,1.11,2.21H64.11a1.07,1.07,0,0,0-.4-.74,1.43,1.43,0,0,0-.91-.27,1.25,1.25,0,0,0-.73.18.6.6,0,0,0-.26.51.61.61,0,0,0,.41.57,6.3,6.3,0,0,0,1.27.39,15.5,15.5,0,0,1,1.62.5,2.8,2.8,0,0,1,1.09.8,2.23,2.23,0,0,1,.49,1.48,2.38,2.38,0,0,1-.44,1.4,2.85,2.85,0,0,1-1.26,1,5,5,0,0,1-1.92.35A5.11,5.11,0,0,1,61,103.62Z" transform="translate(-12.62 -5.57)"/><path class="cls-2" d="M73.83,101.57v2.32H72.44a3.46,3.46,0,0,1-2.33-.72,3,3,0,0,1-.83-2.38V97.24H68.19V95h1.09V92.79H72V95h1.79v2.27H72v3.58a.75.75,0,0,0,.19.58.93.93,0,0,0,.64.17Z" transform="translate(-12.62 -5.57)"/><path class="cls-2" d="M77.53,103.46a4,4,0,0,1-1.65-1.6,4.76,4.76,0,0,1-.6-2.43A4.65,4.65,0,0,1,75.89,97a4.14,4.14,0,0,1,1.66-1.61,4.94,4.94,0,0,1,2.37-.56,4.88,4.88,0,0,1,2.37.56A4.08,4.08,0,0,1,84,97a5.11,5.11,0,0,1,0,4.84,4.13,4.13,0,0,1-1.68,1.61,5,5,0,0,1-2.38.56A4.87,4.87,0,0,1,77.53,103.46Zm3.7-2.38a2.77,2.77,0,0,0,0-3.3,1.73,1.73,0,0,0-1.32-.57,1.78,1.78,0,0,0-1.33.56,2.89,2.89,0,0,0,0,3.31,1.68,1.68,0,0,0,1.3.57A1.81,1.81,0,0,0,81.23,101.08Z" transform="translate(-12.62 -5.57)"/><path class="cls-2" d="M88.05,103.62a3.49,3.49,0,0,1-1.44-1.09A2.91,2.91,0,0,1,86,101h2.7a1,1,0,0,0,.43.75,1.58,1.58,0,0,0,.95.29,1.38,1.38,0,0,0,.79-.2.62.62,0,0,0,.28-.52.59.59,0,0,0-.4-.57,8.5,8.5,0,0,0-1.3-.41,13.38,13.38,0,0,1-1.6-.47,2.84,2.84,0,0,1-1.1-.79,2.11,2.11,0,0,1-.46-1.44,2.45,2.45,0,0,1,.42-1.4,2.75,2.75,0,0,1,1.25-1,4.7,4.7,0,0,1,2-.37,4,4,0,0,1,2.65.83,3.26,3.26,0,0,1,1.11,2.21H91.17a1.08,1.08,0,0,0-.41-.74,1.42,1.42,0,0,0-.9-.27,1.28,1.28,0,0,0-.74.18.62.62,0,0,0,.15,1.08,6.67,6.67,0,0,0,1.28.39,14.51,14.51,0,0,1,1.61.5,2.84,2.84,0,0,1,1.1.8,2.29,2.29,0,0,1,.49,1.48,2.38,2.38,0,0,1-.44,1.4,2.94,2.94,0,0,1-1.27,1,4.89,4.89,0,0,1-1.91.35A5.08,5.08,0,0,1,88.05,103.62Z" transform="translate(-12.62 -5.57)"/><path class="cls-2" d="M99.75,97a3.83,3.83,0,0,1,1.42-1.6,3.66,3.66,0,0,1,2-.56,3.47,3.47,0,0,1,1.61.37,2.83,2.83,0,0,1,1.14,1V92.05h2.74v11.84h-2.74v-1.28a2.78,2.78,0,0,1-1.09,1,3.53,3.53,0,0,1-1.66.38,3.67,3.67,0,0,1-2-.57,3.86,3.86,0,0,1-1.42-1.61,5.5,5.5,0,0,1-.52-2.43A5.41,5.41,0,0,1,99.75,97Zm5.6.81a1.91,1.91,0,0,0-2.76,0,2.19,2.19,0,0,0-.57,1.6,2.26,2.26,0,0,0,.57,1.63,1.9,1.9,0,0,0,2.76,0,2.59,2.59,0,0,0,0-3.24Z" transform="translate(-12.62 -5.57)"/><path class="cls-2" d="M119.49,100.09H113.3a1.88,1.88,0,0,0,.53,1.27,1.68,1.68,0,0,0,1.16.44,1.44,1.44,0,0,0,1.43-.87h2.91a4,4,0,0,1-.81,1.59,3.92,3.92,0,0,1-1.46,1.1,4.66,4.66,0,0,1-2,.4,4.76,4.76,0,0,1-2.34-.56,4,4,0,0,1-1.6-1.6,5.46,5.46,0,0,1,0-4.86,3.83,3.83,0,0,1,1.59-1.6,4.72,4.72,0,0,1,2.35-.56,4.79,4.79,0,0,1,2.3.54A3.87,3.87,0,0,1,119,96.93a4.74,4.74,0,0,1,.57,2.36A7.63,7.63,0,0,1,119.49,100.09Zm-2.75-1.52a1.4,1.4,0,0,0-.48-1.12,1.76,1.76,0,0,0-1.2-.42,1.71,1.71,0,0,0-1.16.4,1.8,1.8,0,0,0-.59,1.14Z" transform="translate(-12.62 -5.57)"/><path class="cls-2" d="M124.19,92.05v11.84h-2.73V92.05Z" transform="translate(-12.62 -5.57)"/><path class="cls-2" d="M143.25,92.66v11.23h-2.74V97.16L138,103.89h-2.21l-2.52-6.75v6.75h-2.74V92.66h3.23l3.15,7.78L140,92.66Z" transform="translate(-12.62 -5.57)"/><path class="cls-2" d="M154.07,100.09h-6.2a1.94,1.94,0,0,0,.54,1.27,1.64,1.64,0,0,0,1.16.44,1.43,1.43,0,0,0,1.42-.87h2.92a4,4,0,0,1-.81,1.59,4,4,0,0,1-1.47,1.1,4.61,4.61,0,0,1-2,.4,4.71,4.71,0,0,1-2.34-.56,3.91,3.91,0,0,1-1.6-1.6,5.42,5.42,0,0,1,0-4.86,3.89,3.89,0,0,1,1.59-1.6,5.21,5.21,0,0,1,4.66,0,3.93,3.93,0,0,1,1.58,1.55,4.84,4.84,0,0,1,.56,2.36A7.51,7.51,0,0,1,154.07,100.09Zm-2.76-1.52a1.4,1.4,0,0,0-.48-1.12,1.9,1.9,0,0,0-2.36,0,1.79,1.79,0,0,0-.58,1.14Z" transform="translate(-12.62 -5.57)"/><path class="cls-2" d="M157.59,103.62a3.49,3.49,0,0,1-1.44-1.09,2.92,2.92,0,0,1-.6-1.56h2.71a1,1,0,0,0,.43.75,1.55,1.55,0,0,0,.94.29,1.39,1.39,0,0,0,.8-.2.64.64,0,0,0,.28-.52.61.61,0,0,0-.4-.57,8.5,8.5,0,0,0-1.3-.41,13.38,13.38,0,0,1-1.6-.47,2.7,2.7,0,0,1-1.1-.79,2.11,2.11,0,0,1-.47-1.44,2.39,2.39,0,0,1,.43-1.4,2.72,2.72,0,0,1,1.24-1,4.73,4.73,0,0,1,2-.37,4,4,0,0,1,2.65.83,3.18,3.18,0,0,1,1.11,2.21h-2.52a1.12,1.12,0,0,0-.41-.74,1.43,1.43,0,0,0-.91-.27,1.25,1.25,0,0,0-.73.18.6.6,0,0,0-.26.51.61.61,0,0,0,.41.57,6.52,6.52,0,0,0,1.27.39,15.5,15.5,0,0,1,1.62.5,2.8,2.8,0,0,1,1.09.8,2.23,2.23,0,0,1,.49,1.48,2.38,2.38,0,0,1-.44,1.4,2.85,2.85,0,0,1-1.26,1,4.93,4.93,0,0,1-1.91.35A5,5,0,0,1,157.59,103.62Z" transform="translate(-12.62 -5.57)"/><path class="cls-2" d="M40.39,293.43a1.86,1.86,0,0,1-.25,2.52,2.64,2.64,0,0,1-1.74.53H35.07v-7.15h3.21a2.6,2.6,0,0,1,1.71.5,1.81,1.81,0,0,1,.28,2.4,1.69,1.69,0,0,1-.88.58A1.63,1.63,0,0,1,40.39,293.43Zm-3.58-1.21H38a1,1,0,0,0,.65-.19.65.65,0,0,0,.23-.55.67.67,0,0,0-.23-.56,1,1,0,0,0-.65-.2H36.81Zm2,2.65a.69.69,0,0,0,.24-.57.75.75,0,0,0-.25-.59,1,1,0,0,0-.69-.22H36.81v1.58h1.28A1.06,1.06,0,0,0,38.77,294.87Z" transform="translate(-12.62 -5.57)"/><path class="cls-2" d="M44.59,291a1.93,1.93,0,0,1,1-.27v1.85h-.47a1.45,1.45,0,0,0-1,.28,1.22,1.22,0,0,0-.33,1v2.64H42.08v-5.69h1.74v.95A2.36,2.36,0,0,1,44.59,291Z" transform="translate(-12.62 -5.57)"/><path class="cls-2" d="M52.07,294.05H48.13a1.17,1.17,0,0,0,.34.81,1,1,0,0,0,.74.28.9.9,0,0,0,.9-.55H52a2.56,2.56,0,0,1-.52,1,2.44,2.44,0,0,1-.93.7,3,3,0,0,1-1.25.26,3,3,0,0,1-1.49-.36,2.54,2.54,0,0,1-1-1,3.07,3.07,0,0,1-.37-1.55,3.16,3.16,0,0,1,.36-1.54,2.54,2.54,0,0,1,1-1,3.28,3.28,0,0,1,3,0,2.51,2.51,0,0,1,1,1,3,3,0,0,1,.36,1.49A4.36,4.36,0,0,1,52.07,294.05Zm-1.75-1a.89.89,0,0,0-.31-.71,1.13,1.13,0,0,0-.76-.26,1.11,1.11,0,0,0-.74.25,1.14,1.14,0,0,0-.37.72Z" transform="translate(-12.62 -5.57)"/><path class="cls-2" d="M53.31,292.09a2.49,2.49,0,0,1,.9-1,2.32,2.32,0,0,1,1.27-.36,2.09,2.09,0,0,1,1.05.25,1.68,1.68,0,0,1,.7.64v-.81H59v5.69H57.23v-.81a1.77,1.77,0,0,1-.71.64,2.09,2.09,0,0,1-1.05.25,2.31,2.31,0,0,1-1.26-.36,2.59,2.59,0,0,1-.9-1,3.47,3.47,0,0,1-.33-1.55A3.38,3.38,0,0,1,53.31,292.09Zm3.56.52a1.22,1.22,0,0,0-1.76,0,1.41,1.41,0,0,0-.36,1,1.46,1.46,0,0,0,.36,1,1.21,1.21,0,0,0,1.76,0,1.64,1.64,0,0,0,0-2.05Z" transform="translate(-12.62 -5.57)"/><path class="cls-2" d="M64,296.48l-1.73-2.39v2.39H60.54v-7.54h1.74v4.17L64,290.79h2.15l-2.36,2.85,2.38,2.84Z" transform="translate(-12.62 -5.57)"/><path class="cls-2" d="M67.12,292.09a2.49,2.49,0,0,1,.9-1,2.36,2.36,0,0,1,1.28-.36,2.19,2.19,0,0,1,1,.24,1.8,1.8,0,0,1,.73.63v-2.64h1.74v7.54H71.05v-.82a1.83,1.83,0,0,1-.7.65,2.09,2.09,0,0,1-1,.25A2.36,2.36,0,0,1,68,296.2a2.59,2.59,0,0,1-.9-1,3.47,3.47,0,0,1-.33-1.55A3.38,3.38,0,0,1,67.12,292.09Zm3.57.52a1.23,1.23,0,0,0-1.77,0,1.41,1.41,0,0,0-.36,1,1.46,1.46,0,0,0,.36,1,1.22,1.22,0,0,0,1.77,0,1.64,1.64,0,0,0,0-2.05Z" transform="translate(-12.62 -5.57)"/><path class="cls-2" d="M75.44,296.2a2.71,2.71,0,0,1-1-1,3.07,3.07,0,0,1-.38-1.55,3,3,0,0,1,.39-1.54,2.6,2.6,0,0,1,1.06-1,3.11,3.11,0,0,1,1.5-.36,3.15,3.15,0,0,1,1.51.36,2.67,2.67,0,0,1,1.06,1,3.22,3.22,0,0,1,0,3.09,2.63,2.63,0,0,1-1.07,1,3.33,3.33,0,0,1-3,0Zm2.35-1.52a1.42,1.42,0,0,0,.35-1.05,1.45,1.45,0,0,0-.34-1,1.07,1.07,0,0,0-.84-.37,1.09,1.09,0,0,0-.84.36,1.46,1.46,0,0,0-.34,1.05,1.5,1.5,0,0,0,.33,1.05,1.06,1.06,0,0,0,.83.37A1.11,1.11,0,0,0,77.79,294.68Z" transform="translate(-12.62 -5.57)"/><path class="cls-2" d="M89.3,290.79l-1.54,5.69H85.84l-.9-3.69L84,296.48H82.1l-1.54-5.69H82.3l.8,4.07,1-4.07H85.9l1,4,.79-4Z" transform="translate(-12.62 -5.57)"/><path class="cls-2" d="M95.32,291.38a2.51,2.51,0,0,1,.6,1.78v3.32H94.19v-3.09a1.26,1.26,0,0,0-.3-.89,1.16,1.16,0,0,0-1.58,0,1.26,1.26,0,0,0-.3.89v3.09H90.27v-5.69H92v.76a1.9,1.9,0,0,1,.71-.6,2.37,2.37,0,0,1,1-.22A2,2,0,0,1,95.32,291.38Z" transform="translate(-12.62 -5.57)"/><path class="cls-4" d="M38,253.44a1.29,1.29,0,0,1-.5.51,1.71,1.71,0,0,1-.81.23v.58h-.33v-.59a1.73,1.73,0,0,1-1-.42,1.29,1.29,0,0,1-.43-.92h.54a1,1,0,0,0,.27.6,1.09,1.09,0,0,0,.66.32v-2a5.73,5.73,0,0,1-.78-.27,1.27,1.27,0,0,1-.5-.4,1.22,1.22,0,0,1-.2-.73,1.24,1.24,0,0,1,.4-1,1.64,1.64,0,0,1,1.08-.4v-.61h.33V249a1.56,1.56,0,0,1,1,.4,1.32,1.32,0,0,1,.43.83h-.54a.93.93,0,0,0-.26-.5,1.07,1.07,0,0,0-.59-.29v1.94a4.89,4.89,0,0,1,.77.26,1.19,1.19,0,0,1,.71,1.16A1.34,1.34,0,0,1,38,253.44Zm-2.35-2.51a2,2,0,0,0,.71.35v-1.87a1.12,1.12,0,0,0-.7.25.87.87,0,0,0-.26.66A.74.74,0,0,0,35.64,250.93Zm1.76,2.54a1,1,0,0,0,.25-.66.76.76,0,0,0-.25-.62,2.19,2.19,0,0,0-.72-.36v1.94A1.06,1.06,0,0,0,37.4,253.47Z" transform="translate(-12.62 -5.57)"/><path class="cls-4" d="M39.24,252.89v-.38l2.65-3.57h.6v3.51h.78v.44h-.78v1.24H42v-1.24ZM42,249.5l-2.18,2.95H42Z" transform="translate(-12.62 -5.57)"/><path class="cls-4" d="M44.53,249.53a1.45,1.45,0,0,1,1.38-.69,1.43,1.43,0,0,1,1.38.69,4,4,0,0,1,.39,1.94,4.14,4.14,0,0,1-.39,2,1.73,1.73,0,0,1-2.76,0,4.14,4.14,0,0,1-.39-2A4,4,0,0,1,44.53,249.53Zm2.55.8a1.4,1.4,0,0,0-.37-.75,1.05,1.05,0,0,0-.8-.28,1.07,1.07,0,0,0-.8.28,1.48,1.48,0,0,0-.37.75,6.12,6.12,0,0,0-.09,1.14,6.32,6.32,0,0,0,.09,1.17,1.48,1.48,0,0,0,.37.75,1.07,1.07,0,0,0,.8.29,1.06,1.06,0,0,0,.8-.29,1.4,1.4,0,0,0,.37-.75,5.48,5.48,0,0,0,.1-1.17A5.3,5.3,0,0,0,47.08,250.33Z" transform="translate(-12.62 -5.57)"/><path class="cls-4" d="M49.23,249.53a1.43,1.43,0,0,1,1.38-.69,1.45,1.45,0,0,1,1.38.69,4,4,0,0,1,.39,1.94,4.14,4.14,0,0,1-.39,2,1.74,1.74,0,0,1-2.77,0,4.27,4.27,0,0,1-.38-2A4,4,0,0,1,49.23,249.53Zm2.55.8a1.48,1.48,0,0,0-.37-.75,1.28,1.28,0,0,0-1.6,0,1.48,1.48,0,0,0-.37.75,6,6,0,0,0-.1,1.14,6.21,6.21,0,0,0,.1,1.17,1.48,1.48,0,0,0,.37.75,1.25,1.25,0,0,0,1.6,0,1.48,1.48,0,0,0,.37-.75,6.21,6.21,0,0,0,.1-1.17A6,6,0,0,0,51.78,250.33Z" transform="translate(-12.62 -5.57)"/><path class="cls-4" d="M53.47,254.06a.39.39,0,0,1-.1-.27.34.34,0,0,1,.37-.37.37.37,0,0,1,.26.1.41.41,0,0,1,.1.27.45.45,0,0,1-.1.27.37.37,0,0,1-.26.1A.36.36,0,0,1,53.47,254.06Z" transform="translate(-12.62 -5.57)"/><path class="cls-4" d="M55.47,249.53a1.43,1.43,0,0,1,1.38-.69,1.45,1.45,0,0,1,1.38.69,4,4,0,0,1,.39,1.94,4.14,4.14,0,0,1-.39,2,1.74,1.74,0,0,1-2.77,0,4.27,4.27,0,0,1-.38-2A4,4,0,0,1,55.47,249.53Zm2.55.8a1.48,1.48,0,0,0-.37-.75,1.07,1.07,0,0,0-.8-.28,1.05,1.05,0,0,0-.8.28,1.4,1.4,0,0,0-.37.75,5.3,5.3,0,0,0-.1,1.14,5.48,5.48,0,0,0,.1,1.17,1.4,1.4,0,0,0,.37.75,1.06,1.06,0,0,0,.8.29,1.07,1.07,0,0,0,.8-.29,1.48,1.48,0,0,0,.37-.75,6.32,6.32,0,0,0,.09-1.17A6.12,6.12,0,0,0,58,250.33Z" transform="translate(-12.62 -5.57)"/><path class="cls-4" d="M60.17,249.53a1.43,1.43,0,0,1,1.38-.69,1.45,1.45,0,0,1,1.38.69,4,4,0,0,1,.38,1.94,4.15,4.15,0,0,1-.38,2,1.74,1.74,0,0,1-2.77,0,4.27,4.27,0,0,1-.38-2A4,4,0,0,1,60.17,249.53Zm2.55.8a1.56,1.56,0,0,0-.37-.75,1.07,1.07,0,0,0-.8-.28,1.05,1.05,0,0,0-.8.28,1.4,1.4,0,0,0-.37.75,5.3,5.3,0,0,0-.1,1.14,5.48,5.48,0,0,0,.1,1.17,1.4,1.4,0,0,0,.37.75,1.06,1.06,0,0,0,.8.29,1.07,1.07,0,0,0,.8-.29,1.56,1.56,0,0,0,.37-.75,6.32,6.32,0,0,0,.09-1.17A6.12,6.12,0,0,0,62.72,250.33Z" transform="translate(-12.62 -5.57)"/><path class="cls-4" d="M85.26,253.44a1.29,1.29,0,0,1-.5.51,1.68,1.68,0,0,1-.81.23v.58h-.32v-.59a1.75,1.75,0,0,1-1-.42,1.29,1.29,0,0,1-.43-.92h.54a1,1,0,0,0,.27.6,1.09,1.09,0,0,0,.67.32v-2a5.47,5.47,0,0,1-.79-.27,1.18,1.18,0,0,1-.49-.4,1.15,1.15,0,0,1-.21-.73,1.24,1.24,0,0,1,.4-1,1.64,1.64,0,0,1,1.09-.4v-.61H84V249a1.56,1.56,0,0,1,1,.4,1.32,1.32,0,0,1,.43.83H84.8a.93.93,0,0,0-.26-.5,1.07,1.07,0,0,0-.59-.29v1.94a4.89,4.89,0,0,1,.77.26,1.34,1.34,0,0,1,.51.41,1.3,1.3,0,0,1,.2.75A1.34,1.34,0,0,1,85.26,253.44Zm-2.35-2.51a1.93,1.93,0,0,0,.72.35v-1.87a1.13,1.13,0,0,0-.71.25.87.87,0,0,0-.26.66A.74.74,0,0,0,82.91,250.93Zm1.76,2.54a.92.92,0,0,0,.25-.66.76.76,0,0,0-.25-.62,2.19,2.19,0,0,0-.72-.36v1.94A1,1,0,0,0,84.67,253.47Z" transform="translate(-12.62 -5.57)"/><path class="cls-4" d="M86.49,249.37v-.46h1.24v5.22h-.52v-4.76Z" transform="translate(-12.62 -5.57)"/><path class="cls-4" d="M91.05,251.93a2.38,2.38,0,0,0,.73-1.56,1.23,1.23,0,0,0-.25-.8,1,1,0,0,0-.82-.31,1.1,1.1,0,0,0-.86.35,1.48,1.48,0,0,0-.33.92H89a1.86,1.86,0,0,1,.5-1.26,1.84,1.84,0,0,1,2.33-.05,1.46,1.46,0,0,1,.44,1.13,2.59,2.59,0,0,1-.73,1.7,11.51,11.51,0,0,1-1.8,1.61h2.69v.43H89v-.36A15.84,15.84,0,0,0,91.05,251.93Z" transform="translate(-12.62 -5.57)"/><path class="cls-4" d="M93.84,249.53a1.74,1.74,0,0,1,2.77,0,4.12,4.12,0,0,1,.38,1.94,4.27,4.27,0,0,1-.38,2,1.74,1.74,0,0,1-2.77,0,5.24,5.24,0,0,1,0-3.92Zm2.56.8a1.49,1.49,0,0,0-.38-.75,1.27,1.27,0,0,0-1.59,0,1.49,1.49,0,0,0-.38.75,6.12,6.12,0,0,0-.09,1.14,6.32,6.32,0,0,0,.09,1.17,1.49,1.49,0,0,0,.38.75,1.23,1.23,0,0,0,1.59,0,1.49,1.49,0,0,0,.38-.75,6.32,6.32,0,0,0,.09-1.17A6.12,6.12,0,0,0,96.4,250.33Z" transform="translate(-12.62 -5.57)"/><path class="cls-4" d="M98.54,249.53a1.74,1.74,0,0,1,2.77,0,4.12,4.12,0,0,1,.38,1.94,4.27,4.27,0,0,1-.38,2,1.46,1.46,0,0,1-1.39.69,1.43,1.43,0,0,1-1.38-.69,4.15,4.15,0,0,1-.38-2A4,4,0,0,1,98.54,249.53Zm2.55.8a1.4,1.4,0,0,0-.37-.75,1.05,1.05,0,0,0-.8-.28,1.07,1.07,0,0,0-.8.28,1.48,1.48,0,0,0-.37.75,6.12,6.12,0,0,0-.09,1.14,6.32,6.32,0,0,0,.09,1.17,1.48,1.48,0,0,0,.37.75,1.07,1.07,0,0,0,.8.29,1.06,1.06,0,0,0,.8-.29,1.4,1.4,0,0,0,.37-.75,5.48,5.48,0,0,0,.1-1.17A5.3,5.3,0,0,0,101.09,250.33Z" transform="translate(-12.62 -5.57)"/><path class="cls-4" d="M102.78,254.06a.39.39,0,0,1-.1-.27.34.34,0,0,1,.37-.37.35.35,0,0,1,.26.1.36.36,0,0,1,.1.27.39.39,0,0,1-.1.27.35.35,0,0,1-.26.1A.36.36,0,0,1,102.78,254.06Z" transform="translate(-12.62 -5.57)"/><path class="cls-4" d="M104.78,249.53a1.74,1.74,0,0,1,2.77,0,4.12,4.12,0,0,1,.38,1.94,4.27,4.27,0,0,1-.38,2,1.46,1.46,0,0,1-1.39.69,1.43,1.43,0,0,1-1.38-.69,4.15,4.15,0,0,1-.38-2A4,4,0,0,1,104.78,249.53Zm2.55.8a1.4,1.4,0,0,0-.37-.75,1.05,1.05,0,0,0-.8-.28,1.07,1.07,0,0,0-.8.28,1.56,1.56,0,0,0-.37.75,6.12,6.12,0,0,0-.09,1.14,6.32,6.32,0,0,0,.09,1.17,1.56,1.56,0,0,0,.37.75,1.07,1.07,0,0,0,.8.29,1.06,1.06,0,0,0,.8-.29,1.4,1.4,0,0,0,.37-.75,5.48,5.48,0,0,0,.1-1.17A5.3,5.3,0,0,0,107.33,250.33Z" transform="translate(-12.62 -5.57)"/><path class="cls-4" d="M109.48,249.53a1.45,1.45,0,0,1,1.38-.69,1.43,1.43,0,0,1,1.38.69,4,4,0,0,1,.39,1.94,4.14,4.14,0,0,1-.39,2,1.72,1.72,0,0,1-2.76,0,4.14,4.14,0,0,1-.39-2A4,4,0,0,1,109.48,249.53Zm2.55.8a1.4,1.4,0,0,0-.37-.75,1.05,1.05,0,0,0-.8-.28,1.07,1.07,0,0,0-.8.28,1.48,1.48,0,0,0-.37.75,6.12,6.12,0,0,0-.09,1.14,6.32,6.32,0,0,0,.09,1.17,1.48,1.48,0,0,0,.37.75,1.07,1.07,0,0,0,.8.29,1.06,1.06,0,0,0,.8-.29,1.4,1.4,0,0,0,.37-.75,5.48,5.48,0,0,0,.1-1.17A5.3,5.3,0,0,0,112,250.33Z" transform="translate(-12.62 -5.57)"/><path class="cls-4" d="M132.53,253.44a1.29,1.29,0,0,1-.5.51,1.71,1.71,0,0,1-.81.23v.58h-.32v-.59a1.73,1.73,0,0,1-1.05-.42,1.29,1.29,0,0,1-.43-.92H130a1,1,0,0,0,.27.6,1.09,1.09,0,0,0,.67.32v-2a5.47,5.47,0,0,1-.79-.27,1.27,1.27,0,0,1-.5-.4,1.22,1.22,0,0,1-.2-.73,1.24,1.24,0,0,1,.4-1,1.64,1.64,0,0,1,1.09-.4v-.61h.32V249a1.56,1.56,0,0,1,1,.4,1.32,1.32,0,0,1,.43.83h-.54a.93.93,0,0,0-.26-.5,1.07,1.07,0,0,0-.59-.29v1.94a4.89,4.89,0,0,1,.77.26,1.19,1.19,0,0,1,.71,1.16A1.34,1.34,0,0,1,132.53,253.44Zm-2.35-2.51a1.93,1.93,0,0,0,.72.35v-1.87a1.13,1.13,0,0,0-.71.25.87.87,0,0,0-.26.66A.74.74,0,0,0,130.18,250.93Zm1.76,2.54a1,1,0,0,0,.25-.66.76.76,0,0,0-.25-.62,2.19,2.19,0,0,0-.72-.36v1.94A1.06,1.06,0,0,0,131.94,253.47Z" transform="translate(-12.62 -5.57)"/><path class="cls-4" d="M135.91,249.24a1.19,1.19,0,0,0-1.07.55,3.33,3.33,0,0,0-.33,1.82,1.23,1.23,0,0,1,.56-.69,1.72,1.72,0,0,1,.94-.25,1.57,1.57,0,0,1,1.21.47,1.78,1.78,0,0,1,.45,1.29,2.06,2.06,0,0,1-.19.87,1.42,1.42,0,0,1-.57.62,1.83,1.83,0,0,1-.95.23,1.58,1.58,0,0,1-1.49-.69,3.79,3.79,0,0,1-.41-2c0-1.79.61-2.69,1.85-2.69a1.52,1.52,0,0,1,1.09.38,1.61,1.61,0,0,1,.48,1H137A1,1,0,0,0,135.91,249.24Zm-.64,2a1.13,1.13,0,0,0-.5.42,1.19,1.19,0,0,0-.2.69,1.43,1.43,0,0,0,.35,1,1.32,1.32,0,0,0,1,.39,1.21,1.21,0,0,0,.9-.34,1.29,1.29,0,0,0,.33-.93,1.41,1.41,0,0,0-.33-1,1.18,1.18,0,0,0-.93-.36A1.57,1.57,0,0,0,135.27,251.24Z" transform="translate(-12.62 -5.57)"/><path class="cls-4" d="M139.19,249.53a1.43,1.43,0,0,1,1.38-.69,1.45,1.45,0,0,1,1.38.69,4,4,0,0,1,.38,1.94,4.15,4.15,0,0,1-.38,2,1.74,1.74,0,0,1-2.77,0,4.27,4.27,0,0,1-.38-2A4,4,0,0,1,139.19,249.53Zm2.55.8a1.48,1.48,0,0,0-.37-.75,1.07,1.07,0,0,0-.8-.28,1.05,1.05,0,0,0-.8.28,1.4,1.4,0,0,0-.37.75,5.3,5.3,0,0,0-.1,1.14,5.48,5.48,0,0,0,.1,1.17,1.4,1.4,0,0,0,.37.75,1.06,1.06,0,0,0,.8.29,1.07,1.07,0,0,0,.8-.29,1.48,1.48,0,0,0,.37-.75,6.32,6.32,0,0,0,.09-1.17A6.12,6.12,0,0,0,141.74,250.33Z" transform="translate(-12.62 -5.57)"/><path class="cls-4" d="M143.88,249.53a1.74,1.74,0,0,1,2.77,0,4.12,4.12,0,0,1,.38,1.94,4.27,4.27,0,0,1-.38,2,1.74,1.74,0,0,1-2.77,0,4.27,4.27,0,0,1-.38-2A4.12,4.12,0,0,1,143.88,249.53Zm2.56.8a1.56,1.56,0,0,0-.37-.75,1.08,1.08,0,0,0-.8-.28,1.05,1.05,0,0,0-.8.28,1.4,1.4,0,0,0-.37.75,5.3,5.3,0,0,0-.1,1.14,5.48,5.48,0,0,0,.1,1.17,1.4,1.4,0,0,0,.37.75,1.06,1.06,0,0,0,.8.29,1.09,1.09,0,0,0,.8-.29,1.56,1.56,0,0,0,.37-.75,6.32,6.32,0,0,0,.09-1.17A6.12,6.12,0,0,0,146.44,250.33Z" transform="translate(-12.62 -5.57)"/><path class="cls-4" d="M148.13,254.06a.4.4,0,0,1-.11-.27.37.37,0,0,1,.11-.27.39.39,0,0,1,.52,0,.37.37,0,0,1,.11.27.4.4,0,0,1-.11.27.39.39,0,0,1-.52,0Z" transform="translate(-12.62 -5.57)"/><path class="cls-4" d="M150.12,249.53a1.74,1.74,0,0,1,2.77,0,4,4,0,0,1,.38,1.94,4.15,4.15,0,0,1-.38,2,1.74,1.74,0,0,1-2.77,0,4.27,4.27,0,0,1-.38-2A4.12,4.12,0,0,1,150.12,249.53Zm2.56.8a1.56,1.56,0,0,0-.37-.75,1.08,1.08,0,0,0-.8-.28,1.05,1.05,0,0,0-.8.28,1.4,1.4,0,0,0-.37.75,5.3,5.3,0,0,0-.1,1.14,5.48,5.48,0,0,0,.1,1.17,1.4,1.4,0,0,0,.37.75,1.06,1.06,0,0,0,.8.29,1.09,1.09,0,0,0,.8-.29,1.56,1.56,0,0,0,.37-.75,6.32,6.32,0,0,0,.09-1.17A6.12,6.12,0,0,0,152.68,250.33Z" transform="translate(-12.62 -5.57)"/><path class="cls-4" d="M154.82,249.53a1.74,1.74,0,0,1,2.77,0,4.12,4.12,0,0,1,.38,1.94,4.27,4.27,0,0,1-.38,2,1.46,1.46,0,0,1-1.39.69,1.44,1.44,0,0,1-1.38-.69,5.24,5.24,0,0,1,0-3.92Zm2.56.8a1.49,1.49,0,0,0-.38-.75,1.05,1.05,0,0,0-.8-.28,1.07,1.07,0,0,0-.8.28,1.56,1.56,0,0,0-.37.75,6.12,6.12,0,0,0-.09,1.14,6.32,6.32,0,0,0,.09,1.17,1.56,1.56,0,0,0,.37.75,1.07,1.07,0,0,0,.8.29,1.06,1.06,0,0,0,.8-.29,1.49,1.49,0,0,0,.38-.75,6.32,6.32,0,0,0,.09-1.17A6.12,6.12,0,0,0,157.38,250.33Z" transform="translate(-12.62 -5.57)"/><path class="cls-4" d="M179.8,253.44a1.29,1.29,0,0,1-.5.51,1.68,1.68,0,0,1-.81.23v.58h-.32v-.59a1.75,1.75,0,0,1-1-.42,1.29,1.29,0,0,1-.43-.92h.55a1,1,0,0,0,.26.6,1.09,1.09,0,0,0,.67.32v-2a5.47,5.47,0,0,1-.79-.27,1.18,1.18,0,0,1-.49-.4,1.15,1.15,0,0,1-.21-.73,1.28,1.28,0,0,1,.4-1,1.64,1.64,0,0,1,1.09-.4v-.61h.32V249a1.56,1.56,0,0,1,1,.4,1.27,1.27,0,0,1,.43.83h-.53a1,1,0,0,0-.27-.5,1.07,1.07,0,0,0-.59-.29v1.94a4.89,4.89,0,0,1,.77.26,1.34,1.34,0,0,1,.51.41,1.3,1.3,0,0,1,.2.75A1.34,1.34,0,0,1,179.8,253.44Zm-2.35-2.51a2,2,0,0,0,.72.35v-1.87a1.15,1.15,0,0,0-.71.25.87.87,0,0,0-.26.66A.74.74,0,0,0,177.45,250.93Zm1.76,2.54a.92.92,0,0,0,.25-.66.76.76,0,0,0-.25-.62,2.19,2.19,0,0,0-.72-.36v1.94A1,1,0,0,0,179.21,253.47Z" transform="translate(-12.62 -5.57)"/><path class="cls-4" d="M181,249.37v-.46h1.24v5.22h-.52v-4.76Z" transform="translate(-12.62 -5.57)"/><path class="cls-4" d="M184.19,253.29l-.75,1.9h-.35l.54-1.9Z" transform="translate(-12.62 -5.57)"/><path class="cls-4" d="M184.87,252.89v-.38l2.65-3.57h.6v3.51h.78v.44h-.78v1.24h-.5v-1.24Zm2.77-3.39-2.18,2.95h2.18Z" transform="translate(-12.62 -5.57)"/><path class="cls-4" d="M190.16,249.53a1.45,1.45,0,0,1,1.38-.69,1.43,1.43,0,0,1,1.38.69,4,4,0,0,1,.39,1.94,4.14,4.14,0,0,1-.39,2,1.72,1.72,0,0,1-2.76,0,4.14,4.14,0,0,1-.39-2A4,4,0,0,1,190.16,249.53Zm2.55.8a1.4,1.4,0,0,0-.37-.75,1.05,1.05,0,0,0-.8-.28,1.07,1.07,0,0,0-.8.28,1.48,1.48,0,0,0-.37.75,6.12,6.12,0,0,0-.09,1.14,6.32,6.32,0,0,0,.09,1.17,1.48,1.48,0,0,0,.37.75,1.07,1.07,0,0,0,.8.29,1.06,1.06,0,0,0,.8-.29,1.4,1.4,0,0,0,.37-.75,6.21,6.21,0,0,0,.1-1.17A6,6,0,0,0,192.71,250.33Z" transform="translate(-12.62 -5.57)"/><path class="cls-4" d="M194.86,249.53a1.43,1.43,0,0,1,1.38-.69,1.45,1.45,0,0,1,1.38.69,4,4,0,0,1,.39,1.94,4.14,4.14,0,0,1-.39,2,1.74,1.74,0,0,1-2.77,0,4.27,4.27,0,0,1-.38-2A4,4,0,0,1,194.86,249.53Zm2.55.8a1.48,1.48,0,0,0-.37-.75,1.07,1.07,0,0,0-.8-.28,1.05,1.05,0,0,0-.8.28,1.4,1.4,0,0,0-.37.75,5.3,5.3,0,0,0-.1,1.14,5.48,5.48,0,0,0,.1,1.17,1.4,1.4,0,0,0,.37.75,1.06,1.06,0,0,0,.8.29,1.07,1.07,0,0,0,.8-.29,1.48,1.48,0,0,0,.37-.75,6.32,6.32,0,0,0,.09-1.17A6.12,6.12,0,0,0,197.41,250.33Z" transform="translate(-12.62 -5.57)"/><path class="cls-4" d="M199.1,254.06a.4.4,0,0,1-.11-.27.37.37,0,0,1,.11-.27.36.36,0,0,1,.27-.1.33.33,0,0,1,.25.1.37.37,0,0,1,.11.27.4.4,0,0,1-.11.27.33.33,0,0,1-.25.1A.36.36,0,0,1,199.1,254.06Z" transform="translate(-12.62 -5.57)"/><path class="cls-4" d="M201.1,249.53a1.43,1.43,0,0,1,1.38-.69,1.45,1.45,0,0,1,1.38.69,4,4,0,0,1,.39,1.94,4.14,4.14,0,0,1-.39,2,1.74,1.74,0,0,1-2.77,0,4.27,4.27,0,0,1-.38-2A4,4,0,0,1,201.1,249.53Zm2.55.8a1.48,1.48,0,0,0-.37-.75,1.07,1.07,0,0,0-.8-.28,1.05,1.05,0,0,0-.8.28,1.4,1.4,0,0,0-.37.75,5.3,5.3,0,0,0-.1,1.14,5.48,5.48,0,0,0,.1,1.17,1.4,1.4,0,0,0,.37.75,1.06,1.06,0,0,0,.8.29,1.07,1.07,0,0,0,.8-.29,1.48,1.48,0,0,0,.37-.75,6.32,6.32,0,0,0,.09-1.17A6.12,6.12,0,0,0,203.65,250.33Z" transform="translate(-12.62 -5.57)"/><path class="cls-4" d="M205.8,249.53a1.43,1.43,0,0,1,1.38-.69,1.45,1.45,0,0,1,1.38.69,4,4,0,0,1,.38,1.94,4.15,4.15,0,0,1-.38,2,1.74,1.74,0,0,1-2.77,0,4.27,4.27,0,0,1-.38-2A4,4,0,0,1,205.8,249.53Zm2.55.8a1.56,1.56,0,0,0-.37-.75,1.07,1.07,0,0,0-.8-.28,1.05,1.05,0,0,0-.8.28,1.4,1.4,0,0,0-.37.75,5.3,5.3,0,0,0-.1,1.14,5.48,5.48,0,0,0,.1,1.17,1.4,1.4,0,0,0,.37.75,1.06,1.06,0,0,0,.8.29,1.07,1.07,0,0,0,.8-.29,1.56,1.56,0,0,0,.37-.75,6.32,6.32,0,0,0,.09-1.17A6.12,6.12,0,0,0,208.35,250.33Z" transform="translate(-12.62 -5.57)"/><path class="cls-4" d="M227.07,253.44a1.29,1.29,0,0,1-.5.51,1.68,1.68,0,0,1-.81.23v.58h-.32v-.59a1.75,1.75,0,0,1-1.05-.42,1.29,1.29,0,0,1-.43-.92h.55a1,1,0,0,0,.26.6,1.09,1.09,0,0,0,.67.32v-2a5.47,5.47,0,0,1-.79-.27,1.18,1.18,0,0,1-.49-.4,1.15,1.15,0,0,1-.21-.73,1.28,1.28,0,0,1,.4-1,1.64,1.64,0,0,1,1.09-.4v-.61h.32V249a1.56,1.56,0,0,1,1,.4,1.27,1.27,0,0,1,.43.83h-.54a.87.87,0,0,0-.26-.5,1.07,1.07,0,0,0-.59-.29v1.94a4.89,4.89,0,0,1,.77.26,1.34,1.34,0,0,1,.51.41,1.3,1.3,0,0,1,.2.75A1.34,1.34,0,0,1,227.07,253.44Zm-2.35-2.51a2,2,0,0,0,.72.35v-1.87a1.15,1.15,0,0,0-.71.25.87.87,0,0,0-.26.66A.74.74,0,0,0,224.72,250.93Zm1.76,2.54a.92.92,0,0,0,.25-.66.76.76,0,0,0-.25-.62,2.19,2.19,0,0,0-.72-.36v1.94A1,1,0,0,0,226.48,253.47Z" transform="translate(-12.62 -5.57)"/><path class="cls-4" d="M228.3,249.37v-.46h1.24v5.22H229v-4.76Z" transform="translate(-12.62 -5.57)"/><path class="cls-4" d="M231.46,253.29l-.75,1.9h-.35l.54-1.9Z" transform="translate(-12.62 -5.57)"/><path class="cls-4" d="M232.69,251a1.23,1.23,0,0,1-.24-.76,1.27,1.27,0,0,1,.2-.7,1.37,1.37,0,0,1,.59-.49,2.16,2.16,0,0,1,.92-.18,2.2,2.2,0,0,1,.93.18,1.34,1.34,0,0,1,.58.49,1.2,1.2,0,0,1,.2.7,1.18,1.18,0,0,1-.92,1.21,1.43,1.43,0,0,1,.78.48,1.28,1.28,0,0,1,.28.85,1.45,1.45,0,0,1-.23.81,1.43,1.43,0,0,1-.65.53,2.57,2.57,0,0,1-1.94,0,1.4,1.4,0,0,1-.64-.53,1.38,1.38,0,0,1-.23-.81,1.28,1.28,0,0,1,.28-.85,1.43,1.43,0,0,1,.78-.48A1.37,1.37,0,0,1,232.69,251Zm.5.95a.94.94,0,0,0-.38.81,1,1,0,0,0,.36.82,1.78,1.78,0,0,0,2,0,1,1,0,0,0,.36-.82.94.94,0,0,0-.38-.81,1.61,1.61,0,0,0-1-.27A1.64,1.64,0,0,0,233.19,251.92Zm1.86-2.39a1.35,1.35,0,0,0-.89-.27,1.38,1.38,0,0,0-.88.26,1,1,0,0,0,0,1.47,1.38,1.38,0,0,0,.88.27A1.34,1.34,0,0,0,235,251a.86.86,0,0,0,.34-.72A.88.88,0,0,0,235.05,249.53Z" transform="translate(-12.62 -5.57)"/><path class="cls-4" d="M237.51,249.53a1.73,1.73,0,0,1,2.76,0,4,4,0,0,1,.39,1.94,4.14,4.14,0,0,1-.39,2,1.44,1.44,0,0,1-1.38.69,1.46,1.46,0,0,1-1.39-.69,4.27,4.27,0,0,1-.38-2A4,4,0,0,1,237.51,249.53Zm2.55.8a1.48,1.48,0,0,0-.37-.75,1.28,1.28,0,0,0-1.6,0,1.48,1.48,0,0,0-.37.75,6,6,0,0,0-.1,1.14,6.21,6.21,0,0,0,.1,1.17,1.48,1.48,0,0,0,.37.75,1.25,1.25,0,0,0,1.6,0,1.48,1.48,0,0,0,.37-.75,6.21,6.21,0,0,0,.1-1.17A6,6,0,0,0,240.06,250.33Z" transform="translate(-12.62 -5.57)"/><path class="cls-4" d="M242.21,249.53a1.43,1.43,0,0,1,1.38-.69,1.45,1.45,0,0,1,1.38.69,4,4,0,0,1,.38,1.94,4.15,4.15,0,0,1-.38,2,1.74,1.74,0,0,1-2.77,0,4.27,4.27,0,0,1-.38-2A4,4,0,0,1,242.21,249.53Zm2.55.8a1.48,1.48,0,0,0-.37-.75,1.07,1.07,0,0,0-.8-.28,1.05,1.05,0,0,0-.8.28,1.4,1.4,0,0,0-.37.75,5.3,5.3,0,0,0-.1,1.14,5.48,5.48,0,0,0,.1,1.17,1.4,1.4,0,0,0,.37.75,1.06,1.06,0,0,0,.8.29,1.07,1.07,0,0,0,.8-.29,1.48,1.48,0,0,0,.37-.75,6.32,6.32,0,0,0,.09-1.17A6.12,6.12,0,0,0,244.76,250.33Z" transform="translate(-12.62 -5.57)"/><path class="cls-4" d="M246.45,254.06a.4.4,0,0,1-.11-.27.37.37,0,0,1,.11-.27.36.36,0,0,1,.27-.1.33.33,0,0,1,.25.1.37.37,0,0,1,.11.27.4.4,0,0,1-.11.27.33.33,0,0,1-.25.1A.36.36,0,0,1,246.45,254.06Z" transform="translate(-12.62 -5.57)"/><path class="cls-4" d="M248.45,249.53a1.43,1.43,0,0,1,1.38-.69,1.45,1.45,0,0,1,1.38.69,4,4,0,0,1,.39,1.94,4.14,4.14,0,0,1-.39,2,1.74,1.74,0,0,1-2.77,0,4.27,4.27,0,0,1-.38-2A4,4,0,0,1,248.45,249.53Zm2.55.8a1.48,1.48,0,0,0-.37-.75,1.07,1.07,0,0,0-.8-.28,1.05,1.05,0,0,0-.8.28,1.4,1.4,0,0,0-.37.75,5.3,5.3,0,0,0-.1,1.14,5.48,5.48,0,0,0,.1,1.17,1.4,1.4,0,0,0,.37.75,1.06,1.06,0,0,0,.8.29,1.07,1.07,0,0,0,.8-.29,1.48,1.48,0,0,0,.37-.75,6.32,6.32,0,0,0,.09-1.17A6.12,6.12,0,0,0,251,250.33Z" transform="translate(-12.62 -5.57)"/><path class="cls-4" d="M253.15,249.53a1.43,1.43,0,0,1,1.38-.69,1.45,1.45,0,0,1,1.38.69,4,4,0,0,1,.38,1.94,4.15,4.15,0,0,1-.38,2,1.74,1.74,0,0,1-2.77,0,4.27,4.27,0,0,1-.38-2A4,4,0,0,1,253.15,249.53Zm2.55.8a1.56,1.56,0,0,0-.37-.75,1.07,1.07,0,0,0-.8-.28,1.05,1.05,0,0,0-.8.28,1.4,1.4,0,0,0-.37.75,5.3,5.3,0,0,0-.1,1.14,5.48,5.48,0,0,0,.1,1.17,1.4,1.4,0,0,0,.37.75,1.06,1.06,0,0,0,.8.29,1.07,1.07,0,0,0,.8-.29,1.56,1.56,0,0,0,.37-.75,6.32,6.32,0,0,0,.09-1.17A6.12,6.12,0,0,0,255.7,250.33Z" transform="translate(-12.62 -5.57)"/><path class="cls-5" d="M26.82,179.1h30a5,5,0,0,1,5,5v53.18a0,0,0,0,1,0,0h-40a0,0,0,0,1,0,0V184.1A5,5,0,0,1,26.82,179.1Z"/><path class="cls-6" d="M72.09,157.28h30a5,5,0,0,1,5,5v75a0,0,0,0,1,0,0h-40a0,0,0,0,1,0,0v-75A5,5,0,0,1,72.09,157.28Z"/><path class="cls-7" d="M166.54,142.73h30a5,5,0,0,1,5,5v89.55a0,0,0,0,1,0,0h-40a0,0,0,0,1,0,0V147.73A5,5,0,0,1,166.54,142.73Z"/><path class="cls-8" d="M118.18,120.92h30a5,5,0,0,1,5,5V237.28a0,0,0,0,1,0,0h-40a0,0,0,0,1,0,0V125.92A5,5,0,0,1,118.18,120.92Z"/><path class="cls-9" d="M213.9,110h30a5,5,0,0,1,5,5V237.28a0,0,0,0,1,0,0h-40a0,0,0,0,1,0,0V115A5,5,0,0,1,213.9,110Z"/><circle class="cls-10" cx="51.58" cy="327.73" r="20.44"/><circle class="cls-11" cx="108.1" cy="327.73" r="20.44"/><circle class="cls-12" cx="164.62" cy="327.73" r="20.44"/><circle class="cls-13" cx="221.15" cy="327.73" r="20.44"/><path class="cls-2" d="M51.48,336v-1.6l3.68-5.26h2.22v5.14h1V336h-1v1.51h-2V336Zm4.05-4.68-2,3h2Z" transform="translate(-12.62 -5.57)"/><path class="cls-2" d="M65.64,330.73H62v1.61a1.83,1.83,0,0,1,.65-.42,2.49,2.49,0,0,1,.91-.16,2.53,2.53,0,0,1,1.45.39,2.27,2.27,0,0,1,.84,1,3.4,3.4,0,0,1,.27,1.36,3,3,0,0,1-.77,2.16,2.85,2.85,0,0,1-2.16.79,3.72,3.72,0,0,1-1.62-.32,2.46,2.46,0,0,1-1.06-.89,2.59,2.59,0,0,1-.4-1.31h1.94a1.07,1.07,0,0,0,.34.6,1.05,1.05,0,0,0,.73.24,1,1,0,0,0,.81-.35,1.51,1.51,0,0,0,.27-.93,1.26,1.26,0,0,0-.28-.88,1,1,0,0,0-.81-.3,1.09,1.09,0,0,0-.65.19.9.9,0,0,0-.34.51H60.21V329h5.43Z" transform="translate(-12.62 -5.57)"/><path class="cls-2" d="M68,329.69a1.93,1.93,0,0,1,1.41-.52,1.83,1.83,0,0,1,1.93,2,1.81,1.81,0,0,1-1.93,2A2,2,0,0,1,68,332.6a1.93,1.93,0,0,1-.54-1.46A1.89,1.89,0,0,1,68,329.69Zm.84,1.45c0,.53.18.79.55.79a.48.48,0,0,0,.42-.2,1,1,0,0,0,.15-.59c0-.53-.19-.8-.57-.8S68.79,330.61,68.79,331.14Zm6.52-1.84-4.48,8.19H68.91l4.48-8.19Zm-1.82,4.9a1.92,1.92,0,0,1,1.39-.51,2,2,0,0,1,1.4.51,2.26,2.26,0,0,1,0,2.91,2,2,0,0,1-1.4.51,2,2,0,0,1-1.39-3.42Zm1,.85a1,1,0,0,0-.15.61c0,.52.19.79.56.79a.5.5,0,0,0,.42-.2,1,1,0,0,0,.15-.59,1,1,0,0,0-.15-.6.52.52,0,0,0-.83,0Z" transform="translate(-12.62 -5.57)"/><path class="cls-2" d="M109,335.61c.76-.63,1.36-1.15,1.8-1.55a6.88,6.88,0,0,0,1.11-1.27,2.29,2.29,0,0,0,.45-1.29,1.11,1.11,0,0,0-.22-.74.81.81,0,0,0-.66-.27.8.8,0,0,0-.69.33,1.5,1.5,0,0,0-.25.94h-1.92a3.2,3.2,0,0,1,.42-1.65,2.44,2.44,0,0,1,1.06-1,3.33,3.33,0,0,1,1.46-.32,2.84,2.84,0,0,1,2.09.71,2.52,2.52,0,0,1,.7,1.85,3.61,3.61,0,0,1-.85,2.31,12.68,12.68,0,0,1-2.16,2.08h3.14v1.62h-5.84V335.9Z" transform="translate(-12.62 -5.57)"/><path class="cls-2" d="M121.7,330.73h-3.63v1.61a1.74,1.74,0,0,1,.65-.42,2.49,2.49,0,0,1,.91-.16,2.53,2.53,0,0,1,1.45.39,2.4,2.4,0,0,1,.84,1,3.4,3.4,0,0,1,.27,1.36,3,3,0,0,1-.77,2.16,2.85,2.85,0,0,1-2.16.79,3.72,3.72,0,0,1-1.62-.32,2.46,2.46,0,0,1-1.06-.89,2.5,2.5,0,0,1-.4-1.31h1.94a1,1,0,0,0,.34.6,1,1,0,0,0,.73.24,1,1,0,0,0,.81-.35,1.51,1.51,0,0,0,.27-.93,1.26,1.26,0,0,0-.28-.88,1,1,0,0,0-.81-.3,1.09,1.09,0,0,0-.65.19.85.85,0,0,0-.34.51h-1.92V329h5.43Z" transform="translate(-12.62 -5.57)"/><path class="cls-2" d="M124,329.69a2.14,2.14,0,0,1,2.8,0,1.89,1.89,0,0,1,.54,1.45,1.81,1.81,0,0,1-1.94,2,2,2,0,0,1-1.4-.51,1.93,1.93,0,0,1-.54-1.46A1.89,1.89,0,0,1,124,329.69Zm.83,1.45c0,.53.19.79.56.79a.48.48,0,0,0,.42-.2,1,1,0,0,0,.15-.59c0-.53-.19-.8-.57-.8S124.84,330.61,124.84,331.14Zm6.53-1.84-4.48,8.19H125l4.48-8.19Zm-1.82,4.9a1.92,1.92,0,0,1,1.39-.51,2,2,0,1,1,0,3.93,2,2,0,0,1-1.39-3.42Zm1,.85a1,1,0,0,0-.15.61c0,.52.19.79.56.79a.5.5,0,0,0,.42-.2,1,1,0,0,0,.15-.59,1,1,0,0,0-.15-.6.49.49,0,0,0-.42-.21A.47.47,0,0,0,130.52,335.05Z" transform="translate(-12.62 -5.57)"/><path class="cls-2" d="M165.68,335.61c.76-.63,1.36-1.15,1.8-1.55a6.88,6.88,0,0,0,1.11-1.27,2.24,2.24,0,0,0,.46-1.29,1.11,1.11,0,0,0-.23-.74.78.78,0,0,0-.66-.27.83.83,0,0,0-.69.33,1.5,1.5,0,0,0-.25.94H165.3a3.3,3.3,0,0,1,.42-1.65,2.44,2.44,0,0,1,1.06-1,3.36,3.36,0,0,1,1.46-.32,2.83,2.83,0,0,1,2.09.71,2.53,2.53,0,0,1,.71,1.85,3.67,3.67,0,0,1-.85,2.31,12.76,12.76,0,0,1-2.17,2.08h3.14v1.62h-5.84V335.9Z" transform="translate(-12.62 -5.57)"/><path class="cls-2" d="M173.16,330a3.28,3.28,0,0,1,5,0,5.56,5.56,0,0,1,.78,3.15,5.62,5.62,0,0,1-.78,3.18,3.28,3.28,0,0,1-5,0,5.63,5.63,0,0,1-.77-3.18A5.56,5.56,0,0,1,173.16,330Zm3.55,1.34a1.2,1.2,0,0,0-2.11,0,5,5,0,0,0-.26,1.81,7.89,7.89,0,0,0,.09,1.31,1.76,1.76,0,0,0,.38.84,1.28,1.28,0,0,0,1.69,0,1.76,1.76,0,0,0,.38-.84,7.89,7.89,0,0,0,.09-1.31A5,5,0,0,0,176.71,331.32Z" transform="translate(-12.62 -5.57)"/><path class="cls-2" d="M180.7,329.69a1.93,1.93,0,0,1,3.33,1.45,2,2,0,0,1-.53,1.46,1.94,1.94,0,0,1-3.34-1.46A1.89,1.89,0,0,1,180.7,329.69Zm.83,1.45c0,.53.19.79.56.79a.48.48,0,0,0,.42-.2,1,1,0,0,0,.15-.59c0-.53-.19-.8-.57-.8S181.53,330.61,181.53,331.14Zm6.53-1.84-4.48,8.19h-1.92l4.48-8.19Zm-1.83,4.9a1.93,1.93,0,0,1,3.33,1.46,1.94,1.94,0,0,1-.53,1.45,2.18,2.18,0,0,1-2.8,0,2.26,2.26,0,0,1,0-2.91Zm1,.85a1.08,1.08,0,0,0-.14.61c0,.52.19.79.56.79a.5.5,0,0,0,.42-.2,1,1,0,0,0,.15-.59,1,1,0,0,0-.15-.6.49.49,0,0,0-.42-.21A.5.5,0,0,0,187.2,335.05Z" transform="translate(-12.62 -5.57)"/><path class="cls-2" d="M223,330.85V329h3.23v8.49h-2.08v-6.64Z" transform="translate(-12.62 -5.57)"/><path class="cls-2" d="M228.7,330a3.28,3.28,0,0,1,5,0,5.56,5.56,0,0,1,.78,3.15,5.62,5.62,0,0,1-.78,3.18,3.28,3.28,0,0,1-5,0,5.63,5.63,0,0,1-.77-3.18A5.56,5.56,0,0,1,228.7,330Zm3.56,1.34a1,1,0,0,0-1.06-.63,1,1,0,0,0-1.06.63,5,5,0,0,0-.26,1.81,7.89,7.89,0,0,0,.09,1.31,1.76,1.76,0,0,0,.38.84,1.28,1.28,0,0,0,1.69,0,1.67,1.67,0,0,0,.38-.84,7.89,7.89,0,0,0,.09-1.31A5.06,5.06,0,0,0,232.26,331.32Z" transform="translate(-12.62 -5.57)"/><path class="cls-2" d="M236.24,329.69a2.14,2.14,0,0,1,2.8,0,1.89,1.89,0,0,1,.53,1.45,1.8,1.8,0,0,1-1.93,2,2,2,0,0,1-1.4-.51,1.93,1.93,0,0,1-.54-1.46A1.89,1.89,0,0,1,236.24,329.69Zm.83,1.45c0,.53.19.79.56.79a.48.48,0,0,0,.42-.2,1,1,0,0,0,.15-.59c0-.53-.19-.8-.57-.8S237.07,330.61,237.07,331.14Zm6.53-1.84-4.48,8.19H237.2l4.48-8.19Zm-1.83,4.9a1.93,1.93,0,0,1,3.33,1.46,1.94,1.94,0,0,1-.53,1.45,2.18,2.18,0,0,1-2.8,0,2.26,2.26,0,0,1,0-2.91Zm1,.85a1.08,1.08,0,0,0-.14.61c0,.52.19.79.56.79a.5.5,0,0,0,.42-.2,1,1,0,0,0,.15-.59,1,1,0,0,0-.15-.6.49.49,0,0,0-.42-.21A.5.5,0,0,0,242.74,335.05Z" transform="translate(-12.62 -5.57)"/><path class="cls-4" d="M49.62,362.34a2.44,2.44,0,0,1,.9-.93,2.47,2.47,0,0,1,1.26-.33,2.56,2.56,0,0,1,1.46.41,2.24,2.24,0,0,1,.88,1.14h-.59a1.73,1.73,0,0,0-.67-.81,1.9,1.9,0,0,0-1.08-.29,1.87,1.87,0,0,0-1,.26,1.78,1.78,0,0,0-.71.75,2.45,2.45,0,0,0-.25,1.14,2.38,2.38,0,0,0,.25,1.13,1.78,1.78,0,0,0,.71.75,1.87,1.87,0,0,0,1,.27,2,2,0,0,0,1.08-.29,1.76,1.76,0,0,0,.67-.8h.59a2.22,2.22,0,0,1-.88,1.13,2.58,2.58,0,0,1-1.46.4,2.47,2.47,0,0,1-1.26-.33,2.41,2.41,0,0,1-.9-.92,3,3,0,0,1,0-2.68Z" transform="translate(-12.62 -5.57)"/><path class="cls-4" d="M56.08,366a1.77,1.77,0,0,1-.7-.71,2.37,2.37,0,0,1,0-2.16,1.82,1.82,0,0,1,.72-.71,2,2,0,0,1,1-.25,2,2,0,0,1,1,.25,1.73,1.73,0,0,1,.71.71,2.11,2.11,0,0,1,.26,1.08,2.21,2.21,0,0,1-.26,1.08,1.7,1.7,0,0,1-.72.71,2.19,2.19,0,0,1-2,0Zm1.74-.37a1.4,1.4,0,0,0,.54-.54,1.95,1.95,0,0,0,0-1.76,1.31,1.31,0,0,0-.53-.54,1.57,1.57,0,0,0-1.46,0,1.31,1.31,0,0,0-.53.54,2,2,0,0,0,0,1.76,1.31,1.31,0,0,0,.53.54,1.48,1.48,0,0,0,.72.18A1.52,1.52,0,0,0,57.82,365.66Z" transform="translate(-12.62 -5.57)"/><path class="cls-4" d="M66.11,362.62a1.74,1.74,0,0,1,.44,1.28v2.33h-.5V364a1.42,1.42,0,0,0-.32-1,1.09,1.09,0,0,0-.85-.34A1.13,1.13,0,0,0,64,363a1.5,1.5,0,0,0-.34,1.07v2.16h-.5V364a1.42,1.42,0,0,0-.31-1,1.11,1.11,0,0,0-.86-.34,1.13,1.13,0,0,0-.89.37,1.5,1.5,0,0,0-.34,1.07v2.16h-.51v-4h.51v.69a1.35,1.35,0,0,1,.54-.57,1.67,1.67,0,0,1,.78-.19,1.6,1.6,0,0,1,.9.25,1.41,1.41,0,0,1,.57.73,1.32,1.32,0,0,1,.55-.73,1.62,1.62,0,0,1,.88-.25A1.58,1.58,0,0,1,66.11,362.62Z" transform="translate(-12.62 -5.57)"/><path class="cls-4" d="M67.88,361.4a.39.39,0,0,1-.1-.27.36.36,0,0,1,.1-.27.38.38,0,0,1,.27-.1.35.35,0,0,1,.26.1.37.37,0,0,1,.11.27.4.4,0,0,1-.11.27.36.36,0,0,1-.26.11A.39.39,0,0,1,67.88,361.4Zm.52.85v4h-.51v-4Z" transform="translate(-12.62 -5.57)"/><path class="cls-4" d="M69.79,363.16a1.67,1.67,0,0,1,.68-.71,1.88,1.88,0,0,1,1-.25,1.76,1.76,0,0,1,.94.25,1.51,1.51,0,0,1,.62.66v-2.27h.51v5.39H73v-.89a1.6,1.6,0,0,1-.59.68,1.77,1.77,0,0,1-1,.26,1.91,1.91,0,0,1-1-.25,1.73,1.73,0,0,1-.67-.72,2.21,2.21,0,0,1-.25-1.08A2.31,2.31,0,0,1,69.79,363.16Zm3,.24a1.33,1.33,0,0,0-.54-.56,1.44,1.44,0,0,0-.74-.2,1.45,1.45,0,0,0-.76.19,1.34,1.34,0,0,0-.53.55,1.75,1.75,0,0,0-.19.85,1.82,1.82,0,0,0,.19.86,1.43,1.43,0,0,0,.53.56,1.45,1.45,0,0,0,.76.19,1.44,1.44,0,0,0,.74-.2,1.33,1.33,0,0,0,.54-.56,2,2,0,0,0,0-1.68Z" transform="translate(-12.62 -5.57)"/><path class="cls-4" d="M74.91,363.16a1.73,1.73,0,0,1,.68-.71,1.88,1.88,0,0,1,1-.25,1.75,1.75,0,0,1,1,.26,1.52,1.52,0,0,1,.59.67v-.88h.51v4h-.51v-.88a1.67,1.67,0,0,1-.6.67,1.73,1.73,0,0,1-1,.26,1.87,1.87,0,0,1-1-.25,1.82,1.82,0,0,1-.68-.72,2.53,2.53,0,0,1,0-2.15Zm3,.24a1.37,1.37,0,0,0-.53-.56,1.5,1.5,0,0,0-.75-.2,1.44,1.44,0,0,0-.75.19,1.28,1.28,0,0,0-.53.55,1.75,1.75,0,0,0-.19.85,1.82,1.82,0,0,0,.19.86,1.36,1.36,0,0,0,.53.56,1.44,1.44,0,0,0,.75.19,1.5,1.5,0,0,0,.75-.2,1.37,1.37,0,0,0,.53-.56,1.86,1.86,0,0,0,0-1.68Z" transform="translate(-12.62 -5.57)"/><path class="cls-4" d="M114.3,366.23,113,364.1h-.94v2.13h-.5v-5.09h1.52a1.83,1.83,0,0,1,1.29.41,1.37,1.37,0,0,1,.44,1.07,1.44,1.44,0,0,1-.31.94,1.52,1.52,0,0,1-.94.51l1.31,2.16Zm-2.2-2.54h1a1.26,1.26,0,0,0,.9-.29,1.06,1.06,0,0,0,.3-.78,1,1,0,0,0-.29-.78,1.31,1.31,0,0,0-.92-.27h-1Z" transform="translate(-12.62 -5.57)"/><path class="cls-4" d="M116.81,366a1.77,1.77,0,0,1-.7-.71,2.37,2.37,0,0,1,0-2.16,1.8,1.8,0,0,1,.71-.71,2.06,2.06,0,0,1,1-.25,2,2,0,0,1,1,.25,1.73,1.73,0,0,1,.71.71,2.37,2.37,0,0,1,0,2.16,1.7,1.7,0,0,1-.72.71,2.08,2.08,0,0,1-1,.25A2,2,0,0,1,116.81,366Zm1.74-.37a1.4,1.4,0,0,0,.54-.54,1.95,1.95,0,0,0,0-1.76,1.31,1.31,0,0,0-.53-.54,1.55,1.55,0,0,0-.73-.18,1.52,1.52,0,0,0-.73.18,1.31,1.31,0,0,0-.53.54,2,2,0,0,0,0,1.76,1.31,1.31,0,0,0,.53.54,1.48,1.48,0,0,0,.72.18A1.52,1.52,0,0,0,118.55,365.66Z" transform="translate(-12.62 -5.57)"/><path class="cls-4" d="M122.07,362.46a1.84,1.84,0,0,1,1-.26,1.87,1.87,0,0,1,1,.25,1.73,1.73,0,0,1,.68.71,2.53,2.53,0,0,1,0,2.15,1.82,1.82,0,0,1-.68.72,1.87,1.87,0,0,1-1,.25,1.72,1.72,0,0,1-1-.26,1.63,1.63,0,0,1-.61-.67v2.75H121v-5.85h.5v.88A1.67,1.67,0,0,1,122.07,362.46Zm2.16.92a1.28,1.28,0,0,0-.53-.55,1.44,1.44,0,0,0-.75-.19,1.5,1.5,0,0,0-.75.2,1.37,1.37,0,0,0-.53.56,1.86,1.86,0,0,0,0,1.68,1.37,1.37,0,0,0,.53.56,1.5,1.5,0,0,0,.75.2,1.44,1.44,0,0,0,.75-.19,1.36,1.36,0,0,0,.53-.56,1.82,1.82,0,0,0,.19-.86A1.75,1.75,0,0,0,124.23,363.38Z" transform="translate(-12.62 -5.57)"/><path class="cls-4" d="M126.11,363.16a1.67,1.67,0,0,1,.68-.71,1.85,1.85,0,0,1,1-.25,1.73,1.73,0,0,1,1,.26,1.46,1.46,0,0,1,.59.67v-.88h.51v4h-.51v-.88a1.54,1.54,0,0,1-.6.67,1.72,1.72,0,0,1-1,.26,1.85,1.85,0,0,1-1-.25,1.75,1.75,0,0,1-.68-.72,2.44,2.44,0,0,1,0-2.15Zm3,.24a1.33,1.33,0,0,0-.54-.56,1.44,1.44,0,0,0-.74-.2,1.48,1.48,0,0,0-.76.19,1.34,1.34,0,0,0-.53.55,1.87,1.87,0,0,0-.19.85,1.94,1.94,0,0,0,.19.86,1.43,1.43,0,0,0,.53.56,1.48,1.48,0,0,0,.76.19,1.44,1.44,0,0,0,.74-.2,1.33,1.33,0,0,0,.54-.56,2,2,0,0,0,0-1.68Z" transform="translate(-12.62 -5.57)"/><path class="cls-4" d="M160.45,361.14v.42H159v4.67h-.5v-4.67h-1.42v-.42Z" transform="translate(-12.62 -5.57)"/><path class="cls-4" d="M162.49,362.39a1.62,1.62,0,0,1,.85-.21v.53h-.14A1.11,1.11,0,0,0,162,364v2.22h-.51v-4H162V363A1.18,1.18,0,0,1,162.49,362.39Z" transform="translate(-12.62 -5.57)"/><path class="cls-4" d="M164.33,363.16a1.67,1.67,0,0,1,.68-.71,1.88,1.88,0,0,1,1-.25,1.77,1.77,0,0,1,1,.26,1.52,1.52,0,0,1,.59.67v-.88h.51v4h-.51v-.88a1.67,1.67,0,0,1-.6.67,1.75,1.75,0,0,1-1,.26,1.87,1.87,0,0,1-1-.25,1.75,1.75,0,0,1-.68-.72,2.53,2.53,0,0,1,0-2.15Zm3,.24a1.37,1.37,0,0,0-.53-.56,1.5,1.5,0,0,0-.75-.2,1.44,1.44,0,0,0-.75.19,1.28,1.28,0,0,0-.53.55,1.75,1.75,0,0,0-.2.85,1.82,1.82,0,0,0,.2.86,1.36,1.36,0,0,0,.53.56,1.44,1.44,0,0,0,.75.19,1.5,1.5,0,0,0,.75-.2,1.37,1.37,0,0,0,.53-.56,1.86,1.86,0,0,0,0-1.68Z" transform="translate(-12.62 -5.57)"/><path class="cls-4" d="M172.47,362.62a1.71,1.71,0,0,1,.46,1.28v2.33h-.51V364a1.42,1.42,0,0,0-.32-1,1.15,1.15,0,0,0-.88-.34,1.21,1.21,0,0,0-.92.36,1.5,1.5,0,0,0-.34,1.07v2.17h-.51v-4H170v.68a1.33,1.33,0,0,1,.54-.56,1.79,1.79,0,0,1,.81-.19A1.59,1.59,0,0,1,172.47,362.62Z" transform="translate(-12.62 -5.57)"/><path class="cls-4" d="M174.52,366a1.13,1.13,0,0,1-.48-.86h.52a.77.77,0,0,0,.32.54,1.21,1.21,0,0,0,.75.2,1,1,0,0,0,.65-.19.6.6,0,0,0,.24-.49.47.47,0,0,0-.13-.33.93.93,0,0,0-.33-.21,4.3,4.3,0,0,0-.55-.16,6,6,0,0,1-.72-.24,1.11,1.11,0,0,1-.46-.34.94.94,0,0,1-.2-.62.92.92,0,0,1,.18-.54,1.21,1.21,0,0,1,.49-.39,1.9,1.9,0,0,1,.73-.14,1.53,1.53,0,0,1,1,.32,1.18,1.18,0,0,1,.42.89h-.51a.74.74,0,0,0-.27-.56,1,1,0,0,0-.69-.22,1,1,0,0,0-.62.18.57.57,0,0,0-.24.46.56.56,0,0,0,.14.38,1.07,1.07,0,0,0,.35.23,5.36,5.36,0,0,0,.57.19,4.19,4.19,0,0,1,.68.22,1.16,1.16,0,0,1,.44.32.84.84,0,0,1,.19.56,1,1,0,0,1-.17.57,1.22,1.22,0,0,1-.49.4,1.65,1.65,0,0,1-.72.14A1.86,1.86,0,0,1,174.52,366Z" transform="translate(-12.62 -5.57)"/><path class="cls-4" d="M179.3,362.46a1.81,1.81,0,0,1,1-.26,1.87,1.87,0,0,1,1,.25,1.73,1.73,0,0,1,.68.71,2.53,2.53,0,0,1,0,2.15,1.82,1.82,0,0,1-.68.72,1.87,1.87,0,0,1-1,.25,1.75,1.75,0,0,1-1-.26,1.67,1.67,0,0,1-.6-.67v2.75h-.5v-5.85h.5v.88A1.6,1.6,0,0,1,179.3,362.46Zm2.16.92a1.34,1.34,0,0,0-.53-.55,1.44,1.44,0,0,0-.75-.19,1.48,1.48,0,0,0-.75.2,1.31,1.31,0,0,0-.53.56,1.86,1.86,0,0,0,0,1.68,1.31,1.31,0,0,0,.53.56,1.48,1.48,0,0,0,.75.2,1.39,1.39,0,0,0,1.28-.75,1.82,1.82,0,0,0,.19-.86A1.75,1.75,0,0,0,181.46,363.38Z" transform="translate(-12.62 -5.57)"/><path class="cls-4" d="M184.06,366a1.73,1.73,0,0,1-.71-.71,2.37,2.37,0,0,1,0-2.16,1.82,1.82,0,0,1,.72-.71,2,2,0,0,1,1-.25,2,2,0,0,1,1,.25,1.76,1.76,0,0,1,.72.71,2.21,2.21,0,0,1,.25,1.08,2.11,2.11,0,0,1-.26,1.08,1.7,1.7,0,0,1-.72.71,2,2,0,0,1-1,.25A2,2,0,0,1,184.06,366Zm1.73-.37a1.4,1.4,0,0,0,.54-.54,1.71,1.71,0,0,0,.21-.88,1.82,1.82,0,0,0-.2-.88,1.4,1.4,0,0,0-.54-.54,1.57,1.57,0,0,0-1.46,0,1.31,1.31,0,0,0-.53.54,2,2,0,0,0,0,1.76,1.31,1.31,0,0,0,.53.54,1.55,1.55,0,0,0,1.45,0Z" transform="translate(-12.62 -5.57)"/><path class="cls-4" d="M189.23,362.39a1.62,1.62,0,0,1,.85-.21v.53h-.14a1.13,1.13,0,0,0-1.22,1.3v2.22h-.51v-4h.51V363A1.18,1.18,0,0,1,189.23,362.39Z" transform="translate(-12.62 -5.57)"/><path class="cls-4" d="M191.73,362.68v2.47a.52.52,0,0,0,.62.64h.47v.44h-.55a1.11,1.11,0,0,1-.8-.26,1.1,1.1,0,0,1-.26-.82v-2.47h-.55v-.43h.55v-1h.52v1h1.09v.43Z" transform="translate(-12.62 -5.57)"/><path class="cls-4" d="M197.45,364.44h-3.3a1.69,1.69,0,0,0,.22.77,1.33,1.33,0,0,0,.52.48,1.47,1.47,0,0,0,.7.16,1.4,1.4,0,0,0,.83-.24,1.13,1.13,0,0,0,.45-.64h.53a1.64,1.64,0,0,1-.62.95,1.89,1.89,0,0,1-1.19.36,2,2,0,0,1-1-.25,1.75,1.75,0,0,1-.69-.71,2.46,2.46,0,0,1,0-2.16,1.71,1.71,0,0,1,.69-.72,2.07,2.07,0,0,1,1-.24,2,2,0,0,1,1,.24,1.74,1.74,0,0,1,.65.67,1.83,1.83,0,0,1,.23.93C197.46,364.21,197.46,364.34,197.45,364.44Zm-.68-1.17a1.18,1.18,0,0,0-.51-.48,1.6,1.6,0,0,0-.7-.16,1.34,1.34,0,0,0-1,.37,1.43,1.43,0,0,0-.45,1H197A1.46,1.46,0,0,0,196.77,363.27Z" transform="translate(-12.62 -5.57)"/><path class="cls-4" d="M225.14,366a2.46,2.46,0,0,1-.91-.93,2.89,2.89,0,0,1,0-2.68,2.46,2.46,0,0,1,.91-.93,2.52,2.52,0,0,1,1.28-.33,2.58,2.58,0,0,1,1.29.33,2.44,2.44,0,0,1,.9.93,2.89,2.89,0,0,1,0,2.68,2.44,2.44,0,0,1-.9.93,2.58,2.58,0,0,1-1.29.33A2.52,2.52,0,0,1,225.14,366Zm2.3-.38a1.78,1.78,0,0,0,.71-.75,2.46,2.46,0,0,0,.26-1.14,2.39,2.39,0,0,0-.26-1.13,1.78,1.78,0,0,0-.71-.75,2.13,2.13,0,0,0-2,0,1.78,1.78,0,0,0-.71.75,2.27,2.27,0,0,0-.26,1.13,2.34,2.34,0,0,0,.26,1.14,1.78,1.78,0,0,0,.71.75,2.13,2.13,0,0,0,2,0Z" transform="translate(-12.62 -5.57)"/><path class="cls-4" d="M230.75,362.68v2.47a.52.52,0,0,0,.62.64h.47v.44h-.55a1.11,1.11,0,0,1-.8-.26,1.1,1.1,0,0,1-.26-.82v-2.47h-.55v-.43h.55v-1h.52v1h1.09v.43Z" transform="translate(-12.62 -5.57)"/><path class="cls-4" d="M233.91,362.39a1.62,1.62,0,0,1,.85-.21v.53h-.14a1.11,1.11,0,0,0-1.22,1.3v2.22h-.51v-4h.51V363A1.18,1.18,0,0,1,233.91,362.39Z" transform="translate(-12.62 -5.57)"/><path class="cls-4" d="M236.47,366a1.77,1.77,0,0,1-.7-.71,2.37,2.37,0,0,1,0-2.16,1.8,1.8,0,0,1,.71-.71,2.19,2.19,0,0,1,2,0,1.73,1.73,0,0,1,.71.71,2.37,2.37,0,0,1,0,2.16,1.82,1.82,0,0,1-.72.71,2.08,2.08,0,0,1-1,.25A2,2,0,0,1,236.47,366Zm1.74-.37a1.4,1.4,0,0,0,.54-.54,1.95,1.95,0,0,0,0-1.76,1.31,1.31,0,0,0-.53-.54,1.55,1.55,0,0,0-.73-.18,1.52,1.52,0,0,0-.73.18,1.31,1.31,0,0,0-.53.54,2,2,0,0,0,0,1.76,1.31,1.31,0,0,0,.53.54,1.48,1.48,0,0,0,.72.18A1.55,1.55,0,0,0,238.21,365.66Z" transform="translate(-12.62 -5.57)"/><path class="cls-4" d="M240.88,366a1.13,1.13,0,0,1-.48-.86h.52a.74.74,0,0,0,.32.54,1.19,1.19,0,0,0,.75.2,1,1,0,0,0,.65-.19.6.6,0,0,0,.24-.49.47.47,0,0,0-.13-.33.89.89,0,0,0-.34-.21,3.67,3.67,0,0,0-.54-.16,6,6,0,0,1-.72-.24,1.21,1.21,0,0,1-.47-.34,1,1,0,0,1-.19-.62.92.92,0,0,1,.18-.54,1.21,1.21,0,0,1,.49-.39,1.86,1.86,0,0,1,.73-.14,1.55,1.55,0,0,1,1,.32,1.18,1.18,0,0,1,.42.89h-.51a.74.74,0,0,0-.27-.56,1.18,1.18,0,0,0-1.31,0,.57.57,0,0,0-.24.46.51.51,0,0,0,.14.38,1,1,0,0,0,.35.23,5.36,5.36,0,0,0,.57.19,5,5,0,0,1,.68.22,1.16,1.16,0,0,1,.44.32.9.9,0,0,1,.19.56,1,1,0,0,1-.18.57,1.13,1.13,0,0,1-.48.4,1.65,1.65,0,0,1-.72.14A1.86,1.86,0,0,1,240.88,366Z" transform="translate(-12.62 -5.57)"/><path class="cls-2" d="M250.09,33.06a7.76,7.76,0,0,0-6,12.71h0A7.78,7.78,0,0,0,247,48l0,0,.27.11.11,0,.24.08.15.05.22.06.19.05.19,0,.22,0,.18,0,.25,0,.16,0,.28,0h1.09l.29,0,.15,0,.25,0,.18,0,.22,0,.19,0,.19-.05.22-.06.15-.05.24-.08.11,0,.28-.11,0,0a7.78,7.78,0,0,0,2.94-2.18v0a7.76,7.76,0,0,0-6-12.71Zm1.54,8.08a1.92,1.92,0,0,1-.31.18l0,0a2.93,2.93,0,0,1-2.39,0l0,0a1.92,1.92,0,0,1-.31-.18,2.85,2.85,0,1,1,3.09,0Zm-3.19.55.06,0,.24.11.19.08h0a3.37,3.37,0,0,0,2.23,0h0l.19-.08.24-.11.06,0,.11-.06a5.72,5.72,0,0,1,3.74,3.92,7.33,7.33,0,0,1-2.35,1.81h0l-.28.12-.06,0-.25.1-.11,0-.23.08-.14,0-.2.06-.18,0-.18,0-.2,0-.16,0L251,48l-.15,0-.26,0h-1l-.26,0-.15,0-.23,0-.16,0-.2,0-.18,0-.18,0-.2-.06-.14,0-.23-.08-.1,0-.26-.1-.06,0-.28-.12h0a7.33,7.33,0,0,1-2.35-1.81,5.72,5.72,0,0,1,3.74-3.92ZM256,45.06a6.22,6.22,0,0,0-3.64-3.8,3.37,3.37,0,1,0-4.49,0,6.22,6.22,0,0,0-3.64,3.8,7.26,7.26,0,1,1,11.77,0Z" transform="translate(-12.62 -5.57)"/></svg>