<svg id="Ebene_1" data-name="Ebene 1" xmlns="http://www.w3.org/2000/svg" viewBox="0 0 525.33 100.53"><defs><style>.cls-1{fill:#fff;}</style></defs><path class="cls-1" d="M87.43,112.29H61.62V73.06q0-5.16-2.37-7.49a7.64,7.64,0,0,0-5.5-2.32,10.39,10.39,0,0,0-4.62,1.22,15.68,15.68,0,0,0-4.49,3.41,17.32,17.32,0,0,0-3.26,5v39.4H15.57V41.79H38.8V52.45A23,23,0,0,1,45.32,46,30.17,30.17,0,0,1,54.42,42,45.5,45.5,0,0,1,65.7,40.7q7.33,0,11.68,2.54a16.85,16.85,0,0,1,6.52,6.54,25.69,25.69,0,0,1,2.85,8.35,50.9,50.9,0,0,1,.68,7.95Z" transform="translate(-15.57 -13.12)"/><path class="cls-1" d="M99.25,88.18V41.79h25.81V82.18a11,11,0,0,0,2.11,7.14,7.07,7.07,0,0,0,5.78,2.6A16.76,16.76,0,0,0,137,91.4a12,12,0,0,0,4.14-2.06A19.79,19.79,0,0,0,145.31,85V41.79h25.81v42.1q0,3.6,1.08,5A5.23,5.23,0,0,0,176,90.56v21.73c-2.27.46-4.3.8-6.12,1a38.15,38.15,0,0,1-4.75.34q-6.51,0-10.33-2.42a11.11,11.11,0,0,1-4.88-7.37l-.55-2.55a29,29,0,0,1-12,9.46,41.28,41.28,0,0,1-15.83,2.88q-10.73,0-16.51-6.56T99.25,88.18Z" transform="translate(-15.57 -13.12)"/><path class="cls-1" d="M221.92,113.65a44.43,44.43,0,0,1-16.77-2.94,35.4,35.4,0,0,1-12.3-8.08,34.91,34.91,0,0,1-7.61-11.7,37.86,37.86,0,0,1,2-31.73,34.57,34.57,0,0,1,13.32-13.43q8.76-5.07,21.39-5.07,12.92,0,21.74,5.44a34.76,34.76,0,0,1,13.18,14l-25.13,7.62a12.26,12.26,0,0,0-4.28-3.95,11.65,11.65,0,0,0-5.64-1.36,11.83,11.83,0,0,0-6.38,1.77,12.43,12.43,0,0,0-4.56,5,17.12,17.12,0,0,0-1.7,8,17.12,17.12,0,0,0,1.7,7.88,12.41,12.41,0,0,0,4.56,5.1,11.91,11.91,0,0,0,6.38,1.76,12.2,12.2,0,0,0,3.94-.61,11.89,11.89,0,0,0,3.33-1.84,12.16,12.16,0,0,0,2.65-2.85l25.13,7.61a33,33,0,0,1-7.81,10,37.68,37.68,0,0,1-11.68,6.86A44.07,44.07,0,0,1,221.92,113.65Z" transform="translate(-15.57 -13.12)"/><path class="cls-1" d="M264.44,13.12h25.82V83.9a9.38,9.38,0,0,0,1.7,6,6,6,0,0,0,5,2.1,13.09,13.09,0,0,0,3.54-.54A16.07,16.07,0,0,0,304,90l3.26,19a47.26,47.26,0,0,1-10.39,3.4,53.33,53.33,0,0,1-10.94,1.22q-10.32,0-15.89-5.36T264.44,93Z" transform="translate(-15.57 -13.12)"/><path class="cls-1" d="M348.4,113.65a45.66,45.66,0,0,1-16.71-2.87A35.56,35.56,0,0,1,319.4,103a33.48,33.48,0,0,1-7.54-11.38,35.67,35.67,0,0,1-2.59-13.52,39.15,39.15,0,0,1,4.49-18.6,34.18,34.18,0,0,1,13.18-13.61q8.69-5.15,21.46-5.14t21.47,5.08A34.31,34.31,0,0,1,383,59.16a37.4,37.4,0,0,1,4.49,18.06c0,1.34-.08,2.7-.21,4.08s-.3,2.61-.47,3.69H336.71a10.39,10.39,0,0,0,2.11,5.87,10.57,10.57,0,0,0,4.62,3.28,16.19,16.19,0,0,0,5.77,1,17.38,17.38,0,0,0,8-1.9,9.56,9.56,0,0,0,5-5.31L384,94.23a32,32,0,0,1-7.94,10,38.9,38.9,0,0,1-12,6.86A45.74,45.74,0,0,1,348.4,113.65ZM336.17,69.5h23.64a12.53,12.53,0,0,0-2-5.61,10.66,10.66,0,0,0-4.07-3.58,13.77,13.77,0,0,0-11.55,0,10.69,10.69,0,0,0-4.08,3.58A12.53,12.53,0,0,0,336.17,69.5Z" transform="translate(-15.57 -13.12)"/><path class="cls-1" d="M395.27,88.18V41.79h25.81V82.18a11,11,0,0,0,2.11,7.14,7,7,0,0,0,5.77,2.6A16.78,16.78,0,0,0,433,91.4a12,12,0,0,0,4.14-2.06A19.76,19.76,0,0,0,441.32,85V41.79h25.81v42.1c0,2.4.37,4.07,1.09,5A5.23,5.23,0,0,0,472,90.56v21.73c-2.27.46-4.3.8-6.12,1a38.15,38.15,0,0,1-4.75.34q-6.53,0-10.33-2.42a11.08,11.08,0,0,1-4.88-7.37l-.55-2.55a29,29,0,0,1-12,9.46,41.19,41.19,0,0,1-15.82,2.88q-10.73,0-16.51-6.56T395.27,88.18Z" transform="translate(-15.57 -13.12)"/><path class="cls-1" d="M511.28,113.65a56.73,56.73,0,0,1-18.4-3.06,41.45,41.45,0,0,1-15.29-8.89l8.84-15.9a71.25,71.25,0,0,0,12.83,6.79A30.68,30.68,0,0,0,510.47,95a10,10,0,0,0,4.21-.66,2.25,2.25,0,0,0,1.36-2.2,2.51,2.51,0,0,0-.95-2,11,11,0,0,0-3.06-1.6q-2.1-.8-5.36-1.74-8.43-2.93-14.06-5.46a21.3,21.3,0,0,1-8.43-6.2c-1.86-2.44-2.78-5.72-2.78-9.81a22.47,22.47,0,0,1,3.67-12.73A24.77,24.77,0,0,1,495.6,43.9a38.82,38.82,0,0,1,16.5-3.2,49.05,49.05,0,0,1,14.47,2.24A39.56,39.56,0,0,1,540.63,51l-9.78,15.77a68.37,68.37,0,0,0-11.48-6A23.83,23.83,0,0,0,511,59a10.25,10.25,0,0,0-3.05.4,4,4,0,0,0-2,1.19,3.17,3.17,0,0,0-.68,2.12,2.79,2.79,0,0,0,.95,2.19,8.8,8.8,0,0,0,3,1.59c1.36.49,3.07,1,5.16,1.65a106,106,0,0,1,15.08,5.37,21.77,21.77,0,0,1,8.63,6.56C540,82.67,540.9,86,540.9,90.19q0,11-7.95,17.23T511.28,113.65Z" transform="translate(-15.57 -13.12)"/></svg>