<svg xmlns="http://www.w3.org/2000/svg" xmlns:xlink="http://www.w3.org/1999/xlink" viewBox="0 0 569.46 499.94"><defs><style>.cls-1{isolation:isolate;}.cls-2{fill:#6034a6;}.cls-3{fill:url(#linear-gradient);}.cls-4,.cls-5,.cls-6,.cls-8,.cls-9{mix-blend-mode:overlay;}.cls-4,.cls-5,.cls-8{opacity:0.77;}.cls-4{fill:url(#linear-gradient-2);}.cls-5{fill:url(#linear-gradient-3);}.cls-6,.cls-9{opacity:0.49;}.cls-6{fill:url(#linear-gradient-4);}.cls-7{fill:url(#linear-gradient-5);}.cls-8{fill:url(#linear-gradient-6);}.cls-9{fill:url(#linear-gradient-7);}</style><linearGradient id="linear-gradient" x1="593.85" y1="204.96" x2="979.73" y2="204.96" gradientTransform="matrix(-1, 0, 0, 1, 999.89, 0)" gradientUnits="userSpaceOnUse"><stop offset="0" stop-color="#3f51b5"/><stop offset="0.23" stop-color="#5049b4"/><stop offset="0.69" stop-color="#7b36b2"/><stop offset="1" stop-color="#9c27b0"/></linearGradient><linearGradient id="linear-gradient-2" x1="136.26" y1="133.34" x2="333.52" y2="133.34" gradientUnits="userSpaceOnUse"><stop offset="0" stop-opacity="0"/><stop offset="1"/></linearGradient><linearGradient id="linear-gradient-3" x1="0" y1="310.23" x2="202.03" y2="310.23" xlink:href="#linear-gradient-2"/><linearGradient id="linear-gradient-4" x1="273.22" y1="314.54" x2="385.88" y2="314.54" gradientUnits="userSpaceOnUse"><stop offset="0" stop-color="#fff"/><stop offset="0.1" stop-color="#fff" stop-opacity="0.93"/><stop offset="0.31" stop-color="#fff" stop-opacity="0.74"/><stop offset="0.61" stop-color="#fff" stop-opacity="0.44"/><stop offset="0.98" stop-color="#fff" stop-opacity="0.03"/><stop offset="1" stop-color="#fff" stop-opacity="0"/></linearGradient><linearGradient id="linear-gradient-5" x1="340.2" y1="146.94" x2="569.46" y2="146.94" gradientTransform="matrix(1, 0, 0, 1, 0, 0)" xlink:href="#linear-gradient"/><linearGradient id="linear-gradient-6" x1="340.2" y1="76.12" x2="569.46" y2="76.12" xlink:href="#linear-gradient-2"/><linearGradient id="linear-gradient-7" x1="428.32" y1="293.89" x2="428.32" y2="101.1" gradientUnits="userSpaceOnUse"><stop offset="0" stop-color="#fff" stop-opacity="0"/><stop offset="0.02" stop-color="#fff" stop-opacity="0.03"/><stop offset="0.39" stop-color="#fff" stop-opacity="0.44"/><stop offset="0.69" stop-color="#fff" stop-opacity="0.74"/><stop offset="0.9" stop-color="#fff" stop-opacity="0.93"/><stop offset="1" stop-color="#fff"/></linearGradient></defs><g class="cls-1"><g id="Ebene_1" data-name="Ebene 1"><path class="cls-2" d="M92,520.71H66.21V481.47c0-3.44-.79-5.94-2.37-7.48a7.65,7.65,0,0,0-5.5-2.33,10.39,10.39,0,0,0-4.62,1.22,15.76,15.76,0,0,0-4.49,3.42,17.14,17.14,0,0,0-3.26,5v39.41H20.16V450.2H43.39v10.66a23.13,23.13,0,0,1,6.52-6.48,30.16,30.16,0,0,1,9.1-3.93,45,45,0,0,1,11.28-1.34q7.33,0,11.68,2.54a16.81,16.81,0,0,1,6.52,6.55,25.64,25.64,0,0,1,2.85,8.34,50.9,50.9,0,0,1,.68,7.95Z" transform="translate(-20.16 -22.13)"/><path class="cls-2" d="M103.84,496.59V450.2h25.81v40.39a11,11,0,0,0,2.11,7.14,7,7,0,0,0,5.77,2.6,16.78,16.78,0,0,0,4.08-.52,12,12,0,0,0,4.14-2.06,19.5,19.5,0,0,0,4.15-4.37V450.2h25.8v42.1c0,2.4.37,4.07,1.09,5A5.23,5.23,0,0,0,180.6,499v21.74c-2.27.45-4.3.79-6.12,1a36.5,36.5,0,0,1-4.75.35q-6.53,0-10.33-2.42a11.13,11.13,0,0,1-4.88-7.38l-.55-2.54a28.9,28.9,0,0,1-12,9.45,41.28,41.28,0,0,1-15.83,2.89q-10.73,0-16.51-6.57T103.84,496.59Z" transform="translate(-20.16 -22.13)"/><path class="cls-2" d="M226.51,522.07a44.72,44.72,0,0,1-16.78-2.94A35.62,35.62,0,0,1,197.44,511a34.87,34.87,0,0,1-7.61-11.69,37.86,37.86,0,0,1,2-31.73,34.66,34.66,0,0,1,13.32-13.44q8.76-5.07,21.39-5.07,12.92,0,21.74,5.44a34.82,34.82,0,0,1,13.18,14l-25.13,7.62a12.23,12.23,0,0,0-4.28-3.94,11.65,11.65,0,0,0-5.64-1.36,11.88,11.88,0,0,0-6.39,1.76,12.61,12.61,0,0,0-4.55,5,19.32,19.32,0,0,0,0,15.85,12.49,12.49,0,0,0,4.55,5.09,12,12,0,0,0,6.39,1.76,11.22,11.22,0,0,0,7.27-2.44A12.57,12.57,0,0,0,236.3,495l25.13,7.6a32.92,32.92,0,0,1-7.82,10.05,37.28,37.28,0,0,1-11.68,6.87A44,44,0,0,1,226.51,522.07Z" transform="translate(-20.16 -22.13)"/><path class="cls-2" d="M269,421.54h25.82v70.78a9.41,9.41,0,0,0,1.69,6,6,6,0,0,0,5,2.1,12.71,12.71,0,0,0,3.54-.54,15.6,15.6,0,0,0,3.53-1.49l3.26,19a47.8,47.8,0,0,1-10.39,3.39,52.69,52.69,0,0,1-10.94,1.23q-10.33,0-15.9-5.37T269,501.41Z" transform="translate(-20.16 -22.13)"/><path class="cls-2" d="M353,522.07a45.66,45.66,0,0,1-16.71-2.88,35.56,35.56,0,0,1-12.3-7.83A33.73,33.73,0,0,1,316.44,500a35.93,35.93,0,0,1-2.58-13.52,39.16,39.16,0,0,1,4.49-18.61,34.28,34.28,0,0,1,13.17-13.61q8.7-5.14,21.47-5.14t21.46,5.09a34.18,34.18,0,0,1,13.18,13.37,37.44,37.44,0,0,1,4.49,18.07c0,1.34-.08,2.7-.21,4.08s-.3,2.61-.47,3.68H341.3a10.36,10.36,0,0,0,2.11,5.87,10.49,10.49,0,0,0,4.62,3.28,16.19,16.19,0,0,0,5.77,1,17.38,17.38,0,0,0,7.95-1.9,9.56,9.56,0,0,0,5-5.31l21.87,6.26a31.87,31.87,0,0,1-7.95,10.05,38.56,38.56,0,0,1-12,6.87A45.74,45.74,0,0,1,353,522.07Zm-12.23-44.16H364.4a12.53,12.53,0,0,0-2-5.61,10.74,10.74,0,0,0-4.07-3.58,13.77,13.77,0,0,0-11.55,0,10.7,10.7,0,0,0-4.08,3.58A12.53,12.53,0,0,0,340.76,477.91Z" transform="translate(-20.16 -22.13)"/><path class="cls-2" d="M399.86,496.59V450.2h25.81v40.39a11,11,0,0,0,2.11,7.14,7,7,0,0,0,5.77,2.6,16.78,16.78,0,0,0,4.08-.52,12,12,0,0,0,4.14-2.06,19.48,19.48,0,0,0,4.14-4.37V450.2h25.81v42.1c0,2.4.37,4.07,1.09,5a5.23,5.23,0,0,0,3.81,1.67v21.74q-3.4.67-6.12,1a36.5,36.5,0,0,1-4.75.35q-6.53,0-10.33-2.42a11.14,11.14,0,0,1-4.89-7.38l-.54-2.54a28.87,28.87,0,0,1-12,9.45,41.19,41.19,0,0,1-15.82,2.89q-10.74,0-16.51-6.57T399.86,496.59Z" transform="translate(-20.16 -22.13)"/><path class="cls-2" d="M515.87,522.07a56.74,56.74,0,0,1-18.4-3.07,41.43,41.43,0,0,1-15.29-8.88l8.84-15.9A72.55,72.55,0,0,0,503.85,501a30.82,30.82,0,0,0,11.21,2.44,10.14,10.14,0,0,0,4.21-.65,2.27,2.27,0,0,0,1.36-2.2,2.5,2.5,0,0,0-1-2,10.83,10.83,0,0,0-3.06-1.61c-1.4-.53-3.19-1.1-5.36-1.73q-8.43-2.94-14.06-5.47a21.21,21.21,0,0,1-8.43-6.2q-2.79-3.66-2.79-9.8a22.51,22.51,0,0,1,3.68-12.74,24.75,24.75,0,0,1,10.53-8.73,38.66,38.66,0,0,1,16.5-3.21,49.05,49.05,0,0,1,14.47,2.24,39.6,39.6,0,0,1,14.06,8.09l-9.78,15.76a68.76,68.76,0,0,0-11.48-6,24.05,24.05,0,0,0-8.36-1.77,10.25,10.25,0,0,0-3.05.4,4,4,0,0,0-2,1.19,3.18,3.18,0,0,0-.68,2.13,2.79,2.79,0,0,0,1,2.18,9,9,0,0,0,3,1.6c1.35.48,3.07,1,5.16,1.64A104.63,104.63,0,0,1,534.08,482a21.74,21.74,0,0,1,8.63,6.55q2.77,3.86,2.78,10.09,0,11-8,17.22T515.87,522.07Z" transform="translate(-20.16 -22.13)"/><path class="cls-3" d="M406,387.8,213.57,22.13,156.42,129.68l137,258.12Zm-183.85,0L120.63,196.26,20.16,387.8Z" transform="translate(-20.16 -22.13)"/><polygon class="cls-4" points="136.26 107.55 333.52 266.67 193.41 0 136.26 107.55"/><polygon class="cls-5" points="202.03 365.67 58.16 254.79 0 365.67 202.03 365.67"/><polygon class="cls-6" points="273.22 365.67 331.8 263.42 385.88 365.67 273.22 365.67"/><polygon class="cls-7" points="420.06 0 340.2 152.24 415.31 293.89 569.46 0 420.06 0"/><polygon class="cls-8" points="340.2 152.24 569.46 0 420.06 0 340.2 152.24"/><polygon class="cls-9" points="340.2 152.24 516.43 101.1 415.31 293.89 340.2 152.24"/></g></g></svg>